<?xml version="1.0" encoding="utf-8"?>
<!-- Generator: Adobe Illustrator 25.0.1, SVG Export Plug-In . SVG Version: 6.00 Build 0)  -->
<svg version="1.1" xmlns="http://www.w3.org/2000/svg" xmlns:xlink="http://www.w3.org/1999/xlink" x="0px" y="0px"
	 viewBox="0 0 609.3 851" style="enable-background:new 0 0 609.3 851;" xml:space="preserve">
<style type="text/css">
	.st0{display:none;fill:#1D1D1B;}
	.st1{fill-rule:evenodd;clip-rule:evenodd;fill:#FFFFFF;}
</style>
<g id="Layer_1">
	<rect y="0" class="st0" width="609.3" height="851"/>
	<path class="st1" d="M423.1,259.2c-6.1-15.5-13.4-32.2-22.9-46.6l0,0c-14.6-22.2-34-40.9-56.8-54.5c-22.7-13.5-48.1-21.6-74.4-23.7
		c-4.4-0.3-8.9-0.5-13.5-0.5c-23-0.2-45.8,4.3-67.1,13.1c-21.4,8.9-40.7,22-57,38.5c-16.4,16.6-29.3,36.3-38.2,57.9
		c-17.9,43.9-17.9,93,0,136.8c4.7,11.6,10.7,22.7,17.7,33.1c11.6,83.7,80.2,148.6,164.5,152.6l0.3-6v6h8.7v-95l-9,1.1
		c-6.6,0.8-13.3,1.3-19.9,1.3h-0.1c-20.9,0.2-41.7-3.9-61-11.9c-19.4-8.1-37-20-51.8-34.9c-5.9-6-11.4-12.5-16.3-19.4
		c-0.7-6.3-1.1-12.6-1.1-18.9c-0.1-42.7,16.6-83.7,46.4-114.2c29.4-30.2,69.8-47.3,112-47.3h8c44.8,0.8,85.3,16.6,118.4,42.9
		c1.7,3.9,3.9,7.9,6,12l1.8,3.4c3.7,7,7,14.2,9.9,21.5c6.4,16.9,12.3,40.5,13.5,76.8c2.6,76.1-20.7,136.1-58.4,177
		s-90.2,63.2-147,63.2l0,0c-22.4,0-44.7-3.8-65.9-11.2l-10.6-3.7v86.6l4.4,2.3c33,16.9,69.8,20.7,107.5,20.7
		c136,0,242.7-115,242.7-256.6C513.9,380,479.1,305.6,423.1,259.2z M188.4,476.5c21.3,8.8,44.1,13.3,67.1,13.1
		c4.3,0,8.6-0.2,12.9-0.5V549c-62.9-6.1-115-49.7-134.7-108.6C149.4,455.8,168,468.1,188.4,476.5z M291.9,210.3h-8.4
		c-46.4,0.1-90.9,18.9-123.3,52.1c-30.3,31-48.3,72-50.7,115.2c-0.5-1.2-1.1-2.5-1.6-3.7c-16.2-39.8-16.2-84.4,0-124.3
		c8-19.6,19.8-37.5,34.7-52.6c14.8-15,32.4-26.9,51.8-34.9c19.3-8,40.1-12.1,61-11.9h0.1c4.1,0,8.2,0.2,12.2,0.5h0.1
		c23.9,1.9,47,9.3,67.6,21.5c20.7,12.4,38.4,29.3,51.6,49.5l2.5-1.7l-2.5,1.7c4.1,6.2,7.7,12.7,10.9,19.4
		C365.9,221.5,329.3,210.8,291.9,210.3z M271.1,701.7c-35,0-67.3-3.4-95.9-16.8v-53.8c19.6,5.8,40,8.7,60.5,8.7
		c61,0,117.8-24,158.7-68.4s65.4-108.8,62.7-188.7c-1.2-36.6-7-61.6-13.9-80.1c34.2,42.1,54.6,98.1,54.6,158.9
		C497.9,594.7,397.7,701.7,271.1,701.7z"/>
</g>
<g id="Layer_2">
</g>
</svg>
