<svg width="435" height="586" viewBox="0 0 435 586" fill="none" xmlns="http://www.w3.org/2000/svg">
<path fill-rule="evenodd" clip-rule="evenodd" d="M344.1 126.201C338 110.701 330.7 94.0009 321.2 79.6009C306.6 57.4009 287.2 38.7009 264.4 25.1009C241.7 11.6009 216.3 3.50092 190 1.40092C185.6 1.10092 181.1 0.900918 176.5 0.900918C153.5 0.700918 130.7 5.20092 109.4 14.0009C87.9999 22.9009 68.6999 36.0009 52.3999 52.5009C35.9999 69.1009 23.0999 88.8009 14.1999 110.401C-3.7001 154.301 -3.7001 203.401 14.1999 247.201C18.8999 258.801 24.8999 269.901 31.8999 280.301C43.4999 364.001 112.1 428.901 196.4 432.901L196.7 426.901V432.901H205.4V337.901L196.4 339.001C189.8 339.801 183.1 340.301 176.5 340.301H176.4C155.5 340.501 134.7 336.401 115.4 328.401C95.9999 320.301 78.3999 308.401 63.5999 293.501C57.6999 287.501 52.1999 281.001 47.2999 274.101C46.5999 267.801 46.1999 261.501 46.1999 255.201C46.0999 212.501 62.7999 171.501 92.5999 141.001C122 110.801 162.4 93.7009 204.6 93.7009H212.6C257.4 94.5009 297.9 110.301 331 136.601C332.7 140.501 334.9 144.501 337 148.601L338.8 152.001C342.5 159.001 345.8 166.201 348.7 173.501C355.1 190.401 361 214.001 362.2 250.301C364.8 326.401 341.5 386.401 303.8 427.301C266.1 468.201 213.6 490.501 156.8 490.501C134.4 490.501 112.1 486.701 90.8999 479.301L80.2999 475.601V562.201L84.6999 564.501C117.7 581.401 154.5 585.201 192.2 585.201C328.2 585.201 434.9 470.201 434.9 328.601C434.9 247.001 400.1 172.601 344.1 126.201ZM109.4 343.501C130.7 352.301 153.5 356.801 176.5 356.601C180.8 356.601 185.1 356.401 189.4 356.101V416.001C126.5 409.901 74.3999 366.301 54.6999 307.401C70.3999 322.801 88.9999 335.101 109.4 343.501ZM212.9 77.3009H204.5C158.1 77.4009 113.6 96.2009 81.1999 129.401C50.8999 160.401 32.8999 201.401 30.4999 244.601C29.9999 243.401 29.3999 242.101 28.8999 240.901C12.6999 201.101 12.6999 156.501 28.8999 116.601C36.8999 97.0009 48.6999 79.1009 63.5999 64.0009C78.3999 49.0009 95.9999 37.1009 115.4 29.1009C134.7 21.1009 155.5 17.0009 176.4 17.2009H176.5C180.6 17.2009 184.7 17.4009 188.7 17.7009H188.8C212.7 19.6009 235.8 27.0009 256.4 39.2009C277.1 51.6009 294.8 68.5009 308 88.7009L310.5 87.0009L308 88.7009C312.1 94.9009 315.7 101.401 318.9 108.101C286.9 88.5009 250.3 77.8009 212.9 77.3009ZM192.1 568.701C157.1 568.701 124.8 565.301 96.1999 551.901V498.101C115.8 503.901 136.2 506.801 156.7 506.801C217.7 506.801 274.5 482.801 315.4 438.401C356.3 394.001 380.8 329.601 378.1 249.701C376.9 213.101 371.1 188.101 364.2 169.601C398.4 211.701 418.8 267.701 418.8 328.501C418.9 461.701 318.7 568.701 192.1 568.701Z" fill="black"/>
</svg>
