<svg width="200" height="54" viewBox="0 0 200 54" fill="none" xmlns="http://www.w3.org/2000/svg">
<path d="M1 4.63911C4.86308 5.6353 7.59616 5.97307 11.7937 5.97307C15.9913 5.97307 18.19 6.94323 22.5874 6.94323C26.8343 6.94323 28.7347 5.02983 32.9814 5.00292C37.3775 4.97506 39.3555 19.0456 43.553 19.0456C49.245 19.0456 48.8779 0.936064 54.5688 1.00102C60.1452 1.06467 60.1656 5.97307 64.9628 6.94323C69.6111 7.88327 71.3849 12.1606 75.7565 10.8239C79.5103 9.67604 80.2774 2.43892 85.0422 2.50426C90.5781 2.58017 91.0932 8.46412 95.6805 10.8239C100.268 13.1836 101.721 20.9413 106.319 22.805C111.106 24.7453 113.046 14.9942 118.132 19.5553C122.729 23.6784 122.411 24.2098 128.659 22.0531C135.361 19.7397 133.323 25.4975 139.32 24.406C146.169 23.1594 146.267 34.7623 152.063 32.5794C157.035 30.7071 156.84 41.2625 161.638 42.3539C167.496 43.6868 166.175 32.6308 171.425 33.3892C175.622 33.9955 176.466 25.74 182.095 25.74C187.891 25.74 190.973 42.5462 192.489 46.1133" stroke="url(#paint0_linear_37269_59325)" stroke-width="2" stroke-linecap="round"/>
<ellipse opacity="0.2" rx="6.92308" ry="6.92308" transform="matrix(1 0 0 -1 192.052 45.5769)" fill="url(#paint1_linear_37269_59325)"/>
<ellipse rx="3.46154" ry="3.46154" transform="matrix(1 0 0 -1 192.052 45.5775)" fill="url(#paint2_linear_37269_59325)"/>
<path opacity="0.7" d="M7.38232 35.832H194.616" stroke="url(#paint3_linear_37269_59325)" stroke-dasharray="2 2"/>
<defs>
<linearGradient id="paint0_linear_37269_59325" x1="192.489" y1="23.7943" x2="0.999999" y2="23.7943" gradientUnits="userSpaceOnUse">
<stop stop-color="#F53D26"/>
<stop offset="1" stop-color="#F53D26" stop-opacity="0"/>
</linearGradient>
<linearGradient id="paint1_linear_37269_59325" x1="13.8462" y1="6.8502" x2="-6.9489e-08" y2="6.8502" gradientUnits="userSpaceOnUse">
<stop stop-color="#F53D26"/>
<stop offset="1" stop-color="#F53D26" stop-opacity="0.2"/>
</linearGradient>
<linearGradient id="paint2_linear_37269_59325" x1="6.92308" y1="3.4251" x2="-3.47445e-08" y2="3.4251" gradientUnits="userSpaceOnUse">
<stop stop-color="#F53D26"/>
<stop offset="1" stop-color="#F53D26" stop-opacity="0.2"/>
</linearGradient>
<linearGradient id="paint3_linear_37269_59325" x1="7.38233" y1="36.332" x2="194.616" y2="36.3324" gradientUnits="userSpaceOnUse">
<stop stop-color="white" stop-opacity="0"/>
<stop offset="1" stop-color="white"/>
</linearGradient>
</defs>
</svg>
