<svg width="44" height="51" viewBox="0 0 44 51" fill="none" xmlns="http://www.w3.org/2000/svg">
<path d="M17.1111 46.1429H26.8889C26.8889 48.8143 24.6889 51 22 51C19.3111 51 17.1111 48.8143 17.1111 46.1429ZM44 41.2857V43.7143H0V41.2857L4.88889 36.4286V21.8571C4.88889 14.3286 9.77778 7.77143 17.1111 5.58571V4.85714C17.1111 2.18571 19.3111 0 22 0C24.6889 0 26.8889 2.18571 26.8889 4.85714V5.58571C34.2222 7.77143 39.1111 14.3286 39.1111 21.8571V36.4286L44 41.2857ZM34.2222 21.8571C34.2222 15.0571 28.8444 9.71429 22 9.71429C15.1556 9.71429 9.77778 15.0571 9.77778 21.8571V38.8571H34.2222V21.8571Z" fill="white"/>
</svg>
