<svg width="374" height="82" viewBox="0 0 374 82" fill="none" xmlns="http://www.w3.org/2000/svg">
<g clip-path="url(#clip0_37043_56094)">
<path d="M22.0029 63.6758C17.9968 63.6758 14.2988 62.735 10.909 60.8534C7.58083 58.9719 4.93062 56.3924 2.95837 53.1148C0.986124 49.8373 0 46.1349 0 42.0076C0 38.1838 0.986124 34.6635 2.95837 31.4466C4.93062 28.1691 7.61165 25.5592 11.0014 23.617C14.4529 21.6747 18.2433 20.7036 22.3727 20.7036C25.8241 20.7036 28.7825 21.2499 31.2478 22.3424C33.7131 23.4349 36.1168 25.1344 38.4588 27.4408V32.3571C36.425 29.383 34.1446 27.1373 31.6176 25.6199C29.1523 24.0418 26.0707 23.2528 22.3727 23.2528C18.9829 23.2528 15.778 24.1329 12.758 25.893C9.79961 27.5925 7.42675 29.8989 5.6394 32.8123C3.85205 35.7257 2.95837 38.8515 2.95837 42.1897C2.95837 45.8314 3.82123 49.1089 5.54695 52.0223C7.27267 54.875 9.58389 57.1207 12.4806 58.7595C15.439 60.3375 18.6131 61.1266 22.0029 61.1266C28.9058 61.1266 34.3911 58.0615 38.4588 51.9313V56.8476C36.2401 59.154 33.7748 60.8838 31.0629 62.037C28.4127 63.1295 25.3927 63.6758 22.0029 63.6758Z" fill="white"/>
<path d="M67.3289 63.949C63.1378 63.949 59.3474 62.9475 55.9576 60.9446C52.5678 58.881 49.9176 56.18 48.007 52.8418C46.0964 49.4429 45.1411 45.7708 45.1411 41.8256C45.1411 37.9411 46.0964 34.3298 48.007 30.9915C49.9793 27.6533 52.6295 25.0131 55.9576 23.0708C59.3474 21.0679 63.107 20.0664 67.2364 20.0664C71.3042 20.0664 75.0022 21.0679 78.3303 23.0708C81.7201 25.0131 84.3703 27.6533 86.2809 30.9915C88.1916 34.3298 89.1469 37.9411 89.1469 41.8256C89.1469 45.8922 88.2224 49.6249 86.3734 53.0239C84.5244 56.3621 81.9358 59.0327 78.6077 61.0356C75.3411 62.9779 71.5815 63.949 67.3289 63.949ZM67.3289 61.3998C70.8419 61.3998 74.0468 60.5197 76.9436 58.7596C79.8403 56.9994 82.0899 54.6626 83.6924 51.7493C85.3565 48.7752 86.1885 45.528 86.1885 42.0077C86.1885 38.5481 85.3565 35.3312 83.6924 32.3572C82.0283 29.3831 79.7479 27.016 76.8511 25.2558C73.9544 23.4957 70.7495 22.6156 67.2364 22.6156C63.7234 22.6156 60.4876 23.526 57.5293 25.3469C54.6325 27.107 52.3213 29.4742 50.5956 32.4482C48.9315 35.4223 48.0995 38.6391 48.0995 42.0987C48.0995 45.5584 48.9315 48.7752 50.5956 51.7493C52.3213 54.6626 54.6325 56.9994 57.5293 58.7596C60.4876 60.5197 63.7542 61.3998 67.3289 61.3998Z" fill="white"/>
<path d="M97.4709 21.523H100.429V27.7139C103.264 22.919 107.825 20.5215 114.112 20.5215C117.132 20.5215 119.751 21.3713 121.97 23.0707C124.189 24.7095 125.73 27.198 126.592 30.5362C127.394 27.5622 129.15 25.1647 131.862 23.3438C134.636 21.4623 137.748 20.5215 141.199 20.5215C145.699 20.5215 149.181 21.8265 151.646 24.4364C154.112 26.9856 155.344 30.6273 155.344 35.3615V62.4922H152.386V35.3615C152.386 31.5377 151.369 28.5333 149.335 26.3483C147.363 24.1632 144.743 23.0707 141.477 23.0707C139.011 23.0707 136.731 23.6777 134.636 24.8916C132.54 26.0448 130.876 27.6229 129.643 29.6258C128.411 31.6287 127.794 33.8441 127.794 36.2719V62.4922H124.836V37.0003C124.836 32.6302 123.788 29.2313 121.693 26.8035C119.597 24.315 116.885 23.0707 113.557 23.0707C111.338 23.0707 109.212 23.617 107.178 24.7095C105.206 25.802 103.573 27.289 102.278 29.1706C101.046 30.9914 100.429 32.9944 100.429 35.1794V62.4922H97.4709V21.523Z" fill="white"/>
<path d="M166.988 21.523H169.947V27.7139C172.782 22.919 177.343 20.5215 183.629 20.5215C186.649 20.5215 189.269 21.3713 191.487 23.0707C193.706 24.7095 195.247 27.198 196.11 30.5362C196.911 27.5622 198.668 25.1647 201.38 23.3438C204.153 21.4623 207.265 20.5215 210.717 20.5215C215.216 20.5215 218.698 21.8265 221.164 24.4364C223.629 26.9856 224.862 30.6273 224.862 35.3615V62.4922H221.903V35.3615C221.903 31.5377 220.886 28.5333 218.852 26.3483C216.88 24.1632 214.261 23.0707 210.994 23.0707C208.529 23.0707 206.249 23.6777 204.153 24.8916C202.057 26.0448 200.393 27.6229 199.161 29.6258C197.928 31.6287 197.312 33.8441 197.312 36.2719V62.4922H194.353V37.0003C194.353 32.6302 193.306 29.2313 191.21 26.8035C189.115 24.315 186.403 23.0707 183.075 23.0707C180.856 23.0707 178.729 23.617 176.696 24.7095C174.723 25.802 173.09 27.289 171.796 29.1706C170.563 30.9914 169.947 32.9944 169.947 35.1794V62.4922H166.988V21.523Z" fill="white"/>
<path d="M256.105 63.4937C252.161 63.4937 248.493 62.5226 245.104 60.5803C241.714 58.6381 239.033 56.0282 237.061 52.7506C235.088 49.4124 234.102 45.8314 234.102 42.0076C234.102 38.1838 235.088 34.6331 237.061 31.3556C239.033 28.0174 241.714 25.3771 245.104 23.4349C248.493 21.4926 252.161 20.5215 256.105 20.5215C260.111 20.5215 263.902 21.5837 267.476 23.708C271.051 25.7716 273.547 28.4726 274.965 31.8108V21.523H277.923V62.4922H274.965V52.2954C273.301 55.6944 270.712 58.4256 267.199 60.4893C263.748 62.4922 260.05 63.4937 256.105 63.4937ZM256.29 60.9445C259.68 60.9445 262.823 60.0948 265.72 58.3953C268.616 56.6351 270.897 54.3287 272.561 51.476C274.287 48.5627 275.15 45.4065 275.15 42.0076C275.15 38.6694 274.287 35.5436 272.561 32.6302C270.835 29.7168 268.524 27.4104 265.627 25.711C262.731 23.9508 259.587 23.0707 256.198 23.0707C252.808 23.0707 249.634 23.9508 246.675 25.711C243.779 27.4711 241.436 29.8079 239.649 32.7212C237.923 35.6346 237.061 38.7604 237.061 42.0986C237.061 45.4369 237.923 48.5627 239.649 51.476C241.436 54.3287 243.809 56.6351 246.768 58.3953C249.726 60.0948 252.9 60.9445 256.29 60.9445Z" fill="white"/>
<path fill-rule="evenodd" clip-rule="evenodd" d="M324.085 67.2391V76.8533C327.525 78.6013 332.215 79.5378 336.217 79.9124C351.725 81.161 372.612 69.0496 371.986 44.702C371.111 32.2784 365.983 26.5349 359.855 19.7925C353.914 13.6119 348.786 11.5518 342.345 11.1772C328.275 10.3656 317.144 22.4145 317.332 34.7132C317.644 50.6952 329.901 58.3741 340.282 58.936V49.4466C339.219 49.5715 338.093 49.6964 336.967 49.6964C323.21 49.6964 312.517 37.8347 313.017 24.8493C313.58 11.4893 325.086 2 337.092 2C340.407 2 355.102 3.49831 359.917 19.6052C376.426 37.148 361.23 75.792 327.462 68.3004C326.587 68.1131 325.086 67.6137 324.085 67.2391Z" stroke="white" stroke-width="2.6" stroke-miterlimit="10"/>
</g>
<defs>
<clipPath id="clip0_37043_56094">
<rect width="374" height="82" fill="white"/>
</clipPath>
</defs>
</svg>
