<svg width="148" height="34" viewBox="0 0 148 34" fill="none" xmlns="http://www.w3.org/2000/svg">
<path fill-rule="evenodd" clip-rule="evenodd" d="M133.119 0.000323702C133.379 0.000371963 133.637 0.0105285 133.893 0.0308362C135.405 0.150923 136.871 0.622913 138.181 1.41137C139.49 2.19982 140.61 3.2842 141.454 4.58303L141.454 4.58335C142.002 5.42414 142.422 6.39199 142.771 7.29576C145.997 9.99392 148 14.3279 148 19.0653C148 27.3096 141.852 34 134.022 34C131.854 34 129.737 33.779 127.833 32.7976L127.578 32.6663V27.6263L128.188 27.8422C129.409 28.2742 130.692 28.494 131.982 28.4926H131.983C135.256 28.4926 138.281 27.1945 140.451 24.8131C142.619 22.4338 143.96 18.9442 143.811 14.5147L143.811 14.5144C143.742 12.3994 143.403 11.0264 143.032 10.045C142.846 9.55202 142.649 9.15022 142.464 8.79084C142.43 8.72516 142.396 8.65978 142.363 8.59473C142.238 8.35599 142.117 8.12179 142.016 7.89414C140.111 6.36305 137.775 5.44149 135.198 5.39775H134.734C132.316 5.39775 129.997 6.38858 128.287 8.15219C126.577 9.9158 125.616 12.3077 125.616 14.8017C125.616 15.1746 125.637 15.5424 125.678 15.9039C125.961 16.3037 126.276 16.6807 126.618 17.0311C127.473 17.9053 128.486 18.5964 129.601 19.0645C130.716 19.5326 131.91 19.7684 133.113 19.7584L133.115 19.7584H133.117C133.501 19.7584 133.885 19.7337 134.266 19.6844L134.784 19.6175V25.1454H134.281V24.7944L134.265 25.1449C129.415 24.9103 125.461 21.1307 124.794 16.2617C124.389 15.6606 124.046 15.0155 123.772 14.3367C123.262 13.075 123 11.7216 123 10.3547C123 8.98783 123.262 7.63448 123.772 6.37271C124.282 5.11095 125.028 3.96576 125.969 3.00318C126.91 2.0406 128.027 1.27968 129.254 0.764301C130.481 0.249164 131.794 -0.0104782 133.119 0.000323702ZM124.712 14.1861C124.858 11.6643 125.894 9.27602 127.635 7.47976C129.518 5.5379 132.072 4.44701 134.734 4.44701H135.217V4.44722C137.465 4.48613 139.531 5.13679 141.317 6.24353C141.126 5.84704 140.919 5.46544 140.689 5.11337L140.831 5.01457L140.689 5.11287C139.922 3.93339 138.906 2.9486 137.716 2.23255C136.527 1.5165 135.196 1.08784 133.823 0.97877M143.935 9.81828C144.328 10.8971 144.662 12.3492 144.732 14.4819C144.888 19.134 143.478 22.8793 141.122 25.4644C138.768 28.0473 135.496 29.4432 131.983 29.4433C130.804 29.4446 129.631 29.2748 128.5 28.9397V32.0728C130.148 32.8502 132.005 33.0493 134.022 33.0493C141.308 33.0493 147.079 26.8208 147.079 19.0653C147.079 15.5295 145.904 12.268 143.935 9.81828ZM124.712 14.1861C124.682 14.1148 124.652 14.0431 124.622 13.971C124.16 12.8251 123.921 11.596 123.921 10.3547C123.921 9.1134 124.16 7.88436 124.622 6.73848C125.085 5.5926 125.764 4.55255 126.618 3.67833C127.473 2.80411 128.486 2.11301 129.601 1.64492C130.716 1.17682 131.91 0.940994 133.113 0.95104L133.115 0.951055H133.117C133.355 0.951055 133.59 0.96031 133.823 0.97877M126.103 17.8408C127.239 21.2686 130.243 23.8054 133.863 24.1625V20.6809C133.615 20.6997 133.367 20.7091 133.119 20.7091C131.794 20.7199 130.481 20.4603 129.254 19.9451C128.084 19.454 127.016 18.7399 126.103 17.8408Z" fill="#D7D7D7"/>
<path d="M8.77746 26.4552H8.46246C6.22246 26.4552 4.29746 25.6269 2.68746 23.9702C1.07746 22.3136 0.272461 20.3769 0.272461 18.1602C0.272461 15.9202 1.08913 13.9952 2.72246 12.3852C4.35579 10.7519 6.36246 9.93523 8.74246 9.93523C11.1225 9.93523 13.1525 10.8336 14.8325 12.6302V14.4152C14.1091 13.3419 13.1875 12.4902 12.0675 11.8602C10.9708 11.2302 9.81579 10.9152 8.60246 10.9152C6.66579 10.9152 4.97413 11.6386 3.52746 13.0852C2.10413 14.5086 1.39246 16.2119 1.39246 18.1952C1.39246 20.1786 2.10413 21.8936 3.52746 23.3402C4.97413 24.7636 6.66579 25.4752 8.60246 25.4752C9.81579 25.4752 10.9708 25.1602 12.0675 24.5302C13.1875 23.9002 14.1091 23.0369 14.8325 21.9402V23.7602C13.1991 25.5569 11.1808 26.4552 8.77746 26.4552Z" fill="#D7D7D7"/>
<path d="M25.108 26.3852C22.868 26.3852 20.943 25.5569 19.333 23.9002C17.723 22.2202 16.918 20.2719 16.918 18.0552C16.918 15.8386 17.7346 13.9252 19.368 12.3152C21.0013 10.6819 22.9613 9.86523 25.248 9.86523C27.558 9.86523 29.518 10.6819 31.128 12.3152C32.7613 13.9252 33.578 15.8502 33.578 18.0902C33.578 20.3069 32.7846 22.2436 31.198 23.9002C29.6113 25.5569 27.6863 26.3852 25.423 26.3852H25.108ZM32.458 18.1602C32.458 16.1769 31.7463 14.4619 30.323 13.0152C28.923 11.5686 27.243 10.8452 25.283 10.8452C23.323 10.8452 21.6196 11.5802 20.173 13.0502C18.7496 14.4969 18.038 16.2002 18.038 18.1602C18.038 20.1202 18.7496 21.8236 20.173 23.2702C21.6196 24.6936 23.323 25.4052 25.283 25.4052C27.2663 25.4052 28.958 24.6936 30.358 23.2702C31.758 21.8236 32.458 20.1202 32.458 18.1602Z" fill="#D7D7D7"/>
<path d="M47.8194 13.5752C48.1694 12.4552 48.8344 11.5569 49.8144 10.8802C50.8177 10.2036 52.0311 9.86523 53.4544 9.86523C54.8778 9.86523 56.1261 10.3786 57.1994 11.4052C58.2728 12.4319 58.8094 13.8202 58.8094 15.5702V26.0002H57.6894V15.5702C57.6894 14.2169 57.2461 13.0969 56.3594 12.2102C55.4727 11.3002 54.3994 10.8452 53.1394 10.8452C51.9027 10.8452 50.7944 11.3119 49.8144 12.2452C48.8577 13.1786 48.3794 14.2636 48.3794 15.5002V26.0002H47.2594V15.5002C47.2594 14.2402 46.8161 13.1552 45.9294 12.2452C45.0427 11.3119 43.9694 10.8452 42.7094 10.8452C41.4494 10.8452 40.3527 11.3119 39.4194 12.2452C38.4861 13.1786 38.0194 14.2636 38.0194 15.5002V26.0002H36.8994V10.2502H38.0194V12.4552C38.4861 11.7552 39.1744 11.1486 40.0844 10.6352C41.0177 10.1219 41.9744 9.86523 42.9544 9.86523C43.9577 9.86523 44.9144 10.2152 45.8244 10.9152C46.7344 11.5919 47.3994 12.4786 47.8194 13.5752Z" fill="#D7D7D7"/>
<path d="M73.9327 13.5752C74.2827 12.4552 74.9477 11.5569 75.9277 10.8802C76.931 10.2036 78.1444 9.86523 79.5677 9.86523C80.991 9.86523 82.2394 10.3786 83.3127 11.4052C84.386 12.4319 84.9227 13.8202 84.9227 15.5702V26.0002H83.8027V15.5702C83.8027 14.2169 83.3594 13.0969 82.4727 12.2102C81.586 11.3002 80.5127 10.8452 79.2527 10.8452C78.016 10.8452 76.9077 11.3119 75.9277 12.2452C74.971 13.1786 74.4927 14.2636 74.4927 15.5002V26.0002H73.3727V15.5002C73.3727 14.2402 72.9294 13.1552 72.0427 12.2452C71.156 11.3119 70.0827 10.8452 68.8227 10.8452C67.5627 10.8452 66.466 11.3119 65.5327 12.2452C64.5994 13.1786 64.1327 14.2636 64.1327 15.5002V26.0002H63.0127V10.2502H64.1327V12.4552C64.5994 11.7552 65.2877 11.1486 66.1977 10.6352C67.131 10.1219 68.0877 9.86523 69.0677 9.86523C70.071 9.86523 71.0277 10.2152 71.9377 10.9152C72.8477 11.5919 73.5127 12.4786 73.9327 13.5752Z" fill="#D7D7D7"/>
<path d="M104.841 10.2502V26.0002H103.721V22.0802C103.068 23.4102 102.088 24.4602 100.781 25.2302C99.4743 26.0002 98.0743 26.3852 96.581 26.3852C94.2943 26.3852 92.3343 25.5802 90.701 23.9702C89.0676 22.3369 88.251 20.3886 88.251 18.1252C88.251 15.8619 89.0676 13.9252 90.701 12.3152C92.3343 10.6819 94.2943 9.86523 96.581 9.86523C98.0743 9.86523 99.4976 10.2619 100.851 11.0552C102.228 11.8486 103.184 12.8986 103.721 14.2052V10.2502H104.841ZM89.371 18.1602C89.371 20.1202 90.0826 21.8236 91.506 23.2702C92.9526 24.6936 94.656 25.4052 96.616 25.4052C98.5993 25.4052 100.291 24.6936 101.691 23.2702C103.091 21.8236 103.791 20.1202 103.791 18.1602C103.791 16.1769 103.079 14.4619 101.656 13.0152C100.256 11.5686 98.576 10.8452 96.616 10.8452C94.656 10.8452 92.9526 11.5802 91.506 13.0502C90.0826 14.4969 89.371 16.2002 89.371 18.1602Z" fill="#D7D7D7"/>
</svg>
