<svg width="200" height="54" viewBox="0 0 200 54" fill="none" xmlns="http://www.w3.org/2000/svg">
<path d="M1 48.4898C4.86308 47.4936 7.59616 47.1558 11.7937 47.1558C15.9913 47.1558 18.19 46.1857 22.5874 46.1857C26.8343 46.1857 28.7347 48.0991 32.9814 48.126C37.3775 48.1538 39.3555 34.0833 43.553 34.0833C49.245 34.0833 48.8779 52.1928 54.5688 52.1279C60.1452 52.0642 60.1656 47.1558 64.9628 46.1857C69.6111 45.2456 71.3849 40.9683 75.7565 42.3051C79.5103 43.4529 80.2774 50.69 85.0422 50.6246C90.5781 50.5487 91.0932 44.6648 95.6805 42.3051C100.268 39.9453 101.721 32.1876 106.319 30.3239C111.106 28.3836 113.046 38.1347 118.132 33.5736C122.729 29.4505 122.411 28.9191 128.659 31.0758C135.361 33.3893 133.323 27.6314 139.32 28.7229C146.169 29.9695 146.267 18.3666 152.063 20.5495C157.035 22.4218 156.84 11.8664 161.638 10.775C167.496 9.44213 166.175 20.4981 171.425 19.7397C175.622 19.1334 176.466 27.3889 182.095 27.3889C187.891 27.3889 190.973 10.5827 192.489 7.01562" stroke="url(#paint0_linear_37268_59259)" stroke-width="2" stroke-linecap="round"/>
<ellipse opacity="0.2" cx="192.052" cy="7.55198" rx="6.92308" ry="6.92308" fill="url(#paint1_linear_37268_59259)"/>
<ellipse cx="192.052" cy="7.55138" rx="3.46154" ry="3.46154" fill="url(#paint2_linear_37268_59259)"/>
<path opacity="0.7" d="M7.38232 34.834H194.616" stroke="url(#paint3_linear_37268_59259)" stroke-dasharray="2 2"/>
<defs>
<linearGradient id="paint0_linear_37268_59259" x1="192.489" y1="29.3346" x2="0.999999" y2="29.3346" gradientUnits="userSpaceOnUse">
<stop stop-color="#3DFFDC"/>
<stop offset="1" stop-color="#3DFF8A" stop-opacity="0"/>
</linearGradient>
<linearGradient id="paint1_linear_37268_59259" x1="198.976" y1="7.47911" x2="185.129" y2="7.47911" gradientUnits="userSpaceOnUse">
<stop stop-color="#3DFFAD"/>
<stop offset="1" stop-color="#3DFFAD" stop-opacity="0.2"/>
</linearGradient>
<linearGradient id="paint2_linear_37268_59259" x1="195.514" y1="7.51495" x2="188.591" y2="7.51494" gradientUnits="userSpaceOnUse">
<stop stop-color="#3DFFAD"/>
<stop offset="1" stop-color="#3DFFAD" stop-opacity="0.2"/>
</linearGradient>
<linearGradient id="paint3_linear_37268_59259" x1="7.38233" y1="35.334" x2="194.616" y2="35.3343" gradientUnits="userSpaceOnUse">
<stop stop-color="white" stop-opacity="0"/>
<stop offset="1" stop-color="white"/>
</linearGradient>
</defs>
</svg>
