<svg width="201" height="15" viewBox="0 0 201 15" fill="none" xmlns="http://www.w3.org/2000/svg">
<path d="M176 11L179.5 7.5L176 4" stroke="white" stroke-opacity="0.7" stroke-linejoin="round"/>
<path d="M197 11L200.5 7.5L197 4" stroke="white" stroke-opacity="0.7" stroke-linejoin="round"/>
<path d="M192 11L195.5 7.5L192 4" stroke="white" stroke-opacity="0.7" stroke-linejoin="round"/>
<path d="M185.5 0.5V15" stroke="white" stroke-opacity="0.2"/>
<path d="M148 0.5V15" stroke="white" stroke-opacity="0.2"/>
<path d="M131 0.5V15" stroke="white" stroke-opacity="0.2"/>
<path d="M114 0.5V15" stroke="white" stroke-opacity="0.2"/>
<path d="M97 0.5V15" stroke="white" stroke-opacity="0.2"/>
<path d="M80 0.5V15" stroke="white" stroke-opacity="0.2"/>
<path d="M63 0.5V15" stroke="white" stroke-opacity="0.2"/>
<path d="M46 0.5V15" stroke="white" stroke-opacity="0.2"/>
<path d="M29 0.5V15" stroke="white" stroke-opacity="0.2"/>
<path d="M12 0.5V15" stroke="white" stroke-opacity="0.2"/>
<path d="M4.62744 2.70703V12H3.45312V4.17334L1.08545 5.03662V3.97656L4.44336 2.70703H4.62744Z" fill="#4BA9FF"/>
<path opacity="0.7" d="M23.8237 11.0352V12H17.7744V11.1558L20.8022 7.78516C21.1746 7.37044 21.4624 7.01921 21.6655 6.73145C21.8729 6.43945 22.0168 6.1792 22.0972 5.95068C22.1818 5.71794 22.2241 5.48096 22.2241 5.23975C22.2241 4.93506 22.1606 4.65999 22.0337 4.41455C21.911 4.16488 21.729 3.96598 21.4878 3.81787C21.2466 3.66976 20.9546 3.5957 20.6118 3.5957C20.2013 3.5957 19.8586 3.67611 19.5835 3.83691C19.3127 3.99349 19.1095 4.21354 18.9741 4.49707C18.8387 4.7806 18.771 5.10645 18.771 5.47461H17.5967C17.5967 4.9541 17.7109 4.47803 17.9395 4.04639C18.168 3.61475 18.5065 3.27197 18.9551 3.01807C19.4036 2.75993 19.9559 2.63086 20.6118 2.63086C21.1958 2.63086 21.6951 2.73454 22.1099 2.94189C22.5246 3.14502 22.842 3.43278 23.062 3.80518C23.2863 4.17334 23.3984 4.60498 23.3984 5.1001C23.3984 5.37093 23.3519 5.646 23.2588 5.92529C23.1699 6.20036 23.0451 6.47542 22.8843 6.75049C22.7277 7.02555 22.5436 7.29639 22.332 7.56299C22.1247 7.82959 21.9025 8.09196 21.6655 8.3501L19.1899 11.0352H23.8237Z" fill="white"/>
<path opacity="0.7" d="M36.4819 6.80127H37.3198C37.7303 6.80127 38.0688 6.73356 38.3354 6.59814C38.6063 6.4585 38.8073 6.27018 38.9385 6.0332C39.0739 5.79199 39.1416 5.52116 39.1416 5.2207C39.1416 4.86523 39.0824 4.56689 38.9639 4.32568C38.8454 4.08447 38.6676 3.90251 38.4307 3.77979C38.1937 3.65706 37.8932 3.5957 37.5293 3.5957C37.1992 3.5957 36.9072 3.6613 36.6533 3.79248C36.4036 3.91943 36.2069 4.1014 36.063 4.33838C35.9233 4.57536 35.8535 4.85465 35.8535 5.17627H34.6792C34.6792 4.70654 34.7977 4.27913 35.0347 3.89404C35.2716 3.50895 35.6038 3.20215 36.0312 2.97363C36.4629 2.74512 36.9622 2.63086 37.5293 2.63086C38.0879 2.63086 38.5767 2.73031 38.9956 2.9292C39.4146 3.12386 39.7404 3.41585 39.9731 3.80518C40.2059 4.19027 40.3223 4.67057 40.3223 5.24609C40.3223 5.47884 40.2673 5.72852 40.1572 5.99512C40.0514 6.25749 39.8843 6.50293 39.6558 6.73145C39.4315 6.95996 39.1395 7.14827 38.7798 7.29639C38.4201 7.44027 37.9884 7.51221 37.4849 7.51221H36.4819V6.80127ZM36.4819 7.76611V7.06152H37.4849C38.0731 7.06152 38.5597 7.13135 38.9448 7.271C39.3299 7.41064 39.6325 7.59684 39.8525 7.82959C40.0768 8.06234 40.2334 8.31836 40.3223 8.59766C40.4154 8.87272 40.4619 9.14779 40.4619 9.42285C40.4619 9.85449 40.3879 10.2375 40.2397 10.5718C40.0959 10.9061 39.8906 11.1896 39.624 11.4224C39.3617 11.6551 39.0527 11.8307 38.6973 11.9492C38.3418 12.0677 37.9546 12.127 37.5356 12.127C37.1336 12.127 36.7549 12.0698 36.3994 11.9556C36.0482 11.8413 35.7371 11.6763 35.4663 11.4604C35.1955 11.2404 34.9839 10.9717 34.8315 10.6543C34.6792 10.3327 34.603 9.96663 34.603 9.55615H35.7773C35.7773 9.87777 35.8472 10.1592 35.9868 10.4004C36.1307 10.6416 36.3338 10.8299 36.5962 10.9653C36.8628 11.0965 37.1759 11.1621 37.5356 11.1621C37.8953 11.1621 38.2043 11.1007 38.4624 10.978C38.7248 10.8511 38.9258 10.6606 39.0654 10.4067C39.2093 10.1528 39.2812 9.83333 39.2812 9.44824C39.2812 9.06315 39.2008 8.74788 39.04 8.50244C38.8792 8.25277 38.6507 8.06868 38.3545 7.9502C38.0625 7.82747 37.7176 7.76611 37.3198 7.76611H36.4819Z" fill="white"/>
<path opacity="0.7" d="M58.0142 8.88965V9.85449H51.3364V9.1626L55.4751 2.75781H56.4336L55.4053 4.61133L52.6694 8.88965H58.0142ZM56.7256 2.75781V12H55.5513V2.75781H56.7256Z" fill="white"/>
<path opacity="0.7" d="M70.2534 7.60107L69.314 7.35986L69.7773 2.75781H74.519V3.84326H70.7739L70.4946 6.35693C70.6639 6.2596 70.8776 6.16862 71.1357 6.08398C71.3981 5.99935 71.6986 5.95703 72.0371 5.95703C72.4645 5.95703 72.8475 6.03109 73.186 6.1792C73.5246 6.32308 73.8123 6.53044 74.0493 6.80127C74.2905 7.0721 74.4746 7.39795 74.6016 7.77881C74.7285 8.15967 74.792 8.58496 74.792 9.05469C74.792 9.49902 74.7306 9.90739 74.6079 10.2798C74.4894 10.6522 74.3096 10.978 74.0684 11.2573C73.8271 11.5324 73.5225 11.7461 73.1543 11.8984C72.7904 12.0508 72.3608 12.127 71.8657 12.127C71.4933 12.127 71.14 12.0762 70.8057 11.9746C70.4756 11.8688 70.1794 11.7101 69.917 11.4985C69.6589 11.2827 69.4473 11.0161 69.2822 10.6987C69.1214 10.3771 69.0199 10.0005 68.9775 9.56885H70.0947C70.1455 9.91585 70.2471 10.2078 70.3994 10.4448C70.5518 10.6818 70.7507 10.8617 70.9961 10.9844C71.2458 11.1029 71.5356 11.1621 71.8657 11.1621C72.145 11.1621 72.3926 11.1134 72.6084 11.0161C72.8242 10.9188 73.0062 10.7791 73.1543 10.5972C73.3024 10.4152 73.4146 10.1951 73.4907 9.93701C73.5711 9.67887 73.6113 9.389 73.6113 9.06738C73.6113 8.77539 73.5711 8.50456 73.4907 8.25488C73.4103 8.00521 73.2897 7.78727 73.1289 7.60107C72.9723 7.41488 72.7798 7.271 72.5513 7.16943C72.3228 7.06364 72.0604 7.01074 71.7642 7.01074C71.3706 7.01074 71.0723 7.06364 70.8691 7.16943C70.6702 7.27523 70.465 7.41911 70.2534 7.60107Z" fill="white"/>
<path opacity="0.7" d="M90.2749 2.74512H90.3765V3.7417H90.2749C89.6528 3.7417 89.1323 3.84326 88.7134 4.04639C88.2944 4.24528 87.9622 4.514 87.7168 4.85254C87.4714 5.18685 87.2936 5.56348 87.1836 5.98242C87.0778 6.40137 87.0249 6.82666 87.0249 7.2583V8.6167C87.0249 9.02718 87.0736 9.39111 87.1709 9.7085C87.2682 10.0216 87.4015 10.2861 87.5708 10.502C87.7401 10.7178 87.9305 10.8807 88.1421 10.9907C88.3579 11.1007 88.5822 11.1558 88.8149 11.1558C89.0858 11.1558 89.327 11.105 89.5386 11.0034C89.7502 10.8976 89.9279 10.7516 90.0718 10.5654C90.2199 10.375 90.332 10.1507 90.4082 9.89258C90.4844 9.63444 90.5225 9.35091 90.5225 9.04199C90.5225 8.76693 90.4886 8.50244 90.4209 8.24854C90.3532 7.9904 90.2495 7.76188 90.1099 7.56299C89.9702 7.35986 89.7946 7.20117 89.583 7.08691C89.3757 6.96842 89.1281 6.90918 88.8403 6.90918C88.5145 6.90918 88.2098 6.98958 87.9263 7.15039C87.647 7.30697 87.4163 7.51432 87.2344 7.77246C87.0566 8.02637 86.9551 8.30355 86.9297 8.604L86.3076 8.59766C86.3669 8.1237 86.4769 7.71956 86.6377 7.38525C86.8027 7.04671 87.0059 6.77165 87.2471 6.56006C87.4925 6.34424 87.7655 6.18766 88.0659 6.09033C88.3706 5.98877 88.6922 5.93799 89.0308 5.93799C89.492 5.93799 89.8898 6.02474 90.2241 6.19824C90.5584 6.37174 90.8335 6.60449 91.0493 6.89648C91.2651 7.18424 91.4238 7.51009 91.5254 7.87402C91.6312 8.23372 91.6841 8.604 91.6841 8.98486C91.6841 9.42074 91.6227 9.8291 91.5 10.21C91.3773 10.5908 91.1932 10.9251 90.9478 11.2129C90.7065 11.5007 90.4082 11.7249 90.0527 11.8857C89.6973 12.0465 89.2847 12.127 88.8149 12.127C88.3156 12.127 87.8797 12.0254 87.5073 11.8223C87.1349 11.6149 86.826 11.3398 86.5806 10.9971C86.3351 10.6543 86.151 10.2734 86.0283 9.85449C85.9056 9.43555 85.8442 9.01025 85.8442 8.57861V8.02637C85.8442 7.37467 85.9098 6.73568 86.041 6.10938C86.1722 5.48307 86.3986 4.91602 86.7202 4.4082C87.0461 3.90039 87.4967 3.49626 88.0723 3.1958C88.6478 2.89535 89.382 2.74512 90.2749 2.74512Z" fill="white"/>
<path opacity="0.7" d="M108.741 2.75781V3.41797L104.914 12H103.676L107.497 3.72266H102.495V2.75781H108.741Z" fill="white"/>
<path opacity="0.7" d="M125.595 9.49902C125.595 10.0618 125.464 10.54 125.202 10.9336C124.944 11.3229 124.592 11.6191 124.148 11.8223C123.708 12.0254 123.211 12.127 122.656 12.127C122.102 12.127 121.603 12.0254 121.158 11.8223C120.714 11.6191 120.363 11.3229 120.104 10.9336C119.846 10.54 119.717 10.0618 119.717 9.49902C119.717 9.13086 119.787 8.79443 119.927 8.48975C120.071 8.18083 120.272 7.91211 120.53 7.68359C120.792 7.45508 121.101 7.27946 121.457 7.15674C121.816 7.02979 122.212 6.96631 122.644 6.96631C123.211 6.96631 123.716 7.07633 124.161 7.29639C124.605 7.51221 124.954 7.81055 125.208 8.19141C125.466 8.57227 125.595 9.00814 125.595 9.49902ZM124.415 9.47363C124.415 9.13086 124.34 8.82829 124.192 8.56592C124.044 8.29932 123.837 8.09196 123.57 7.94385C123.304 7.79574 122.995 7.72168 122.644 7.72168C122.284 7.72168 121.973 7.79574 121.71 7.94385C121.452 8.09196 121.251 8.29932 121.107 8.56592C120.964 8.82829 120.892 9.13086 120.892 9.47363C120.892 9.8291 120.961 10.1338 121.101 10.3877C121.245 10.6374 121.448 10.8299 121.71 10.9653C121.977 11.0965 122.292 11.1621 122.656 11.1621C123.02 11.1621 123.333 11.0965 123.596 10.9653C123.858 10.8299 124.059 10.6374 124.199 10.3877C124.343 10.1338 124.415 9.8291 124.415 9.47363ZM125.379 5.16357C125.379 5.61214 125.261 6.01628 125.024 6.37598C124.787 6.73568 124.463 7.01921 124.053 7.22656C123.642 7.43392 123.177 7.5376 122.656 7.5376C122.127 7.5376 121.655 7.43392 121.241 7.22656C120.83 7.01921 120.509 6.73568 120.276 6.37598C120.043 6.01628 119.927 5.61214 119.927 5.16357C119.927 4.62614 120.043 4.16911 120.276 3.79248C120.513 3.41585 120.837 3.12809 121.247 2.9292C121.658 2.73031 122.125 2.63086 122.65 2.63086C123.179 2.63086 123.649 2.73031 124.059 2.9292C124.47 3.12809 124.791 3.41585 125.024 3.79248C125.261 4.16911 125.379 4.62614 125.379 5.16357ZM124.205 5.18262C124.205 4.8737 124.139 4.60075 124.008 4.36377C123.877 4.12679 123.695 3.94059 123.462 3.80518C123.23 3.66553 122.959 3.5957 122.65 3.5957C122.341 3.5957 122.07 3.6613 121.837 3.79248C121.609 3.91943 121.429 4.1014 121.298 4.33838C121.171 4.57536 121.107 4.85677 121.107 5.18262C121.107 5.5 121.171 5.77718 121.298 6.01416C121.429 6.25114 121.611 6.43522 121.844 6.56641C122.076 6.69759 122.347 6.76318 122.656 6.76318C122.965 6.76318 123.234 6.69759 123.462 6.56641C123.695 6.43522 123.877 6.25114 124.008 6.01416C124.139 5.77718 124.205 5.5 124.205 5.18262Z" fill="white"/>
<path opacity="0.7" d="M137.936 11.0161H138.057C138.734 11.0161 139.284 10.9209 139.707 10.7305C140.13 10.54 140.456 10.284 140.685 9.9624C140.913 9.64079 141.07 9.27897 141.154 8.87695C141.239 8.4707 141.281 8.05387 141.281 7.62646V6.21094C141.281 5.79199 141.233 5.4196 141.135 5.09375C141.042 4.7679 140.911 4.49495 140.742 4.2749C140.577 4.05485 140.388 3.8877 140.177 3.77344C139.965 3.65918 139.741 3.60205 139.504 3.60205C139.233 3.60205 138.99 3.65706 138.774 3.76709C138.562 3.87288 138.382 4.02311 138.234 4.21777C138.09 4.41243 137.98 4.64095 137.904 4.90332C137.828 5.16569 137.79 5.45133 137.79 5.76025C137.79 6.03532 137.824 6.30192 137.892 6.56006C137.959 6.8182 138.063 7.05094 138.203 7.2583C138.342 7.46566 138.516 7.6307 138.723 7.75342C138.935 7.87191 139.182 7.93115 139.466 7.93115C139.728 7.93115 139.974 7.88037 140.202 7.77881C140.435 7.67301 140.64 7.53125 140.818 7.35352C141 7.17155 141.144 6.96631 141.25 6.73779C141.36 6.50928 141.423 6.27018 141.44 6.02051H141.999C141.999 6.37174 141.929 6.71875 141.789 7.06152C141.654 7.40007 141.463 7.70898 141.218 7.98828C140.972 8.26758 140.685 8.49186 140.354 8.66113C140.024 8.82617 139.665 8.90869 139.275 8.90869C138.818 8.90869 138.423 8.81982 138.088 8.64209C137.754 8.46436 137.479 8.22738 137.263 7.93115C137.052 7.63493 136.893 7.30485 136.787 6.94092C136.686 6.57275 136.635 6.20036 136.635 5.82373C136.635 5.38363 136.696 4.97103 136.819 4.58594C136.942 4.20085 137.124 3.8623 137.365 3.57031C137.606 3.27409 137.904 3.04346 138.26 2.87842C138.619 2.71338 139.034 2.63086 139.504 2.63086C140.033 2.63086 140.484 2.73665 140.856 2.94824C141.228 3.15983 141.531 3.44336 141.764 3.79883C142.001 4.1543 142.174 4.5542 142.284 4.99854C142.394 5.44287 142.449 5.8999 142.449 6.36963V6.79492C142.449 7.27311 142.417 7.75977 142.354 8.25488C142.295 8.74577 142.178 9.21549 142.005 9.66406C141.836 10.1126 141.588 10.5146 141.262 10.8701C140.936 11.2214 140.511 11.5007 139.986 11.708C139.466 11.9111 138.823 12.0127 138.057 12.0127H137.936V11.0161Z" fill="white"/>
<path opacity="0.7" d="M157.627 2.70703V12H156.453V4.17334L154.085 5.03662V3.97656L157.443 2.70703H157.627ZM166.882 6.64258V8.05176C166.882 8.80924 166.815 9.44824 166.679 9.96875C166.544 10.4893 166.349 10.9082 166.095 11.2256C165.841 11.543 165.535 11.7736 165.175 11.9175C164.819 12.0571 164.417 12.127 163.969 12.127C163.613 12.127 163.285 12.0825 162.985 11.9937C162.684 11.9048 162.414 11.763 162.172 11.5684C161.935 11.3695 161.732 11.1113 161.563 10.7939C161.394 10.4766 161.265 10.0915 161.176 9.63867C161.087 9.18587 161.042 8.6569 161.042 8.05176V6.64258C161.042 5.88509 161.11 5.25033 161.246 4.73828C161.385 4.22624 161.582 3.81576 161.836 3.50684C162.09 3.19368 162.395 2.9694 162.75 2.83398C163.11 2.69857 163.512 2.63086 163.956 2.63086C164.316 2.63086 164.646 2.67529 164.946 2.76416C165.251 2.8488 165.522 2.98633 165.759 3.17676C165.996 3.36296 166.197 3.61263 166.362 3.92578C166.531 4.2347 166.66 4.61344 166.749 5.06201C166.838 5.51058 166.882 6.03743 166.882 6.64258ZM165.702 8.24219V6.4458C165.702 6.03109 165.676 5.66715 165.625 5.354C165.579 5.03662 165.509 4.76579 165.416 4.5415C165.323 4.31722 165.204 4.13525 165.061 3.99561C164.921 3.85596 164.758 3.75439 164.572 3.69092C164.39 3.62321 164.185 3.58936 163.956 3.58936C163.677 3.58936 163.429 3.64225 163.213 3.74805C162.998 3.84961 162.816 4.01253 162.667 4.23682C162.524 4.4611 162.414 4.75521 162.337 5.11914C162.261 5.48307 162.223 5.92529 162.223 6.4458V8.24219C162.223 8.6569 162.246 9.02295 162.293 9.34033C162.344 9.65771 162.418 9.93278 162.515 10.1655C162.612 10.394 162.731 10.5824 162.871 10.7305C163.01 10.8786 163.171 10.9886 163.353 11.0605C163.539 11.1283 163.744 11.1621 163.969 11.1621C164.257 11.1621 164.508 11.1071 164.724 10.9971C164.94 10.887 165.12 10.7157 165.264 10.4829C165.412 10.2459 165.522 9.94336 165.594 9.5752C165.666 9.2028 165.702 8.75846 165.702 8.24219Z" fill="white"/>
</svg>
