<svg width="637" height="772" viewBox="0 0 637 772" fill="none" xmlns="http://www.w3.org/2000/svg">
<path d="M281.511 470.1V500.914C292.528 506.517 307.552 509.519 320.373 510.719C370.052 514.721 436.959 475.903 434.956 397.865C432.152 358.046 415.725 339.638 396.094 318.027C377.063 298.218 360.637 291.615 340.004 290.414C294.932 287.813 259.275 326.431 259.876 365.85C260.878 417.074 300.14 441.686 333.394 443.487V413.073C329.988 413.473 326.382 413.873 322.777 413.873C278.706 413.873 244.451 375.855 246.054 334.235C247.857 291.415 284.716 261 323.177 261C333.794 261 380.87 265.802 396.294 317.427C449.179 373.654 400.501 497.513 292.328 473.501C289.524 472.901 284.716 471.3 281.511 470.1Z" stroke="black" stroke-width="8" stroke-miterlimit="10"/>
<path opacity="0.5" d="M281.511 213.1V243.914C292.528 249.517 307.552 252.519 320.373 253.719C370.052 257.721 436.959 218.903 434.956 140.865C432.152 101.046 415.725 82.6375 396.094 61.0272C377.063 41.2178 360.637 34.6146 340.004 33.414C294.932 30.8128 259.275 69.4312 259.876 108.85C260.878 160.074 300.14 184.686 333.394 186.487V156.073C329.988 156.473 326.382 156.873 322.777 156.873C278.706 156.873 244.451 118.855 246.054 77.2349C247.857 34.4145 284.716 4 323.177 4C333.794 4 380.87 8.80229 396.294 60.4269C449.179 116.654 400.501 240.513 292.328 216.501C289.524 215.901 284.716 214.3 281.511 213.1Z" stroke="url(#paint0_linear_722_754)" stroke-width="8" stroke-miterlimit="10"/>
<path opacity="0.5" d="M281.511 727.1V757.914C292.528 763.517 307.552 766.519 320.373 767.719C370.052 771.721 436.959 732.903 434.956 654.865C432.152 615.046 415.725 596.638 396.094 575.027C377.063 555.218 360.637 548.615 340.004 547.414C294.932 544.813 259.275 583.431 259.876 622.85C260.878 674.074 300.14 698.686 333.394 700.487V670.073C329.988 670.473 326.382 670.873 322.777 670.873C278.706 670.873 244.451 632.855 246.054 591.235C247.857 548.415 284.716 518 323.177 518C333.794 518 380.87 522.802 396.294 574.427C449.179 630.654 400.501 754.513 292.328 730.501C289.524 729.901 284.716 728.3 281.511 727.1Z" stroke="url(#paint1_linear_722_754)" stroke-width="8" stroke-miterlimit="10"/>
<path opacity="0.5" d="M57.5107 470.1V500.914C68.5283 506.517 83.5523 509.519 96.3728 510.719C146.052 514.721 212.959 475.903 210.956 397.865C208.152 358.046 191.725 339.638 172.094 318.027C153.063 298.218 136.637 291.615 116.004 290.414C70.9322 287.813 35.2751 326.431 35.8761 365.85C36.8777 417.074 76.1405 441.686 109.394 443.487V413.073C105.988 413.473 102.382 413.873 98.7767 413.873C54.7062 413.873 20.4514 375.855 22.054 334.235C23.8569 291.415 60.7158 261 99.1773 261C109.794 261 156.87 265.802 172.294 317.427C225.179 373.654 176.501 497.513 68.328 473.501C65.5235 472.901 60.7158 471.3 57.5107 470.1Z" stroke="url(#paint2_linear_722_754)" stroke-width="8" stroke-miterlimit="10"/>
<path opacity="0.5" d="M478.511 470.1V500.914C489.528 506.517 504.552 509.519 517.373 510.719C567.052 514.721 633.959 475.903 631.956 397.865C629.152 358.046 612.725 339.638 593.094 318.027C574.063 298.218 557.637 291.615 537.004 290.414C491.932 287.813 456.275 326.431 456.876 365.85C457.878 417.074 497.14 441.686 530.394 443.487V413.073C526.988 413.473 523.382 413.873 519.777 413.873C475.706 413.873 441.451 375.855 443.054 334.235C444.857 291.415 481.716 261 520.177 261C530.794 261 577.87 265.802 593.294 317.427C646.179 373.654 597.501 497.513 489.328 473.501C486.524 472.901 481.716 471.3 478.511 470.1Z" stroke="url(#paint3_linear_722_754)" stroke-width="8" stroke-miterlimit="10"/>
<path d="M1 257H636" stroke="url(#paint4_linear_722_754)" stroke-linecap="round" stroke-dasharray="1 3"/>
<path d="M1 133H636" stroke="url(#paint5_linear_722_754)"/>
<path d="M1 649H636" stroke="url(#paint6_linear_722_754)"/>
<path d="M439 4L439 768" stroke="url(#paint7_linear_722_754)" stroke-linecap="round" stroke-dasharray="1 3"/>
<path d="M215 4L215 768" stroke="url(#paint8_linear_722_754)" stroke-linecap="round" stroke-dasharray="1 3"/>
<path d="M119 4L119 768" stroke="url(#paint9_linear_722_754)"/>
<path d="M535 4L535 768" stroke="url(#paint10_linear_722_754)"/>
<path d="M1 515H636" stroke="url(#paint11_linear_722_754)" stroke-linecap="round" stroke-dasharray="1 3"/>
<defs>
<linearGradient id="paint0_linear_722_754" x1="340.5" y1="4" x2="340.5" y2="254" gradientUnits="userSpaceOnUse">
<stop offset="0.515525" stop-opacity="0.15"/>
<stop offset="0.515625"/>
</linearGradient>
<linearGradient id="paint1_linear_722_754" x1="340.5" y1="518" x2="340.5" y2="768" gradientUnits="userSpaceOnUse">
<stop offset="0.53125"/>
<stop offset="0.53135" stop-opacity="0.15"/>
</linearGradient>
<linearGradient id="paint2_linear_722_754" x1="22" y1="386" x2="211" y2="386" gradientUnits="userSpaceOnUse">
<stop offset="0.515525" stop-opacity="0.15"/>
<stop offset="0.515625"/>
</linearGradient>
<linearGradient id="paint3_linear_722_754" x1="635.5" y1="392" x2="443" y2="392" gradientUnits="userSpaceOnUse">
<stop offset="0.522013" stop-opacity="0.15"/>
<stop offset="0.522159"/>
</linearGradient>
<linearGradient id="paint4_linear_722_754" x1="635.324" y1="257" x2="1" y2="257" gradientUnits="userSpaceOnUse">
<stop stop-opacity="0"/>
<stop offset="0.491227"/>
<stop offset="1" stop-opacity="0"/>
</linearGradient>
<linearGradient id="paint5_linear_722_754" x1="635.324" y1="133" x2="1" y2="133" gradientUnits="userSpaceOnUse">
<stop stop-opacity="0"/>
<stop offset="0.491227"/>
<stop offset="1" stop-opacity="0"/>
</linearGradient>
<linearGradient id="paint6_linear_722_754" x1="635.324" y1="649" x2="1" y2="649" gradientUnits="userSpaceOnUse">
<stop stop-opacity="0"/>
<stop offset="0.491227"/>
<stop offset="1" stop-opacity="0"/>
</linearGradient>
<linearGradient id="paint7_linear_722_754" x1="439" y1="767.186" x2="439" y2="4" gradientUnits="userSpaceOnUse">
<stop stop-opacity="0"/>
<stop offset="0.491227"/>
<stop offset="1" stop-opacity="0"/>
</linearGradient>
<linearGradient id="paint8_linear_722_754" x1="215" y1="767.186" x2="215" y2="4" gradientUnits="userSpaceOnUse">
<stop stop-opacity="0"/>
<stop offset="0.491227"/>
<stop offset="1" stop-opacity="0"/>
</linearGradient>
<linearGradient id="paint9_linear_722_754" x1="119" y1="767.186" x2="119" y2="4" gradientUnits="userSpaceOnUse">
<stop stop-opacity="0"/>
<stop offset="0.491227"/>
<stop offset="1" stop-opacity="0"/>
</linearGradient>
<linearGradient id="paint10_linear_722_754" x1="535" y1="767.186" x2="535" y2="4" gradientUnits="userSpaceOnUse">
<stop stop-opacity="0"/>
<stop offset="0.491227"/>
<stop offset="1" stop-opacity="0"/>
</linearGradient>
<linearGradient id="paint11_linear_722_754" x1="635.324" y1="515" x2="1" y2="515" gradientUnits="userSpaceOnUse">
<stop stop-opacity="0"/>
<stop offset="0.491227"/>
<stop offset="1" stop-opacity="0"/>
</linearGradient>
</defs>
</svg>
