<svg width="1379" height="533" viewBox="0 0 1379 533" fill="none" xmlns="http://www.w3.org/2000/svg">
<path d="M843 138H1379" stroke="url(#paint0_linear_37065_56835)"/>
<path opacity="0.15" d="M1 234L997 234" stroke="url(#paint1_linear_37065_56835)" stroke-dasharray="2 2"/>
<path opacity="0.15" d="M1 299L997 299" stroke="url(#paint2_linear_37065_56835)" stroke-dasharray="2 2"/>
<path opacity="0.5" d="M1 266L1379 266" stroke="url(#paint3_linear_37065_56835)" stroke-dasharray="2 2"/>
<path opacity="0.5" d="M1 198L1379 198" stroke="url(#paint4_linear_37065_56835)" stroke-dasharray="2 2"/>
<path opacity="0.5" d="M1 335L1379 335" stroke="url(#paint5_linear_37065_56835)" stroke-dasharray="2 2"/>
<path d="M1221 0L1221 533" stroke="url(#paint6_linear_37065_56835)"/>
<path d="M997 0L997 533" stroke="url(#paint7_linear_37065_56835)"/>
<path opacity="0.4" d="M920 71L920 461" stroke="url(#paint8_linear_37065_56835)" stroke-dasharray="2 2"/>
<path opacity="0.4" d="M854 71.1733L1011.28 460.613" stroke="url(#paint9_linear_37065_56835)"/>
<path opacity="0.4" d="M64 71.1733L221.279 460.613" stroke="url(#paint10_linear_37065_56835)"/>
<path opacity="0.4" d="M593 71.1733L750.279 460.613" stroke="url(#paint11_linear_37065_56835)"/>
<path opacity="0.4" d="M361 71.1733L518.279 460.613" stroke="url(#paint12_linear_37065_56835)"/>
<path opacity="0.4" d="M130 71L130 461" stroke="url(#paint13_linear_37065_56835)" stroke-dasharray="2 2"/>
<path opacity="0.4" d="M336 71L336 461" stroke="url(#paint14_linear_37065_56835)" stroke-dasharray="2 2"/>
<path opacity="0.4" d="M510 71L510 461" stroke="url(#paint15_linear_37065_56835)" stroke-dasharray="2 2"/>
<path opacity="0.4" d="M743 71L743 461" stroke="url(#paint16_linear_37065_56835)" stroke-dasharray="2 2"/>
<path opacity="0.4" d="M568 71L568 461" stroke="url(#paint17_linear_37065_56835)" stroke-dasharray="2 2"/>
<path opacity="0.08" d="M1005 138L1005 396" stroke="white" stroke-dasharray="2 2"/>
<path opacity="0.08" d="M1013 138L1013 396" stroke="white" stroke-dasharray="2 2"/>
<path opacity="0.08" d="M1021 138L1021 396" stroke="white" stroke-dasharray="2 2"/>
<path opacity="0.08" d="M1029 138L1029 396" stroke="white" stroke-dasharray="2 2"/>
<path opacity="0.08" d="M1037 138L1037 396" stroke="white" stroke-dasharray="2 2"/>
<path opacity="0.08" d="M1045 138L1045 396" stroke="white" stroke-dasharray="2 2"/>
<path opacity="0.08" d="M1053 138L1053 396" stroke="white" stroke-dasharray="2 2"/>
<path opacity="0.08" d="M1061 138L1061 396" stroke="white" stroke-dasharray="2 2"/>
<path opacity="0.08" d="M1069 138L1069 396" stroke="white" stroke-dasharray="2 2"/>
<path opacity="0.08" d="M1077 138L1077 396" stroke="white" stroke-dasharray="2 2"/>
<path opacity="0.08" d="M1085 138L1085 396" stroke="white" stroke-dasharray="2 2"/>
<path opacity="0.08" d="M1093 138L1093 396" stroke="white" stroke-dasharray="2 2"/>
<path opacity="0.08" d="M1101 138L1101 396" stroke="white" stroke-dasharray="2 2"/>
<path opacity="0.08" d="M1109 138L1109 396" stroke="white" stroke-dasharray="2 2"/>
<path opacity="0.08" d="M1117 138L1117 396" stroke="white" stroke-dasharray="2 2"/>
<path opacity="0.08" d="M1125 138L1125 396" stroke="white" stroke-dasharray="2 2"/>
<path opacity="0.08" d="M1133 138L1133 396" stroke="white" stroke-dasharray="2 2"/>
<path opacity="0.08" d="M1141 138L1141 396" stroke="white" stroke-dasharray="2 2"/>
<path opacity="0.08" d="M1149 138L1149 396" stroke="white" stroke-dasharray="2 2"/>
<path opacity="0.08" d="M1157 138L1157 396" stroke="white" stroke-dasharray="2 2"/>
<path opacity="0.08" d="M1165 138L1165 396" stroke="white" stroke-dasharray="2 2"/>
<path opacity="0.08" d="M1173 138L1173 396" stroke="white" stroke-dasharray="2 2"/>
<path opacity="0.08" d="M1181 138L1181 396" stroke="white" stroke-dasharray="2 2"/>
<path opacity="0.08" d="M1189 138L1189 396" stroke="white" stroke-dasharray="2 2"/>
<path opacity="0.08" d="M1197 138L1197 396" stroke="white" stroke-dasharray="2 2"/>
<path opacity="0.08" d="M1205 138L1205 396" stroke="white" stroke-dasharray="2 2"/>
<path opacity="0.08" d="M1213 138L1213 396" stroke="white" stroke-dasharray="2 2"/>
<path opacity="0.08" d="M781 198L781 336" stroke="white" stroke-dasharray="2 2"/>
<path opacity="0.08" d="M789 198L789 336" stroke="white" stroke-dasharray="2 2"/>
<path opacity="0.08" d="M797 198L797 336" stroke="white" stroke-dasharray="2 2"/>
<path opacity="0.08" d="M805 198L805 336" stroke="white" stroke-dasharray="2 2"/>
<path opacity="0.08" d="M813 198L813 336" stroke="white" stroke-dasharray="2 2"/>
<path opacity="0.08" d="M821 198L821 336" stroke="white" stroke-dasharray="2 2"/>
<path opacity="0.08" d="M829 198L829 336" stroke="white" stroke-dasharray="2 2"/>
<path opacity="0.08" d="M837 198L837 336" stroke="white" stroke-dasharray="2 2"/>
<path opacity="0.08" d="M845 198L845 336" stroke="white" stroke-dasharray="2 2"/>
<path opacity="0.08" d="M853 198L853 336" stroke="white" stroke-dasharray="2 2"/>
<path opacity="0.08" d="M861 198L861 336" stroke="white" stroke-dasharray="2 2"/>
<path opacity="0.08" d="M869 198L869 336" stroke="white" stroke-dasharray="2 2"/>
<path opacity="0.08" d="M877 198L877 336" stroke="white" stroke-dasharray="2 2"/>
<path opacity="0.08" d="M885 198L885 336" stroke="white" stroke-dasharray="2 2"/>
<path opacity="0.08" d="M893 198L893 336" stroke="white" stroke-dasharray="2 2"/>
<path opacity="0.08" d="M901 198L901 336" stroke="white" stroke-dasharray="2 2"/>
<path opacity="0.08" d="M909 198L909 336" stroke="white" stroke-dasharray="2 2"/>
<path opacity="0.08" d="M917 198L917 336" stroke="white" stroke-dasharray="2 2"/>
<path opacity="0.08" d="M925 198L925 336" stroke="white" stroke-dasharray="2 2"/>
<path opacity="0.08" d="M933 198L933 336" stroke="white" stroke-dasharray="2 2"/>
<path opacity="0.08" d="M941 198L941 336" stroke="white" stroke-dasharray="2 2"/>
<path opacity="0.08" d="M949 198L949 336" stroke="white" stroke-dasharray="2 2"/>
<path opacity="0.08" d="M957 198L957 336" stroke="white" stroke-dasharray="2 2"/>
<path opacity="0.08" d="M965 198L965 336" stroke="white" stroke-dasharray="2 2"/>
<path opacity="0.08" d="M973 198L973 336" stroke="white" stroke-dasharray="2 2"/>
<path opacity="0.08" d="M981 198L981 336" stroke="white" stroke-dasharray="2 2"/>
<path opacity="0.08" d="M989 198L989 336" stroke="white" stroke-dasharray="2 2"/>
<path opacity="0.08" d="M565 198L565 336" stroke="white" stroke-dasharray="2 2"/>
<path opacity="0.08" d="M573 198L573 336" stroke="white" stroke-dasharray="2 2"/>
<path opacity="0.08" d="M581 198L581 336" stroke="white" stroke-dasharray="2 2"/>
<path opacity="0.08" d="M589 198L589 336" stroke="white" stroke-dasharray="2 2"/>
<path opacity="0.08" d="M597 198L597 336" stroke="white" stroke-dasharray="2 2"/>
<path opacity="0.08" d="M605 198L605 336" stroke="white" stroke-dasharray="2 2"/>
<path opacity="0.08" d="M613 198L613 336" stroke="white" stroke-dasharray="2 2"/>
<path opacity="0.08" d="M621 198L621 336" stroke="white" stroke-dasharray="2 2"/>
<path opacity="0.08" d="M629 198L629 336" stroke="white" stroke-dasharray="2 2"/>
<path opacity="0.08" d="M637 198L637 336" stroke="white" stroke-dasharray="2 2"/>
<path opacity="0.08" d="M645 198L645 336" stroke="white" stroke-dasharray="2 2"/>
<path opacity="0.08" d="M653 198L653 336" stroke="white" stroke-dasharray="2 2"/>
<path opacity="0.08" d="M661 198L661 336" stroke="white" stroke-dasharray="2 2"/>
<path opacity="0.08" d="M669 198L669 336" stroke="white" stroke-dasharray="2 2"/>
<path opacity="0.08" d="M677 198L677 336" stroke="white" stroke-dasharray="2 2"/>
<path opacity="0.08" d="M685 198L685 336" stroke="white" stroke-dasharray="2 2"/>
<path opacity="0.08" d="M693 198L693 336" stroke="white" stroke-dasharray="2 2"/>
<path opacity="0.08" d="M701 198L701 336" stroke="white" stroke-dasharray="2 2"/>
<path opacity="0.08" d="M709 198L709 336" stroke="white" stroke-dasharray="2 2"/>
<path opacity="0.08" d="M717 198L717 336" stroke="white" stroke-dasharray="2 2"/>
<path opacity="0.08" d="M725 198L725 336" stroke="white" stroke-dasharray="2 2"/>
<path opacity="0.08" d="M733 198L733 336" stroke="white" stroke-dasharray="2 2"/>
<path opacity="0.08" d="M741 198L741 336" stroke="white" stroke-dasharray="2 2"/>
<path opacity="0.08" d="M749 198L749 336" stroke="white" stroke-dasharray="2 2"/>
<path opacity="0.08" d="M757 198L757 336" stroke="white" stroke-dasharray="2 2"/>
<path opacity="0.08" d="M765 198L765 336" stroke="white" stroke-dasharray="2 2"/>
<path opacity="0.08" d="M773 198L773 336" stroke="white" stroke-dasharray="2 2"/>
<path opacity="0.08" d="M349 198L349 336" stroke="white" stroke-dasharray="2 2"/>
<path opacity="0.08" d="M357 198L357 336" stroke="white" stroke-dasharray="2 2"/>
<path opacity="0.08" d="M365 198L365 336" stroke="white" stroke-dasharray="2 2"/>
<path opacity="0.08" d="M373 198L373 336" stroke="white" stroke-dasharray="2 2"/>
<path opacity="0.08" d="M381 198L381 336" stroke="white" stroke-dasharray="2 2"/>
<path opacity="0.08" d="M389 198L389 336" stroke="white" stroke-dasharray="2 2"/>
<path opacity="0.08" d="M397 198L397 336" stroke="white" stroke-dasharray="2 2"/>
<path opacity="0.08" d="M405 198L405 336" stroke="white" stroke-dasharray="2 2"/>
<path opacity="0.08" d="M413 198L413 336" stroke="white" stroke-dasharray="2 2"/>
<path opacity="0.08" d="M421 198L421 336" stroke="white" stroke-dasharray="2 2"/>
<path opacity="0.08" d="M429 198L429 336" stroke="white" stroke-dasharray="2 2"/>
<path opacity="0.08" d="M437 198L437 336" stroke="white" stroke-dasharray="2 2"/>
<path opacity="0.08" d="M445 198L445 336" stroke="white" stroke-dasharray="2 2"/>
<path opacity="0.08" d="M453 198L453 336" stroke="white" stroke-dasharray="2 2"/>
<path opacity="0.08" d="M461 198L461 336" stroke="white" stroke-dasharray="2 2"/>
<path opacity="0.08" d="M469 198L469 336" stroke="white" stroke-dasharray="2 2"/>
<path opacity="0.08" d="M477 198L477 336" stroke="white" stroke-dasharray="2 2"/>
<path opacity="0.08" d="M485 198L485 336" stroke="white" stroke-dasharray="2 2"/>
<path opacity="0.08" d="M493 198L493 336" stroke="white" stroke-dasharray="2 2"/>
<path opacity="0.08" d="M501 198L501 336" stroke="white" stroke-dasharray="2 2"/>
<path opacity="0.08" d="M509 198L509 336" stroke="white" stroke-dasharray="2 2"/>
<path opacity="0.08" d="M517 198L517 336" stroke="white" stroke-dasharray="2 2"/>
<path opacity="0.08" d="M525 198L525 336" stroke="white" stroke-dasharray="2 2"/>
<path opacity="0.08" d="M533 198L533 336" stroke="white" stroke-dasharray="2 2"/>
<path opacity="0.08" d="M541 198L541 336" stroke="white" stroke-dasharray="2 2"/>
<path opacity="0.08" d="M549 198L549 336" stroke="white" stroke-dasharray="2 2"/>
<path opacity="0.08" d="M557 198L557 336" stroke="white" stroke-dasharray="2 2"/>
<path opacity="0.08" d="M133 198L133 336" stroke="white" stroke-dasharray="2 2"/>
<path opacity="0.08" d="M141 198L141 336" stroke="white" stroke-dasharray="2 2"/>
<path opacity="0.08" d="M149 198L149 336" stroke="white" stroke-dasharray="2 2"/>
<path opacity="0.08" d="M157 198L157 336" stroke="white" stroke-dasharray="2 2"/>
<path opacity="0.08" d="M165 198L165 336" stroke="white" stroke-dasharray="2 2"/>
<path opacity="0.08" d="M173 198L173 336" stroke="white" stroke-dasharray="2 2"/>
<path opacity="0.08" d="M181 198L181 336" stroke="white" stroke-dasharray="2 2"/>
<path opacity="0.08" d="M189 198L189 336" stroke="white" stroke-dasharray="2 2"/>
<path opacity="0.08" d="M197 198L197 336" stroke="white" stroke-dasharray="2 2"/>
<path opacity="0.08" d="M205 198L205 336" stroke="white" stroke-dasharray="2 2"/>
<path opacity="0.08" d="M213 198L213 336" stroke="white" stroke-dasharray="2 2"/>
<path opacity="0.08" d="M221 198L221 336" stroke="white" stroke-dasharray="2 2"/>
<path opacity="0.08" d="M229 198L229 336" stroke="white" stroke-dasharray="2 2"/>
<path opacity="0.08" d="M237 198L237 336" stroke="white" stroke-dasharray="2 2"/>
<path opacity="0.08" d="M245 198L245 336" stroke="white" stroke-dasharray="2 2"/>
<path opacity="0.08" d="M253 198L253 336" stroke="white" stroke-dasharray="2 2"/>
<path opacity="0.08" d="M261 198L261 336" stroke="white" stroke-dasharray="2 2"/>
<path opacity="0.08" d="M269 198L269 336" stroke="white" stroke-dasharray="2 2"/>
<path opacity="0.08" d="M277 198L277 336" stroke="white" stroke-dasharray="2 2"/>
<path opacity="0.08" d="M285 198L285 336" stroke="white" stroke-dasharray="2 2"/>
<path opacity="0.08" d="M293 198L293 336" stroke="white" stroke-dasharray="2 2"/>
<path opacity="0.08" d="M301 198L301 336" stroke="white" stroke-dasharray="2 2"/>
<path opacity="0.08" d="M309 198L309 336" stroke="white" stroke-dasharray="2 2"/>
<path opacity="0.08" d="M317 198L317 336" stroke="white" stroke-dasharray="2 2"/>
<path opacity="0.08" d="M325 198L325 336" stroke="white" stroke-dasharray="2 2"/>
<path opacity="0.08" d="M333 198L333 336" stroke="white" stroke-dasharray="2 2"/>
<path opacity="0.08" d="M341 198L341 336" stroke="white" stroke-dasharray="2 2"/>
<path opacity="0.08" d="M5 198L4.99999 336" stroke="white" stroke-dasharray="2 2"/>
<path opacity="0.08" d="M13 198L13 336" stroke="white" stroke-dasharray="2 2"/>
<path opacity="0.08" d="M21 198L21 336" stroke="white" stroke-dasharray="2 2"/>
<path opacity="0.08" d="M29 198L29 336" stroke="white" stroke-dasharray="2 2"/>
<path opacity="0.08" d="M37 198L37 336" stroke="white" stroke-dasharray="2 2"/>
<path opacity="0.08" d="M45 198L45 336" stroke="white" stroke-dasharray="2 2"/>
<path opacity="0.08" d="M53 198L53 336" stroke="white" stroke-dasharray="2 2"/>
<path opacity="0.08" d="M61 198L61 336" stroke="white" stroke-dasharray="2 2"/>
<path opacity="0.08" d="M69 198L69 336" stroke="white" stroke-dasharray="2 2"/>
<path opacity="0.08" d="M77 198L77 336" stroke="white" stroke-dasharray="2 2"/>
<path opacity="0.08" d="M85 198L85 336" stroke="white" stroke-dasharray="2 2"/>
<path opacity="0.08" d="M93 198L93 336" stroke="white" stroke-dasharray="2 2"/>
<path opacity="0.08" d="M101 198L101 336" stroke="white" stroke-dasharray="2 2"/>
<path opacity="0.08" d="M109 198L109 336" stroke="white" stroke-dasharray="2 2"/>
<path opacity="0.08" d="M117 198L117 336" stroke="white" stroke-dasharray="2 2"/>
<path opacity="0.08" d="M125 198L125 336" stroke="white" stroke-dasharray="2 2"/>
<path opacity="0.08" d="M1221 147L997 147" stroke="white" stroke-dasharray="2 2"/>
<path opacity="0.08" d="M1221 155L997 155" stroke="white" stroke-dasharray="2 2"/>
<path opacity="0.08" d="M1221 163L997 163" stroke="white" stroke-dasharray="2 2"/>
<path opacity="0.08" d="M1221 171L997 171" stroke="white" stroke-dasharray="2 2"/>
<path opacity="0.08" d="M1221 179L997 179" stroke="white" stroke-dasharray="2 2"/>
<path opacity="0.08" d="M1221 187L997 187" stroke="white" stroke-dasharray="2 2"/>
<path opacity="0.08" d="M1221 195L997 195" stroke="white" stroke-dasharray="2 2"/>
<path opacity="0.08" d="M1221 203L997 203" stroke="white" stroke-dasharray="2 2"/>
<path opacity="0.08" d="M1221 211L997 211" stroke="white" stroke-dasharray="2 2"/>
<path opacity="0.08" d="M1221 219L997 219" stroke="white" stroke-dasharray="2 2"/>
<path opacity="0.08" d="M1221 227L997 227" stroke="white" stroke-dasharray="2 2"/>
<path opacity="0.08" d="M1221 235L997 235" stroke="white" stroke-dasharray="2 2"/>
<path opacity="0.08" d="M1221 243L997 243" stroke="white" stroke-dasharray="2 2"/>
<path opacity="0.08" d="M1221 251L997 251" stroke="white" stroke-dasharray="2 2"/>
<path opacity="0.08" d="M1221 259L997 259" stroke="white" stroke-dasharray="2 2"/>
<path opacity="0.08" d="M1221 267L997 267" stroke="white" stroke-dasharray="2 2"/>
<path opacity="0.08" d="M1221 275L997 275" stroke="white" stroke-dasharray="2 2"/>
<path opacity="0.08" d="M1221 283L997 283" stroke="white" stroke-dasharray="2 2"/>
<path opacity="0.08" d="M1221 291L997 291" stroke="white" stroke-dasharray="2 2"/>
<path opacity="0.08" d="M1221 299L997 299" stroke="white" stroke-dasharray="2 2"/>
<path opacity="0.08" d="M1221 307L997 307" stroke="white" stroke-dasharray="2 2"/>
<path opacity="0.08" d="M1221 315L997 315" stroke="white" stroke-dasharray="2 2"/>
<path opacity="0.08" d="M1221 323L997 323" stroke="white" stroke-dasharray="2 2"/>
<path opacity="0.08" d="M1221 331L997 331" stroke="white" stroke-dasharray="2 2"/>
<path opacity="0.08" d="M1221 339L997 339" stroke="white" stroke-dasharray="2 2"/>
<path opacity="0.08" d="M1221 347L997 347" stroke="white" stroke-dasharray="2 2"/>
<path opacity="0.08" d="M1221 355L997 355" stroke="white" stroke-dasharray="2 2"/>
<path opacity="0.08" d="M1221 363L997 363" stroke="white" stroke-dasharray="2 2"/>
<path opacity="0.08" d="M1221 371L997 371" stroke="white" stroke-dasharray="2 2"/>
<path opacity="0.08" d="M1221 379L997 379" stroke="white" stroke-dasharray="2 2"/>
<path opacity="0.08" d="M1221 387L997 387" stroke="white" stroke-dasharray="2 2"/>
<path opacity="0.08" d="M997 203L0.999958 203" stroke="white" stroke-opacity="0.7" stroke-dasharray="2 2"/>
<path opacity="0.08" d="M997 211L0.999958 211" stroke="white" stroke-opacity="0.7" stroke-dasharray="2 2"/>
<path opacity="0.08" d="M997 219L0.999958 219" stroke="white" stroke-opacity="0.7" stroke-dasharray="2 2"/>
<path opacity="0.08" d="M997 227L0.999958 227" stroke="white" stroke-opacity="0.7" stroke-dasharray="2 2"/>
<path opacity="0.08" d="M997 235L0.999958 235" stroke="white" stroke-opacity="0.7" stroke-dasharray="2 2"/>
<path opacity="0.08" d="M997 243L0.999958 243" stroke="white" stroke-opacity="0.7" stroke-dasharray="2 2"/>
<path opacity="0.08" d="M997 251L0.999958 251" stroke="white" stroke-opacity="0.7" stroke-dasharray="2 2"/>
<path opacity="0.08" d="M997 259L0.999958 259" stroke="white" stroke-opacity="0.7" stroke-dasharray="2 2"/>
<path opacity="0.08" d="M997 267L0.999958 267" stroke="white" stroke-opacity="0.7" stroke-dasharray="2 2"/>
<path opacity="0.08" d="M997 275L0.999958 275" stroke="white" stroke-opacity="0.7" stroke-dasharray="2 2"/>
<path opacity="0.08" d="M997 283L0.999958 283" stroke="white" stroke-opacity="0.7" stroke-dasharray="2 2"/>
<path opacity="0.08" d="M997 291L0.999958 291" stroke="white" stroke-opacity="0.7" stroke-dasharray="2 2"/>
<path opacity="0.08" d="M997 307L0.999958 307" stroke="white" stroke-opacity="0.7" stroke-dasharray="2 2"/>
<path opacity="0.08" d="M997 315L0.999958 315" stroke="white" stroke-opacity="0.7" stroke-dasharray="2 2"/>
<path opacity="0.08" d="M997 323L0.999958 323" stroke="white" stroke-opacity="0.7" stroke-dasharray="2 2"/>
<path opacity="0.08" d="M997 331L0.999958 331" stroke="white" stroke-opacity="0.7" stroke-dasharray="2 2"/>
<path d="M843 396H1379" stroke="url(#paint18_linear_37065_56835)"/>
<path d="M1063.51 350.1V380.914C1074.53 386.517 1089.55 389.519 1102.37 390.719C1152.05 394.721 1218.96 355.903 1216.96 277.865C1214.15 238.046 1197.73 219.638 1178.09 198.027C1159.06 178.218 1142.64 171.615 1122 170.414C1076.93 167.813 1041.28 206.431 1041.88 245.85C1042.88 297.074 1082.14 321.686 1115.39 323.487V293.073C1111.99 293.473 1108.38 293.873 1104.78 293.873C1060.71 293.873 1026.45 255.855 1028.05 214.235C1029.86 171.415 1066.72 141 1105.18 141C1115.79 141 1162.87 145.802 1178.29 197.427C1231.18 253.654 1182.5 377.513 1074.33 353.501C1071.52 352.901 1066.72 351.3 1063.51 350.1Z" stroke="#F5F5F5" stroke-width="8" stroke-miterlimit="10"/>
<path opacity="0.12" d="M1175.71 182.543C1182.13 195.53 1184.91 210.017 1183.74 224.458C1182.57 238.898 1177.5 252.75 1169.07 264.534C1160.65 276.319 1149.18 285.594 1135.89 291.369C1122.6 297.144 1108 299.203 1093.63 297.325C1079.27 295.448 1065.68 289.705 1054.32 280.709C1042.97 271.713 1034.27 259.802 1029.15 246.247C1024.04 232.693 1022.7 218.003 1025.28 203.748C1027.86 189.492 1034.26 176.204 1043.81 165.304L1049.83 170.577C1041.24 180.387 1035.48 192.345 1033.16 205.174C1030.84 218.003 1032.04 231.222 1036.64 243.42C1041.25 255.618 1049.08 266.337 1059.3 274.433C1069.52 282.529 1081.74 287.697 1094.67 289.387C1107.6 291.076 1120.74 289.224 1132.7 284.026C1144.66 278.829 1154.98 270.482 1162.56 259.877C1170.14 249.272 1174.71 236.807 1175.76 223.811C1176.81 210.816 1174.31 197.779 1168.54 186.092L1175.71 182.543Z" fill="url(#paint19_angular_37065_56835)"/>
<path opacity="0.12" d="M1110.18 327.666C1126.03 329.115 1141.96 325.829 1155.95 318.225C1169.94 310.62 1181.36 299.039 1188.76 284.945C1196.17 270.851 1199.23 254.877 1197.55 239.044C1195.88 223.21 1189.55 208.229 1179.36 195.993L1173.17 201.154C1182.33 212.163 1188.03 225.644 1189.53 239.891C1191.04 254.138 1188.28 268.511 1181.62 281.193C1174.96 293.875 1164.68 304.296 1152.1 311.138C1139.51 317.981 1125.18 320.937 1110.91 319.634L1110.18 327.666Z" fill="url(#paint20_angular_37065_56835)"/>
<path opacity="0.1" d="M1221 284C1221 345.856 1170.86 396 1109 396C1047.14 396 997 345.856 997 284C997 222.144 1047.14 172 1109 172C1170.86 172 1221 222.144 1221 284ZM1005.85 284C1005.85 340.969 1052.03 387.152 1109 387.152C1165.97 387.152 1212.15 340.969 1212.15 284C1212.15 227.031 1165.97 180.848 1109 180.848C1052.03 180.848 1005.85 227.031 1005.85 284Z" fill="url(#paint21_angular_37065_56835)"/>
<path opacity="0.1" d="M1070.87 356.669C1055.17 351.978 1040.81 343.625 1028.96 332.297C1017.12 320.97 1008.13 306.991 1002.75 291.513C997.363 276.034 995.73 259.498 997.984 243.265C1000.24 227.032 1006.31 211.567 1015.71 198.141C1025.11 184.716 1037.57 173.714 1052.05 166.042C1066.53 158.37 1082.63 154.246 1099.01 154.011C1115.4 153.775 1131.61 157.435 1146.31 164.688C1161 171.941 1173.77 182.58 1183.55 195.73L1176.99 200.61C1167.98 188.499 1156.22 178.7 1142.69 172.02C1129.15 165.34 1114.22 161.97 1099.13 162.186C1084.04 162.403 1069.21 166.201 1055.88 173.267C1042.54 180.333 1031.07 190.466 1022.41 202.83C1013.75 215.195 1008.16 229.439 1006.08 244.39C1004.01 259.34 1005.51 274.57 1010.47 288.826C1015.43 303.082 1023.71 315.956 1034.61 326.388C1045.52 336.821 1058.75 344.514 1073.21 348.835L1070.87 356.669Z" fill="url(#paint22_angular_37065_56835)"/>
<path d="M74.4931 338.662C61.112 338.662 48.7602 335.52 37.4378 329.235C26.3212 322.951 17.469 314.335 10.8814 303.387C4.29381 292.44 1 280.073 1 266.287C1 253.515 4.29381 241.757 10.8814 231.012C17.469 220.065 26.4241 211.347 37.7466 204.86C49.2749 198.372 61.9355 195.129 75.7283 195.129C87.2566 195.129 97.1381 196.953 105.373 200.602C113.607 204.252 121.636 209.928 129.459 217.632V234.053C122.665 224.119 115.048 216.618 106.608 211.55C98.3733 206.279 88.0801 203.643 75.7283 203.643C64.4058 203.643 53.701 206.583 43.6137 212.462C33.7322 218.139 25.8065 225.842 19.8365 235.574C13.8664 245.305 10.8814 255.745 10.8814 266.896C10.8814 279.059 13.7635 290.007 19.5277 299.738C25.2918 309.266 33.0117 316.767 42.6873 322.241C52.5687 327.512 63.1707 330.148 74.4931 330.148C97.5498 330.148 115.872 319.91 129.459 299.434V315.855C122.048 323.559 113.813 329.337 104.755 333.189C95.9029 336.838 85.8156 338.662 74.4931 338.662Z" fill="#F5F5F5"/>
<path d="M225.889 339.575C211.891 339.575 199.23 336.23 187.908 329.54C176.585 322.647 167.733 313.625 161.351 302.475C154.97 291.122 151.779 278.857 151.779 265.679C151.779 252.704 154.97 240.642 161.351 229.492C167.939 218.341 176.791 209.523 187.908 203.035C199.23 196.345 211.788 193 225.581 193C239.168 193 251.519 196.345 262.636 203.035C273.958 209.523 282.811 218.341 289.192 229.492C295.574 240.642 298.765 252.704 298.765 265.679C298.765 279.262 295.677 291.73 289.501 303.083C283.325 314.233 274.679 323.154 263.562 329.844C252.652 336.331 240.094 339.575 225.889 339.575ZM225.889 331.06C237.624 331.06 248.328 328.12 258.004 322.241C267.68 316.362 275.194 308.557 280.546 298.826C286.104 288.892 288.883 278.046 288.883 266.287C288.883 254.732 286.104 243.987 280.546 234.053C274.988 224.119 267.371 216.213 257.695 210.334C248.02 204.454 237.315 201.515 225.581 201.515C213.846 201.515 203.039 204.556 193.157 210.638C183.482 216.517 175.762 224.423 169.998 234.357C164.439 244.291 161.66 255.036 161.66 266.591C161.66 278.147 164.439 288.892 169.998 298.826C175.762 308.557 183.482 316.362 193.157 322.241C203.039 328.12 213.949 331.06 225.889 331.06Z" fill="#F5F5F5"/>
<path d="M326.568 197.866H336.45V218.544C345.92 202.528 361.153 194.52 382.152 194.52C392.239 194.52 400.988 197.359 408.399 203.035C415.81 208.509 420.957 216.821 423.839 227.971C426.515 218.037 432.382 210.029 441.44 203.947C450.704 197.663 461.1 194.52 472.628 194.52C487.656 194.52 499.288 198.879 507.522 207.597C515.757 216.111 519.874 228.275 519.874 244.088V334.709H509.992V244.088C509.992 231.316 506.596 221.281 499.802 213.983C493.215 206.684 484.465 203.035 473.555 203.035C465.32 203.035 457.703 205.063 450.704 209.117C443.705 212.969 438.146 218.24 434.029 224.93C429.912 231.62 427.853 239.02 427.853 247.129V334.709H417.972V249.562C417.972 234.965 414.472 223.612 407.473 215.503C400.473 207.191 391.415 203.035 380.299 203.035C372.888 203.035 365.785 204.86 358.992 208.509C352.404 212.158 346.949 217.125 342.626 223.41C338.509 229.492 336.45 236.182 336.45 243.48V334.709H326.568V197.866Z" fill="#F5F5F5"/>
<path d="M558.768 197.866H568.649V218.544C578.119 202.528 593.353 194.52 614.351 194.52C624.438 194.52 633.187 197.359 640.598 203.035C648.009 208.509 653.156 216.821 656.038 227.971C658.714 218.037 664.581 210.029 673.639 203.947C682.903 197.663 693.299 194.52 704.827 194.52C719.855 194.52 731.487 198.879 739.721 207.597C747.956 216.111 752.073 228.275 752.073 244.088V334.709H742.192V244.088C742.192 231.316 738.795 221.281 732.001 213.983C725.414 206.684 716.665 203.035 705.754 203.035C697.519 203.035 689.902 205.063 682.903 209.117C675.904 212.969 670.345 218.24 666.228 224.93C662.111 231.62 660.052 239.02 660.052 247.129V334.709H650.171V249.562C650.171 234.965 646.671 223.612 639.672 215.503C632.672 207.191 623.614 203.035 612.498 203.035C605.087 203.035 597.984 204.86 591.191 208.509C584.603 212.158 579.148 217.125 574.825 223.41C570.708 229.492 568.649 236.182 568.649 243.48V334.709H558.768V197.866Z" fill="#F5F5F5"/>
<path d="M856.431 338.054C843.256 338.054 831.007 334.811 819.685 328.323C808.362 321.836 799.407 313.118 792.819 302.171C786.232 291.021 782.938 279.059 782.938 266.287C782.938 253.515 786.232 241.656 792.819 230.708C799.407 219.558 808.362 210.739 819.685 204.252C831.007 197.764 843.256 194.52 856.431 194.52C869.812 194.52 882.473 198.068 894.413 205.164C906.353 212.057 914.69 221.078 919.425 232.229V197.866H929.307V334.709H919.425V300.65C913.867 312.003 905.221 321.126 893.486 328.019C881.958 334.709 869.606 338.054 856.431 338.054ZM857.049 329.54C868.371 329.54 878.87 326.701 888.546 321.025C898.221 315.146 905.838 307.442 911.397 297.913C917.161 288.182 920.043 277.64 920.043 266.287C920.043 255.137 917.161 244.696 911.397 234.965C905.632 225.234 897.913 217.53 888.237 211.854C878.561 205.975 868.062 203.035 856.74 203.035C845.417 203.035 834.816 205.975 824.934 211.854C815.259 217.733 807.436 225.538 801.466 235.269C795.702 245.001 792.819 255.441 792.819 266.591C792.819 277.742 795.702 288.182 801.466 297.913C807.436 307.442 815.361 315.146 825.243 321.025C835.124 326.701 845.726 329.54 857.049 329.54Z" fill="#F5F5F5"/>
<path opacity="0.4" d="M656 71L656 461" stroke="url(#paint23_linear_37065_56835)" stroke-dasharray="2 2"/>
<path opacity="0.4" d="M424 71L424 461" stroke="url(#paint24_linear_37065_56835)" stroke-dasharray="2 2"/>
<path opacity="0.4" d="M451.005 257.714C452.014 268.991 443.69 278.951 432.413 279.959C421.136 280.968 411.177 272.644 410.168 261.367" stroke="url(#paint25_linear_37065_56835)"/>
<path opacity="0.4" d="M682.837 257.714C683.846 268.991 675.522 278.951 664.245 279.959C652.968 280.968 643.009 272.644 642 261.367" stroke="url(#paint26_linear_37065_56835)"/>
<path opacity="0.4" d="M397.077 193.918C395.992 182.648 404.248 172.632 415.518 171.547C426.787 170.462 436.803 178.718 437.888 189.988" stroke="url(#paint27_linear_37065_56835)"/>
<path opacity="0.4" d="M629.077 193.918C627.992 182.648 636.248 172.632 647.518 171.547C658.787 170.462 668.803 178.718 669.888 189.988" stroke="url(#paint28_linear_37065_56835)"/>
<path opacity="0.4" d="M892.242 195.751C890.064 184.64 897.306 173.868 908.417 171.691C919.528 169.514 930.299 176.756 932.476 187.867" stroke="url(#paint29_linear_37065_56835)"/>
<path opacity="0.4" d="M102.242 195.751C100.065 184.64 107.307 173.868 118.417 171.691C129.528 169.514 140.299 176.756 142.477 187.867" stroke="url(#paint30_linear_37065_56835)"/>
<path opacity="0.4" d="M157.535 272.749C159.712 283.86 152.47 294.632 141.359 296.809C130.249 298.986 119.477 291.744 117.3 280.633" stroke="url(#paint31_linear_37065_56835)"/>
<path opacity="0.4" d="M947.235 272.749C949.412 283.86 942.17 294.632 931.059 296.809C919.949 298.986 909.177 291.744 907 280.633" stroke="url(#paint32_linear_37065_56835)"/>
<path opacity="0.44" d="M105.947 158.149C105.244 158.149 104.617 158.028 104.066 157.787C103.519 157.545 103.084 157.21 102.761 156.78C102.442 156.347 102.268 155.844 102.239 155.273H103.582C103.61 155.624 103.731 155.928 103.944 156.184C104.157 156.436 104.436 156.631 104.78 156.77C105.125 156.908 105.506 156.977 105.925 156.977C106.394 156.977 106.81 156.896 107.172 156.732C107.534 156.569 107.818 156.342 108.024 156.05C108.23 155.759 108.333 155.422 108.333 155.038C108.333 154.637 108.234 154.284 108.035 153.978C107.836 153.669 107.545 153.428 107.161 153.254C106.778 153.08 106.309 152.993 105.755 152.993H104.881V151.821H105.755C106.188 151.821 106.568 151.743 106.895 151.587C107.225 151.43 107.483 151.21 107.667 150.926C107.855 150.642 107.95 150.308 107.95 149.925C107.95 149.555 107.868 149.234 107.705 148.961C107.541 148.687 107.31 148.474 107.012 148.321C106.717 148.169 106.369 148.092 105.968 148.092C105.592 148.092 105.236 148.162 104.903 148.3C104.572 148.435 104.303 148.632 104.093 148.891C103.883 149.147 103.77 149.456 103.752 149.818H102.474C102.495 149.246 102.667 148.746 102.99 148.316C103.314 147.883 103.736 147.545 104.258 147.304C104.784 147.062 105.361 146.942 105.989 146.942C106.664 146.942 107.243 147.078 107.726 147.352C108.209 147.622 108.58 147.979 108.839 148.423C109.098 148.866 109.228 149.346 109.228 149.861C109.228 150.475 109.066 150.999 108.743 151.432C108.424 151.865 107.989 152.165 107.438 152.332V152.418C108.127 152.531 108.665 152.824 109.052 153.297C109.439 153.765 109.633 154.346 109.633 155.038C109.633 155.631 109.471 156.164 109.148 156.636C108.828 157.105 108.392 157.474 107.838 157.744C107.284 158.014 106.653 158.149 105.947 158.149ZM115.37 158.149C114.567 158.149 113.883 157.931 113.319 157.494C112.754 157.054 112.323 156.416 112.024 155.582C111.726 154.744 111.577 153.732 111.577 152.545C111.577 151.366 111.726 150.36 112.024 149.525C112.326 148.687 112.76 148.048 113.324 147.608C113.892 147.164 114.574 146.942 115.37 146.942C116.165 146.942 116.845 147.164 117.41 147.608C117.978 148.048 118.411 148.687 118.709 149.525C119.011 150.36 119.162 151.366 119.162 152.545C119.162 153.732 119.013 154.744 118.715 155.582C118.417 156.416 117.985 157.054 117.42 157.494C116.856 157.931 116.172 158.149 115.37 158.149ZM115.37 156.977C116.165 156.977 116.783 156.594 117.223 155.827C117.664 155.06 117.884 153.966 117.884 152.545C117.884 151.601 117.783 150.797 117.58 150.132C117.381 149.468 117.094 148.962 116.717 148.614C116.344 148.266 115.895 148.092 115.37 148.092C114.581 148.092 113.965 148.481 113.521 149.259C113.077 150.033 112.855 151.129 112.855 152.545C112.855 153.49 112.955 154.293 113.154 154.953C113.353 155.614 113.638 156.116 114.011 156.461C114.388 156.805 114.841 156.977 115.37 156.977ZM123.466 151.906C123.015 151.906 122.603 151.796 122.23 151.576C121.861 151.356 121.566 151.061 121.346 150.692C121.126 150.319 121.016 149.907 121.016 149.456C121.016 149.005 121.126 148.595 121.346 148.225C121.566 147.853 121.861 147.556 122.23 147.336C122.603 147.116 123.015 147.006 123.466 147.006C123.917 147.006 124.327 147.116 124.697 147.336C125.07 147.556 125.366 147.853 125.586 148.225C125.806 148.595 125.917 149.005 125.917 149.456C125.917 149.907 125.806 150.319 125.586 150.692C125.366 151.061 125.07 151.356 124.697 151.576C124.327 151.796 123.917 151.906 123.466 151.906ZM123.466 150.841C123.722 150.841 123.955 150.779 124.164 150.654C124.374 150.53 124.54 150.363 124.665 150.154C124.789 149.944 124.851 149.712 124.851 149.456C124.851 149.2 124.789 148.968 124.665 148.758C124.54 148.549 124.374 148.382 124.164 148.257C123.955 148.133 123.722 148.071 123.466 148.071C123.211 148.071 122.978 148.133 122.768 148.257C122.559 148.382 122.392 148.549 122.268 148.758C122.143 148.968 122.081 149.2 122.081 149.456C122.081 149.712 122.143 149.944 122.268 150.154C122.392 150.363 122.559 150.53 122.768 150.654C122.978 150.779 123.211 150.841 123.466 150.841Z" fill="white"/>
<path opacity="0.44" d="M895.947 158.149C895.244 158.149 894.617 158.028 894.066 157.787C893.519 157.545 893.084 157.21 892.761 156.78C892.442 156.347 892.268 155.844 892.239 155.273H893.582C893.61 155.624 893.731 155.928 893.944 156.184C894.157 156.436 894.436 156.631 894.78 156.77C895.125 156.908 895.506 156.977 895.925 156.977C896.394 156.977 896.81 156.896 897.172 156.732C897.534 156.569 897.818 156.342 898.024 156.05C898.23 155.759 898.333 155.422 898.333 155.038C898.333 154.637 898.234 154.284 898.035 153.978C897.836 153.669 897.545 153.428 897.161 153.254C896.778 153.08 896.309 152.993 895.755 152.993H894.881V151.821H895.755C896.188 151.821 896.568 151.743 896.895 151.587C897.225 151.43 897.483 151.21 897.667 150.926C897.855 150.642 897.95 150.308 897.95 149.925C897.95 149.555 897.868 149.234 897.705 148.961C897.541 148.687 897.31 148.474 897.012 148.321C896.717 148.169 896.369 148.092 895.968 148.092C895.592 148.092 895.236 148.162 894.903 148.3C894.572 148.435 894.303 148.632 894.093 148.891C893.883 149.147 893.77 149.456 893.752 149.818H892.474C892.495 149.246 892.667 148.746 892.99 148.316C893.314 147.883 893.736 147.545 894.258 147.304C894.784 147.062 895.361 146.942 895.989 146.942C896.664 146.942 897.243 147.078 897.726 147.352C898.209 147.622 898.58 147.979 898.839 148.423C899.098 148.866 899.228 149.346 899.228 149.861C899.228 150.475 899.066 150.999 898.743 151.432C898.424 151.865 897.989 152.165 897.438 152.332V152.418C898.127 152.531 898.665 152.824 899.052 153.297C899.439 153.765 899.633 154.346 899.633 155.038C899.633 155.631 899.471 156.164 899.148 156.636C898.828 157.105 898.392 157.474 897.838 157.744C897.284 158.014 896.653 158.149 895.947 158.149ZM905.37 158.149C904.567 158.149 903.883 157.931 903.319 157.494C902.754 157.054 902.323 156.416 902.024 155.582C901.726 154.744 901.577 153.732 901.577 152.545C901.577 151.366 901.726 150.36 902.024 149.525C902.326 148.687 902.76 148.048 903.324 147.608C903.892 147.164 904.574 146.942 905.37 146.942C906.165 146.942 906.845 147.164 907.41 147.608C907.978 148.048 908.411 148.687 908.709 149.525C909.011 150.36 909.162 151.366 909.162 152.545C909.162 153.732 909.013 154.744 908.715 155.582C908.417 156.416 907.985 157.054 907.42 157.494C906.856 157.931 906.172 158.149 905.37 158.149ZM905.37 156.977C906.165 156.977 906.783 156.594 907.223 155.827C907.664 155.06 907.884 153.966 907.884 152.545C907.884 151.601 907.783 150.797 907.58 150.132C907.381 149.468 907.094 148.962 906.717 148.614C906.344 148.266 905.895 148.092 905.37 148.092C904.581 148.092 903.965 148.481 903.521 149.259C903.077 150.033 902.855 151.129 902.855 152.545C902.855 153.49 902.955 154.293 903.154 154.953C903.353 155.614 903.638 156.116 904.011 156.461C904.388 156.805 904.841 156.977 905.37 156.977ZM913.466 151.906C913.015 151.906 912.603 151.796 912.23 151.576C911.861 151.356 911.566 151.061 911.346 150.692C911.126 150.319 911.016 149.907 911.016 149.456C911.016 149.005 911.126 148.595 911.346 148.225C911.566 147.853 911.861 147.556 912.23 147.336C912.603 147.116 913.015 147.006 913.466 147.006C913.917 147.006 914.327 147.116 914.697 147.336C915.07 147.556 915.366 147.853 915.586 148.225C915.806 148.595 915.917 149.005 915.917 149.456C915.917 149.907 915.806 150.319 915.586 150.692C915.366 151.061 915.07 151.356 914.697 151.576C914.327 151.796 913.917 151.906 913.466 151.906ZM913.466 150.841C913.722 150.841 913.955 150.779 914.164 150.654C914.374 150.53 914.54 150.363 914.665 150.154C914.789 149.944 914.851 149.712 914.851 149.456C914.851 149.2 914.789 148.968 914.665 148.758C914.54 148.549 914.374 148.382 914.164 148.257C913.955 148.133 913.722 148.071 913.466 148.071C913.211 148.071 912.978 148.133 912.768 148.257C912.559 148.382 912.392 148.549 912.268 148.758C912.143 148.968 912.081 149.2 912.081 149.456C912.081 149.712 912.143 149.944 912.268 150.154C912.392 150.363 912.559 150.53 912.768 150.654C912.978 150.779 913.211 150.841 913.466 150.841Z" fill="white"/>
<path opacity="0.44" d="M138.947 323.149C138.244 323.149 137.617 323.028 137.066 322.787C136.519 322.545 136.084 322.21 135.761 321.78C135.442 321.347 135.268 320.844 135.239 320.273H136.582C136.61 320.624 136.731 320.928 136.944 321.184C137.157 321.436 137.436 321.631 137.78 321.77C138.125 321.908 138.506 321.977 138.925 321.977C139.394 321.977 139.81 321.896 140.172 321.732C140.534 321.569 140.818 321.342 141.024 321.05C141.23 320.759 141.333 320.422 141.333 320.038C141.333 319.637 141.234 319.284 141.035 318.978C140.836 318.669 140.545 318.428 140.161 318.254C139.778 318.08 139.309 317.993 138.755 317.993H137.881V316.821H138.755C139.188 316.821 139.568 316.743 139.895 316.587C140.225 316.43 140.483 316.21 140.667 315.926C140.855 315.642 140.95 315.308 140.95 314.925C140.95 314.555 140.868 314.234 140.705 313.961C140.541 313.687 140.31 313.474 140.012 313.321C139.717 313.169 139.369 313.092 138.968 313.092C138.592 313.092 138.236 313.162 137.903 313.3C137.572 313.435 137.303 313.632 137.093 313.891C136.883 314.147 136.77 314.456 136.752 314.818H135.474C135.495 314.246 135.667 313.746 135.99 313.316C136.314 312.883 136.736 312.545 137.258 312.304C137.784 312.062 138.361 311.942 138.989 311.942C139.664 311.942 140.243 312.078 140.726 312.352C141.209 312.622 141.58 312.979 141.839 313.423C142.098 313.866 142.228 314.346 142.228 314.861C142.228 315.475 142.066 315.999 141.743 316.432C141.424 316.865 140.989 317.165 140.438 317.332V317.418C141.127 317.531 141.665 317.824 142.052 318.297C142.439 318.765 142.633 319.346 142.633 320.038C142.633 320.631 142.471 321.164 142.148 321.636C141.828 322.105 141.392 322.474 140.838 322.744C140.284 323.014 139.653 323.149 138.947 323.149ZM148.37 323.149C147.567 323.149 146.883 322.931 146.319 322.494C145.754 322.054 145.323 321.416 145.024 320.582C144.726 319.744 144.577 318.732 144.577 317.545C144.577 316.366 144.726 315.36 145.024 314.525C145.326 313.687 145.76 313.048 146.324 312.608C146.892 312.164 147.574 311.942 148.37 311.942C149.165 311.942 149.845 312.164 150.41 312.608C150.978 313.048 151.411 313.687 151.709 314.525C152.011 315.36 152.162 316.366 152.162 317.545C152.162 318.732 152.013 319.744 151.715 320.582C151.417 321.416 150.985 322.054 150.42 322.494C149.856 322.931 149.172 323.149 148.37 323.149ZM148.37 321.977C149.165 321.977 149.783 321.594 150.223 320.827C150.664 320.06 150.884 318.966 150.884 317.545C150.884 316.601 150.783 315.797 150.58 315.132C150.381 314.468 150.094 313.962 149.717 313.614C149.344 313.266 148.895 313.092 148.37 313.092C147.581 313.092 146.965 313.481 146.521 314.259C146.077 315.033 145.855 316.129 145.855 317.545C145.855 318.49 145.955 319.293 146.154 319.953C146.353 320.614 146.638 321.116 147.011 321.461C147.388 321.805 147.841 321.977 148.37 321.977ZM156.466 316.906C156.015 316.906 155.603 316.796 155.23 316.576C154.861 316.356 154.566 316.061 154.346 315.692C154.126 315.319 154.016 314.907 154.016 314.456C154.016 314.005 154.126 313.595 154.346 313.225C154.566 312.853 154.861 312.556 155.23 312.336C155.603 312.116 156.015 312.006 156.466 312.006C156.917 312.006 157.327 312.116 157.697 312.336C158.07 312.556 158.366 312.853 158.586 313.225C158.806 313.595 158.917 314.005 158.917 314.456C158.917 314.907 158.806 315.319 158.586 315.692C158.366 316.061 158.07 316.356 157.697 316.576C157.327 316.796 156.917 316.906 156.466 316.906ZM156.466 315.841C156.722 315.841 156.955 315.779 157.164 315.654C157.374 315.53 157.54 315.363 157.665 315.154C157.789 314.944 157.851 314.712 157.851 314.456C157.851 314.2 157.789 313.968 157.665 313.758C157.54 313.549 157.374 313.382 157.164 313.257C156.955 313.133 156.722 313.071 156.466 313.071C156.211 313.071 155.978 313.133 155.768 313.257C155.559 313.382 155.392 313.549 155.268 313.758C155.143 313.968 155.081 314.2 155.081 314.456C155.081 314.712 155.143 314.944 155.268 315.154C155.392 315.363 155.559 315.53 155.768 315.654C155.978 315.779 156.211 315.841 156.466 315.841Z" fill="white"/>
<path opacity="0.44" d="M938.947 323.149C938.244 323.149 937.617 323.028 937.066 322.787C936.519 322.545 936.084 322.21 935.761 321.78C935.442 321.347 935.268 320.844 935.239 320.273H936.582C936.61 320.624 936.731 320.928 936.944 321.184C937.157 321.436 937.436 321.631 937.78 321.77C938.125 321.908 938.506 321.977 938.925 321.977C939.394 321.977 939.81 321.896 940.172 321.732C940.534 321.569 940.818 321.342 941.024 321.05C941.23 320.759 941.333 320.422 941.333 320.038C941.333 319.637 941.234 319.284 941.035 318.978C940.836 318.669 940.545 318.428 940.161 318.254C939.778 318.08 939.309 317.993 938.755 317.993H937.881V316.821H938.755C939.188 316.821 939.568 316.743 939.895 316.587C940.225 316.43 940.483 316.21 940.667 315.926C940.855 315.642 940.95 315.308 940.95 314.925C940.95 314.555 940.868 314.234 940.705 313.961C940.541 313.687 940.31 313.474 940.012 313.321C939.717 313.169 939.369 313.092 938.968 313.092C938.592 313.092 938.236 313.162 937.903 313.3C937.572 313.435 937.303 313.632 937.093 313.891C936.883 314.147 936.77 314.456 936.752 314.818H935.474C935.495 314.246 935.667 313.746 935.99 313.316C936.314 312.883 936.736 312.545 937.258 312.304C937.784 312.062 938.361 311.942 938.989 311.942C939.664 311.942 940.243 312.078 940.726 312.352C941.209 312.622 941.58 312.979 941.839 313.423C942.098 313.866 942.228 314.346 942.228 314.861C942.228 315.475 942.066 315.999 941.743 316.432C941.424 316.865 940.989 317.165 940.438 317.332V317.418C941.127 317.531 941.665 317.824 942.052 318.297C942.439 318.765 942.633 319.346 942.633 320.038C942.633 320.631 942.471 321.164 942.148 321.636C941.828 322.105 941.392 322.474 940.838 322.744C940.284 323.014 939.653 323.149 938.947 323.149ZM948.37 323.149C947.567 323.149 946.883 322.931 946.319 322.494C945.754 322.054 945.323 321.416 945.024 320.582C944.726 319.744 944.577 318.732 944.577 317.545C944.577 316.366 944.726 315.36 945.024 314.525C945.326 313.687 945.76 313.048 946.324 312.608C946.892 312.164 947.574 311.942 948.37 311.942C949.165 311.942 949.845 312.164 950.41 312.608C950.978 313.048 951.411 313.687 951.709 314.525C952.011 315.36 952.162 316.366 952.162 317.545C952.162 318.732 952.013 319.744 951.715 320.582C951.417 321.416 950.985 322.054 950.42 322.494C949.856 322.931 949.172 323.149 948.37 323.149ZM948.37 321.977C949.165 321.977 949.783 321.594 950.223 320.827C950.664 320.06 950.884 318.966 950.884 317.545C950.884 316.601 950.783 315.797 950.58 315.132C950.381 314.468 950.094 313.962 949.717 313.614C949.344 313.266 948.895 313.092 948.37 313.092C947.581 313.092 946.965 313.481 946.521 314.259C946.077 315.033 945.855 316.129 945.855 317.545C945.855 318.49 945.955 319.293 946.154 319.953C946.353 320.614 946.638 321.116 947.011 321.461C947.388 321.805 947.841 321.977 948.37 321.977ZM956.466 316.906C956.015 316.906 955.603 316.796 955.23 316.576C954.861 316.356 954.566 316.061 954.346 315.692C954.126 315.319 954.016 314.907 954.016 314.456C954.016 314.005 954.126 313.595 954.346 313.225C954.566 312.853 954.861 312.556 955.23 312.336C955.603 312.116 956.015 312.006 956.466 312.006C956.917 312.006 957.327 312.116 957.697 312.336C958.07 312.556 958.366 312.853 958.586 313.225C958.806 313.595 958.917 314.005 958.917 314.456C958.917 314.907 958.806 315.319 958.586 315.692C958.366 316.061 958.07 316.356 957.697 316.576C957.327 316.796 956.917 316.906 956.466 316.906ZM956.466 315.841C956.722 315.841 956.955 315.779 957.164 315.654C957.374 315.53 957.54 315.363 957.665 315.154C957.789 314.944 957.851 314.712 957.851 314.456C957.851 314.2 957.789 313.968 957.665 313.758C957.54 313.549 957.374 313.382 957.164 313.257C956.955 313.133 956.722 313.071 956.466 313.071C956.211 313.071 955.978 313.133 955.768 313.257C955.559 313.382 955.392 313.549 955.268 313.758C955.143 313.968 955.081 314.2 955.081 314.456C955.081 314.712 955.143 314.944 955.268 315.154C955.392 315.363 955.559 315.53 955.768 315.654C955.978 315.779 956.211 315.841 956.466 315.841Z" fill="white"/>
<path opacity="0.44" d="M631.561 161V160.041L635.162 156.099C635.584 155.638 635.932 155.237 636.206 154.896C636.479 154.551 636.682 154.228 636.813 153.926C636.948 153.621 637.015 153.301 637.015 152.967C637.015 152.584 636.923 152.252 636.738 151.971C636.557 151.691 636.309 151.474 635.993 151.321C635.677 151.169 635.322 151.092 634.927 151.092C634.508 151.092 634.143 151.179 633.83 151.353C633.521 151.524 633.281 151.763 633.111 152.072C632.944 152.381 632.861 152.744 632.861 153.159H631.604C631.604 152.52 631.751 151.959 632.046 151.476C632.34 150.993 632.742 150.616 633.249 150.347C633.761 150.077 634.334 149.942 634.97 149.942C635.609 149.942 636.176 150.077 636.669 150.347C637.163 150.616 637.55 150.98 637.83 151.439C638.111 151.897 638.251 152.406 638.251 152.967C638.251 153.369 638.178 153.761 638.033 154.145C637.891 154.525 637.642 154.949 637.287 155.418C636.936 155.883 636.447 156.451 635.822 157.122L633.372 159.743V159.828H638.443V161H631.561ZM644.137 161.149C643.406 161.149 642.759 161.02 642.198 160.76C641.641 160.498 641.206 160.137 640.893 159.679C640.581 159.217 640.426 158.692 640.43 158.102C640.426 157.641 640.517 157.214 640.702 156.824C640.886 156.43 641.138 156.101 641.458 155.838C641.781 155.572 642.142 155.403 642.539 155.332V155.268C642.017 155.134 641.602 154.841 641.293 154.39C640.984 153.935 640.831 153.418 640.835 152.839C640.831 152.286 640.971 151.79 641.256 151.353C641.54 150.917 641.93 150.572 642.427 150.32C642.928 150.068 643.498 149.942 644.137 149.942C644.769 149.942 645.334 150.068 645.831 150.32C646.328 150.572 646.719 150.917 647.003 151.353C647.291 151.79 647.436 152.286 647.44 152.839C647.436 153.418 647.278 153.935 646.966 154.39C646.657 154.841 646.247 155.134 645.735 155.268V155.332C646.129 155.403 646.485 155.572 646.801 155.838C647.117 156.101 647.369 156.43 647.557 156.824C647.745 157.214 647.841 157.641 647.845 158.102C647.841 158.692 647.681 159.217 647.365 159.679C647.053 160.137 646.618 160.498 646.06 160.76C645.506 161.02 644.865 161.149 644.137 161.149ZM644.137 159.977C644.631 159.977 645.057 159.897 645.416 159.738C645.774 159.578 646.051 159.352 646.247 159.061C646.442 158.77 646.541 158.429 646.545 158.038C646.541 157.626 646.435 157.262 646.225 156.946C646.016 156.63 645.73 156.382 645.368 156.201C645.009 156.02 644.599 155.929 644.137 155.929C643.672 155.929 643.257 156.02 642.891 156.201C642.529 156.382 642.243 156.63 642.033 156.946C641.827 157.262 641.726 157.626 641.73 158.038C641.726 158.429 641.82 158.77 642.012 159.061C642.207 159.352 642.486 159.578 642.848 159.738C643.21 159.897 643.64 159.977 644.137 159.977ZM644.137 154.8C644.528 154.8 644.874 154.722 645.176 154.565C645.481 154.409 645.721 154.191 645.895 153.91C646.069 153.63 646.158 153.301 646.161 152.925C646.158 152.555 646.071 152.234 645.9 151.961C645.73 151.684 645.494 151.471 645.192 151.321C644.89 151.169 644.539 151.092 644.137 151.092C643.729 151.092 643.372 151.169 643.067 151.321C642.761 151.471 642.525 151.684 642.358 151.961C642.191 152.234 642.11 152.555 642.113 152.925C642.11 153.301 642.193 153.63 642.363 153.91C642.537 154.191 642.777 154.409 643.083 154.565C643.388 154.722 643.74 154.8 644.137 154.8ZM652.166 154.906C651.715 154.906 651.303 154.796 650.93 154.576C650.561 154.356 650.266 154.061 650.046 153.692C649.826 153.319 649.716 152.907 649.716 152.456C649.716 152.005 649.826 151.595 650.046 151.225C650.266 150.853 650.561 150.556 650.93 150.336C651.303 150.116 651.715 150.006 652.166 150.006C652.617 150.006 653.027 150.116 653.396 150.336C653.769 150.556 654.066 150.853 654.286 151.225C654.506 151.595 654.616 152.005 654.616 152.456C654.616 152.907 654.506 153.319 654.286 153.692C654.066 154.061 653.769 154.356 653.396 154.576C653.027 154.796 652.617 154.906 652.166 154.906ZM652.166 153.841C652.422 153.841 652.654 153.779 652.864 153.654C653.073 153.53 653.24 153.363 653.364 153.154C653.489 152.944 653.551 152.712 653.551 152.456C653.551 152.2 653.489 151.968 653.364 151.758C653.24 151.549 653.073 151.382 652.864 151.257C652.654 151.133 652.422 151.071 652.166 151.071C651.91 151.071 651.678 151.133 651.468 151.257C651.259 151.382 651.092 151.549 650.967 151.758C650.843 151.968 650.781 152.2 650.781 152.456C650.781 152.712 650.843 152.944 650.967 153.154C651.092 153.363 651.259 153.53 651.468 153.654C651.678 153.779 651.91 153.841 652.166 153.841Z" fill="white"/>
<path opacity="0.44" d="M399.561 161V160.041L403.162 156.099C403.584 155.638 403.932 155.237 404.206 154.896C404.479 154.551 404.682 154.228 404.813 153.926C404.948 153.621 405.015 153.301 405.015 152.967C405.015 152.584 404.923 152.252 404.738 151.971C404.557 151.691 404.309 151.474 403.993 151.321C403.677 151.169 403.322 151.092 402.927 151.092C402.508 151.092 402.143 151.179 401.83 151.353C401.521 151.524 401.281 151.763 401.111 152.072C400.944 152.381 400.861 152.744 400.861 153.159H399.604C399.604 152.52 399.751 151.959 400.046 151.476C400.34 150.993 400.742 150.616 401.249 150.347C401.761 150.077 402.334 149.942 402.97 149.942C403.609 149.942 404.176 150.077 404.669 150.347C405.163 150.616 405.55 150.98 405.83 151.439C406.111 151.897 406.251 152.406 406.251 152.967C406.251 153.369 406.178 153.761 406.033 154.145C405.891 154.525 405.642 154.949 405.287 155.418C404.936 155.883 404.447 156.451 403.822 157.122L401.372 159.743V159.828H406.443V161H399.561ZM412.137 161.149C411.406 161.149 410.759 161.02 410.198 160.76C409.641 160.498 409.206 160.137 408.893 159.679C408.581 159.217 408.426 158.692 408.43 158.102C408.426 157.641 408.517 157.214 408.702 156.824C408.886 156.43 409.138 156.101 409.458 155.838C409.781 155.572 410.142 155.403 410.539 155.332V155.268C410.017 155.134 409.602 154.841 409.293 154.39C408.984 153.935 408.831 153.418 408.835 152.839C408.831 152.286 408.971 151.79 409.256 151.353C409.54 150.917 409.93 150.572 410.427 150.32C410.928 150.068 411.498 149.942 412.137 149.942C412.769 149.942 413.334 150.068 413.831 150.32C414.328 150.572 414.719 150.917 415.003 151.353C415.291 151.79 415.436 152.286 415.44 152.839C415.436 153.418 415.278 153.935 414.966 154.39C414.657 154.841 414.247 155.134 413.735 155.268V155.332C414.129 155.403 414.485 155.572 414.801 155.838C415.117 156.101 415.369 156.43 415.557 156.824C415.745 157.214 415.841 157.641 415.845 158.102C415.841 158.692 415.681 159.217 415.365 159.679C415.053 160.137 414.618 160.498 414.06 160.76C413.506 161.02 412.865 161.149 412.137 161.149ZM412.137 159.977C412.631 159.977 413.057 159.897 413.416 159.738C413.774 159.578 414.051 159.352 414.247 159.061C414.442 158.77 414.541 158.429 414.545 158.038C414.541 157.626 414.435 157.262 414.225 156.946C414.016 156.63 413.73 156.382 413.368 156.201C413.009 156.02 412.599 155.929 412.137 155.929C411.672 155.929 411.257 156.02 410.891 156.201C410.529 156.382 410.243 156.63 410.033 156.946C409.827 157.262 409.726 157.626 409.73 158.038C409.726 158.429 409.82 158.77 410.012 159.061C410.207 159.352 410.486 159.578 410.848 159.738C411.21 159.897 411.64 159.977 412.137 159.977ZM412.137 154.8C412.528 154.8 412.874 154.722 413.176 154.565C413.481 154.409 413.721 154.191 413.895 153.91C414.069 153.63 414.158 153.301 414.161 152.925C414.158 152.555 414.071 152.234 413.9 151.961C413.73 151.684 413.494 151.471 413.192 151.321C412.89 151.169 412.539 151.092 412.137 151.092C411.729 151.092 411.372 151.169 411.067 151.321C410.761 151.471 410.525 151.684 410.358 151.961C410.191 152.234 410.11 152.555 410.113 152.925C410.11 153.301 410.193 153.63 410.363 153.91C410.537 154.191 410.777 154.409 411.083 154.565C411.388 154.722 411.74 154.8 412.137 154.8ZM420.166 154.906C419.715 154.906 419.303 154.796 418.93 154.576C418.561 154.356 418.266 154.061 418.046 153.692C417.826 153.319 417.716 152.907 417.716 152.456C417.716 152.005 417.826 151.595 418.046 151.225C418.266 150.853 418.561 150.556 418.93 150.336C419.303 150.116 419.715 150.006 420.166 150.006C420.617 150.006 421.027 150.116 421.396 150.336C421.769 150.556 422.066 150.853 422.286 151.225C422.506 151.595 422.616 152.005 422.616 152.456C422.616 152.907 422.506 153.319 422.286 153.692C422.066 154.061 421.769 154.356 421.396 154.576C421.027 154.796 420.617 154.906 420.166 154.906ZM420.166 153.841C420.422 153.841 420.654 153.779 420.864 153.654C421.073 153.53 421.24 153.363 421.364 153.154C421.489 152.944 421.551 152.712 421.551 152.456C421.551 152.2 421.489 151.968 421.364 151.758C421.24 151.549 421.073 151.382 420.864 151.257C420.654 151.133 420.422 151.071 420.166 151.071C419.91 151.071 419.678 151.133 419.468 151.257C419.259 151.382 419.092 151.549 418.967 151.758C418.843 151.968 418.781 152.2 418.781 152.456C418.781 152.712 418.843 152.944 418.967 153.154C419.092 153.363 419.259 153.53 419.468 153.654C419.678 153.779 419.91 153.841 420.166 153.841Z" fill="white"/>
<path opacity="0.44" d="M663.561 302V301.041L667.162 297.099C667.584 296.638 667.932 296.237 668.206 295.896C668.479 295.551 668.682 295.228 668.813 294.926C668.948 294.621 669.015 294.301 669.015 293.967C669.015 293.584 668.923 293.252 668.738 292.971C668.557 292.691 668.309 292.474 667.993 292.321C667.677 292.169 667.322 292.092 666.927 292.092C666.508 292.092 666.143 292.179 665.83 292.353C665.521 292.524 665.281 292.763 665.111 293.072C664.944 293.381 664.861 293.744 664.861 294.159H663.604C663.604 293.52 663.751 292.959 664.046 292.476C664.34 291.993 664.742 291.616 665.249 291.347C665.761 291.077 666.334 290.942 666.97 290.942C667.609 290.942 668.176 291.077 668.669 291.347C669.163 291.616 669.55 291.98 669.83 292.439C670.111 292.897 670.251 293.406 670.251 293.967C670.251 294.369 670.178 294.761 670.033 295.145C669.891 295.525 669.642 295.949 669.287 296.418C668.936 296.883 668.447 297.451 667.822 298.122L665.372 300.743V300.828H670.443V302H663.561ZM676.137 302.149C675.406 302.149 674.759 302.02 674.198 301.76C673.641 301.498 673.206 301.137 672.893 300.679C672.581 300.217 672.426 299.692 672.43 299.102C672.426 298.641 672.517 298.214 672.702 297.824C672.886 297.43 673.138 297.101 673.458 296.838C673.781 296.572 674.142 296.403 674.539 296.332V296.268C674.017 296.134 673.602 295.841 673.293 295.39C672.984 294.935 672.831 294.418 672.835 293.839C672.831 293.286 672.971 292.79 673.256 292.353C673.54 291.917 673.93 291.572 674.427 291.32C674.928 291.068 675.498 290.942 676.137 290.942C676.769 290.942 677.334 291.068 677.831 291.32C678.328 291.572 678.719 291.917 679.003 292.353C679.291 292.79 679.436 293.286 679.44 293.839C679.436 294.418 679.278 294.935 678.966 295.39C678.657 295.841 678.247 296.134 677.735 296.268V296.332C678.129 296.403 678.485 296.572 678.801 296.838C679.117 297.101 679.369 297.43 679.557 297.824C679.745 298.214 679.841 298.641 679.845 299.102C679.841 299.692 679.681 300.217 679.365 300.679C679.053 301.137 678.618 301.498 678.06 301.76C677.506 302.02 676.865 302.149 676.137 302.149ZM676.137 300.977C676.631 300.977 677.057 300.897 677.416 300.738C677.774 300.578 678.051 300.352 678.247 300.061C678.442 299.77 678.541 299.429 678.545 299.038C678.541 298.626 678.435 298.262 678.225 297.946C678.016 297.63 677.73 297.382 677.368 297.201C677.009 297.02 676.599 296.929 676.137 296.929C675.672 296.929 675.257 297.02 674.891 297.201C674.529 297.382 674.243 297.63 674.033 297.946C673.827 298.262 673.726 298.626 673.73 299.038C673.726 299.429 673.82 299.77 674.012 300.061C674.207 300.352 674.486 300.578 674.848 300.738C675.21 300.897 675.64 300.977 676.137 300.977ZM676.137 295.8C676.528 295.8 676.874 295.722 677.176 295.565C677.481 295.409 677.721 295.191 677.895 294.91C678.069 294.63 678.158 294.301 678.161 293.925C678.158 293.555 678.071 293.234 677.9 292.961C677.73 292.684 677.494 292.471 677.192 292.321C676.89 292.169 676.539 292.092 676.137 292.092C675.729 292.092 675.372 292.169 675.067 292.321C674.761 292.471 674.525 292.684 674.358 292.961C674.191 293.234 674.11 293.555 674.113 293.925C674.11 294.301 674.193 294.63 674.363 294.91C674.537 295.191 674.777 295.409 675.083 295.565C675.388 295.722 675.74 295.8 676.137 295.8ZM684.166 295.906C683.715 295.906 683.303 295.796 682.93 295.576C682.561 295.356 682.266 295.061 682.046 294.692C681.826 294.319 681.716 293.907 681.716 293.456C681.716 293.005 681.826 292.595 682.046 292.225C682.266 291.853 682.561 291.556 682.93 291.336C683.303 291.116 683.715 291.006 684.166 291.006C684.617 291.006 685.027 291.116 685.396 291.336C685.769 291.556 686.066 291.853 686.286 292.225C686.506 292.595 686.616 293.005 686.616 293.456C686.616 293.907 686.506 294.319 686.286 294.692C686.066 295.061 685.769 295.356 685.396 295.576C685.027 295.796 684.617 295.906 684.166 295.906ZM684.166 294.841C684.422 294.841 684.654 294.779 684.864 294.654C685.073 294.53 685.24 294.363 685.364 294.154C685.489 293.944 685.551 293.712 685.551 293.456C685.551 293.2 685.489 292.968 685.364 292.758C685.24 292.549 685.073 292.382 684.864 292.257C684.654 292.133 684.422 292.071 684.166 292.071C683.91 292.071 683.678 292.133 683.468 292.257C683.259 292.382 683.092 292.549 682.967 292.758C682.843 292.968 682.781 293.2 682.781 293.456C682.781 293.712 682.843 293.944 682.967 294.154C683.092 294.363 683.259 294.53 683.468 294.654C683.678 294.779 683.91 294.841 684.166 294.841Z" fill="white"/>
<path opacity="0.44" d="M431.561 302V301.041L435.162 297.099C435.584 296.638 435.932 296.237 436.206 295.896C436.479 295.551 436.682 295.228 436.813 294.926C436.948 294.621 437.015 294.301 437.015 293.967C437.015 293.584 436.923 293.252 436.738 292.971C436.557 292.691 436.309 292.474 435.993 292.321C435.677 292.169 435.322 292.092 434.927 292.092C434.508 292.092 434.143 292.179 433.83 292.353C433.521 292.524 433.281 292.763 433.111 293.072C432.944 293.381 432.861 293.744 432.861 294.159H431.604C431.604 293.52 431.751 292.959 432.046 292.476C432.34 291.993 432.742 291.616 433.249 291.347C433.761 291.077 434.334 290.942 434.97 290.942C435.609 290.942 436.176 291.077 436.669 291.347C437.163 291.616 437.55 291.98 437.83 292.439C438.111 292.897 438.251 293.406 438.251 293.967C438.251 294.369 438.178 294.761 438.033 295.145C437.891 295.525 437.642 295.949 437.287 296.418C436.936 296.883 436.447 297.451 435.822 298.122L433.372 300.743V300.828H438.443V302H431.561ZM444.137 302.149C443.406 302.149 442.759 302.02 442.198 301.76C441.641 301.498 441.206 301.137 440.893 300.679C440.581 300.217 440.426 299.692 440.43 299.102C440.426 298.641 440.517 298.214 440.702 297.824C440.886 297.43 441.138 297.101 441.458 296.838C441.781 296.572 442.142 296.403 442.539 296.332V296.268C442.017 296.134 441.602 295.841 441.293 295.39C440.984 294.935 440.831 294.418 440.835 293.839C440.831 293.286 440.971 292.79 441.256 292.353C441.54 291.917 441.93 291.572 442.427 291.32C442.928 291.068 443.498 290.942 444.137 290.942C444.769 290.942 445.334 291.068 445.831 291.32C446.328 291.572 446.719 291.917 447.003 292.353C447.291 292.79 447.436 293.286 447.44 293.839C447.436 294.418 447.278 294.935 446.966 295.39C446.657 295.841 446.247 296.134 445.735 296.268V296.332C446.129 296.403 446.485 296.572 446.801 296.838C447.117 297.101 447.369 297.43 447.557 297.824C447.745 298.214 447.841 298.641 447.845 299.102C447.841 299.692 447.681 300.217 447.365 300.679C447.053 301.137 446.618 301.498 446.06 301.76C445.506 302.02 444.865 302.149 444.137 302.149ZM444.137 300.977C444.631 300.977 445.057 300.897 445.416 300.738C445.774 300.578 446.051 300.352 446.247 300.061C446.442 299.77 446.541 299.429 446.545 299.038C446.541 298.626 446.435 298.262 446.225 297.946C446.016 297.63 445.73 297.382 445.368 297.201C445.009 297.02 444.599 296.929 444.137 296.929C443.672 296.929 443.257 297.02 442.891 297.201C442.529 297.382 442.243 297.63 442.033 297.946C441.827 298.262 441.726 298.626 441.73 299.038C441.726 299.429 441.82 299.77 442.012 300.061C442.207 300.352 442.486 300.578 442.848 300.738C443.21 300.897 443.64 300.977 444.137 300.977ZM444.137 295.8C444.528 295.8 444.874 295.722 445.176 295.565C445.481 295.409 445.721 295.191 445.895 294.91C446.069 294.63 446.158 294.301 446.161 293.925C446.158 293.555 446.071 293.234 445.9 292.961C445.73 292.684 445.494 292.471 445.192 292.321C444.89 292.169 444.539 292.092 444.137 292.092C443.729 292.092 443.372 292.169 443.067 292.321C442.761 292.471 442.525 292.684 442.358 292.961C442.191 293.234 442.11 293.555 442.113 293.925C442.11 294.301 442.193 294.63 442.363 294.91C442.537 295.191 442.777 295.409 443.083 295.565C443.388 295.722 443.74 295.8 444.137 295.8ZM452.166 295.906C451.715 295.906 451.303 295.796 450.93 295.576C450.561 295.356 450.266 295.061 450.046 294.692C449.826 294.319 449.716 293.907 449.716 293.456C449.716 293.005 449.826 292.595 450.046 292.225C450.266 291.853 450.561 291.556 450.93 291.336C451.303 291.116 451.715 291.006 452.166 291.006C452.617 291.006 453.027 291.116 453.396 291.336C453.769 291.556 454.066 291.853 454.286 292.225C454.506 292.595 454.616 293.005 454.616 293.456C454.616 293.907 454.506 294.319 454.286 294.692C454.066 295.061 453.769 295.356 453.396 295.576C453.027 295.796 452.617 295.906 452.166 295.906ZM452.166 294.841C452.422 294.841 452.654 294.779 452.864 294.654C453.073 294.53 453.24 294.363 453.364 294.154C453.489 293.944 453.551 293.712 453.551 293.456C453.551 293.2 453.489 292.968 453.364 292.758C453.24 292.549 453.073 292.382 452.864 292.257C452.654 292.133 452.422 292.071 452.166 292.071C451.91 292.071 451.678 292.133 451.468 292.257C451.259 292.382 451.092 292.549 450.967 292.758C450.843 292.968 450.781 293.2 450.781 293.456C450.781 293.712 450.843 293.944 450.967 294.154C451.092 294.363 451.259 294.53 451.468 294.654C451.678 294.779 451.91 294.841 452.166 294.841Z" fill="white"/>
<path opacity="0.12" d="M126.326 214.674C139.899 228.247 147.667 246.564 147.99 265.756C148.312 284.949 141.164 303.516 128.055 317.538L120.932 310.878C132.313 298.704 138.519 282.583 138.239 265.92C137.959 249.257 131.215 233.354 119.43 221.57L126.326 214.674Z" fill="white"/>
<defs>
<linearGradient id="paint0_linear_37065_56835" x1="1378.43" y1="138" x2="843" y2="138" gradientUnits="userSpaceOnUse">
<stop stop-color="white" stop-opacity="0"/>
<stop offset="0.491227" stop-color="white"/>
<stop offset="1" stop-color="white" stop-opacity="0"/>
</linearGradient>
<linearGradient id="paint1_linear_37065_56835" x1="995.939" y1="234" x2="1" y2="234" gradientUnits="userSpaceOnUse">
<stop stop-color="white" stop-opacity="0"/>
<stop offset="0.130208" stop-color="white"/>
<stop offset="0.6875" stop-color="white"/>
<stop offset="1" stop-color="white" stop-opacity="0"/>
</linearGradient>
<linearGradient id="paint2_linear_37065_56835" x1="995.939" y1="299" x2="1" y2="299" gradientUnits="userSpaceOnUse">
<stop stop-color="white" stop-opacity="0"/>
<stop offset="0.130208" stop-color="white"/>
<stop offset="0.6875" stop-color="white"/>
<stop offset="1" stop-color="white" stop-opacity="0"/>
</linearGradient>
<linearGradient id="paint3_linear_37065_56835" x1="1377.53" y1="266" x2="1" y2="266" gradientUnits="userSpaceOnUse">
<stop stop-color="white" stop-opacity="0"/>
<stop offset="0.249886" stop-color="white"/>
</linearGradient>
<linearGradient id="paint4_linear_37065_56835" x1="1.00001" y1="198.5" x2="1379" y2="198.52" gradientUnits="userSpaceOnUse">
<stop stop-color="white"/>
<stop offset="0.71875" stop-color="white"/>
<stop offset="1" stop-color="white" stop-opacity="0"/>
</linearGradient>
<linearGradient id="paint5_linear_37065_56835" x1="1.00001" y1="335.5" x2="1379" y2="335.52" gradientUnits="userSpaceOnUse">
<stop stop-color="white"/>
<stop offset="0.71875" stop-color="white"/>
<stop offset="1" stop-color="white" stop-opacity="0"/>
</linearGradient>
<linearGradient id="paint6_linear_37065_56835" x1="1221" y1="532.432" x2="1221" y2="0" gradientUnits="userSpaceOnUse">
<stop stop-color="white" stop-opacity="0"/>
<stop offset="0.491227" stop-color="white"/>
<stop offset="1" stop-color="white" stop-opacity="0"/>
</linearGradient>
<linearGradient id="paint7_linear_37065_56835" x1="997" y1="532.432" x2="997" y2="0" gradientUnits="userSpaceOnUse">
<stop stop-color="white" stop-opacity="0"/>
<stop offset="0.491227" stop-color="white"/>
<stop offset="1" stop-color="white" stop-opacity="0"/>
</linearGradient>
<linearGradient id="paint8_linear_37065_56835" x1="920" y1="460.585" x2="920" y2="71" gradientUnits="userSpaceOnUse">
<stop stop-color="white" stop-opacity="0"/>
<stop offset="0.491227" stop-color="white"/>
<stop offset="1" stop-color="white" stop-opacity="0"/>
</linearGradient>
<linearGradient id="paint9_linear_37065_56835" x1="1011.11" y1="460.198" x2="854" y2="71.1733" gradientUnits="userSpaceOnUse">
<stop stop-color="white" stop-opacity="0"/>
<stop offset="0.491227" stop-color="white"/>
<stop offset="1" stop-color="white" stop-opacity="0"/>
</linearGradient>
<linearGradient id="paint10_linear_37065_56835" x1="221.112" y1="460.198" x2="64" y2="71.1733" gradientUnits="userSpaceOnUse">
<stop stop-color="white" stop-opacity="0"/>
<stop offset="0.491227" stop-color="white"/>
<stop offset="1" stop-color="white" stop-opacity="0"/>
</linearGradient>
<linearGradient id="paint11_linear_37065_56835" x1="750.112" y1="460.198" x2="593" y2="71.1733" gradientUnits="userSpaceOnUse">
<stop stop-color="white" stop-opacity="0"/>
<stop offset="0.491227" stop-color="white"/>
<stop offset="1" stop-color="white" stop-opacity="0"/>
</linearGradient>
<linearGradient id="paint12_linear_37065_56835" x1="518.112" y1="460.198" x2="361" y2="71.1733" gradientUnits="userSpaceOnUse">
<stop stop-color="white" stop-opacity="0"/>
<stop offset="0.491227" stop-color="white"/>
<stop offset="1" stop-color="white" stop-opacity="0"/>
</linearGradient>
<linearGradient id="paint13_linear_37065_56835" x1="130" y1="460.585" x2="130" y2="71" gradientUnits="userSpaceOnUse">
<stop stop-color="white" stop-opacity="0"/>
<stop offset="0.491227" stop-color="white"/>
<stop offset="1" stop-color="white" stop-opacity="0"/>
</linearGradient>
<linearGradient id="paint14_linear_37065_56835" x1="336" y1="460.585" x2="336" y2="71" gradientUnits="userSpaceOnUse">
<stop stop-color="white" stop-opacity="0"/>
<stop offset="0.491227" stop-color="white"/>
<stop offset="1" stop-color="white" stop-opacity="0"/>
</linearGradient>
<linearGradient id="paint15_linear_37065_56835" x1="510" y1="460.585" x2="510" y2="71" gradientUnits="userSpaceOnUse">
<stop stop-color="white" stop-opacity="0"/>
<stop offset="0.491227" stop-color="white"/>
<stop offset="1" stop-color="white" stop-opacity="0"/>
</linearGradient>
<linearGradient id="paint16_linear_37065_56835" x1="743" y1="460.585" x2="743" y2="71" gradientUnits="userSpaceOnUse">
<stop stop-color="white" stop-opacity="0"/>
<stop offset="0.491227" stop-color="white"/>
<stop offset="1" stop-color="white" stop-opacity="0"/>
</linearGradient>
<linearGradient id="paint17_linear_37065_56835" x1="568" y1="460.585" x2="568" y2="71" gradientUnits="userSpaceOnUse">
<stop stop-color="white" stop-opacity="0"/>
<stop offset="0.491227" stop-color="white"/>
<stop offset="1" stop-color="white" stop-opacity="0"/>
</linearGradient>
<linearGradient id="paint18_linear_37065_56835" x1="1378.43" y1="396" x2="843" y2="396" gradientUnits="userSpaceOnUse">
<stop stop-color="white" stop-opacity="0"/>
<stop offset="0.491227" stop-color="white"/>
<stop offset="1" stop-color="white" stop-opacity="0"/>
</linearGradient>
<radialGradient id="paint19_angular_37065_56835" cx="0" cy="0" r="1" gradientUnits="userSpaceOnUse" gradientTransform="translate(1136.5 258) rotate(-67.5206) scale(78.4618)">
<stop stop-color="white"/>
<stop offset="1" stop-color="white" stop-opacity="0"/>
<stop offset="1" stop-color="white"/>
</radialGradient>
<radialGradient id="paint20_angular_37065_56835" cx="0" cy="0" r="1" gradientUnits="userSpaceOnUse" gradientTransform="translate(1120 248) rotate(142.643) scale(82.403)">
<stop stop-color="white" stop-opacity="0"/>
<stop offset="1" stop-color="white"/>
</radialGradient>
<radialGradient id="paint21_angular_37065_56835" cx="0" cy="0" r="1" gradientUnits="userSpaceOnUse" gradientTransform="translate(1073 301) rotate(56.2149) scale(83.6212)">
<stop stop-color="white" stop-opacity="0.29"/>
<stop offset="1" stop-color="white"/>
</radialGradient>
<radialGradient id="paint22_angular_37065_56835" cx="0" cy="0" r="1" gradientUnits="userSpaceOnUse" gradientTransform="translate(1095.75 255.25) rotate(48.287) scale(104.824)">
<stop stop-color="white" stop-opacity="0.33"/>
<stop offset="1" stop-color="white"/>
</radialGradient>
<linearGradient id="paint23_linear_37065_56835" x1="656" y1="460.585" x2="656" y2="71" gradientUnits="userSpaceOnUse">
<stop stop-color="white" stop-opacity="0"/>
<stop offset="0.491227" stop-color="white"/>
<stop offset="1" stop-color="white" stop-opacity="0"/>
</linearGradient>
<linearGradient id="paint24_linear_37065_56835" x1="424" y1="460.585" x2="424" y2="71" gradientUnits="userSpaceOnUse">
<stop stop-color="white" stop-opacity="0"/>
<stop offset="0.491227" stop-color="white"/>
<stop offset="1" stop-color="white" stop-opacity="0"/>
</linearGradient>
<linearGradient id="paint25_linear_37065_56835" x1="424.534" y1="281.668" x2="450.491" y2="268.804" gradientUnits="userSpaceOnUse">
<stop stop-color="#F9FCFF" stop-opacity="0"/>
<stop offset="0.09375" stop-color="white" stop-opacity="0.77989"/>
<stop offset="0.695376" stop-color="white"/>
<stop offset="0.71875" stop-color="white" stop-opacity="0"/>
</linearGradient>
<linearGradient id="paint26_linear_37065_56835" x1="656.366" y1="281.668" x2="682.323" y2="268.804" gradientUnits="userSpaceOnUse">
<stop stop-color="#F9FCFF" stop-opacity="0"/>
<stop offset="0.09375" stop-color="white" stop-opacity="0.77989"/>
<stop offset="0.695376" stop-color="white"/>
<stop offset="0.71875" stop-color="white" stop-opacity="0"/>
</linearGradient>
<linearGradient id="paint27_linear_37065_56835" x1="423.385" y1="169.785" x2="397.516" y2="182.824" gradientUnits="userSpaceOnUse">
<stop stop-color="#F9FCFF" stop-opacity="0"/>
<stop offset="0.09375" stop-color="white" stop-opacity="0.77989"/>
<stop offset="0.695376" stop-color="white"/>
<stop offset="0.71875" stop-color="white" stop-opacity="0"/>
</linearGradient>
<linearGradient id="paint28_linear_37065_56835" x1="655.385" y1="169.785" x2="629.516" y2="182.824" gradientUnits="userSpaceOnUse">
<stop stop-color="#F9FCFF" stop-opacity="0"/>
<stop offset="0.09375" stop-color="white" stop-opacity="0.77989"/>
<stop offset="0.695376" stop-color="white"/>
<stop offset="0.71875" stop-color="white" stop-opacity="0"/>
</linearGradient>
<linearGradient id="paint29_linear_37065_56835" x1="922.975" y1="175.746" x2="892.62" y2="178.715" gradientUnits="userSpaceOnUse">
<stop offset="0.0789485" stop-color="white" stop-opacity="0"/>
<stop offset="0.100729" stop-color="white" stop-opacity="0.77989"/>
<stop offset="0.83036" stop-color="white"/>
<stop offset="0.847473" stop-color="white" stop-opacity="0"/>
</linearGradient>
<linearGradient id="paint30_linear_37065_56835" x1="132.975" y1="175.746" x2="102.62" y2="178.715" gradientUnits="userSpaceOnUse">
<stop offset="0.0789485" stop-color="white" stop-opacity="0"/>
<stop offset="0.100729" stop-color="white" stop-opacity="0.77989"/>
<stop offset="0.83036" stop-color="white"/>
<stop offset="0.847473" stop-color="white" stop-opacity="0"/>
</linearGradient>
<linearGradient id="paint31_linear_37065_56835" x1="126.801" y1="292.754" x2="157.156" y2="289.785" gradientUnits="userSpaceOnUse">
<stop offset="0.0789485" stop-color="white" stop-opacity="0"/>
<stop offset="0.100729" stop-color="white" stop-opacity="0.77989"/>
<stop offset="0.83036" stop-color="white"/>
<stop offset="0.847473" stop-color="white" stop-opacity="0"/>
</linearGradient>
<linearGradient id="paint32_linear_37065_56835" x1="916.501" y1="292.754" x2="946.856" y2="289.785" gradientUnits="userSpaceOnUse">
<stop offset="0.0789485" stop-color="white" stop-opacity="0"/>
<stop offset="0.100729" stop-color="white" stop-opacity="0.77989"/>
<stop offset="0.83036" stop-color="white"/>
<stop offset="0.847473" stop-color="white" stop-opacity="0"/>
</linearGradient>
</defs>
</svg>
