<svg width="602" height="33" viewBox="0 0 602 33" fill="none" xmlns="http://www.w3.org/2000/svg">
<path d="M2.79211 3.41999H0.0634766V23.0594H2.45524C7.07034 23.0594 11.6854 22.7226 16.8395 21.6783L16.5027 19.3876C11.6181 20.3645 7.13772 20.735 2.79211 20.735V3.41999ZM26.9456 12.5491H22.0947V0.489232H19.3324V30.7063H22.0947V14.8398H26.9456V12.5491Z" fill="white"/>
<path d="M39.6429 2.71256C34.9604 2.71256 31.5581 5.57595 31.5581 9.82049C31.5581 14.0313 34.9604 16.9284 39.6429 16.9284C44.3591 16.9284 47.7277 14.0313 47.7277 9.82049C47.7277 5.57595 44.3591 2.71256 39.6429 2.71256ZM39.6429 5.07064C42.7758 5.07064 45.0328 6.99079 45.0328 9.82049C45.0328 12.6165 42.7758 14.5703 39.6429 14.5703C36.5437 14.5703 34.253 12.6165 34.253 9.82049C34.253 6.99079 36.5437 5.07064 39.6429 5.07064ZM51.7028 0.489232V30.7737H54.4651V0.489232H51.7028ZM30.379 24.1374C35.8363 24.1374 43.1463 24.07 49.9511 22.8236L49.7153 20.7687C43.1126 21.7793 35.5331 21.813 30.0421 21.813L30.379 24.1374Z" fill="white"/>
<path d="M79.3587 5.87913H86.0623V3.58842H69.7242V5.87913H76.63V9.71943C76.63 14.8398 72.9918 20.5666 68.6799 22.7226L70.2969 24.9122C73.6993 23.1605 76.63 19.3202 78.0112 14.9072C79.3923 18.9496 82.222 22.4868 85.5907 24.1711L87.174 21.9478C82.7947 19.8929 79.3587 14.5367 79.3587 9.71943V5.87913ZM97.4148 12.6839H92.4292V0.522918H89.6668V30.7063H92.4292V15.0083H97.4148V12.6839Z" fill="white"/>
<path d="M117.793 15.682C113.346 14.0987 110.348 10.2584 110.348 6.11494V2.30832H107.586V6.04756C107.586 10.73 104.655 14.7725 100.04 16.4231L101.488 18.6128C105.093 17.2653 107.788 14.503 109.034 10.9322C110.382 14.0987 113.009 16.6252 116.412 17.8717L117.793 15.682ZM107.653 20.6677H104.891V30.0326H124.934V27.7756H107.653V20.6677ZM123.621 9.75312V0.455543H120.858V22.7899H123.621V12.0438H128.067V9.75312H123.621Z" fill="white"/>
<path d="M144.807 3.08312C149.759 3.08312 152.589 4.22847 152.589 6.24968C152.589 8.2709 149.759 9.41625 144.807 9.41625C139.855 9.41625 137.025 8.2709 137.025 6.24968C137.025 4.22847 139.855 3.08312 144.807 3.08312ZM144.807 11.4711C151.443 11.4711 155.418 9.65206 155.418 6.24968C155.418 2.84731 151.443 0.994534 144.807 0.994534C138.171 0.994534 134.196 2.84731 134.196 6.24968C134.196 9.65206 138.171 11.4711 144.807 11.4711ZM137.227 25.148H154.98V18.3433H134.431V20.4319H152.252V23.1268H134.532V30.3695H155.89V28.2135H137.227V25.148ZM131.13 13.526V15.7494H158.484V13.526H131.13Z" fill="white"/>
<path d="M194.696 7.69822H176.909V0.92716H174.181V9.92155H194.696V7.69822ZM176.707 24.9459H194.427V17.838H173.878V19.9939H191.664V22.891H173.945V30.3021H195.437V28.1461H176.707V24.9459ZM170.475 12.886V15.143H197.896V12.886H170.475Z" fill="white"/>
<path d="M205.339 14.0313H215.748V3.21787H202.543V5.4412H213.019V11.7743H202.61V23.6995H204.901C209.617 23.6995 213.491 23.531 218.241 22.7899L218.005 20.4992C213.491 21.2067 209.785 21.4088 205.339 21.4088V14.0313ZM223.597 0.455543V7.36135H217.634V9.61837H223.597V15.6483H217.432V17.9053H223.597V30.74H226.359V0.455543H223.597Z" fill="white"/>
<path d="M238.45 10.2921H253.879V15.8504H238.45V10.2921ZM247.546 24.5753V18.0738H256.574V2.64519H253.879V8.03509H238.45V2.64519H235.721V18.0738H244.75V24.5753H232.488V26.8324H259.875V24.5753H247.546Z" fill="white"/>
<path d="M273.65 5.87913H280.354V3.58842H264.016V5.87913H270.922V9.71943C270.922 14.8398 267.283 20.5666 262.971 22.7226L264.588 24.9122C267.991 23.1605 270.922 19.3202 272.303 14.9072C273.684 18.9496 276.514 22.4868 279.882 24.1711L281.466 21.9478C277.086 19.8929 273.65 14.5367 273.65 9.71943V5.87913ZM291.706 12.6839H286.721V0.522918H283.958V30.7063H286.721V15.0083H291.706V12.6839Z" fill="white"/>
<path d="M306.73 5.74438H315.185V20.8024H306.73V5.74438ZM304.035 23.0257H317.88V3.52105H304.035V23.0257ZM331.052 12.5491H326.066V0.522918H323.304V30.7063H326.066V14.8735H331.052V12.5491Z" fill="white"/>
<path d="M352.474 15.143C347.993 13.8292 344.759 10.4269 344.759 6.62024V6.24968H351.598V4.02635H344.793V0.287109H342.031V4.02635H335.159V6.24968H342.031V6.62024C342.031 10.6627 338.864 14.3345 334.384 15.7831L335.698 17.9053C339.336 16.76 342.132 14.2335 343.446 10.9658C344.861 13.9303 347.657 16.221 351.194 17.299L352.474 15.143ZM341.761 22.1499H355.91V28.0788H341.761V22.1499ZM339.066 30.3021H358.605V19.9602H339.066V30.3021ZM355.842 0.489232V18.4106H358.605V0.489232H355.842Z" fill="white"/>
<path d="M375.142 17.6022H381.711V24.7775H375.142V17.6022ZM374.671 5.50857H382.183V15.3788H374.671V5.50857ZM384.474 24.7775V17.6022H389.594V15.3788H384.945V5.50857H389.628V3.28524H367.226V5.50857H371.908V15.3788H367.293V17.6022H372.38V24.7775H364.767V27.0345H392.188V24.7775H384.474Z" fill="white"/>
<path d="M397.407 3.72317V6.01388H408.49C407.85 13.1555 403.706 18.9496 395.992 22.8236L397.508 24.9796C407.277 20.095 411.218 12.3133 411.218 3.72317H397.407ZM423.885 12.7512H419.034V0.489232H416.271V30.7063H419.034V15.042H423.885V12.7512Z" fill="white"/>
<path d="M443.186 21.4425C440.255 21.4425 438.201 18.2759 438.201 13.3576C438.201 8.47302 440.255 5.30645 443.186 5.30645C446.083 5.30645 448.138 8.47302 448.138 13.3576C448.138 18.2759 446.083 21.4425 443.186 21.4425ZM443.186 2.81363C438.74 2.81363 435.573 6.92342 435.573 13.3576C435.573 19.7918 438.74 23.9016 443.186 23.9016C447.633 23.9016 450.766 19.7918 450.766 13.3576C450.766 6.92342 447.633 2.81363 443.186 2.81363ZM463.365 12.5491H458.379V0.522918H455.617V30.7063H458.379V14.8735H463.365V12.5491Z" fill="white"/>
<path d="M490.918 0.522918H488.155V22.4531H490.918V0.522918ZM484.888 13.0544C480.273 13.9977 475.961 14.3682 470.773 14.3682V2.74625H467.977V16.6926H470.436C475.927 16.6926 480.306 16.3221 485.258 15.3451L484.888 13.0544ZM473.94 27.7756V20.2634H471.177V30.0326H491.827V27.7756H473.94Z" fill="white"/>
<path d="M524.334 9.58468C520.022 8.57408 517.058 5.9465 517.058 2.81363V1.26403H514.194V2.81363C514.194 6.08125 511.264 8.91095 506.884 9.98893L508.131 12.1112C511.668 11.2017 514.397 9.11307 515.643 6.35074C516.957 8.91095 519.652 10.7974 523.121 11.6733L524.334 9.58468ZM527.366 28.0788H512.948V22.5878H527.366V28.0788ZM516.99 16.0862C519.786 15.9515 522.717 15.6483 525.479 15.2104L525.311 13.1892C518.708 14.065 511.196 14.065 505.537 14.065L505.874 16.3557C508.367 16.3557 511.23 16.3557 514.228 16.221V20.3982H510.253V30.3021H530.061V20.3982H516.99V16.0862ZM527.299 0.522918V18.7475H530.061V0.522918H527.299Z" fill="white"/>
<path d="M546.801 17.6022H553.37V24.7775H546.801V17.6022ZM546.329 5.50857H553.841V15.3788H546.329V5.50857ZM556.132 24.7775V17.6022H561.252V15.3788H556.603V5.50857H561.286V3.28524H538.884V5.50857H543.567V15.3788H538.952V17.6022H544.038V24.7775H536.425V27.0345H563.846V24.7775H556.132Z" fill="white"/>
<path d="M582.506 24.7101V19.017H592.174V16.7937H573.579V11.9091H591.467V2.71256H570.783V4.96958H588.772V9.68574H570.85V19.017H579.71V24.7101H567.414V26.9671H594.869V24.7101H582.506Z" fill="white"/>
<path d="M601.735 24.5948V27.0457C601.735 28.0435 601.482 29.0963 600.978 30.2038C600.473 31.3223 599.766 32.2544 598.856 33.0001L597.129 31.7993C597.48 31.3168 597.776 30.8234 598.017 30.3189C598.258 29.8255 598.439 29.3101 598.56 28.7728C598.692 28.2464 598.757 27.6872 598.757 27.095V24.5948H601.735Z" fill="white"/>
</svg>
