<svg width="650" height="860" viewBox="0 0 650 860" fill="none" xmlns="http://www.w3.org/2000/svg">
<path d="M272.511 514.1V544.914C283.528 550.517 298.552 553.519 311.373 554.719C361.052 558.721 427.959 519.903 425.956 441.865C423.152 402.046 406.725 383.638 387.094 362.027C368.063 342.218 351.637 335.615 331.004 334.414C285.932 331.813 250.275 370.431 250.876 409.85C251.878 461.074 291.14 485.686 324.394 487.487V457.073C320.988 457.473 317.382 457.873 313.777 457.873C269.706 457.873 235.451 419.855 237.054 378.235C238.857 335.415 275.716 305 314.177 305C324.794 305 371.87 309.802 387.294 361.427C440.179 417.654 391.501 541.513 283.328 517.501C280.524 516.901 275.716 515.3 272.511 514.1Z" stroke="white" stroke-width="8" stroke-miterlimit="10"/>
<path opacity="0.5" d="M272.511 256.1V286.914C283.528 292.517 298.552 295.519 311.373 296.719C361.052 300.721 427.959 261.903 425.956 183.865C423.152 144.046 406.725 125.638 387.094 104.027C368.063 84.2178 351.637 77.6146 331.004 76.414C285.932 73.8128 250.275 112.431 250.876 151.85C251.878 203.074 291.14 227.686 324.394 229.487V199.073C320.988 199.473 317.382 199.873 313.777 199.873C269.706 199.873 235.451 161.855 237.054 120.235C238.857 77.4145 275.716 47 314.177 47C324.794 47 371.87 51.8023 387.294 103.427C440.179 159.654 391.501 283.513 283.328 259.501C280.524 258.901 275.716 257.3 272.511 256.1Z" stroke="url(#paint0_linear_757_716)" stroke-width="8" stroke-miterlimit="10"/>
<path opacity="0.5" d="M272.511 773.1V803.914C283.528 809.517 298.552 812.519 311.373 813.719C361.052 817.721 427.959 778.903 425.956 700.865C423.152 661.046 406.725 642.638 387.094 621.027C368.063 601.218 351.637 594.615 331.004 593.414C285.932 590.813 250.275 629.431 250.876 668.85C251.878 720.074 291.14 744.686 324.394 746.487V716.073C320.988 716.473 317.382 716.873 313.777 716.873C269.706 716.873 235.451 678.855 237.054 637.235C238.857 594.415 275.716 564 314.177 564C324.794 564 371.87 568.802 387.294 620.427C440.179 676.654 391.501 800.513 283.328 776.501C280.524 775.901 275.716 774.3 272.511 773.1Z" stroke="url(#paint1_linear_757_716)" stroke-width="8" stroke-miterlimit="10"/>
<path opacity="0.5" d="M51.5107 514.1V544.914C62.5283 550.517 77.5523 553.519 90.3728 554.719C140.052 558.721 206.959 519.903 204.956 441.865C202.152 402.046 185.725 383.638 166.094 362.027C147.063 342.218 130.637 335.615 110.004 334.414C64.9322 331.813 29.2751 370.431 29.8761 409.85C30.8777 461.074 70.1405 485.686 103.394 487.487V457.073C99.9882 457.473 96.3824 457.873 92.7767 457.873C48.7062 457.873 14.4514 419.855 16.054 378.235C17.8569 335.415 54.7158 305 93.1773 305C103.794 305 150.87 309.802 166.294 361.427C219.179 417.654 170.501 541.513 62.328 517.501C59.5235 516.901 54.7158 515.3 51.5107 514.1Z" stroke="url(#paint2_linear_757_716)" stroke-width="8" stroke-miterlimit="10"/>
<path opacity="0.5" d="M492.511 514.1V544.914C503.528 550.517 518.552 553.519 531.373 554.719C581.052 558.721 647.959 519.903 645.956 441.865C643.152 402.046 626.725 383.638 607.094 362.027C588.063 342.218 571.637 335.615 551.004 334.414C505.932 331.813 470.275 370.431 470.876 409.85C471.878 461.074 511.14 485.686 544.394 487.487V457.073C540.988 457.473 537.382 457.873 533.777 457.873C489.706 457.873 455.451 419.855 457.054 378.235C458.857 335.415 495.716 305 534.177 305C544.794 305 591.87 309.802 607.294 361.427C660.179 417.654 611.501 541.513 503.328 517.501C500.524 516.901 495.716 515.3 492.511 514.1Z" stroke="url(#paint3_linear_757_716)" stroke-width="8" stroke-miterlimit="10"/>
<path d="M1 301H641" stroke="url(#paint4_linear_757_716)" stroke-linecap="round" stroke-dasharray="1 3"/>
<path d="M1 170H641" stroke="url(#paint5_linear_757_716)"/>
<path d="M112 180H531" stroke="white" stroke-opacity="0.05"/>
<path d="M112 190H531" stroke="white" stroke-opacity="0.05"/>
<path d="M112 200H531" stroke="white" stroke-opacity="0.05"/>
<path d="M112 210H531" stroke="white" stroke-opacity="0.05"/>
<path d="M112 220H531" stroke="white" stroke-opacity="0.05"/>
<path d="M112 230H531" stroke="white" stroke-opacity="0.05"/>
<path d="M112 240H531" stroke="white" stroke-opacity="0.05"/>
<path d="M112 250H531" stroke="white" stroke-opacity="0.05"/>
<path d="M112 260H531" stroke="white" stroke-opacity="0.05"/>
<path d="M112 270H531" stroke="white" stroke-opacity="0.05"/>
<path d="M112 280H531" stroke="white" stroke-opacity="0.05"/>
<path d="M112 290H531" stroke="white" stroke-opacity="0.05"/>
<path d="M112 300H531" stroke="white" stroke-opacity="0.05"/>
<path d="M112 310H531" stroke="white" stroke-opacity="0.05"/>
<path d="M112 320H531" stroke="white" stroke-opacity="0.05"/>
<path d="M112 330H531" stroke="white" stroke-opacity="0.05"/>
<path d="M112 340H531" stroke="white" stroke-opacity="0.05"/>
<path d="M112 350H531" stroke="white" stroke-opacity="0.05"/>
<path d="M112 360H531" stroke="white" stroke-opacity="0.05"/>
<path d="M112 370H531" stroke="white" stroke-opacity="0.05"/>
<path d="M112 380H531" stroke="white" stroke-opacity="0.05"/>
<path d="M112 390H531" stroke="white" stroke-opacity="0.05"/>
<path d="M112 400H531" stroke="white" stroke-opacity="0.05"/>
<path d="M112 410H531" stroke="white" stroke-opacity="0.05"/>
<path d="M112 420H531" stroke="white" stroke-opacity="0.05"/>
<path d="M112 430H531" stroke="white" stroke-opacity="0.05"/>
<path d="M112 440H531" stroke="white" stroke-opacity="0.05"/>
<path d="M112 450H531" stroke="white" stroke-opacity="0.05"/>
<path d="M112 460H531" stroke="white" stroke-opacity="0.05"/>
<path d="M112 470H531" stroke="white" stroke-opacity="0.05"/>
<path d="M112 480H531" stroke="white" stroke-opacity="0.05"/>
<path d="M112 490H531" stroke="white" stroke-opacity="0.05"/>
<path d="M112 500H531" stroke="white" stroke-opacity="0.05"/>
<path d="M112 510H531" stroke="white" stroke-opacity="0.05"/>
<path d="M112 520H531" stroke="white" stroke-opacity="0.05"/>
<path d="M112 530H531" stroke="white" stroke-opacity="0.05"/>
<path d="M112 540H531" stroke="white" stroke-opacity="0.05"/>
<path d="M112 550H531" stroke="white" stroke-opacity="0.05"/>
<path d="M112 560H531" stroke="white" stroke-opacity="0.05"/>
<path d="M112 570H531" stroke="white" stroke-opacity="0.05"/>
<path d="M112 580H531" stroke="white" stroke-opacity="0.05"/>
<path d="M112 590H531" stroke="white" stroke-opacity="0.05"/>
<path d="M112 600H531" stroke="white" stroke-opacity="0.05"/>
<path d="M112 610H531" stroke="white" stroke-opacity="0.05"/>
<path d="M112 620H531" stroke="white" stroke-opacity="0.05"/>
<path d="M112 630H531" stroke="white" stroke-opacity="0.05"/>
<path d="M112 640H531" stroke="white" stroke-opacity="0.05"/>
<path d="M112 650H531" stroke="white" stroke-opacity="0.05"/>
<path d="M112 660H531" stroke="white" stroke-opacity="0.05"/>
<path d="M112 670H531" stroke="white" stroke-opacity="0.05"/>
<path d="M112 680H531" stroke="white" stroke-opacity="0.05"/>
<path d="M1 690H641" stroke="url(#paint6_linear_757_716)"/>
<path d="M431 48L431 812" stroke="url(#paint7_linear_757_716)" stroke-linecap="round" stroke-dasharray="1 3"/>
<path d="M211 48L211 812" stroke="url(#paint8_linear_757_716)" stroke-linecap="round" stroke-dasharray="1 3"/>
<path d="M112 0L112 860" stroke="url(#paint9_linear_757_716)"/>
<path d="M122 170L122 690" stroke="white" stroke-opacity="0.05"/>
<path d="M132 170L132 690" stroke="white" stroke-opacity="0.05"/>
<path d="M142 170L142 690" stroke="white" stroke-opacity="0.05"/>
<path d="M152 170L152 690" stroke="white" stroke-opacity="0.05"/>
<path d="M162 170L162 690" stroke="white" stroke-opacity="0.05"/>
<path d="M172 170L172 690" stroke="white" stroke-opacity="0.05"/>
<path d="M182 170L182 690" stroke="white" stroke-opacity="0.05"/>
<path d="M192 170L192 690" stroke="white" stroke-opacity="0.05"/>
<path d="M202 170L202 690" stroke="white" stroke-opacity="0.05"/>
<path d="M212 170L212 690" stroke="white" stroke-opacity="0.05"/>
<path d="M222 170L222 690" stroke="white" stroke-opacity="0.05"/>
<path d="M232 170L232 690" stroke="white" stroke-opacity="0.05"/>
<path d="M242 170L242 690" stroke="white" stroke-opacity="0.05"/>
<path d="M252 170L252 690" stroke="white" stroke-opacity="0.05"/>
<path d="M262 170L262 690" stroke="white" stroke-opacity="0.05"/>
<path d="M272 170L272 690" stroke="white" stroke-opacity="0.05"/>
<path d="M282 170L282 690" stroke="white" stroke-opacity="0.05"/>
<path d="M292 170L292 690" stroke="white" stroke-opacity="0.05"/>
<path d="M302 170L302 690" stroke="white" stroke-opacity="0.05"/>
<path d="M312 170L312 690" stroke="white" stroke-opacity="0.05"/>
<path d="M322 170L322 690" stroke="white" stroke-opacity="0.05"/>
<path d="M332 170L332 690" stroke="white" stroke-opacity="0.05"/>
<path d="M342 170L342 690" stroke="white" stroke-opacity="0.05"/>
<path d="M352 170L352 690" stroke="white" stroke-opacity="0.05"/>
<path d="M362 170L362 690" stroke="white" stroke-opacity="0.05"/>
<path d="M372 170L372 690" stroke="white" stroke-opacity="0.05"/>
<path d="M382 170L382 690" stroke="white" stroke-opacity="0.05"/>
<path d="M392 170L392 690" stroke="white" stroke-opacity="0.05"/>
<path d="M402 170L402 690" stroke="white" stroke-opacity="0.05"/>
<path d="M412 170L412 690" stroke="white" stroke-opacity="0.05"/>
<path d="M422 170L422 690" stroke="white" stroke-opacity="0.05"/>
<path d="M432 170L432 690" stroke="white" stroke-opacity="0.05"/>
<path d="M442 170L442 690" stroke="white" stroke-opacity="0.05"/>
<path d="M452 170L452 690" stroke="white" stroke-opacity="0.05"/>
<path d="M462 170L462 690" stroke="white" stroke-opacity="0.05"/>
<path d="M472 170L472 690" stroke="white" stroke-opacity="0.05"/>
<path d="M482 170L482 690" stroke="white" stroke-opacity="0.05"/>
<path d="M492 170L492 690" stroke="white" stroke-opacity="0.05"/>
<path d="M502 170L502 690" stroke="white" stroke-opacity="0.05"/>
<path d="M512 170L512 690" stroke="white" stroke-opacity="0.05"/>
<path d="M522 170L522 690" stroke="white" stroke-opacity="0.05"/>
<path d="M531 0L531 860" stroke="url(#paint10_linear_757_716)"/>
<path d="M1 560H641" stroke="url(#paint11_linear_757_716)" stroke-linecap="round" stroke-dasharray="1 3"/>
<defs>
<linearGradient id="paint0_linear_757_716" x1="331.5" y1="47" x2="331.5" y2="297" gradientUnits="userSpaceOnUse">
<stop offset="0.491979" stop-color="white" stop-opacity="0.15"/>
<stop offset="0.493014" stop-color="white"/>
</linearGradient>
<linearGradient id="paint1_linear_757_716" x1="331.5" y1="564" x2="331.5" y2="814" gradientUnits="userSpaceOnUse">
<stop offset="0.503076" stop-color="white"/>
<stop offset="0.505537" stop-color="white" stop-opacity="0.15"/>
</linearGradient>
<linearGradient id="paint2_linear_757_716" x1="16" y1="430" x2="205" y2="430" gradientUnits="userSpaceOnUse">
<stop offset="0.507341" stop-color="white" stop-opacity="0.15"/>
<stop offset="0.507979" stop-color="white"/>
</linearGradient>
<linearGradient id="paint3_linear_757_716" x1="649.5" y1="436" x2="457" y2="436" gradientUnits="userSpaceOnUse">
<stop offset="0.614561" stop-color="white" stop-opacity="0.15"/>
<stop offset="0.61557" stop-color="white"/>
</linearGradient>
<linearGradient id="paint4_linear_757_716" x1="640.318" y1="301" x2="1" y2="301" gradientUnits="userSpaceOnUse">
<stop stop-color="white" stop-opacity="0"/>
<stop offset="0.491227" stop-color="white"/>
<stop offset="1" stop-color="white" stop-opacity="0"/>
</linearGradient>
<linearGradient id="paint5_linear_757_716" x1="640.318" y1="170" x2="1" y2="170" gradientUnits="userSpaceOnUse">
<stop stop-color="white" stop-opacity="0"/>
<stop offset="0.491227" stop-color="white"/>
<stop offset="1" stop-color="white" stop-opacity="0"/>
</linearGradient>
<linearGradient id="paint6_linear_757_716" x1="640.318" y1="690" x2="1" y2="690" gradientUnits="userSpaceOnUse">
<stop stop-color="white" stop-opacity="0"/>
<stop offset="0.491227" stop-color="white"/>
<stop offset="1" stop-color="white" stop-opacity="0"/>
</linearGradient>
<linearGradient id="paint7_linear_757_716" x1="431" y1="811.186" x2="431" y2="48" gradientUnits="userSpaceOnUse">
<stop stop-color="white" stop-opacity="0"/>
<stop offset="0.491227" stop-color="white"/>
<stop offset="1" stop-color="white" stop-opacity="0"/>
</linearGradient>
<linearGradient id="paint8_linear_757_716" x1="211" y1="811.186" x2="211" y2="48" gradientUnits="userSpaceOnUse">
<stop stop-color="white" stop-opacity="0"/>
<stop offset="0.491227" stop-color="white"/>
<stop offset="1" stop-color="white" stop-opacity="0"/>
</linearGradient>
<linearGradient id="paint9_linear_757_716" x1="112" y1="859.084" x2="112" y2="0" gradientUnits="userSpaceOnUse">
<stop stop-color="white" stop-opacity="0"/>
<stop offset="0.491227" stop-color="white"/>
<stop offset="1" stop-color="white" stop-opacity="0"/>
</linearGradient>
<linearGradient id="paint10_linear_757_716" x1="531" y1="859.084" x2="531" y2="0" gradientUnits="userSpaceOnUse">
<stop stop-color="white" stop-opacity="0"/>
<stop offset="0.491227" stop-color="white"/>
<stop offset="1" stop-color="white" stop-opacity="0"/>
</linearGradient>
<linearGradient id="paint11_linear_757_716" x1="640.318" y1="560" x2="1" y2="560" gradientUnits="userSpaceOnUse">
<stop stop-color="white" stop-opacity="0"/>
<stop offset="0.491227" stop-color="white"/>
<stop offset="1" stop-color="white" stop-opacity="0"/>
</linearGradient>
</defs>
</svg>
