<svg width="1121" height="400" viewBox="0 0 1121 400" fill="none" xmlns="http://www.w3.org/2000/svg">
<path d="M734 78V320" stroke="white" stroke-opacity="0.04"/>
<path d="M724 78V320" stroke="white" stroke-opacity="0.04"/>
<path d="M714 78V320" stroke="white" stroke-opacity="0.04"/>
<path d="M704 78V320" stroke="white" stroke-opacity="0.04"/>
<path d="M694 78V320" stroke="white" stroke-opacity="0.04"/>
<path d="M684 78V320" stroke="white" stroke-opacity="0.04"/>
<path d="M674 78V320" stroke="white" stroke-opacity="0.04"/>
<path d="M664 78V320" stroke="white" stroke-opacity="0.04"/>
<path d="M654 78V320" stroke="white" stroke-opacity="0.04"/>
<path d="M644 78V320" stroke="white" stroke-opacity="0.04"/>
<path d="M634 78V320" stroke="white" stroke-opacity="0.04"/>
<path d="M624 78V320" stroke="white" stroke-opacity="0.04"/>
<path d="M614 78V320" stroke="white" stroke-opacity="0.04"/>
<path d="M604 78V320" stroke="white" stroke-opacity="0.04"/>
<path d="M594 78V320" stroke="white" stroke-opacity="0.04"/>
<path d="M584 78V320" stroke="white" stroke-opacity="0.04"/>
<path d="M574 78V320" stroke="white" stroke-opacity="0.04"/>
<path d="M564 78V320" stroke="white" stroke-opacity="0.04"/>
<path d="M554 78V320" stroke="white" stroke-opacity="0.04"/>
<path d="M544 78V320" stroke="white" stroke-opacity="0.04"/>
<path d="M534 78V320" stroke="white" stroke-opacity="0.04"/>
<path d="M524 78V320" stroke="white" stroke-opacity="0.04"/>
<path d="M514 78V320" stroke="white" stroke-opacity="0.04"/>
<path d="M504 78V320" stroke="white" stroke-opacity="0.04"/>
<path d="M494 78V320" stroke="white" stroke-opacity="0.04"/>
<path d="M484 78V320" stroke="white" stroke-opacity="0.04"/>
<path d="M474 78V320" stroke="white" stroke-opacity="0.04"/>
<path d="M464 78V320" stroke="white" stroke-opacity="0.04"/>
<path d="M454 78V320" stroke="white" stroke-opacity="0.04"/>
<path d="M444 78V320" stroke="white" stroke-opacity="0.04"/>
<path d="M434 78V320" stroke="white" stroke-opacity="0.04"/>
<path d="M424 78V320" stroke="white" stroke-opacity="0.04"/>
<path d="M414 78V320" stroke="white" stroke-opacity="0.04"/>
<path d="M404 78V320" stroke="white" stroke-opacity="0.04"/>
<path d="M394 78V320" stroke="white" stroke-opacity="0.04"/>
<path d="M384 78V320" stroke="white" stroke-opacity="0.04"/>
<path d="M395.003 221.676C390.997 221.676 387.299 220.735 383.909 218.854C380.581 216.972 377.931 214.392 375.958 211.115C373.986 207.837 373 204.135 373 200.008C373 196.184 373.986 192.664 375.958 189.447C377.931 186.169 380.612 183.559 384.001 181.617C387.453 179.675 391.243 178.704 395.373 178.704C398.824 178.704 401.782 179.25 404.248 180.342C406.713 181.435 409.117 183.134 411.459 185.441V190.357C409.425 187.383 407.145 185.137 404.618 183.62C402.152 182.042 399.071 181.253 395.373 181.253C391.983 181.253 388.778 182.133 385.758 183.893C382.8 185.593 380.427 187.899 378.639 190.812C376.852 193.726 375.958 196.852 375.958 200.19C375.958 203.831 376.821 207.109 378.547 210.022C380.273 212.875 382.584 215.121 385.481 216.76C388.439 218.338 391.613 219.127 395.003 219.127C401.906 219.127 407.391 216.062 411.459 209.931V214.848C409.24 217.154 406.775 218.884 404.063 220.037C401.413 221.13 398.393 221.676 395.003 221.676Z" fill="white"/>
<path d="M440.329 221.949C436.138 221.949 432.348 220.948 428.958 218.945C425.568 216.881 422.918 214.18 421.007 210.842C419.096 207.443 418.141 203.771 418.141 199.826C418.141 195.941 419.096 192.33 421.007 188.992C422.979 185.653 425.63 183.013 428.958 181.071C432.348 179.068 436.107 178.066 440.237 178.066C444.304 178.066 448.002 179.068 451.33 181.071C454.72 183.013 457.37 185.653 459.281 188.992C461.192 192.33 462.147 195.941 462.147 199.826C462.147 203.892 461.222 207.625 459.373 211.024C457.525 214.362 454.936 217.033 451.608 219.036C448.341 220.978 444.582 221.949 440.329 221.949ZM440.329 219.4C443.842 219.4 447.047 218.52 449.944 216.76C452.84 214.999 455.09 212.663 456.692 209.749C458.357 206.775 459.189 203.528 459.189 200.008C459.189 196.548 458.357 193.331 456.692 190.357C455.028 187.383 452.748 185.016 449.851 183.256C446.954 181.496 443.75 180.616 440.237 180.616C436.723 180.616 433.488 181.526 430.529 183.347C427.633 185.107 425.321 187.474 423.596 190.448C421.932 193.422 421.1 196.639 421.1 200.099C421.1 203.558 421.932 206.775 423.596 209.749C425.321 212.663 427.633 214.999 430.529 216.76C433.488 218.52 436.754 219.4 440.329 219.4Z" fill="white"/>
<path d="M470.471 179.523H473.429V185.714C476.264 180.919 480.825 178.522 487.112 178.522C490.132 178.522 492.751 179.371 494.97 181.071C497.189 182.71 498.73 185.198 499.592 188.536C500.394 185.562 502.15 183.165 504.862 181.344C507.636 179.462 510.748 178.522 514.199 178.522C518.699 178.522 522.181 179.827 524.646 182.436C527.112 184.986 528.344 188.627 528.344 193.362V220.492H525.386V193.362C525.386 189.538 524.369 186.533 522.335 184.348C520.363 182.163 517.743 181.071 514.477 181.071C512.011 181.071 509.731 181.678 507.636 182.892C505.54 184.045 503.876 185.623 502.643 187.626C501.411 189.629 500.794 191.844 500.794 194.272V220.492H497.836V195C497.836 190.63 496.788 187.231 494.693 184.804C492.597 182.315 489.885 181.071 486.557 181.071C484.338 181.071 482.212 181.617 480.178 182.71C478.206 183.802 476.573 185.289 475.278 187.171C474.046 188.992 473.429 190.994 473.429 193.179V220.492H470.471V179.523Z" fill="white"/>
<path d="M539.988 179.523H542.947V185.714C545.782 180.919 550.343 178.522 556.629 178.522C559.649 178.522 562.269 179.371 564.487 181.071C566.706 182.71 568.247 185.198 569.11 188.536C569.911 185.562 571.668 183.165 574.38 181.344C577.153 179.462 580.265 178.522 583.717 178.522C588.216 178.522 591.698 179.827 594.164 182.436C596.629 184.986 597.862 188.627 597.862 193.362V220.492H594.903V193.362C594.903 189.538 593.886 186.533 591.852 184.348C589.88 182.163 587.261 181.071 583.994 181.071C581.529 181.071 579.249 181.678 577.153 182.892C575.057 184.045 573.393 185.623 572.161 187.626C570.928 189.629 570.312 191.844 570.312 194.272V220.492H567.353V195C567.353 190.63 566.306 187.231 564.21 184.804C562.115 182.315 559.403 181.071 556.075 181.071C553.856 181.071 551.729 181.617 549.696 182.71C547.723 183.802 546.09 185.289 544.796 187.171C543.563 188.992 542.947 190.994 542.947 193.179V220.492H539.988V179.523Z" fill="white"/>
<path d="M629.105 221.494C625.161 221.494 621.493 220.523 618.104 218.58C614.714 216.638 612.033 214.028 610.061 210.751C608.088 207.413 607.102 203.831 607.102 200.008C607.102 196.184 608.088 192.633 610.061 189.356C612.033 186.017 614.714 183.377 618.104 181.435C621.493 179.493 625.161 178.522 629.105 178.522C633.111 178.522 636.902 179.584 640.476 181.708C644.051 183.772 646.547 186.473 647.965 189.811V179.523H650.923V220.492H647.965V210.296C646.301 213.694 643.712 216.426 640.199 218.489C636.748 220.492 633.05 221.494 629.105 221.494ZM629.29 218.945C632.68 218.945 635.823 218.095 638.72 216.395C641.616 214.635 643.897 212.329 645.561 209.476C647.287 206.563 648.15 203.407 648.15 200.008C648.15 196.669 647.287 193.544 645.561 190.63C643.835 187.717 641.524 185.411 638.627 183.711C635.731 181.951 632.587 181.071 629.198 181.071C625.808 181.071 622.634 181.951 619.675 183.711C616.779 185.471 614.436 187.808 612.649 190.721C610.923 193.635 610.061 196.761 610.061 200.099C610.061 203.437 610.923 206.563 612.649 209.476C614.436 212.329 616.809 214.635 619.768 216.395C622.726 218.095 625.9 218.945 629.29 218.945Z" fill="white"/>
<path fill-rule="evenodd" clip-rule="evenodd" d="M695.085 225.239V234.853C698.525 236.601 703.215 237.538 707.217 237.912C722.725 239.161 743.612 227.05 742.986 202.702C742.111 190.278 736.983 184.535 730.855 177.792C724.914 171.612 719.786 169.552 713.345 169.177C699.275 168.366 688.144 180.415 688.332 192.713C688.644 208.695 700.901 216.374 711.282 216.936V207.447C710.219 207.571 709.093 207.696 707.967 207.696C694.21 207.696 683.517 195.835 684.017 182.849C684.58 169.489 696.086 160 708.092 160C711.407 160 726.102 161.498 730.917 177.605C747.426 195.148 732.23 233.792 698.462 226.3C697.587 226.113 696.086 225.614 695.085 225.239Z" stroke="white" stroke-width="2.6" stroke-miterlimit="10"/>
<g opacity="0.15">
<path d="M766.003 221.676C761.997 221.676 758.299 220.735 754.909 218.854C751.581 216.972 748.931 214.392 746.958 211.115C744.986 207.837 744 204.135 744 200.008C744 196.184 744.986 192.664 746.958 189.447C748.931 186.169 751.612 183.559 755.001 181.617C758.453 179.675 762.243 178.704 766.373 178.704C769.824 178.704 772.782 179.25 775.248 180.342C777.713 181.435 780.117 183.134 782.459 185.441V190.357C780.425 187.383 778.145 185.137 775.618 183.62C773.152 182.042 770.071 181.253 766.373 181.253C762.983 181.253 759.778 182.133 756.758 183.893C753.8 185.593 751.427 187.899 749.639 190.812C747.852 193.726 746.958 196.852 746.958 200.19C746.958 203.831 747.821 207.109 749.547 210.022C751.273 212.875 753.584 215.121 756.481 216.76C759.439 218.338 762.613 219.127 766.003 219.127C772.906 219.127 778.391 216.062 782.459 209.931V214.848C780.24 217.154 777.775 218.884 775.063 220.037C772.413 221.13 769.393 221.676 766.003 221.676Z" fill="url(#paint0_linear_758_701)"/>
<path d="M811.329 221.949C807.138 221.949 803.348 220.948 799.958 218.945C796.568 216.881 793.918 214.18 792.007 210.842C790.096 207.443 789.141 203.771 789.141 199.826C789.141 195.941 790.096 192.33 792.007 188.992C793.979 185.653 796.63 183.013 799.958 181.071C803.348 179.068 807.107 178.066 811.237 178.066C815.304 178.066 819.002 179.068 822.33 181.071C825.72 183.013 828.37 185.653 830.281 188.992C832.192 192.33 833.147 195.941 833.147 199.826C833.147 203.892 832.222 207.625 830.373 211.024C828.525 214.362 825.936 217.033 822.608 219.036C819.341 220.978 815.582 221.949 811.329 221.949ZM811.329 219.4C814.842 219.4 818.047 218.52 820.944 216.76C823.84 214.999 826.09 212.663 827.692 209.749C829.357 206.775 830.189 203.528 830.189 200.008C830.189 196.548 829.357 193.331 827.692 190.357C826.028 187.383 823.748 185.016 820.851 183.256C817.954 181.496 814.75 180.616 811.237 180.616C807.723 180.616 804.488 181.526 801.529 183.347C798.633 185.107 796.321 187.474 794.596 190.448C792.932 193.422 792.1 196.639 792.1 200.099C792.1 203.558 792.932 206.775 794.596 209.749C796.321 212.663 798.633 214.999 801.529 216.76C804.488 218.52 807.754 219.4 811.329 219.4Z" fill="url(#paint1_linear_758_701)"/>
<path d="M841.471 179.523H844.429V185.714C847.264 180.919 851.825 178.522 858.112 178.522C861.132 178.522 863.751 179.371 865.97 181.071C868.189 182.71 869.73 185.198 870.592 188.536C871.394 185.562 873.15 183.165 875.862 181.344C878.636 179.462 881.748 178.522 885.199 178.522C889.699 178.522 893.181 179.827 895.646 182.436C898.112 184.986 899.344 188.627 899.344 193.362V220.492H896.386V193.362C896.386 189.538 895.369 186.533 893.335 184.348C891.363 182.163 888.743 181.071 885.477 181.071C883.011 181.071 880.731 181.678 878.636 182.892C876.54 184.045 874.876 185.623 873.643 187.626C872.411 189.629 871.794 191.844 871.794 194.272V220.492H868.836V195C868.836 190.63 867.788 187.231 865.693 184.804C863.597 182.315 860.885 181.071 857.557 181.071C855.338 181.071 853.212 181.617 851.178 182.71C849.206 183.802 847.573 185.289 846.278 187.171C845.046 188.992 844.429 190.994 844.429 193.179V220.492H841.471V179.523Z" fill="url(#paint2_linear_758_701)"/>
<path d="M910.988 179.523H913.947V185.714C916.782 180.919 921.343 178.522 927.629 178.522C930.649 178.522 933.269 179.371 935.487 181.071C937.706 182.71 939.247 185.198 940.11 188.536C940.911 185.562 942.668 183.165 945.38 181.344C948.153 179.462 951.265 178.522 954.717 178.522C959.216 178.522 962.698 179.827 965.164 182.436C967.629 184.986 968.862 188.627 968.862 193.362V220.492H965.903V193.362C965.903 189.538 964.886 186.533 962.852 184.348C960.88 182.163 958.261 181.071 954.994 181.071C952.529 181.071 950.249 181.678 948.153 182.892C946.057 184.045 944.393 185.623 943.161 187.626C941.928 189.629 941.312 191.844 941.312 194.272V220.492H938.353V195C938.353 190.63 937.306 187.231 935.21 184.804C933.115 182.315 930.403 181.071 927.075 181.071C924.856 181.071 922.729 181.617 920.696 182.71C918.723 183.802 917.09 185.289 915.796 187.171C914.563 188.992 913.947 190.994 913.947 193.179V220.492H910.988V179.523Z" fill="url(#paint3_linear_758_701)"/>
<path d="M1000.11 221.494C996.161 221.494 992.493 220.523 989.104 218.58C985.714 216.638 983.033 214.028 981.061 210.751C979.088 207.413 978.102 203.831 978.102 200.008C978.102 196.184 979.088 192.633 981.061 189.356C983.033 186.017 985.714 183.377 989.104 181.435C992.493 179.493 996.161 178.522 1000.11 178.522C1004.11 178.522 1007.9 179.584 1011.48 181.708C1015.05 183.772 1017.55 186.473 1018.96 189.811V179.523H1021.92V220.492H1018.96V210.296C1017.3 213.694 1014.71 216.426 1011.2 218.489C1007.75 220.492 1004.05 221.494 1000.11 221.494ZM1000.29 218.945C1003.68 218.945 1006.82 218.095 1009.72 216.395C1012.62 214.635 1014.9 212.329 1016.56 209.476C1018.29 206.563 1019.15 203.407 1019.15 200.008C1019.15 196.669 1018.29 193.544 1016.56 190.63C1014.84 187.717 1012.52 185.411 1009.63 183.711C1006.73 181.951 1003.59 181.071 1000.2 181.071C996.808 181.071 993.634 181.951 990.675 183.711C987.779 185.471 985.436 187.808 983.649 190.721C981.923 193.635 981.061 196.761 981.061 200.099C981.061 203.437 981.923 206.563 983.649 209.476C985.436 212.329 987.809 214.635 990.768 216.395C993.726 218.095 996.9 218.945 1000.29 218.945Z" fill="url(#paint4_linear_758_701)"/>
</g>
<g opacity="0.15">
<path d="M22.0029 221.676C17.9968 221.676 14.2988 220.735 10.909 218.854C7.58083 216.972 4.93062 214.392 2.95837 211.115C0.986124 207.837 0 204.135 0 200.008C0 196.184 0.986124 192.664 2.95837 189.447C4.93062 186.169 7.61165 183.559 11.0014 181.617C14.4529 179.675 18.2433 178.704 22.3727 178.704C25.8241 178.704 28.7825 179.25 31.2478 180.342C33.7131 181.435 36.1168 183.134 38.4588 185.441V190.357C36.425 187.383 34.1446 185.137 31.6176 183.62C29.1523 182.042 26.0707 181.253 22.3727 181.253C18.9829 181.253 15.778 182.133 12.758 183.893C9.79961 185.593 7.42675 187.899 5.6394 190.812C3.85205 193.726 2.95837 196.852 2.95837 200.19C2.95837 203.831 3.82123 207.109 5.54695 210.022C7.27267 212.875 9.58389 215.121 12.4806 216.76C15.439 218.338 18.6131 219.127 22.0029 219.127C28.9058 219.127 34.3911 216.062 38.4588 209.931V214.848C36.2401 217.154 33.7748 218.884 31.0629 220.037C28.4127 221.13 25.3927 221.676 22.0029 221.676Z" fill="url(#paint5_linear_758_701)"/>
<path d="M67.329 221.949C63.1379 221.949 59.3475 220.948 55.9577 218.945C52.5679 216.881 49.9177 214.18 48.0071 210.842C46.0965 207.443 45.1412 203.771 45.1412 199.826C45.1412 195.941 46.0965 192.33 48.0071 188.992C49.9794 185.653 52.6296 183.013 55.9577 181.071C59.3475 179.068 63.1071 178.066 67.2365 178.066C71.3043 178.066 75.0023 179.068 78.3304 181.071C81.7202 183.013 84.3704 185.653 86.281 188.992C88.1917 192.33 89.147 195.941 89.147 199.826C89.147 203.892 88.2225 207.625 86.3735 211.024C84.5245 214.362 81.9359 217.033 78.6078 219.036C75.3412 220.978 71.5816 221.949 67.329 221.949ZM67.329 219.4C70.842 219.4 74.0469 218.52 76.9437 216.76C79.8404 214.999 82.09 212.663 83.6925 209.749C85.3566 206.775 86.1886 203.528 86.1886 200.008C86.1886 196.548 85.3566 193.331 83.6925 190.357C82.0284 187.383 79.748 185.016 76.8512 183.256C73.9545 181.496 70.7496 180.616 67.2365 180.616C63.7235 180.616 60.4877 181.526 57.5294 183.347C54.6326 185.107 52.3214 187.474 50.5957 190.448C48.9316 193.422 48.0996 196.639 48.0996 200.099C48.0996 203.558 48.9316 206.775 50.5957 209.749C52.3214 212.663 54.6326 214.999 57.5294 216.76C60.4877 218.52 63.7543 219.4 67.329 219.4Z" fill="url(#paint6_linear_758_701)"/>
<path d="M97.471 179.523H100.429V185.714C103.264 180.919 107.825 178.522 114.112 178.522C117.132 178.522 119.751 179.371 121.97 181.071C124.189 182.71 125.73 185.198 126.592 188.536C127.394 185.562 129.15 183.165 131.862 181.344C134.636 179.462 137.748 178.522 141.199 178.522C145.699 178.522 149.181 179.827 151.646 182.436C154.112 184.986 155.344 188.627 155.344 193.362V220.492H152.386V193.362C152.386 189.538 151.369 186.533 149.335 184.348C147.363 182.163 144.743 181.071 141.477 181.071C139.011 181.071 136.731 181.678 134.636 182.892C132.54 184.045 130.876 185.623 129.643 187.626C128.411 189.629 127.794 191.844 127.794 194.272V220.492H124.836V195C124.836 190.63 123.788 187.231 121.693 184.804C119.597 182.315 116.885 181.071 113.557 181.071C111.338 181.071 109.212 181.617 107.178 182.71C105.206 183.802 103.573 185.289 102.278 187.171C101.046 188.992 100.429 190.994 100.429 193.179V220.492H97.471V179.523Z" fill="url(#paint7_linear_758_701)"/>
<path d="M166.988 179.523H169.947V185.714C172.782 180.919 177.343 178.522 183.629 178.522C186.649 178.522 189.269 179.371 191.487 181.071C193.706 182.71 195.247 185.198 196.11 188.536C196.911 185.562 198.668 183.165 201.38 181.344C204.153 179.462 207.265 178.522 210.717 178.522C215.216 178.522 218.698 179.827 221.164 182.436C223.629 184.986 224.862 188.627 224.862 193.362V220.492H221.903V193.362C221.903 189.538 220.886 186.533 218.852 184.348C216.88 182.163 214.261 181.071 210.994 181.071C208.529 181.071 206.249 181.678 204.153 182.892C202.057 184.045 200.393 185.623 199.161 187.626C197.928 189.629 197.312 191.844 197.312 194.272V220.492H194.353V195C194.353 190.63 193.306 187.231 191.21 184.804C189.115 182.315 186.403 181.071 183.075 181.071C180.856 181.071 178.729 181.617 176.696 182.71C174.723 183.802 173.09 185.289 171.796 187.171C170.563 188.992 169.947 190.994 169.947 193.179V220.492H166.988V179.523Z" fill="url(#paint8_linear_758_701)"/>
<path d="M256.105 221.494C252.161 221.494 248.493 220.523 245.104 218.58C241.714 216.638 239.033 214.028 237.061 210.751C235.088 207.413 234.102 203.831 234.102 200.008C234.102 196.184 235.088 192.633 237.061 189.356C239.033 186.017 241.714 183.377 245.104 181.435C248.493 179.493 252.161 178.522 256.105 178.522C260.111 178.522 263.902 179.584 267.476 181.708C271.051 183.772 273.547 186.473 274.965 189.811V179.523H277.923V220.492H274.965V210.296C273.301 213.694 270.712 216.426 267.199 218.489C263.748 220.492 260.05 221.494 256.105 221.494ZM256.29 218.945C259.68 218.945 262.823 218.095 265.72 216.395C268.616 214.635 270.897 212.329 272.561 209.476C274.287 206.563 275.15 203.407 275.15 200.008C275.15 196.669 274.287 193.544 272.561 190.63C270.835 187.717 268.524 185.411 265.627 183.711C262.731 181.951 259.587 181.071 256.198 181.071C252.808 181.071 249.634 181.951 246.675 183.711C243.779 185.471 241.436 187.808 239.649 190.721C237.923 193.635 237.061 196.761 237.061 200.099C237.061 203.437 237.923 206.563 239.649 209.476C241.436 212.329 243.809 214.635 246.768 216.395C249.726 218.095 252.9 218.945 256.29 218.945Z" fill="url(#paint9_linear_758_701)"/>
<path fill-rule="evenodd" clip-rule="evenodd" d="M324.085 225.239V234.853C327.525 236.601 332.215 237.538 336.217 237.912C351.725 239.161 372.612 227.05 371.986 202.702C371.111 190.278 365.983 184.535 359.855 177.792C353.914 171.612 348.786 169.552 342.345 169.177C328.275 168.366 317.144 180.415 317.332 192.713C317.644 208.695 329.901 216.374 340.282 216.936V207.447C339.219 207.571 338.093 207.696 336.967 207.696C323.21 207.696 312.517 195.835 313.017 182.849C313.58 169.489 325.086 160 337.092 160C340.407 160 355.102 161.498 359.917 177.605C376.426 195.148 361.23 233.792 327.462 226.3C326.587 226.113 325.086 225.614 324.085 225.239Z" stroke="white" stroke-width="2.6" stroke-miterlimit="10"/>
</g>
<g opacity="0.15">
<path d="M395.003 140.676C390.997 140.676 387.299 139.735 383.909 137.854C380.581 135.972 377.931 133.392 375.958 130.115C373.986 126.837 373 123.135 373 119.008C373 115.184 373.986 111.664 375.958 108.447C377.931 105.169 380.612 102.559 384.001 100.617C387.453 98.6748 391.243 97.7037 395.373 97.7037C398.824 97.7037 401.782 98.25 404.248 99.3425C406.713 100.435 409.117 102.134 411.459 104.441V109.357C409.425 106.383 407.145 104.137 404.618 102.62C402.152 101.042 399.071 100.253 395.373 100.253C391.983 100.253 388.778 101.133 385.758 102.893C382.8 104.593 380.427 106.899 378.639 109.812C376.852 112.726 375.958 115.852 375.958 119.19C375.958 122.831 376.821 126.109 378.547 129.022C380.273 131.875 382.584 134.121 385.481 135.76C388.439 137.338 391.613 138.127 395.003 138.127C401.906 138.127 407.391 135.062 411.459 128.931V133.848C409.24 136.154 406.775 137.884 404.063 139.037C401.413 140.13 398.393 140.676 395.003 140.676Z" fill="white"/>
<path d="M440.329 140.949C436.138 140.949 432.348 139.948 428.958 137.945C425.568 135.881 422.918 133.18 421.007 129.842C419.096 126.443 418.141 122.771 418.141 118.826C418.141 114.941 419.096 111.33 421.007 107.992C422.979 104.653 425.63 102.013 428.958 100.071C432.348 98.0679 436.107 97.0664 440.237 97.0664C444.304 97.0664 448.002 98.0679 451.33 100.071C454.72 102.013 457.37 104.653 459.281 107.992C461.192 111.33 462.147 114.941 462.147 118.826C462.147 122.892 461.222 126.625 459.373 130.024C457.525 133.362 454.936 136.033 451.608 138.036C448.341 139.978 444.582 140.949 440.329 140.949ZM440.329 138.4C443.842 138.4 447.047 137.52 449.944 135.76C452.84 133.999 455.09 131.663 456.692 128.749C458.357 125.775 459.189 122.528 459.189 119.008C459.189 115.548 458.357 112.331 456.692 109.357C455.028 106.383 452.748 104.016 449.851 102.256C446.954 100.496 443.75 99.6156 440.237 99.6156C436.723 99.6156 433.488 100.526 430.529 102.347C427.633 104.107 425.321 106.474 423.596 109.448C421.932 112.422 421.1 115.639 421.1 119.099C421.1 122.558 421.932 125.775 423.596 128.749C425.321 131.663 427.633 133.999 430.529 135.76C433.488 137.52 436.754 138.4 440.329 138.4Z" fill="white"/>
<path d="M470.471 98.5231H473.429V104.714C476.264 99.9191 480.825 97.5216 487.112 97.5216C490.132 97.5216 492.751 98.3714 494.97 100.071C497.189 101.71 498.73 104.198 499.592 107.536C500.394 104.562 502.15 102.165 504.862 100.344C507.636 98.4624 510.748 97.5216 514.199 97.5216C518.699 97.5216 522.181 98.8266 524.646 101.436C527.112 103.986 528.344 107.627 528.344 112.362V139.492H525.386V112.362C525.386 108.538 524.369 105.533 522.335 103.348C520.363 101.163 517.743 100.071 514.477 100.071C512.011 100.071 509.731 100.678 507.636 101.892C505.54 103.045 503.876 104.623 502.643 106.626C501.411 108.629 500.794 110.844 500.794 113.272V139.492H497.836V114C497.836 109.63 496.788 106.231 494.693 103.804C492.597 101.315 489.885 100.071 486.557 100.071C484.338 100.071 482.212 100.617 480.178 101.71C478.206 102.802 476.573 104.289 475.278 106.171C474.046 107.992 473.429 109.994 473.429 112.179V139.492H470.471V98.5231Z" fill="white"/>
<path d="M539.988 98.5231H542.947V104.714C545.782 99.9191 550.343 97.5216 556.629 97.5216C559.649 97.5216 562.269 98.3714 564.487 100.071C566.706 101.71 568.247 104.198 569.11 107.536C569.911 104.562 571.668 102.165 574.38 100.344C577.153 98.4624 580.265 97.5216 583.717 97.5216C588.216 97.5216 591.698 98.8266 594.164 101.436C596.629 103.986 597.862 107.627 597.862 112.362V139.492H594.903V112.362C594.903 108.538 593.886 105.533 591.852 103.348C589.88 101.163 587.261 100.071 583.994 100.071C581.529 100.071 579.249 100.678 577.153 101.892C575.057 103.045 573.393 104.623 572.161 106.626C570.928 108.629 570.312 110.844 570.312 113.272V139.492H567.353V114C567.353 109.63 566.306 106.231 564.21 103.804C562.115 101.315 559.403 100.071 556.075 100.071C553.856 100.071 551.729 100.617 549.696 101.71C547.723 102.802 546.09 104.289 544.796 106.171C543.563 107.992 542.947 109.994 542.947 112.179V139.492H539.988V98.5231Z" fill="white"/>
<path d="M629.105 140.494C625.161 140.494 621.493 139.523 618.104 137.58C614.714 135.638 612.033 133.028 610.061 129.751C608.088 126.413 607.102 122.831 607.102 119.008C607.102 115.184 608.088 111.633 610.061 108.356C612.033 105.017 614.714 102.377 618.104 100.435C621.493 98.4927 625.161 97.5216 629.105 97.5216C633.111 97.5216 636.902 98.5838 640.476 100.708C644.051 102.772 646.547 105.473 647.965 108.811V98.5231H650.923V139.492H647.965V129.296C646.301 132.694 643.712 135.426 640.199 137.489C636.748 139.492 633.05 140.494 629.105 140.494ZM629.29 137.945C632.68 137.945 635.823 137.095 638.72 135.395C641.616 133.635 643.897 131.329 645.561 128.476C647.287 125.563 648.15 122.407 648.15 119.008C648.15 115.669 647.287 112.544 645.561 109.63C643.835 106.717 641.524 104.411 638.627 102.711C635.731 100.951 632.587 100.071 629.198 100.071C625.808 100.071 622.634 100.951 619.675 102.711C616.779 104.471 614.436 106.808 612.649 109.721C610.923 112.635 610.061 115.761 610.061 119.099C610.061 122.437 610.923 125.563 612.649 128.476C614.436 131.329 616.809 133.635 619.768 135.395C622.726 137.095 625.9 137.945 629.29 137.945Z" fill="white"/>
<path fill-rule="evenodd" clip-rule="evenodd" d="M695.085 144.239V153.853C698.525 155.601 703.215 156.538 707.217 156.912C722.725 158.161 743.612 146.05 742.986 121.702C742.111 109.278 736.983 103.535 730.855 96.7925C724.914 90.6119 719.786 88.5518 713.345 88.1772C699.275 87.3656 688.144 99.4145 688.332 111.713C688.644 127.695 700.901 135.374 711.282 135.936V126.447C710.219 126.571 709.093 126.696 707.967 126.696C694.21 126.696 683.517 114.835 684.017 101.849C684.58 88.4893 696.086 79 708.092 79C711.407 79 726.102 80.4983 730.917 96.6052C747.426 114.148 732.23 152.792 698.462 145.3C697.587 145.113 696.086 144.614 695.085 144.239Z" stroke="white" stroke-width="2.6" stroke-miterlimit="10"/>
</g>
<g opacity="0.15">
<path d="M395.003 302.676C390.997 302.676 387.299 301.735 383.909 299.854C380.581 297.972 377.931 295.392 375.958 292.115C373.986 288.837 373 285.135 373 281.008C373 277.184 373.986 273.664 375.958 270.447C377.931 267.169 380.612 264.559 384.001 262.617C387.453 260.675 391.243 259.704 395.373 259.704C398.824 259.704 401.782 260.25 404.248 261.342C406.713 262.435 409.117 264.134 411.459 266.441V271.357C409.425 268.383 407.145 266.137 404.618 264.62C402.152 263.042 399.071 262.253 395.373 262.253C391.983 262.253 388.778 263.133 385.758 264.893C382.8 266.593 380.427 268.899 378.639 271.812C376.852 274.726 375.958 277.852 375.958 281.19C375.958 284.831 376.821 288.109 378.547 291.022C380.273 293.875 382.584 296.121 385.481 297.76C388.439 299.338 391.613 300.127 395.003 300.127C401.906 300.127 407.391 297.062 411.459 290.931V295.848C409.24 298.154 406.775 299.884 404.063 301.037C401.413 302.13 398.393 302.676 395.003 302.676Z" fill="white"/>
<path d="M440.329 302.949C436.138 302.949 432.348 301.948 428.958 299.945C425.568 297.881 422.918 295.18 421.007 291.842C419.096 288.443 418.141 284.771 418.141 280.826C418.141 276.941 419.096 273.33 421.007 269.992C422.979 266.653 425.63 264.013 428.958 262.071C432.348 260.068 436.107 259.066 440.237 259.066C444.304 259.066 448.002 260.068 451.33 262.071C454.72 264.013 457.37 266.653 459.281 269.992C461.192 273.33 462.147 276.941 462.147 280.826C462.147 284.892 461.222 288.625 459.373 292.024C457.525 295.362 454.936 298.033 451.608 300.036C448.341 301.978 444.582 302.949 440.329 302.949ZM440.329 300.4C443.842 300.4 447.047 299.52 449.944 297.76C452.84 295.999 455.09 293.663 456.692 290.749C458.357 287.775 459.189 284.528 459.189 281.008C459.189 277.548 458.357 274.331 456.692 271.357C455.028 268.383 452.748 266.016 449.851 264.256C446.954 262.496 443.75 261.616 440.237 261.616C436.723 261.616 433.488 262.526 430.529 264.347C427.633 266.107 425.321 268.474 423.596 271.448C421.932 274.422 421.1 277.639 421.1 281.099C421.1 284.558 421.932 287.775 423.596 290.749C425.321 293.663 427.633 295.999 430.529 297.76C433.488 299.52 436.754 300.4 440.329 300.4Z" fill="white"/>
<path d="M470.471 260.523H473.429V266.714C476.264 261.919 480.825 259.522 487.112 259.522C490.132 259.522 492.751 260.371 494.97 262.071C497.189 263.71 498.73 266.198 499.592 269.536C500.394 266.562 502.15 264.165 504.862 262.344C507.636 260.462 510.748 259.522 514.199 259.522C518.699 259.522 522.181 260.827 524.646 263.436C527.112 265.986 528.344 269.627 528.344 274.362V301.492H525.386V274.362C525.386 270.538 524.369 267.533 522.335 265.348C520.363 263.163 517.743 262.071 514.477 262.071C512.011 262.071 509.731 262.678 507.636 263.892C505.54 265.045 503.876 266.623 502.643 268.626C501.411 270.629 500.794 272.844 500.794 275.272V301.492H497.836V276C497.836 271.63 496.788 268.231 494.693 265.804C492.597 263.315 489.885 262.071 486.557 262.071C484.338 262.071 482.212 262.617 480.178 263.71C478.206 264.802 476.573 266.289 475.278 268.171C474.046 269.992 473.429 271.994 473.429 274.179V301.492H470.471V260.523Z" fill="white"/>
<path d="M539.988 260.523H542.947V266.714C545.782 261.919 550.343 259.522 556.629 259.522C559.649 259.522 562.269 260.371 564.487 262.071C566.706 263.71 568.247 266.198 569.11 269.536C569.911 266.562 571.668 264.165 574.38 262.344C577.153 260.462 580.265 259.522 583.717 259.522C588.216 259.522 591.698 260.827 594.164 263.436C596.629 265.986 597.862 269.627 597.862 274.362V301.492H594.903V274.362C594.903 270.538 593.886 267.533 591.852 265.348C589.88 263.163 587.261 262.071 583.994 262.071C581.529 262.071 579.249 262.678 577.153 263.892C575.057 265.045 573.393 266.623 572.161 268.626C570.928 270.629 570.312 272.844 570.312 275.272V301.492H567.353V276C567.353 271.63 566.306 268.231 564.21 265.804C562.115 263.315 559.403 262.071 556.075 262.071C553.856 262.071 551.729 262.617 549.696 263.71C547.723 264.802 546.09 266.289 544.796 268.171C543.563 269.992 542.947 271.994 542.947 274.179V301.492H539.988V260.523Z" fill="white"/>
<path d="M629.105 302.494C625.161 302.494 621.493 301.523 618.104 299.58C614.714 297.638 612.033 295.028 610.061 291.751C608.088 288.413 607.102 284.831 607.102 281.008C607.102 277.184 608.088 273.633 610.061 270.356C612.033 267.017 614.714 264.377 618.104 262.435C621.493 260.493 625.161 259.522 629.105 259.522C633.111 259.522 636.902 260.584 640.476 262.708C644.051 264.772 646.547 267.473 647.965 270.811V260.523H650.923V301.492H647.965V291.296C646.301 294.694 643.712 297.426 640.199 299.489C636.748 301.492 633.05 302.494 629.105 302.494ZM629.29 299.945C632.68 299.945 635.823 299.095 638.72 297.395C641.616 295.635 643.897 293.329 645.561 290.476C647.287 287.563 648.15 284.407 648.15 281.008C648.15 277.669 647.287 274.544 645.561 271.63C643.835 268.717 641.524 266.411 638.627 264.711C635.731 262.951 632.587 262.071 629.198 262.071C625.808 262.071 622.634 262.951 619.675 264.711C616.779 266.471 614.436 268.808 612.649 271.721C610.923 274.635 610.061 277.761 610.061 281.099C610.061 284.437 610.923 287.563 612.649 290.476C614.436 293.329 616.809 295.635 619.768 297.395C622.726 299.095 625.9 299.945 629.29 299.945Z" fill="white"/>
<path fill-rule="evenodd" clip-rule="evenodd" d="M695.085 306.239V315.853C698.525 317.601 703.215 318.538 707.217 318.912C722.725 320.161 743.612 308.05 742.986 283.702C742.111 271.278 736.983 265.535 730.855 258.792C724.914 252.612 719.786 250.552 713.345 250.177C699.275 249.366 688.144 261.415 688.332 273.713C688.644 289.695 700.901 297.374 711.282 297.936V288.447C710.219 288.571 709.093 288.696 707.967 288.696C694.21 288.696 683.517 276.835 684.017 263.849C684.58 250.489 696.086 241 708.092 241C711.407 241 726.102 242.498 730.917 258.605C747.426 276.148 732.23 314.792 698.462 307.3C697.587 307.113 696.086 306.614 695.085 306.239Z" stroke="white" stroke-width="2.6" stroke-miterlimit="10"/>
</g>
<path opacity="0.8" d="M373 0L373 400" stroke="url(#paint10_linear_758_701)"/>
<path opacity="0.8" d="M911 78L207 77.9999" stroke="url(#paint11_linear_758_701)"/>
<path opacity="0.8" d="M911 158L207 158" stroke="url(#paint12_linear_758_701)"/>
<path opacity="0.8" d="M911 240L207 240" stroke="url(#paint13_linear_758_701)"/>
<path opacity="0.8" d="M911 320L207 320" stroke="url(#paint14_linear_758_701)"/>
<path opacity="0.8" d="M683 0L683 400" stroke="url(#paint15_linear_758_701)"/>
<path opacity="0.8" d="M744 0L744 400" stroke="url(#paint16_linear_758_701)"/>
<path d="M373 88H744" stroke="white" stroke-opacity="0.04"/>
<path d="M373 98H744" stroke="white" stroke-opacity="0.04"/>
<path d="M373 108H744" stroke="white" stroke-opacity="0.04"/>
<path d="M373 118H744" stroke="white" stroke-opacity="0.04"/>
<path d="M373 128H744" stroke="white" stroke-opacity="0.04"/>
<path d="M373 138H744" stroke="white" stroke-opacity="0.04"/>
<path d="M373 148H744" stroke="white" stroke-opacity="0.04"/>
<path d="M373 158H744" stroke="white" stroke-opacity="0.04"/>
<path d="M373 168H744" stroke="white" stroke-opacity="0.04"/>
<path d="M373 178H744" stroke="white" stroke-opacity="0.04"/>
<path d="M373 188H744" stroke="white" stroke-opacity="0.04"/>
<path d="M373 198H744" stroke="white" stroke-opacity="0.04"/>
<path d="M373 208H744" stroke="white" stroke-opacity="0.04"/>
<path d="M373 218H744" stroke="white" stroke-opacity="0.04"/>
<path d="M373 228H744" stroke="white" stroke-opacity="0.04"/>
<path d="M373 238H744" stroke="white" stroke-opacity="0.04"/>
<path d="M373 248H744" stroke="white" stroke-opacity="0.04"/>
<path d="M373 258H744" stroke="white" stroke-opacity="0.04"/>
<path d="M373 268H744" stroke="white" stroke-opacity="0.04"/>
<path d="M373 278H744" stroke="white" stroke-opacity="0.04"/>
<path d="M373 288H744" stroke="white" stroke-opacity="0.04"/>
<path d="M373 298H744" stroke="white" stroke-opacity="0.04"/>
<path d="M373 308H744" stroke="white" stroke-opacity="0.04"/>
<defs>
<linearGradient id="paint0_linear_758_701" x1="744" y1="197.5" x2="1120.5" y2="200" gradientUnits="userSpaceOnUse">
<stop stop-color="white"/>
<stop offset="1" stop-color="white" stop-opacity="0"/>
</linearGradient>
<linearGradient id="paint1_linear_758_701" x1="744" y1="197.5" x2="1120.5" y2="200" gradientUnits="userSpaceOnUse">
<stop stop-color="white"/>
<stop offset="1" stop-color="white" stop-opacity="0"/>
</linearGradient>
<linearGradient id="paint2_linear_758_701" x1="744" y1="197.5" x2="1120.5" y2="200" gradientUnits="userSpaceOnUse">
<stop stop-color="white"/>
<stop offset="1" stop-color="white" stop-opacity="0"/>
</linearGradient>
<linearGradient id="paint3_linear_758_701" x1="744" y1="197.5" x2="1120.5" y2="200" gradientUnits="userSpaceOnUse">
<stop stop-color="white"/>
<stop offset="1" stop-color="white" stop-opacity="0"/>
</linearGradient>
<linearGradient id="paint4_linear_758_701" x1="744" y1="197.5" x2="1120.5" y2="200" gradientUnits="userSpaceOnUse">
<stop stop-color="white"/>
<stop offset="1" stop-color="white" stop-opacity="0"/>
</linearGradient>
<linearGradient id="paint5_linear_758_701" x1="373" y1="200" x2="-1.54975e-07" y2="200" gradientUnits="userSpaceOnUse">
<stop stop-color="white"/>
<stop offset="1" stop-color="white" stop-opacity="0"/>
</linearGradient>
<linearGradient id="paint6_linear_758_701" x1="373" y1="200" x2="-1.54975e-07" y2="200" gradientUnits="userSpaceOnUse">
<stop stop-color="white"/>
<stop offset="1" stop-color="white" stop-opacity="0"/>
</linearGradient>
<linearGradient id="paint7_linear_758_701" x1="373" y1="200" x2="-1.54975e-07" y2="200" gradientUnits="userSpaceOnUse">
<stop stop-color="white"/>
<stop offset="1" stop-color="white" stop-opacity="0"/>
</linearGradient>
<linearGradient id="paint8_linear_758_701" x1="373" y1="200" x2="-1.54975e-07" y2="200" gradientUnits="userSpaceOnUse">
<stop stop-color="white"/>
<stop offset="1" stop-color="white" stop-opacity="0"/>
</linearGradient>
<linearGradient id="paint9_linear_758_701" x1="373" y1="200" x2="-1.54975e-07" y2="200" gradientUnits="userSpaceOnUse">
<stop stop-color="white"/>
<stop offset="1" stop-color="white" stop-opacity="0"/>
</linearGradient>
<linearGradient id="paint10_linear_758_701" x1="373" y1="399.574" x2="373" y2="0" gradientUnits="userSpaceOnUse">
<stop stop-color="white" stop-opacity="0"/>
<stop offset="0.491227" stop-color="white"/>
<stop offset="1" stop-color="white" stop-opacity="0"/>
</linearGradient>
<linearGradient id="paint11_linear_758_701" x1="207.75" y1="77.9999" x2="911" y2="78" gradientUnits="userSpaceOnUse">
<stop stop-color="white" stop-opacity="0"/>
<stop offset="0.491227" stop-color="white"/>
<stop offset="1" stop-color="white" stop-opacity="0"/>
</linearGradient>
<linearGradient id="paint12_linear_758_701" x1="207.75" y1="158" x2="911" y2="158" gradientUnits="userSpaceOnUse">
<stop stop-color="white" stop-opacity="0"/>
<stop offset="0.491227" stop-color="white"/>
<stop offset="1" stop-color="white" stop-opacity="0"/>
</linearGradient>
<linearGradient id="paint13_linear_758_701" x1="207.75" y1="240" x2="911" y2="240" gradientUnits="userSpaceOnUse">
<stop stop-color="white" stop-opacity="0"/>
<stop offset="0.491227" stop-color="white"/>
<stop offset="1" stop-color="white" stop-opacity="0"/>
</linearGradient>
<linearGradient id="paint14_linear_758_701" x1="207.75" y1="320" x2="911" y2="320" gradientUnits="userSpaceOnUse">
<stop stop-color="white" stop-opacity="0"/>
<stop offset="0.491227" stop-color="white"/>
<stop offset="1" stop-color="white" stop-opacity="0"/>
</linearGradient>
<linearGradient id="paint15_linear_758_701" x1="683" y1="399.574" x2="683" y2="0" gradientUnits="userSpaceOnUse">
<stop stop-color="white" stop-opacity="0"/>
<stop offset="0.491227" stop-color="white"/>
<stop offset="1" stop-color="white" stop-opacity="0"/>
</linearGradient>
<linearGradient id="paint16_linear_758_701" x1="744" y1="399.574" x2="744" y2="0" gradientUnits="userSpaceOnUse">
<stop stop-color="white" stop-opacity="0"/>
<stop offset="0.491227" stop-color="white"/>
<stop offset="1" stop-color="white" stop-opacity="0"/>
</linearGradient>
</defs>
</svg>
