<svg width="234" height="18" viewBox="0 0 234 18" fill="none" xmlns="http://www.w3.org/2000/svg">
<path d="M72.9069 1.57745V17.2176" stroke="white" stroke-width="1.5"/>
<path d="M80.7269 9.39752L65.0868 9.39752" stroke="white" stroke-width="1.5"/>
<path d="M102.623 9.39783L118.263 9.39783" stroke="white" stroke-width="1.5"/>
<g clip-path="url(#clip0_5_4486)">
<path d="M232.912 5.47135H231.068V1.58502H221.292V5.47135H219.449C218.848 5.47135 218.359 5.96011 218.359 6.56103V13.188C218.359 13.789 218.848 14.2777 219.449 14.2777H221.292V17.2105H231.068V14.2777H232.912C233.512 14.2777 234.001 13.789 234.001 13.188V6.56103C234.001 5.96011 233.512 5.47135 232.912 5.47135ZM222.27 2.54736H230.09V5.47134H222.27V2.54736ZM230.09 16.233H222.27V10.8506H230.09V16.233ZM233.023 13.188C233.023 13.2504 232.973 13.3002 232.912 13.3002H231.068V9.87306H221.292V13.3H219.449C219.387 13.3 219.337 13.2501 219.337 13.1878V6.56101C219.337 6.49894 219.387 6.44883 219.449 6.44883H232.912C232.973 6.44883 233.023 6.49893 233.023 6.56101V13.188ZM231.068 7.43417H230.579C230.309 7.43417 230.09 7.65314 230.09 7.92293C230.09 8.19272 230.309 8.41168 230.579 8.41168H231.068C231.338 8.41168 231.556 8.19272 231.556 7.92293C231.556 7.65314 231.338 7.43417 231.068 7.43417Z" fill="white"/>
</g>
<path opacity="0.3" d="M91.6749 0.795715L91.6749 17.9999" stroke="white"/>
<path opacity="0.3" d="M54.1384 0.795776L54.1384 17.9999" stroke="white"/>
<path opacity="0.3" d="M129.211 0.795715L129.211 17.9999" stroke="white"/>
<path opacity="0.3" d="M168.312 0.795715L168.312 17.9999" stroke="white"/>
<path opacity="0.3" d="M207.412 0.795715L207.412 17.9999" stroke="white"/>
<path d="M3.262 13.4258H10.71V10.2618H2.086V11.1718H9.562V12.5578H2.128V15.8058H11.018V14.8958H3.262V13.4258ZM10.388 8.07783C10.668 6.66383 10.668 5.58583 10.668 4.73183V3.93383H2.198V4.85783H9.534C9.534 5.68383 9.52 6.69183 9.24 8.07783H0.742V9.00183H12.138V8.07783H10.388ZM23.3369 7.71383C23.6869 6.15983 23.6869 4.96983 23.6869 4.28383V3.80783H19.4589V4.73183H22.5669C22.5529 5.38983 22.4969 6.31383 22.2169 7.58783L23.3369 7.71383ZM17.8489 7.74183C18.4229 6.17383 18.4229 4.92783 18.4229 4.26983V3.80783H14.6009V4.73183H17.3029C17.2749 5.37583 17.1769 6.27183 16.7289 7.55983L17.8489 7.74183ZM16.2249 13.5378H23.5049V10.5558H15.0629V11.4658H22.3849V12.6698H15.0909V15.8198H23.9529V14.9098H16.2249V13.5378ZM20.0889 8.49783V6.34183H18.9549V8.49783H13.6349V9.42183H24.9609V8.49783H20.0889Z" fill="white"/>
<path d="M42.4083 7.83392L38.8893 11.744L35.3703 7.83392" stroke="white" stroke-opacity="0.6" stroke-width="1.5" stroke-linecap="round" stroke-linejoin="round"/>
<path d="M188.294 12.5171L187.862 12.2128L187.43 12.5171L183.92 14.9901V3.77683C183.92 3.36989 184.224 3.10986 184.51 3.10986H191.213C191.5 3.10986 191.804 3.36989 191.804 3.77683V8.02772V14.9901L188.294 12.5171Z" stroke="white" stroke-width="1.5"/>
<path fill-rule="evenodd" clip-rule="evenodd" d="M156.288 2.94635V4.74203L150.912 9.85919V15.8495H146.611V9.85919L141.234 4.74096V2.94635H156.288ZM147.686 9.39791V14.7742H149.837V9.39791L155.213 4.27967V4.02161H142.31V4.27967L147.686 9.39791Z" fill="white"/>
<defs>
<clipPath id="clip0_5_4486">
<rect width="15.6401" height="15.6401" fill="white" transform="translate(218.36 1.57776)"/>
</clipPath>
</defs>
</svg>
