<svg width="22" height="16" viewBox="0 0 22 16" fill="none" xmlns="http://www.w3.org/2000/svg">
<path fill-rule="evenodd" clip-rule="evenodd" d="M7.20768 8.00033C9.30231 8.00033 10.9993 6.30328 10.9993 4.20866C10.9993 2.11403 9.30231 0.416992 7.20768 0.416992C5.11306 0.416992 3.41602 2.11403 3.41602 4.20866C3.41602 6.30328 5.11306 8.00033 7.20768 8.00033ZM9.91601 4.20866C9.91601 5.70528 8.70431 6.91699 7.20768 6.91699C5.71106 6.91699 4.49935 5.70528 4.49935 4.20866C4.49935 2.71203 5.71106 1.50033 7.20768 1.50033C8.70431 1.50033 9.91601 2.71203 9.91601 4.20866ZM0.166016 15.5837V12.5503C0.166016 10.245 4.85739 9.08366 7.20768 9.08366C8.77093 9.08366 11.3704 9.5977 12.9358 10.6204C14.0516 10.3187 15.2753 10.167 16.1452 10.167C17.1516 10.167 18.502 10.3696 19.6173 10.7791C20.173 10.9838 20.7055 11.2525 21.1079 11.6002C21.5136 11.9507 21.8327 12.4247 21.8327 13.0194V15.5837H0.166016ZM1.24935 12.5503C1.24935 12.3786 1.32843 12.1435 1.66427 11.838C2.00714 11.526 2.53472 11.2238 3.2026 10.9605C4.54106 10.4324 6.16606 10.167 7.20768 10.167C8.24931 10.167 9.87485 10.4324 11.2122 10.9605C11.8806 11.2238 12.4082 11.526 12.7506 11.838C13.0869 12.1435 13.166 12.3786 13.166 12.5503V14.5003H1.24935V12.5503ZM13.8989 11.5049C14.7184 11.3354 15.5401 11.2503 16.1452 11.2503C17.0373 11.2503 18.2593 11.4345 19.2435 11.7963C19.7359 11.9772 20.134 12.1907 20.4 12.4203C20.6627 12.6473 20.7493 12.8466 20.7493 13.0199V14.5003H14.2493V12.5503C14.2493 12.1712 14.1221 11.8218 13.8989 11.5049ZM19.1243 6.10449C19.1243 7.75062 17.7913 9.08366 16.1452 9.08366C15.7539 9.08373 15.3665 9.00672 15.005 8.85703C14.6435 8.70734 14.3151 8.4879 14.0384 8.21124C13.7618 7.93458 13.5423 7.60614 13.3926 7.24465C13.243 6.88317 13.1659 6.49574 13.166 6.10449C13.166 4.45837 14.4991 3.12533 16.1452 3.12533C17.7913 3.12533 19.1243 4.45837 19.1243 6.10449ZM16.1452 8.00033C17.1928 8.00033 18.041 7.15208 18.041 6.10449C18.041 5.05691 17.1928 4.20866 16.1452 4.20866C15.8962 4.20852 15.6496 4.25746 15.4195 4.35268C15.1894 4.44791 14.9804 4.58755 14.8043 4.76362C14.6282 4.93969 14.4886 5.14874 14.3934 5.37882C14.2981 5.6089 14.2492 5.85549 14.2493 6.10449C14.2493 7.15208 15.0976 8.00033 16.1452 8.00033Z" fill="white" fill-opacity="0.7"/>
</svg>
