<svg width="127" height="127" viewBox="0 0 127 127" fill="none" xmlns="http://www.w3.org/2000/svg">
<circle cx="63.5" cy="63.5" r="63.5" fill="black"/>
<path fill-rule="evenodd" clip-rule="evenodd" d="M59.4759 25.0007C60.0796 25.0008 60.6784 25.0232 61.2723 25.068C64.7799 25.3329 68.1808 26.3741 71.2191 28.1133C74.2574 29.8525 76.8542 32.2446 78.8142 35.1096L78.8131 35.1103C80.0849 36.965 81.0599 39.1 81.8696 41.0936C89.3541 47.0454 94 56.6056 94 67.0559C94 85.2418 79.7357 100 61.5716 100C56.5408 100 51.6295 99.5124 47.213 97.3477L46.6219 97.0579V85.9404L48.0373 86.4166C50.87 87.3696 53.8444 87.8545 56.8392 87.8513H56.8403C64.4349 87.8513 71.4516 84.9878 76.4859 79.7348C81.5159 74.4863 84.6265 66.7888 84.2822 57.0178C84.1208 52.3522 83.3349 49.323 82.475 47.1582C82.043 46.0706 81.5857 45.1843 81.1568 44.3916C81.0784 44.2467 80.9996 44.1025 80.9211 43.959C80.633 43.4323 80.3505 42.9157 80.118 42.4135C75.6983 39.0361 70.2789 37.0033 64.299 36.9068H63.2235C57.6128 36.9068 52.2321 39.0925 48.265 42.9828C44.2979 46.8731 42.0692 52.1494 42.0692 57.6509C42.0692 58.4734 42.1181 59.2847 42.2132 60.0822C42.8705 60.9641 43.5994 61.7957 44.3939 62.5686C46.3764 64.4971 48.7287 66.0215 51.315 67.0541C53.9013 68.0867 56.6706 68.6069 59.4629 68.5847L59.4673 68.5847H59.4717C60.3628 68.5847 61.2531 68.5302 62.1373 68.4215L63.339 68.2738V80.4679H62.1712V79.6935L62.1343 80.4668C50.8824 79.9491 41.709 71.6119 40.1617 60.8714C39.2226 59.5455 38.4272 58.1225 37.7911 56.6251C36.6088 53.8418 36 50.8565 36 47.8413C36 44.8261 36.6088 41.8408 37.7911 39.0575C38.9735 36.2742 40.7061 33.748 42.889 31.6247C45.0718 29.5013 47.6617 27.8228 50.5093 26.686C53.3556 25.5496 56.403 24.9769 59.4759 25.0007ZM39.9729 56.2929C40.3105 50.7301 42.7133 45.4618 46.7539 41.4995C51.122 37.216 57.0463 34.8096 63.2235 34.8096H64.3441C69.5584 34.8954 74.3515 36.3311 78.4949 38.7725C78.0526 37.8979 77.5712 37.0561 77.0385 36.2795L77.3686 36.0616L77.0393 36.2784C75.2594 33.6766 72.9012 31.5043 70.1419 29.9247C67.3826 28.3452 64.294 27.3996 61.1084 27.1591M84.5686 46.658C85.4805 49.0377 86.2556 52.2409 86.4185 56.9453C86.7801 67.2073 83.5083 75.469 78.0432 81.1714C72.5826 86.8691 64.9917 89.9482 56.8415 89.9485C54.1052 89.9514 51.3847 89.5768 48.7594 88.8375V95.7488C52.5833 97.4638 56.8908 97.9028 61.5716 97.9028C78.4753 97.9028 91.8625 84.1635 91.8625 67.0559C91.8625 59.2563 89.1381 52.0618 84.5686 46.658ZM39.9729 56.2929C39.9013 56.1356 39.8318 55.9774 39.7642 55.8183C38.6904 53.2906 38.1375 50.5795 38.1375 47.8413C38.1375 45.1031 38.6904 42.392 39.7642 39.8643C40.8379 37.3366 42.4114 35.0424 44.3939 33.114C46.3764 31.1855 48.7287 29.6611 51.315 28.6285C53.9013 27.5959 56.6706 27.0757 59.4629 27.0979L59.4673 27.0979H59.4716C60.0229 27.0979 60.5686 27.1183 61.1084 27.1591M43.1999 64.3548C45.8351 71.9161 52.8038 77.5119 61.2014 78.2997V70.6196C60.6273 70.661 60.0517 70.6818 59.4758 70.6819C56.4029 70.7057 53.3555 70.1329 50.5093 68.9966C47.7958 67.9133 45.3162 66.3381 43.1999 64.3548Z" fill="#F5F5F5"/>
</svg>
