<svg width="19" height="21" viewBox="0 0 19 21" fill="none" xmlns="http://www.w3.org/2000/svg">
<path d="M1.7802 13.8556C1.0802 15.7556 0.680199 17.0556 0.480199 17.7556C-0.119801 20.1556 -0.519801 20.6556 1.5802 19.5556C3.6802 18.4556 13.5802 12.8556 15.8802 11.6556C18.7802 10.0556 18.7802 10.1556 15.6802 8.45555C13.3802 7.05555 3.4802 1.65556 1.6802 0.555556C-0.119802 -0.544445 -0.0198014 -0.0444443 0.480199 2.35556C0.680199 3.15556 1.0802 4.45556 1.7802 6.25556C2.2802 7.55556 3.3802 8.55556 4.7802 8.75556L10.5802 9.85556C10.6802 9.85556 10.6802 9.95555 10.6802 9.95555C10.6802 9.95555 10.6802 10.0556 10.5802 10.0556L4.7802 11.1556C3.4802 11.5556 2.2802 12.4556 1.7802 13.8556V13.8556Z" fill="white"/>
</svg>
