<svg width="374" height="120" viewBox="0 0 374 120" fill="none" xmlns="http://www.w3.org/2000/svg">
<path d="M22.0029 63.6758C17.9968 63.6758 14.2988 62.735 10.909 60.8534C7.58083 58.9719 4.93062 56.3924 2.95837 53.1148C0.986124 49.8373 0 46.1349 0 42.0076C0 38.1838 0.986124 34.6635 2.95837 31.4466C4.93062 28.1691 7.61165 25.5592 11.0014 23.617C14.4529 21.6747 18.2433 20.7036 22.3727 20.7036C25.8241 20.7036 28.7825 21.2499 31.2478 22.3424C33.7131 23.4349 36.1168 25.1344 38.4588 27.4408V32.3571C36.425 29.383 34.1446 27.1373 31.6176 25.6199C29.1523 24.0418 26.0707 23.2528 22.3727 23.2528C18.9829 23.2528 15.778 24.1329 12.758 25.893C9.79961 27.5925 7.42675 29.8989 5.6394 32.8123C3.85205 35.7257 2.95837 38.8515 2.95837 42.1897C2.95837 45.8314 3.82123 49.1089 5.54695 52.0223C7.27267 54.875 9.58389 57.1207 12.4806 58.7595C15.439 60.3375 18.6131 61.1266 22.0029 61.1266C28.9058 61.1266 34.3911 58.0615 38.4588 51.9313V56.8476C36.2401 59.154 33.7748 60.8838 31.0629 62.037C28.4127 63.1295 25.3927 63.6758 22.0029 63.6758Z" fill="white"/>
<path d="M67.3289 63.949C63.1378 63.949 59.3474 62.9475 55.9576 60.9446C52.5678 58.881 49.9176 56.18 48.007 52.8418C46.0964 49.4429 45.1411 45.7708 45.1411 41.8256C45.1411 37.9411 46.0964 34.3298 48.007 30.9915C49.9793 27.6533 52.6295 25.0131 55.9576 23.0708C59.3474 21.0679 63.107 20.0664 67.2364 20.0664C71.3042 20.0664 75.0022 21.0679 78.3303 23.0708C81.7201 25.0131 84.3703 27.6533 86.2809 30.9915C88.1916 34.3298 89.1469 37.9411 89.1469 41.8256C89.1469 45.8922 88.2224 49.6249 86.3734 53.0239C84.5244 56.3621 81.9358 59.0327 78.6077 61.0356C75.3411 62.9779 71.5815 63.949 67.3289 63.949ZM67.3289 61.3998C70.8419 61.3998 74.0468 60.5197 76.9436 58.7596C79.8403 56.9994 82.0899 54.6626 83.6924 51.7493C85.3565 48.7752 86.1885 45.528 86.1885 42.0077C86.1885 38.5481 85.3565 35.3312 83.6924 32.3572C82.0283 29.3831 79.7479 27.016 76.8511 25.2558C73.9544 23.4957 70.7495 22.6156 67.2364 22.6156C63.7234 22.6156 60.4876 23.526 57.5293 25.3469C54.6325 27.107 52.3213 29.4742 50.5956 32.4482C48.9315 35.4223 48.0995 38.6391 48.0995 42.0987C48.0995 45.5584 48.9315 48.7752 50.5956 51.7493C52.3213 54.6626 54.6325 56.9994 57.5293 58.7596C60.4876 60.5197 63.7542 61.3998 67.3289 61.3998Z" fill="white"/>
<path d="M97.4709 21.523H100.429V27.7139C103.264 22.919 107.825 20.5215 114.112 20.5215C117.132 20.5215 119.751 21.3713 121.97 23.0707C124.189 24.7095 125.73 27.198 126.592 30.5362C127.394 27.5622 129.15 25.1647 131.862 23.3438C134.636 21.4623 137.748 20.5215 141.199 20.5215C145.699 20.5215 149.181 21.8265 151.646 24.4364C154.112 26.9856 155.344 30.6273 155.344 35.3615V62.4922H152.386V35.3615C152.386 31.5377 151.369 28.5333 149.335 26.3483C147.363 24.1632 144.743 23.0707 141.477 23.0707C139.011 23.0707 136.731 23.6777 134.636 24.8916C132.54 26.0448 130.876 27.6229 129.643 29.6258C128.411 31.6287 127.794 33.8441 127.794 36.2719V62.4922H124.836V37.0003C124.836 32.6302 123.788 29.2313 121.693 26.8035C119.597 24.315 116.885 23.0707 113.557 23.0707C111.338 23.0707 109.212 23.617 107.178 24.7095C105.206 25.802 103.573 27.289 102.278 29.1706C101.046 30.9914 100.429 32.9944 100.429 35.1794V62.4922H97.4709V21.523Z" fill="white"/>
<path d="M166.988 21.523H169.947V27.7139C172.782 22.919 177.343 20.5215 183.629 20.5215C186.649 20.5215 189.269 21.3713 191.487 23.0707C193.706 24.7095 195.247 27.198 196.11 30.5362C196.911 27.5622 198.668 25.1647 201.38 23.3438C204.153 21.4623 207.265 20.5215 210.717 20.5215C215.216 20.5215 218.698 21.8265 221.164 24.4364C223.629 26.9856 224.862 30.6273 224.862 35.3615V62.4922H221.903V35.3615C221.903 31.5377 220.886 28.5333 218.852 26.3483C216.88 24.1632 214.261 23.0707 210.994 23.0707C208.529 23.0707 206.249 23.6777 204.153 24.8916C202.057 26.0448 200.393 27.6229 199.161 29.6258C197.928 31.6287 197.312 33.8441 197.312 36.2719V62.4922H194.353V37.0003C194.353 32.6302 193.306 29.2313 191.21 26.8035C189.115 24.315 186.403 23.0707 183.075 23.0707C180.856 23.0707 178.729 23.617 176.696 24.7095C174.723 25.802 173.09 27.289 171.796 29.1706C170.563 30.9914 169.947 32.9944 169.947 35.1794V62.4922H166.988V21.523Z" fill="white"/>
<path d="M256.105 63.4937C252.161 63.4937 248.493 62.5226 245.104 60.5803C241.714 58.6381 239.033 56.0282 237.061 52.7506C235.088 49.4124 234.102 45.8314 234.102 42.0076C234.102 38.1838 235.088 34.6331 237.061 31.3556C239.033 28.0174 241.714 25.3771 245.104 23.4349C248.493 21.4926 252.161 20.5215 256.105 20.5215C260.111 20.5215 263.902 21.5837 267.476 23.708C271.051 25.7716 273.547 28.4726 274.965 31.8108V21.523H277.923V62.4922H274.965V52.2954C273.301 55.6944 270.712 58.4256 267.199 60.4893C263.748 62.4922 260.05 63.4937 256.105 63.4937ZM256.29 60.9445C259.68 60.9445 262.823 60.0948 265.72 58.3953C268.616 56.6351 270.897 54.3287 272.561 51.476C274.287 48.5627 275.15 45.4065 275.15 42.0076C275.15 38.6694 274.287 35.5436 272.561 32.6302C270.835 29.7168 268.524 27.4104 265.627 25.711C262.731 23.9508 259.587 23.0707 256.198 23.0707C252.808 23.0707 249.634 23.9508 246.675 25.711C243.779 27.4711 241.436 29.8079 239.649 32.7212C237.923 35.6346 237.061 38.7604 237.061 42.0986C237.061 45.4369 237.923 48.5627 239.649 51.476C241.436 54.3287 243.809 56.6351 246.768 58.3953C249.726 60.0948 252.9 60.9445 256.29 60.9445Z" fill="white"/>
<path fill-rule="evenodd" clip-rule="evenodd" d="M324.085 67.2391V76.8533C327.525 78.6013 332.215 79.5378 336.217 79.9124C351.725 81.161 372.612 69.0496 371.986 44.702C371.111 32.2784 365.983 26.5349 359.855 19.7925C353.914 13.6119 348.786 11.5518 342.345 11.1772C328.275 10.3656 317.144 22.4145 317.332 34.7132C317.644 50.6952 329.901 58.3741 340.282 58.936V49.4466C339.219 49.5715 338.093 49.6964 336.967 49.6964C323.21 49.6964 312.517 37.8347 313.017 24.8493C313.58 11.4893 325.086 2 337.092 2C340.407 2 355.102 3.49831 359.917 19.6052C376.426 37.148 361.23 75.792 327.462 68.3004C326.587 68.1131 325.086 67.6137 324.085 67.2391Z" stroke="white" stroke-width="2.6" stroke-miterlimit="10"/>
<path d="M373 89L373 99" stroke="white"/>
<path d="M312 89L312 99" stroke="white"/>
<path d="M312 94L373 94" stroke="white"/>
<path d="M0.5 89L0.5 99" stroke="white"/>
<path d="M277.5 89L277.5 99" stroke="white"/>
<path d="M0 94L278 94" stroke="white"/>
<path d="M329.265 111.546C329.223 111.186 329.05 110.906 328.747 110.707C328.444 110.509 328.072 110.409 327.632 110.409C327.31 110.409 327.028 110.461 326.786 110.565C326.547 110.67 326.36 110.813 326.225 110.995C326.093 111.177 326.026 111.385 326.026 111.617C326.026 111.811 326.073 111.978 326.165 112.117C326.26 112.255 326.38 112.369 326.527 112.462C326.674 112.552 326.828 112.626 326.989 112.685C327.15 112.742 327.298 112.788 327.433 112.824L328.171 113.023C328.361 113.073 328.571 113.141 328.803 113.229C329.038 113.316 329.262 113.436 329.475 113.587C329.69 113.737 329.868 113.928 330.007 114.163C330.147 114.397 330.217 114.685 330.217 115.026C330.217 115.419 330.114 115.774 329.908 116.091C329.704 116.408 329.406 116.66 329.013 116.847C328.622 117.034 328.148 117.128 327.589 117.128C327.068 117.128 326.617 117.044 326.236 116.876C325.857 116.708 325.559 116.473 325.341 116.173C325.126 115.872 325.004 115.523 324.975 115.125H325.884C325.908 115.4 326 115.627 326.161 115.807C326.325 115.984 326.531 116.117 326.779 116.205C327.03 116.29 327.3 116.332 327.589 116.332C327.925 116.332 328.227 116.278 328.495 116.169C328.762 116.058 328.974 115.904 329.13 115.707C329.286 115.509 329.365 115.277 329.365 115.011C329.365 114.77 329.297 114.573 329.162 114.422C329.027 114.27 328.85 114.147 328.629 114.053C328.409 113.958 328.171 113.875 327.916 113.804L327.021 113.548C326.453 113.385 326.003 113.152 325.671 112.849C325.34 112.546 325.174 112.149 325.174 111.659C325.174 111.252 325.284 110.897 325.504 110.594C325.727 110.288 326.025 110.052 326.399 109.884C326.776 109.713 327.196 109.628 327.66 109.628C328.129 109.628 328.545 109.712 328.91 109.88C329.275 110.046 329.563 110.273 329.776 110.562C329.992 110.851 330.106 111.179 330.117 111.546H329.265Z" fill="white"/>
<path d="M332.091 119.046C331.949 119.046 331.822 119.034 331.711 119.01C331.6 118.989 331.523 118.967 331.48 118.946L331.693 118.207C331.897 118.26 332.077 118.278 332.233 118.264C332.389 118.25 332.528 118.18 332.648 118.055C332.772 117.932 332.884 117.732 332.986 117.455L333.142 117.028L331.125 111.546H332.034L333.54 115.892H333.597L335.102 111.546H336.011L333.696 117.796C333.592 118.077 333.463 118.31 333.309 118.495C333.155 118.682 332.976 118.821 332.773 118.911C332.572 119.001 332.344 119.046 332.091 119.046Z" fill="white"/>
<path d="M337.118 117V111.546H337.927V112.398H337.998C338.112 112.107 338.295 111.881 338.549 111.72C338.802 111.556 339.106 111.475 339.461 111.475C339.821 111.475 340.121 111.556 340.36 111.72C340.601 111.881 340.789 112.107 340.924 112.398H340.981C341.121 112.116 341.33 111.892 341.61 111.727C341.889 111.559 342.224 111.475 342.615 111.475C343.102 111.475 343.501 111.627 343.811 111.933C344.122 112.236 344.277 112.708 344.277 113.35V117H343.439V113.35C343.439 112.947 343.329 112.659 343.108 112.487C342.888 112.314 342.629 112.227 342.331 112.227C341.947 112.227 341.65 112.343 341.439 112.575C341.229 112.805 341.123 113.096 341.123 113.449V117H340.271V113.264C340.271 112.954 340.17 112.704 339.969 112.515C339.768 112.323 339.509 112.227 339.191 112.227C338.974 112.227 338.77 112.285 338.581 112.401C338.394 112.517 338.242 112.678 338.126 112.884C338.012 113.088 337.956 113.323 337.956 113.591V117H337.118Z" fill="white"/>
<path d="M345.923 117V109.727H346.761V112.412H346.832C346.893 112.317 346.978 112.197 347.087 112.05C347.199 111.901 347.357 111.768 347.563 111.652C347.772 111.534 348.053 111.475 348.408 111.475C348.868 111.475 349.273 111.589 349.623 111.819C349.973 112.049 350.247 112.374 350.443 112.796C350.64 113.217 350.738 113.714 350.738 114.287C350.738 114.865 350.64 115.365 350.443 115.789C350.247 116.211 349.974 116.537 349.626 116.769C349.278 116.999 348.877 117.114 348.423 117.114C348.072 117.114 347.792 117.056 347.581 116.94C347.37 116.821 347.208 116.688 347.094 116.538C346.981 116.387 346.893 116.261 346.832 116.162H346.732V117H345.923ZM346.746 114.273C346.746 114.685 346.807 115.048 346.928 115.363C347.048 115.676 347.225 115.921 347.457 116.098C347.689 116.273 347.973 116.361 348.309 116.361C348.659 116.361 348.952 116.269 349.186 116.084C349.423 115.897 349.6 115.646 349.719 115.331C349.84 115.014 349.9 114.661 349.9 114.273C349.9 113.889 349.841 113.544 349.722 113.236C349.606 112.926 349.43 112.681 349.193 112.501C348.959 112.319 348.664 112.227 348.309 112.227C347.968 112.227 347.682 112.314 347.45 112.487C347.218 112.657 347.042 112.896 346.924 113.204C346.806 113.509 346.746 113.866 346.746 114.273Z" fill="white"/>
<path d="M354.236 117.114C353.743 117.114 353.311 116.997 352.94 116.762C352.57 116.528 352.282 116.2 352.073 115.778C351.867 115.357 351.764 114.865 351.764 114.301C351.764 113.733 351.867 113.237 352.073 112.813C352.282 112.39 352.57 112.06 352.94 111.826C353.311 111.592 353.743 111.475 354.236 111.475C354.728 111.475 355.159 111.592 355.528 111.826C355.9 112.06 356.189 112.39 356.395 112.813C356.603 113.237 356.707 113.733 356.707 114.301C356.707 114.865 356.603 115.357 356.395 115.778C356.189 116.2 355.9 116.528 355.528 116.762C355.159 116.997 354.728 117.114 354.236 117.114ZM354.236 116.361C354.61 116.361 354.918 116.265 355.159 116.073C355.401 115.881 355.579 115.629 355.695 115.317C355.811 115.004 355.869 114.666 355.869 114.301C355.869 113.937 355.811 113.597 355.695 113.282C355.579 112.967 355.401 112.713 355.159 112.519C354.918 112.324 354.61 112.227 354.236 112.227C353.862 112.227 353.554 112.324 353.313 112.519C353.071 112.713 352.892 112.967 352.776 113.282C352.66 113.597 352.602 113.937 352.602 114.301C352.602 114.666 352.66 115.004 352.776 115.317C352.892 115.629 353.071 115.881 353.313 116.073C353.554 116.265 353.862 116.361 354.236 116.361Z" fill="white"/>
<path d="M358.825 109.727V117H357.987V109.727H358.825Z" fill="white"/>
<path d="M116.998 117V109.727H117.878V116.219H121.259V117H116.998Z" fill="white"/>
<path d="M124.725 117.114C124.233 117.114 123.801 116.996 123.429 116.762C123.06 116.528 122.771 116.2 122.562 115.778C122.356 115.357 122.253 114.865 122.253 114.301C122.253 113.733 122.356 113.237 122.562 112.813C122.771 112.389 123.06 112.06 123.429 111.826C123.801 111.592 124.233 111.474 124.725 111.474C125.217 111.474 125.648 111.592 126.018 111.826C126.389 112.06 126.678 112.389 126.884 112.813C127.093 113.237 127.197 113.733 127.197 114.301C127.197 114.865 127.093 115.357 126.884 115.778C126.678 116.2 126.389 116.528 126.018 116.762C125.648 116.996 125.217 117.114 124.725 117.114ZM124.725 116.361C125.099 116.361 125.407 116.265 125.648 116.073C125.89 115.881 126.069 115.629 126.185 115.317C126.301 115.004 126.359 114.666 126.359 114.301C126.359 113.937 126.301 113.597 126.185 113.282C126.069 112.967 125.89 112.713 125.648 112.518C125.407 112.324 125.099 112.227 124.725 112.227C124.351 112.227 124.043 112.324 123.802 112.518C123.56 112.713 123.382 112.967 123.266 113.282C123.15 113.597 123.092 113.937 123.092 114.301C123.092 114.666 123.15 115.004 123.266 115.317C123.382 115.629 123.56 115.881 123.802 116.073C124.043 116.265 124.351 116.361 124.725 116.361Z" fill="white"/>
<path d="M130.678 119.159C130.273 119.159 129.925 119.107 129.634 119.003C129.342 118.901 129.1 118.766 128.906 118.598C128.714 118.432 128.561 118.255 128.448 118.065L129.115 117.597C129.191 117.696 129.287 117.81 129.403 117.938C129.519 118.068 129.677 118.18 129.879 118.275C130.082 118.372 130.349 118.42 130.678 118.42C131.118 118.42 131.481 118.314 131.768 118.101C132.054 117.888 132.198 117.554 132.198 117.099V115.991H132.127C132.065 116.091 131.977 116.214 131.864 116.361C131.752 116.505 131.591 116.634 131.381 116.748C131.172 116.859 130.891 116.915 130.536 116.915C130.095 116.915 129.7 116.811 129.35 116.602C129.002 116.394 128.726 116.091 128.522 115.693C128.321 115.295 128.22 114.813 128.22 114.244C128.22 113.686 128.319 113.199 128.515 112.785C128.712 112.368 128.985 112.046 129.335 111.819C129.686 111.589 130.091 111.474 130.55 111.474C130.905 111.474 131.187 111.534 131.395 111.652C131.606 111.768 131.767 111.901 131.878 112.05C131.992 112.197 132.079 112.317 132.141 112.412H132.226V111.545H133.036V117.156C133.036 117.625 132.929 118.006 132.716 118.3C132.505 118.596 132.221 118.812 131.864 118.95C131.509 119.089 131.113 119.159 130.678 119.159ZM130.649 116.162C130.985 116.162 131.27 116.085 131.502 115.931C131.734 115.777 131.91 115.556 132.031 115.267C132.151 114.978 132.212 114.633 132.212 114.23C132.212 113.837 132.153 113.49 132.034 113.19C131.916 112.889 131.741 112.653 131.509 112.483C131.277 112.313 130.99 112.227 130.649 112.227C130.294 112.227 129.998 112.317 129.761 112.497C129.527 112.677 129.351 112.919 129.232 113.222C129.116 113.525 129.058 113.861 129.058 114.23C129.058 114.609 129.118 114.944 129.236 115.235C129.357 115.524 129.534 115.751 129.769 115.917C130.005 116.08 130.299 116.162 130.649 116.162Z" fill="white"/>
<path d="M136.786 117.114C136.293 117.114 135.861 116.996 135.489 116.762C135.12 116.528 134.831 116.2 134.623 115.778C134.417 115.357 134.314 114.865 134.314 114.301C134.314 113.733 134.417 113.237 134.623 112.813C134.831 112.389 135.12 112.06 135.489 111.826C135.861 111.592 136.293 111.474 136.786 111.474C137.278 111.474 137.709 111.592 138.078 111.826C138.45 112.06 138.739 112.389 138.945 112.813C139.153 113.237 139.257 113.733 139.257 114.301C139.257 114.865 139.153 115.357 138.945 115.778C138.739 116.2 138.45 116.528 138.078 116.762C137.709 116.996 137.278 117.114 136.786 117.114ZM136.786 116.361C137.16 116.361 137.467 116.265 137.709 116.073C137.95 115.881 138.129 115.629 138.245 115.317C138.361 115.004 138.419 114.666 138.419 114.301C138.419 113.937 138.361 113.597 138.245 113.282C138.129 112.967 137.95 112.713 137.709 112.518C137.467 112.324 137.16 112.227 136.786 112.227C136.412 112.227 136.104 112.324 135.862 112.518C135.621 112.713 135.442 112.967 135.326 113.282C135.21 113.597 135.152 113.937 135.152 114.301C135.152 114.666 135.21 115.004 135.326 115.317C135.442 115.629 135.621 115.881 135.862 116.073C136.104 116.265 136.412 116.361 136.786 116.361Z" fill="white"/>
<path d="M142.909 111.545V112.256H140.082V111.545H142.909ZM140.906 110.239H141.744V115.438C141.744 115.674 141.778 115.852 141.847 115.97C141.918 116.086 142.008 116.164 142.117 116.205C142.228 116.242 142.345 116.261 142.468 116.261C142.561 116.261 142.636 116.257 142.696 116.247C142.755 116.235 142.802 116.226 142.838 116.219L143.008 116.972C142.951 116.993 142.872 117.014 142.77 117.036C142.668 117.059 142.539 117.071 142.383 117.071C142.146 117.071 141.914 117.02 141.687 116.918C141.462 116.817 141.275 116.661 141.126 116.453C140.979 116.245 140.906 115.982 140.906 115.665V110.239Z" fill="white"/>
<path d="M144.709 119.045C144.567 119.045 144.44 119.034 144.329 119.01C144.218 118.989 144.141 118.967 144.098 118.946L144.311 118.207C144.515 118.259 144.695 118.278 144.851 118.264C145.007 118.25 145.146 118.18 145.267 118.055C145.39 117.932 145.502 117.732 145.604 117.455L145.76 117.028L143.743 111.545H144.652L146.158 115.892H146.215L147.72 111.545H148.63L146.314 117.795C146.21 118.077 146.081 118.31 145.927 118.495C145.773 118.682 145.595 118.821 145.391 118.911C145.19 119 144.962 119.045 144.709 119.045Z" fill="white"/>
<path d="M149.736 119.045V111.545H150.545V112.412H150.645C150.706 112.317 150.792 112.197 150.901 112.05C151.012 111.901 151.17 111.768 151.376 111.652C151.585 111.534 151.866 111.474 152.222 111.474C152.681 111.474 153.086 111.589 153.436 111.819C153.786 112.049 154.06 112.374 154.256 112.795C154.453 113.217 154.551 113.714 154.551 114.287C154.551 114.865 154.453 115.365 154.256 115.789C154.06 116.21 153.788 116.537 153.44 116.769C153.092 116.999 152.69 117.114 152.236 117.114C151.885 117.114 151.605 117.056 151.394 116.94C151.183 116.821 151.021 116.688 150.908 116.538C150.794 116.387 150.706 116.261 150.645 116.162H150.574V119.045H149.736ZM150.56 114.273C150.56 114.685 150.62 115.048 150.741 115.363C150.861 115.675 151.038 115.92 151.27 116.098C151.502 116.273 151.786 116.361 152.122 116.361C152.472 116.361 152.765 116.268 152.999 116.084C153.236 115.897 153.414 115.646 153.532 115.331C153.653 115.014 153.713 114.661 153.713 114.273C153.713 113.889 153.654 113.544 153.535 113.236C153.419 112.926 153.243 112.681 153.006 112.501C152.772 112.318 152.477 112.227 152.122 112.227C151.781 112.227 151.495 112.314 151.263 112.487C151.031 112.657 150.856 112.896 150.737 113.204C150.619 113.509 150.56 113.866 150.56 114.273Z" fill="white"/>
<path d="M158.116 117.114C157.591 117.114 157.137 116.998 156.756 116.766C156.378 116.531 156.085 116.205 155.879 115.786C155.676 115.364 155.574 114.874 155.574 114.315C155.574 113.757 155.676 113.264 155.879 112.838C156.085 112.41 156.372 112.076 156.739 111.837C157.108 111.595 157.539 111.474 158.031 111.474C158.315 111.474 158.596 111.522 158.873 111.616C159.15 111.711 159.402 111.865 159.629 112.078C159.856 112.289 160.038 112.568 160.173 112.916C160.307 113.264 160.375 113.693 160.375 114.202V114.557H156.17V113.832H159.523C159.523 113.525 159.461 113.25 159.338 113.009C159.217 112.767 159.044 112.576 158.82 112.437C158.597 112.297 158.334 112.227 158.031 112.227C157.697 112.227 157.409 112.31 157.165 112.476C156.923 112.639 156.737 112.852 156.607 113.115C156.477 113.378 156.412 113.66 156.412 113.96V114.443C156.412 114.855 156.483 115.204 156.625 115.491C156.769 115.775 156.969 115.991 157.225 116.141C157.481 116.287 157.778 116.361 158.116 116.361C158.337 116.361 158.535 116.33 158.713 116.268C158.893 116.205 159.048 116.11 159.178 115.984C159.308 115.857 159.409 115.698 159.48 115.509L160.29 115.736C160.204 116.01 160.061 116.252 159.86 116.46C159.659 116.666 159.41 116.827 159.114 116.943C158.818 117.057 158.486 117.114 158.116 117.114Z" fill="white"/>
</svg>
