<svg width="320" height="320" viewBox="0 0 320 320" fill="none" xmlns="http://www.w3.org/2000/svg">
<rect opacity="0.15" x="110.5" y="101.5" width="99" height="99" rx="24.5" stroke="white" stroke-dasharray="2 2"/>
<rect opacity="0.15" x="110.5" y="101.5" width="99" height="99" stroke="white" stroke-dasharray="2 2"/>
<rect opacity="0.15" x="110.5" y="101.5" width="99" height="99" rx="49.5" stroke="white" stroke-dasharray="2 2"/>
<rect opacity="0.15" x="110.5" y="101.5" width="99" height="99" rx="37.5" stroke="white" stroke-dasharray="2 2"/>
<path fill-rule="evenodd" clip-rule="evenodd" d="M147.515 168.493V174.902C149.847 176.068 153.027 176.692 155.74 176.942C166.254 177.774 180.415 169.7 179.991 153.468C179.397 145.186 175.921 141.357 171.766 136.862C167.738 132.741 164.262 131.368 159.895 131.118C150.356 130.577 142.81 138.61 142.937 146.809C143.149 157.463 151.458 162.583 158.496 162.957V156.631C157.775 156.714 157.012 156.798 156.249 156.798C146.922 156.798 139.672 148.89 140.011 140.233C140.393 131.326 148.194 125 156.334 125C158.581 125 168.544 125.999 171.808 136.737C183.001 148.432 172.699 174.195 149.805 169.2C149.211 169.075 148.194 168.742 147.515 168.493Z" stroke="#F5F5F5" stroke-width="1.4" stroke-miterlimit="10"/>
<path opacity="0.15" d="M280.416 271.418L40 31.0017" stroke="url(#paint0_linear_805_729)" stroke-dasharray="2 2"/>
<path opacity="0.15" d="M40 271.418L280.416 31.0017" stroke="url(#paint1_linear_805_729)" stroke-dasharray="2 2"/>
<path opacity="0.15" d="M0 151.422L320 151.422" stroke="url(#paint2_linear_805_729)" stroke-dasharray="2 2"/>
<path opacity="0.15" d="M160 296L160 5.99999" stroke="url(#paint3_linear_805_729)" stroke-dasharray="2 2"/>
<defs>
<linearGradient id="paint0_linear_805_729" x1="40.256" y1="31.2577" x2="280.416" y2="271.418" gradientUnits="userSpaceOnUse">
<stop offset="0.119792" stop-color="white" stop-opacity="0"/>
<stop offset="0.491227" stop-color="white"/>
<stop offset="0.885417" stop-color="white" stop-opacity="0"/>
</linearGradient>
<linearGradient id="paint1_linear_805_729" x1="280.16" y1="31.2577" x2="40" y2="271.418" gradientUnits="userSpaceOnUse">
<stop offset="0.119792" stop-color="white" stop-opacity="0"/>
<stop offset="0.491227" stop-color="white"/>
<stop offset="0.885417" stop-color="white" stop-opacity="0"/>
</linearGradient>
<linearGradient id="paint2_linear_805_729" x1="319.659" y1="151.422" x2="0" y2="151.422" gradientUnits="userSpaceOnUse">
<stop offset="0.125" stop-color="white" stop-opacity="0"/>
<stop offset="0.491227" stop-color="white"/>
<stop offset="0.880208" stop-color="white" stop-opacity="0"/>
</linearGradient>
<linearGradient id="paint3_linear_805_729" x1="160" y1="6.30884" x2="160" y2="296" gradientUnits="userSpaceOnUse">
<stop offset="0.119792" stop-color="white" stop-opacity="0"/>
<stop offset="0.491227" stop-color="white"/>
<stop offset="0.885417" stop-color="white" stop-opacity="0"/>
</linearGradient>
</defs>
</svg>
