<svg width="320" height="320" viewBox="0 0 320 320" fill="none" xmlns="http://www.w3.org/2000/svg">
<rect opacity="0.15" x="110.5" y="110.5" width="99" height="99" rx="24.5" stroke="white" stroke-dasharray="2 2"/>
<rect opacity="0.15" x="110.5" y="110.5" width="99" height="99" stroke="white" stroke-dasharray="2 2"/>
<rect opacity="0.15" x="110.5" y="110.5" width="99" height="99" rx="49.5" stroke="white" stroke-dasharray="2 2"/>
<rect opacity="0.15" x="110.5" y="110.5" width="99" height="99" rx="37.5" stroke="white" stroke-dasharray="2 2"/>
<path fill-rule="evenodd" clip-rule="evenodd" d="M147.515 177.493V183.902C149.847 185.068 153.027 185.692 155.74 185.942C166.254 186.774 180.415 178.7 179.991 162.468C179.397 154.186 175.921 150.357 171.766 145.862C167.738 141.741 164.262 140.368 159.895 140.118C150.356 139.577 142.81 147.61 142.937 155.809C143.149 166.463 151.458 171.583 158.496 171.957V165.631C157.775 165.714 157.012 165.798 156.249 165.798C146.922 165.798 139.672 157.89 140.011 149.233C140.393 140.326 148.194 134 156.334 134C158.581 134 168.544 134.999 171.808 145.737C183.001 157.432 172.699 183.195 149.805 178.2C149.211 178.075 148.194 177.742 147.515 177.493Z" stroke="#F5F5F5" stroke-width="1.4" stroke-miterlimit="10"/>
<path opacity="0.15" d="M287.558 287.559L32.9999 33.0002" stroke="url(#paint0_linear_770_719)" stroke-dasharray="2 2"/>
<path opacity="0.15" d="M33 287.559L287.558 33.0002" stroke="url(#paint1_linear_770_719)" stroke-dasharray="2 2"/>
<path opacity="0.15" d="M0 160.422L320 160.422" stroke="url(#paint2_linear_770_719)" stroke-dasharray="2 2"/>
<path opacity="0.15" d="M160 320L160 5.66244e-06" stroke="url(#paint3_linear_770_719)" stroke-dasharray="2 2"/>
<defs>
<linearGradient id="paint0_linear_770_719" x1="33.271" y1="33.2712" x2="287.558" y2="287.559" gradientUnits="userSpaceOnUse">
<stop offset="0.119792" stop-color="white" stop-opacity="0"/>
<stop offset="0.491227" stop-color="white"/>
<stop offset="0.885417" stop-color="white" stop-opacity="0"/>
</linearGradient>
<linearGradient id="paint1_linear_770_719" x1="287.287" y1="33.2712" x2="33" y2="287.559" gradientUnits="userSpaceOnUse">
<stop offset="0.119792" stop-color="white" stop-opacity="0"/>
<stop offset="0.491227" stop-color="white"/>
<stop offset="0.885417" stop-color="white" stop-opacity="0"/>
</linearGradient>
<linearGradient id="paint2_linear_770_719" x1="319.659" y1="160.422" x2="0" y2="160.422" gradientUnits="userSpaceOnUse">
<stop offset="0.125" stop-color="white" stop-opacity="0"/>
<stop offset="0.491227" stop-color="white"/>
<stop offset="0.880208" stop-color="white" stop-opacity="0"/>
</linearGradient>
<linearGradient id="paint3_linear_770_719" x1="160" y1="0.340785" x2="160" y2="320" gradientUnits="userSpaceOnUse">
<stop offset="0.119792" stop-color="white" stop-opacity="0"/>
<stop offset="0.491227" stop-color="white"/>
<stop offset="0.885417" stop-color="white" stop-opacity="0"/>
</linearGradient>
</defs>
</svg>
