<svg width="599" height="259" viewBox="0 0 599 259" fill="none" xmlns="http://www.w3.org/2000/svg">
<path d="M519.3 166.4V181.8C524.8 184.6 532.3 186.1 538.7 186.7C563.5 188.7 596.9 169.3 595.9 130.3C594.5 110.4 586.3 101.2 576.5 90.3999C567 80.4999 558.8 77.1999 548.5 76.5999C526 75.2999 508.2 94.5999 508.5 114.3C509 139.9 528.6 152.2 545.2 153.1V137.9C543.5 138.1 541.7 138.3 539.9 138.3C517.9 138.3 500.8 119.3 501.6 98.4999C502.5 77.0999 520.9 61.8999 540.1 61.8999C545.4 61.8999 568.9 64.2999 576.6 90.0999C603 118.2 578.7 180.1 524.7 168.1C523.3 167.8 520.9 167 519.3 166.4Z" stroke="#202328" stroke-width="4.3" stroke-miterlimit="10"/>
<path d="M35.7 158.7C29.3 158.7 23.4 157.2 17.9 154.2C12.6 151.2 8.3 147.1 5.2 141.8C2 136.6 0.5 130.6 0.5 124C0.5 117.9 2.1 112.2 5.2 107.1C8.4 101.9 12.6 97.6999 18.1 94.5999C23.6 91.4999 29.7 89.8999 36.3 89.8999C41.8 89.8999 46.6 90.7999 50.5 92.4999C54.4 94.1999 58.3 96.9999 62 100.7V108.6C58.7 103.8 55.1 100.2 51.1 97.7999C47.2 95.2999 42.2 93.9999 36.3 93.9999C30.9 93.9999 25.7 95.3999 20.9 98.1999C16.2 100.9 12.4 104.6 9.5 109.3C6.6 114 5.2 119 5.2 124.3C5.2 130.1 6.6 135.4 9.3 140C12.1 144.6 15.8 148.2 20.4 150.8C25.1 153.3 30.2 154.6 35.6 154.6C46.6 154.6 55.4 149.7 61.9 139.9V147.8C58.3 151.5 54.4 154.3 50.1 156.1C46 157.9 41.1 158.7 35.7 158.7Z" fill="#202328"/>
<path d="M108.3 159.5C101.6 159.5 95.5 157.9 90.1 154.7C84.7 151.4 80.4 147.1 77.4 141.7C74.3 136.3 72.8 130.4 72.8 124.1C72.8 117.9 74.3 112.1 77.4 106.8C80.6 101.5 84.8 97.2 90.1 94.1C95.5 90.9 101.5 89.3 108.2 89.3C114.7 89.3 120.6 90.9 126 94.1C131.4 97.2 135.7 101.4 138.7 106.8C141.8 112.1 143.3 117.9 143.3 124.1C143.3 130.6 141.8 136.6 138.9 142C135.9 147.3 131.8 151.6 126.5 154.8C121.1 157.9 115.1 159.5 108.3 159.5ZM108.3 155.4C113.9 155.4 119.1 154 123.7 151.2C128.3 148.4 131.9 144.6 134.5 140C137.2 135.2 138.5 130 138.5 124.4C138.5 118.9 137.2 113.7 134.5 109C131.8 104.2 128.2 100.5 123.6 97.6C119 94.8 113.8 93.4001 108.2 93.4001C102.6 93.4001 97.4 94.9 92.7 97.8C88 100.5 84.3 104.3 81.5 109C78.8 113.8 77.5 118.9 77.5 124.4C77.5 129.9 78.8 135.1 81.5 139.8C84.3 144.5 88 148.2 92.6 151C97.3 154 102.6 155.4 108.3 155.4Z" fill="#202328"/>
<path d="M156.5 92.4001H161.2V102.3C165.7 94.6 173 90.8 183.1 90.8C187.9 90.8 192.1 92.2001 195.7 94.9001C199.3 97.5001 201.7 101.5 203.1 106.8C204.4 102 207.2 98.2 211.5 95.3C215.9 92.3 220.9 90.8 226.4 90.8C233.6 90.8 239.2 92.9 243.1 97.1C247 101.2 249 107 249 114.6V158H244.3V114.5C244.3 108.4 242.7 103.6 239.4 100.1C236.2 96.6 232.1 94.9001 226.8 94.9001C222.9 94.9001 219.2 95.9 215.9 97.8C212.5 99.6 209.9 102.2 207.9 105.4C205.9 108.6 204.9 112.2 204.9 116V158H200.2V117.1C200.2 110.1 198.5 104.7 195.2 100.8C191.8 96.8 187.5 94.8 182.2 94.8C178.6 94.8 175.2 95.7001 172 97.4001C168.8 99.1001 166.2 101.5 164.2 104.5C162.2 107.4 161.2 110.6 161.2 114.1V157.8H156.5V92.4001V92.4001Z" fill="#202328"/>
<path d="M267.8 92.4001H272.5V102.3C277 94.6 284.3 90.8 294.4 90.8C299.2 90.8 303.4 92.2001 307 94.9001C310.6 97.5001 313 101.5 314.4 106.8C315.7 102 318.5 98.2 322.8 95.3C327.2 92.3 332.2 90.8 337.7 90.8C344.9 90.8 350.5 92.9 354.4 97.1C358.3 101.2 360.3 107 360.3 114.6V158H355.6V114.5C355.6 108.4 354 103.6 350.7 100.1C347.5 96.6 343.4 94.9001 338.1 94.9001C334.2 94.9001 330.5 95.9 327.2 97.8C323.8 99.6 321.2 102.2 319.2 105.4C317.2 108.6 316.2 112.2 316.2 116V158H311.5V117.1C311.5 110.1 309.8 104.7 306.5 100.8C303.1 96.8 298.8 94.8 293.5 94.8C289.9 94.8 286.5 95.7001 283.3 97.4001C280.1 99.1001 277.5 101.5 275.5 104.5C273.5 107.4 272.5 110.6 272.5 114.1V157.8H267.8V92.4001V92.4001Z" fill="#202328"/>
<path d="M410.4 158.7C404.1 158.7 398.2 157.1 392.8 154C387.4 150.9 383.1 146.7 379.9 141.5C376.7 136.2 375.2 130.4 375.2 124.3C375.2 118.2 376.8 112.5 379.9 107.3C383.1 102 387.3 97.6999 392.8 94.5999C398.2 91.4999 404.1 89.8999 410.4 89.8999C416.8 89.8999 422.9 91.5999 428.6 94.9999C434.3 98.2999 438.3 102.6 440.6 108V91.5999H445.3V157.2H440.6V140.8C437.9 146.2 433.8 150.6 428.2 153.9C422.7 157.1 416.7 158.7 410.4 158.7ZM410.7 154.7C416.1 154.7 421.2 153.3 425.8 150.6C430.4 147.8 434.1 144.1 436.7 139.5C439.5 134.8 440.8 129.8 440.8 124.3C440.8 119 439.4 114 436.7 109.3C433.9 104.6 430.2 100.9 425.6 98.1999C421 95.3999 416 93.9999 410.6 93.9999C405.2 93.9999 400.1 95.3999 395.4 98.1999C390.8 101 387 104.8 384.2 109.4C381.4 114.1 380.1 119.1 380.1 124.4C380.1 129.7 381.5 134.7 384.2 139.4C387.1 144 390.9 147.7 395.6 150.5C400.2 153.3 405.3 154.7 410.7 154.7Z" fill="#202328"/>
<path d="M598 26L598 38" stroke="black" stroke-width="1.5"/>
<path d="M500 26L500 38" stroke="black" stroke-width="1.5"/>
<path d="M500 31.9578L598 31.9578" stroke="black" stroke-width="1.5"/>
<path d="M1 26L1 38" stroke="black" stroke-width="1.5"/>
<path d="M445 26L445 38" stroke="black" stroke-width="1.5"/>
<path d="M1 32L445 32" stroke="black" stroke-width="1.5"/>
<path d="M184 14.0001V0.90918H185.585V12.5938H191.67V14.0001H184Z" fill="black"/>
<path d="M197.909 14.2046C197.023 14.2046 196.245 13.9937 195.576 13.5718C194.911 13.1499 194.391 12.5597 194.016 11.8012C193.646 11.0427 193.46 10.1563 193.46 9.14213C193.46 8.11941 193.646 7.22665 194.016 6.46387C194.391 5.70108 194.911 5.10875 195.576 4.68688C196.245 4.265 197.023 4.05407 197.909 4.05407C198.795 4.05407 199.571 4.265 200.236 4.68688C200.905 5.10875 201.425 5.70108 201.795 6.46387C202.17 7.22665 202.358 8.11941 202.358 9.14213C202.358 10.1563 202.17 11.0427 201.795 11.8012C201.425 12.5597 200.905 13.1499 200.236 13.5718C199.571 13.9937 198.795 14.2046 197.909 14.2046ZM197.909 12.8495C198.582 12.8495 199.136 12.6769 199.571 12.3318C200.006 11.9866 200.327 11.5328 200.536 10.9703C200.745 10.4078 200.849 9.79838 200.849 9.14213C200.849 8.48588 200.745 7.87438 200.536 7.30762C200.327 6.74086 200.006 6.28276 199.571 5.93333C199.136 5.5839 198.582 5.40918 197.909 5.40918C197.236 5.40918 196.682 5.5839 196.247 5.93333C195.813 6.28276 195.491 6.74086 195.282 7.30762C195.073 7.87438 194.969 8.48588 194.969 9.14213C194.969 9.79838 195.073 10.4078 195.282 10.9703C195.491 11.5328 195.813 11.9866 196.247 12.3318C196.682 12.6769 197.236 12.8495 197.909 12.8495Z" fill="black"/>
<path d="M208.624 17.8865C207.895 17.8865 207.269 17.7927 206.744 17.6052C206.22 17.422 205.784 17.1791 205.434 16.8765C205.089 16.5782 204.814 16.2586 204.61 15.9177L205.811 15.074C205.948 15.2529 206.12 15.4575 206.329 15.6876C206.538 15.922 206.823 16.1244 207.186 16.2948C207.552 16.4696 208.031 16.5569 208.624 16.5569C209.416 16.5569 210.07 16.3651 210.586 15.9816C211.102 15.5981 211.36 14.9972 211.36 14.1791V12.1847H211.232C211.121 12.3637 210.963 12.5853 210.759 12.8495C210.558 13.1095 210.269 13.3417 209.889 13.5463C209.514 13.7465 209.007 13.8467 208.368 13.8467C207.575 13.8467 206.864 13.6592 206.233 13.2842C205.607 12.9092 205.11 12.3637 204.744 11.6478C204.382 10.9319 204.2 10.0626 204.2 9.03986C204.2 8.03418 204.377 7.15847 204.731 6.41273C205.085 5.66273 205.577 5.08319 206.208 4.67409C206.838 4.26074 207.567 4.05407 208.394 4.05407C209.033 4.05407 209.54 4.1606 209.915 4.37367C210.294 4.58248 210.584 4.82111 210.784 5.08958C210.989 5.35378 211.146 5.57111 211.257 5.74157H211.411V4.18191H212.868V14.2813C212.868 15.1251 212.676 15.8112 212.293 16.3396C211.914 16.8722 211.402 17.2622 210.759 17.5093C210.119 17.7607 209.408 17.8865 208.624 17.8865ZM208.573 12.4916C209.178 12.4916 209.689 12.3531 210.107 12.0761C210.524 11.7991 210.842 11.4007 211.059 10.8808C211.276 10.3609 211.385 9.73873 211.385 9.01429C211.385 8.30691 211.279 7.68262 211.066 7.14142C210.852 6.60023 210.537 6.17623 210.119 5.86941C209.702 5.56259 209.186 5.40918 208.573 5.40918C207.933 5.40918 207.401 5.57111 206.975 5.89498C206.553 6.21884 206.235 6.6535 206.022 7.19895C205.813 7.74441 205.709 8.34952 205.709 9.01429C205.709 9.69611 205.816 10.2991 206.029 10.8232C206.246 11.3431 206.566 11.7522 206.987 12.0505C207.414 12.3446 207.942 12.4916 208.573 12.4916Z" fill="black"/>
<path d="M219.618 14.2046C218.732 14.2046 217.954 13.9937 217.285 13.5718C216.62 13.1499 216.1 12.5597 215.725 11.8012C215.355 11.0427 215.169 10.1563 215.169 9.14213C215.169 8.11941 215.355 7.22665 215.725 6.46387C216.1 5.70108 216.62 5.10875 217.285 4.68688C217.954 4.265 218.732 4.05407 219.618 4.05407C220.504 4.05407 221.28 4.265 221.945 4.68688C222.614 5.10875 223.134 5.70108 223.504 6.46387C223.879 7.22665 224.067 8.11941 224.067 9.14213C224.067 10.1563 223.879 11.0427 223.504 11.8012C223.134 12.5597 222.614 13.1499 221.945 13.5718C221.28 13.9937 220.504 14.2046 219.618 14.2046ZM219.618 12.8495C220.291 12.8495 220.845 12.6769 221.28 12.3318C221.715 11.9866 222.036 11.5328 222.245 10.9703C222.454 10.4078 222.558 9.79838 222.558 9.14213C222.558 8.48588 222.454 7.87438 222.245 7.30762C222.036 6.74086 221.715 6.28276 221.28 5.93333C220.845 5.5839 220.291 5.40918 219.618 5.40918C218.945 5.40918 218.391 5.5839 217.956 5.93333C217.521 6.28276 217.2 6.74086 216.991 7.30762C216.782 7.87438 216.678 8.48588 216.678 9.14213C216.678 9.79838 216.782 10.4078 216.991 10.9703C217.2 11.5328 217.521 11.9866 217.956 12.3318C218.391 12.6769 218.945 12.8495 219.618 12.8495Z" fill="black"/>
<path d="M230.64 4.18191V5.46032H225.551V4.18191H230.64ZM227.034 1.82963H228.543V11.1876C228.543 11.6137 228.605 11.9333 228.728 12.1464C228.856 12.3552 229.018 12.4958 229.214 12.5683C229.414 12.6365 229.625 12.6705 229.847 12.6705C230.013 12.6705 230.15 12.662 230.256 12.645C230.363 12.6237 230.448 12.6066 230.512 12.5938L230.819 13.949C230.716 13.9873 230.574 14.0257 230.39 14.064C230.207 14.1066 229.975 14.1279 229.694 14.1279C229.267 14.1279 228.85 14.0363 228.441 13.8531C228.036 13.6698 227.699 13.3907 227.431 13.0157C227.167 12.6407 227.034 12.1677 227.034 11.5967V1.82963Z" fill="black"/>
<path d="M233.88 17.6819C233.625 17.6819 233.397 17.6606 233.196 17.618C232.996 17.5796 232.858 17.5413 232.781 17.5029L233.164 16.1734C233.531 16.2671 233.855 16.3012 234.136 16.2757C234.417 16.2501 234.667 16.1244 234.884 15.8985C235.105 15.6769 235.308 15.3169 235.491 14.8183L235.772 14.0512L232.142 4.18191H233.778L236.488 12.0058H236.591L239.301 4.18191H240.937L236.77 15.4319C236.582 15.939 236.35 16.3588 236.073 16.6911C235.796 17.0278 235.474 17.2771 235.108 17.439C234.745 17.6009 234.336 17.6819 233.88 17.6819Z" fill="black"/>
<path d="M242.928 17.6819V4.18191H244.386V5.74157H244.565C244.675 5.57111 244.829 5.35378 245.025 5.08958C245.225 4.82111 245.511 4.58248 245.881 4.37367C246.256 4.1606 246.763 4.05407 247.403 4.05407C248.229 4.05407 248.958 4.26074 249.589 4.67409C250.219 5.08745 250.712 5.67338 251.065 6.43191C251.419 7.19043 251.596 8.08532 251.596 9.11657C251.596 10.1563 251.419 11.0576 251.065 11.8204C250.712 12.5789 250.222 13.167 249.595 13.5846C248.969 13.998 248.246 14.2046 247.428 14.2046C246.798 14.2046 246.293 14.1002 245.913 13.8914C245.534 13.6784 245.242 13.4376 245.038 13.1691C244.833 12.8964 244.675 12.6705 244.565 12.4916H244.437V17.6819H242.928ZM244.411 9.091C244.411 9.83248 244.52 10.4866 244.737 11.0534C244.955 11.6159 245.272 12.0569 245.69 12.3765C246.107 12.6919 246.619 12.8495 247.224 12.8495C247.854 12.8495 248.381 12.6833 248.803 12.3509C249.229 12.0143 249.548 11.5626 249.761 10.9958C249.979 10.4248 250.087 9.78986 250.087 9.091C250.087 8.40066 249.981 7.7785 249.768 7.22452C249.559 6.66628 249.241 6.22523 248.815 5.90137C248.393 5.57324 247.863 5.40918 247.224 5.40918C246.61 5.40918 246.094 5.56472 245.677 5.8758C245.259 6.18262 244.944 6.61301 244.731 7.16699C244.518 7.71671 244.411 8.35804 244.411 9.091Z" fill="black"/>
<path d="M258.013 14.2046C257.067 14.2046 256.251 13.9958 255.565 13.5782C254.884 13.1563 254.357 12.5683 253.987 11.814C253.62 11.0555 253.437 10.1734 253.437 9.1677C253.437 8.16202 253.62 7.27566 253.987 6.50861C254.357 5.73731 254.873 5.13645 255.533 4.70605C256.198 4.2714 256.974 4.05407 257.86 4.05407C258.371 4.05407 258.876 4.13929 259.375 4.30975C259.874 4.4802 260.327 4.75719 260.737 5.14071C261.146 5.51998 261.472 6.02282 261.714 6.64924C261.957 7.27566 262.079 8.04696 262.079 8.96316V9.60236H254.511V8.29838H260.545C260.545 7.74441 260.434 7.25009 260.212 6.81543C259.995 6.38077 259.684 6.03773 259.279 5.78631C258.879 5.53489 258.406 5.40918 257.86 5.40918C257.259 5.40918 256.739 5.55833 256.3 5.85662C255.866 6.15066 255.531 6.53418 255.297 7.00719C255.062 7.4802 254.945 7.9873 254.945 8.5285V9.39782C254.945 10.1393 255.073 10.7678 255.329 11.2835C255.589 11.7948 255.949 12.1847 256.409 12.4532C256.869 12.7174 257.404 12.8495 258.013 12.8495C258.41 12.8495 258.768 12.7941 259.087 12.6833C259.411 12.5683 259.69 12.3978 259.925 12.172C260.159 11.9419 260.34 11.6563 260.468 11.3154L261.925 11.7245C261.772 12.2188 261.514 12.6535 261.152 13.0285C260.79 13.3992 260.342 13.689 259.81 13.8978C259.277 14.1024 258.678 14.2046 258.013 14.2046Z" fill="black"/>
<path d="M526.722 4.18193C526.645 3.5342 526.334 3.03136 525.788 2.67341C525.243 2.31545 524.574 2.13647 523.781 2.13647C523.202 2.13647 522.695 2.23022 522.26 2.41772C521.83 2.60522 521.493 2.86304 521.25 3.19116C521.011 3.51929 520.892 3.89216 520.892 4.30977C520.892 4.6592 520.975 4.95963 521.141 5.21105C521.312 5.45821 521.529 5.66488 521.793 5.83108C522.058 5.99301 522.335 6.12724 522.624 6.23378C522.914 6.33605 523.18 6.41915 523.423 6.48307L524.753 6.84102C525.094 6.93051 525.473 7.05409 525.891 7.21176C526.312 7.36943 526.715 7.58463 527.099 7.85736C527.487 8.12582 527.806 8.47099 528.058 8.89287C528.309 9.31474 528.435 9.8325 528.435 10.4461C528.435 11.1535 528.249 11.7927 527.879 12.3637C527.512 12.9348 526.975 13.3886 526.268 13.7253C525.565 14.0619 524.71 14.2302 523.705 14.2302C522.767 14.2302 521.955 14.0789 521.269 13.7764C520.587 13.4738 520.05 13.052 519.658 12.5108C519.271 11.9696 519.051 11.341 519 10.6251H520.636C520.679 11.1194 520.845 11.5285 521.135 11.8524C521.429 12.172 521.8 12.4106 522.247 12.5683C522.699 12.7217 523.185 12.7984 523.705 12.7984C524.31 12.7984 524.853 12.7004 525.335 12.5044C525.816 12.3041 526.197 12.0271 526.479 11.6734C526.76 11.3155 526.901 10.8978 526.901 10.4206C526.901 9.98591 526.779 9.63221 526.536 9.35949C526.293 9.08676 525.974 8.86517 525.577 8.69471C525.181 8.52426 524.753 8.37511 524.293 8.24727L522.682 7.78704C521.659 7.49301 520.849 7.07326 520.253 6.52781C519.656 5.98236 519.358 5.26858 519.358 4.38647C519.358 3.65352 519.556 3.01432 519.952 2.46886C520.353 1.91915 520.89 1.49301 521.563 1.19045C522.241 0.883634 522.997 0.730225 523.832 0.730225C524.676 0.730225 525.426 0.881503 526.082 1.18406C526.739 1.48236 527.259 1.89145 527.642 2.41133C528.03 2.93122 528.234 3.52142 528.256 4.18193H526.722Z" fill="black"/>
<path d="M531.808 17.6819C531.552 17.6819 531.324 17.6606 531.124 17.618C530.924 17.5797 530.785 17.5413 530.709 17.503L531.092 16.1734C531.459 16.2672 531.782 16.3012 532.064 16.2757C532.345 16.2501 532.594 16.1244 532.812 15.8985C533.033 15.677 533.236 15.3169 533.419 14.8183L533.7 14.0512L530.069 4.18193H531.706L534.416 12.0058H534.518L537.229 4.18193H538.865L534.697 15.4319C534.51 15.939 534.278 16.3588 534.001 16.6912C533.724 17.0278 533.402 17.2771 533.035 17.439C532.673 17.601 532.264 17.6819 531.808 17.6819Z" fill="black"/>
<path d="M540.856 14.0001V4.18193H542.313V5.71602H542.441C542.646 5.19187 542.976 4.78491 543.432 4.49514C543.888 4.20111 544.436 4.05409 545.075 4.05409C545.722 4.05409 546.262 4.20111 546.692 4.49514C547.127 4.78491 547.465 5.19187 547.708 5.71602H547.811C548.062 5.20892 548.439 4.80622 548.942 4.50792C549.445 4.20537 550.048 4.05409 550.751 4.05409C551.629 4.05409 552.347 4.32895 552.905 4.87866C553.463 5.42412 553.742 6.27426 553.742 7.42909V14.0001H552.234V7.42909C552.234 6.70466 552.036 6.1869 551.639 5.87582C551.243 5.56474 550.776 5.4092 550.24 5.4092C549.549 5.4092 549.014 5.61801 548.635 6.03562C548.256 6.44897 548.066 6.97312 548.066 7.60807V14.0001H546.532V7.27568C546.532 6.71744 546.351 6.26787 545.989 5.92696C545.627 5.58179 545.16 5.4092 544.589 5.4092C544.197 5.4092 543.83 5.51361 543.49 5.72241C543.153 5.93122 542.88 6.22099 542.671 6.59173C542.467 6.95821 542.365 7.38221 542.365 7.86375V14.0001H540.856Z" fill="black"/>
<path d="M556.705 14.0001V0.909202H558.214V5.74159H558.341C558.452 5.57113 558.606 5.3538 558.802 5.0896C559.002 4.82113 559.287 4.5825 559.658 4.37369C560.033 4.16062 560.54 4.05409 561.18 4.05409C562.006 4.05409 562.735 4.26077 563.366 4.67412C563.996 5.08747 564.488 5.67341 564.842 6.43193C565.196 7.19045 565.373 8.08534 565.373 9.11659C565.373 10.1564 565.196 11.0576 564.842 11.8204C564.488 12.5789 563.998 13.167 563.372 13.5846C562.746 13.998 562.023 14.2047 561.205 14.2047C560.574 14.2047 560.069 14.1003 559.69 13.8914C559.311 13.6784 559.019 13.4376 558.814 13.1691C558.61 12.8964 558.452 12.6706 558.341 12.4916H558.162V14.0001H556.705ZM558.188 9.09102C558.188 9.8325 558.297 10.4866 558.514 11.0534C558.731 11.6159 559.049 12.0569 559.466 12.3765C559.884 12.6919 560.395 12.8495 561.001 12.8495C561.631 12.8495 562.157 12.6834 562.579 12.351C563.006 12.0143 563.325 11.5626 563.538 10.9958C563.756 10.4248 563.864 9.78988 563.864 9.09102C563.864 8.40068 563.758 7.77852 563.545 7.22454C563.336 6.66631 563.018 6.22525 562.592 5.90139C562.17 5.57326 561.64 5.4092 561.001 5.4092C560.387 5.4092 559.871 5.56474 559.454 5.87582C559.036 6.18264 558.721 6.61304 558.508 7.16701C558.295 7.71673 558.188 8.35807 558.188 9.09102Z" fill="black"/>
<path d="M571.669 14.2047C570.782 14.2047 570.005 13.9937 569.336 13.5718C568.671 13.15 568.151 12.5598 567.776 11.8012C567.405 11.0427 567.22 10.1564 567.22 9.14216C567.22 8.11943 567.405 7.22667 567.776 6.46389C568.151 5.7011 568.671 5.10878 569.336 4.6869C570.005 4.26503 570.782 4.05409 571.669 4.05409C572.555 4.05409 573.331 4.26503 573.996 4.6869C574.665 5.10878 575.184 5.7011 575.555 6.46389C575.93 7.22667 576.118 8.11943 576.118 9.14216C576.118 10.1564 575.93 11.0427 575.555 11.8012C575.184 12.5598 574.665 13.15 573.996 13.5718C573.331 13.9937 572.555 14.2047 571.669 14.2047ZM571.669 12.8495C572.342 12.8495 572.896 12.677 573.331 12.3318C573.765 11.9866 574.087 11.5328 574.296 10.9703C574.505 10.4078 574.609 9.79841 574.609 9.14216C574.609 8.48591 574.505 7.8744 574.296 7.30764C574.087 6.74088 573.765 6.28278 573.331 5.93335C572.896 5.58392 572.342 5.4092 571.669 5.4092C570.996 5.4092 570.442 5.58392 570.007 5.93335C569.572 6.28278 569.251 6.74088 569.042 7.30764C568.833 7.8744 568.729 8.48591 568.729 9.14216C568.729 9.79841 568.833 10.4078 569.042 10.9703C569.251 11.5328 569.572 11.9866 570.007 12.3318C570.442 12.677 570.996 12.8495 571.669 12.8495Z" fill="black"/>
<path d="M579.929 0.909202V14.0001H578.42V0.909202H579.929Z" fill="black"/>
<path d="M3.70745 229.16H1V248.972H3.3732C7.95247 248.972 12.5317 248.632 17.6458 247.579L17.3116 245.268C12.4649 246.254 8.01932 246.627 3.70745 246.627V229.16ZM27.6734 238.37H22.8602V226.204H20.1193V256.686H22.8602V240.68H27.6734V238.37Z" fill="#202328"/>
<path d="M40.2721 228.447C35.626 228.447 32.2501 231.335 32.2501 235.617C32.2501 239.865 35.626 242.787 40.2721 242.787C44.9517 242.787 48.2942 239.865 48.2942 235.617C48.2942 231.335 44.9517 228.447 40.2721 228.447ZM40.2721 230.826C43.3807 230.826 45.6202 232.763 45.6202 235.617C45.6202 238.438 43.3807 240.409 40.2721 240.409C37.197 240.409 34.9241 238.438 34.9241 235.617C34.9241 232.763 37.197 230.826 40.2721 230.826ZM52.2384 226.204V256.754H54.9793V226.204H52.2384ZM31.0802 250.06C36.4951 250.06 43.7484 249.992 50.5003 248.734L50.2663 246.661C43.715 247.681 36.1943 247.715 30.7459 247.715L31.0802 250.06Z" fill="#202328"/>
<path d="M79.6796 231.641H86.3312V229.33H70.1199V231.641H76.9721V235.515C76.9721 240.68 73.3622 246.457 69.0837 248.632L70.6882 250.841C74.0641 249.074 76.9721 245.2 78.3426 240.748C79.713 244.826 82.5207 248.394 85.8633 250.094L87.4342 247.851C83.089 245.778 79.6796 240.375 79.6796 235.515V231.641ZM97.5955 238.506H92.6486V226.238H89.9077V256.686H92.6486V240.85H97.5955V238.506Z" fill="#202328"/>
<path d="M117.815 241.53C113.403 239.933 110.428 236.059 110.428 231.879V228.039H107.687V231.811C107.687 236.535 104.779 240.612 100.2 242.278L101.637 244.486C105.214 243.127 107.888 240.341 109.125 236.738C110.462 239.933 113.069 242.481 116.445 243.739L117.815 241.53ZM107.754 246.559H105.013V256.006H124.901V253.73H107.754V246.559ZM123.598 235.549V226.17H120.857V248.7H123.598V237.86H128.01V235.549H123.598Z" fill="#202328"/>
<path d="M144.62 228.821C149.533 228.821 152.341 229.976 152.341 232.015C152.341 234.054 149.533 235.209 144.62 235.209C139.706 235.209 136.899 234.054 136.899 232.015C136.899 229.976 139.706 228.821 144.62 228.821ZM144.62 237.282C151.205 237.282 155.149 235.447 155.149 232.015C155.149 228.583 151.205 226.714 144.62 226.714C138.035 226.714 134.091 228.583 134.091 232.015C134.091 235.447 138.035 237.282 144.62 237.282ZM137.099 251.079H154.714V244.215H134.325V246.321H152.007V249.04H134.425V256.346H155.617V254.171H137.099V251.079ZM131.049 239.355V241.598H158.19V239.355H131.049Z" fill="#202328"/>
<path d="M194.122 233.476H176.473V226.646H173.766V235.719H194.122V233.476ZM176.272 250.875H193.854V243.705H173.465V245.88H191.113V248.802H173.532V256.278H194.857V254.103H176.272V250.875ZM170.089 238.709V240.986H197.297V238.709H170.089Z" fill="#202328"/>
<path d="M204.681 239.865H215.01V228.956H201.907V231.199H212.302V237.588H201.974V249.618H204.247C208.926 249.618 212.77 249.448 217.483 248.7L217.249 246.389C212.77 247.103 209.094 247.307 204.681 247.307V239.865ZM222.798 226.17V233.136H216.882V235.413H222.798V241.496H216.681V243.773H222.798V256.72H225.539V226.17H222.798Z" fill="#202328"/>
<path d="M237.536 236.093H252.845V241.7H237.536V236.093ZM246.561 250.501V243.943H255.519V228.379H252.845V233.816H237.536V228.379H234.828V243.943H243.786V250.501H231.62V252.778H258.794V250.501H246.561Z" fill="#202328"/>
<path d="M272.463 231.641H279.114V229.33H262.903V231.641H269.755V235.515C269.755 240.68 266.145 246.457 261.867 248.632L263.471 250.841C266.847 249.074 269.755 245.2 271.126 240.748C272.496 244.826 275.304 248.394 278.646 250.094L280.217 247.851C275.872 245.778 272.463 240.375 272.463 235.515V231.641ZM290.379 238.506H285.432V226.238H282.691V256.686H285.432V240.85H290.379V238.506Z" fill="#202328"/>
<path d="M305.285 231.505H313.675V246.695H305.285V231.505ZM302.611 248.938H316.349V229.262H302.611V248.938ZM329.418 238.37H324.472V226.238H321.731V256.686H324.472V240.714H329.418V238.37Z" fill="#202328"/>
<path d="M350.674 240.986C346.229 239.661 343.02 236.229 343.02 232.389V232.015H349.805V229.772H343.053V226H340.313V229.772H333.494V232.015H340.313V232.389C340.313 236.467 337.171 240.171 332.725 241.632L334.029 243.773C337.638 242.617 340.413 240.069 341.716 236.772C343.12 239.763 345.895 242.074 349.404 243.161L350.674 240.986ZM340.045 248.055H354.084V254.036H340.045V248.055ZM337.371 256.278H356.758V245.846H337.371V256.278ZM354.017 226.204V244.283H356.758V226.204H354.017Z" fill="#202328"/>
<path d="M373.167 243.467H379.685V250.705H373.167V243.467ZM372.699 231.267H380.153V241.224H372.699V231.267ZM382.426 250.705V243.467H387.506V241.224H382.894V231.267H387.54V229.024H365.312V231.267H369.958V241.224H365.379V243.467H370.426V250.705H362.872V252.982H390.08V250.705H382.426Z" fill="#202328"/>
<path d="M395.259 229.466V231.777H406.255C405.62 238.981 401.509 244.826 393.855 248.734L395.359 250.909C405.052 245.982 408.963 238.132 408.963 229.466H395.259ZM421.531 238.574H416.718V226.204H413.977V256.686H416.718V240.884H421.531V238.574Z" fill="#202328"/>
<path d="M440.683 247.341C437.775 247.341 435.736 244.147 435.736 239.185C435.736 234.258 437.775 231.063 440.683 231.063C443.557 231.063 445.596 234.258 445.596 239.185C445.596 244.147 443.557 247.341 440.683 247.341ZM440.683 228.549C436.27 228.549 433.128 232.695 433.128 239.185C433.128 245.676 436.27 249.822 440.683 249.822C445.095 249.822 448.203 245.676 448.203 239.185C448.203 232.695 445.095 228.549 440.683 228.549ZM460.704 238.37H455.757V226.238H453.016V256.686H455.757V240.714H460.704V238.37Z" fill="#202328"/>
<path d="M488.044 226.238H485.303V248.36H488.044V226.238ZM482.06 238.879C477.481 239.831 473.203 240.205 468.055 240.205V228.481H465.281V242.549H467.721C473.169 242.549 477.515 242.176 482.428 241.19L482.06 238.879ZM471.197 253.73V246.152H468.456V256.006H488.946V253.73H471.197Z" fill="#202328"/>
<path d="M521.2 235.379C516.922 234.36 513.981 231.709 513.981 228.549V226.985H511.139V228.549C511.139 231.845 508.231 234.7 503.886 235.787L505.123 237.928C508.633 237.01 511.34 234.903 512.577 232.117C513.88 234.7 516.554 236.603 519.997 237.486L521.2 235.379ZM524.209 254.036H509.903V248.496H524.209V254.036ZM513.914 241.938C516.688 241.802 519.596 241.496 522.337 241.054L522.17 239.015C515.618 239.899 508.165 239.899 502.549 239.899L502.883 242.21C505.357 242.21 508.198 242.21 511.173 242.074V246.288H507.229V256.278H526.883V246.288H513.914V241.938ZM524.142 226.238V244.622H526.883V226.238H524.142Z" fill="#202328"/>
<path d="M543.493 243.467H550.011V250.705H543.493V243.467ZM543.025 231.267H550.478V241.224H543.025V231.267ZM552.751 250.705V243.467H557.832V241.224H553.219V231.267H557.865V229.024H535.638V231.267H540.284V241.224H535.704V243.467H540.752V250.705H533.198V252.982H560.406V250.705H552.751Z" fill="#202328"/>
<path d="M578.921 250.637V244.894H588.514V242.651H570.063V237.724H587.812V228.447H567.289V230.724H585.138V235.481H567.356V244.894H576.146V250.637H563.946V252.914H591.188V250.637H578.921Z" fill="#202328"/>
<path d="M598 250.521V252.993C598 254 597.75 255.062 597.249 256.179C596.749 257.308 596.047 258.248 595.144 259L593.43 257.789C593.778 257.302 594.072 256.804 594.311 256.295C594.551 255.798 594.73 255.278 594.85 254.736C594.981 254.205 595.046 253.64 595.046 253.043V250.521H598Z" fill="#202328"/>
</svg>
