<svg width="599" height="200" viewBox="0 0 599 200" fill="none" xmlns="http://www.w3.org/2000/svg">
<path d="M519.3 107.4V122.8C524.8 125.6 532.3 127.1 538.7 127.7C563.5 129.7 596.9 110.3 595.9 71.2999C594.5 51.3999 586.3 42.1999 576.5 31.3999C567 21.4999 558.8 18.1999 548.5 17.5999C526 16.2999 508.2 35.5999 508.5 55.2999C509 80.8999 528.6 93.1999 545.2 94.0999V78.8999C543.5 79.0999 541.7 79.2999 539.9 79.2999C517.9 79.2999 500.8 60.2999 501.6 39.4999C502.5 18.0999 520.9 2.8999 540.1 2.8999C545.4 2.8999 568.9 5.2999 576.6 31.0999C603 59.1999 578.7 121.1 524.7 109.1C523.3 108.8 520.9 108 519.3 107.4Z" stroke="#F5F5F5" stroke-width="4.3" stroke-miterlimit="10"/>
<path d="M35.7 99.6999C29.3 99.6999 23.4 98.1999 17.9 95.1999C12.6 92.1999 8.3 88.0999 5.2 82.7999C2 77.5999 0.5 71.5999 0.5 64.9999C0.5 58.8999 2.1 53.1999 5.2 48.0999C8.4 42.8999 12.6 38.6999 18.1 35.5999C23.6 32.4999 29.7 30.8999 36.3 30.8999C41.8 30.8999 46.6 31.7999 50.5 33.4999C54.4 35.1999 58.3 37.9999 62 41.6999V49.5999C58.7 44.7999 55.1 41.1999 51.1 38.7999C47.2 36.2999 42.2 34.9999 36.3 34.9999C30.9 34.9999 25.7 36.3999 20.9 39.1999C16.2 41.8999 12.4 45.5999 9.5 50.2999C6.6 54.9999 5.2 59.9999 5.2 65.2999C5.2 71.0999 6.6 76.3999 9.3 80.9999C12.1 85.5999 15.8 89.1999 20.4 91.7999C25.1 94.2999 30.2 95.5999 35.6 95.5999C46.6 95.5999 55.4 90.6999 61.9 80.8999V88.7999C58.3 92.4999 54.4 95.2999 50.1 97.0999C46 98.8999 41.1 99.6999 35.7 99.6999Z" fill="#F5F5F5"/>
<path d="M108.3 100.5C101.6 100.5 95.5 98.8998 90.1 95.6998C84.7 92.3998 80.4 88.0998 77.4 82.6998C74.3 77.2998 72.8 71.3998 72.8 65.0998C72.8 58.8998 74.3 53.0998 77.4 47.7998C80.6 42.4998 84.8 38.1998 90.1 35.0998C95.5 31.8998 101.5 30.2998 108.2 30.2998C114.7 30.2998 120.6 31.8998 126 35.0998C131.4 38.1998 135.7 42.3998 138.7 47.7998C141.8 53.0998 143.3 58.8998 143.3 65.0998C143.3 71.5998 141.8 77.5998 138.9 82.9998C135.9 88.2998 131.8 92.5998 126.5 95.7998C121.1 98.8998 115.1 100.5 108.3 100.5ZM108.3 96.3998C113.9 96.3998 119.1 94.9998 123.7 92.1998C128.3 89.3998 131.9 85.5998 134.5 80.9998C137.2 76.1998 138.5 70.9998 138.5 65.3998C138.5 59.8998 137.2 54.6998 134.5 49.9998C131.8 45.1998 128.2 41.4998 123.6 38.5998C119 35.7998 113.8 34.3998 108.2 34.3998C102.6 34.3998 97.4 35.8998 92.7 38.7998C88 41.4998 84.3 45.2998 81.5 49.9998C78.8 54.7998 77.5 59.8998 77.5 65.3998C77.5 70.8998 78.8 76.0998 81.5 80.7998C84.3 85.4998 88 89.1998 92.6 91.9998C97.3 94.9998 102.6 96.3998 108.3 96.3998Z" fill="#F5F5F5"/>
<path d="M156.5 33.3998H161.2V43.2998C165.7 35.5998 173 31.7998 183.1 31.7998C187.9 31.7998 192.1 33.1998 195.7 35.8998C199.3 38.4998 201.7 42.4998 203.1 47.7998C204.4 42.9998 207.2 39.1998 211.5 36.2998C215.9 33.2998 220.9 31.7998 226.4 31.7998C233.6 31.7998 239.2 33.8998 243.1 38.0998C247 42.1998 249 47.9998 249 55.5998V98.9998H244.3V55.4998C244.3 49.3998 242.7 44.5998 239.4 41.0998C236.2 37.5998 232.1 35.8998 226.8 35.8998C222.9 35.8998 219.2 36.8998 215.9 38.7998C212.5 40.5998 209.9 43.1998 207.9 46.3998C205.9 49.5998 204.9 53.1998 204.9 56.9998V98.9998H200.2V58.0998C200.2 51.0998 198.5 45.6998 195.2 41.7998C191.8 37.7998 187.5 35.7998 182.2 35.7998C178.6 35.7998 175.2 36.6998 172 38.3998C168.8 40.0998 166.2 42.4998 164.2 45.4998C162.2 48.3998 161.2 51.5998 161.2 55.0998V98.7998H156.5V33.3998V33.3998Z" fill="#F5F5F5"/>
<path d="M267.8 33.3998H272.5V43.2998C277 35.5998 284.3 31.7998 294.4 31.7998C299.2 31.7998 303.4 33.1998 307 35.8998C310.6 38.4998 313 42.4998 314.4 47.7998C315.7 42.9998 318.5 39.1998 322.8 36.2998C327.2 33.2998 332.2 31.7998 337.7 31.7998C344.9 31.7998 350.5 33.8998 354.4 38.0998C358.3 42.1998 360.3 47.9998 360.3 55.5998V98.9998H355.6V55.4998C355.6 49.3998 354 44.5998 350.7 41.0998C347.5 37.5998 343.4 35.8998 338.1 35.8998C334.2 35.8998 330.5 36.8998 327.2 38.7998C323.8 40.5998 321.2 43.1998 319.2 46.3998C317.2 49.5998 316.2 53.1998 316.2 56.9998V98.9998H311.5V58.0998C311.5 51.0998 309.8 45.6998 306.5 41.7998C303.1 37.7998 298.8 35.7998 293.5 35.7998C289.9 35.7998 286.5 36.6998 283.3 38.3998C280.1 40.0998 277.5 42.4998 275.5 45.4998C273.5 48.3998 272.5 51.5998 272.5 55.0998V98.7998H267.8V33.3998V33.3998Z" fill="#F5F5F5"/>
<path d="M410.4 99.6999C404.1 99.6999 398.2 98.0999 392.8 94.9999C387.4 91.8999 383.1 87.6999 379.9 82.4999C376.7 77.1999 375.2 71.3999 375.2 65.2999C375.2 59.1999 376.8 53.4999 379.9 48.2999C383.1 42.9999 387.3 38.6999 392.8 35.5999C398.2 32.4999 404.1 30.8999 410.4 30.8999C416.8 30.8999 422.9 32.5999 428.6 35.9999C434.3 39.2999 438.3 43.5999 440.6 48.9999V32.5999H445.3V98.1999H440.6V81.7999C437.9 87.1999 433.8 91.5999 428.2 94.8999C422.7 98.0999 416.7 99.6999 410.4 99.6999ZM410.7 95.6999C416.1 95.6999 421.2 94.2999 425.8 91.5999C430.4 88.7999 434.1 85.0999 436.7 80.4999C439.5 75.7999 440.8 70.7999 440.8 65.2999C440.8 59.9999 439.4 54.9999 436.7 50.2999C433.9 45.5999 430.2 41.8999 425.6 39.1999C421 36.3999 416 34.9999 410.6 34.9999C405.2 34.9999 400.1 36.3999 395.4 39.1999C390.8 41.9999 387 45.7999 384.2 50.3999C381.4 55.0999 380.1 60.0999 380.1 65.3999C380.1 70.6999 381.5 75.6999 384.2 80.3999C387.1 84.9999 390.9 88.6999 395.6 91.4999C400.2 94.2999 405.3 95.6999 410.7 95.6999Z" fill="#F5F5F5"/>
<path d="M3.70745 170.16H1V189.972H3.3732C7.95247 189.972 12.5317 189.632 17.6458 188.579L17.3116 186.268C12.4649 187.254 8.01932 187.627 3.70745 187.627V170.16ZM27.6734 179.37H22.8602V167.204H20.1193V197.686H22.8602V181.68H27.6734V179.37Z" fill="#F5F5F5"/>
<path d="M40.2721 169.447C35.626 169.447 32.2501 172.335 32.2501 176.617C32.2501 180.865 35.626 183.787 40.2721 183.787C44.9517 183.787 48.2942 180.865 48.2942 176.617C48.2942 172.335 44.9517 169.447 40.2721 169.447ZM40.2721 171.826C43.3807 171.826 45.6202 173.763 45.6202 176.617C45.6202 179.438 43.3807 181.409 40.2721 181.409C37.197 181.409 34.9241 179.438 34.9241 176.617C34.9241 173.763 37.197 171.826 40.2721 171.826ZM52.2384 167.204V197.754H54.9793V167.204H52.2384ZM31.0802 191.06C36.4951 191.06 43.7484 190.992 50.5003 189.734L50.2663 187.661C43.715 188.681 36.1943 188.715 30.7459 188.715L31.0802 191.06Z" fill="#F5F5F5"/>
<path d="M79.6796 172.641H86.3312V170.33H70.1199V172.641H76.9721V176.515C76.9721 181.68 73.3622 187.457 69.0837 189.632L70.6882 191.841C74.0641 190.074 76.9721 186.2 78.3426 181.748C79.713 185.826 82.5207 189.394 85.8633 191.094L87.4342 188.851C83.089 186.778 79.6796 181.375 79.6796 176.515V172.641ZM97.5955 179.506H92.6486V167.238H89.9077V197.686H92.6486V181.85H97.5955V179.506Z" fill="#F5F5F5"/>
<path d="M117.815 182.53C113.403 180.933 110.428 177.059 110.428 172.879V169.039H107.687V172.811C107.687 177.535 104.779 181.612 100.2 183.278L101.637 185.486C105.214 184.127 107.888 181.341 109.125 177.738C110.462 180.933 113.069 183.481 116.445 184.739L117.815 182.53ZM107.754 187.559H105.013V197.006H124.901V194.73H107.754V187.559ZM123.598 176.549V167.17H120.857V189.7H123.598V178.86H128.01V176.549H123.598Z" fill="#F5F5F5"/>
<path d="M144.62 169.821C149.533 169.821 152.341 170.976 152.341 173.015C152.341 175.054 149.533 176.209 144.62 176.209C139.706 176.209 136.899 175.054 136.899 173.015C136.899 170.976 139.706 169.821 144.62 169.821ZM144.62 178.282C151.205 178.282 155.149 176.447 155.149 173.015C155.149 169.583 151.205 167.714 144.62 167.714C138.035 167.714 134.091 169.583 134.091 173.015C134.091 176.447 138.035 178.282 144.62 178.282ZM137.099 192.079H154.714V185.215H134.325V187.321H152.007V190.04H134.425V197.346H155.617V195.171H137.099V192.079ZM131.049 180.355V182.598H158.19V180.355H131.049Z" fill="#F5F5F5"/>
<path d="M194.122 174.476H176.473V167.646H173.766V176.719H194.122V174.476ZM176.272 191.875H193.854V184.705H173.465V186.88H191.113V189.802H173.532V197.278H194.857V195.103H176.272V191.875ZM170.089 179.709V181.986H197.297V179.709H170.089Z" fill="#F5F5F5"/>
<path d="M204.681 180.865H215.01V169.956H201.907V172.199H212.302V178.588H201.974V190.618H204.247C208.926 190.618 212.77 190.448 217.483 189.7L217.249 187.389C212.77 188.103 209.094 188.307 204.681 188.307V180.865ZM222.798 167.17V174.136H216.882V176.413H222.798V182.496H216.681V184.773H222.798V197.72H225.539V167.17H222.798Z" fill="#F5F5F5"/>
<path d="M237.536 177.093H252.845V182.7H237.536V177.093ZM246.561 191.501V184.943H255.519V169.379H252.845V174.816H237.536V169.379H234.828V184.943H243.786V191.501H231.62V193.778H258.794V191.501H246.561Z" fill="#F5F5F5"/>
<path d="M272.463 172.641H279.114V170.33H262.903V172.641H269.755V176.515C269.755 181.68 266.145 187.457 261.867 189.632L263.471 191.841C266.847 190.074 269.755 186.2 271.126 181.748C272.496 185.826 275.304 189.394 278.646 191.094L280.217 188.851C275.872 186.778 272.463 181.375 272.463 176.515V172.641ZM290.379 179.506H285.432V167.238H282.691V197.686H285.432V181.85H290.379V179.506Z" fill="#F5F5F5"/>
<path d="M305.285 172.505H313.675V187.695H305.285V172.505ZM302.611 189.938H316.349V170.262H302.611V189.938ZM329.418 179.37H324.472V167.238H321.731V197.686H324.472V181.714H329.418V179.37Z" fill="#F5F5F5"/>
<path d="M350.674 181.986C346.229 180.661 343.02 177.229 343.02 173.389V173.015H349.805V170.772H343.053V167H340.313V170.772H333.494V173.015H340.313V173.389C340.313 177.467 337.171 181.171 332.725 182.632L334.029 184.773C337.638 183.617 340.413 181.069 341.716 177.772C343.12 180.763 345.895 183.074 349.404 184.161L350.674 181.986ZM340.045 189.055H354.084V195.036H340.045V189.055ZM337.371 197.278H356.758V186.846H337.371V197.278ZM354.017 167.204V185.283H356.758V167.204H354.017Z" fill="#F5F5F5"/>
<path d="M373.167 184.467H379.685V191.705H373.167V184.467ZM372.699 172.267H380.153V182.224H372.699V172.267ZM382.426 191.705V184.467H387.506V182.224H382.894V172.267H387.54V170.024H365.312V172.267H369.958V182.224H365.379V184.467H370.426V191.705H362.872V193.982H390.08V191.705H382.426Z" fill="#F5F5F5"/>
<path d="M395.259 170.466V172.777H406.255C405.62 179.981 401.509 185.826 393.855 189.734L395.359 191.909C405.052 186.982 408.963 179.132 408.963 170.466H395.259ZM421.531 179.574H416.718V167.204H413.977V197.686H416.718V181.884H421.531V179.574Z" fill="#F5F5F5"/>
<path d="M440.683 188.341C437.775 188.341 435.736 185.147 435.736 180.185C435.736 175.258 437.775 172.063 440.683 172.063C443.557 172.063 445.596 175.258 445.596 180.185C445.596 185.147 443.557 188.341 440.683 188.341ZM440.683 169.549C436.27 169.549 433.128 173.695 433.128 180.185C433.128 186.676 436.27 190.822 440.683 190.822C445.095 190.822 448.203 186.676 448.203 180.185C448.203 173.695 445.095 169.549 440.683 169.549ZM460.704 179.37H455.757V167.238H453.016V197.686H455.757V181.714H460.704V179.37Z" fill="#F5F5F5"/>
<path d="M488.044 167.238H485.303V189.36H488.044V167.238ZM482.06 179.879C477.481 180.831 473.203 181.205 468.055 181.205V169.481H465.281V183.549H467.721C473.169 183.549 477.515 183.176 482.428 182.19L482.06 179.879ZM471.197 194.73V187.152H468.456V197.006H488.946V194.73H471.197Z" fill="#F5F5F5"/>
<path d="M521.2 176.379C516.922 175.36 513.981 172.709 513.981 169.549V167.985H511.139V169.549C511.139 172.845 508.231 175.7 503.886 176.787L505.123 178.928C508.633 178.01 511.34 175.903 512.577 173.117C513.88 175.7 516.554 177.603 519.997 178.486L521.2 176.379ZM524.209 195.036H509.903V189.496H524.209V195.036ZM513.914 182.938C516.688 182.802 519.596 182.496 522.337 182.054L522.17 180.015C515.618 180.899 508.165 180.899 502.549 180.899L502.883 183.21C505.357 183.21 508.198 183.21 511.173 183.074V187.288H507.229V197.278H526.883V187.288H513.914V182.938ZM524.142 167.238V185.622H526.883V167.238H524.142Z" fill="#F5F5F5"/>
<path d="M543.493 184.467H550.011V191.705H543.493V184.467ZM543.025 172.267H550.478V182.224H543.025V172.267ZM552.751 191.705V184.467H557.832V182.224H553.219V172.267H557.865V170.024H535.638V172.267H540.284V182.224H535.704V184.467H540.752V191.705H533.198V193.982H560.406V191.705H552.751Z" fill="#F5F5F5"/>
<path d="M578.921 191.637V185.894H588.514V183.651H570.063V178.724H587.812V169.447H567.289V171.724H585.138V176.481H567.356V185.894H576.146V191.637H563.946V193.914H591.188V191.637H578.921Z" fill="#F5F5F5"/>
<path d="M598 191.521V193.993C598 195 597.75 196.062 597.249 197.179C596.749 198.308 596.047 199.248 595.144 200L593.43 198.789C593.778 198.302 594.072 197.804 594.311 197.295C594.551 196.798 594.73 196.278 594.85 195.736C594.981 195.205 595.046 194.64 595.046 194.043V191.521H598Z" fill="#F5F5F5"/>
</svg>
