<svg width="435" height="585" viewBox="0 0 435 585" fill="none" xmlns="http://www.w3.org/2000/svg">
<path fill-rule="evenodd" clip-rule="evenodd" d="M343.325 125.306C337.225 109.806 329.925 93.1064 320.425 78.7064C305.825 56.5064 286.425 37.8064 263.625 24.2064C240.925 10.7064 215.525 2.60639 189.225 0.506387C184.825 0.206387 180.325 0.00638683 175.725 0.00638683C152.725 -0.193613 129.925 4.30639 108.625 13.1064C87.225 22.0064 67.925 35.1064 51.625 51.6064C35.225 68.2064 22.325 87.9064 13.425 109.506C-4.475 153.406 -4.475 202.506 13.425 246.306C18.125 257.906 24.125 269.006 31.125 279.406C42.725 363.106 111.325 428.006 195.625 432.006L195.925 426.006V432.006H204.625V337.006L195.625 338.106C189.025 338.906 182.325 339.406 175.725 339.406H175.625C154.725 339.606 133.925 335.506 114.625 327.506C95.225 319.406 77.625 307.506 62.825 292.606C56.925 286.606 51.425 280.106 46.525 273.206C45.825 266.906 45.425 260.606 45.425 254.306C45.325 211.606 62.025 170.606 91.825 140.106C121.225 109.906 161.625 92.8064 203.825 92.8064H211.825C256.625 93.6064 297.125 109.406 330.225 135.706C331.925 139.606 334.125 143.606 336.225 147.706L338.025 151.106C341.725 158.106 345.025 165.306 347.925 172.606C354.325 189.506 360.225 213.106 361.425 249.406C364.025 325.506 340.725 385.506 303.025 426.406C265.325 467.306 212.825 489.606 156.025 489.606C133.625 489.606 111.325 485.806 90.125 478.406L79.525 474.706V561.306L83.925 563.606C116.925 580.506 153.725 584.306 191.425 584.306C327.425 584.306 434.125 469.306 434.125 327.706C434.125 246.106 399.325 171.706 343.325 125.306ZM108.625 342.606C129.925 351.406 152.725 355.906 175.725 355.706C180.025 355.706 184.325 355.506 188.625 355.206V415.106C125.725 409.006 73.625 365.406 53.925 306.506C69.625 321.906 88.225 334.206 108.625 342.606ZM212.125 76.4064H203.725C157.325 76.5064 112.825 95.3064 80.425 128.506C50.125 159.506 32.125 200.506 29.725 243.706C29.225 242.506 28.625 241.206 28.125 240.006C11.925 200.206 11.925 155.606 28.125 115.706C36.125 96.1064 47.925 78.2064 62.825 63.1064C77.625 48.1064 95.225 36.2064 114.625 28.2064C133.925 20.2064 154.725 16.1064 175.625 16.3064H175.725C179.825 16.3064 183.925 16.5064 187.925 16.8064H188.025C211.925 18.7064 235.025 26.1064 255.625 38.3064C276.325 50.7064 294.025 67.6064 307.225 87.8064L309.725 86.1064L307.225 87.8064C311.325 94.0064 314.925 100.506 318.125 107.206C286.125 87.6064 249.525 76.9064 212.125 76.4064ZM191.325 567.806C156.325 567.806 124.025 564.406 95.425 551.006V497.206C115.025 503.006 135.425 505.906 155.925 505.906C216.925 505.906 273.725 481.906 314.625 437.506C355.525 393.106 380.025 328.706 377.325 248.806C376.125 212.206 370.325 187.206 363.425 168.706C397.625 210.806 418.025 266.806 418.025 327.606C418.125 460.806 317.925 567.806 191.325 567.806Z" fill="url(#paint0_linear_735_707)"/>
<defs>
<linearGradient id="paint0_linear_735_707" x1="55" y1="-3.5" x2="391" y2="556" gradientUnits="userSpaceOnUse">
<stop stop-color="#FFDFF3"/>
<stop offset="0.520833" stop-color="#C5CEFF"/>
<stop offset="1" stop-color="#F2FFD8"/>
</linearGradient>
</defs>
</svg>
