<svg width="857" height="82" viewBox="0 0 857 82" fill="none" xmlns="http://www.w3.org/2000/svg">
<path d="M22.0029 63.6759C17.9968 63.6759 14.2988 62.7351 10.909 60.8535C7.58083 58.972 4.93062 56.3925 2.95837 53.1149C0.986124 49.8374 0 46.135 0 42.0077C0 38.1839 0.986124 34.6636 2.95837 31.4467C4.93062 28.1692 7.61165 25.5593 11.0014 23.6171C14.4529 21.6748 18.2433 20.7037 22.3727 20.7037C25.8241 20.7037 28.7825 21.25 31.2478 22.3425C33.7131 23.435 36.1168 25.1345 38.4588 27.4409V32.3572C36.425 29.3831 34.1446 27.1374 31.6176 25.62C29.1523 24.0419 26.0707 23.2529 22.3727 23.2529C18.9829 23.2529 15.778 24.133 12.758 25.8931C9.79961 27.5926 7.42675 29.899 5.6394 32.8124C3.85205 35.7258 2.95837 38.8516 2.95837 42.1898C2.95837 45.8315 3.82123 49.109 5.54695 52.0224C7.27267 54.8751 9.58389 57.1208 12.4806 58.7596C15.439 60.3376 18.6131 61.1267 22.0029 61.1267C28.9058 61.1267 34.3911 58.0616 38.4588 51.9314V56.8477C36.2401 59.1541 33.7748 60.8839 31.0629 62.0371C28.4127 63.1296 25.3927 63.6759 22.0029 63.6759Z" fill="#F5F5F5"/>
<path d="M67.329 63.949C63.1379 63.949 59.3475 62.9475 55.9577 60.9446C52.5679 58.881 49.9177 56.18 48.0071 52.8418C46.0965 49.4429 45.1412 45.7708 45.1412 41.8256C45.1412 37.9411 46.0965 34.3298 48.0071 30.9915C49.9794 27.6533 52.6296 25.0131 55.9577 23.0708C59.3475 21.0679 63.1071 20.0664 67.2365 20.0664C71.3043 20.0664 75.0023 21.0679 78.3304 23.0708C81.7202 25.0131 84.3704 27.6533 86.2811 30.9915C88.1917 34.3298 89.147 37.9411 89.147 41.8256C89.147 45.8922 88.2225 49.6249 86.3735 53.0239C84.5245 56.3621 81.9359 59.0327 78.6078 61.0356C75.3412 62.9779 71.5816 63.949 67.329 63.949ZM67.329 61.3998C70.842 61.3998 74.047 60.5197 76.9437 58.7596C79.8404 56.9994 82.09 54.6626 83.6925 51.7493C85.3566 48.7752 86.1886 45.528 86.1886 42.0077C86.1886 38.5481 85.3566 35.3312 83.6925 32.3572C82.0284 29.3831 79.748 27.016 76.8512 25.2558C73.9545 23.4957 70.7496 22.6156 67.2365 22.6156C63.7235 22.6156 60.4877 23.526 57.5294 25.3469C54.6326 27.107 52.3214 29.4742 50.5957 32.4482C48.9316 35.4223 48.0996 38.6391 48.0996 42.0987C48.0996 45.5584 48.9316 48.7752 50.5957 51.7493C52.3214 54.6626 54.6326 56.9994 57.5294 58.7596C60.4877 60.5197 63.7543 61.3998 67.329 61.3998Z" fill="#F5F5F5"/>
<path d="M97.471 21.5231H100.429V27.714C103.264 22.9191 107.825 20.5216 114.112 20.5216C117.132 20.5216 119.751 21.3714 121.97 23.0708C124.189 24.7096 125.73 27.1981 126.592 30.5363C127.394 27.5623 129.15 25.1648 131.862 23.3439C134.636 21.4624 137.748 20.5216 141.199 20.5216C145.699 20.5216 149.181 21.8266 151.646 24.4365C154.112 26.9857 155.344 30.6274 155.344 35.3616V62.4923H152.386V35.3616C152.386 31.5378 151.369 28.5334 149.335 26.3484C147.363 24.1633 144.743 23.0708 141.477 23.0708C139.011 23.0708 136.731 23.6778 134.636 24.8917C132.54 26.0449 130.876 27.623 129.643 29.6259C128.411 31.6288 127.794 33.8442 127.794 36.272V62.4923H124.836V37.0004C124.836 32.6303 123.788 29.2314 121.693 26.8036C119.597 24.3151 116.885 23.0708 113.557 23.0708C111.338 23.0708 109.212 23.6171 107.178 24.7096C105.206 25.8021 103.573 27.2891 102.278 29.1707C101.046 30.9915 100.429 32.9945 100.429 35.1795V62.4923H97.471V21.5231Z" fill="#F5F5F5"/>
<path d="M166.988 21.5231H169.947V27.714C172.782 22.9191 177.343 20.5216 183.629 20.5216C186.649 20.5216 189.269 21.3714 191.487 23.0708C193.706 24.7096 195.247 27.1981 196.11 30.5363C196.911 27.5623 198.668 25.1648 201.38 23.3439C204.153 21.4624 207.265 20.5216 210.717 20.5216C215.216 20.5216 218.698 21.8266 221.164 24.4365C223.629 26.9857 224.862 30.6274 224.862 35.3616V62.4923H221.903V35.3616C221.903 31.5378 220.886 28.5334 218.852 26.3484C216.88 24.1633 214.261 23.0708 210.994 23.0708C208.529 23.0708 206.249 23.6778 204.153 24.8917C202.057 26.0449 200.393 27.623 199.161 29.6259C197.928 31.6288 197.312 33.8442 197.312 36.272V62.4923H194.353V37.0004C194.353 32.6303 193.306 29.2314 191.21 26.8036C189.115 24.3151 186.403 23.0708 183.075 23.0708C180.856 23.0708 178.729 23.6171 176.696 24.7096C174.723 25.8021 173.09 27.2891 171.796 29.1707C170.563 30.9915 169.947 32.9945 169.947 35.1795V62.4923H166.988V21.5231Z" fill="#F5F5F5"/>
<path d="M256.105 63.4938C252.161 63.4938 248.493 62.5227 245.104 60.5804C241.714 58.6382 239.033 56.0283 237.061 52.7507C235.088 49.4125 234.102 45.8315 234.102 42.0077C234.102 38.1839 235.088 34.6332 237.061 31.3557C239.033 28.0175 241.714 25.3772 245.104 23.435C248.493 21.4927 252.161 20.5216 256.105 20.5216C260.111 20.5216 263.902 21.5838 267.476 23.7081C271.051 25.7717 273.547 28.4727 274.965 31.8109V21.5231H277.923V62.4923H274.965V52.2955C273.301 55.6945 270.712 58.4257 267.199 60.4894C263.748 62.4923 260.05 63.4938 256.105 63.4938ZM256.29 60.9446C259.68 60.9446 262.823 60.0949 265.72 58.3954C268.616 56.6352 270.897 54.3288 272.561 51.4761C274.287 48.5628 275.15 45.4066 275.15 42.0077C275.15 38.6695 274.287 35.5437 272.561 32.6303C270.835 29.7169 268.524 27.4105 265.627 25.7111C262.731 23.9509 259.587 23.0708 256.198 23.0708C252.808 23.0708 249.634 23.9509 246.675 25.7111C243.779 27.4712 241.436 29.808 239.649 32.7213C237.923 35.6347 237.061 38.7605 237.061 42.0987C237.061 45.437 237.923 48.5628 239.649 51.4761C241.436 54.3288 243.809 56.6352 246.768 58.3954C249.726 60.0949 252.9 60.9446 256.29 60.9446Z" fill="#F5F5F5"/>
<path fill-rule="evenodd" clip-rule="evenodd" d="M324.085 67.2391V76.8533C327.525 78.6013 332.215 79.5378 336.217 79.9124C351.725 81.161 372.612 69.0496 371.986 44.702C371.111 32.2784 365.983 26.5349 359.855 19.7925C353.914 13.6119 348.786 11.5518 342.345 11.1772C328.275 10.3656 317.144 22.4145 317.332 34.7132C317.644 50.6952 329.901 58.3741 340.282 58.936V49.4466C339.219 49.5715 338.093 49.6964 336.967 49.6964C323.21 49.6964 312.517 37.8347 313.017 24.8493C313.58 11.4893 325.086 2 337.092 2C340.407 2 355.102 3.49831 359.917 19.6052C376.426 37.148 361.23 75.792 327.462 68.3004C326.587 68.1131 325.086 67.6137 324.085 67.2391Z" stroke="#F5F5F5" stroke-width="2.6" stroke-miterlimit="10"/>
<path d="M419.016 16.5521C410.12 16.5521 403.656 21.9921 403.656 30.0561C403.656 38.0561 410.12 43.5601 419.016 43.5601C427.976 43.5601 434.376 38.0561 434.376 30.0561C434.376 21.9921 427.976 16.5521 419.016 16.5521ZM419.016 21.0321C424.968 21.0321 429.256 24.6801 429.256 30.0561C429.256 35.3681 424.968 39.0801 419.016 39.0801C413.128 39.0801 408.776 35.3681 408.776 30.0561C408.776 24.6801 413.128 21.0321 419.016 21.0321ZM441.928 12.3281V69.8641H447.176V12.3281H441.928ZM401.416 57.2561C411.784 57.2561 425.672 57.1281 438.6 54.7601L438.152 50.8561C425.608 52.7761 411.208 52.8401 400.776 52.8401L401.416 57.2561Z" fill="white"/>
<path d="M519.251 46.3121H524.563V12.3921H519.251V24.5521H506.771V28.8401H519.251V46.3121ZM510.931 39.5281C502.547 36.5841 496.979 29.4801 496.979 21.2881V15.5921H491.731V21.4801C491.731 30.2481 486.035 37.9281 477.203 41.0641L479.955 45.3521C486.867 42.7281 492.051 37.5441 494.483 30.7601C496.979 36.7121 501.843 41.2561 508.115 43.6241L510.931 39.5281ZM505.619 65.5121C496.979 65.5121 491.731 63.0161 491.731 58.8561C491.731 54.6321 496.979 52.1361 505.619 52.1361C514.259 52.1361 519.507 54.6321 519.507 58.8561C519.507 63.0161 514.259 65.5121 505.619 65.5121ZM505.619 48.0401C493.843 48.0401 486.483 51.9441 486.483 58.8561C486.483 65.7041 493.843 69.6721 505.619 69.6721C517.395 69.6721 524.755 65.7041 524.755 58.8561C524.755 51.9441 517.395 48.0401 505.619 48.0401Z" fill="white"/>
<path d="M569.422 40.1041C560.974 37.2881 555.534 30.5681 555.534 23.0801V20.8401H568.206V16.6161H537.422V20.8401H550.286V23.0801C550.286 31.3361 544.526 38.7601 535.886 41.7681L538.574 45.9281C545.422 43.4961 550.606 38.3761 553.038 31.8481C555.47 37.5441 560.398 42.0881 566.926 44.2001L569.422 40.1041ZM562.446 65.5121C553.87 65.5121 548.75 63.1441 548.75 59.0481C548.75 55.0161 553.87 52.6481 562.446 52.6481C570.894 52.6481 576.078 55.0161 576.078 59.0481C576.078 63.1441 570.894 65.5121 562.446 65.5121ZM562.446 48.4881C550.67 48.4881 543.502 52.3921 543.502 59.0481C543.502 65.7681 550.67 69.6721 562.446 69.6721C574.094 69.6721 581.326 65.7681 581.326 59.0481C581.326 52.3921 574.094 48.4881 562.446 48.4881ZM580.686 26.8561V12.3921H575.438V47.0161H580.686V31.2721H589.198V26.8561H580.686Z" fill="white"/>
<path d="M598.089 18.4721V22.8241H619.145C617.929 36.3921 610.057 47.4001 595.401 54.7601L598.281 58.8561C616.841 49.5761 624.329 34.7921 624.329 18.4721H598.089ZM648.393 35.6241H639.177V12.3281H633.929V69.7361H639.177V39.9761H648.393V35.6241Z" fill="white"/>
<path d="M699.908 28.3281H666.18V13.5441H660.932V32.5521H699.908V28.3281ZM679.812 65.4481C670.788 65.4481 665.476 63.0801 665.476 59.1121C665.476 55.0161 670.788 52.7121 679.812 52.7121C688.836 52.7121 694.148 55.0161 694.148 59.1121C694.148 63.0801 688.772 65.4481 679.812 65.4481ZM679.812 48.6161C667.588 48.6161 660.164 52.3921 660.164 59.1121C660.164 65.7681 667.588 69.5441 679.812 69.5441C692.036 69.5441 699.46 65.7681 699.46 59.1121C699.46 52.3921 692.036 48.6161 679.812 48.6161ZM653.956 39.2081V43.4961H705.86V39.2081H653.956Z" fill="white"/>
<path d="M754.751 46.3121H760.063V12.3921H754.751V24.5521H742.271V28.8401H754.751V46.3121ZM746.431 39.5281C738.047 36.5841 732.479 29.4801 732.479 21.2881V15.5921H727.231V21.4801C727.231 30.2481 721.535 37.9281 712.703 41.0641L715.455 45.3521C722.367 42.7281 727.551 37.5441 729.983 30.7601C732.479 36.7121 737.343 41.2561 743.615 43.6241L746.431 39.5281ZM741.119 65.5121C732.479 65.5121 727.231 63.0161 727.231 58.8561C727.231 54.6321 732.479 52.1361 741.119 52.1361C749.759 52.1361 755.007 54.6321 755.007 58.8561C755.007 63.0161 749.759 65.5121 741.119 65.5121ZM741.119 48.0401C729.343 48.0401 721.983 51.9441 721.983 58.8561C721.983 65.7041 729.343 69.6721 741.119 69.6721C752.895 69.6721 760.255 65.7041 760.255 58.8561C760.255 51.9441 752.895 48.0401 741.119 48.0401Z" fill="white"/>
<path d="M797.562 18.5361C806.586 18.5361 812.346 21.2241 812.346 25.7681C812.346 30.3121 806.586 32.9361 797.562 32.9361C788.538 32.9361 782.778 30.3121 782.778 25.7681C782.778 21.2241 788.538 18.5361 797.562 18.5361ZM797.562 37.1601C809.85 37.1601 817.722 32.9361 817.722 25.7681C817.722 18.6001 809.85 14.3121 797.562 14.3121C785.274 14.3121 777.402 18.6001 777.402 25.7681C777.402 32.9361 785.274 37.1601 797.562 37.1601ZM783.546 51.8161H778.298V68.4561H817.786V64.1681H783.546V51.8161ZM771.578 42.5361V46.7601H823.482V42.5361H771.578Z" fill="white"/>
<path d="M839.034 51.9092V51.6365C839.064 48.7426 839.367 46.4395 839.943 44.7274C840.519 43.0153 841.337 41.6289 842.398 40.5683C843.458 39.5077 844.731 38.5304 846.216 37.6365C847.11 37.091 847.913 36.4471 848.625 35.7047C849.337 34.9471 849.898 34.0759 850.307 33.091C850.731 32.1062 850.943 31.0153 850.943 29.8183C850.943 28.3335 850.595 27.0456 849.898 25.9547C849.201 24.8638 848.269 24.0229 847.102 23.4319C845.935 22.841 844.64 22.5456 843.216 22.5456C841.973 22.5456 840.776 22.8032 839.625 23.3183C838.473 23.8335 837.511 24.6441 836.739 25.7501C835.966 26.8562 835.519 28.3032 835.398 30.091H829.67C829.792 27.5153 830.458 25.3107 831.67 23.4774C832.898 21.6441 834.511 20.2425 836.511 19.2729C838.526 18.3032 840.761 17.8183 843.216 17.8183C845.882 17.8183 848.201 18.3486 850.17 19.4092C852.155 20.4698 853.685 21.9244 854.761 23.7729C855.852 25.6213 856.398 27.7274 856.398 30.091C856.398 31.7577 856.14 33.2653 855.625 34.6138C855.125 35.9622 854.398 37.1668 853.443 38.2274C852.504 39.288 851.367 40.2274 850.034 41.0456C848.701 41.8789 847.632 42.7577 846.829 43.6819C846.026 44.591 845.443 45.6744 845.079 46.9319C844.716 48.1895 844.519 49.7577 844.489 51.6365V51.9092H839.034ZM841.943 65.3638C840.822 65.3638 839.86 64.9622 839.057 64.1592C838.254 63.3562 837.852 62.3941 837.852 61.2729C837.852 60.1516 838.254 59.1895 839.057 58.3865C839.86 57.5835 840.822 57.1819 841.943 57.1819C843.064 57.1819 844.026 57.5835 844.829 58.3865C845.632 59.1895 846.034 60.1516 846.034 61.2729C846.034 62.0153 845.845 62.6971 845.466 63.3183C845.102 63.9395 844.61 64.4395 843.989 64.8183C843.382 65.1819 842.701 65.3638 841.943 65.3638Z" fill="white"/>
</svg>
