<svg width="278" height="44" viewBox="0 0 278 44" fill="none" xmlns="http://www.w3.org/2000/svg">
<path d="M22.0029 43.6759C17.9968 43.6759 14.2988 42.7351 10.909 40.8535C7.58083 38.972 4.93062 36.3925 2.95837 33.1149C0.986124 29.8374 0 26.135 0 22.0077C0 18.1839 0.986124 14.6636 2.95837 11.4467C4.93062 8.16921 7.61165 5.55932 11.0014 3.61707C14.4529 1.67483 18.2433 0.703705 22.3727 0.703705C25.8241 0.703705 28.7825 1.24996 31.2478 2.34247C33.7131 3.43499 36.1168 5.13445 38.4588 7.44087V12.3572C36.425 9.38311 34.1446 7.13739 31.6176 5.62001C29.1523 4.04194 26.0707 3.2529 22.3727 3.2529C18.9829 3.2529 15.778 4.13298 12.758 5.89314C9.79961 7.59261 7.42675 9.89902 5.6394 12.8124C3.85205 15.7258 2.95837 18.8516 2.95837 22.1898C2.95837 25.8315 3.82123 29.109 5.54695 32.0224C7.27267 34.8751 9.58389 37.1208 12.4806 38.7596C15.439 40.3376 18.6131 41.1267 22.0029 41.1267C28.9058 41.1267 34.3911 38.0616 38.4588 31.9314V36.8477C36.2401 39.1541 33.7748 40.8839 31.0629 42.0371C28.4127 43.1296 25.3927 43.6759 22.0029 43.6759Z" fill="white"/>
<path d="M67.329 43.949C63.1379 43.949 59.3475 42.9475 55.9577 40.9446C52.5679 38.881 49.9177 36.18 48.0071 32.8418C46.0965 29.4429 45.1412 25.7708 45.1412 21.8256C45.1412 17.9411 46.0965 14.3298 48.0071 10.9915C49.9794 7.6533 52.6296 5.01306 55.9577 3.07082C59.3475 1.06788 63.1071 0.0664062 67.2365 0.0664062C71.3043 0.0664062 75.0023 1.06788 78.3304 3.07082C81.7202 5.01306 84.3704 7.6533 86.281 10.9915C88.1917 14.3298 89.147 17.9411 89.147 21.8256C89.147 25.8922 88.2225 29.6249 86.3735 33.0239C84.5245 36.3621 81.9359 39.0327 78.6078 41.0356C75.3412 42.9779 71.5816 43.949 67.329 43.949ZM67.329 41.3998C70.842 41.3998 74.0469 40.5197 76.9437 38.7596C79.8404 36.9994 82.09 34.6626 83.6925 31.7493C85.3566 28.7752 86.1886 25.528 86.1886 22.0077C86.1886 18.5481 85.3566 15.3312 83.6925 12.3572C82.0284 9.38311 79.748 7.016 76.8512 5.25584C73.9545 3.49568 70.7496 2.6156 67.2365 2.6156C63.7235 2.6156 60.4877 3.52603 57.5294 5.34688C54.6326 7.10704 52.3214 9.47415 50.5957 12.4482C48.9316 15.4223 48.0996 18.6391 48.0996 22.0987C48.0996 25.5584 48.9316 28.7752 50.5957 31.7493C52.3214 34.6626 54.6326 36.9994 57.5294 38.7596C60.4877 40.5197 63.7543 41.3998 67.329 41.3998Z" fill="white"/>
<path d="M97.471 1.52309H100.429V7.71399C103.264 2.91908 107.825 0.521619 114.112 0.521619C117.132 0.521619 119.751 1.37135 121.97 3.07082C124.189 4.70958 125.73 7.19809 126.592 10.5363C127.394 7.56226 129.15 5.1648 131.862 3.34395C134.636 1.46239 137.748 0.521619 141.199 0.521619C145.699 0.521619 149.181 1.82657 151.646 4.43646C154.112 6.98565 155.344 10.6274 155.344 15.3616V42.4923H152.386V15.3616C152.386 11.5378 151.369 8.53338 149.335 6.34835C147.363 4.16333 144.743 3.07082 141.477 3.07082C139.011 3.07082 136.731 3.67777 134.636 4.89167C132.54 6.04488 130.876 7.62295 129.643 9.62589C128.411 11.6288 127.794 13.8442 127.794 16.272V42.4923H124.836V17.0004C124.836 12.6303 123.788 9.23137 121.693 6.80357C119.597 4.31507 116.885 3.07082 113.557 3.07082C111.338 3.07082 109.212 3.61707 107.178 4.70958C105.206 5.8021 103.573 7.28913 102.278 9.17068C101.046 10.9915 100.429 12.9945 100.429 15.1795V42.4923H97.471V1.52309Z" fill="white"/>
<path d="M166.988 1.52309H169.947V7.71399C172.782 2.91908 177.343 0.521619 183.629 0.521619C186.649 0.521619 189.269 1.37135 191.487 3.07082C193.706 4.70958 195.247 7.19809 196.11 10.5363C196.911 7.56226 198.668 5.1648 201.38 3.34395C204.153 1.46239 207.265 0.521619 210.717 0.521619C215.216 0.521619 218.698 1.82657 221.164 4.43646C223.629 6.98565 224.862 10.6274 224.862 15.3616V42.4923H221.903V15.3616C221.903 11.5378 220.886 8.53338 218.852 6.34835C216.88 4.16333 214.261 3.07082 210.994 3.07082C208.529 3.07082 206.249 3.67777 204.153 4.89167C202.057 6.04488 200.393 7.62295 199.161 9.62589C197.928 11.6288 197.312 13.8442 197.312 16.272V42.4923H194.353V17.0004C194.353 12.6303 193.306 9.23137 191.21 6.80357C189.115 4.31507 186.403 3.07082 183.075 3.07082C180.856 3.07082 178.729 3.61707 176.696 4.70958C174.723 5.8021 173.09 7.28913 171.796 9.17068C170.563 10.9915 169.947 12.9945 169.947 15.1795V42.4923H166.988V1.52309Z" fill="white"/>
<path d="M256.105 43.4938C252.161 43.4938 248.493 42.5227 245.104 40.5804C241.714 38.6382 239.033 36.0283 237.061 32.7507C235.088 29.4125 234.102 25.8315 234.102 22.0077C234.102 18.1839 235.088 14.6332 237.061 11.3557C239.033 8.01747 241.714 5.37723 245.104 3.43499C248.493 1.49274 252.161 0.521619 256.105 0.521619C260.111 0.521619 263.902 1.58378 267.476 3.70811C271.051 5.77175 273.547 8.47268 274.965 11.8109V1.52309H277.923V42.4923H274.965V32.2955C273.301 35.6945 270.712 38.4257 267.199 40.4894C263.748 42.4923 260.05 43.4938 256.105 43.4938ZM256.29 40.9446C259.68 40.9446 262.823 40.0949 265.72 38.3954C268.616 36.6352 270.897 34.3288 272.561 31.4761C274.287 28.5628 275.15 25.4066 275.15 22.0077C275.15 18.6695 274.287 15.5437 272.561 12.6303C270.835 9.71694 268.524 7.41052 265.627 5.71106C262.731 3.9509 259.587 3.07082 256.198 3.07082C252.808 3.07082 249.634 3.9509 246.675 5.71106C243.779 7.47121 241.436 9.80798 239.649 12.7213C237.923 15.6347 237.061 18.7605 237.061 22.0987C237.061 25.437 237.923 28.5628 239.649 31.4761C241.436 34.3288 243.809 36.6352 246.768 38.3954C249.726 40.0949 252.9 40.9446 256.29 40.9446Z" fill="white"/>
</svg>
