<svg width="855" height="82" viewBox="0 0 855 82" fill="none" xmlns="http://www.w3.org/2000/svg">
<path d="M22.0029 63.6759C17.9968 63.6759 14.2988 62.7351 10.909 60.8535C7.58083 58.972 4.93062 56.3925 2.95837 53.1149C0.986124 49.8374 0 46.135 0 42.0077C0 38.1839 0.986124 34.6636 2.95837 31.4467C4.93062 28.1692 7.61165 25.5593 11.0014 23.6171C14.4529 21.6748 18.2433 20.7037 22.3727 20.7037C25.8241 20.7037 28.7825 21.25 31.2478 22.3425C33.7131 23.435 36.1168 25.1345 38.4588 27.4409V32.3572C36.425 29.3831 34.1446 27.1374 31.6176 25.62C29.1523 24.0419 26.0707 23.2529 22.3727 23.2529C18.9829 23.2529 15.778 24.133 12.758 25.8931C9.79961 27.5926 7.42675 29.899 5.6394 32.8124C3.85205 35.7258 2.95837 38.8516 2.95837 42.1898C2.95837 45.8315 3.82123 49.109 5.54695 52.0224C7.27267 54.8751 9.58389 57.1208 12.4806 58.7596C15.439 60.3376 18.6131 61.1267 22.0029 61.1267C28.9058 61.1267 34.3911 58.0616 38.4588 51.9314V56.8477C36.2401 59.1541 33.7748 60.8839 31.0629 62.0371C28.4127 63.1296 25.3927 63.6759 22.0029 63.6759Z" fill="white"/>
<path d="M67.329 63.949C63.1379 63.949 59.3475 62.9475 55.9577 60.9446C52.5679 58.881 49.9177 56.18 48.0071 52.8418C46.0965 49.4429 45.1412 45.7708 45.1412 41.8256C45.1412 37.9411 46.0965 34.3298 48.0071 30.9915C49.9794 27.6533 52.6296 25.0131 55.9577 23.0708C59.3475 21.0679 63.1071 20.0664 67.2365 20.0664C71.3043 20.0664 75.0023 21.0679 78.3304 23.0708C81.7202 25.0131 84.3704 27.6533 86.2811 30.9915C88.1917 34.3298 89.147 37.9411 89.147 41.8256C89.147 45.8922 88.2225 49.6249 86.3735 53.0239C84.5245 56.3621 81.9359 59.0327 78.6078 61.0356C75.3412 62.9779 71.5816 63.949 67.329 63.949ZM67.329 61.3998C70.842 61.3998 74.047 60.5197 76.9437 58.7596C79.8404 56.9994 82.09 54.6626 83.6925 51.7493C85.3566 48.7752 86.1886 45.528 86.1886 42.0077C86.1886 38.5481 85.3566 35.3312 83.6925 32.3572C82.0284 29.3831 79.748 27.016 76.8512 25.2558C73.9545 23.4957 70.7496 22.6156 67.2365 22.6156C63.7235 22.6156 60.4877 23.526 57.5294 25.3469C54.6326 27.107 52.3214 29.4742 50.5957 32.4482C48.9316 35.4223 48.0996 38.6391 48.0996 42.0987C48.0996 45.5584 48.9316 48.7752 50.5957 51.7493C52.3214 54.6626 54.6326 56.9994 57.5294 58.7596C60.4877 60.5197 63.7543 61.3998 67.329 61.3998Z" fill="white"/>
<path d="M97.471 21.5231H100.429V27.714C103.264 22.9191 107.825 20.5216 114.112 20.5216C117.132 20.5216 119.751 21.3714 121.97 23.0708C124.189 24.7096 125.73 27.1981 126.592 30.5363C127.394 27.5623 129.15 25.1648 131.862 23.3439C134.636 21.4624 137.748 20.5216 141.199 20.5216C145.699 20.5216 149.181 21.8266 151.646 24.4365C154.112 26.9857 155.344 30.6274 155.344 35.3616V62.4923H152.386V35.3616C152.386 31.5378 151.369 28.5334 149.335 26.3484C147.363 24.1633 144.743 23.0708 141.477 23.0708C139.011 23.0708 136.731 23.6778 134.636 24.8917C132.54 26.0449 130.876 27.623 129.643 29.6259C128.411 31.6288 127.794 33.8442 127.794 36.272V62.4923H124.836V37.0004C124.836 32.6303 123.788 29.2314 121.693 26.8036C119.597 24.3151 116.885 23.0708 113.557 23.0708C111.338 23.0708 109.212 23.6171 107.178 24.7096C105.206 25.8021 103.573 27.2891 102.278 29.1707C101.046 30.9915 100.429 32.9945 100.429 35.1795V62.4923H97.471V21.5231Z" fill="white"/>
<path d="M166.988 21.5231H169.947V27.714C172.782 22.9191 177.343 20.5216 183.629 20.5216C186.649 20.5216 189.269 21.3714 191.487 23.0708C193.706 24.7096 195.247 27.1981 196.11 30.5363C196.911 27.5623 198.668 25.1648 201.38 23.3439C204.153 21.4624 207.265 20.5216 210.717 20.5216C215.216 20.5216 218.698 21.8266 221.164 24.4365C223.629 26.9857 224.862 30.6274 224.862 35.3616V62.4923H221.903V35.3616C221.903 31.5378 220.886 28.5334 218.852 26.3484C216.88 24.1633 214.261 23.0708 210.994 23.0708C208.529 23.0708 206.249 23.6778 204.153 24.8917C202.057 26.0449 200.393 27.623 199.161 29.6259C197.928 31.6288 197.312 33.8442 197.312 36.272V62.4923H194.353V37.0004C194.353 32.6303 193.306 29.2314 191.21 26.8036C189.115 24.3151 186.403 23.0708 183.075 23.0708C180.856 23.0708 178.729 23.6171 176.696 24.7096C174.723 25.8021 173.09 27.2891 171.796 29.1707C170.563 30.9915 169.947 32.9945 169.947 35.1795V62.4923H166.988V21.5231Z" fill="white"/>
<path d="M256.105 63.4938C252.161 63.4938 248.493 62.5227 245.104 60.5804C241.714 58.6382 239.033 56.0283 237.061 52.7507C235.088 49.4125 234.102 45.8315 234.102 42.0077C234.102 38.1839 235.088 34.6332 237.061 31.3557C239.033 28.0175 241.714 25.3772 245.104 23.435C248.493 21.4927 252.161 20.5216 256.105 20.5216C260.111 20.5216 263.902 21.5838 267.476 23.7081C271.051 25.7717 273.547 28.4727 274.965 31.8109V21.5231H277.923V62.4923H274.965V52.2955C273.301 55.6945 270.712 58.4257 267.199 60.4894C263.748 62.4923 260.05 63.4938 256.105 63.4938ZM256.29 60.9446C259.68 60.9446 262.823 60.0949 265.72 58.3954C268.616 56.6352 270.897 54.3288 272.561 51.4761C274.287 48.5628 275.15 45.4066 275.15 42.0077C275.15 38.6695 274.287 35.5437 272.561 32.6303C270.835 29.7169 268.524 27.4105 265.627 25.7111C262.731 23.9509 259.587 23.0708 256.198 23.0708C252.808 23.0708 249.634 23.9509 246.675 25.7111C243.779 27.4712 241.436 29.808 239.649 32.7213C237.923 35.6347 237.061 38.7605 237.061 42.0987C237.061 45.437 237.923 48.5628 239.649 51.4761C241.436 54.3288 243.809 56.6352 246.768 58.3954C249.726 60.0949 252.9 60.9446 256.29 60.9446Z" fill="white"/>
<path fill-rule="evenodd" clip-rule="evenodd" d="M324.085 67.2391V76.8533C327.525 78.6013 332.215 79.5378 336.217 79.9124C351.725 81.161 372.612 69.0496 371.986 44.702C371.111 32.2784 365.983 26.5349 359.855 19.7925C353.914 13.6119 348.786 11.5518 342.345 11.1772C328.275 10.3656 317.144 22.4145 317.332 34.7132C317.644 50.6952 329.901 58.3741 340.282 58.936V49.4466C339.219 49.5715 338.093 49.6964 336.967 49.6964C323.21 49.6964 312.517 37.8347 313.017 24.8493C313.58 11.4893 325.086 2 337.092 2C340.407 2 355.102 3.49831 359.917 19.6052C376.426 37.148 361.23 75.792 327.462 68.3004C326.587 68.1131 325.086 67.6137 324.085 67.2391Z" stroke="white" stroke-width="2.6" stroke-miterlimit="10"/>
<path d="M417.016 16.224C408.12 16.224 401.656 21.664 401.656 29.728C401.656 37.728 408.12 43.232 417.016 43.232C425.976 43.232 432.376 37.728 432.376 29.728C432.376 21.664 425.976 16.224 417.016 16.224ZM417.016 20.704C422.968 20.704 427.256 24.352 427.256 29.728C427.256 35.04 422.968 38.752 417.016 38.752C411.128 38.752 406.776 35.04 406.776 29.728C406.776 24.352 411.128 20.704 417.016 20.704ZM439.928 12V69.536H445.176V12H439.928ZM399.416 56.928C409.784 56.928 423.672 56.8 436.6 54.432L436.152 50.528C423.608 52.448 409.208 52.512 398.776 52.512L399.416 56.928Z" fill="white"/>
<path d="M517.251 45.984H522.563V12.064H517.251V24.224H504.771V28.512H517.251V45.984ZM508.931 39.2C500.547 36.256 494.979 29.152 494.979 20.96V15.264H489.731V21.152C489.731 29.92 484.035 37.6 475.203 40.736L477.955 45.024C484.867 42.4 490.051 37.216 492.483 30.432C494.979 36.384 499.843 40.928 506.115 43.296L508.931 39.2ZM503.619 65.184C494.979 65.184 489.731 62.688 489.731 58.528C489.731 54.304 494.979 51.808 503.619 51.808C512.259 51.808 517.507 54.304 517.507 58.528C517.507 62.688 512.259 65.184 503.619 65.184ZM503.619 47.712C491.843 47.712 484.483 51.616 484.483 58.528C484.483 65.376 491.843 69.344 503.619 69.344C515.395 69.344 522.755 65.376 522.755 58.528C522.755 51.616 515.395 47.712 503.619 47.712Z" fill="white"/>
<path d="M567.422 39.776C558.974 36.96 553.534 30.24 553.534 22.752V20.512H566.206V16.288H535.422V20.512H548.286V22.752C548.286 31.008 542.526 38.432 533.886 41.44L536.574 45.6C543.422 43.168 548.606 38.048 551.038 31.52C553.47 37.216 558.398 41.76 564.926 43.872L567.422 39.776ZM560.446 65.184C551.87 65.184 546.75 62.816 546.75 58.72C546.75 54.688 551.87 52.32 560.446 52.32C568.894 52.32 574.078 54.688 574.078 58.72C574.078 62.816 568.894 65.184 560.446 65.184ZM560.446 48.16C548.67 48.16 541.502 52.064 541.502 58.72C541.502 65.44 548.67 69.344 560.446 69.344C572.094 69.344 579.326 65.44 579.326 58.72C579.326 52.064 572.094 48.16 560.446 48.16ZM578.686 26.528V12.064H573.438V46.688H578.686V30.944H587.198V26.528H578.686Z" fill="white"/>
<path d="M596.089 18.144V22.496H617.145C615.929 36.064 608.057 47.072 593.401 54.432L596.281 58.528C614.841 49.248 622.329 34.464 622.329 18.144H596.089ZM646.393 35.296H637.177V12H631.929V69.408H637.177V39.648H646.393V35.296Z" fill="white"/>
<path d="M697.908 28H664.18V13.216H658.932V32.224H697.908V28ZM677.812 65.12C668.788 65.12 663.476 62.752 663.476 58.784C663.476 54.688 668.788 52.384 677.812 52.384C686.836 52.384 692.148 54.688 692.148 58.784C692.148 62.752 686.772 65.12 677.812 65.12ZM677.812 48.288C665.588 48.288 658.164 52.064 658.164 58.784C658.164 65.44 665.588 69.216 677.812 69.216C690.036 69.216 697.46 65.44 697.46 58.784C697.46 52.064 690.036 48.288 677.812 48.288ZM651.956 38.88V43.168H703.86V38.88H651.956Z" fill="white"/>
<path d="M752.751 45.984H758.063V12.064H752.751V24.224H740.271V28.512H752.751V45.984ZM744.431 39.2C736.047 36.256 730.479 29.152 730.479 20.96V15.264H725.231V21.152C725.231 29.92 719.535 37.6 710.703 40.736L713.455 45.024C720.367 42.4 725.551 37.216 727.983 30.432C730.479 36.384 735.343 40.928 741.615 43.296L744.431 39.2ZM739.119 65.184C730.479 65.184 725.231 62.688 725.231 58.528C725.231 54.304 730.479 51.808 739.119 51.808C747.759 51.808 753.007 54.304 753.007 58.528C753.007 62.688 747.759 65.184 739.119 65.184ZM739.119 47.712C727.343 47.712 719.983 51.616 719.983 58.528C719.983 65.376 727.343 69.344 739.119 69.344C750.895 69.344 758.255 65.376 758.255 58.528C758.255 51.616 750.895 47.712 739.119 47.712Z" fill="white"/>
<path d="M795.562 18.208C804.586 18.208 810.346 20.896 810.346 25.44C810.346 29.984 804.586 32.608 795.562 32.608C786.538 32.608 780.778 29.984 780.778 25.44C780.778 20.896 786.538 18.208 795.562 18.208ZM795.562 36.832C807.85 36.832 815.722 32.608 815.722 25.44C815.722 18.272 807.85 13.984 795.562 13.984C783.274 13.984 775.402 18.272 775.402 25.44C775.402 32.608 783.274 36.832 795.562 36.832ZM781.546 51.488H776.298V68.128H815.786V63.84H781.546V51.488ZM769.578 42.208V46.432H821.482V42.208H769.578Z" fill="white"/>
<path d="M837.034 51.5811V51.3084C837.064 48.4144 837.367 46.1114 837.943 44.3993C838.519 42.6872 839.337 41.3008 840.398 40.2402C841.458 39.1796 842.731 38.2023 844.216 37.3084C845.11 36.7629 845.913 36.119 846.625 35.3765C847.337 34.619 847.898 33.7478 848.307 32.7629C848.731 31.7781 848.943 30.6872 848.943 29.4902C848.943 28.0053 848.595 26.7175 847.898 25.6265C847.201 24.5356 846.269 23.6947 845.102 23.1038C843.935 22.5129 842.64 22.2175 841.216 22.2175C839.973 22.2175 838.776 22.475 837.625 22.9902C836.473 23.5053 835.511 24.3159 834.739 25.422C833.966 26.5281 833.519 27.975 833.398 29.7629H827.67C827.792 27.1872 828.458 24.9826 829.67 23.1493C830.898 21.3159 832.511 19.9144 834.511 18.9447C836.526 17.975 838.761 17.4902 841.216 17.4902C843.882 17.4902 846.201 18.0205 848.17 19.0811C850.155 20.1417 851.685 21.5962 852.761 23.4447C853.852 25.2932 854.398 27.3993 854.398 29.7629C854.398 31.4296 854.14 32.9372 853.625 34.2856C853.125 35.6341 852.398 36.8387 851.443 37.8993C850.504 38.9599 849.367 39.8993 848.034 40.7175C846.701 41.5508 845.632 42.4296 844.829 43.3538C844.026 44.2629 843.443 45.3462 843.079 46.6038C842.716 47.8614 842.519 49.4296 842.489 51.3084V51.5811H837.034ZM839.943 65.0356C838.822 65.0356 837.86 64.6341 837.057 63.8311C836.254 63.0281 835.852 62.0659 835.852 60.9447C835.852 59.8235 836.254 58.8614 837.057 58.0584C837.86 57.2553 838.822 56.8538 839.943 56.8538C841.064 56.8538 842.026 57.2553 842.829 58.0584C843.632 58.8614 844.034 59.8235 844.034 60.9447C844.034 61.6872 843.845 62.369 843.466 62.9902C843.102 63.6114 842.61 64.1114 841.989 64.4902C841.382 64.8538 840.701 65.0356 839.943 65.0356Z" fill="white"/>
</svg>
