<svg width="354" height="82" viewBox="0 0 354 82" fill="none" xmlns="http://www.w3.org/2000/svg">
<path fill-rule="evenodd" clip-rule="evenodd" d="M304.085 67.2391V76.8533C307.525 78.6013 312.215 79.5378 316.217 79.9124C331.725 81.161 352.612 69.0496 351.986 44.702C351.111 32.2784 345.983 26.5349 339.855 19.7925C333.914 13.6119 328.786 11.5518 322.345 11.1772C308.275 10.3656 297.144 22.4145 297.332 34.7132C297.644 50.6952 309.901 58.3741 320.282 58.936V49.4466C319.219 49.5715 318.093 49.6964 316.967 49.6964C303.21 49.6964 292.517 37.8347 293.017 24.8493C293.58 11.4893 305.086 2 317.092 2C320.407 2 335.102 3.49831 339.917 19.6052C356.426 37.148 341.23 75.792 307.462 68.3004C306.587 68.1131 305.086 67.6137 304.085 67.2391Z" stroke="#F5F5F5" stroke-width="2.6" stroke-miterlimit="10"/>
<path d="M18.9623 63.8853C15.343 63.8853 12.1576 62.9343 9.40616 61.0323C6.65474 59.1119 4.50346 56.4897 2.95233 53.1658C1.41966 49.842 0.65332 46.0749 0.65332 41.8647C0.65332 37.6545 1.42889 33.8874 2.98002 30.5636C4.53116 27.2397 6.68244 24.6175 9.43386 22.6971C12.1853 20.7766 15.3522 19.8164 18.9346 19.8164C21.6306 19.8164 24.0866 20.3704 26.3025 21.4783C28.5368 22.5863 30.3834 24.1282 31.8422 26.1041C33.3195 28.0799 34.2613 30.3697 34.6675 32.9734H31.2329C30.6789 30.0927 29.2939 27.7106 27.078 25.8271C24.8806 23.9251 22.1753 22.9741 18.9623 22.9741C16.0816 22.9741 13.5148 23.7866 11.262 25.4116C9.00914 27.0181 7.23642 29.2433 5.9438 32.087C4.65119 34.9123 4.00488 38.1531 4.00488 41.8093C4.00488 45.4102 4.63272 48.6417 5.88841 51.5039C7.14409 54.3477 8.89835 56.6005 11.1512 58.2624C13.404 59.9244 16.0077 60.7553 18.9623 60.7553C21.0489 60.7553 22.9509 60.3398 24.6682 59.5089C26.404 58.6779 27.8536 57.4961 29.017 55.9634C30.1803 54.4308 30.9466 52.6396 31.316 50.5898H34.7506C34.3444 53.212 33.4211 55.5202 31.9807 57.5146C30.5404 59.5089 28.703 61.0693 26.4687 62.1957C24.2343 63.3221 21.7322 63.8853 18.9623 63.8853Z" fill="#F5F5F5"/>
<path d="M62.0894 63.8853C58.5809 63.8853 55.4601 62.9435 52.7272 61.06C49.9942 59.158 47.843 56.5451 46.2733 53.2212C44.7037 49.8974 43.9189 46.1119 43.9189 41.8647C43.9189 37.5991 44.7037 33.8136 46.2733 30.5082C47.843 27.1843 49.9942 24.5714 52.7272 22.6694C55.4601 20.7674 58.5809 19.8164 62.0894 19.8164C65.5979 19.8164 68.7187 20.7674 71.4516 22.6694C74.1846 24.5714 76.3358 27.1843 77.9054 30.5082C79.4751 33.832 80.2598 37.6175 80.2598 41.8647C80.2598 46.1119 79.4751 49.8974 77.9054 53.2212C76.3358 56.5451 74.1846 59.158 71.4516 61.06C68.7187 62.9435 65.5979 63.8853 62.0894 63.8853ZM62.0894 60.7553C65.0624 60.7553 67.6569 59.9151 69.8728 58.2347C72.1072 56.5543 73.8337 54.283 75.0525 51.4208C76.2897 48.5586 76.9083 45.3732 76.9083 41.8647C76.9083 38.3562 76.2897 35.18 75.0525 32.3363C73.8153 29.4741 72.0887 27.2028 69.8728 25.5224C67.6569 23.8235 65.0624 22.9741 62.0894 22.9741C59.1164 22.9741 56.5219 23.8235 54.306 25.5224C52.0901 27.2028 50.3635 29.4741 49.1263 32.3363C47.8891 35.18 47.2705 38.3562 47.2705 41.8647C47.2705 45.3732 47.8799 48.5586 49.0986 51.4208C50.3358 54.283 52.0624 56.5543 54.2783 58.2347C56.5127 59.9151 59.1164 60.7553 62.0894 60.7553Z" fill="#F5F5F5"/>
<path d="M91.9003 62.9989V20.4535H95.1965V26.8796H95.5288C96.3413 24.7376 97.7448 23.0387 99.7391 21.783C101.733 20.5273 104.134 19.8995 106.941 19.8995C110.025 19.8995 112.508 20.6381 114.392 22.1154C116.294 23.5927 117.66 25.5962 118.491 28.1261H118.796C119.627 25.6332 121.113 23.6389 123.255 22.1431C125.416 20.6474 128.075 19.8995 131.233 19.8995C135.351 19.8995 138.49 21.2014 140.65 23.805C142.829 26.3903 143.919 29.9357 143.919 34.4414V62.9989H140.54V34.4414C140.54 30.896 139.69 28.1076 137.991 26.0763C136.292 24.0451 133.799 23.0295 130.513 23.0295C127.004 23.0295 124.308 24.1282 122.424 26.3256C120.541 28.5231 119.599 31.3207 119.599 34.7184V62.9989H116.22V34.2198C116.22 30.9144 115.389 28.2276 113.727 26.1594C112.065 24.0728 109.572 23.0295 106.248 23.0295C103.995 23.0295 102.047 23.5465 100.404 24.5806C98.7788 25.6147 97.5139 27.0366 96.6091 28.8462C95.7227 30.6559 95.2796 32.7333 95.2796 35.0785V62.9989H91.9003Z" fill="#F5F5F5"/>
<path d="M157.941 62.9989V20.4535H161.237V26.8796H161.57C162.382 24.7376 163.786 23.0387 165.78 21.783C167.774 20.5273 170.175 19.8995 172.982 19.8995C176.066 19.8995 178.549 20.6381 180.433 22.1154C182.335 23.5927 183.701 25.5962 184.532 28.1261H184.837C185.668 25.6332 187.154 23.6389 189.296 22.1431C191.457 20.6474 194.116 19.8995 197.274 19.8995C201.392 19.8995 204.531 21.2014 206.691 23.805C208.87 26.3903 209.96 29.9357 209.96 34.4414V62.9989H206.581V34.4414C206.581 30.896 205.731 28.1076 204.032 26.0763C202.333 24.0451 199.84 23.0295 196.554 23.0295C193.045 23.0295 190.349 24.1282 188.465 26.3256C186.582 28.5231 185.64 31.3207 185.64 34.7184V62.9989H182.261V34.2198C182.261 30.9144 181.43 28.2276 179.768 26.1594C178.106 24.0728 175.613 23.0295 172.289 23.0295C170.036 23.0295 168.088 23.5465 166.445 24.5806C164.82 25.6147 163.555 27.0366 162.65 28.8462C161.764 30.6559 161.321 32.7333 161.321 35.0785V62.9989H157.941Z" fill="#F5F5F5"/>
<path d="M235.256 63.913C232.8 63.913 230.547 63.4237 228.497 62.445C226.466 61.4663 224.832 60.0352 223.595 58.1516C222.376 56.2681 221.766 53.9783 221.766 51.2823C221.766 49.5096 222.08 47.9492 222.708 46.6012C223.336 45.2532 224.305 44.0898 225.617 43.1112C226.928 42.1325 228.608 41.3292 230.658 40.7013C232.707 40.055 235.154 39.5565 237.998 39.2056C240.158 38.9471 242.088 38.6978 243.787 38.4577C245.486 38.1992 246.815 37.8022 247.776 37.2667C248.754 36.7312 249.244 35.9187 249.244 34.8292V33.0565C249.244 29.9542 248.265 27.489 246.308 25.6609C244.35 23.8327 241.654 22.9187 238.22 22.9187C235.173 22.9187 232.606 23.5927 230.519 24.9407C228.451 26.2702 227.002 27.9876 226.171 30.0927L222.985 28.9016C223.798 26.8704 224.97 25.1808 226.503 23.8327C228.054 22.4847 229.827 21.4783 231.821 20.8136C233.834 20.1488 235.939 19.8164 238.136 19.8164C240.038 19.8164 241.848 20.0842 243.565 20.6197C245.301 21.1552 246.843 21.9677 248.191 23.0572C249.558 24.1467 250.638 25.5408 251.432 27.2397C252.226 28.9201 252.623 30.9329 252.623 33.2781V62.9989H249.244V55.3264H248.994C248.256 56.9144 247.24 58.364 245.948 59.6751C244.673 60.9677 243.131 62.0018 241.322 62.7774C239.531 63.5345 237.509 63.913 235.256 63.913ZM235.588 60.783C238.247 60.783 240.602 60.1367 242.651 58.8441C244.72 57.533 246.335 55.7418 247.499 53.4705C248.662 51.1992 249.244 48.6232 249.244 45.7425V39.4826C248.819 39.8519 248.2 40.1843 247.388 40.4798C246.594 40.7568 245.689 41.006 244.673 41.2276C243.676 41.4308 242.624 41.6154 241.516 41.7816C240.426 41.9293 239.364 42.0678 238.33 42.1971C235.228 42.5664 232.698 43.1389 230.741 43.9144C228.802 44.6715 227.38 45.6687 226.475 46.9059C225.589 48.1431 225.146 49.6389 225.146 51.3931C225.146 54.2923 226.143 56.582 228.137 58.2624C230.131 59.9428 232.615 60.783 235.588 60.783Z" fill="#F5F5F5"/>
</svg>
