<svg width="374" height="82" viewBox="0 0 374 82" fill="none" xmlns="http://www.w3.org/2000/svg">
<path d="M22.0029 63.6759C17.9968 63.6759 14.2988 62.7351 10.909 60.8535C7.58083 58.972 4.93062 56.3925 2.95837 53.1149C0.986124 49.8374 0 46.135 0 42.0077C0 38.1839 0.986124 34.6636 2.95837 31.4467C4.93062 28.1692 7.61165 25.5593 11.0014 23.6171C14.4529 21.6748 18.2433 20.7037 22.3727 20.7037C25.8241 20.7037 28.7825 21.25 31.2478 22.3425C33.7131 23.435 36.1168 25.1345 38.4588 27.4409V32.3572C36.425 29.3831 34.1446 27.1374 31.6176 25.62C29.1523 24.0419 26.0707 23.2529 22.3727 23.2529C18.9829 23.2529 15.778 24.133 12.758 25.8931C9.79961 27.5926 7.42675 29.899 5.6394 32.8124C3.85205 35.7258 2.95837 38.8516 2.95837 42.1898C2.95837 45.8315 3.82123 49.109 5.54695 52.0224C7.27267 54.8751 9.58389 57.1208 12.4806 58.7596C15.439 60.3376 18.6131 61.1267 22.0029 61.1267C28.9058 61.1267 34.3911 58.0616 38.4588 51.9314V56.8477C36.2401 59.1541 33.7748 60.8839 31.0629 62.0371C28.4127 63.1296 25.3927 63.6759 22.0029 63.6759Z" fill="#F7C100"/>
<path d="M67.329 63.949C63.1379 63.949 59.3475 62.9475 55.9577 60.9446C52.5679 58.881 49.9177 56.18 48.0071 52.8418C46.0965 49.4429 45.1412 45.7708 45.1412 41.8256C45.1412 37.9411 46.0965 34.3298 48.0071 30.9915C49.9794 27.6533 52.6296 25.0131 55.9577 23.0708C59.3475 21.0679 63.1071 20.0664 67.2365 20.0664C71.3043 20.0664 75.0023 21.0679 78.3304 23.0708C81.7202 25.0131 84.3704 27.6533 86.281 30.9915C88.1917 34.3298 89.147 37.9411 89.147 41.8256C89.147 45.8922 88.2225 49.6249 86.3735 53.0239C84.5245 56.3621 81.9359 59.0327 78.6078 61.0356C75.3412 62.9779 71.5816 63.949 67.329 63.949ZM67.329 61.3998C70.842 61.3998 74.0469 60.5197 76.9437 58.7596C79.8404 56.9994 82.09 54.6626 83.6925 51.7493C85.3566 48.7752 86.1886 45.528 86.1886 42.0077C86.1886 38.5481 85.3566 35.3312 83.6925 32.3572C82.0284 29.3831 79.748 27.016 76.8512 25.2558C73.9545 23.4957 70.7496 22.6156 67.2365 22.6156C63.7235 22.6156 60.4877 23.526 57.5294 25.3469C54.6326 27.107 52.3214 29.4742 50.5957 32.4482C48.9316 35.4223 48.0996 38.6391 48.0996 42.0987C48.0996 45.5584 48.9316 48.7752 50.5957 51.7493C52.3214 54.6626 54.6326 56.9994 57.5294 58.7596C60.4877 60.5197 63.7543 61.3998 67.329 61.3998Z" fill="#F7C100"/>
<path d="M97.471 21.5231H100.429V27.714C103.264 22.9191 107.825 20.5216 114.112 20.5216C117.132 20.5216 119.751 21.3714 121.97 23.0708C124.189 24.7096 125.73 27.1981 126.592 30.5363C127.394 27.5623 129.15 25.1648 131.862 23.3439C134.636 21.4624 137.748 20.5216 141.199 20.5216C145.699 20.5216 149.181 21.8266 151.646 24.4365C154.112 26.9857 155.344 30.6274 155.344 35.3616V62.4923H152.386V35.3616C152.386 31.5378 151.369 28.5334 149.335 26.3484C147.363 24.1633 144.743 23.0708 141.477 23.0708C139.011 23.0708 136.731 23.6778 134.636 24.8917C132.54 26.0449 130.876 27.623 129.643 29.6259C128.411 31.6288 127.794 33.8442 127.794 36.272V62.4923H124.836V37.0004C124.836 32.6303 123.788 29.2314 121.693 26.8036C119.597 24.3151 116.885 23.0708 113.557 23.0708C111.338 23.0708 109.212 23.6171 107.178 24.7096C105.206 25.8021 103.573 27.2891 102.278 29.1707C101.046 30.9915 100.429 32.9945 100.429 35.1795V62.4923H97.471V21.5231Z" fill="#F7C100"/>
<path d="M166.988 21.5231H169.947V27.714C172.782 22.9191 177.343 20.5216 183.629 20.5216C186.649 20.5216 189.269 21.3714 191.487 23.0708C193.706 24.7096 195.247 27.1981 196.11 30.5363C196.911 27.5623 198.668 25.1648 201.38 23.3439C204.153 21.4624 207.265 20.5216 210.717 20.5216C215.216 20.5216 218.698 21.8266 221.164 24.4365C223.629 26.9857 224.862 30.6274 224.862 35.3616V62.4923H221.903V35.3616C221.903 31.5378 220.886 28.5334 218.852 26.3484C216.88 24.1633 214.261 23.0708 210.994 23.0708C208.529 23.0708 206.249 23.6778 204.153 24.8917C202.057 26.0449 200.393 27.623 199.161 29.6259C197.928 31.6288 197.312 33.8442 197.312 36.272V62.4923H194.353V37.0004C194.353 32.6303 193.306 29.2314 191.21 26.8036C189.115 24.3151 186.403 23.0708 183.075 23.0708C180.856 23.0708 178.729 23.6171 176.696 24.7096C174.723 25.8021 173.09 27.2891 171.796 29.1707C170.563 30.9915 169.947 32.9945 169.947 35.1795V62.4923H166.988V21.5231Z" fill="#F7C100"/>
<path d="M256.105 63.4938C252.161 63.4938 248.493 62.5227 245.104 60.5804C241.714 58.6382 239.033 56.0283 237.061 52.7507C235.088 49.4125 234.102 45.8315 234.102 42.0077C234.102 38.1839 235.088 34.6332 237.061 31.3557C239.033 28.0175 241.714 25.3772 245.104 23.435C248.493 21.4927 252.161 20.5216 256.105 20.5216C260.111 20.5216 263.902 21.5838 267.476 23.7081C271.051 25.7717 273.547 28.4727 274.965 31.8109V21.5231H277.923V62.4923H274.965V52.2955C273.301 55.6945 270.712 58.4257 267.199 60.4894C263.748 62.4923 260.05 63.4938 256.105 63.4938ZM256.29 60.9446C259.68 60.9446 262.823 60.0949 265.72 58.3954C268.616 56.6352 270.897 54.3288 272.561 51.4761C274.287 48.5628 275.15 45.4066 275.15 42.0077C275.15 38.6695 274.287 35.5437 272.561 32.6303C270.835 29.7169 268.524 27.4105 265.627 25.7111C262.731 23.9509 259.587 23.0708 256.198 23.0708C252.808 23.0708 249.634 23.9509 246.675 25.7111C243.779 27.4712 241.436 29.808 239.649 32.7213C237.923 35.6347 237.061 38.7605 237.061 42.0987C237.061 45.437 237.923 48.5628 239.649 51.4761C241.436 54.3288 243.809 56.6352 246.768 58.3954C249.726 60.0949 252.9 60.9446 256.29 60.9446Z" fill="#F7C100"/>
<path fill-rule="evenodd" clip-rule="evenodd" d="M324.085 67.2391V76.8533C327.525 78.6013 332.215 79.5378 336.217 79.9124C351.725 81.161 372.612 69.0496 371.986 44.702C371.111 32.2784 365.983 26.5349 359.855 19.7925C353.914 13.6119 348.786 11.5518 342.345 11.1772C328.275 10.3656 317.144 22.4145 317.332 34.7132C317.644 50.6952 329.901 58.3741 340.282 58.936V49.4466C339.219 49.5715 338.093 49.6964 336.967 49.6964C323.21 49.6964 312.517 37.8347 313.017 24.8493C313.58 11.4893 325.086 2 337.092 2C340.407 2 355.102 3.49831 359.917 19.6052C376.426 37.148 361.23 75.792 327.462 68.3004C326.587 68.1131 325.086 67.6137 324.085 67.2391Z" stroke="#F7C100" stroke-width="2.6" stroke-miterlimit="10"/>
</svg>
