<svg width="321" height="82" viewBox="0 0 321 82" fill="none" xmlns="http://www.w3.org/2000/svg">
<path d="M35.7739 32.9696H30.6397C30.3361 31.4778 29.8047 30.1673 29.0456 29.038C28.3003 27.9087 27.3894 26.9607 26.3129 26.1939C25.2502 25.4132 24.0701 24.8276 22.7728 24.4373C21.4754 24.0469 20.1228 23.8517 18.7151 23.8517C16.148 23.8517 13.8224 24.507 11.7383 25.8175C9.66807 27.128 8.01877 29.0589 6.79042 31.6103C5.57587 34.1616 4.9686 37.2915 4.9686 41C4.9686 44.7085 5.57587 47.8384 6.79042 50.3897C8.01877 52.9411 9.66807 54.872 11.7383 56.1825C13.8224 57.493 16.148 58.1483 18.7151 58.1483C20.1228 58.1483 21.4754 57.9531 22.7728 57.5627C24.0701 57.1724 25.2502 56.5938 26.3129 55.827C27.3894 55.0463 28.3003 54.0913 29.0456 52.962C29.8047 51.8188 30.3361 50.5082 30.6397 49.0304H35.7739C35.3875 51.2193 34.6836 53.1781 33.6623 54.9068C32.6409 56.6356 31.3712 58.1065 29.853 59.3194C28.3348 60.5184 26.6303 61.4316 24.7395 62.0589C22.8625 62.6863 20.8543 63 18.7151 63C15.099 63 11.8832 62.1077 9.0677 60.3232C6.25216 58.5387 4.03699 56.0013 2.42219 52.711C0.807398 49.4208 0 45.5171 0 41C0 36.4829 0.807398 32.5792 2.42219 29.289C4.03699 25.9987 6.25216 23.4613 9.0677 21.6768C11.8832 19.8923 15.099 19 18.7151 19C20.8543 19 22.8625 19.3137 24.7395 19.9411C26.6303 20.5684 28.3348 21.4886 29.853 22.7015C31.3712 23.9005 32.6409 25.3644 33.6623 27.0932C34.6836 28.808 35.3875 30.7668 35.7739 32.9696Z" fill="white"/>
<path d="M79.8444 41C79.8444 45.5171 79.037 49.4208 77.4222 52.711C75.8074 56.0013 73.5922 58.5387 70.7767 60.3232C67.9611 62.1077 64.7454 63 61.1293 63C57.5133 63 54.2975 62.1077 51.482 60.3232C48.6664 58.5387 46.4512 56.0013 44.8364 52.711C43.2217 49.4208 42.4143 45.5171 42.4143 41C42.4143 36.4829 43.2217 32.5792 44.8364 29.289C46.4512 25.9987 48.6664 23.4613 51.482 21.6768C54.2975 19.8923 57.5133 19 61.1293 19C64.7454 19 67.9611 19.8923 70.7767 21.6768C73.5922 23.4613 75.8074 25.9987 77.4222 29.289C79.037 32.5792 79.8444 36.4829 79.8444 41ZM74.8758 41C74.8758 37.2915 74.2616 34.1616 73.0333 31.6103C71.8187 29.0589 70.1694 27.128 68.0854 25.8175C66.0151 24.507 63.6964 23.8517 61.1293 23.8517C58.5622 23.8517 56.2366 24.507 54.1526 25.8175C52.0823 27.128 50.433 29.0589 49.2047 31.6103C47.9901 34.1616 47.3829 37.2915 47.3829 41C47.3829 44.7085 47.9901 47.8384 49.2047 50.3897C50.433 52.9411 52.0823 54.872 54.1526 56.1825C56.2366 57.493 58.5622 58.1483 61.1293 58.1483C63.6964 58.1483 66.0151 57.493 68.0854 56.1825C70.1694 54.872 71.8187 52.9411 73.0333 50.3897C74.2616 47.8384 74.8758 44.7085 74.8758 41Z" fill="white"/>
<path d="M88.4773 19.5856H94.6053L109.014 55.1369H109.511L123.92 19.5856H130.048V62.4144H125.245V29.8745H124.831L111.581 62.4144H106.944L93.6944 29.8745H93.2803V62.4144H88.4773V19.5856Z" fill="white"/>
<path d="M140.342 19.5856H146.47L160.879 55.1369H161.376L175.785 19.5856H181.913V62.4144H177.11V29.8745H176.696L163.446 62.4144H158.809L145.559 29.8745H145.145V62.4144H140.342V19.5856Z" fill="white"/>
<path d="M193.946 62.4144H188.564L204.132 19.5856H209.432L225 62.4144H219.617L206.947 26.3612H206.616L193.946 62.4144ZM195.934 45.6844H217.63V50.2852H195.934V45.6844Z" fill="white"/>
<path fill-rule="evenodd" clip-rule="evenodd" d="M271.267 67.2391V76.8533C274.707 78.6013 279.397 79.5378 283.399 79.9124C298.907 81.161 319.794 69.0496 319.168 44.702C318.293 32.2784 313.165 26.5349 307.037 19.7925C301.096 13.6119 295.968 11.5518 289.527 11.1772C275.457 10.3656 264.326 22.4145 264.514 34.7132C264.826 50.6952 277.083 58.3741 287.464 58.936V49.4466C286.4 49.5715 285.275 49.6964 284.149 49.6964C270.392 49.6964 259.698 37.8347 260.199 24.8493C260.762 11.4893 272.268 2 284.274 2C287.589 2 302.284 3.49831 307.099 19.6052C323.608 37.148 308.412 75.792 274.644 68.3004C273.769 68.1131 272.268 67.6137 271.267 67.2391Z" stroke="white" stroke-width="2.6" stroke-miterlimit="10"/>
</svg>
