<svg width="435" height="585" viewBox="0 0 435 585" fill="none" xmlns="http://www.w3.org/2000/svg">
<path fill-rule="evenodd" clip-rule="evenodd" d="M343.325 125.306C337.225 109.806 329.925 93.1064 320.425 78.7064C305.825 56.5064 286.425 37.8064 263.625 24.2064C240.925 10.7064 215.525 2.60639 189.225 0.506387C184.825 0.206387 180.325 0.00638683 175.725 0.00638683C152.725 -0.193613 129.925 4.30639 108.625 13.1064C87.225 22.0064 67.925 35.1064 51.625 51.6064C35.225 68.2064 22.325 87.9064 13.425 109.506C-4.475 153.406 -4.475 202.506 13.425 246.306C18.125 257.906 24.125 269.006 31.125 279.406C42.725 363.106 111.325 428.006 195.625 432.006L195.925 426.006V432.006H204.625V337.006L195.625 338.106C189.025 338.906 182.325 339.406 175.725 339.406H175.625C154.725 339.606 133.925 335.506 114.625 327.506C95.225 319.406 77.625 307.506 62.825 292.606C56.925 286.606 51.425 280.106 46.525 273.206C45.825 266.906 45.425 260.606 45.425 254.306C45.325 211.606 62.025 170.606 91.825 140.106C121.225 109.906 161.625 92.8064 203.825 92.8064H211.825C256.625 93.6064 297.125 109.406 330.225 135.706C331.925 139.606 334.125 143.606 336.225 147.706L338.025 151.106C341.725 158.106 345.025 165.306 347.925 172.606C354.325 189.506 360.225 213.106 361.425 249.406C364.025 325.506 340.725 385.506 303.025 426.406C265.325 467.306 212.825 489.606 156.025 489.606C133.625 489.606 111.325 485.806 90.125 478.406L79.525 474.706V561.306L83.925 563.606C116.925 580.506 153.725 584.306 191.425 584.306C327.425 584.306 434.125 469.306 434.125 327.706C434.125 246.106 399.325 171.706 343.325 125.306ZM108.625 342.606C129.925 351.406 152.725 355.906 175.725 355.706C180.025 355.706 184.325 355.506 188.625 355.206V415.106C125.725 409.006 73.625 365.406 53.925 306.506C69.625 321.906 88.225 334.206 108.625 342.606ZM212.125 76.4064H203.725C157.325 76.5064 112.825 95.3064 80.425 128.506C50.125 159.506 32.125 200.506 29.725 243.706C29.225 242.506 28.625 241.206 28.125 240.006C11.925 200.206 11.925 155.606 28.125 115.706C36.125 96.1064 47.925 78.2064 62.825 63.1064C77.625 48.1064 95.225 36.2064 114.625 28.2064C133.925 20.2064 154.725 16.1064 175.625 16.3064H175.725C179.825 16.3064 183.925 16.5064 187.925 16.8064H188.025C211.925 18.7064 235.025 26.1064 255.625 38.3064C276.325 50.7064 294.025 67.6064 307.225 87.8064L309.725 86.1064L307.225 87.8064C311.325 94.0064 314.925 100.506 318.125 107.206C286.125 87.6064 249.525 76.9064 212.125 76.4064ZM191.325 567.806C156.325 567.806 124.025 564.406 95.425 551.006V497.206C115.025 503.006 135.425 505.906 155.925 505.906C216.925 505.906 273.725 481.906 314.625 437.506C355.525 393.106 380.025 328.706 377.325 248.806C376.125 212.206 370.325 187.206 363.425 168.706C397.625 210.806 418.025 266.806 418.025 327.606C418.125 460.806 317.925 567.806 191.325 567.806Z" fill="#F5F5F5"/>
<path d="M85.0029 256.609C80.9968 256.609 77.2988 255.669 73.909 253.787C70.5808 251.906 67.9306 249.326 65.9584 246.049C63.9861 242.771 63 239.069 63 234.941C63 231.118 63.9861 227.597 65.9584 224.38C67.9306 221.103 70.6116 218.493 74.0014 216.551C77.4529 214.608 81.2433 213.637 85.3727 213.637C88.8241 213.637 91.7825 214.184 94.2478 215.276C96.7131 216.369 99.1168 218.068 101.459 220.374V225.291C99.425 222.317 97.1446 220.071 94.6176 218.554C92.1523 216.976 89.0707 216.186 85.3727 216.186C81.9829 216.186 78.778 217.067 75.758 218.827C72.7996 220.526 70.4267 222.833 68.6394 225.746C66.852 228.659 65.9584 231.785 65.9584 235.123C65.9584 238.765 66.8212 242.043 68.5469 244.956C70.2727 247.809 72.5839 250.054 75.4806 251.693C78.439 253.271 81.6131 254.06 85.0029 254.06C91.9058 254.06 97.3911 250.995 101.459 244.865V249.781C99.2401 252.088 96.7748 253.817 94.0629 254.971C91.4127 256.063 88.3927 256.609 85.0029 256.609Z" fill="#F5F5F5"/>
<path d="M130.329 256.883C126.138 256.883 122.348 255.881 118.958 253.878C115.568 251.815 112.918 249.114 111.007 245.775C109.096 242.376 108.141 238.704 108.141 234.759C108.141 230.875 109.096 227.263 111.007 223.925C112.979 220.587 115.63 217.947 118.958 216.004C122.348 214.001 126.107 213 130.237 213C134.304 213 138.002 214.001 141.33 216.004C144.72 217.947 147.37 220.587 149.281 223.925C151.192 227.263 152.147 230.875 152.147 234.759C152.147 238.826 151.222 242.559 149.373 245.957C147.525 249.296 144.936 251.966 141.608 253.969C138.341 255.911 134.582 256.883 130.329 256.883ZM130.329 254.333C133.842 254.333 137.047 253.453 139.944 251.693C142.84 249.933 145.09 247.596 146.692 244.683C148.357 241.709 149.189 238.462 149.189 234.941C149.189 231.482 148.357 228.265 146.692 225.291C145.028 222.317 142.748 219.95 139.851 218.189C136.954 216.429 133.75 215.549 130.237 215.549C126.723 215.549 123.488 216.46 120.529 218.28C117.633 220.041 115.321 222.408 113.596 225.382C111.932 228.356 111.1 231.573 111.1 235.032C111.1 238.492 111.932 241.709 113.596 244.683C115.321 247.596 117.633 249.933 120.529 251.693C123.488 253.453 126.754 254.333 130.329 254.333Z" fill="#F5F5F5"/>
<path d="M160.471 214.457H163.429V220.648C166.264 215.853 170.825 213.455 177.112 213.455C180.132 213.455 182.751 214.305 184.97 216.004C187.189 217.643 188.73 220.132 189.592 223.47C190.394 220.496 192.15 218.098 194.862 216.278C197.636 214.396 200.748 213.455 204.199 213.455C208.699 213.455 212.181 214.76 214.646 217.37C217.112 219.919 218.344 223.561 218.344 228.295V255.426H215.386V228.295C215.386 224.471 214.369 221.467 212.335 219.282C210.363 217.097 207.743 216.004 204.477 216.004C202.011 216.004 199.731 216.611 197.636 217.825C195.54 218.978 193.876 220.557 192.643 222.559C191.411 224.562 190.794 226.778 190.794 229.206V255.426H187.836V229.934C187.836 225.564 186.788 222.165 184.693 219.737C182.597 217.249 179.885 216.004 176.557 216.004C174.338 216.004 172.212 216.551 170.178 217.643C168.206 218.736 166.573 220.223 165.278 222.104C164.046 223.925 163.429 225.928 163.429 228.113V255.426H160.471V214.457Z" fill="#F5F5F5"/>
<path d="M229.988 214.457H232.947V220.648C235.782 215.853 240.343 213.455 246.629 213.455C249.649 213.455 252.269 214.305 254.487 216.004C256.706 217.643 258.247 220.132 259.11 223.47C259.911 220.496 261.668 218.098 264.38 216.278C267.153 214.396 270.265 213.455 273.717 213.455C278.216 213.455 281.698 214.76 284.164 217.37C286.629 219.919 287.862 223.561 287.862 228.295V255.426H284.903V228.295C284.903 224.471 283.886 221.467 281.852 219.282C279.88 217.097 277.261 216.004 273.994 216.004C271.529 216.004 269.249 216.611 267.153 217.825C265.057 218.978 263.393 220.557 262.161 222.559C260.928 224.562 260.312 226.778 260.312 229.206V255.426H257.353V229.934C257.353 225.564 256.306 222.165 254.21 219.737C252.115 217.249 249.403 216.004 246.075 216.004C243.856 216.004 241.729 216.551 239.696 217.643C237.723 218.736 236.09 220.223 234.796 222.104C233.563 223.925 232.947 225.928 232.947 228.113V255.426H229.988V214.457Z" fill="#F5F5F5"/>
<path d="M319.105 256.427C315.161 256.427 311.493 255.456 308.104 253.514C304.714 251.572 302.033 248.962 300.061 245.684C298.088 242.346 297.102 238.765 297.102 234.941C297.102 231.118 298.088 227.567 300.061 224.289C302.033 220.951 304.714 218.311 308.104 216.369C311.493 214.426 315.161 213.455 319.105 213.455C323.111 213.455 326.902 214.517 330.476 216.642C334.051 218.705 336.547 221.406 337.965 224.745V214.457H340.923V255.426H337.965V245.229C336.301 248.628 333.712 251.359 330.199 253.423C326.748 255.426 323.05 256.427 319.105 256.427ZM319.29 253.878C322.68 253.878 325.823 253.028 328.72 251.329C331.616 249.569 333.897 247.262 335.561 244.41C337.287 241.496 338.15 238.34 338.15 234.941C338.15 231.603 337.287 228.477 335.561 225.564C333.835 222.651 331.524 220.344 328.627 218.645C325.731 216.884 322.587 216.004 319.198 216.004C315.808 216.004 312.634 216.884 309.675 218.645C306.779 220.405 304.436 222.742 302.649 225.655C300.923 228.568 300.061 231.694 300.061 235.032C300.061 238.371 300.923 241.496 302.649 244.41C304.436 247.262 306.809 249.569 309.768 251.329C312.726 253.028 315.9 253.878 319.29 253.878Z" fill="#F5F5F5"/>
</svg>
