<svg width="20" height="19" viewBox="0 0 20 19" fill="none" xmlns="http://www.w3.org/2000/svg">
<path d="M2 17H18V12H20V18C20 18.2652 19.8946 18.5196 19.7071 18.7071C19.5196 18.8946 19.2652 19 19 19H1C0.734784 19 0.48043 18.8946 0.292893 18.7071C0.105357 18.5196 0 18.2652 0 18V12H2V17ZM10 8H7C6.05307 7.99934 5.11945 8.22311 4.27571 8.65298C3.43197 9.08285 2.70212 9.70657 2.146 10.473C2.50098 8.65047 3.47863 7.00808 4.91148 5.82717C6.34434 4.64626 8.14322 4.00032 10 4V0L18 6L10 12V8Z" fill="white"/>
</svg>
