<svg width="222" height="109" viewBox="0 0 222 109" fill="none" xmlns="http://www.w3.org/2000/svg">
<g clip-path="url(#clip0_37265_57563)">
<g opacity="0.25">
<rect x="31" y="96" width="2" height="11" fill="url(#paint0_linear_37265_57563)"/>
<rect x="34" y="96" width="2" height="11" fill="url(#paint1_linear_37265_57563)"/>
<rect x="37" y="93" width="2" height="14" fill="url(#paint2_linear_37265_57563)"/>
<rect x="40" y="93" width="2" height="14" fill="url(#paint3_linear_37265_57563)"/>
<rect x="43" y="91" width="2" height="16" fill="url(#paint4_linear_37265_57563)"/>
<rect x="46" y="91" width="2" height="16" fill="url(#paint5_linear_37265_57563)"/>
<rect x="49" y="91" width="2" height="16" fill="url(#paint6_linear_37265_57563)"/>
<rect x="52" y="91" width="2" height="16" fill="url(#paint7_linear_37265_57563)"/>
<rect x="55" y="93" width="2" height="14" fill="url(#paint8_linear_37265_57563)"/>
<rect x="58" y="93" width="2" height="14" fill="url(#paint9_linear_37265_57563)"/>
<rect x="61" y="96" width="2" height="11" fill="url(#paint10_linear_37265_57563)"/>
<rect x="64" y="96" width="2" height="11" fill="url(#paint11_linear_37265_57563)"/>
<rect x="67" y="98" width="2" height="9" fill="url(#paint12_linear_37265_57563)"/>
<rect x="70" y="98" width="2" height="9" fill="url(#paint13_linear_37265_57563)"/>
<rect x="73" y="99" width="2" height="8" fill="url(#paint14_linear_37265_57563)"/>
<rect x="76" y="99" width="2" height="8" fill="url(#paint15_linear_37265_57563)"/>
<rect x="79" y="99" width="2" height="8" fill="url(#paint16_linear_37265_57563)"/>
<rect x="82" y="99" width="2" height="8" fill="url(#paint17_linear_37265_57563)"/>
<rect x="85" y="99" width="2" height="8" fill="url(#paint18_linear_37265_57563)"/>
<rect x="88" y="99" width="2" height="8" fill="url(#paint19_linear_37265_57563)"/>
<rect x="91" y="98" width="2" height="9" fill="url(#paint20_linear_37265_57563)"/>
<rect x="94" y="98" width="2" height="9" fill="url(#paint21_linear_37265_57563)"/>
<rect x="97" y="97" width="2" height="10" fill="url(#paint22_linear_37265_57563)"/>
<rect x="100" y="97" width="2" height="10" fill="url(#paint23_linear_37265_57563)"/>
<rect x="103" y="96" width="2" height="11" fill="url(#paint24_linear_37265_57563)"/>
<rect x="106" y="96" width="2" height="11" fill="url(#paint25_linear_37265_57563)"/>
<rect x="109" y="95" width="2" height="12" fill="url(#paint26_linear_37265_57563)"/>
<rect x="112" y="95" width="2" height="12" fill="url(#paint27_linear_37265_57563)"/>
<rect x="115" y="93" width="2" height="14" fill="url(#paint28_linear_37265_57563)"/>
<rect x="118" y="93" width="2" height="14" fill="url(#paint29_linear_37265_57563)"/>
<rect x="121" y="90" width="2" height="17" fill="url(#paint30_linear_37265_57563)"/>
<rect x="124" y="90" width="2" height="17" fill="url(#paint31_linear_37265_57563)"/>
<rect x="127" y="87" width="2" height="20" fill="url(#paint32_linear_37265_57563)"/>
<rect x="130" y="87" width="2" height="20" fill="url(#paint33_linear_37265_57563)"/>
<rect x="133" y="86" width="2" height="21" fill="url(#paint34_linear_37265_57563)"/>
<rect x="136" y="86" width="2" height="21" fill="url(#paint35_linear_37265_57563)"/>
<rect x="139" y="86" width="2" height="21" fill="url(#paint36_linear_37265_57563)"/>
<rect x="142" y="86" width="2" height="21" fill="url(#paint37_linear_37265_57563)"/>
<rect x="145" y="87" width="2" height="20" fill="url(#paint38_linear_37265_57563)"/>
<rect x="148" y="87" width="2" height="20" fill="url(#paint39_linear_37265_57563)"/>
<rect x="151" y="90" width="2" height="17" fill="url(#paint40_linear_37265_57563)"/>
<rect x="154" y="90" width="2" height="17" fill="url(#paint41_linear_37265_57563)"/>
<rect x="157" y="91" width="2" height="16" fill="url(#paint42_linear_37265_57563)"/>
<rect x="160" y="91" width="2" height="16" fill="url(#paint43_linear_37265_57563)"/>
<rect x="163" y="92" width="2" height="15" fill="url(#paint44_linear_37265_57563)"/>
<rect x="166" y="92" width="2" height="15" fill="url(#paint45_linear_37265_57563)"/>
<rect x="169" y="91" width="2" height="16" fill="url(#paint46_linear_37265_57563)"/>
<rect x="172" y="91" width="2" height="16" fill="url(#paint47_linear_37265_57563)"/>
<rect x="175" y="90" width="2" height="17" fill="url(#paint48_linear_37265_57563)"/>
<rect x="178" y="90" width="2" height="17" fill="url(#paint49_linear_37265_57563)"/>
<rect x="181" y="90" width="2" height="17" fill="url(#paint50_linear_37265_57563)"/>
<rect x="184" y="90" width="2" height="17" fill="url(#paint51_linear_37265_57563)"/>
<rect x="187" y="89" width="2" height="18" fill="url(#paint52_linear_37265_57563)"/>
<rect x="190" y="89" width="2" height="18" fill="url(#paint53_linear_37265_57563)"/>
<rect x="193" y="90" width="2" height="17" fill="url(#paint54_linear_37265_57563)"/>
<rect x="196" y="90" width="2" height="17" fill="url(#paint55_linear_37265_57563)"/>
<rect x="199" y="90" width="2" height="17" fill="url(#paint56_linear_37265_57563)"/>
<rect x="202" y="90" width="2" height="17" fill="url(#paint57_linear_37265_57563)"/>
<rect x="205" y="92" width="2" height="15" fill="url(#paint58_linear_37265_57563)"/>
<rect x="208" y="92" width="2" height="15" fill="url(#paint59_linear_37265_57563)"/>
<rect x="211" y="94" width="2" height="13" fill="url(#paint60_linear_37265_57563)"/>
<rect x="214" y="94" width="2" height="13" fill="url(#paint61_linear_37265_57563)"/>
<rect x="217" y="94" width="2" height="13" fill="url(#paint62_linear_37265_57563)"/>
<rect x="220" y="94" width="2" height="13" fill="url(#paint63_linear_37265_57563)"/>
</g>
<path d="M32.91 53.9205L31 57.2746V77.3992H32.91H42.3008H53.4425H64.7433H75.885H87.1858H98.4867H109.628H120.929H132.071H143.372H154.513H165.814H177.115H188.257H199.557H210.699H220.09H222V17.0254H220.09L210.699 27.0877L199.557 42.2293H188.257L177.115 40.5041L165.814 25.9697L154.513 27.0877L143.372 43.8582L132.071 56.1566L120.929 42.7402L109.628 43.8582L98.4867 44.9762L87.1858 33.7959L75.885 51.6845L64.7433 59.5107L53.4425 62.8648L42.3008 46.0943L32.91 53.9205Z" fill="url(#paint64_linear_37265_57563)" fill-opacity="0.15"/>
<path d="M31 57.1065L31.955 59.2211L32.91 53.7214L34.0839 48.927L35.2577 51.7468L36.4316 54.5666L37.6054 49.7722L38.7793 44.9778L39.9531 47.7976L41.127 50.6174L42.3008 45.823L42.9972 43.0737L43.6935 47.9387L44.3899 52.8036L45.0863 50.0543L45.7826 47.305L46.479 52.17L47.1753 57.0349L47.8717 54.2856L48.568 53.8206L49.2644 56.4013L49.9607 58.9819L50.6571 58.5169L51.3534 58.8133L52.0498 61.394L52.7461 60.929L53.4425 63.5096L54.8551 61.5637L56.2677 62.6634L57.6803 60.7174L59.0929 61.0557L60.5055 59.8712L61.9181 60.9709L63.3307 59.0249L64.7433 60.1246L65.4397 58.1081L66.136 59.1373L66.8324 57.5015L67.5287 58.15L68.2251 56.1335L68.9215 57.1627L69.6178 55.1462L70.3142 55.7947L71.0105 54.1589L71.7069 55.1881L72.4032 53.5523L73.0996 57.2465L73.7959 52.565L74.4923 52.8328L75.1886 48.1513L75.885 51.4648L76.5913 50.7171L77.2976 48.8274L78.0039 48.4604L78.7102 46.5707L79.4165 46.9651L80.1228 43.9332L80.8291 47.3734L81.5354 42.0573L82.2417 42.071L82.948 35.9935L83.6543 42.86L84.3606 34.1175L85.0669 36.7962L85.7732 36.4293L86.4795 33.7781L87.1858 34.1726L87.8921 30.3093L88.5984 38.6287L89.3047 35.5268L90.011 34.3285L90.7173 38.4601L91.4236 36.5004L92.1299 39.1091L92.8363 39.0529L93.5426 40.9003L94.2489 40.4634L94.9552 42.3107L95.6615 41.8738L96.3678 42.579L97.0741 44.4264L97.7804 43.9895L98.4867 44.6947L99.8794 44.9343L101.272 40.6055L102.665 44.6523L104.058 47.9376L105.45 44.3702L106.843 42.3256L108.236 45.9916L109.628 43.5663L111.041 45.3288L112.454 43.2842L113.866 43.1432L115.279 44.9057L116.691 42.8611L118.104 42.7201L119.517 38.7719L120.929 38.6309L121.626 43.2842L122.322 44.1305L123.018 46.8803L123.715 45.823L124.411 46.6693L125.107 49.4191L125.804 48.3618L126.5 45.401L127.196 51.9579L127.893 50.9006L128.589 51.7468L129.285 56.4002L129.982 49.6323L130.678 58.0927L131.374 55.1319L132.071 55.9781L132.777 55.2024L133.483 52.9038L134.19 53.6509L134.896 50.9716L135.602 52.0995L136.309 49.4202L137.015 50.548L137.721 47.8687L139.134 48.2207L139.84 49.7293L140.546 46.6693L141.253 48.1778L141.959 45.1178L142.665 46.6263L143.372 43.5663L144.068 38.7014L144.764 41.4507L145.461 36.5857L146.157 39.335L146.853 38.2772L147.55 33.4123L148.246 36.1615L148.942 35.1037L149.639 37.853L150.335 32.9881L151.032 35.7373L151.728 30.8724L152.424 33.6217L153.121 28.7568L153.817 27.6989L154.513 30.4482L155.926 22.693L157.339 26.359L158.751 30.0251L160.164 26.0769L161.576 33.5501L162.989 29.6019L164.402 25.6538L165.814 21.7057L166.52 26.4295L167.227 31.1534L167.933 28.2631L168.639 29.1799L169.346 33.9038L170.052 31.0135L170.758 28.1231L171.465 32.847L172.171 33.7638L172.877 30.8735L173.583 35.5974L174.29 36.5141L174.996 41.238L175.702 38.3477L176.409 39.2645L177.115 43.9884L178.508 40.3989L179.9 36.8094L181.293 40.8342L182.686 37.2447L184.079 41.2695L185.471 39.9643L186.864 42.4662L188.257 40.3995L189.669 42.6838L191.082 40.3995L192.494 41.9224L193.907 38.1153L195.32 41.9224L196.732 45.7295L198.145 38.1153L199.558 41.9224L200.254 40.9673L200.95 43.8193L201.647 39.0571L202.343 41.9092L203.039 37.147L203.736 32.3848L204.432 35.2368L205.128 38.0888L205.825 33.3267L206.521 28.5645L207.217 31.4165L207.914 34.2685L208.61 29.5063L209.306 24.7442L210.003 27.5962L210.699 26.6411L211.286 29.8135L211.873 25.3717L212.46 24.737L213.047 24.1023L213.634 23.4676L214.221 26.64L214.808 22.1982L215.395 21.5635L215.982 17.1217L216.568 20.2942L217.155 19.6595L217.742 15.2177L218.329 18.3901L218.916 17.7554L219.503 17.1207L220.09 12.5996L221.045 16.486H222" stroke="#5CFFC4" stroke-width="0.8"/>
<path opacity="0.8" d="M2.20557 3.77588H2.78564C3.06982 3.77588 3.3042 3.729 3.48877 3.63525C3.67627 3.53857 3.81543 3.4082 3.90625 3.24414C4 3.07715 4.04688 2.88965 4.04688 2.68164C4.04688 2.43555 4.00586 2.229 3.92383 2.06201C3.8418 1.89502 3.71875 1.76904 3.55469 1.68408C3.39062 1.59912 3.18262 1.55664 2.93066 1.55664C2.70215 1.55664 2.5 1.60205 2.32422 1.69287C2.15137 1.78076 2.01514 1.90674 1.91553 2.0708C1.81885 2.23486 1.77051 2.42822 1.77051 2.65088H0.95752C0.95752 2.32568 1.03955 2.02979 1.20361 1.76318C1.36768 1.49658 1.59766 1.28418 1.89355 1.12598C2.19238 0.967773 2.53809 0.888672 2.93066 0.888672C3.31738 0.888672 3.65576 0.95752 3.9458 1.09521C4.23584 1.22998 4.46143 1.43213 4.62256 1.70166C4.78369 1.96826 4.86426 2.30078 4.86426 2.69922C4.86426 2.86035 4.82617 3.0332 4.75 3.21777C4.67676 3.39941 4.56104 3.56934 4.40283 3.72754C4.24756 3.88574 4.04541 4.01611 3.79639 4.11865C3.54736 4.21826 3.24854 4.26807 2.8999 4.26807H2.20557V3.77588ZM2.20557 4.44385V3.95605H2.8999C3.30713 3.95605 3.64404 4.00439 3.91064 4.10107C4.17725 4.19775 4.38672 4.32666 4.53906 4.48779C4.69434 4.64893 4.80273 4.82617 4.86426 5.01953C4.92871 5.20996 4.96094 5.40039 4.96094 5.59082C4.96094 5.88965 4.90967 6.15479 4.80713 6.38623C4.70752 6.61768 4.56543 6.81396 4.38086 6.9751C4.19922 7.13623 3.98535 7.25781 3.73926 7.33984C3.49316 7.42188 3.2251 7.46289 2.93506 7.46289C2.65674 7.46289 2.39453 7.42334 2.14844 7.34424C1.90527 7.26514 1.68994 7.15088 1.50244 7.00146C1.31494 6.84912 1.16846 6.66309 1.06299 6.44336C0.95752 6.2207 0.904785 5.96729 0.904785 5.68311H1.71777C1.71777 5.90576 1.76611 6.10059 1.86279 6.26758C1.9624 6.43457 2.10303 6.56494 2.28467 6.65869C2.46924 6.74951 2.68604 6.79492 2.93506 6.79492C3.18408 6.79492 3.39795 6.75244 3.57666 6.66748C3.7583 6.57959 3.89746 6.44775 3.99414 6.27197C4.09375 6.09619 4.14355 5.875 4.14355 5.6084C4.14355 5.3418 4.08789 5.12354 3.97656 4.95361C3.86523 4.78076 3.70703 4.65332 3.50195 4.57129C3.2998 4.48633 3.06104 4.44385 2.78564 4.44385H2.20557ZM6.90771 6.4082V7.06299C6.90771 7.32959 6.84033 7.61084 6.70557 7.90674C6.5708 8.20557 6.38184 8.45459 6.13867 8.65381L5.67725 8.33301C5.771 8.2041 5.8501 8.07227 5.91455 7.9375C5.979 7.80566 6.02734 7.66797 6.05957 7.52441C6.09473 7.38379 6.1123 7.23438 6.1123 7.07617V6.4082H6.90771ZM11.9922 0.976562V1.43359L9.34229 7.375H8.48535L11.1309 1.64453H7.66797V0.976562H11.9922ZM13.9478 4.32959L13.2974 4.1626L13.6182 0.976562H16.9009V1.72803H14.3081L14.1147 3.46826C14.2319 3.40088 14.3799 3.33789 14.5586 3.2793C14.7402 3.2207 14.9482 3.19141 15.1826 3.19141C15.4785 3.19141 15.7437 3.24268 15.978 3.34521C16.2124 3.44482 16.4116 3.58838 16.5757 3.77588C16.7427 3.96338 16.8701 4.18896 16.958 4.45264C17.0459 4.71631 17.0898 5.01074 17.0898 5.33594C17.0898 5.64355 17.0474 5.92627 16.9624 6.18408C16.8804 6.44189 16.7559 6.66748 16.5889 6.86084C16.4219 7.05127 16.2109 7.19922 15.9561 7.30469C15.7041 7.41016 15.4067 7.46289 15.064 7.46289C14.8062 7.46289 14.5615 7.42773 14.3301 7.35742C14.1016 7.28418 13.8965 7.17432 13.7148 7.02783C13.5361 6.87842 13.3896 6.69385 13.2754 6.47412C13.1641 6.25146 13.0938 5.99072 13.0645 5.69189H13.8379C13.873 5.93213 13.9434 6.13428 14.0488 6.29834C14.1543 6.4624 14.292 6.58691 14.4619 6.67188C14.6348 6.75391 14.8354 6.79492 15.064 6.79492C15.2573 6.79492 15.4287 6.76123 15.5781 6.69385C15.7275 6.62646 15.8535 6.52979 15.9561 6.40381C16.0586 6.27783 16.1362 6.12549 16.189 5.94678C16.2446 5.76807 16.2725 5.56738 16.2725 5.34473C16.2725 5.14258 16.2446 4.95508 16.189 4.78223C16.1333 4.60938 16.0498 4.4585 15.9385 4.32959C15.8301 4.20068 15.6968 4.10107 15.5386 4.03076C15.3804 3.95752 15.1987 3.9209 14.9937 3.9209C14.7212 3.9209 14.5146 3.95752 14.374 4.03076C14.2363 4.104 14.0942 4.20361 13.9478 4.32959ZM21.9985 3.66602V4.6416C21.9985 5.16602 21.9517 5.6084 21.8579 5.96875C21.7642 6.3291 21.6294 6.61914 21.4536 6.83887C21.2778 7.05859 21.0654 7.21826 20.8164 7.31787C20.5703 7.41455 20.292 7.46289 19.9814 7.46289C19.7354 7.46289 19.5083 7.43213 19.3003 7.37061C19.0923 7.30908 18.9048 7.21094 18.7378 7.07617C18.5737 6.93848 18.4331 6.75977 18.3159 6.54004C18.1987 6.32031 18.1094 6.05371 18.0479 5.74023C17.9863 5.42676 17.9556 5.06055 17.9556 4.6416V3.66602C17.9556 3.1416 18.0024 2.70215 18.0962 2.34766C18.1929 1.99316 18.3291 1.70898 18.5049 1.49512C18.6807 1.27832 18.8916 1.12305 19.1377 1.0293C19.3867 0.935547 19.665 0.888672 19.9727 0.888672C20.2217 0.888672 20.4502 0.919434 20.6582 0.980957C20.8691 1.03955 21.0566 1.13477 21.2207 1.2666C21.3848 1.39551 21.5239 1.56836 21.6382 1.78516C21.7554 1.99902 21.8447 2.26123 21.9062 2.57178C21.9678 2.88232 21.9985 3.24707 21.9985 3.66602ZM21.1812 4.77344V3.52979C21.1812 3.24268 21.1636 2.99072 21.1284 2.77393C21.0962 2.5542 21.0479 2.3667 20.9834 2.21143C20.9189 2.05615 20.8369 1.93018 20.7373 1.8335C20.6406 1.73682 20.5278 1.6665 20.3989 1.62256C20.2729 1.57568 20.1309 1.55225 19.9727 1.55225C19.7793 1.55225 19.6079 1.58887 19.4585 1.66211C19.3091 1.73242 19.1831 1.84521 19.0806 2.00049C18.981 2.15576 18.9048 2.35938 18.8521 2.61133C18.7993 2.86328 18.7729 3.16943 18.7729 3.52979V4.77344C18.7729 5.06055 18.7891 5.31396 18.8213 5.53369C18.8564 5.75342 18.9077 5.94385 18.9751 6.10498C19.0425 6.26318 19.1245 6.39355 19.2212 6.49609C19.3179 6.59863 19.4292 6.6748 19.5552 6.72461C19.6841 6.77148 19.8262 6.79492 19.9814 6.79492C20.1807 6.79492 20.355 6.75684 20.5044 6.68066C20.6538 6.60449 20.7783 6.48584 20.8779 6.32471C20.9805 6.16064 21.0566 5.95117 21.1064 5.69629C21.1562 5.43848 21.1812 5.13086 21.1812 4.77344Z" fill="white"/>
<line x1="31.5" y1="3.375" x2="221.5" y2="3.375" stroke="white" stroke-opacity="0.4" stroke-miterlimit="16" stroke-linecap="round" stroke-linejoin="round" stroke-dasharray="0.1 3"/>
<path opacity="0.8" d="M2.20557 29.5259H2.78564C3.06982 29.5259 3.3042 29.479 3.48877 29.3853C3.67627 29.2886 3.81543 29.1582 3.90625 28.9941C4 28.8271 4.04688 28.6396 4.04688 28.4316C4.04688 28.1855 4.00586 27.979 3.92383 27.812C3.8418 27.645 3.71875 27.519 3.55469 27.4341C3.39062 27.3491 3.18262 27.3066 2.93066 27.3066C2.70215 27.3066 2.5 27.3521 2.32422 27.4429C2.15137 27.5308 2.01514 27.6567 1.91553 27.8208C1.81885 27.9849 1.77051 28.1782 1.77051 28.4009H0.95752C0.95752 28.0757 1.03955 27.7798 1.20361 27.5132C1.36768 27.2466 1.59766 27.0342 1.89355 26.876C2.19238 26.7178 2.53809 26.6387 2.93066 26.6387C3.31738 26.6387 3.65576 26.7075 3.9458 26.8452C4.23584 26.98 4.46143 27.1821 4.62256 27.4517C4.78369 27.7183 4.86426 28.0508 4.86426 28.4492C4.86426 28.6104 4.82617 28.7832 4.75 28.9678C4.67676 29.1494 4.56104 29.3193 4.40283 29.4775C4.24756 29.6357 4.04541 29.7661 3.79639 29.8687C3.54736 29.9683 3.24854 30.0181 2.8999 30.0181H2.20557V29.5259ZM2.20557 30.1938V29.7061H2.8999C3.30713 29.7061 3.64404 29.7544 3.91064 29.8511C4.17725 29.9478 4.38672 30.0767 4.53906 30.2378C4.69434 30.3989 4.80273 30.5762 4.86426 30.7695C4.92871 30.96 4.96094 31.1504 4.96094 31.3408C4.96094 31.6396 4.90967 31.9048 4.80713 32.1362C4.70752 32.3677 4.56543 32.564 4.38086 32.7251C4.19922 32.8862 3.98535 33.0078 3.73926 33.0898C3.49316 33.1719 3.2251 33.2129 2.93506 33.2129C2.65674 33.2129 2.39453 33.1733 2.14844 33.0942C1.90527 33.0151 1.68994 32.9009 1.50244 32.7515C1.31494 32.5991 1.16846 32.4131 1.06299 32.1934C0.95752 31.9707 0.904785 31.7173 0.904785 31.4331H1.71777C1.71777 31.6558 1.76611 31.8506 1.86279 32.0176C1.9624 32.1846 2.10303 32.3149 2.28467 32.4087C2.46924 32.4995 2.68604 32.5449 2.93506 32.5449C3.18408 32.5449 3.39795 32.5024 3.57666 32.4175C3.7583 32.3296 3.89746 32.1978 3.99414 32.022C4.09375 31.8462 4.14355 31.625 4.14355 31.3584C4.14355 31.0918 4.08789 30.8735 3.97656 30.7036C3.86523 30.5308 3.70703 30.4033 3.50195 30.3213C3.2998 30.2363 3.06104 30.1938 2.78564 30.1938H2.20557ZM6.90771 32.1582V32.813C6.90771 33.0796 6.84033 33.3608 6.70557 33.6567C6.5708 33.9556 6.38184 34.2046 6.13867 34.4038L5.67725 34.083C5.771 33.9541 5.8501 33.8223 5.91455 33.6875C5.979 33.5557 6.02734 33.418 6.05957 33.2744C6.09473 33.1338 6.1123 32.9844 6.1123 32.8262V32.1582H6.90771ZM11.9922 26.7266V27.1836L9.34229 33.125H8.48535L11.1309 27.3945H7.66797V26.7266H11.9922ZM17.2437 30.9717V31.6396H12.6206V31.1606L15.4858 26.7266H16.1494L15.4375 28.0098L13.5435 30.9717H17.2437ZM16.3516 26.7266V33.125H15.5386V26.7266H16.3516ZM19.0103 30.0796L18.3599 29.9126L18.6807 26.7266H21.9634V27.478H19.3706L19.1772 29.2183C19.2944 29.1509 19.4424 29.0879 19.6211 29.0293C19.8027 28.9707 20.0107 28.9414 20.2451 28.9414C20.541 28.9414 20.8062 28.9927 21.0405 29.0952C21.2749 29.1948 21.4741 29.3384 21.6382 29.5259C21.8052 29.7134 21.9326 29.939 22.0205 30.2026C22.1084 30.4663 22.1523 30.7607 22.1523 31.0859C22.1523 31.3936 22.1099 31.6763 22.0249 31.9341C21.9429 32.1919 21.8184 32.4175 21.6514 32.6108C21.4844 32.8013 21.2734 32.9492 21.0186 33.0547C20.7666 33.1602 20.4692 33.2129 20.1265 33.2129C19.8687 33.2129 19.624 33.1777 19.3926 33.1074C19.1641 33.0342 18.959 32.9243 18.7773 32.7778C18.5986 32.6284 18.4521 32.4438 18.3379 32.2241C18.2266 32.0015 18.1562 31.7407 18.127 31.4419H18.9004C18.9355 31.6821 19.0059 31.8843 19.1113 32.0483C19.2168 32.2124 19.3545 32.3369 19.5244 32.4219C19.6973 32.5039 19.8979 32.5449 20.1265 32.5449C20.3198 32.5449 20.4912 32.5112 20.6406 32.4438C20.79 32.3765 20.916 32.2798 21.0186 32.1538C21.1211 32.0278 21.1987 31.8755 21.2515 31.6968C21.3071 31.5181 21.335 31.3174 21.335 31.0947C21.335 30.8926 21.3071 30.7051 21.2515 30.5322C21.1958 30.3594 21.1123 30.2085 21.001 30.0796C20.8926 29.9507 20.7593 29.8511 20.6011 29.7808C20.4429 29.7075 20.2612 29.6709 20.0562 29.6709C19.7837 29.6709 19.5771 29.7075 19.4365 29.7808C19.2988 29.854 19.1567 29.9536 19.0103 30.0796Z" fill="white"/>
<line x1="31.5" y1="29.125" x2="221.5" y2="29.125" stroke="white" stroke-opacity="0.4" stroke-miterlimit="16" stroke-linecap="round" stroke-linejoin="round" stroke-dasharray="0.1 3"/>
<path opacity="0.8" d="M2.20557 55.2759H2.78564C3.06982 55.2759 3.3042 55.229 3.48877 55.1353C3.67627 55.0386 3.81543 54.9082 3.90625 54.7441C4 54.5771 4.04688 54.3896 4.04688 54.1816C4.04688 53.9355 4.00586 53.729 3.92383 53.562C3.8418 53.395 3.71875 53.269 3.55469 53.1841C3.39062 53.0991 3.18262 53.0566 2.93066 53.0566C2.70215 53.0566 2.5 53.1021 2.32422 53.1929C2.15137 53.2808 2.01514 53.4067 1.91553 53.5708C1.81885 53.7349 1.77051 53.9282 1.77051 54.1509H0.95752C0.95752 53.8257 1.03955 53.5298 1.20361 53.2632C1.36768 52.9966 1.59766 52.7842 1.89355 52.626C2.19238 52.4678 2.53809 52.3887 2.93066 52.3887C3.31738 52.3887 3.65576 52.4575 3.9458 52.5952C4.23584 52.73 4.46143 52.9321 4.62256 53.2017C4.78369 53.4683 4.86426 53.8008 4.86426 54.1992C4.86426 54.3604 4.82617 54.5332 4.75 54.7178C4.67676 54.8994 4.56104 55.0693 4.40283 55.2275C4.24756 55.3857 4.04541 55.5161 3.79639 55.6187C3.54736 55.7183 3.24854 55.7681 2.8999 55.7681H2.20557V55.2759ZM2.20557 55.9438V55.4561H2.8999C3.30713 55.4561 3.64404 55.5044 3.91064 55.6011C4.17725 55.6978 4.38672 55.8267 4.53906 55.9878C4.69434 56.1489 4.80273 56.3262 4.86426 56.5195C4.92871 56.71 4.96094 56.9004 4.96094 57.0908C4.96094 57.3896 4.90967 57.6548 4.80713 57.8862C4.70752 58.1177 4.56543 58.314 4.38086 58.4751C4.19922 58.6362 3.98535 58.7578 3.73926 58.8398C3.49316 58.9219 3.2251 58.9629 2.93506 58.9629C2.65674 58.9629 2.39453 58.9233 2.14844 58.8442C1.90527 58.7651 1.68994 58.6509 1.50244 58.5015C1.31494 58.3491 1.16846 58.1631 1.06299 57.9434C0.95752 57.7207 0.904785 57.4673 0.904785 57.1831H1.71777C1.71777 57.4058 1.76611 57.6006 1.86279 57.7676C1.9624 57.9346 2.10303 58.0649 2.28467 58.1587C2.46924 58.2495 2.68604 58.2949 2.93506 58.2949C3.18408 58.2949 3.39795 58.2524 3.57666 58.1675C3.7583 58.0796 3.89746 57.9478 3.99414 57.772C4.09375 57.5962 4.14355 57.375 4.14355 57.1084C4.14355 56.8418 4.08789 56.6235 3.97656 56.4536C3.86523 56.2808 3.70703 56.1533 3.50195 56.0713C3.2998 55.9863 3.06104 55.9438 2.78564 55.9438H2.20557ZM6.90771 57.9082V58.563C6.90771 58.8296 6.84033 59.1108 6.70557 59.4067C6.5708 59.7056 6.38184 59.9546 6.13867 60.1538L5.67725 59.833C5.771 59.7041 5.8501 59.5723 5.91455 59.4375C5.979 59.3057 6.02734 59.168 6.05957 59.0244C6.09473 58.8838 6.1123 58.7344 6.1123 58.5762V57.9082H6.90771ZM11.9922 52.4766V52.9336L9.34229 58.875H8.48535L11.1309 53.1445H7.66797V52.4766H11.9922ZM17.2437 56.7217V57.3896H12.6206V56.9106L15.4858 52.4766H16.1494L15.4375 53.7598L13.5435 56.7217H17.2437ZM16.3516 52.4766V58.875H15.5386V52.4766H16.3516ZM21.9985 55.166V56.1416C21.9985 56.666 21.9517 57.1084 21.8579 57.4688C21.7642 57.8291 21.6294 58.1191 21.4536 58.3389C21.2778 58.5586 21.0654 58.7183 20.8164 58.8179C20.5703 58.9146 20.292 58.9629 19.9814 58.9629C19.7354 58.9629 19.5083 58.9321 19.3003 58.8706C19.0923 58.8091 18.9048 58.7109 18.7378 58.5762C18.5737 58.4385 18.4331 58.2598 18.3159 58.04C18.1987 57.8203 18.1094 57.5537 18.0479 57.2402C17.9863 56.9268 17.9556 56.5605 17.9556 56.1416V55.166C17.9556 54.6416 18.0024 54.2021 18.0962 53.8477C18.1929 53.4932 18.3291 53.209 18.5049 52.9951C18.6807 52.7783 18.8916 52.623 19.1377 52.5293C19.3867 52.4355 19.665 52.3887 19.9727 52.3887C20.2217 52.3887 20.4502 52.4194 20.6582 52.481C20.8691 52.5396 21.0566 52.6348 21.2207 52.7666C21.3848 52.8955 21.5239 53.0684 21.6382 53.2852C21.7554 53.499 21.8447 53.7612 21.9062 54.0718C21.9678 54.3823 21.9985 54.7471 21.9985 55.166ZM21.1812 56.2734V55.0298C21.1812 54.7427 21.1636 54.4907 21.1284 54.2739C21.0962 54.0542 21.0479 53.8667 20.9834 53.7114C20.9189 53.5562 20.8369 53.4302 20.7373 53.3335C20.6406 53.2368 20.5278 53.1665 20.3989 53.1226C20.2729 53.0757 20.1309 53.0522 19.9727 53.0522C19.7793 53.0522 19.6079 53.0889 19.4585 53.1621C19.3091 53.2324 19.1831 53.3452 19.0806 53.5005C18.981 53.6558 18.9048 53.8594 18.8521 54.1113C18.7993 54.3633 18.7729 54.6694 18.7729 55.0298V56.2734C18.7729 56.5605 18.7891 56.814 18.8213 57.0337C18.8564 57.2534 18.9077 57.4438 18.9751 57.605C19.0425 57.7632 19.1245 57.8936 19.2212 57.9961C19.3179 58.0986 19.4292 58.1748 19.5552 58.2246C19.6841 58.2715 19.8262 58.2949 19.9814 58.2949C20.1807 58.2949 20.355 58.2568 20.5044 58.1807C20.6538 58.1045 20.7783 57.9858 20.8779 57.8247C20.9805 57.6606 21.0566 57.4512 21.1064 57.1963C21.1562 56.9385 21.1812 56.6309 21.1812 56.2734Z" fill="white"/>
<line x1="31.5" y1="54.875" x2="221.5" y2="54.875" stroke="white" stroke-opacity="0.4" stroke-miterlimit="16" stroke-linecap="round" stroke-linejoin="round" stroke-dasharray="0.1 3"/>
<path opacity="0.8" d="M2.20557 81.5259H2.78564C3.06982 81.5259 3.3042 81.479 3.48877 81.3853C3.67627 81.2886 3.81543 81.1582 3.90625 80.9941C4 80.8271 4.04688 80.6396 4.04688 80.4316C4.04688 80.1855 4.00586 79.979 3.92383 79.812C3.8418 79.645 3.71875 79.519 3.55469 79.4341C3.39062 79.3491 3.18262 79.3066 2.93066 79.3066C2.70215 79.3066 2.5 79.3521 2.32422 79.4429C2.15137 79.5308 2.01514 79.6567 1.91553 79.8208C1.81885 79.9849 1.77051 80.1782 1.77051 80.4009H0.95752C0.95752 80.0757 1.03955 79.7798 1.20361 79.5132C1.36768 79.2466 1.59766 79.0342 1.89355 78.876C2.19238 78.7178 2.53809 78.6387 2.93066 78.6387C3.31738 78.6387 3.65576 78.7075 3.9458 78.8452C4.23584 78.98 4.46143 79.1821 4.62256 79.4517C4.78369 79.7183 4.86426 80.0508 4.86426 80.4492C4.86426 80.6104 4.82617 80.7832 4.75 80.9678C4.67676 81.1494 4.56104 81.3193 4.40283 81.4775C4.24756 81.6357 4.04541 81.7661 3.79639 81.8687C3.54736 81.9683 3.24854 82.0181 2.8999 82.0181H2.20557V81.5259ZM2.20557 82.1938V81.7061H2.8999C3.30713 81.7061 3.64404 81.7544 3.91064 81.8511C4.17725 81.9478 4.38672 82.0767 4.53906 82.2378C4.69434 82.3989 4.80273 82.5762 4.86426 82.7695C4.92871 82.96 4.96094 83.1504 4.96094 83.3408C4.96094 83.6396 4.90967 83.9048 4.80713 84.1362C4.70752 84.3677 4.56543 84.564 4.38086 84.7251C4.19922 84.8862 3.98535 85.0078 3.73926 85.0898C3.49316 85.1719 3.2251 85.2129 2.93506 85.2129C2.65674 85.2129 2.39453 85.1733 2.14844 85.0942C1.90527 85.0151 1.68994 84.9009 1.50244 84.7515C1.31494 84.5991 1.16846 84.4131 1.06299 84.1934C0.95752 83.9707 0.904785 83.7173 0.904785 83.4331H1.71777C1.71777 83.6558 1.76611 83.8506 1.86279 84.0176C1.9624 84.1846 2.10303 84.3149 2.28467 84.4087C2.46924 84.4995 2.68604 84.5449 2.93506 84.5449C3.18408 84.5449 3.39795 84.5024 3.57666 84.4175C3.7583 84.3296 3.89746 84.1978 3.99414 84.022C4.09375 83.8462 4.14355 83.625 4.14355 83.3584C4.14355 83.0918 4.08789 82.8735 3.97656 82.7036C3.86523 82.5308 3.70703 82.4033 3.50195 82.3213C3.2998 82.2363 3.06104 82.1938 2.78564 82.1938H2.20557ZM6.90771 84.1582V84.813C6.90771 85.0796 6.84033 85.3608 6.70557 85.6567C6.5708 85.9556 6.38184 86.2046 6.13867 86.4038L5.67725 86.083C5.771 85.9541 5.8501 85.8223 5.91455 85.6875C5.979 85.5557 6.02734 85.418 6.05957 85.2744C6.09473 85.1338 6.1123 84.9844 6.1123 84.8262V84.1582H6.90771ZM11.9922 78.7266V79.1836L9.34229 85.125H8.48535L11.1309 79.3945H7.66797V78.7266H11.9922ZM14.106 81.5259H14.686C14.9702 81.5259 15.2046 81.479 15.3892 81.3853C15.5767 81.2886 15.7158 81.1582 15.8066 80.9941C15.9004 80.8271 15.9473 80.6396 15.9473 80.4316C15.9473 80.1855 15.9062 79.979 15.8242 79.812C15.7422 79.645 15.6191 79.519 15.4551 79.4341C15.291 79.3491 15.083 79.3066 14.8311 79.3066C14.6025 79.3066 14.4004 79.3521 14.2246 79.4429C14.0518 79.5308 13.9155 79.6567 13.8159 79.8208C13.7192 79.9849 13.6709 80.1782 13.6709 80.4009H12.8579C12.8579 80.0757 12.9399 79.7798 13.104 79.5132C13.2681 79.2466 13.498 79.0342 13.7939 78.876C14.0928 78.7178 14.4385 78.6387 14.8311 78.6387C15.2178 78.6387 15.5562 78.7075 15.8462 78.8452C16.1362 78.98 16.3618 79.1821 16.5229 79.4517C16.6841 79.7183 16.7646 80.0508 16.7646 80.4492C16.7646 80.6104 16.7266 80.7832 16.6504 80.9678C16.5771 81.1494 16.4614 81.3193 16.3032 81.4775C16.1479 81.6357 15.9458 81.7661 15.6968 81.8687C15.4478 81.9683 15.1489 82.0181 14.8003 82.0181H14.106V81.5259ZM14.106 82.1938V81.7061H14.8003C15.2075 81.7061 15.5444 81.7544 15.811 81.8511C16.0776 81.9478 16.2871 82.0767 16.4395 82.2378C16.5947 82.3989 16.7031 82.5762 16.7646 82.7695C16.8291 82.96 16.8613 83.1504 16.8613 83.3408C16.8613 83.6396 16.8101 83.9048 16.7075 84.1362C16.6079 84.3677 16.4658 84.564 16.2812 84.7251C16.0996 84.8862 15.8857 85.0078 15.6396 85.0898C15.3936 85.1719 15.1255 85.2129 14.8354 85.2129C14.5571 85.2129 14.2949 85.1733 14.0488 85.0942C13.8057 85.0151 13.5903 84.9009 13.4028 84.7515C13.2153 84.5991 13.0688 84.4131 12.9634 84.1934C12.8579 83.9707 12.8052 83.7173 12.8052 83.4331H13.6182C13.6182 83.6558 13.6665 83.8506 13.7632 84.0176C13.8628 84.1846 14.0034 84.3149 14.1851 84.4087C14.3696 84.4995 14.5864 84.5449 14.8354 84.5449C15.0845 84.5449 15.2983 84.5024 15.4771 84.4175C15.6587 84.3296 15.7979 84.1978 15.8945 84.022C15.9941 83.8462 16.0439 83.625 16.0439 83.3584C16.0439 83.0918 15.9883 82.8735 15.877 82.7036C15.7656 82.5308 15.6074 82.4033 15.4023 82.3213C15.2002 82.2363 14.9614 82.1938 14.686 82.1938H14.106ZM19.0103 82.0796L18.3599 81.9126L18.6807 78.7266H21.9634V79.478H19.3706L19.1772 81.2183C19.2944 81.1509 19.4424 81.0879 19.6211 81.0293C19.8027 80.9707 20.0107 80.9414 20.2451 80.9414C20.541 80.9414 20.8062 80.9927 21.0405 81.0952C21.2749 81.1948 21.4741 81.3384 21.6382 81.5259C21.8052 81.7134 21.9326 81.939 22.0205 82.2026C22.1084 82.4663 22.1523 82.7607 22.1523 83.0859C22.1523 83.3936 22.1099 83.6763 22.0249 83.9341C21.9429 84.1919 21.8184 84.4175 21.6514 84.6108C21.4844 84.8013 21.2734 84.9492 21.0186 85.0547C20.7666 85.1602 20.4692 85.2129 20.1265 85.2129C19.8687 85.2129 19.624 85.1777 19.3926 85.1074C19.1641 85.0342 18.959 84.9243 18.7773 84.7778C18.5986 84.6284 18.4521 84.4438 18.3379 84.2241C18.2266 84.0015 18.1562 83.7407 18.127 83.4419H18.9004C18.9355 83.6821 19.0059 83.8843 19.1113 84.0483C19.2168 84.2124 19.3545 84.3369 19.5244 84.4219C19.6973 84.5039 19.8979 84.5449 20.1265 84.5449C20.3198 84.5449 20.4912 84.5112 20.6406 84.4438C20.79 84.3765 20.916 84.2798 21.0186 84.1538C21.1211 84.0278 21.1987 83.8755 21.2515 83.6968C21.3071 83.5181 21.335 83.3174 21.335 83.0947C21.335 82.8926 21.3071 82.7051 21.2515 82.5322C21.1958 82.3594 21.1123 82.2085 21.001 82.0796C20.8926 81.9507 20.7593 81.8511 20.6011 81.7808C20.4429 81.7075 20.2612 81.6709 20.0562 81.6709C19.7837 81.6709 19.5771 81.7075 19.4365 81.7808C19.2988 81.854 19.1567 81.9536 19.0103 82.0796Z" fill="white"/>
<line x1="31.5" y1="81.125" x2="221.5" y2="81.125" stroke="white" stroke-opacity="0.4" stroke-miterlimit="16" stroke-linecap="round" stroke-linejoin="round" stroke-dasharray="0.1 3"/>
<rect width="191" height="1" transform="matrix(1 0 0 -1 31 109)" fill="white" fill-opacity="0.15"/>
</g>
<defs>
<linearGradient id="paint0_linear_37265_57563" x1="32" y1="96" x2="32" y2="107" gradientUnits="userSpaceOnUse">
<stop stop-color="white"/>
<stop offset="0.0001" stop-color="#878787"/>
<stop offset="1" stop-color="#575757" stop-opacity="0"/>
</linearGradient>
<linearGradient id="paint1_linear_37265_57563" x1="35" y1="96" x2="35" y2="107" gradientUnits="userSpaceOnUse">
<stop stop-color="white"/>
<stop offset="0.0001" stop-color="#878787"/>
<stop offset="1" stop-color="#575757" stop-opacity="0"/>
</linearGradient>
<linearGradient id="paint2_linear_37265_57563" x1="38" y1="93" x2="38" y2="107" gradientUnits="userSpaceOnUse">
<stop stop-color="white"/>
<stop offset="0.0001" stop-color="#878787"/>
<stop offset="1" stop-color="#575757" stop-opacity="0"/>
</linearGradient>
<linearGradient id="paint3_linear_37265_57563" x1="41" y1="93" x2="41" y2="107" gradientUnits="userSpaceOnUse">
<stop stop-color="white"/>
<stop offset="0.0001" stop-color="#878787"/>
<stop offset="1" stop-color="#575757" stop-opacity="0"/>
</linearGradient>
<linearGradient id="paint4_linear_37265_57563" x1="44" y1="91" x2="44" y2="107" gradientUnits="userSpaceOnUse">
<stop stop-color="white"/>
<stop offset="0.0001" stop-color="#878787"/>
<stop offset="1" stop-color="#575757" stop-opacity="0"/>
</linearGradient>
<linearGradient id="paint5_linear_37265_57563" x1="47" y1="91" x2="47" y2="107" gradientUnits="userSpaceOnUse">
<stop stop-color="white"/>
<stop offset="0.0001" stop-color="#878787"/>
<stop offset="1" stop-color="#575757" stop-opacity="0"/>
</linearGradient>
<linearGradient id="paint6_linear_37265_57563" x1="50" y1="91" x2="50" y2="107" gradientUnits="userSpaceOnUse">
<stop stop-color="white"/>
<stop offset="0.0001" stop-color="#878787"/>
<stop offset="1" stop-color="#575757" stop-opacity="0"/>
</linearGradient>
<linearGradient id="paint7_linear_37265_57563" x1="53" y1="91" x2="53" y2="107" gradientUnits="userSpaceOnUse">
<stop stop-color="white"/>
<stop offset="0.0001" stop-color="#878787"/>
<stop offset="1" stop-color="#575757" stop-opacity="0"/>
</linearGradient>
<linearGradient id="paint8_linear_37265_57563" x1="56" y1="93" x2="56" y2="107" gradientUnits="userSpaceOnUse">
<stop stop-color="white"/>
<stop offset="0.0001" stop-color="#878787"/>
<stop offset="1" stop-color="#575757" stop-opacity="0"/>
</linearGradient>
<linearGradient id="paint9_linear_37265_57563" x1="59" y1="93" x2="59" y2="107" gradientUnits="userSpaceOnUse">
<stop stop-color="white"/>
<stop offset="0.0001" stop-color="#878787"/>
<stop offset="1" stop-color="#575757" stop-opacity="0"/>
</linearGradient>
<linearGradient id="paint10_linear_37265_57563" x1="62" y1="96" x2="62" y2="107" gradientUnits="userSpaceOnUse">
<stop stop-color="white"/>
<stop offset="0.0001" stop-color="#878787"/>
<stop offset="1" stop-color="#575757" stop-opacity="0"/>
</linearGradient>
<linearGradient id="paint11_linear_37265_57563" x1="65" y1="96" x2="65" y2="107" gradientUnits="userSpaceOnUse">
<stop stop-color="white"/>
<stop offset="0.0001" stop-color="#878787"/>
<stop offset="1" stop-color="#575757" stop-opacity="0"/>
</linearGradient>
<linearGradient id="paint12_linear_37265_57563" x1="68" y1="98" x2="68" y2="107" gradientUnits="userSpaceOnUse">
<stop stop-color="white"/>
<stop offset="0.0001" stop-color="#878787"/>
<stop offset="1" stop-color="#575757" stop-opacity="0"/>
</linearGradient>
<linearGradient id="paint13_linear_37265_57563" x1="71" y1="98" x2="71" y2="107" gradientUnits="userSpaceOnUse">
<stop stop-color="white"/>
<stop offset="0.0001" stop-color="#878787"/>
<stop offset="1" stop-color="#575757" stop-opacity="0"/>
</linearGradient>
<linearGradient id="paint14_linear_37265_57563" x1="74" y1="99" x2="74" y2="107" gradientUnits="userSpaceOnUse">
<stop stop-color="white"/>
<stop offset="0.0001" stop-color="#878787"/>
<stop offset="1" stop-color="#575757" stop-opacity="0"/>
</linearGradient>
<linearGradient id="paint15_linear_37265_57563" x1="77" y1="99" x2="77" y2="107" gradientUnits="userSpaceOnUse">
<stop stop-color="white"/>
<stop offset="0.0001" stop-color="#878787"/>
<stop offset="1" stop-color="#575757" stop-opacity="0"/>
</linearGradient>
<linearGradient id="paint16_linear_37265_57563" x1="80" y1="99" x2="80" y2="107" gradientUnits="userSpaceOnUse">
<stop stop-color="white"/>
<stop offset="0.0001" stop-color="#878787"/>
<stop offset="1" stop-color="#575757" stop-opacity="0"/>
</linearGradient>
<linearGradient id="paint17_linear_37265_57563" x1="83" y1="99" x2="83" y2="107" gradientUnits="userSpaceOnUse">
<stop stop-color="white"/>
<stop offset="0.0001" stop-color="#878787"/>
<stop offset="1" stop-color="#575757" stop-opacity="0"/>
</linearGradient>
<linearGradient id="paint18_linear_37265_57563" x1="86" y1="99" x2="86" y2="107" gradientUnits="userSpaceOnUse">
<stop stop-color="white"/>
<stop offset="0.0001" stop-color="#878787"/>
<stop offset="1" stop-color="#575757" stop-opacity="0"/>
</linearGradient>
<linearGradient id="paint19_linear_37265_57563" x1="89" y1="99" x2="89" y2="107" gradientUnits="userSpaceOnUse">
<stop stop-color="white"/>
<stop offset="0.0001" stop-color="#878787"/>
<stop offset="1" stop-color="#575757" stop-opacity="0"/>
</linearGradient>
<linearGradient id="paint20_linear_37265_57563" x1="92" y1="98" x2="92" y2="107" gradientUnits="userSpaceOnUse">
<stop stop-color="white"/>
<stop offset="0.0001" stop-color="#878787"/>
<stop offset="1" stop-color="#575757" stop-opacity="0"/>
</linearGradient>
<linearGradient id="paint21_linear_37265_57563" x1="95" y1="98" x2="95" y2="107" gradientUnits="userSpaceOnUse">
<stop stop-color="white"/>
<stop offset="0.0001" stop-color="#878787"/>
<stop offset="1" stop-color="#575757" stop-opacity="0"/>
</linearGradient>
<linearGradient id="paint22_linear_37265_57563" x1="98" y1="97" x2="98" y2="107" gradientUnits="userSpaceOnUse">
<stop stop-color="white"/>
<stop offset="0.0001" stop-color="#878787"/>
<stop offset="1" stop-color="#575757" stop-opacity="0"/>
</linearGradient>
<linearGradient id="paint23_linear_37265_57563" x1="101" y1="97" x2="101" y2="107" gradientUnits="userSpaceOnUse">
<stop stop-color="white"/>
<stop offset="0.0001" stop-color="#878787"/>
<stop offset="1" stop-color="#575757" stop-opacity="0"/>
</linearGradient>
<linearGradient id="paint24_linear_37265_57563" x1="104" y1="96" x2="104" y2="107" gradientUnits="userSpaceOnUse">
<stop stop-color="white"/>
<stop offset="0.0001" stop-color="#878787"/>
<stop offset="1" stop-color="#575757" stop-opacity="0"/>
</linearGradient>
<linearGradient id="paint25_linear_37265_57563" x1="107" y1="96" x2="107" y2="107" gradientUnits="userSpaceOnUse">
<stop stop-color="white"/>
<stop offset="0.0001" stop-color="#878787"/>
<stop offset="1" stop-color="#575757" stop-opacity="0"/>
</linearGradient>
<linearGradient id="paint26_linear_37265_57563" x1="110" y1="95" x2="110" y2="107" gradientUnits="userSpaceOnUse">
<stop stop-color="white"/>
<stop offset="0.0001" stop-color="#878787"/>
<stop offset="1" stop-color="#575757" stop-opacity="0"/>
</linearGradient>
<linearGradient id="paint27_linear_37265_57563" x1="113" y1="95" x2="113" y2="107" gradientUnits="userSpaceOnUse">
<stop stop-color="white"/>
<stop offset="0.0001" stop-color="#878787"/>
<stop offset="1" stop-color="#575757" stop-opacity="0"/>
</linearGradient>
<linearGradient id="paint28_linear_37265_57563" x1="116" y1="93" x2="116" y2="107" gradientUnits="userSpaceOnUse">
<stop stop-color="white"/>
<stop offset="0.0001" stop-color="#878787"/>
<stop offset="1" stop-color="#575757" stop-opacity="0"/>
</linearGradient>
<linearGradient id="paint29_linear_37265_57563" x1="119" y1="93" x2="119" y2="107" gradientUnits="userSpaceOnUse">
<stop stop-color="white"/>
<stop offset="0.0001" stop-color="#878787"/>
<stop offset="1" stop-color="#575757" stop-opacity="0"/>
</linearGradient>
<linearGradient id="paint30_linear_37265_57563" x1="122" y1="90" x2="122" y2="107" gradientUnits="userSpaceOnUse">
<stop stop-color="white"/>
<stop offset="0.0001" stop-color="#878787"/>
<stop offset="1" stop-color="#575757" stop-opacity="0"/>
</linearGradient>
<linearGradient id="paint31_linear_37265_57563" x1="125" y1="90" x2="125" y2="107" gradientUnits="userSpaceOnUse">
<stop stop-color="white"/>
<stop offset="0.0001" stop-color="#878787"/>
<stop offset="1" stop-color="#575757" stop-opacity="0"/>
</linearGradient>
<linearGradient id="paint32_linear_37265_57563" x1="128" y1="87" x2="128" y2="107" gradientUnits="userSpaceOnUse">
<stop stop-color="white"/>
<stop offset="0.0001" stop-color="#878787"/>
<stop offset="1" stop-color="#575757" stop-opacity="0"/>
</linearGradient>
<linearGradient id="paint33_linear_37265_57563" x1="131" y1="87" x2="131" y2="107" gradientUnits="userSpaceOnUse">
<stop stop-color="white"/>
<stop offset="0.0001" stop-color="#878787"/>
<stop offset="1" stop-color="#575757" stop-opacity="0"/>
</linearGradient>
<linearGradient id="paint34_linear_37265_57563" x1="134" y1="86" x2="134" y2="107" gradientUnits="userSpaceOnUse">
<stop stop-color="white"/>
<stop offset="0.0001" stop-color="#878787"/>
<stop offset="1" stop-color="#575757" stop-opacity="0"/>
</linearGradient>
<linearGradient id="paint35_linear_37265_57563" x1="137" y1="86" x2="137" y2="107" gradientUnits="userSpaceOnUse">
<stop stop-color="white"/>
<stop offset="0.0001" stop-color="#878787"/>
<stop offset="1" stop-color="#575757" stop-opacity="0"/>
</linearGradient>
<linearGradient id="paint36_linear_37265_57563" x1="140" y1="86" x2="140" y2="107" gradientUnits="userSpaceOnUse">
<stop stop-color="white"/>
<stop offset="0.0001" stop-color="#878787"/>
<stop offset="1" stop-color="#575757" stop-opacity="0"/>
</linearGradient>
<linearGradient id="paint37_linear_37265_57563" x1="143" y1="86" x2="143" y2="107" gradientUnits="userSpaceOnUse">
<stop stop-color="white"/>
<stop offset="0.0001" stop-color="#878787"/>
<stop offset="1" stop-color="#575757" stop-opacity="0"/>
</linearGradient>
<linearGradient id="paint38_linear_37265_57563" x1="146" y1="87" x2="146" y2="107" gradientUnits="userSpaceOnUse">
<stop stop-color="white"/>
<stop offset="0.0001" stop-color="#878787"/>
<stop offset="1" stop-color="#575757" stop-opacity="0"/>
</linearGradient>
<linearGradient id="paint39_linear_37265_57563" x1="149" y1="87" x2="149" y2="107" gradientUnits="userSpaceOnUse">
<stop stop-color="white"/>
<stop offset="0.0001" stop-color="#878787"/>
<stop offset="1" stop-color="#575757" stop-opacity="0"/>
</linearGradient>
<linearGradient id="paint40_linear_37265_57563" x1="152" y1="90" x2="152" y2="107" gradientUnits="userSpaceOnUse">
<stop stop-color="white"/>
<stop offset="0.0001" stop-color="#878787"/>
<stop offset="1" stop-color="#575757" stop-opacity="0"/>
</linearGradient>
<linearGradient id="paint41_linear_37265_57563" x1="155" y1="90" x2="155" y2="107" gradientUnits="userSpaceOnUse">
<stop stop-color="white"/>
<stop offset="0.0001" stop-color="#878787"/>
<stop offset="1" stop-color="#575757" stop-opacity="0"/>
</linearGradient>
<linearGradient id="paint42_linear_37265_57563" x1="158" y1="91" x2="158" y2="107" gradientUnits="userSpaceOnUse">
<stop stop-color="white"/>
<stop offset="0.0001" stop-color="#878787"/>
<stop offset="1" stop-color="#575757" stop-opacity="0"/>
</linearGradient>
<linearGradient id="paint43_linear_37265_57563" x1="161" y1="91" x2="161" y2="107" gradientUnits="userSpaceOnUse">
<stop stop-color="white"/>
<stop offset="0.0001" stop-color="#878787"/>
<stop offset="1" stop-color="#575757" stop-opacity="0"/>
</linearGradient>
<linearGradient id="paint44_linear_37265_57563" x1="164" y1="92" x2="164" y2="107" gradientUnits="userSpaceOnUse">
<stop stop-color="white"/>
<stop offset="0.0001" stop-color="#878787"/>
<stop offset="1" stop-color="#575757" stop-opacity="0"/>
</linearGradient>
<linearGradient id="paint45_linear_37265_57563" x1="167" y1="92" x2="167" y2="107" gradientUnits="userSpaceOnUse">
<stop stop-color="white"/>
<stop offset="0.0001" stop-color="#878787"/>
<stop offset="1" stop-color="#575757" stop-opacity="0"/>
</linearGradient>
<linearGradient id="paint46_linear_37265_57563" x1="170" y1="91" x2="170" y2="107" gradientUnits="userSpaceOnUse">
<stop stop-color="white"/>
<stop offset="0.0001" stop-color="#878787"/>
<stop offset="1" stop-color="#575757" stop-opacity="0"/>
</linearGradient>
<linearGradient id="paint47_linear_37265_57563" x1="173" y1="91" x2="173" y2="107" gradientUnits="userSpaceOnUse">
<stop stop-color="white"/>
<stop offset="0.0001" stop-color="#878787"/>
<stop offset="1" stop-color="#575757" stop-opacity="0"/>
</linearGradient>
<linearGradient id="paint48_linear_37265_57563" x1="176" y1="90" x2="176" y2="107" gradientUnits="userSpaceOnUse">
<stop stop-color="white"/>
<stop offset="0.0001" stop-color="#878787"/>
<stop offset="1" stop-color="#575757" stop-opacity="0"/>
</linearGradient>
<linearGradient id="paint49_linear_37265_57563" x1="179" y1="90" x2="179" y2="107" gradientUnits="userSpaceOnUse">
<stop stop-color="white"/>
<stop offset="0.0001" stop-color="#878787"/>
<stop offset="1" stop-color="#575757" stop-opacity="0"/>
</linearGradient>
<linearGradient id="paint50_linear_37265_57563" x1="182" y1="90" x2="182" y2="107" gradientUnits="userSpaceOnUse">
<stop stop-color="white"/>
<stop offset="0.0001" stop-color="#878787"/>
<stop offset="1" stop-color="#575757" stop-opacity="0"/>
</linearGradient>
<linearGradient id="paint51_linear_37265_57563" x1="185" y1="90" x2="185" y2="107" gradientUnits="userSpaceOnUse">
<stop stop-color="white"/>
<stop offset="0.0001" stop-color="#878787"/>
<stop offset="1" stop-color="#575757" stop-opacity="0"/>
</linearGradient>
<linearGradient id="paint52_linear_37265_57563" x1="188" y1="89" x2="188" y2="107" gradientUnits="userSpaceOnUse">
<stop stop-color="white"/>
<stop offset="0.0001" stop-color="#878787"/>
<stop offset="1" stop-color="#575757" stop-opacity="0"/>
</linearGradient>
<linearGradient id="paint53_linear_37265_57563" x1="191" y1="89" x2="191" y2="107" gradientUnits="userSpaceOnUse">
<stop stop-color="white"/>
<stop offset="0.0001" stop-color="#878787"/>
<stop offset="1" stop-color="#575757" stop-opacity="0"/>
</linearGradient>
<linearGradient id="paint54_linear_37265_57563" x1="194" y1="90" x2="194" y2="107" gradientUnits="userSpaceOnUse">
<stop stop-color="white"/>
<stop offset="0.0001" stop-color="#878787"/>
<stop offset="1" stop-color="#575757" stop-opacity="0"/>
</linearGradient>
<linearGradient id="paint55_linear_37265_57563" x1="197" y1="90" x2="197" y2="107" gradientUnits="userSpaceOnUse">
<stop stop-color="white"/>
<stop offset="0.0001" stop-color="#878787"/>
<stop offset="1" stop-color="#575757" stop-opacity="0"/>
</linearGradient>
<linearGradient id="paint56_linear_37265_57563" x1="200" y1="90" x2="200" y2="107" gradientUnits="userSpaceOnUse">
<stop stop-color="white"/>
<stop offset="0.0001" stop-color="#878787"/>
<stop offset="1" stop-color="#575757" stop-opacity="0"/>
</linearGradient>
<linearGradient id="paint57_linear_37265_57563" x1="203" y1="90" x2="203" y2="107" gradientUnits="userSpaceOnUse">
<stop stop-color="white"/>
<stop offset="0.0001" stop-color="#878787"/>
<stop offset="1" stop-color="#575757" stop-opacity="0"/>
</linearGradient>
<linearGradient id="paint58_linear_37265_57563" x1="206" y1="92" x2="206" y2="107" gradientUnits="userSpaceOnUse">
<stop stop-color="white"/>
<stop offset="0.0001" stop-color="#878787"/>
<stop offset="1" stop-color="#575757" stop-opacity="0"/>
</linearGradient>
<linearGradient id="paint59_linear_37265_57563" x1="209" y1="92" x2="209" y2="107" gradientUnits="userSpaceOnUse">
<stop stop-color="white"/>
<stop offset="0.0001" stop-color="#878787"/>
<stop offset="1" stop-color="#575757" stop-opacity="0"/>
</linearGradient>
<linearGradient id="paint60_linear_37265_57563" x1="212" y1="94" x2="212" y2="107" gradientUnits="userSpaceOnUse">
<stop stop-color="white"/>
<stop offset="0.0001" stop-color="#878787"/>
<stop offset="1" stop-color="#575757" stop-opacity="0"/>
</linearGradient>
<linearGradient id="paint61_linear_37265_57563" x1="215" y1="94" x2="215" y2="107" gradientUnits="userSpaceOnUse">
<stop stop-color="white"/>
<stop offset="0.0001" stop-color="#878787"/>
<stop offset="1" stop-color="#575757" stop-opacity="0"/>
</linearGradient>
<linearGradient id="paint62_linear_37265_57563" x1="218" y1="94" x2="218" y2="107" gradientUnits="userSpaceOnUse">
<stop stop-color="white"/>
<stop offset="0.0001" stop-color="#878787"/>
<stop offset="1" stop-color="#575757" stop-opacity="0"/>
</linearGradient>
<linearGradient id="paint63_linear_37265_57563" x1="221" y1="94" x2="221" y2="107" gradientUnits="userSpaceOnUse">
<stop stop-color="white"/>
<stop offset="0.0001" stop-color="#878787"/>
<stop offset="1" stop-color="#575757" stop-opacity="0"/>
</linearGradient>
<linearGradient id="paint64_linear_37265_57563" x1="126.5" y1="17.0254" x2="126.5" y2="77.3993" gradientUnits="userSpaceOnUse">
<stop stop-color="#5CFFC4"/>
<stop offset="1" stop-color="#5CFFC4" stop-opacity="0"/>
</linearGradient>
<clipPath id="clip0_37265_57563">
<rect width="222" height="109" fill="white"/>
</clipPath>
</defs>
</svg>
