<svg width="178" height="46" viewBox="0 0 178 46" fill="none" xmlns="http://www.w3.org/2000/svg">
<g opacity="0.6">
<path fill-rule="evenodd" clip-rule="evenodd" d="M10.9079 19.1303C11.2457 19.4975 11.6163 20.0988 12.0048 21.0232C12.7865 22.9645 13.587 24.2596 14.4093 25.2125C15.2328 26.1667 16.0609 26.7566 16.8521 27.2957C16.9163 27.3394 16.9801 27.3827 17.0436 27.4258C17.7656 27.9159 18.444 28.3764 19.1219 29.0699C19.8542 29.819 20.5983 30.855 21.3448 32.5038L21.3482 32.5111C22.1608 34.2308 22.9863 35.4617 23.8436 36.2393C24.7137 37.0285 25.6388 37.3674 26.6006 37.2375C27.5357 37.1111 28.4135 36.5529 29.2367 35.7509C30.0645 34.9445 30.8803 33.8493 31.69 32.564L31.695 32.5559C32.0527 31.9635 32.3861 31.6314 32.6802 31.4547C32.9629 31.2849 33.2363 31.242 33.5227 31.2796C33.8232 31.3191 34.1506 31.4495 34.5174 31.6522C34.8444 31.8329 35.1731 32.0535 35.5236 32.2888C35.5672 32.3181 35.6111 32.3476 35.6555 32.3773C36.0455 32.6385 36.4637 32.9126 36.89 33.1193C37.317 33.3264 37.7862 33.4832 38.2817 33.481C39.3359 33.4764 40.2419 32.77 41.0424 31.225C41.8204 29.785 42.5747 28.8635 43.3007 28.255C44.0224 27.6501 44.7365 27.3375 45.463 27.1429C45.9935 27.0008 46.5098 26.9249 47.0592 26.8441C47.2891 26.8103 47.5248 26.7756 47.7698 26.7349C48.5783 26.6005 49.4313 26.4052 50.3008 25.9451L50.3087 25.941L50.3087 25.9409C51.1328 25.4859 51.9463 24.7864 52.7277 24.0707C52.9373 23.8786 53.1446 23.6855 53.3503 23.4938C53.9275 22.956 54.4923 22.4297 55.0637 21.9702C55.8393 21.3463 56.5636 20.9 57.2496 20.7396C57.8988 20.5878 58.5409 20.6846 59.2188 21.221C60.6992 22.448 62.2341 24.3081 63.7917 26.5174C65.3472 28.7239 66.906 31.2502 68.439 33.7893L68.4439 33.7975L68.444 33.7974C68.8703 34.4741 69.336 34.9449 69.8634 35.1721C70.4151 35.4098 70.9618 35.3505 71.4609 35.1132C71.9418 34.8845 72.3869 34.4886 72.7977 34.0287C73.2125 33.5643 73.6191 33.0038 74.0158 32.4116C74.3566 31.9027 74.6974 31.3593 75.0338 30.823C75.0891 30.7348 75.1442 30.6469 75.1992 30.5593C75.5915 29.9349 75.9778 29.3278 76.3629 28.7824C76.7491 28.2355 77.1234 27.7662 77.4877 27.4126C77.8564 27.0546 78.1806 26.849 78.4615 26.7747L78.4667 26.7733C78.947 26.6408 79.5346 26.8983 80.3058 27.6486C80.94 28.2657 81.5795 29.0969 82.247 29.9647C82.3655 30.1187 82.4848 30.2738 82.6051 30.4291C83.38 31.4289 84.2076 32.45 85.0591 33.0472C85.4912 33.3502 85.9687 33.5731 86.482 33.6032C87.0098 33.6342 87.5152 33.4578 87.9816 33.073C89.4532 31.9067 90.8651 31.7194 92.301 32.0104C93.7448 32.3029 95.204 33.0753 96.7782 33.9085L96.892 33.9686C96.8933 33.9694 96.8946 33.9701 96.8959 33.9708C98.4153 34.8096 100.048 35.6965 101.701 36.0315C103.393 36.3744 105.118 36.1423 106.782 34.7659C107.626 34.0954 108.453 33.1614 109.252 32.1802C109.628 31.7197 109.987 31.2622 110.342 30.8097C110.771 30.263 111.195 29.7235 111.635 29.1944C112.422 28.2473 113.175 27.4435 113.901 26.9278C114.626 26.4121 115.243 26.2398 115.801 26.3938L115.806 26.3953L115.806 26.3952C116.443 26.5639 117.149 27.1418 117.923 28.1036C118.684 29.0498 119.452 30.2907 120.232 31.6619C120.651 32.3961 121.073 33.1695 121.499 33.9497C122.644 36.0439 123.815 38.1873 124.998 39.7544C125.433 40.3517 125.971 40.7161 126.613 40.6429C127.2 40.5758 127.696 40.1526 128.104 39.6653C128.935 38.6736 129.746 36.9861 130.521 35.3057C130.626 35.079 130.73 34.8519 130.833 34.6258C131.515 33.1381 132.179 31.6901 132.837 30.6371C133.218 30.027 133.565 29.6031 133.873 29.3791C134.021 29.2706 134.138 29.2254 134.227 29.213C134.307 29.2017 134.39 29.2127 134.492 29.2688L134.5 29.2731L134.5 29.273C135.209 29.6482 135.913 30.1104 136.638 30.5857C136.705 30.6296 136.772 30.6735 136.839 30.7175C137.624 31.2318 138.434 31.753 139.253 32.1402C140.074 32.5282 140.936 32.7984 141.83 32.7834C142.735 32.7681 143.632 32.4605 144.511 31.7624L144.519 31.7559L144.519 31.7558C144.832 31.4971 145.119 31.3931 145.389 31.3755C145.665 31.3575 145.967 31.4278 146.305 31.5901C147 31.9243 147.727 32.5844 148.522 33.3419C148.589 33.4061 148.657 33.4709 148.726 33.5362C149.433 34.2124 150.189 34.9353 150.95 35.4047C151.799 35.9279 152.778 36.21 153.771 35.664C155.339 34.8351 156.82 34.3444 158.068 34.3411C159.284 34.3378 160.28 34.7924 160.977 35.8992L161.181 36.2227C160.66 36.7094 160.334 37.4028 160.334 38.1724C160.334 39.6452 161.528 40.8391 163 40.8391C164.473 40.8391 165.667 39.6452 165.667 38.1724C165.667 36.6996 164.473 35.5057 163 35.5057C162.657 35.5057 162.328 35.5707 162.027 35.689L161.823 35.3662C160.921 33.9334 159.583 33.337 158.066 33.3411C156.582 33.345 154.931 33.9191 153.3 34.7821L153.292 34.7863L153.292 34.7863C152.753 35.0839 152.184 34.9902 151.475 34.5535C150.809 34.1428 150.13 33.4948 149.401 32.7982C149.338 32.7384 149.275 32.6783 149.212 32.6179C148.44 31.8831 147.601 31.1035 146.738 30.6888C146.296 30.4767 145.821 30.3452 145.323 30.3776C144.821 30.4105 144.339 30.6082 143.886 30.9821C143.167 31.5516 142.481 31.7723 141.813 31.7835C141.131 31.7949 140.427 31.5889 139.681 31.2362C138.933 30.8826 138.177 30.3986 137.387 29.881C137.318 29.8363 137.25 29.7912 137.181 29.746C136.466 29.2765 135.723 28.7891 134.971 28.391C134.691 28.2372 134.391 28.1799 134.087 28.2228C133.791 28.2646 133.522 28.3974 133.283 28.5712C132.817 28.9117 132.387 29.4701 131.989 30.1074C131.294 31.2199 130.599 32.7364 129.921 34.2152C129.818 34.4405 129.715 34.6649 129.613 34.8869C128.821 36.6037 128.065 38.1547 127.338 39.0231C126.967 39.4658 126.686 39.628 126.499 39.6493C126.368 39.6643 126.137 39.6218 125.805 39.1635L125.799 39.1553L125.799 39.1553C124.662 37.6513 123.547 35.6107 122.416 33.5396C121.981 32.7437 121.543 31.9433 121.101 31.1671C120.316 29.787 119.516 28.4882 118.702 27.4768C117.902 26.4818 117.026 25.6846 116.064 25.4292C115.09 25.1613 114.157 25.518 113.321 26.1129C112.484 26.7082 111.662 27.5976 110.866 28.5552C110.434 29.0751 109.982 29.6493 109.535 30.2181C109.176 30.6753 108.819 31.129 108.477 31.5483C107.683 32.5232 106.911 33.3867 106.156 33.9858L106.148 33.9923L106.148 33.9924C104.747 35.1527 103.34 35.3432 101.9 35.0515C100.421 34.7519 98.9215 33.9468 97.3753 33.0932L97.3675 33.0889L97.3675 33.089C97.3067 33.0568 97.2458 33.0245 97.1848 32.9922C95.6622 32.1858 94.0884 31.3522 92.4996 31.0303C90.8035 30.6866 89.0832 30.922 87.3562 32.2927L87.348 32.2992L87.3481 32.2993C87.049 32.5469 86.7851 32.6193 86.5405 32.605C86.2798 32.5897 85.9803 32.4718 85.6333 32.2285C84.9264 31.7328 84.1874 30.8382 83.3955 29.8165C83.2811 29.6689 83.1657 29.5187 83.0495 29.3675C82.3854 28.5036 81.6939 27.6039 81.0032 26.9319C80.2167 26.1667 79.2552 25.5197 78.203 25.8087C77.685 25.9465 77.2143 26.2842 76.7911 26.6951C76.3627 27.111 75.9474 27.6372 75.5461 28.2056C75.1437 28.7754 74.7445 29.4032 74.3525 30.0273C74.2967 30.1162 74.241 30.2049 74.1855 30.2934C73.8486 30.8306 73.5167 31.3597 73.1849 31.8551C72.7983 32.4324 72.4215 32.9488 72.0519 33.3625C71.6783 33.7808 71.338 34.0643 71.0314 34.2101C70.7431 34.3472 70.5001 34.3575 70.2591 34.2537C69.9944 34.1397 69.6652 33.8588 69.2925 33.2683C67.7596 30.7295 66.1859 28.178 64.609 25.9412C63.0346 23.7081 61.4376 21.76 59.8526 20.4474L59.8446 20.4408L59.8445 20.4409C58.9239 19.7102 57.9672 19.5449 57.0219 19.7659C56.1121 19.9786 55.2447 20.5413 54.437 21.1909C53.8347 21.6753 53.2303 22.2385 52.6452 22.7837C52.445 22.9703 52.247 23.1548 52.0522 23.3333C51.2725 24.0475 50.5373 24.6716 49.8293 25.0633C49.1001 25.4483 48.3709 25.6212 47.6058 25.7484C47.4007 25.7825 47.1882 25.8138 46.9708 25.8458C46.3991 25.9299 45.7942 26.0189 45.2043 26.1769C44.3641 26.402 43.5116 26.7735 42.6583 27.4886C41.81 28.1996 40.9816 29.2329 40.1604 30.7537L40.1562 30.7614L40.1563 30.7614C39.4239 32.1766 38.7805 32.4789 38.2773 32.4811C37.9936 32.4823 37.6816 32.3918 37.3263 32.2195C36.9703 32.0469 36.6051 31.8097 36.2119 31.5464C36.1686 31.5174 36.1249 31.488 36.0809 31.4585C35.7356 31.2265 35.3687 30.9801 35.001 30.7769C34.5855 30.5473 34.1316 30.351 33.653 30.2881C33.1602 30.2234 32.6565 30.3024 32.1652 30.5975C31.6864 30.8852 31.2498 31.3597 30.8415 32.0348C30.0521 33.2876 29.2854 34.3073 28.5389 35.0346C27.7871 35.767 27.0983 36.1611 26.4667 36.2465C25.8618 36.3282 25.2203 36.138 24.5154 35.4986C23.7982 34.848 23.0409 33.752 22.254 32.0874C21.4678 30.3521 20.6625 29.2153 19.837 28.3709C19.0857 27.6023 18.3279 27.0884 17.6125 26.6033C17.5463 26.5584 17.4805 26.5138 17.4152 26.4692C16.6397 25.941 15.9012 25.4107 15.1664 24.5591C14.4309 23.7069 13.6819 22.5118 12.9308 20.6458L12.928 20.6389C12.517 19.6602 12.0921 18.9405 11.6438 18.4532C11.1904 17.9604 10.6867 17.6791 10.137 17.6525C9.59662 17.6263 9.1093 17.8515 8.69252 18.1657C8.27563 18.4801 7.88918 18.9132 7.53493 19.3814C7.00406 20.083 6.49818 20.9305 6.04768 21.6852C5.90179 21.9296 5.76172 22.1642 5.62848 22.3811C5.51349 22.5682 5.40424 22.7412 5.30045 22.8978C4.83702 22.11 3.98042 21.5813 3.00032 21.5813C1.52756 21.5813 0.333649 22.7752 0.333649 24.2479C0.333649 25.7207 1.52756 26.9146 3.00032 26.9146C4.47308 26.9146 5.66699 25.7207 5.66699 24.2479C5.66699 24.1964 5.66553 24.1453 5.66264 24.0945C5.92819 23.7778 6.20375 23.355 6.4805 22.9046C6.62846 22.6638 6.77821 22.413 6.93021 22.1585C7.37436 21.4146 7.83778 20.6384 8.33238 19.9848C8.66148 19.5498 8.98335 19.1989 9.29459 18.9642C9.60594 18.7294 9.86653 18.6405 10.0886 18.6513C10.3014 18.6616 10.5748 18.7682 10.9079 19.1303Z" fill="url(#paint0_linear_37268_57742)"/>
<path opacity="0.7" d="M3 30.4551L163 30.4551" stroke="url(#paint1_linear_37268_57742)" stroke-dasharray="2 2"/>
</g>
<defs>
<linearGradient id="paint0_linear_37268_57742" x1="3.00033" y1="29.0354" x2="163" y2="29.0354" gradientUnits="userSpaceOnUse">
<stop stop-color="#F53D26" stop-opacity="0"/>
<stop offset="1" stop-color="#F53D26"/>
</linearGradient>
<linearGradient id="paint1_linear_37268_57742" x1="3" y1="30.9551" x2="163" y2="30.9553" gradientUnits="userSpaceOnUse">
<stop stop-color="white" stop-opacity="0"/>
<stop offset="1" stop-color="white"/>
</linearGradient>
</defs>
</svg>
