<svg width="221" height="109" viewBox="0 0 221 109" fill="none" xmlns="http://www.w3.org/2000/svg">
<g clip-path="url(#clip0_37265_57567)">
<g opacity="0.25">
<rect x="30" y="96" width="2" height="11" fill="url(#paint0_linear_37265_57567)"/>
<rect x="33" y="96" width="2" height="11" fill="url(#paint1_linear_37265_57567)"/>
<rect x="36" y="93" width="2" height="14" fill="url(#paint2_linear_37265_57567)"/>
<rect x="39" y="93" width="2" height="14" fill="url(#paint3_linear_37265_57567)"/>
<rect x="42" y="91" width="2" height="16" fill="url(#paint4_linear_37265_57567)"/>
<rect x="45" y="91" width="2" height="16" fill="url(#paint5_linear_37265_57567)"/>
<rect x="48" y="91" width="2" height="16" fill="url(#paint6_linear_37265_57567)"/>
<rect x="51" y="91" width="2" height="16" fill="url(#paint7_linear_37265_57567)"/>
<rect x="54" y="93" width="2" height="14" fill="url(#paint8_linear_37265_57567)"/>
<rect x="57" y="93" width="2" height="14" fill="url(#paint9_linear_37265_57567)"/>
<rect x="60" y="96" width="2" height="11" fill="url(#paint10_linear_37265_57567)"/>
<rect x="63" y="96" width="2" height="11" fill="url(#paint11_linear_37265_57567)"/>
<rect x="66" y="98" width="2" height="9" fill="url(#paint12_linear_37265_57567)"/>
<rect x="69" y="98" width="2" height="9" fill="url(#paint13_linear_37265_57567)"/>
<rect x="72" y="99" width="2" height="8" fill="url(#paint14_linear_37265_57567)"/>
<rect x="75" y="99" width="2" height="8" fill="url(#paint15_linear_37265_57567)"/>
<rect x="78" y="99" width="2" height="8" fill="url(#paint16_linear_37265_57567)"/>
<rect x="81" y="99" width="2" height="8" fill="url(#paint17_linear_37265_57567)"/>
<rect x="84" y="99" width="2" height="8" fill="url(#paint18_linear_37265_57567)"/>
<rect x="87" y="99" width="2" height="8" fill="url(#paint19_linear_37265_57567)"/>
<rect x="90" y="98" width="2" height="9" fill="url(#paint20_linear_37265_57567)"/>
<rect x="93" y="98" width="2" height="9" fill="url(#paint21_linear_37265_57567)"/>
<rect x="96" y="97" width="2" height="10" fill="url(#paint22_linear_37265_57567)"/>
<rect x="99" y="97" width="2" height="10" fill="url(#paint23_linear_37265_57567)"/>
<rect x="102" y="96" width="2" height="11" fill="url(#paint24_linear_37265_57567)"/>
<rect x="105" y="96" width="2" height="11" fill="url(#paint25_linear_37265_57567)"/>
<rect x="108" y="95" width="2" height="12" fill="url(#paint26_linear_37265_57567)"/>
<rect x="111" y="95" width="2" height="12" fill="url(#paint27_linear_37265_57567)"/>
<rect x="114" y="93" width="2" height="14" fill="url(#paint28_linear_37265_57567)"/>
<rect x="117" y="93" width="2" height="14" fill="url(#paint29_linear_37265_57567)"/>
<rect x="120" y="90" width="2" height="17" fill="url(#paint30_linear_37265_57567)"/>
<rect x="123" y="90" width="2" height="17" fill="url(#paint31_linear_37265_57567)"/>
<rect x="126" y="87" width="2" height="20" fill="url(#paint32_linear_37265_57567)"/>
<rect x="129" y="87" width="2" height="20" fill="url(#paint33_linear_37265_57567)"/>
<rect x="132" y="86" width="2" height="21" fill="url(#paint34_linear_37265_57567)"/>
<rect x="135" y="86" width="2" height="21" fill="url(#paint35_linear_37265_57567)"/>
<rect x="138" y="86" width="2" height="21" fill="url(#paint36_linear_37265_57567)"/>
<rect x="141" y="86" width="2" height="21" fill="url(#paint37_linear_37265_57567)"/>
<rect x="144" y="87" width="2" height="20" fill="url(#paint38_linear_37265_57567)"/>
<rect x="147" y="87" width="2" height="20" fill="url(#paint39_linear_37265_57567)"/>
<rect x="150" y="90" width="2" height="17" fill="url(#paint40_linear_37265_57567)"/>
<rect x="153" y="90" width="2" height="17" fill="url(#paint41_linear_37265_57567)"/>
<rect x="156" y="91" width="2" height="16" fill="url(#paint42_linear_37265_57567)"/>
<rect x="159" y="91" width="2" height="16" fill="url(#paint43_linear_37265_57567)"/>
<rect x="162" y="92" width="2" height="15" fill="url(#paint44_linear_37265_57567)"/>
<rect x="165" y="92" width="2" height="15" fill="url(#paint45_linear_37265_57567)"/>
<rect x="168" y="91" width="2" height="16" fill="url(#paint46_linear_37265_57567)"/>
<rect x="171" y="91" width="2" height="16" fill="url(#paint47_linear_37265_57567)"/>
<rect x="174" y="90" width="2" height="17" fill="url(#paint48_linear_37265_57567)"/>
<rect x="177" y="90" width="2" height="17" fill="url(#paint49_linear_37265_57567)"/>
<rect x="180" y="90" width="2" height="17" fill="url(#paint50_linear_37265_57567)"/>
<rect x="183" y="90" width="2" height="17" fill="url(#paint51_linear_37265_57567)"/>
<rect x="186" y="89" width="2" height="18" fill="url(#paint52_linear_37265_57567)"/>
<rect x="189" y="89" width="2" height="18" fill="url(#paint53_linear_37265_57567)"/>
<rect x="192" y="90" width="2" height="17" fill="url(#paint54_linear_37265_57567)"/>
<rect x="195" y="90" width="2" height="17" fill="url(#paint55_linear_37265_57567)"/>
<rect x="198" y="90" width="2" height="17" fill="url(#paint56_linear_37265_57567)"/>
<rect x="201" y="90" width="2" height="17" fill="url(#paint57_linear_37265_57567)"/>
<rect x="204" y="92" width="2" height="15" fill="url(#paint58_linear_37265_57567)"/>
<rect x="207" y="92" width="2" height="15" fill="url(#paint59_linear_37265_57567)"/>
<rect x="210" y="94" width="2" height="13" fill="url(#paint60_linear_37265_57567)"/>
<rect x="213" y="94" width="2" height="13" fill="url(#paint61_linear_37265_57567)"/>
<rect x="216" y="94" width="2" height="13" fill="url(#paint62_linear_37265_57567)"/>
<rect x="219" y="94" width="2" height="13" fill="url(#paint63_linear_37265_57567)"/>
</g>
<path d="M219.09 61.9126L221 65.6394V88.0001H219.09H209.699H198.558H187.257H176.115H164.814H153.513H142.372H131.071H119.929H108.628H97.4867H86.1859H74.885H63.7433H52.4425H41.3008H31.91H30V20.918H31.91L41.3008 32.0983L52.4425 48.9223H63.7433L74.885 47.0054L86.1859 30.8561L97.4867 32.0983L108.628 50.7322L119.929 64.3971L131.071 49.49L142.372 50.7322L153.513 51.9745L164.814 39.5519L176.115 59.4281L187.257 68.1239L198.558 71.8507L209.699 53.2168L219.09 61.9126Z" fill="url(#paint64_linear_37265_57567)" fill-opacity="0.15"/>
<path d="M221 65.4521L220.045 67.8016L219.09 61.6909L217.916 56.3638L216.742 59.4969L215.568 62.63L214.395 57.3029L213.221 51.9758L212.047 55.1089L210.873 58.242L209.699 52.9149L209.003 49.8602L208.306 55.2656L207.61 60.6711L206.914 57.6164L206.217 54.5616L205.521 59.9671L204.825 65.3726L204.128 62.3178L203.432 61.8011L202.736 64.6685L202.039 67.5359L201.343 67.0192L200.647 67.3486L199.95 70.216L199.254 69.6993L198.558 72.5667L197.145 70.4045L195.732 71.6264L194.32 69.4642L192.907 69.8401L191.494 68.524L190.082 69.7459L188.669 67.5837L187.257 68.8056L186.56 66.565L185.864 67.7086L185.168 65.891L184.471 66.6116L183.775 64.371L183.079 65.5145L182.382 63.274L181.686 63.9945L180.989 62.177L180.293 63.3205L179.597 61.503L178.9 65.6076L178.204 60.406L177.508 60.7035L176.811 55.5019L176.115 59.1835L175.409 58.3528L174.702 56.2531L173.996 55.8454L173.29 53.7456L172.583 54.1839L171.877 50.8152L171.171 54.6376L170.465 48.7307L169.758 48.7461L169.052 41.9932L168.346 49.6227L167.639 39.9088L166.933 42.8851L166.227 42.4775L165.52 39.5317L164.814 39.97L164.108 35.6774L163.402 44.9213L162.695 41.4747L161.989 40.1432L161.283 44.7339L160.576 42.5564L159.87 45.455L159.164 45.3926L158.457 47.4452L157.751 46.9597L157.045 49.0123L156.339 48.5269L155.632 49.3105L154.926 51.3631L154.22 50.8776L153.513 51.6612L152.121 51.9275L150.728 47.1176L149.335 51.6141L147.942 55.2644L146.55 51.3006L145.157 49.0288L143.764 53.1022L142.372 50.4075L140.959 52.3658L139.546 50.094L138.134 49.9373L136.721 51.8957L135.309 49.6239L133.896 49.4672L132.483 45.0803L131.071 44.9236L130.374 50.094L129.678 51.0343L128.982 54.0897L128.285 52.9149L127.589 53.8552L126.893 56.9105L126.196 55.7358L125.5 52.4459L124.804 59.7314L124.107 58.5566L123.411 59.4969L122.715 64.6673L122.018 57.1474L121.322 66.5479L120.626 63.2581L119.929 64.1984L119.223 63.3365L118.517 60.7825L117.81 61.6126L117.104 58.6356L116.398 59.8887L115.691 56.9117L114.985 58.1649L114.279 55.1879L112.866 55.5791L112.16 57.2552L111.454 53.8552L110.747 55.5313L110.041 52.1313L109.335 53.8075L108.628 50.4075L107.932 45.002L107.236 48.0567L106.539 42.6513L105.843 45.706L105.147 44.5307L104.45 39.1252L103.754 42.1799L103.058 41.0046L102.361 44.0593L101.665 38.6538L100.968 41.7086L100.272 36.3031L99.5757 39.3579L98.8794 33.9524L98.183 32.777L97.4867 35.8318L96.0741 27.2148L94.6614 31.2882L93.2488 35.3616L91.8362 30.9748L90.4236 39.2783L89.011 34.8915L87.5984 30.5047L86.1858 26.1178L85.4795 31.3666L84.7732 36.6154L84.0669 33.4039L83.3606 34.4225L82.6543 39.6713L81.948 36.4598L81.2417 33.2484L80.5354 38.4971L79.8291 39.5158L79.1228 36.3043L78.4165 41.5531L77.7102 42.5717L77.0039 47.8205L76.2976 44.609L75.5913 45.6277L74.885 50.8764L73.4923 46.8881L72.0996 42.8998L70.7069 47.3718L69.3142 43.3835L67.9215 47.8554L66.5287 46.4052L65.136 49.1851L63.7433 46.8888L62.3307 49.4269L60.9181 46.8888L59.5055 48.5809L58.0929 44.3507L56.6803 48.5809L55.2677 52.811L53.8551 44.3507L52.4425 48.5809L51.7461 47.5196L51.0498 50.6886L50.3534 45.3973L49.6571 48.5662L48.9607 43.2749L48.2644 37.9835L47.568 41.1525L46.8717 44.3214L46.1753 39.0301L45.479 33.7388L44.7826 36.9077L44.0863 40.0766L43.3899 34.7853L42.6935 29.494L41.9972 32.6629L41.3008 31.6017L40.7139 35.1266L40.127 30.1912L39.5401 29.486L38.9531 28.7808L38.3662 28.0756L37.7793 31.6005L37.1923 26.6651L36.6054 25.9599L36.0185 21.0246L35.4315 24.5495L34.8446 23.8443L34.2577 18.9089L33.6708 22.4338L33.0839 21.7286L32.4969 21.0234L31.91 16L30.955 20.3182H30" stroke="#F53D26" stroke-width="0.8"/>
<path opacity="0.8" d="M1.04736 4.32959L0.396973 4.1626L0.717773 0.976562H4.00049V1.72803H1.40771L1.21436 3.46826C1.33154 3.40088 1.47949 3.33789 1.6582 3.2793C1.83984 3.2207 2.04785 3.19141 2.28223 3.19141C2.57812 3.19141 2.84326 3.24268 3.07764 3.34521C3.31201 3.44482 3.51123 3.58838 3.67529 3.77588C3.84229 3.96338 3.96973 4.18896 4.05762 4.45264C4.14551 4.71631 4.18945 5.01074 4.18945 5.33594C4.18945 5.64355 4.14697 5.92627 4.06201 6.18408C3.97998 6.44189 3.85547 6.66748 3.68848 6.86084C3.52148 7.05127 3.31055 7.19922 3.05566 7.30469C2.80371 7.41016 2.50635 7.46289 2.16357 7.46289C1.90576 7.46289 1.66113 7.42773 1.42969 7.35742C1.20117 7.28418 0.996094 7.17432 0.814453 7.02783C0.635742 6.87842 0.489258 6.69385 0.375 6.47412C0.263672 6.25146 0.193359 5.99072 0.164062 5.69189H0.9375C0.972656 5.93213 1.04297 6.13428 1.14844 6.29834C1.25391 6.4624 1.3916 6.58691 1.56152 6.67188C1.73438 6.75391 1.93506 6.79492 2.16357 6.79492C2.35693 6.79492 2.52832 6.76123 2.67773 6.69385C2.82715 6.62646 2.95312 6.52979 3.05566 6.40381C3.1582 6.27783 3.23584 6.12549 3.28857 5.94678C3.34424 5.76807 3.37207 5.56738 3.37207 5.34473C3.37207 5.14258 3.34424 4.95508 3.28857 4.78223C3.23291 4.60938 3.14941 4.4585 3.03809 4.32959C2.92969 4.20068 2.79639 4.10107 2.63818 4.03076C2.47998 3.95752 2.29834 3.9209 2.09326 3.9209C1.8208 3.9209 1.61426 3.95752 1.47363 4.03076C1.33594 4.104 1.19385 4.20361 1.04736 4.32959ZM5.90771 6.4082V7.06299C5.90771 7.32959 5.84033 7.61084 5.70557 7.90674C5.5708 8.20557 5.38184 8.45459 5.13867 8.65381L4.67725 8.33301C4.771 8.2041 4.8501 8.07227 4.91455 7.9375C4.979 7.80566 5.02734 7.66797 5.05957 7.52441C5.09473 7.38379 5.1123 7.23438 5.1123 7.07617V6.4082H5.90771ZM7.66553 6.69385H7.74902C8.21777 6.69385 8.59863 6.62793 8.8916 6.49609C9.18457 6.36426 9.41016 6.18701 9.56836 5.96436C9.72656 5.7417 9.83496 5.49121 9.89355 5.21289C9.95215 4.93164 9.98145 4.64307 9.98145 4.34717V3.36719C9.98145 3.07715 9.94775 2.81934 9.88037 2.59375C9.81592 2.36816 9.7251 2.1792 9.60791 2.02686C9.49365 1.87451 9.36328 1.75879 9.2168 1.67969C9.07031 1.60059 8.91504 1.56104 8.75098 1.56104C8.56348 1.56104 8.39502 1.59912 8.24561 1.67529C8.09912 1.74854 7.97461 1.85254 7.87207 1.9873C7.77246 2.12207 7.69629 2.28027 7.64355 2.46191C7.59082 2.64355 7.56445 2.84131 7.56445 3.05518C7.56445 3.24561 7.58789 3.43018 7.63477 3.60889C7.68164 3.7876 7.75342 3.94873 7.8501 4.09229C7.94678 4.23584 8.06689 4.3501 8.21045 4.43506C8.35693 4.51709 8.52832 4.55811 8.72461 4.55811C8.90625 4.55811 9.07617 4.52295 9.23438 4.45264C9.39551 4.37939 9.5376 4.28125 9.66064 4.1582C9.78662 4.03223 9.88623 3.89014 9.95947 3.73193C10.0356 3.57373 10.0796 3.4082 10.0913 3.23535H10.478C10.478 3.47852 10.4297 3.71875 10.333 3.95605C10.2393 4.19043 10.1074 4.4043 9.9375 4.59766C9.76758 4.79102 9.56836 4.94629 9.33984 5.06348C9.11133 5.17773 8.8623 5.23486 8.59277 5.23486C8.27637 5.23486 8.00244 5.17334 7.771 5.05029C7.53955 4.92725 7.34912 4.76318 7.19971 4.55811C7.05322 4.35303 6.94336 4.12451 6.87012 3.87256C6.7998 3.61768 6.76465 3.35986 6.76465 3.09912C6.76465 2.79443 6.80713 2.50879 6.89209 2.24219C6.97705 1.97559 7.10303 1.74121 7.27002 1.53906C7.43701 1.33398 7.64355 1.17432 7.88965 1.06006C8.13867 0.945801 8.42578 0.888672 8.75098 0.888672C9.11719 0.888672 9.4292 0.961914 9.68701 1.1084C9.94482 1.25488 10.1543 1.45117 10.3154 1.69727C10.4795 1.94336 10.5996 2.22021 10.6758 2.52783C10.752 2.83545 10.79 3.15186 10.79 3.47705V3.77148C10.79 4.10254 10.7681 4.43945 10.7241 4.78223C10.6831 5.12207 10.6025 5.44727 10.4824 5.75781C10.3652 6.06836 10.1938 6.34668 9.96826 6.59277C9.74268 6.83594 9.44824 7.0293 9.08496 7.17285C8.72461 7.31348 8.2793 7.38379 7.74902 7.38379H7.66553V6.69385ZM12.9478 4.32959L12.2974 4.1626L12.6182 0.976562H15.9009V1.72803H13.3081L13.1147 3.46826C13.2319 3.40088 13.3799 3.33789 13.5586 3.2793C13.7402 3.2207 13.9482 3.19141 14.1826 3.19141C14.4785 3.19141 14.7437 3.24268 14.978 3.34521C15.2124 3.44482 15.4116 3.58838 15.5757 3.77588C15.7427 3.96338 15.8701 4.18896 15.958 4.45264C16.0459 4.71631 16.0898 5.01074 16.0898 5.33594C16.0898 5.64355 16.0474 5.92627 15.9624 6.18408C15.8804 6.44189 15.7559 6.66748 15.5889 6.86084C15.4219 7.05127 15.2109 7.19922 14.9561 7.30469C14.7041 7.41016 14.4067 7.46289 14.064 7.46289C13.8062 7.46289 13.5615 7.42773 13.3301 7.35742C13.1016 7.28418 12.8965 7.17432 12.7148 7.02783C12.5361 6.87842 12.3896 6.69385 12.2754 6.47412C12.1641 6.25146 12.0938 5.99072 12.0645 5.69189H12.8379C12.873 5.93213 12.9434 6.13428 13.0488 6.29834C13.1543 6.4624 13.292 6.58691 13.4619 6.67188C13.6348 6.75391 13.8354 6.79492 14.064 6.79492C14.2573 6.79492 14.4287 6.76123 14.5781 6.69385C14.7275 6.62646 14.8535 6.52979 14.9561 6.40381C15.0586 6.27783 15.1362 6.12549 15.189 5.94678C15.2446 5.76807 15.2725 5.56738 15.2725 5.34473C15.2725 5.14258 15.2446 4.95508 15.189 4.78223C15.1333 4.60938 15.0498 4.4585 14.9385 4.32959C14.8301 4.20068 14.6968 4.10107 14.5386 4.03076C14.3804 3.95752 14.1987 3.9209 13.9937 3.9209C13.7212 3.9209 13.5146 3.95752 13.374 4.03076C13.2363 4.104 13.0942 4.20361 12.9478 4.32959ZM20.9985 3.66602V4.6416C20.9985 5.16602 20.9517 5.6084 20.8579 5.96875C20.7642 6.3291 20.6294 6.61914 20.4536 6.83887C20.2778 7.05859 20.0654 7.21826 19.8164 7.31787C19.5703 7.41455 19.292 7.46289 18.9814 7.46289C18.7354 7.46289 18.5083 7.43213 18.3003 7.37061C18.0923 7.30908 17.9048 7.21094 17.7378 7.07617C17.5737 6.93848 17.4331 6.75977 17.3159 6.54004C17.1987 6.32031 17.1094 6.05371 17.0479 5.74023C16.9863 5.42676 16.9556 5.06055 16.9556 4.6416V3.66602C16.9556 3.1416 17.0024 2.70215 17.0962 2.34766C17.1929 1.99316 17.3291 1.70898 17.5049 1.49512C17.6807 1.27832 17.8916 1.12305 18.1377 1.0293C18.3867 0.935547 18.665 0.888672 18.9727 0.888672C19.2217 0.888672 19.4502 0.919434 19.6582 0.980957C19.8691 1.03955 20.0566 1.13477 20.2207 1.2666C20.3848 1.39551 20.5239 1.56836 20.6382 1.78516C20.7554 1.99902 20.8447 2.26123 20.9062 2.57178C20.9678 2.88232 20.9985 3.24707 20.9985 3.66602ZM20.1812 4.77344V3.52979C20.1812 3.24268 20.1636 2.99072 20.1284 2.77393C20.0962 2.5542 20.0479 2.3667 19.9834 2.21143C19.9189 2.05615 19.8369 1.93018 19.7373 1.8335C19.6406 1.73682 19.5278 1.6665 19.3989 1.62256C19.2729 1.57568 19.1309 1.55225 18.9727 1.55225C18.7793 1.55225 18.6079 1.58887 18.4585 1.66211C18.3091 1.73242 18.1831 1.84521 18.0806 2.00049C17.981 2.15576 17.9048 2.35938 17.8521 2.61133C17.7993 2.86328 17.7729 3.16943 17.7729 3.52979V4.77344C17.7729 5.06055 17.7891 5.31396 17.8213 5.53369C17.8564 5.75342 17.9077 5.94385 17.9751 6.10498C18.0425 6.26318 18.1245 6.39355 18.2212 6.49609C18.3179 6.59863 18.4292 6.6748 18.5552 6.72461C18.6841 6.77148 18.8262 6.79492 18.9814 6.79492C19.1807 6.79492 19.355 6.75684 19.5044 6.68066C19.6538 6.60449 19.7783 6.48584 19.8779 6.32471C19.9805 6.16064 20.0566 5.95117 20.1064 5.69629C20.1562 5.43848 20.1812 5.13086 20.1812 4.77344Z" fill="white"/>
<line x1="30.5" y1="3.375" x2="220.5" y2="3.375" stroke="white" stroke-opacity="0.4" stroke-miterlimit="16" stroke-linecap="round" stroke-linejoin="round" stroke-dasharray="0.1 3"/>
<path opacity="0.8" d="M1.04736 30.0796L0.396973 29.9126L0.717773 26.7266H4.00049V27.478H1.40771L1.21436 29.2183C1.33154 29.1509 1.47949 29.0879 1.6582 29.0293C1.83984 28.9707 2.04785 28.9414 2.28223 28.9414C2.57812 28.9414 2.84326 28.9927 3.07764 29.0952C3.31201 29.1948 3.51123 29.3384 3.67529 29.5259C3.84229 29.7134 3.96973 29.939 4.05762 30.2026C4.14551 30.4663 4.18945 30.7607 4.18945 31.0859C4.18945 31.3936 4.14697 31.6763 4.06201 31.9341C3.97998 32.1919 3.85547 32.4175 3.68848 32.6108C3.52148 32.8013 3.31055 32.9492 3.05566 33.0547C2.80371 33.1602 2.50635 33.2129 2.16357 33.2129C1.90576 33.2129 1.66113 33.1777 1.42969 33.1074C1.20117 33.0342 0.996094 32.9243 0.814453 32.7778C0.635742 32.6284 0.489258 32.4438 0.375 32.2241C0.263672 32.0015 0.193359 31.7407 0.164062 31.4419H0.9375C0.972656 31.6821 1.04297 31.8843 1.14844 32.0483C1.25391 32.2124 1.3916 32.3369 1.56152 32.4219C1.73438 32.5039 1.93506 32.5449 2.16357 32.5449C2.35693 32.5449 2.52832 32.5112 2.67773 32.4438C2.82715 32.3765 2.95312 32.2798 3.05566 32.1538C3.1582 32.0278 3.23584 31.8755 3.28857 31.6968C3.34424 31.5181 3.37207 31.3174 3.37207 31.0947C3.37207 30.8926 3.34424 30.7051 3.28857 30.5322C3.23291 30.3594 3.14941 30.2085 3.03809 30.0796C2.92969 29.9507 2.79639 29.8511 2.63818 29.7808C2.47998 29.7075 2.29834 29.6709 2.09326 29.6709C1.8208 29.6709 1.61426 29.7075 1.47363 29.7808C1.33594 29.854 1.19385 29.9536 1.04736 30.0796ZM5.90771 32.1582V32.813C5.90771 33.0796 5.84033 33.3608 5.70557 33.6567C5.5708 33.9556 5.38184 34.2046 5.13867 34.4038L4.67725 34.083C4.771 33.9541 4.8501 33.8223 4.91455 33.6875C4.979 33.5557 5.02734 33.418 5.05957 33.2744C5.09473 33.1338 5.1123 32.9844 5.1123 32.8262V32.1582H5.90771ZM7.66553 32.4438H7.74902C8.21777 32.4438 8.59863 32.3779 8.8916 32.2461C9.18457 32.1143 9.41016 31.937 9.56836 31.7144C9.72656 31.4917 9.83496 31.2412 9.89355 30.9629C9.95215 30.6816 9.98145 30.3931 9.98145 30.0972V29.1172C9.98145 28.8271 9.94775 28.5693 9.88037 28.3438C9.81592 28.1182 9.7251 27.9292 9.60791 27.7769C9.49365 27.6245 9.36328 27.5088 9.2168 27.4297C9.07031 27.3506 8.91504 27.311 8.75098 27.311C8.56348 27.311 8.39502 27.3491 8.24561 27.4253C8.09912 27.4985 7.97461 27.6025 7.87207 27.7373C7.77246 27.8721 7.69629 28.0303 7.64355 28.2119C7.59082 28.3936 7.56445 28.5913 7.56445 28.8052C7.56445 28.9956 7.58789 29.1802 7.63477 29.3589C7.68164 29.5376 7.75342 29.6987 7.8501 29.8423C7.94678 29.9858 8.06689 30.1001 8.21045 30.1851C8.35693 30.2671 8.52832 30.3081 8.72461 30.3081C8.90625 30.3081 9.07617 30.2729 9.23438 30.2026C9.39551 30.1294 9.5376 30.0312 9.66064 29.9082C9.78662 29.7822 9.88623 29.6401 9.95947 29.4819C10.0356 29.3237 10.0796 29.1582 10.0913 28.9854H10.478C10.478 29.2285 10.4297 29.4688 10.333 29.7061C10.2393 29.9404 10.1074 30.1543 9.9375 30.3477C9.76758 30.541 9.56836 30.6963 9.33984 30.8135C9.11133 30.9277 8.8623 30.9849 8.59277 30.9849C8.27637 30.9849 8.00244 30.9233 7.771 30.8003C7.53955 30.6772 7.34912 30.5132 7.19971 30.3081C7.05322 30.103 6.94336 29.8745 6.87012 29.6226C6.7998 29.3677 6.76465 29.1099 6.76465 28.8491C6.76465 28.5444 6.80713 28.2588 6.89209 27.9922C6.97705 27.7256 7.10303 27.4912 7.27002 27.2891C7.43701 27.084 7.64355 26.9243 7.88965 26.8101C8.13867 26.6958 8.42578 26.6387 8.75098 26.6387C9.11719 26.6387 9.4292 26.7119 9.68701 26.8584C9.94482 27.0049 10.1543 27.2012 10.3154 27.4473C10.4795 27.6934 10.5996 27.9702 10.6758 28.2778C10.752 28.5854 10.79 28.9019 10.79 29.2271V29.5215C10.79 29.8525 10.7681 30.1895 10.7241 30.5322C10.6831 30.8721 10.6025 31.1973 10.4824 31.5078C10.3652 31.8184 10.1938 32.0967 9.96826 32.3428C9.74268 32.5859 9.44824 32.7793 9.08496 32.9229C8.72461 33.0635 8.2793 33.1338 7.74902 33.1338H7.66553V32.4438ZM15.936 29.416V30.3916C15.936 30.916 15.8892 31.3584 15.7954 31.7188C15.7017 32.0791 15.5669 32.3691 15.3911 32.5889C15.2153 32.8086 15.0029 32.9683 14.7539 33.0679C14.5078 33.1646 14.2295 33.2129 13.9189 33.2129C13.6729 33.2129 13.4458 33.1821 13.2378 33.1206C13.0298 33.0591 12.8423 32.9609 12.6753 32.8262C12.5112 32.6885 12.3706 32.5098 12.2534 32.29C12.1362 32.0703 12.0469 31.8037 11.9854 31.4902C11.9238 31.1768 11.8931 30.8105 11.8931 30.3916V29.416C11.8931 28.8916 11.9399 28.4521 12.0337 28.0977C12.1304 27.7432 12.2666 27.459 12.4424 27.2451C12.6182 27.0283 12.8291 26.873 13.0752 26.7793C13.3242 26.6855 13.6025 26.6387 13.9102 26.6387C14.1592 26.6387 14.3877 26.6694 14.5957 26.731C14.8066 26.7896 14.9941 26.8848 15.1582 27.0166C15.3223 27.1455 15.4614 27.3184 15.5757 27.5352C15.6929 27.749 15.7822 28.0112 15.8438 28.3218C15.9053 28.6323 15.936 28.9971 15.936 29.416ZM15.1187 30.5234V29.2798C15.1187 28.9927 15.1011 28.7407 15.0659 28.5239C15.0337 28.3042 14.9854 28.1167 14.9209 27.9614C14.8564 27.8062 14.7744 27.6802 14.6748 27.5835C14.5781 27.4868 14.4653 27.4165 14.3364 27.3726C14.2104 27.3257 14.0684 27.3022 13.9102 27.3022C13.7168 27.3022 13.5454 27.3389 13.396 27.4121C13.2466 27.4824 13.1206 27.5952 13.0181 27.7505C12.9185 27.9058 12.8423 28.1094 12.7896 28.3613C12.7368 28.6133 12.7104 28.9194 12.7104 29.2798V30.5234C12.7104 30.8105 12.7266 31.064 12.7588 31.2837C12.7939 31.5034 12.8452 31.6938 12.9126 31.855C12.98 32.0132 13.062 32.1436 13.1587 32.2461C13.2554 32.3486 13.3667 32.4248 13.4927 32.4746C13.6216 32.5215 13.7637 32.5449 13.9189 32.5449C14.1182 32.5449 14.2925 32.5068 14.4419 32.4307C14.5913 32.3545 14.7158 32.2358 14.8154 32.0747C14.918 31.9106 14.9941 31.7012 15.0439 31.4463C15.0938 31.1885 15.1187 30.8809 15.1187 30.5234ZM20.9985 29.416V30.3916C20.9985 30.916 20.9517 31.3584 20.8579 31.7188C20.7642 32.0791 20.6294 32.3691 20.4536 32.5889C20.2778 32.8086 20.0654 32.9683 19.8164 33.0679C19.5703 33.1646 19.292 33.2129 18.9814 33.2129C18.7354 33.2129 18.5083 33.1821 18.3003 33.1206C18.0923 33.0591 17.9048 32.9609 17.7378 32.8262C17.5737 32.6885 17.4331 32.5098 17.3159 32.29C17.1987 32.0703 17.1094 31.8037 17.0479 31.4902C16.9863 31.1768 16.9556 30.8105 16.9556 30.3916V29.416C16.9556 28.8916 17.0024 28.4521 17.0962 28.0977C17.1929 27.7432 17.3291 27.459 17.5049 27.2451C17.6807 27.0283 17.8916 26.873 18.1377 26.7793C18.3867 26.6855 18.665 26.6387 18.9727 26.6387C19.2217 26.6387 19.4502 26.6694 19.6582 26.731C19.8691 26.7896 20.0566 26.8848 20.2207 27.0166C20.3848 27.1455 20.5239 27.3184 20.6382 27.5352C20.7554 27.749 20.8447 28.0112 20.9062 28.3218C20.9678 28.6323 20.9985 28.9971 20.9985 29.416ZM20.1812 30.5234V29.2798C20.1812 28.9927 20.1636 28.7407 20.1284 28.5239C20.0962 28.3042 20.0479 28.1167 19.9834 27.9614C19.9189 27.8062 19.8369 27.6802 19.7373 27.5835C19.6406 27.4868 19.5278 27.4165 19.3989 27.3726C19.2729 27.3257 19.1309 27.3022 18.9727 27.3022C18.7793 27.3022 18.6079 27.3389 18.4585 27.4121C18.3091 27.4824 18.1831 27.5952 18.0806 27.7505C17.981 27.9058 17.9048 28.1094 17.8521 28.3613C17.7993 28.6133 17.7729 28.9194 17.7729 29.2798V30.5234C17.7729 30.8105 17.7891 31.064 17.8213 31.2837C17.8564 31.5034 17.9077 31.6938 17.9751 31.855C18.0425 32.0132 18.1245 32.1436 18.2212 32.2461C18.3179 32.3486 18.4292 32.4248 18.5552 32.4746C18.6841 32.5215 18.8262 32.5449 18.9814 32.5449C19.1807 32.5449 19.355 32.5068 19.5044 32.4307C19.6538 32.3545 19.7783 32.2358 19.8779 32.0747C19.9805 31.9106 20.0566 31.7012 20.1064 31.4463C20.1562 31.1885 20.1812 30.8809 20.1812 30.5234Z" fill="white"/>
<line x1="30.5" y1="29.125" x2="220.5" y2="29.125" stroke="white" stroke-opacity="0.4" stroke-miterlimit="16" stroke-linecap="round" stroke-linejoin="round" stroke-dasharray="0.1 3"/>
<path opacity="0.8" d="M1.04736 55.8296L0.396973 55.6626L0.717773 52.4766H4.00049V53.228H1.40771L1.21436 54.9683C1.33154 54.9009 1.47949 54.8379 1.6582 54.7793C1.83984 54.7207 2.04785 54.6914 2.28223 54.6914C2.57812 54.6914 2.84326 54.7427 3.07764 54.8452C3.31201 54.9448 3.51123 55.0884 3.67529 55.2759C3.84229 55.4634 3.96973 55.689 4.05762 55.9526C4.14551 56.2163 4.18945 56.5107 4.18945 56.8359C4.18945 57.1436 4.14697 57.4263 4.06201 57.6841C3.97998 57.9419 3.85547 58.1675 3.68848 58.3608C3.52148 58.5513 3.31055 58.6992 3.05566 58.8047C2.80371 58.9102 2.50635 58.9629 2.16357 58.9629C1.90576 58.9629 1.66113 58.9277 1.42969 58.8574C1.20117 58.7842 0.996094 58.6743 0.814453 58.5278C0.635742 58.3784 0.489258 58.1938 0.375 57.9741C0.263672 57.7515 0.193359 57.4907 0.164062 57.1919H0.9375C0.972656 57.4321 1.04297 57.6343 1.14844 57.7983C1.25391 57.9624 1.3916 58.0869 1.56152 58.1719C1.73438 58.2539 1.93506 58.2949 2.16357 58.2949C2.35693 58.2949 2.52832 58.2612 2.67773 58.1938C2.82715 58.1265 2.95312 58.0298 3.05566 57.9038C3.1582 57.7778 3.23584 57.6255 3.28857 57.4468C3.34424 57.2681 3.37207 57.0674 3.37207 56.8447C3.37207 56.6426 3.34424 56.4551 3.28857 56.2822C3.23291 56.1094 3.14941 55.9585 3.03809 55.8296C2.92969 55.7007 2.79639 55.6011 2.63818 55.5308C2.47998 55.4575 2.29834 55.4209 2.09326 55.4209C1.8208 55.4209 1.61426 55.4575 1.47363 55.5308C1.33594 55.604 1.19385 55.7036 1.04736 55.8296ZM5.90771 57.9082V58.563C5.90771 58.8296 5.84033 59.1108 5.70557 59.4067C5.5708 59.7056 5.38184 59.9546 5.13867 60.1538L4.67725 59.833C4.771 59.7041 4.8501 59.5723 4.91455 59.4375C4.979 59.3057 5.02734 59.168 5.05957 59.0244C5.09473 58.8838 5.1123 58.7344 5.1123 58.5762V57.9082H5.90771ZM10.8911 57.1436C10.8911 57.5332 10.8003 57.8643 10.6187 58.1367C10.4399 58.4062 10.1968 58.6113 9.88916 58.752C9.58447 58.8926 9.24023 58.9629 8.85645 58.9629C8.47266 58.9629 8.12695 58.8926 7.81934 58.752C7.51172 58.6113 7.26855 58.4062 7.08984 58.1367C6.91113 57.8643 6.82178 57.5332 6.82178 57.1436C6.82178 56.8887 6.87012 56.6558 6.9668 56.4448C7.06641 56.231 7.20557 56.0449 7.38428 55.8867C7.56592 55.7285 7.77979 55.6069 8.02588 55.522C8.2749 55.4341 8.54883 55.3901 8.84766 55.3901C9.24023 55.3901 9.59033 55.4663 9.89795 55.6187C10.2056 55.7681 10.4473 55.9746 10.623 56.2383C10.8018 56.502 10.8911 56.8037 10.8911 57.1436ZM10.0737 57.126C10.0737 56.8887 10.0225 56.6792 9.91992 56.4976C9.81738 56.313 9.67383 56.1694 9.48926 56.0669C9.30469 55.9644 9.09082 55.9131 8.84766 55.9131C8.59863 55.9131 8.3833 55.9644 8.20166 56.0669C8.02295 56.1694 7.88379 56.313 7.78418 56.4976C7.68457 56.6792 7.63477 56.8887 7.63477 57.126C7.63477 57.3721 7.68311 57.583 7.77979 57.7588C7.87939 57.9316 8.02002 58.0649 8.20166 58.1587C8.38623 58.2495 8.60449 58.2949 8.85645 58.2949C9.1084 58.2949 9.3252 58.2495 9.50684 58.1587C9.68848 58.0649 9.82764 57.9316 9.92432 57.7588C10.0239 57.583 10.0737 57.3721 10.0737 57.126ZM10.7417 54.1421C10.7417 54.4526 10.6597 54.7324 10.4956 54.9814C10.3315 55.2305 10.1074 55.4268 9.82324 55.5703C9.53906 55.7139 9.2168 55.7856 8.85645 55.7856C8.49023 55.7856 8.16357 55.7139 7.87646 55.5703C7.59229 55.4268 7.36963 55.2305 7.2085 54.9814C7.04736 54.7324 6.9668 54.4526 6.9668 54.1421C6.9668 53.77 7.04736 53.4536 7.2085 53.1929C7.37256 52.9321 7.59668 52.7329 7.88086 52.5952C8.16504 52.4575 8.48877 52.3887 8.85205 52.3887C9.21826 52.3887 9.54346 52.4575 9.82764 52.5952C10.1118 52.7329 10.3345 52.9321 10.4956 53.1929C10.6597 53.4536 10.7417 53.77 10.7417 54.1421ZM9.92871 54.1553C9.92871 53.9414 9.8833 53.7524 9.79248 53.5884C9.70166 53.4243 9.57568 53.2954 9.41455 53.2017C9.25342 53.105 9.06592 53.0566 8.85205 53.0566C8.63818 53.0566 8.45068 53.1021 8.28955 53.1929C8.13135 53.2808 8.00684 53.4067 7.91602 53.5708C7.82812 53.7349 7.78418 53.9297 7.78418 54.1553C7.78418 54.375 7.82812 54.5669 7.91602 54.731C8.00684 54.895 8.13281 55.0225 8.29395 55.1133C8.45508 55.2041 8.64258 55.2495 8.85645 55.2495C9.07031 55.2495 9.25635 55.2041 9.41455 55.1133C9.57568 55.0225 9.70166 54.895 9.79248 54.731C9.8833 54.5669 9.92871 54.375 9.92871 54.1553ZM12.9478 55.8296L12.2974 55.6626L12.6182 52.4766H15.9009V53.228H13.3081L13.1147 54.9683C13.2319 54.9009 13.3799 54.8379 13.5586 54.7793C13.7402 54.7207 13.9482 54.6914 14.1826 54.6914C14.4785 54.6914 14.7437 54.7427 14.978 54.8452C15.2124 54.9448 15.4116 55.0884 15.5757 55.2759C15.7427 55.4634 15.8701 55.689 15.958 55.9526C16.0459 56.2163 16.0898 56.5107 16.0898 56.8359C16.0898 57.1436 16.0474 57.4263 15.9624 57.6841C15.8804 57.9419 15.7559 58.1675 15.5889 58.3608C15.4219 58.5513 15.2109 58.6992 14.9561 58.8047C14.7041 58.9102 14.4067 58.9629 14.064 58.9629C13.8062 58.9629 13.5615 58.9277 13.3301 58.8574C13.1016 58.7842 12.8965 58.6743 12.7148 58.5278C12.5361 58.3784 12.3896 58.1938 12.2754 57.9741C12.1641 57.7515 12.0938 57.4907 12.0645 57.1919H12.8379C12.873 57.4321 12.9434 57.6343 13.0488 57.7983C13.1543 57.9624 13.292 58.0869 13.4619 58.1719C13.6348 58.2539 13.8354 58.2949 14.064 58.2949C14.2573 58.2949 14.4287 58.2612 14.5781 58.1938C14.7275 58.1265 14.8535 58.0298 14.9561 57.9038C15.0586 57.7778 15.1362 57.6255 15.189 57.4468C15.2446 57.2681 15.2725 57.0674 15.2725 56.8447C15.2725 56.6426 15.2446 56.4551 15.189 56.2822C15.1333 56.1094 15.0498 55.9585 14.9385 55.8296C14.8301 55.7007 14.6968 55.6011 14.5386 55.5308C14.3804 55.4575 14.1987 55.4209 13.9937 55.4209C13.7212 55.4209 13.5146 55.4575 13.374 55.5308C13.2363 55.604 13.0942 55.7036 12.9478 55.8296ZM20.9985 55.166V56.1416C20.9985 56.666 20.9517 57.1084 20.8579 57.4688C20.7642 57.8291 20.6294 58.1191 20.4536 58.3389C20.2778 58.5586 20.0654 58.7183 19.8164 58.8179C19.5703 58.9146 19.292 58.9629 18.9814 58.9629C18.7354 58.9629 18.5083 58.9321 18.3003 58.8706C18.0923 58.8091 17.9048 58.7109 17.7378 58.5762C17.5737 58.4385 17.4331 58.2598 17.3159 58.04C17.1987 57.8203 17.1094 57.5537 17.0479 57.2402C16.9863 56.9268 16.9556 56.5605 16.9556 56.1416V55.166C16.9556 54.6416 17.0024 54.2021 17.0962 53.8477C17.1929 53.4932 17.3291 53.209 17.5049 52.9951C17.6807 52.7783 17.8916 52.623 18.1377 52.5293C18.3867 52.4355 18.665 52.3887 18.9727 52.3887C19.2217 52.3887 19.4502 52.4194 19.6582 52.481C19.8691 52.5396 20.0566 52.6348 20.2207 52.7666C20.3848 52.8955 20.5239 53.0684 20.6382 53.2852C20.7554 53.499 20.8447 53.7612 20.9062 54.0718C20.9678 54.3823 20.9985 54.7471 20.9985 55.166ZM20.1812 56.2734V55.0298C20.1812 54.7427 20.1636 54.4907 20.1284 54.2739C20.0962 54.0542 20.0479 53.8667 19.9834 53.7114C19.9189 53.5562 19.8369 53.4302 19.7373 53.3335C19.6406 53.2368 19.5278 53.1665 19.3989 53.1226C19.2729 53.0757 19.1309 53.0522 18.9727 53.0522C18.7793 53.0522 18.6079 53.0889 18.4585 53.1621C18.3091 53.2324 18.1831 53.3452 18.0806 53.5005C17.981 53.6558 17.9048 53.8594 17.8521 54.1113C17.7993 54.3633 17.7729 54.6694 17.7729 55.0298V56.2734C17.7729 56.5605 17.7891 56.814 17.8213 57.0337C17.8564 57.2534 17.9077 57.4438 17.9751 57.605C18.0425 57.7632 18.1245 57.8936 18.2212 57.9961C18.3179 58.0986 18.4292 58.1748 18.5552 58.2246C18.6841 58.2715 18.8262 58.2949 18.9814 58.2949C19.1807 58.2949 19.355 58.2568 19.5044 58.1807C19.6538 58.1045 19.7783 57.9858 19.8779 57.8247C19.9805 57.6606 20.0566 57.4512 20.1064 57.1963C20.1562 56.9385 20.1812 56.6309 20.1812 56.2734Z" fill="white"/>
<line x1="30.5" y1="54.875" x2="220.5" y2="54.875" stroke="white" stroke-opacity="0.4" stroke-miterlimit="16" stroke-linecap="round" stroke-linejoin="round" stroke-dasharray="0.1 3"/>
<path opacity="0.8" d="M1.04736 82.0796L0.396973 81.9126L0.717773 78.7266H4.00049V79.478H1.40771L1.21436 81.2183C1.33154 81.1509 1.47949 81.0879 1.6582 81.0293C1.83984 80.9707 2.04785 80.9414 2.28223 80.9414C2.57812 80.9414 2.84326 80.9927 3.07764 81.0952C3.31201 81.1948 3.51123 81.3384 3.67529 81.5259C3.84229 81.7134 3.96973 81.939 4.05762 82.2026C4.14551 82.4663 4.18945 82.7607 4.18945 83.0859C4.18945 83.3936 4.14697 83.6763 4.06201 83.9341C3.97998 84.1919 3.85547 84.4175 3.68848 84.6108C3.52148 84.8013 3.31055 84.9492 3.05566 85.0547C2.80371 85.1602 2.50635 85.2129 2.16357 85.2129C1.90576 85.2129 1.66113 85.1777 1.42969 85.1074C1.20117 85.0342 0.996094 84.9243 0.814453 84.7778C0.635742 84.6284 0.489258 84.4438 0.375 84.2241C0.263672 84.0015 0.193359 83.7407 0.164062 83.4419H0.9375C0.972656 83.6821 1.04297 83.8843 1.14844 84.0483C1.25391 84.2124 1.3916 84.3369 1.56152 84.4219C1.73438 84.5039 1.93506 84.5449 2.16357 84.5449C2.35693 84.5449 2.52832 84.5112 2.67773 84.4438C2.82715 84.3765 2.95312 84.2798 3.05566 84.1538C3.1582 84.0278 3.23584 83.8755 3.28857 83.6968C3.34424 83.5181 3.37207 83.3174 3.37207 83.0947C3.37207 82.8926 3.34424 82.7051 3.28857 82.5322C3.23291 82.3594 3.14941 82.2085 3.03809 82.0796C2.92969 81.9507 2.79639 81.8511 2.63818 81.7808C2.47998 81.7075 2.29834 81.6709 2.09326 81.6709C1.8208 81.6709 1.61426 81.7075 1.47363 81.7808C1.33594 81.854 1.19385 81.9536 1.04736 82.0796ZM5.90771 84.1582V84.813C5.90771 85.0796 5.84033 85.3608 5.70557 85.6567C5.5708 85.9556 5.38184 86.2046 5.13867 86.4038L4.67725 86.083C4.771 85.9541 4.8501 85.8223 4.91455 85.6875C4.979 85.5557 5.02734 85.418 5.05957 85.2744C5.09473 85.1338 5.1123 84.9844 5.1123 84.8262V84.1582H5.90771ZM10.8911 83.3936C10.8911 83.7832 10.8003 84.1143 10.6187 84.3867C10.4399 84.6562 10.1968 84.8613 9.88916 85.002C9.58447 85.1426 9.24023 85.2129 8.85645 85.2129C8.47266 85.2129 8.12695 85.1426 7.81934 85.002C7.51172 84.8613 7.26855 84.6562 7.08984 84.3867C6.91113 84.1143 6.82178 83.7832 6.82178 83.3936C6.82178 83.1387 6.87012 82.9058 6.9668 82.6948C7.06641 82.481 7.20557 82.2949 7.38428 82.1367C7.56592 81.9785 7.77979 81.8569 8.02588 81.772C8.2749 81.6841 8.54883 81.6401 8.84766 81.6401C9.24023 81.6401 9.59033 81.7163 9.89795 81.8687C10.2056 82.0181 10.4473 82.2246 10.623 82.4883C10.8018 82.752 10.8911 83.0537 10.8911 83.3936ZM10.0737 83.376C10.0737 83.1387 10.0225 82.9292 9.91992 82.7476C9.81738 82.563 9.67383 82.4194 9.48926 82.3169C9.30469 82.2144 9.09082 82.1631 8.84766 82.1631C8.59863 82.1631 8.3833 82.2144 8.20166 82.3169C8.02295 82.4194 7.88379 82.563 7.78418 82.7476C7.68457 82.9292 7.63477 83.1387 7.63477 83.376C7.63477 83.6221 7.68311 83.833 7.77979 84.0088C7.87939 84.1816 8.02002 84.3149 8.20166 84.4087C8.38623 84.4995 8.60449 84.5449 8.85645 84.5449C9.1084 84.5449 9.3252 84.4995 9.50684 84.4087C9.68848 84.3149 9.82764 84.1816 9.92432 84.0088C10.0239 83.833 10.0737 83.6221 10.0737 83.376ZM10.7417 80.3921C10.7417 80.7026 10.6597 80.9824 10.4956 81.2314C10.3315 81.4805 10.1074 81.6768 9.82324 81.8203C9.53906 81.9639 9.2168 82.0356 8.85645 82.0356C8.49023 82.0356 8.16357 81.9639 7.87646 81.8203C7.59229 81.6768 7.36963 81.4805 7.2085 81.2314C7.04736 80.9824 6.9668 80.7026 6.9668 80.3921C6.9668 80.02 7.04736 79.7036 7.2085 79.4429C7.37256 79.1821 7.59668 78.9829 7.88086 78.8452C8.16504 78.7075 8.48877 78.6387 8.85205 78.6387C9.21826 78.6387 9.54346 78.7075 9.82764 78.8452C10.1118 78.9829 10.3345 79.1821 10.4956 79.4429C10.6597 79.7036 10.7417 80.02 10.7417 80.3921ZM9.92871 80.4053C9.92871 80.1914 9.8833 80.0024 9.79248 79.8384C9.70166 79.6743 9.57568 79.5454 9.41455 79.4517C9.25342 79.355 9.06592 79.3066 8.85205 79.3066C8.63818 79.3066 8.45068 79.3521 8.28955 79.4429C8.13135 79.5308 8.00684 79.6567 7.91602 79.8208C7.82812 79.9849 7.78418 80.1797 7.78418 80.4053C7.78418 80.625 7.82812 80.8169 7.91602 80.981C8.00684 81.145 8.13281 81.2725 8.29395 81.3633C8.45508 81.4541 8.64258 81.4995 8.85645 81.4995C9.07031 81.4995 9.25635 81.4541 9.41455 81.3633C9.57568 81.2725 9.70166 81.145 9.79248 80.981C9.8833 80.8169 9.92871 80.625 9.92871 80.4053ZM15.936 81.416V82.3916C15.936 82.916 15.8892 83.3584 15.7954 83.7188C15.7017 84.0791 15.5669 84.3691 15.3911 84.5889C15.2153 84.8086 15.0029 84.9683 14.7539 85.0679C14.5078 85.1646 14.2295 85.2129 13.9189 85.2129C13.6729 85.2129 13.4458 85.1821 13.2378 85.1206C13.0298 85.0591 12.8423 84.9609 12.6753 84.8262C12.5112 84.6885 12.3706 84.5098 12.2534 84.29C12.1362 84.0703 12.0469 83.8037 11.9854 83.4902C11.9238 83.1768 11.8931 82.8105 11.8931 82.3916V81.416C11.8931 80.8916 11.9399 80.4521 12.0337 80.0977C12.1304 79.7432 12.2666 79.459 12.4424 79.2451C12.6182 79.0283 12.8291 78.873 13.0752 78.7793C13.3242 78.6855 13.6025 78.6387 13.9102 78.6387C14.1592 78.6387 14.3877 78.6694 14.5957 78.731C14.8066 78.7896 14.9941 78.8848 15.1582 79.0166C15.3223 79.1455 15.4614 79.3184 15.5757 79.5352C15.6929 79.749 15.7822 80.0112 15.8438 80.3218C15.9053 80.6323 15.936 80.9971 15.936 81.416ZM15.1187 82.5234V81.2798C15.1187 80.9927 15.1011 80.7407 15.0659 80.5239C15.0337 80.3042 14.9854 80.1167 14.9209 79.9614C14.8564 79.8062 14.7744 79.6802 14.6748 79.5835C14.5781 79.4868 14.4653 79.4165 14.3364 79.3726C14.2104 79.3257 14.0684 79.3022 13.9102 79.3022C13.7168 79.3022 13.5454 79.3389 13.396 79.4121C13.2466 79.4824 13.1206 79.5952 13.0181 79.7505C12.9185 79.9058 12.8423 80.1094 12.7896 80.3613C12.7368 80.6133 12.7104 80.9194 12.7104 81.2798V82.5234C12.7104 82.8105 12.7266 83.064 12.7588 83.2837C12.7939 83.5034 12.8452 83.6938 12.9126 83.855C12.98 84.0132 13.062 84.1436 13.1587 84.2461C13.2554 84.3486 13.3667 84.4248 13.4927 84.4746C13.6216 84.5215 13.7637 84.5449 13.9189 84.5449C14.1182 84.5449 14.2925 84.5068 14.4419 84.4307C14.5913 84.3545 14.7158 84.2358 14.8154 84.0747C14.918 83.9106 14.9941 83.7012 15.0439 83.4463C15.0938 83.1885 15.1187 82.8809 15.1187 82.5234ZM20.9985 81.416V82.3916C20.9985 82.916 20.9517 83.3584 20.8579 83.7188C20.7642 84.0791 20.6294 84.3691 20.4536 84.5889C20.2778 84.8086 20.0654 84.9683 19.8164 85.0679C19.5703 85.1646 19.292 85.2129 18.9814 85.2129C18.7354 85.2129 18.5083 85.1821 18.3003 85.1206C18.0923 85.0591 17.9048 84.9609 17.7378 84.8262C17.5737 84.6885 17.4331 84.5098 17.3159 84.29C17.1987 84.0703 17.1094 83.8037 17.0479 83.4902C16.9863 83.1768 16.9556 82.8105 16.9556 82.3916V81.416C16.9556 80.8916 17.0024 80.4521 17.0962 80.0977C17.1929 79.7432 17.3291 79.459 17.5049 79.2451C17.6807 79.0283 17.8916 78.873 18.1377 78.7793C18.3867 78.6855 18.665 78.6387 18.9727 78.6387C19.2217 78.6387 19.4502 78.6694 19.6582 78.731C19.8691 78.7896 20.0566 78.8848 20.2207 79.0166C20.3848 79.1455 20.5239 79.3184 20.6382 79.5352C20.7554 79.749 20.8447 80.0112 20.9062 80.3218C20.9678 80.6323 20.9985 80.9971 20.9985 81.416ZM20.1812 82.5234V81.2798C20.1812 80.9927 20.1636 80.7407 20.1284 80.5239C20.0962 80.3042 20.0479 80.1167 19.9834 79.9614C19.9189 79.8062 19.8369 79.6802 19.7373 79.5835C19.6406 79.4868 19.5278 79.4165 19.3989 79.3726C19.2729 79.3257 19.1309 79.3022 18.9727 79.3022C18.7793 79.3022 18.6079 79.3389 18.4585 79.4121C18.3091 79.4824 18.1831 79.5952 18.0806 79.7505C17.981 79.9058 17.9048 80.1094 17.8521 80.3613C17.7993 80.6133 17.7729 80.9194 17.7729 81.2798V82.5234C17.7729 82.8105 17.7891 83.064 17.8213 83.2837C17.8564 83.5034 17.9077 83.6938 17.9751 83.855C18.0425 84.0132 18.1245 84.1436 18.2212 84.2461C18.3179 84.3486 18.4292 84.4248 18.5552 84.4746C18.6841 84.5215 18.8262 84.5449 18.9814 84.5449C19.1807 84.5449 19.355 84.5068 19.5044 84.4307C19.6538 84.3545 19.7783 84.2358 19.8779 84.0747C19.9805 83.9106 20.0566 83.7012 20.1064 83.4463C20.1562 83.1885 20.1812 82.8809 20.1812 82.5234Z" fill="white"/>
<line x1="30.5" y1="81.125" x2="220.5" y2="81.125" stroke="white" stroke-opacity="0.4" stroke-miterlimit="16" stroke-linecap="round" stroke-linejoin="round" stroke-dasharray="0.1 3"/>
<rect width="191" height="1" transform="matrix(1 0 0 -1 30 109)" fill="white" fill-opacity="0.15"/>
</g>
<defs>
<linearGradient id="paint0_linear_37265_57567" x1="31" y1="96" x2="31" y2="107" gradientUnits="userSpaceOnUse">
<stop stop-color="white"/>
<stop offset="0.0001" stop-color="#878787"/>
<stop offset="1" stop-color="#575757" stop-opacity="0"/>
</linearGradient>
<linearGradient id="paint1_linear_37265_57567" x1="34" y1="96" x2="34" y2="107" gradientUnits="userSpaceOnUse">
<stop stop-color="white"/>
<stop offset="0.0001" stop-color="#878787"/>
<stop offset="1" stop-color="#575757" stop-opacity="0"/>
</linearGradient>
<linearGradient id="paint2_linear_37265_57567" x1="37" y1="93" x2="37" y2="107" gradientUnits="userSpaceOnUse">
<stop stop-color="white"/>
<stop offset="0.0001" stop-color="#878787"/>
<stop offset="1" stop-color="#575757" stop-opacity="0"/>
</linearGradient>
<linearGradient id="paint3_linear_37265_57567" x1="40" y1="93" x2="40" y2="107" gradientUnits="userSpaceOnUse">
<stop stop-color="white"/>
<stop offset="0.0001" stop-color="#878787"/>
<stop offset="1" stop-color="#575757" stop-opacity="0"/>
</linearGradient>
<linearGradient id="paint4_linear_37265_57567" x1="43" y1="91" x2="43" y2="107" gradientUnits="userSpaceOnUse">
<stop stop-color="white"/>
<stop offset="0.0001" stop-color="#878787"/>
<stop offset="1" stop-color="#575757" stop-opacity="0"/>
</linearGradient>
<linearGradient id="paint5_linear_37265_57567" x1="46" y1="91" x2="46" y2="107" gradientUnits="userSpaceOnUse">
<stop stop-color="white"/>
<stop offset="0.0001" stop-color="#878787"/>
<stop offset="1" stop-color="#575757" stop-opacity="0"/>
</linearGradient>
<linearGradient id="paint6_linear_37265_57567" x1="49" y1="91" x2="49" y2="107" gradientUnits="userSpaceOnUse">
<stop stop-color="white"/>
<stop offset="0.0001" stop-color="#878787"/>
<stop offset="1" stop-color="#575757" stop-opacity="0"/>
</linearGradient>
<linearGradient id="paint7_linear_37265_57567" x1="52" y1="91" x2="52" y2="107" gradientUnits="userSpaceOnUse">
<stop stop-color="white"/>
<stop offset="0.0001" stop-color="#878787"/>
<stop offset="1" stop-color="#575757" stop-opacity="0"/>
</linearGradient>
<linearGradient id="paint8_linear_37265_57567" x1="55" y1="93" x2="55" y2="107" gradientUnits="userSpaceOnUse">
<stop stop-color="white"/>
<stop offset="0.0001" stop-color="#878787"/>
<stop offset="1" stop-color="#575757" stop-opacity="0"/>
</linearGradient>
<linearGradient id="paint9_linear_37265_57567" x1="58" y1="93" x2="58" y2="107" gradientUnits="userSpaceOnUse">
<stop stop-color="white"/>
<stop offset="0.0001" stop-color="#878787"/>
<stop offset="1" stop-color="#575757" stop-opacity="0"/>
</linearGradient>
<linearGradient id="paint10_linear_37265_57567" x1="61" y1="96" x2="61" y2="107" gradientUnits="userSpaceOnUse">
<stop stop-color="white"/>
<stop offset="0.0001" stop-color="#878787"/>
<stop offset="1" stop-color="#575757" stop-opacity="0"/>
</linearGradient>
<linearGradient id="paint11_linear_37265_57567" x1="64" y1="96" x2="64" y2="107" gradientUnits="userSpaceOnUse">
<stop stop-color="white"/>
<stop offset="0.0001" stop-color="#878787"/>
<stop offset="1" stop-color="#575757" stop-opacity="0"/>
</linearGradient>
<linearGradient id="paint12_linear_37265_57567" x1="67" y1="98" x2="67" y2="107" gradientUnits="userSpaceOnUse">
<stop stop-color="white"/>
<stop offset="0.0001" stop-color="#878787"/>
<stop offset="1" stop-color="#575757" stop-opacity="0"/>
</linearGradient>
<linearGradient id="paint13_linear_37265_57567" x1="70" y1="98" x2="70" y2="107" gradientUnits="userSpaceOnUse">
<stop stop-color="white"/>
<stop offset="0.0001" stop-color="#878787"/>
<stop offset="1" stop-color="#575757" stop-opacity="0"/>
</linearGradient>
<linearGradient id="paint14_linear_37265_57567" x1="73" y1="99" x2="73" y2="107" gradientUnits="userSpaceOnUse">
<stop stop-color="white"/>
<stop offset="0.0001" stop-color="#878787"/>
<stop offset="1" stop-color="#575757" stop-opacity="0"/>
</linearGradient>
<linearGradient id="paint15_linear_37265_57567" x1="76" y1="99" x2="76" y2="107" gradientUnits="userSpaceOnUse">
<stop stop-color="white"/>
<stop offset="0.0001" stop-color="#878787"/>
<stop offset="1" stop-color="#575757" stop-opacity="0"/>
</linearGradient>
<linearGradient id="paint16_linear_37265_57567" x1="79" y1="99" x2="79" y2="107" gradientUnits="userSpaceOnUse">
<stop stop-color="white"/>
<stop offset="0.0001" stop-color="#878787"/>
<stop offset="1" stop-color="#575757" stop-opacity="0"/>
</linearGradient>
<linearGradient id="paint17_linear_37265_57567" x1="82" y1="99" x2="82" y2="107" gradientUnits="userSpaceOnUse">
<stop stop-color="white"/>
<stop offset="0.0001" stop-color="#878787"/>
<stop offset="1" stop-color="#575757" stop-opacity="0"/>
</linearGradient>
<linearGradient id="paint18_linear_37265_57567" x1="85" y1="99" x2="85" y2="107" gradientUnits="userSpaceOnUse">
<stop stop-color="white"/>
<stop offset="0.0001" stop-color="#878787"/>
<stop offset="1" stop-color="#575757" stop-opacity="0"/>
</linearGradient>
<linearGradient id="paint19_linear_37265_57567" x1="88" y1="99" x2="88" y2="107" gradientUnits="userSpaceOnUse">
<stop stop-color="white"/>
<stop offset="0.0001" stop-color="#878787"/>
<stop offset="1" stop-color="#575757" stop-opacity="0"/>
</linearGradient>
<linearGradient id="paint20_linear_37265_57567" x1="91" y1="98" x2="91" y2="107" gradientUnits="userSpaceOnUse">
<stop stop-color="white"/>
<stop offset="0.0001" stop-color="#878787"/>
<stop offset="1" stop-color="#575757" stop-opacity="0"/>
</linearGradient>
<linearGradient id="paint21_linear_37265_57567" x1="94" y1="98" x2="94" y2="107" gradientUnits="userSpaceOnUse">
<stop stop-color="white"/>
<stop offset="0.0001" stop-color="#878787"/>
<stop offset="1" stop-color="#575757" stop-opacity="0"/>
</linearGradient>
<linearGradient id="paint22_linear_37265_57567" x1="97" y1="97" x2="97" y2="107" gradientUnits="userSpaceOnUse">
<stop stop-color="white"/>
<stop offset="0.0001" stop-color="#878787"/>
<stop offset="1" stop-color="#575757" stop-opacity="0"/>
</linearGradient>
<linearGradient id="paint23_linear_37265_57567" x1="100" y1="97" x2="100" y2="107" gradientUnits="userSpaceOnUse">
<stop stop-color="white"/>
<stop offset="0.0001" stop-color="#878787"/>
<stop offset="1" stop-color="#575757" stop-opacity="0"/>
</linearGradient>
<linearGradient id="paint24_linear_37265_57567" x1="103" y1="96" x2="103" y2="107" gradientUnits="userSpaceOnUse">
<stop stop-color="white"/>
<stop offset="0.0001" stop-color="#878787"/>
<stop offset="1" stop-color="#575757" stop-opacity="0"/>
</linearGradient>
<linearGradient id="paint25_linear_37265_57567" x1="106" y1="96" x2="106" y2="107" gradientUnits="userSpaceOnUse">
<stop stop-color="white"/>
<stop offset="0.0001" stop-color="#878787"/>
<stop offset="1" stop-color="#575757" stop-opacity="0"/>
</linearGradient>
<linearGradient id="paint26_linear_37265_57567" x1="109" y1="95" x2="109" y2="107" gradientUnits="userSpaceOnUse">
<stop stop-color="white"/>
<stop offset="0.0001" stop-color="#878787"/>
<stop offset="1" stop-color="#575757" stop-opacity="0"/>
</linearGradient>
<linearGradient id="paint27_linear_37265_57567" x1="112" y1="95" x2="112" y2="107" gradientUnits="userSpaceOnUse">
<stop stop-color="white"/>
<stop offset="0.0001" stop-color="#878787"/>
<stop offset="1" stop-color="#575757" stop-opacity="0"/>
</linearGradient>
<linearGradient id="paint28_linear_37265_57567" x1="115" y1="93" x2="115" y2="107" gradientUnits="userSpaceOnUse">
<stop stop-color="white"/>
<stop offset="0.0001" stop-color="#878787"/>
<stop offset="1" stop-color="#575757" stop-opacity="0"/>
</linearGradient>
<linearGradient id="paint29_linear_37265_57567" x1="118" y1="93" x2="118" y2="107" gradientUnits="userSpaceOnUse">
<stop stop-color="white"/>
<stop offset="0.0001" stop-color="#878787"/>
<stop offset="1" stop-color="#575757" stop-opacity="0"/>
</linearGradient>
<linearGradient id="paint30_linear_37265_57567" x1="121" y1="90" x2="121" y2="107" gradientUnits="userSpaceOnUse">
<stop stop-color="white"/>
<stop offset="0.0001" stop-color="#878787"/>
<stop offset="1" stop-color="#575757" stop-opacity="0"/>
</linearGradient>
<linearGradient id="paint31_linear_37265_57567" x1="124" y1="90" x2="124" y2="107" gradientUnits="userSpaceOnUse">
<stop stop-color="white"/>
<stop offset="0.0001" stop-color="#878787"/>
<stop offset="1" stop-color="#575757" stop-opacity="0"/>
</linearGradient>
<linearGradient id="paint32_linear_37265_57567" x1="127" y1="87" x2="127" y2="107" gradientUnits="userSpaceOnUse">
<stop stop-color="white"/>
<stop offset="0.0001" stop-color="#878787"/>
<stop offset="1" stop-color="#575757" stop-opacity="0"/>
</linearGradient>
<linearGradient id="paint33_linear_37265_57567" x1="130" y1="87" x2="130" y2="107" gradientUnits="userSpaceOnUse">
<stop stop-color="white"/>
<stop offset="0.0001" stop-color="#878787"/>
<stop offset="1" stop-color="#575757" stop-opacity="0"/>
</linearGradient>
<linearGradient id="paint34_linear_37265_57567" x1="133" y1="86" x2="133" y2="107" gradientUnits="userSpaceOnUse">
<stop stop-color="white"/>
<stop offset="0.0001" stop-color="#878787"/>
<stop offset="1" stop-color="#575757" stop-opacity="0"/>
</linearGradient>
<linearGradient id="paint35_linear_37265_57567" x1="136" y1="86" x2="136" y2="107" gradientUnits="userSpaceOnUse">
<stop stop-color="white"/>
<stop offset="0.0001" stop-color="#878787"/>
<stop offset="1" stop-color="#575757" stop-opacity="0"/>
</linearGradient>
<linearGradient id="paint36_linear_37265_57567" x1="139" y1="86" x2="139" y2="107" gradientUnits="userSpaceOnUse">
<stop stop-color="white"/>
<stop offset="0.0001" stop-color="#878787"/>
<stop offset="1" stop-color="#575757" stop-opacity="0"/>
</linearGradient>
<linearGradient id="paint37_linear_37265_57567" x1="142" y1="86" x2="142" y2="107" gradientUnits="userSpaceOnUse">
<stop stop-color="white"/>
<stop offset="0.0001" stop-color="#878787"/>
<stop offset="1" stop-color="#575757" stop-opacity="0"/>
</linearGradient>
<linearGradient id="paint38_linear_37265_57567" x1="145" y1="87" x2="145" y2="107" gradientUnits="userSpaceOnUse">
<stop stop-color="white"/>
<stop offset="0.0001" stop-color="#878787"/>
<stop offset="1" stop-color="#575757" stop-opacity="0"/>
</linearGradient>
<linearGradient id="paint39_linear_37265_57567" x1="148" y1="87" x2="148" y2="107" gradientUnits="userSpaceOnUse">
<stop stop-color="white"/>
<stop offset="0.0001" stop-color="#878787"/>
<stop offset="1" stop-color="#575757" stop-opacity="0"/>
</linearGradient>
<linearGradient id="paint40_linear_37265_57567" x1="151" y1="90" x2="151" y2="107" gradientUnits="userSpaceOnUse">
<stop stop-color="white"/>
<stop offset="0.0001" stop-color="#878787"/>
<stop offset="1" stop-color="#575757" stop-opacity="0"/>
</linearGradient>
<linearGradient id="paint41_linear_37265_57567" x1="154" y1="90" x2="154" y2="107" gradientUnits="userSpaceOnUse">
<stop stop-color="white"/>
<stop offset="0.0001" stop-color="#878787"/>
<stop offset="1" stop-color="#575757" stop-opacity="0"/>
</linearGradient>
<linearGradient id="paint42_linear_37265_57567" x1="157" y1="91" x2="157" y2="107" gradientUnits="userSpaceOnUse">
<stop stop-color="white"/>
<stop offset="0.0001" stop-color="#878787"/>
<stop offset="1" stop-color="#575757" stop-opacity="0"/>
</linearGradient>
<linearGradient id="paint43_linear_37265_57567" x1="160" y1="91" x2="160" y2="107" gradientUnits="userSpaceOnUse">
<stop stop-color="white"/>
<stop offset="0.0001" stop-color="#878787"/>
<stop offset="1" stop-color="#575757" stop-opacity="0"/>
</linearGradient>
<linearGradient id="paint44_linear_37265_57567" x1="163" y1="92" x2="163" y2="107" gradientUnits="userSpaceOnUse">
<stop stop-color="white"/>
<stop offset="0.0001" stop-color="#878787"/>
<stop offset="1" stop-color="#575757" stop-opacity="0"/>
</linearGradient>
<linearGradient id="paint45_linear_37265_57567" x1="166" y1="92" x2="166" y2="107" gradientUnits="userSpaceOnUse">
<stop stop-color="white"/>
<stop offset="0.0001" stop-color="#878787"/>
<stop offset="1" stop-color="#575757" stop-opacity="0"/>
</linearGradient>
<linearGradient id="paint46_linear_37265_57567" x1="169" y1="91" x2="169" y2="107" gradientUnits="userSpaceOnUse">
<stop stop-color="white"/>
<stop offset="0.0001" stop-color="#878787"/>
<stop offset="1" stop-color="#575757" stop-opacity="0"/>
</linearGradient>
<linearGradient id="paint47_linear_37265_57567" x1="172" y1="91" x2="172" y2="107" gradientUnits="userSpaceOnUse">
<stop stop-color="white"/>
<stop offset="0.0001" stop-color="#878787"/>
<stop offset="1" stop-color="#575757" stop-opacity="0"/>
</linearGradient>
<linearGradient id="paint48_linear_37265_57567" x1="175" y1="90" x2="175" y2="107" gradientUnits="userSpaceOnUse">
<stop stop-color="white"/>
<stop offset="0.0001" stop-color="#878787"/>
<stop offset="1" stop-color="#575757" stop-opacity="0"/>
</linearGradient>
<linearGradient id="paint49_linear_37265_57567" x1="178" y1="90" x2="178" y2="107" gradientUnits="userSpaceOnUse">
<stop stop-color="white"/>
<stop offset="0.0001" stop-color="#878787"/>
<stop offset="1" stop-color="#575757" stop-opacity="0"/>
</linearGradient>
<linearGradient id="paint50_linear_37265_57567" x1="181" y1="90" x2="181" y2="107" gradientUnits="userSpaceOnUse">
<stop stop-color="white"/>
<stop offset="0.0001" stop-color="#878787"/>
<stop offset="1" stop-color="#575757" stop-opacity="0"/>
</linearGradient>
<linearGradient id="paint51_linear_37265_57567" x1="184" y1="90" x2="184" y2="107" gradientUnits="userSpaceOnUse">
<stop stop-color="white"/>
<stop offset="0.0001" stop-color="#878787"/>
<stop offset="1" stop-color="#575757" stop-opacity="0"/>
</linearGradient>
<linearGradient id="paint52_linear_37265_57567" x1="187" y1="89" x2="187" y2="107" gradientUnits="userSpaceOnUse">
<stop stop-color="white"/>
<stop offset="0.0001" stop-color="#878787"/>
<stop offset="1" stop-color="#575757" stop-opacity="0"/>
</linearGradient>
<linearGradient id="paint53_linear_37265_57567" x1="190" y1="89" x2="190" y2="107" gradientUnits="userSpaceOnUse">
<stop stop-color="white"/>
<stop offset="0.0001" stop-color="#878787"/>
<stop offset="1" stop-color="#575757" stop-opacity="0"/>
</linearGradient>
<linearGradient id="paint54_linear_37265_57567" x1="193" y1="90" x2="193" y2="107" gradientUnits="userSpaceOnUse">
<stop stop-color="white"/>
<stop offset="0.0001" stop-color="#878787"/>
<stop offset="1" stop-color="#575757" stop-opacity="0"/>
</linearGradient>
<linearGradient id="paint55_linear_37265_57567" x1="196" y1="90" x2="196" y2="107" gradientUnits="userSpaceOnUse">
<stop stop-color="white"/>
<stop offset="0.0001" stop-color="#878787"/>
<stop offset="1" stop-color="#575757" stop-opacity="0"/>
</linearGradient>
<linearGradient id="paint56_linear_37265_57567" x1="199" y1="90" x2="199" y2="107" gradientUnits="userSpaceOnUse">
<stop stop-color="white"/>
<stop offset="0.0001" stop-color="#878787"/>
<stop offset="1" stop-color="#575757" stop-opacity="0"/>
</linearGradient>
<linearGradient id="paint57_linear_37265_57567" x1="202" y1="90" x2="202" y2="107" gradientUnits="userSpaceOnUse">
<stop stop-color="white"/>
<stop offset="0.0001" stop-color="#878787"/>
<stop offset="1" stop-color="#575757" stop-opacity="0"/>
</linearGradient>
<linearGradient id="paint58_linear_37265_57567" x1="205" y1="92" x2="205" y2="107" gradientUnits="userSpaceOnUse">
<stop stop-color="white"/>
<stop offset="0.0001" stop-color="#878787"/>
<stop offset="1" stop-color="#575757" stop-opacity="0"/>
</linearGradient>
<linearGradient id="paint59_linear_37265_57567" x1="208" y1="92" x2="208" y2="107" gradientUnits="userSpaceOnUse">
<stop stop-color="white"/>
<stop offset="0.0001" stop-color="#878787"/>
<stop offset="1" stop-color="#575757" stop-opacity="0"/>
</linearGradient>
<linearGradient id="paint60_linear_37265_57567" x1="211" y1="94" x2="211" y2="107" gradientUnits="userSpaceOnUse">
<stop stop-color="white"/>
<stop offset="0.0001" stop-color="#878787"/>
<stop offset="1" stop-color="#575757" stop-opacity="0"/>
</linearGradient>
<linearGradient id="paint61_linear_37265_57567" x1="214" y1="94" x2="214" y2="107" gradientUnits="userSpaceOnUse">
<stop stop-color="white"/>
<stop offset="0.0001" stop-color="#878787"/>
<stop offset="1" stop-color="#575757" stop-opacity="0"/>
</linearGradient>
<linearGradient id="paint62_linear_37265_57567" x1="217" y1="94" x2="217" y2="107" gradientUnits="userSpaceOnUse">
<stop stop-color="white"/>
<stop offset="0.0001" stop-color="#878787"/>
<stop offset="1" stop-color="#575757" stop-opacity="0"/>
</linearGradient>
<linearGradient id="paint63_linear_37265_57567" x1="220" y1="94" x2="220" y2="107" gradientUnits="userSpaceOnUse">
<stop stop-color="white"/>
<stop offset="0.0001" stop-color="#878787"/>
<stop offset="1" stop-color="#575757" stop-opacity="0"/>
</linearGradient>
<linearGradient id="paint64_linear_37265_57567" x1="125.5" y1="20.918" x2="125.5" y2="88.0001" gradientUnits="userSpaceOnUse">
<stop stop-color="#F53D26"/>
<stop offset="1" stop-color="#F53D26" stop-opacity="0"/>
</linearGradient>
<clipPath id="clip0_37265_57567">
<rect width="221" height="109" fill="white"/>
</clipPath>
</defs>
</svg>
