<svg width="224" height="109" viewBox="0 0 224 109" fill="none" xmlns="http://www.w3.org/2000/svg">
<g clip-path="url(#clip0_37265_57561)">
<g opacity="0.25">
<rect x="33" y="96" width="2" height="11" fill="url(#paint0_linear_37265_57561)"/>
<rect x="36" y="96" width="2" height="11" fill="url(#paint1_linear_37265_57561)"/>
<rect x="39" y="93" width="2" height="14" fill="url(#paint2_linear_37265_57561)"/>
<rect x="42" y="93" width="2" height="14" fill="url(#paint3_linear_37265_57561)"/>
<rect x="45" y="91" width="2" height="16" fill="url(#paint4_linear_37265_57561)"/>
<rect x="48" y="91" width="2" height="16" fill="url(#paint5_linear_37265_57561)"/>
<rect x="51" y="91" width="2" height="16" fill="url(#paint6_linear_37265_57561)"/>
<rect x="54" y="91" width="2" height="16" fill="url(#paint7_linear_37265_57561)"/>
<rect x="57" y="93" width="2" height="14" fill="url(#paint8_linear_37265_57561)"/>
<rect x="60" y="93" width="2" height="14" fill="url(#paint9_linear_37265_57561)"/>
<rect x="63" y="96" width="2" height="11" fill="url(#paint10_linear_37265_57561)"/>
<rect x="66" y="96" width="2" height="11" fill="url(#paint11_linear_37265_57561)"/>
<rect x="69" y="98" width="2" height="9" fill="url(#paint12_linear_37265_57561)"/>
<rect x="72" y="98" width="2" height="9" fill="url(#paint13_linear_37265_57561)"/>
<rect x="75" y="99" width="2" height="8" fill="url(#paint14_linear_37265_57561)"/>
<rect x="78" y="99" width="2" height="8" fill="url(#paint15_linear_37265_57561)"/>
<rect x="81" y="99" width="2" height="8" fill="url(#paint16_linear_37265_57561)"/>
<rect x="84" y="99" width="2" height="8" fill="url(#paint17_linear_37265_57561)"/>
<rect x="87" y="99" width="2" height="8" fill="url(#paint18_linear_37265_57561)"/>
<rect x="90" y="99" width="2" height="8" fill="url(#paint19_linear_37265_57561)"/>
<rect x="93" y="98" width="2" height="9" fill="url(#paint20_linear_37265_57561)"/>
<rect x="96" y="98" width="2" height="9" fill="url(#paint21_linear_37265_57561)"/>
<rect x="99" y="97" width="2" height="10" fill="url(#paint22_linear_37265_57561)"/>
<rect x="102" y="97" width="2" height="10" fill="url(#paint23_linear_37265_57561)"/>
<rect x="105" y="96" width="2" height="11" fill="url(#paint24_linear_37265_57561)"/>
<rect x="108" y="96" width="2" height="11" fill="url(#paint25_linear_37265_57561)"/>
<rect x="111" y="95" width="2" height="12" fill="url(#paint26_linear_37265_57561)"/>
<rect x="114" y="95" width="2" height="12" fill="url(#paint27_linear_37265_57561)"/>
<rect x="117" y="93" width="2" height="14" fill="url(#paint28_linear_37265_57561)"/>
<rect x="120" y="93" width="2" height="14" fill="url(#paint29_linear_37265_57561)"/>
<rect x="123" y="90" width="2" height="17" fill="url(#paint30_linear_37265_57561)"/>
<rect x="126" y="90" width="2" height="17" fill="url(#paint31_linear_37265_57561)"/>
<rect x="129" y="87" width="2" height="20" fill="url(#paint32_linear_37265_57561)"/>
<rect x="132" y="87" width="2" height="20" fill="url(#paint33_linear_37265_57561)"/>
<rect x="135" y="86" width="2" height="21" fill="url(#paint34_linear_37265_57561)"/>
<rect x="138" y="86" width="2" height="21" fill="url(#paint35_linear_37265_57561)"/>
<rect x="141" y="86" width="2" height="21" fill="url(#paint36_linear_37265_57561)"/>
<rect x="144" y="86" width="2" height="21" fill="url(#paint37_linear_37265_57561)"/>
<rect x="147" y="87" width="2" height="20" fill="url(#paint38_linear_37265_57561)"/>
<rect x="150" y="87" width="2" height="20" fill="url(#paint39_linear_37265_57561)"/>
<rect x="153" y="90" width="2" height="17" fill="url(#paint40_linear_37265_57561)"/>
<rect x="156" y="90" width="2" height="17" fill="url(#paint41_linear_37265_57561)"/>
<rect x="159" y="91" width="2" height="16" fill="url(#paint42_linear_37265_57561)"/>
<rect x="162" y="91" width="2" height="16" fill="url(#paint43_linear_37265_57561)"/>
<rect x="165" y="92" width="2" height="15" fill="url(#paint44_linear_37265_57561)"/>
<rect x="168" y="92" width="2" height="15" fill="url(#paint45_linear_37265_57561)"/>
<rect x="171" y="91" width="2" height="16" fill="url(#paint46_linear_37265_57561)"/>
<rect x="174" y="91" width="2" height="16" fill="url(#paint47_linear_37265_57561)"/>
<rect x="177" y="90" width="2" height="17" fill="url(#paint48_linear_37265_57561)"/>
<rect x="180" y="90" width="2" height="17" fill="url(#paint49_linear_37265_57561)"/>
<rect x="183" y="90" width="2" height="17" fill="url(#paint50_linear_37265_57561)"/>
<rect x="186" y="90" width="2" height="17" fill="url(#paint51_linear_37265_57561)"/>
<rect x="189" y="89" width="2" height="18" fill="url(#paint52_linear_37265_57561)"/>
<rect x="192" y="89" width="2" height="18" fill="url(#paint53_linear_37265_57561)"/>
<rect x="195" y="90" width="2" height="17" fill="url(#paint54_linear_37265_57561)"/>
<rect x="198" y="90" width="2" height="17" fill="url(#paint55_linear_37265_57561)"/>
<rect x="201" y="90" width="2" height="17" fill="url(#paint56_linear_37265_57561)"/>
<rect x="204" y="90" width="2" height="17" fill="url(#paint57_linear_37265_57561)"/>
<rect x="207" y="92" width="2" height="15" fill="url(#paint58_linear_37265_57561)"/>
<rect x="210" y="92" width="2" height="15" fill="url(#paint59_linear_37265_57561)"/>
<rect x="213" y="94" width="2" height="13" fill="url(#paint60_linear_37265_57561)"/>
<rect x="216" y="94" width="2" height="13" fill="url(#paint61_linear_37265_57561)"/>
<rect x="219" y="94" width="2" height="13" fill="url(#paint62_linear_37265_57561)"/>
<rect x="222" y="94" width="2" height="13" fill="url(#paint63_linear_37265_57561)"/>
</g>
<path d="M34.91 53.5752L33 56.9787V77.3993H34.91H44.3008H55.4425H66.7433H77.885H89.1858H100.487H111.628H122.929H134.071H145.372H156.513H167.814H179.115H190.257H201.557H212.699H222.09H224V33.1549L210 45.6339L209 33.1546L201.557 41.712H190.257L179.115 39.9615L167.814 25.2133L156.513 26.3478L145.372 43.3649L133 53.5752L122.929 42.2305L111.628 43.3649L100.487 44.4994L93 19.7992L88 16.1992L77.885 33.1549L67.5 38.6992L54.5 44.4994L52 56.9787L44.3008 45.6339L34.91 53.5752Z" fill="url(#paint64_linear_37265_57561)" fill-opacity="0.15"/>
<path d="M33 56.8081L33.955 58.9538L34.91 53.3732L36.0839 48.5083L37.2577 51.3696L38.4316 54.2309L39.6054 49.3659L40.7793 44.501L41.9531 47.3623L43.127 50.2236L44.3008 45.3586L44.9972 42.5689L45.6935 47.5054L46.3899 52.4419L47.0863 49.6522L47.7826 46.8625L48.479 51.7989L49.1753 56.7354L49.8717 53.9457L50.568 53.4739L51.2644 56.0925L51.9607 58.7111L52.6571 41.2221L53.3534 41.5228L54.0498 44.1415L54.7461 43.6696L55.4425 46.2882L56.8551 41.6136L58.2677 42.7295L59.6803 40.7549L61.0929 41.0982L62.5055 39.8962L63.9181 41.0121L65.3307 39.0375L66.7433 40.1534L67.4397 38.1073L68.136 39.1516L68.8324 37.4917L69.5288 38.1498L70.2251 36.1036L70.9215 37.1479L71.6178 35.1018L72.3142 35.7598L73.0105 34.1L73.7069 35.1443L74.4032 33.4844L75.0996 39.9329L75.7959 35.1826L76.4923 35.4543L77.1886 30.704L77.885 34.0662L78.5913 33.3076L79.2976 31.39L80.0039 31.0177L80.7102 29.1001L81.4165 29.5004L82.1228 26.4239L82.8291 29.9147L83.5354 24.5203L84.2417 24.5343L84.948 18.3674L85.6543 25.3349L86.3606 16.4638L87.0669 19.1819L87.7732 18.8096L88.4795 16.1194L89.1858 16.5197L89.8921 12.5996L90.5984 21.0414L91.3047 17.8939L92.011 16.6779L92.7173 20.8703L93.4236 18.8817L94.1299 21.5289L94.8363 21.4718L95.5426 31.3635L96.2489 30.9202L96.9552 32.7947L97.6615 32.3513L98.3678 33.0669L99.0741 43.9415L99.7804 43.4981L100.487 44.2137L101.879 44.4569L103.272 40.0644L104.665 44.1707L106.058 47.5043L107.45 43.8844L108.843 41.8097L110.236 45.5297L111.628 43.0688L113.041 44.8572L114.454 42.7825L115.866 42.6394L117.279 44.4278L118.691 42.3532L120.104 42.2101L121.517 38.2038L122.929 38.0607L123.626 42.7825L124.322 43.6412L125.018 46.4315L125.715 45.3586L126.411 46.2173L127.107 49.0076L127.804 47.9348L128.5 44.9304L129.196 51.5837L129.893 50.5109L130.589 51.3696L131.285 53.3914L131.982 46.5239L132.678 55.1088L133.374 52.1044L134.071 52.9631L134.777 52.176L135.483 49.8436L136.19 50.6017L136.896 47.883L137.602 49.0274L138.309 46.3087L139.015 47.4531L139.721 47.4344L141.134 45.0916L141.84 46.6224L142.546 46.2173L143.253 47.7481L143.959 44.643L144.665 46.1738L145.372 43.0688L146.068 38.1323L146.764 40.922L147.461 35.9855L148.157 38.7752L148.853 37.7018L149.55 32.7654L150.246 35.5551L150.942 34.4817L151.639 37.2714L152.335 32.3349L153.032 35.1246L153.728 30.1882L154.424 32.9779L155.121 28.0414L155.817 26.968L156.513 29.7577L157.926 21.8884L159.339 25.6084L160.751 29.3284L162.164 25.3222L163.576 32.9052L164.989 28.899L166.402 24.8928L167.814 20.8866L168.52 25.6799L169.227 30.4733L169.933 27.5405L170.639 28.4707L171.346 33.2641L172.052 30.3313L172.758 27.3985L173.465 32.1918L174.171 33.1221L174.877 30.1892L175.583 34.9826L176.29 35.9129L176.996 40.7062L177.702 37.7734L178.409 38.7037L179.115 43.497L180.508 39.8548L181.9 36.2125L183.293 40.2964L184.686 36.6542L186.079 40.7381L187.471 39.4137L188.864 41.9524L190.257 39.8554L191.669 42.1733L193.082 39.8554L194.494 41.4006L195.907 37.5375L197.32 41.4006L198.732 45.2637L200.145 37.5375L201.558 41.4006L202.254 40.4315L202.95 43.3255L203.647 38.4933L204.343 41.3872L205.039 36.555L205.736 31.7228L206.432 34.6168L207.128 37.5107L207.825 32.6785L208.521 27.8463L209.217 30.7403L209.914 33.6342L210.61 46.4429L211.306 41.6107L212.003 44.5047L212.699 43.5356L213.286 46.7546L213.873 42.2475L214.46 41.6035L215.047 40.9594L215.634 40.3154L216.221 43.5345L216.808 39.0274L217.395 38.3833L217.982 33.8762L218.568 37.0953L219.155 36.4512L219.742 31.9441L220.329 35.1632L220.916 34.5191L221.503 33.8751L222.09 29.2876L223.045 33.2311H224" stroke="#5CFFC4" stroke-width="0.8"/>
<path opacity="0.8" d="M1.98828 2.67578H2.50391C2.75651 2.67578 2.96484 2.63411 3.12891 2.55078C3.29557 2.46484 3.41927 2.34896 3.5 2.20312C3.58333 2.05469 3.625 1.88802 3.625 1.70312C3.625 1.48438 3.58854 1.30078 3.51562 1.15234C3.44271 1.00391 3.33333 0.891927 3.1875 0.816406C3.04167 0.740885 2.85677 0.703125 2.63281 0.703125C2.42969 0.703125 2.25 0.74349 2.09375 0.824219C1.9401 0.902344 1.81901 1.01432 1.73047 1.16016C1.64453 1.30599 1.60156 1.47786 1.60156 1.67578H0.878906C0.878906 1.38672 0.951823 1.1237 1.09766 0.886719C1.24349 0.64974 1.44792 0.460938 1.71094 0.320312C1.97656 0.179688 2.28385 0.109375 2.63281 0.109375C2.97656 0.109375 3.27734 0.170573 3.53516 0.292969C3.79297 0.41276 3.99349 0.592448 4.13672 0.832031C4.27995 1.06901 4.35156 1.36458 4.35156 1.71875C4.35156 1.86198 4.31771 2.01562 4.25 2.17969C4.1849 2.34115 4.08203 2.49219 3.94141 2.63281C3.80339 2.77344 3.6237 2.88932 3.40234 2.98047C3.18099 3.06901 2.91536 3.11328 2.60547 3.11328H1.98828V2.67578ZM1.98828 3.26953V2.83594H2.60547C2.96745 2.83594 3.26693 2.87891 3.50391 2.96484C3.74089 3.05078 3.92708 3.16536 4.0625 3.30859C4.20052 3.45182 4.29688 3.60938 4.35156 3.78125C4.40885 3.95052 4.4375 4.11979 4.4375 4.28906C4.4375 4.55469 4.39193 4.79036 4.30078 4.99609C4.21224 5.20182 4.08594 5.3763 3.92188 5.51953C3.76042 5.66276 3.57031 5.77083 3.35156 5.84375C3.13281 5.91667 2.89453 5.95312 2.63672 5.95312C2.38932 5.95312 2.15625 5.91797 1.9375 5.84766C1.72135 5.77734 1.52995 5.67578 1.36328 5.54297C1.19661 5.40755 1.06641 5.24219 0.972656 5.04688C0.878906 4.84896 0.832031 4.6237 0.832031 4.37109H1.55469C1.55469 4.56901 1.59766 4.74219 1.68359 4.89062C1.77214 5.03906 1.89714 5.15495 2.05859 5.23828C2.22266 5.31901 2.41536 5.35938 2.63672 5.35938C2.85807 5.35938 3.04818 5.32161 3.20703 5.24609C3.36849 5.16797 3.49219 5.05078 3.57812 4.89453C3.66667 4.73828 3.71094 4.54167 3.71094 4.30469C3.71094 4.06771 3.66146 3.8737 3.5625 3.72266C3.46354 3.56901 3.32292 3.45573 3.14062 3.38281C2.96094 3.30729 2.7487 3.26953 2.50391 3.26953H1.98828ZM9.00391 2.57812V3.44531C9.00391 3.91146 8.96224 4.30469 8.87891 4.625C8.79557 4.94531 8.67578 5.20312 8.51953 5.39844C8.36328 5.59375 8.17448 5.73568 7.95312 5.82422C7.73438 5.91016 7.48698 5.95312 7.21094 5.95312C6.99219 5.95312 6.79036 5.92578 6.60547 5.87109C6.42057 5.81641 6.25391 5.72917 6.10547 5.60938C5.95964 5.48698 5.83464 5.32812 5.73047 5.13281C5.6263 4.9375 5.54688 4.70052 5.49219 4.42188C5.4375 4.14323 5.41016 3.81771 5.41016 3.44531V2.57812C5.41016 2.11198 5.45182 1.72135 5.53516 1.40625C5.62109 1.09115 5.74219 0.838542 5.89844 0.648438C6.05469 0.455729 6.24219 0.317708 6.46094 0.234375C6.68229 0.151042 6.92969 0.109375 7.20312 0.109375C7.42448 0.109375 7.6276 0.136719 7.8125 0.191406C8 0.24349 8.16667 0.328125 8.3125 0.445312C8.45833 0.559896 8.58203 0.713542 8.68359 0.90625C8.78776 1.09635 8.86719 1.32943 8.92188 1.60547C8.97656 1.88151 9.00391 2.20573 9.00391 2.57812ZM8.27734 3.5625V2.45703C8.27734 2.20182 8.26172 1.97786 8.23047 1.78516C8.20182 1.58984 8.15885 1.42318 8.10156 1.28516C8.04427 1.14714 7.97135 1.03516 7.88281 0.949219C7.79688 0.863281 7.69661 0.800781 7.58203 0.761719C7.47005 0.720052 7.34375 0.699219 7.20312 0.699219C7.03125 0.699219 6.87891 0.731771 6.74609 0.796875C6.61328 0.859375 6.5013 0.959635 6.41016 1.09766C6.32161 1.23568 6.25391 1.41667 6.20703 1.64062C6.16016 1.86458 6.13672 2.13672 6.13672 2.45703V3.5625C6.13672 3.81771 6.15104 4.04297 6.17969 4.23828C6.21094 4.43359 6.25651 4.60286 6.31641 4.74609C6.3763 4.88672 6.44922 5.0026 6.53516 5.09375C6.62109 5.1849 6.72005 5.2526 6.83203 5.29688C6.94661 5.33854 7.07292 5.35938 7.21094 5.35938C7.38802 5.35938 7.54297 5.32552 7.67578 5.25781C7.80859 5.1901 7.91927 5.08464 8.00781 4.94141C8.09896 4.79557 8.16667 4.60938 8.21094 4.38281C8.25521 4.15365 8.27734 3.88021 8.27734 3.5625ZM10.668 5.01562V5.59766C10.668 5.83464 10.6081 6.08464 10.4883 6.34766C10.3685 6.61328 10.2005 6.83464 9.98438 7.01172L9.57422 6.72656C9.65755 6.61198 9.72786 6.49479 9.78516 6.375C9.84245 6.25781 9.88542 6.13542 9.91406 6.00781C9.94531 5.88281 9.96094 5.75 9.96094 5.60938V5.01562H10.668ZM12.5664 2.67578H13.082C13.3346 2.67578 13.543 2.63411 13.707 2.55078C13.8737 2.46484 13.9974 2.34896 14.0781 2.20312C14.1615 2.05469 14.2031 1.88802 14.2031 1.70312C14.2031 1.48438 14.1667 1.30078 14.0938 1.15234C14.0208 1.00391 13.9115 0.891927 13.7656 0.816406C13.6198 0.740885 13.4349 0.703125 13.2109 0.703125C13.0078 0.703125 12.8281 0.74349 12.6719 0.824219C12.5182 0.902344 12.3971 1.01432 12.3086 1.16016C12.2227 1.30599 12.1797 1.47786 12.1797 1.67578H11.457C11.457 1.38672 11.5299 1.1237 11.6758 0.886719C11.8216 0.64974 12.026 0.460938 12.2891 0.320312C12.5547 0.179688 12.862 0.109375 13.2109 0.109375C13.5547 0.109375 13.8555 0.170573 14.1133 0.292969C14.3711 0.41276 14.5716 0.592448 14.7148 0.832031C14.8581 1.06901 14.9297 1.36458 14.9297 1.71875C14.9297 1.86198 14.8958 2.01562 14.8281 2.17969C14.763 2.34115 14.6602 2.49219 14.5195 2.63281C14.3815 2.77344 14.2018 2.88932 13.9805 2.98047C13.7591 3.06901 13.4935 3.11328 13.1836 3.11328H12.5664V2.67578ZM12.5664 3.26953V2.83594H13.1836C13.5456 2.83594 13.8451 2.87891 14.082 2.96484C14.319 3.05078 14.5052 3.16536 14.6406 3.30859C14.7786 3.45182 14.875 3.60938 14.9297 3.78125C14.987 3.95052 15.0156 4.11979 15.0156 4.28906C15.0156 4.55469 14.9701 4.79036 14.8789 4.99609C14.7904 5.20182 14.6641 5.3763 14.5 5.51953C14.3385 5.66276 14.1484 5.77083 13.9297 5.84375C13.7109 5.91667 13.4727 5.95312 13.2148 5.95312C12.9674 5.95312 12.7344 5.91797 12.5156 5.84766C12.2995 5.77734 12.1081 5.67578 11.9414 5.54297C11.7747 5.40755 11.6445 5.24219 11.5508 5.04688C11.457 4.84896 11.4102 4.6237 11.4102 4.37109H12.1328C12.1328 4.56901 12.1758 4.74219 12.2617 4.89062C12.3503 5.03906 12.4753 5.15495 12.6367 5.23828C12.8008 5.31901 12.9935 5.35938 13.2148 5.35938C13.4362 5.35938 13.6263 5.32161 13.7852 5.24609C13.9466 5.16797 14.0703 5.05078 14.1562 4.89453C14.2448 4.73828 14.2891 4.54167 14.2891 4.30469C14.2891 4.06771 14.2396 3.8737 14.1406 3.72266C14.0417 3.56901 13.901 3.45573 13.7188 3.38281C13.5391 3.30729 13.3268 3.26953 13.082 3.26953H12.5664ZM19.6875 0.1875V0.59375L17.332 5.875H16.5703L18.9219 0.78125H15.8438V0.1875H19.6875ZM24.082 2.57812V3.44531C24.082 3.91146 24.0404 4.30469 23.957 4.625C23.8737 4.94531 23.7539 5.20312 23.5977 5.39844C23.4414 5.59375 23.2526 5.73568 23.0312 5.82422C22.8125 5.91016 22.5651 5.95312 22.2891 5.95312C22.0703 5.95312 21.8685 5.92578 21.6836 5.87109C21.4987 5.81641 21.332 5.72917 21.1836 5.60938C21.0378 5.48698 20.9128 5.32812 20.8086 5.13281C20.7044 4.9375 20.625 4.70052 20.5703 4.42188C20.5156 4.14323 20.4883 3.81771 20.4883 3.44531V2.57812C20.4883 2.11198 20.5299 1.72135 20.6133 1.40625C20.6992 1.09115 20.8203 0.838542 20.9766 0.648438C21.1328 0.455729 21.3203 0.317708 21.5391 0.234375C21.7604 0.151042 22.0078 0.109375 22.2812 0.109375C22.5026 0.109375 22.7057 0.136719 22.8906 0.191406C23.0781 0.24349 23.2448 0.328125 23.3906 0.445312C23.5365 0.559896 23.6602 0.713542 23.7617 0.90625C23.8659 1.09635 23.9453 1.32943 24 1.60547C24.0547 1.88151 24.082 2.20573 24.082 2.57812ZM23.3555 3.5625V2.45703C23.3555 2.20182 23.3398 1.97786 23.3086 1.78516C23.2799 1.58984 23.237 1.42318 23.1797 1.28516C23.1224 1.14714 23.0495 1.03516 22.9609 0.949219C22.875 0.863281 22.7747 0.800781 22.6602 0.761719C22.5482 0.720052 22.4219 0.699219 22.2812 0.699219C22.1094 0.699219 21.957 0.731771 21.8242 0.796875C21.6914 0.859375 21.5794 0.959635 21.4883 1.09766C21.3997 1.23568 21.332 1.41667 21.2852 1.64062C21.2383 1.86458 21.2148 2.13672 21.2148 2.45703V3.5625C21.2148 3.81771 21.2292 4.04297 21.2578 4.23828C21.2891 4.43359 21.3346 4.60286 21.3945 4.74609C21.4544 4.88672 21.5273 5.0026 21.6133 5.09375C21.6992 5.1849 21.7982 5.2526 21.9102 5.29688C22.0247 5.33854 22.151 5.35938 22.2891 5.35938C22.4661 5.35938 22.6211 5.32552 22.7539 5.25781C22.8867 5.1901 22.9974 5.08464 23.0859 4.94141C23.1771 4.79557 23.2448 4.60938 23.2891 4.38281C23.3333 4.15365 23.3555 3.88021 23.3555 3.5625Z" fill="white"/>
<line x1="33.5" y1="3.5" x2="223.5" y2="3.5" stroke="white" stroke-opacity="0.4" stroke-miterlimit="16" stroke-linecap="round" stroke-linejoin="round" stroke-dasharray="0.1 3"/>
<path opacity="0.8" d="M1.98828 28.4258H2.50391C2.75651 28.4258 2.96484 28.3841 3.12891 28.3008C3.29557 28.2148 3.41927 28.099 3.5 27.9531C3.58333 27.8047 3.625 27.638 3.625 27.4531C3.625 27.2344 3.58854 27.0508 3.51562 26.9023C3.44271 26.7539 3.33333 26.6419 3.1875 26.5664C3.04167 26.4909 2.85677 26.4531 2.63281 26.4531C2.42969 26.4531 2.25 26.4935 2.09375 26.5742C1.9401 26.6523 1.81901 26.7643 1.73047 26.9102C1.64453 27.056 1.60156 27.2279 1.60156 27.4258H0.878906C0.878906 27.1367 0.951823 26.8737 1.09766 26.6367C1.24349 26.3997 1.44792 26.2109 1.71094 26.0703C1.97656 25.9297 2.28385 25.8594 2.63281 25.8594C2.97656 25.8594 3.27734 25.9206 3.53516 26.043C3.79297 26.1628 3.99349 26.3424 4.13672 26.582C4.27995 26.819 4.35156 27.1146 4.35156 27.4688C4.35156 27.612 4.31771 27.7656 4.25 27.9297C4.1849 28.0911 4.08203 28.2422 3.94141 28.3828C3.80339 28.5234 3.6237 28.6393 3.40234 28.7305C3.18099 28.819 2.91536 28.8633 2.60547 28.8633H1.98828V28.4258ZM1.98828 29.0195V28.5859H2.60547C2.96745 28.5859 3.26693 28.6289 3.50391 28.7148C3.74089 28.8008 3.92708 28.9154 4.0625 29.0586C4.20052 29.2018 4.29688 29.3594 4.35156 29.5312C4.40885 29.7005 4.4375 29.8698 4.4375 30.0391C4.4375 30.3047 4.39193 30.5404 4.30078 30.7461C4.21224 30.9518 4.08594 31.1263 3.92188 31.2695C3.76042 31.4128 3.57031 31.5208 3.35156 31.5938C3.13281 31.6667 2.89453 31.7031 2.63672 31.7031C2.38932 31.7031 2.15625 31.668 1.9375 31.5977C1.72135 31.5273 1.52995 31.4258 1.36328 31.293C1.19661 31.1576 1.06641 30.9922 0.972656 30.7969C0.878906 30.599 0.832031 30.3737 0.832031 30.1211H1.55469C1.55469 30.319 1.59766 30.4922 1.68359 30.6406C1.77214 30.7891 1.89714 30.9049 2.05859 30.9883C2.22266 31.069 2.41536 31.1094 2.63672 31.1094C2.85807 31.1094 3.04818 31.0716 3.20703 30.9961C3.36849 30.918 3.49219 30.8008 3.57812 30.6445C3.66667 30.4883 3.71094 30.2917 3.71094 30.0547C3.71094 29.8177 3.66146 29.6237 3.5625 29.4727C3.46354 29.319 3.32292 29.2057 3.14062 29.1328C2.96094 29.0573 2.7487 29.0195 2.50391 29.0195H1.98828ZM9.00391 28.3281V29.1953C9.00391 29.6615 8.96224 30.0547 8.87891 30.375C8.79557 30.6953 8.67578 30.9531 8.51953 31.1484C8.36328 31.3438 8.17448 31.4857 7.95312 31.5742C7.73438 31.6602 7.48698 31.7031 7.21094 31.7031C6.99219 31.7031 6.79036 31.6758 6.60547 31.6211C6.42057 31.5664 6.25391 31.4792 6.10547 31.3594C5.95964 31.237 5.83464 31.0781 5.73047 30.8828C5.6263 30.6875 5.54688 30.4505 5.49219 30.1719C5.4375 29.8932 5.41016 29.5677 5.41016 29.1953V28.3281C5.41016 27.862 5.45182 27.4714 5.53516 27.1562C5.62109 26.8411 5.74219 26.5885 5.89844 26.3984C6.05469 26.2057 6.24219 26.0677 6.46094 25.9844C6.68229 25.901 6.92969 25.8594 7.20312 25.8594C7.42448 25.8594 7.6276 25.8867 7.8125 25.9414C8 25.9935 8.16667 26.0781 8.3125 26.1953C8.45833 26.3099 8.58203 26.4635 8.68359 26.6562C8.78776 26.8464 8.86719 27.0794 8.92188 27.3555C8.97656 27.6315 9.00391 27.9557 9.00391 28.3281ZM8.27734 29.3125V28.207C8.27734 27.9518 8.26172 27.7279 8.23047 27.5352C8.20182 27.3398 8.15885 27.1732 8.10156 27.0352C8.04427 26.8971 7.97135 26.7852 7.88281 26.6992C7.79688 26.6133 7.69661 26.5508 7.58203 26.5117C7.47005 26.4701 7.34375 26.4492 7.20312 26.4492C7.03125 26.4492 6.87891 26.4818 6.74609 26.5469C6.61328 26.6094 6.5013 26.7096 6.41016 26.8477C6.32161 26.9857 6.25391 27.1667 6.20703 27.3906C6.16016 27.6146 6.13672 27.8867 6.13672 28.207V29.3125C6.13672 29.5677 6.15104 29.793 6.17969 29.9883C6.21094 30.1836 6.25651 30.3529 6.31641 30.4961C6.3763 30.6367 6.44922 30.7526 6.53516 30.8438C6.62109 30.9349 6.72005 31.0026 6.83203 31.0469C6.94661 31.0885 7.07292 31.1094 7.21094 31.1094C7.38802 31.1094 7.54297 31.0755 7.67578 31.0078C7.80859 30.9401 7.91927 30.8346 8.00781 30.6914C8.09896 30.5456 8.16667 30.3594 8.21094 30.1328C8.25521 29.9036 8.27734 29.6302 8.27734 29.3125ZM10.668 30.7656V31.3477C10.668 31.5846 10.6081 31.8346 10.4883 32.0977C10.3685 32.3633 10.2005 32.5846 9.98438 32.7617L9.57422 32.4766C9.65755 32.362 9.72786 32.2448 9.78516 32.125C9.84245 32.0078 9.88542 31.8854 9.91406 31.7578C9.94531 31.6328 9.96094 31.5 9.96094 31.3594V30.7656H10.668ZM12.5664 28.4258H13.082C13.3346 28.4258 13.543 28.3841 13.707 28.3008C13.8737 28.2148 13.9974 28.099 14.0781 27.9531C14.1615 27.8047 14.2031 27.638 14.2031 27.4531C14.2031 27.2344 14.1667 27.0508 14.0938 26.9023C14.0208 26.7539 13.9115 26.6419 13.7656 26.5664C13.6198 26.4909 13.4349 26.4531 13.2109 26.4531C13.0078 26.4531 12.8281 26.4935 12.6719 26.5742C12.5182 26.6523 12.3971 26.7643 12.3086 26.9102C12.2227 27.056 12.1797 27.2279 12.1797 27.4258H11.457C11.457 27.1367 11.5299 26.8737 11.6758 26.6367C11.8216 26.3997 12.026 26.2109 12.2891 26.0703C12.5547 25.9297 12.862 25.8594 13.2109 25.8594C13.5547 25.8594 13.8555 25.9206 14.1133 26.043C14.3711 26.1628 14.5716 26.3424 14.7148 26.582C14.8581 26.819 14.9297 27.1146 14.9297 27.4688C14.9297 27.612 14.8958 27.7656 14.8281 27.9297C14.763 28.0911 14.6602 28.2422 14.5195 28.3828C14.3815 28.5234 14.2018 28.6393 13.9805 28.7305C13.7591 28.819 13.4935 28.8633 13.1836 28.8633H12.5664V28.4258ZM12.5664 29.0195V28.5859H13.1836C13.5456 28.5859 13.8451 28.6289 14.082 28.7148C14.319 28.8008 14.5052 28.9154 14.6406 29.0586C14.7786 29.2018 14.875 29.3594 14.9297 29.5312C14.987 29.7005 15.0156 29.8698 15.0156 30.0391C15.0156 30.3047 14.9701 30.5404 14.8789 30.7461C14.7904 30.9518 14.6641 31.1263 14.5 31.2695C14.3385 31.4128 14.1484 31.5208 13.9297 31.5938C13.7109 31.6667 13.4727 31.7031 13.2148 31.7031C12.9674 31.7031 12.7344 31.668 12.5156 31.5977C12.2995 31.5273 12.1081 31.4258 11.9414 31.293C11.7747 31.1576 11.6445 30.9922 11.5508 30.7969C11.457 30.599 11.4102 30.3737 11.4102 30.1211H12.1328C12.1328 30.319 12.1758 30.4922 12.2617 30.6406C12.3503 30.7891 12.4753 30.9049 12.6367 30.9883C12.8008 31.069 12.9935 31.1094 13.2148 31.1094C13.4362 31.1094 13.6263 31.0716 13.7852 30.9961C13.9466 30.918 14.0703 30.8008 14.1562 30.6445C14.2448 30.4883 14.2891 30.2917 14.2891 30.0547C14.2891 29.8177 14.2396 29.6237 14.1406 29.4727C14.0417 29.319 13.901 29.2057 13.7188 29.1328C13.5391 29.0573 13.3268 29.0195 13.082 29.0195H12.5664ZM18.7852 25.9297H18.8477V26.543H18.7852C18.4023 26.543 18.082 26.6055 17.8242 26.7305C17.5664 26.8529 17.362 27.0182 17.2109 27.2266C17.0599 27.4323 16.9505 27.6641 16.8828 27.9219C16.8177 28.1797 16.7852 28.4414 16.7852 28.707V29.543C16.7852 29.7956 16.8151 30.0195 16.875 30.2148C16.9349 30.4076 17.0169 30.5703 17.1211 30.7031C17.2253 30.8359 17.3424 30.9362 17.4727 31.0039C17.6055 31.0716 17.7435 31.1055 17.8867 31.1055C18.0534 31.1055 18.2018 31.0742 18.332 31.0117C18.4622 30.9466 18.5716 30.8568 18.6602 30.7422C18.7513 30.625 18.8203 30.487 18.8672 30.3281C18.9141 30.1693 18.9375 29.9948 18.9375 29.8047C18.9375 29.6354 18.9167 29.4727 18.875 29.3164C18.8333 29.1576 18.7695 29.0169 18.6836 28.8945C18.5977 28.7695 18.4896 28.6719 18.3594 28.6016C18.2318 28.5286 18.0794 28.4922 17.9023 28.4922C17.7018 28.4922 17.5143 28.5417 17.3398 28.6406C17.168 28.737 17.026 28.8646 16.9141 29.0234C16.8047 29.1797 16.7422 29.3503 16.7266 29.5352L16.3438 29.5312C16.3802 29.2396 16.4479 28.9909 16.5469 28.7852C16.6484 28.5768 16.7734 28.4076 16.9219 28.2773C17.0729 28.1445 17.2409 28.0482 17.4258 27.9883C17.6133 27.9258 17.8112 27.8945 18.0195 27.8945C18.3034 27.8945 18.5482 27.9479 18.7539 28.0547C18.9596 28.1615 19.1289 28.3047 19.2617 28.4844C19.3945 28.6615 19.4922 28.862 19.5547 29.0859C19.6198 29.3073 19.6523 29.5352 19.6523 29.7695C19.6523 30.0378 19.6146 30.2891 19.5391 30.5234C19.4635 30.7578 19.3503 30.9635 19.1992 31.1406C19.0508 31.3177 18.8672 31.4557 18.6484 31.5547C18.4297 31.6536 18.1758 31.7031 17.8867 31.7031C17.5794 31.7031 17.3112 31.6406 17.082 31.5156C16.8529 31.388 16.6628 31.2188 16.5117 31.0078C16.3607 30.7969 16.2474 30.5625 16.1719 30.3047C16.0964 30.0469 16.0586 29.7852 16.0586 29.5195V29.1797C16.0586 28.7786 16.099 28.3854 16.1797 28C16.2604 27.6146 16.3997 27.2656 16.5977 26.9531C16.7982 26.6406 17.0755 26.3919 17.4297 26.207C17.7839 26.0221 18.2357 25.9297 18.7852 25.9297ZM21.4258 28.918L20.8477 28.7695L21.1328 25.9375H24.0508V26.6055H21.7461L21.5742 28.1523C21.6784 28.0924 21.8099 28.0365 21.9688 27.9844C22.1302 27.9323 22.3151 27.9062 22.5234 27.9062C22.7865 27.9062 23.0221 27.9518 23.2305 28.043C23.4388 28.1315 23.6159 28.2591 23.7617 28.4258C23.9102 28.5924 24.0234 28.793 24.1016 29.0273C24.1797 29.2617 24.2188 29.5234 24.2188 29.8125C24.2188 30.0859 24.181 30.3372 24.1055 30.5664C24.0326 30.7956 23.9219 30.9961 23.7734 31.168C23.625 31.3372 23.4375 31.4688 23.2109 31.5625C22.987 31.6562 22.7227 31.7031 22.418 31.7031C22.1888 31.7031 21.9714 31.6719 21.7656 31.6094C21.5625 31.5443 21.3802 31.4466 21.2188 31.3164C21.0599 31.1836 20.9297 31.0195 20.8281 30.8242C20.7292 30.6263 20.6667 30.3945 20.6406 30.1289H21.3281C21.3594 30.3424 21.4219 30.5221 21.5156 30.668C21.6094 30.8138 21.7318 30.9245 21.8828 31C22.0365 31.0729 22.2148 31.1094 22.418 31.1094C22.5898 31.1094 22.7422 31.0794 22.875 31.0195C23.0078 30.9596 23.1198 30.8737 23.2109 30.7617C23.3021 30.6497 23.3711 30.5143 23.418 30.3555C23.4674 30.1966 23.4922 30.0182 23.4922 29.8203C23.4922 29.6406 23.4674 29.474 23.418 29.3203C23.3685 29.1667 23.2943 29.0326 23.1953 28.918C23.099 28.8034 22.9805 28.7148 22.8398 28.6523C22.6992 28.5872 22.5378 28.5547 22.3555 28.5547C22.1133 28.5547 21.9297 28.5872 21.8047 28.6523C21.6823 28.7174 21.556 28.806 21.4258 28.918Z" fill="white"/>
<line x1="33.5" y1="29" x2="223.5" y2="29" stroke="white" stroke-opacity="0.4" stroke-miterlimit="16" stroke-linecap="round" stroke-linejoin="round" stroke-dasharray="0.1 3"/>
<path opacity="0.8" d="M1.98828 54.1758H2.50391C2.75651 54.1758 2.96484 54.1341 3.12891 54.0508C3.29557 53.9648 3.41927 53.849 3.5 53.7031C3.58333 53.5547 3.625 53.388 3.625 53.2031C3.625 52.9844 3.58854 52.8008 3.51562 52.6523C3.44271 52.5039 3.33333 52.3919 3.1875 52.3164C3.04167 52.2409 2.85677 52.2031 2.63281 52.2031C2.42969 52.2031 2.25 52.2435 2.09375 52.3242C1.9401 52.4023 1.81901 52.5143 1.73047 52.6602C1.64453 52.806 1.60156 52.9779 1.60156 53.1758H0.878906C0.878906 52.8867 0.951823 52.6237 1.09766 52.3867C1.24349 52.1497 1.44792 51.9609 1.71094 51.8203C1.97656 51.6797 2.28385 51.6094 2.63281 51.6094C2.97656 51.6094 3.27734 51.6706 3.53516 51.793C3.79297 51.9128 3.99349 52.0924 4.13672 52.332C4.27995 52.569 4.35156 52.8646 4.35156 53.2188C4.35156 53.362 4.31771 53.5156 4.25 53.6797C4.1849 53.8411 4.08203 53.9922 3.94141 54.1328C3.80339 54.2734 3.6237 54.3893 3.40234 54.4805C3.18099 54.569 2.91536 54.6133 2.60547 54.6133H1.98828V54.1758ZM1.98828 54.7695V54.3359H2.60547C2.96745 54.3359 3.26693 54.3789 3.50391 54.4648C3.74089 54.5508 3.92708 54.6654 4.0625 54.8086C4.20052 54.9518 4.29688 55.1094 4.35156 55.2812C4.40885 55.4505 4.4375 55.6198 4.4375 55.7891C4.4375 56.0547 4.39193 56.2904 4.30078 56.4961C4.21224 56.7018 4.08594 56.8763 3.92188 57.0195C3.76042 57.1628 3.57031 57.2708 3.35156 57.3438C3.13281 57.4167 2.89453 57.4531 2.63672 57.4531C2.38932 57.4531 2.15625 57.418 1.9375 57.3477C1.72135 57.2773 1.52995 57.1758 1.36328 57.043C1.19661 56.9076 1.06641 56.7422 0.972656 56.5469C0.878906 56.349 0.832031 56.1237 0.832031 55.8711H1.55469C1.55469 56.069 1.59766 56.2422 1.68359 56.3906C1.77214 56.5391 1.89714 56.6549 2.05859 56.7383C2.22266 56.819 2.41536 56.8594 2.63672 56.8594C2.85807 56.8594 3.04818 56.8216 3.20703 56.7461C3.36849 56.668 3.49219 56.5508 3.57812 56.3945C3.66667 56.2383 3.71094 56.0417 3.71094 55.8047C3.71094 55.5677 3.66146 55.3737 3.5625 55.2227C3.46354 55.069 3.32292 54.9557 3.14062 54.8828C2.96094 54.8073 2.7487 54.7695 2.50391 54.7695H1.98828ZM9.00391 54.0781V54.9453C9.00391 55.4115 8.96224 55.8047 8.87891 56.125C8.79557 56.4453 8.67578 56.7031 8.51953 56.8984C8.36328 57.0938 8.17448 57.2357 7.95312 57.3242C7.73438 57.4102 7.48698 57.4531 7.21094 57.4531C6.99219 57.4531 6.79036 57.4258 6.60547 57.3711C6.42057 57.3164 6.25391 57.2292 6.10547 57.1094C5.95964 56.987 5.83464 56.8281 5.73047 56.6328C5.6263 56.4375 5.54688 56.2005 5.49219 55.9219C5.4375 55.6432 5.41016 55.3177 5.41016 54.9453V54.0781C5.41016 53.612 5.45182 53.2214 5.53516 52.9062C5.62109 52.5911 5.74219 52.3385 5.89844 52.1484C6.05469 51.9557 6.24219 51.8177 6.46094 51.7344C6.68229 51.651 6.92969 51.6094 7.20312 51.6094C7.42448 51.6094 7.6276 51.6367 7.8125 51.6914C8 51.7435 8.16667 51.8281 8.3125 51.9453C8.45833 52.0599 8.58203 52.2135 8.68359 52.4062C8.78776 52.5964 8.86719 52.8294 8.92188 53.1055C8.97656 53.3815 9.00391 53.7057 9.00391 54.0781ZM8.27734 55.0625V53.957C8.27734 53.7018 8.26172 53.4779 8.23047 53.2852C8.20182 53.0898 8.15885 52.9232 8.10156 52.7852C8.04427 52.6471 7.97135 52.5352 7.88281 52.4492C7.79688 52.3633 7.69661 52.3008 7.58203 52.2617C7.47005 52.2201 7.34375 52.1992 7.20312 52.1992C7.03125 52.1992 6.87891 52.2318 6.74609 52.2969C6.61328 52.3594 6.5013 52.4596 6.41016 52.5977C6.32161 52.7357 6.25391 52.9167 6.20703 53.1406C6.16016 53.3646 6.13672 53.6367 6.13672 53.957V55.0625C6.13672 55.3177 6.15104 55.543 6.17969 55.7383C6.21094 55.9336 6.25651 56.1029 6.31641 56.2461C6.3763 56.3867 6.44922 56.5026 6.53516 56.5938C6.62109 56.6849 6.72005 56.7526 6.83203 56.7969C6.94661 56.8385 7.07292 56.8594 7.21094 56.8594C7.38802 56.8594 7.54297 56.8255 7.67578 56.7578C7.80859 56.6901 7.91927 56.5846 8.00781 56.4414C8.09896 56.2956 8.16667 56.1094 8.21094 55.8828C8.25521 55.6536 8.27734 55.3802 8.27734 55.0625ZM10.668 56.5156V57.0977C10.668 57.3346 10.6081 57.5846 10.4883 57.8477C10.3685 58.1133 10.2005 58.3346 9.98438 58.5117L9.57422 58.2266C9.65755 58.112 9.72786 57.9948 9.78516 57.875C9.84245 57.7578 9.88542 57.6354 9.91406 57.5078C9.94531 57.3828 9.96094 57.25 9.96094 57.1094V56.5156H10.668ZM12.5664 54.1758H13.082C13.3346 54.1758 13.543 54.1341 13.707 54.0508C13.8737 53.9648 13.9974 53.849 14.0781 53.7031C14.1615 53.5547 14.2031 53.388 14.2031 53.2031C14.2031 52.9844 14.1667 52.8008 14.0938 52.6523C14.0208 52.5039 13.9115 52.3919 13.7656 52.3164C13.6198 52.2409 13.4349 52.2031 13.2109 52.2031C13.0078 52.2031 12.8281 52.2435 12.6719 52.3242C12.5182 52.4023 12.3971 52.5143 12.3086 52.6602C12.2227 52.806 12.1797 52.9779 12.1797 53.1758H11.457C11.457 52.8867 11.5299 52.6237 11.6758 52.3867C11.8216 52.1497 12.026 51.9609 12.2891 51.8203C12.5547 51.6797 12.862 51.6094 13.2109 51.6094C13.5547 51.6094 13.8555 51.6706 14.1133 51.793C14.3711 51.9128 14.5716 52.0924 14.7148 52.332C14.8581 52.569 14.9297 52.8646 14.9297 53.2188C14.9297 53.362 14.8958 53.5156 14.8281 53.6797C14.763 53.8411 14.6602 53.9922 14.5195 54.1328C14.3815 54.2734 14.2018 54.3893 13.9805 54.4805C13.7591 54.569 13.4935 54.6133 13.1836 54.6133H12.5664V54.1758ZM12.5664 54.7695V54.3359H13.1836C13.5456 54.3359 13.8451 54.3789 14.082 54.4648C14.319 54.5508 14.5052 54.6654 14.6406 54.8086C14.7786 54.9518 14.875 55.1094 14.9297 55.2812C14.987 55.4505 15.0156 55.6198 15.0156 55.7891C15.0156 56.0547 14.9701 56.2904 14.8789 56.4961C14.7904 56.7018 14.6641 56.8763 14.5 57.0195C14.3385 57.1628 14.1484 57.2708 13.9297 57.3438C13.7109 57.4167 13.4727 57.4531 13.2148 57.4531C12.9674 57.4531 12.7344 57.418 12.5156 57.3477C12.2995 57.2773 12.1081 57.1758 11.9414 57.043C11.7747 56.9076 11.6445 56.7422 11.5508 56.5469C11.457 56.349 11.4102 56.1237 11.4102 55.8711H12.1328C12.1328 56.069 12.1758 56.2422 12.2617 56.3906C12.3503 56.5391 12.4753 56.6549 12.6367 56.7383C12.8008 56.819 12.9935 56.8594 13.2148 56.8594C13.4362 56.8594 13.6263 56.8216 13.7852 56.7461C13.9466 56.668 14.0703 56.5508 14.1562 56.3945C14.2448 56.2383 14.2891 56.0417 14.2891 55.8047C14.2891 55.5677 14.2396 55.3737 14.1406 55.2227C14.0417 55.069 13.901 54.9557 13.7188 54.8828C13.5391 54.8073 13.3268 54.7695 13.082 54.7695H12.5664ZM18.7852 51.6797H18.8477V52.293H18.7852C18.4023 52.293 18.082 52.3555 17.8242 52.4805C17.5664 52.6029 17.362 52.7682 17.2109 52.9766C17.0599 53.1823 16.9505 53.4141 16.8828 53.6719C16.8177 53.9297 16.7852 54.1914 16.7852 54.457V55.293C16.7852 55.5456 16.8151 55.7695 16.875 55.9648C16.9349 56.1576 17.0169 56.3203 17.1211 56.4531C17.2253 56.5859 17.3424 56.6862 17.4727 56.7539C17.6055 56.8216 17.7435 56.8555 17.8867 56.8555C18.0534 56.8555 18.2018 56.8242 18.332 56.7617C18.4622 56.6966 18.5716 56.6068 18.6602 56.4922C18.7513 56.375 18.8203 56.237 18.8672 56.0781C18.9141 55.9193 18.9375 55.7448 18.9375 55.5547C18.9375 55.3854 18.9167 55.2227 18.875 55.0664C18.8333 54.9076 18.7695 54.7669 18.6836 54.6445C18.5977 54.5195 18.4896 54.4219 18.3594 54.3516C18.2318 54.2786 18.0794 54.2422 17.9023 54.2422C17.7018 54.2422 17.5143 54.2917 17.3398 54.3906C17.168 54.487 17.026 54.6146 16.9141 54.7734C16.8047 54.9297 16.7422 55.1003 16.7266 55.2852L16.3438 55.2812C16.3802 54.9896 16.4479 54.7409 16.5469 54.5352C16.6484 54.3268 16.7734 54.1576 16.9219 54.0273C17.0729 53.8945 17.2409 53.7982 17.4258 53.7383C17.6133 53.6758 17.8112 53.6445 18.0195 53.6445C18.3034 53.6445 18.5482 53.6979 18.7539 53.8047C18.9596 53.9115 19.1289 54.0547 19.2617 54.2344C19.3945 54.4115 19.4922 54.612 19.5547 54.8359C19.6198 55.0573 19.6523 55.2852 19.6523 55.5195C19.6523 55.7878 19.6146 56.0391 19.5391 56.2734C19.4635 56.5078 19.3503 56.7135 19.1992 56.8906C19.0508 57.0677 18.8672 57.2057 18.6484 57.3047C18.4297 57.4036 18.1758 57.4531 17.8867 57.4531C17.5794 57.4531 17.3112 57.3906 17.082 57.2656C16.8529 57.138 16.6628 56.9688 16.5117 56.7578C16.3607 56.5469 16.2474 56.3125 16.1719 56.0547C16.0964 55.7969 16.0586 55.5352 16.0586 55.2695V54.9297C16.0586 54.5286 16.099 54.1354 16.1797 53.75C16.2604 53.3646 16.3997 53.0156 16.5977 52.7031C16.7982 52.3906 17.0755 52.1419 17.4297 51.957C17.7839 51.7721 18.2357 51.6797 18.7852 51.6797ZM24.082 54.0781V54.9453C24.082 55.4115 24.0404 55.8047 23.957 56.125C23.8737 56.4453 23.7539 56.7031 23.5977 56.8984C23.4414 57.0938 23.2526 57.2357 23.0312 57.3242C22.8125 57.4102 22.5651 57.4531 22.2891 57.4531C22.0703 57.4531 21.8685 57.4258 21.6836 57.3711C21.4987 57.3164 21.332 57.2292 21.1836 57.1094C21.0378 56.987 20.9128 56.8281 20.8086 56.6328C20.7044 56.4375 20.625 56.2005 20.5703 55.9219C20.5156 55.6432 20.4883 55.3177 20.4883 54.9453V54.0781C20.4883 53.612 20.5299 53.2214 20.6133 52.9062C20.6992 52.5911 20.8203 52.3385 20.9766 52.1484C21.1328 51.9557 21.3203 51.8177 21.5391 51.7344C21.7604 51.651 22.0078 51.6094 22.2812 51.6094C22.5026 51.6094 22.7057 51.6367 22.8906 51.6914C23.0781 51.7435 23.2448 51.8281 23.3906 51.9453C23.5365 52.0599 23.6602 52.2135 23.7617 52.4062C23.8659 52.5964 23.9453 52.8294 24 53.1055C24.0547 53.3815 24.082 53.7057 24.082 54.0781ZM23.3555 55.0625V53.957C23.3555 53.7018 23.3398 53.4779 23.3086 53.2852C23.2799 53.0898 23.237 52.9232 23.1797 52.7852C23.1224 52.6471 23.0495 52.5352 22.9609 52.4492C22.875 52.3633 22.7747 52.3008 22.6602 52.2617C22.5482 52.2201 22.4219 52.1992 22.2812 52.1992C22.1094 52.1992 21.957 52.2318 21.8242 52.2969C21.6914 52.3594 21.5794 52.4596 21.4883 52.5977C21.3997 52.7357 21.332 52.9167 21.2852 53.1406C21.2383 53.3646 21.2148 53.6367 21.2148 53.957V55.0625C21.2148 55.3177 21.2292 55.543 21.2578 55.7383C21.2891 55.9336 21.3346 56.1029 21.3945 56.2461C21.4544 56.3867 21.5273 56.5026 21.6133 56.5938C21.6992 56.6849 21.7982 56.7526 21.9102 56.7969C22.0247 56.8385 22.151 56.8594 22.2891 56.8594C22.4661 56.8594 22.6211 56.8255 22.7539 56.7578C22.8867 56.6901 22.9974 56.5846 23.0859 56.4414C23.1771 56.2956 23.2448 56.1094 23.2891 55.8828C23.3333 55.6536 23.3555 55.3802 23.3555 55.0625Z" fill="white"/>
<line x1="33.5" y1="54.5" x2="223.5" y2="54.5" stroke="white" stroke-opacity="0.4" stroke-miterlimit="16" stroke-linecap="round" stroke-linejoin="round" stroke-dasharray="0.1 3"/>
<path opacity="0.8" d="M1.98828 80.4258H2.50391C2.75651 80.4258 2.96484 80.3841 3.12891 80.3008C3.29557 80.2148 3.41927 80.099 3.5 79.9531C3.58333 79.8047 3.625 79.638 3.625 79.4531C3.625 79.2344 3.58854 79.0508 3.51562 78.9023C3.44271 78.7539 3.33333 78.6419 3.1875 78.5664C3.04167 78.4909 2.85677 78.4531 2.63281 78.4531C2.42969 78.4531 2.25 78.4935 2.09375 78.5742C1.9401 78.6523 1.81901 78.7643 1.73047 78.9102C1.64453 79.056 1.60156 79.2279 1.60156 79.4258H0.878906C0.878906 79.1367 0.951823 78.8737 1.09766 78.6367C1.24349 78.3997 1.44792 78.2109 1.71094 78.0703C1.97656 77.9297 2.28385 77.8594 2.63281 77.8594C2.97656 77.8594 3.27734 77.9206 3.53516 78.043C3.79297 78.1628 3.99349 78.3424 4.13672 78.582C4.27995 78.819 4.35156 79.1146 4.35156 79.4688C4.35156 79.612 4.31771 79.7656 4.25 79.9297C4.1849 80.0911 4.08203 80.2422 3.94141 80.3828C3.80339 80.5234 3.6237 80.6393 3.40234 80.7305C3.18099 80.819 2.91536 80.8633 2.60547 80.8633H1.98828V80.4258ZM1.98828 81.0195V80.5859H2.60547C2.96745 80.5859 3.26693 80.6289 3.50391 80.7148C3.74089 80.8008 3.92708 80.9154 4.0625 81.0586C4.20052 81.2018 4.29688 81.3594 4.35156 81.5312C4.40885 81.7005 4.4375 81.8698 4.4375 82.0391C4.4375 82.3047 4.39193 82.5404 4.30078 82.7461C4.21224 82.9518 4.08594 83.1263 3.92188 83.2695C3.76042 83.4128 3.57031 83.5208 3.35156 83.5938C3.13281 83.6667 2.89453 83.7031 2.63672 83.7031C2.38932 83.7031 2.15625 83.668 1.9375 83.5977C1.72135 83.5273 1.52995 83.4258 1.36328 83.293C1.19661 83.1576 1.06641 82.9922 0.972656 82.7969C0.878906 82.599 0.832031 82.3737 0.832031 82.1211H1.55469C1.55469 82.319 1.59766 82.4922 1.68359 82.6406C1.77214 82.7891 1.89714 82.9049 2.05859 82.9883C2.22266 83.069 2.41536 83.1094 2.63672 83.1094C2.85807 83.1094 3.04818 83.0716 3.20703 82.9961C3.36849 82.918 3.49219 82.8008 3.57812 82.6445C3.66667 82.4883 3.71094 82.2917 3.71094 82.0547C3.71094 81.8177 3.66146 81.6237 3.5625 81.4727C3.46354 81.319 3.32292 81.2057 3.14062 81.1328C2.96094 81.0573 2.7487 81.0195 2.50391 81.0195H1.98828ZM9.00391 80.3281V81.1953C9.00391 81.6615 8.96224 82.0547 8.87891 82.375C8.79557 82.6953 8.67578 82.9531 8.51953 83.1484C8.36328 83.3438 8.17448 83.4857 7.95312 83.5742C7.73438 83.6602 7.48698 83.7031 7.21094 83.7031C6.99219 83.7031 6.79036 83.6758 6.60547 83.6211C6.42057 83.5664 6.25391 83.4792 6.10547 83.3594C5.95964 83.237 5.83464 83.0781 5.73047 82.8828C5.6263 82.6875 5.54688 82.4505 5.49219 82.1719C5.4375 81.8932 5.41016 81.5677 5.41016 81.1953V80.3281C5.41016 79.862 5.45182 79.4714 5.53516 79.1562C5.62109 78.8411 5.74219 78.5885 5.89844 78.3984C6.05469 78.2057 6.24219 78.0677 6.46094 77.9844C6.68229 77.901 6.92969 77.8594 7.20312 77.8594C7.42448 77.8594 7.6276 77.8867 7.8125 77.9414C8 77.9935 8.16667 78.0781 8.3125 78.1953C8.45833 78.3099 8.58203 78.4635 8.68359 78.6562C8.78776 78.8464 8.86719 79.0794 8.92188 79.3555C8.97656 79.6315 9.00391 79.9557 9.00391 80.3281ZM8.27734 81.3125V80.207C8.27734 79.9518 8.26172 79.7279 8.23047 79.5352C8.20182 79.3398 8.15885 79.1732 8.10156 79.0352C8.04427 78.8971 7.97135 78.7852 7.88281 78.6992C7.79688 78.6133 7.69661 78.5508 7.58203 78.5117C7.47005 78.4701 7.34375 78.4492 7.20312 78.4492C7.03125 78.4492 6.87891 78.4818 6.74609 78.5469C6.61328 78.6094 6.5013 78.7096 6.41016 78.8477C6.32161 78.9857 6.25391 79.1667 6.20703 79.3906C6.16016 79.6146 6.13672 79.8867 6.13672 80.207V81.3125C6.13672 81.5677 6.15104 81.793 6.17969 81.9883C6.21094 82.1836 6.25651 82.3529 6.31641 82.4961C6.3763 82.6367 6.44922 82.7526 6.53516 82.8438C6.62109 82.9349 6.72005 83.0026 6.83203 83.0469C6.94661 83.0885 7.07292 83.1094 7.21094 83.1094C7.38802 83.1094 7.54297 83.0755 7.67578 83.0078C7.80859 82.9401 7.91927 82.8346 8.00781 82.6914C8.09896 82.5456 8.16667 82.3594 8.21094 82.1328C8.25521 81.9036 8.27734 81.6302 8.27734 81.3125ZM10.668 82.7656V83.3477C10.668 83.5846 10.6081 83.8346 10.4883 84.0977C10.3685 84.3633 10.2005 84.5846 9.98438 84.7617L9.57422 84.4766C9.65755 84.362 9.72786 84.2448 9.78516 84.125C9.84245 84.0078 9.88542 83.8854 9.91406 83.7578C9.94531 83.6328 9.96094 83.5 9.96094 83.3594V82.7656H10.668ZM12.5664 80.4258H13.082C13.3346 80.4258 13.543 80.3841 13.707 80.3008C13.8737 80.2148 13.9974 80.099 14.0781 79.9531C14.1615 79.8047 14.2031 79.638 14.2031 79.4531C14.2031 79.2344 14.1667 79.0508 14.0938 78.9023C14.0208 78.7539 13.9115 78.6419 13.7656 78.5664C13.6198 78.4909 13.4349 78.4531 13.2109 78.4531C13.0078 78.4531 12.8281 78.4935 12.6719 78.5742C12.5182 78.6523 12.3971 78.7643 12.3086 78.9102C12.2227 79.056 12.1797 79.2279 12.1797 79.4258H11.457C11.457 79.1367 11.5299 78.8737 11.6758 78.6367C11.8216 78.3997 12.026 78.2109 12.2891 78.0703C12.5547 77.9297 12.862 77.8594 13.2109 77.8594C13.5547 77.8594 13.8555 77.9206 14.1133 78.043C14.3711 78.1628 14.5716 78.3424 14.7148 78.582C14.8581 78.819 14.9297 79.1146 14.9297 79.4688C14.9297 79.612 14.8958 79.7656 14.8281 79.9297C14.763 80.0911 14.6602 80.2422 14.5195 80.3828C14.3815 80.5234 14.2018 80.6393 13.9805 80.7305C13.7591 80.819 13.4935 80.8633 13.1836 80.8633H12.5664V80.4258ZM12.5664 81.0195V80.5859H13.1836C13.5456 80.5859 13.8451 80.6289 14.082 80.7148C14.319 80.8008 14.5052 80.9154 14.6406 81.0586C14.7786 81.2018 14.875 81.3594 14.9297 81.5312C14.987 81.7005 15.0156 81.8698 15.0156 82.0391C15.0156 82.3047 14.9701 82.5404 14.8789 82.7461C14.7904 82.9518 14.6641 83.1263 14.5 83.2695C14.3385 83.4128 14.1484 83.5208 13.9297 83.5938C13.7109 83.6667 13.4727 83.7031 13.2148 83.7031C12.9674 83.7031 12.7344 83.668 12.5156 83.5977C12.2995 83.5273 12.1081 83.4258 11.9414 83.293C11.7747 83.1576 11.6445 82.9922 11.5508 82.7969C11.457 82.599 11.4102 82.3737 11.4102 82.1211H12.1328C12.1328 82.319 12.1758 82.4922 12.2617 82.6406C12.3503 82.7891 12.4753 82.9049 12.6367 82.9883C12.8008 83.069 12.9935 83.1094 13.2148 83.1094C13.4362 83.1094 13.6263 83.0716 13.7852 82.9961C13.9466 82.918 14.0703 82.8008 14.1562 82.6445C14.2448 82.4883 14.2891 82.2917 14.2891 82.0547C14.2891 81.8177 14.2396 81.6237 14.1406 81.4727C14.0417 81.319 13.901 81.2057 13.7188 81.1328C13.5391 81.0573 13.3268 81.0195 13.082 81.0195H12.5664ZM16.9258 80.918L16.3477 80.7695L16.6328 77.9375H19.5508V78.6055H17.2461L17.0742 80.1523C17.1784 80.0924 17.3099 80.0365 17.4688 79.9844C17.6302 79.9323 17.8151 79.9062 18.0234 79.9062C18.2865 79.9062 18.5221 79.9518 18.7305 80.043C18.9388 80.1315 19.1159 80.2591 19.2617 80.4258C19.4102 80.5924 19.5234 80.793 19.6016 81.0273C19.6797 81.2617 19.7188 81.5234 19.7188 81.8125C19.7188 82.0859 19.681 82.3372 19.6055 82.5664C19.5326 82.7956 19.4219 82.9961 19.2734 83.168C19.125 83.3372 18.9375 83.4688 18.7109 83.5625C18.487 83.6562 18.2227 83.7031 17.918 83.7031C17.6888 83.7031 17.4714 83.6719 17.2656 83.6094C17.0625 83.5443 16.8802 83.4466 16.7188 83.3164C16.5599 83.1836 16.4297 83.0195 16.3281 82.8242C16.2292 82.6263 16.1667 82.3945 16.1406 82.1289H16.8281C16.8594 82.3424 16.9219 82.5221 17.0156 82.668C17.1094 82.8138 17.2318 82.9245 17.3828 83C17.5365 83.0729 17.7148 83.1094 17.918 83.1094C18.0898 83.1094 18.2422 83.0794 18.375 83.0195C18.5078 82.9596 18.6198 82.8737 18.7109 82.7617C18.8021 82.6497 18.8711 82.5143 18.918 82.3555C18.9674 82.1966 18.9922 82.0182 18.9922 81.8203C18.9922 81.6406 18.9674 81.474 18.918 81.3203C18.8685 81.1667 18.7943 81.0326 18.6953 80.918C18.599 80.8034 18.4805 80.7148 18.3398 80.6523C18.1992 80.5872 18.0378 80.5547 17.8555 80.5547C17.6133 80.5547 17.4297 80.5872 17.3047 80.6523C17.1823 80.7174 17.056 80.806 16.9258 80.918ZM21.4258 80.918L20.8477 80.7695L21.1328 77.9375H24.0508V78.6055H21.7461L21.5742 80.1523C21.6784 80.0924 21.8099 80.0365 21.9688 79.9844C22.1302 79.9323 22.3151 79.9062 22.5234 79.9062C22.7865 79.9062 23.0221 79.9518 23.2305 80.043C23.4388 80.1315 23.6159 80.2591 23.7617 80.4258C23.9102 80.5924 24.0234 80.793 24.1016 81.0273C24.1797 81.2617 24.2188 81.5234 24.2188 81.8125C24.2188 82.0859 24.181 82.3372 24.1055 82.5664C24.0326 82.7956 23.9219 82.9961 23.7734 83.168C23.625 83.3372 23.4375 83.4688 23.2109 83.5625C22.987 83.6562 22.7227 83.7031 22.418 83.7031C22.1888 83.7031 21.9714 83.6719 21.7656 83.6094C21.5625 83.5443 21.3802 83.4466 21.2188 83.3164C21.0599 83.1836 20.9297 83.0195 20.8281 82.8242C20.7292 82.6263 20.6667 82.3945 20.6406 82.1289H21.3281C21.3594 82.3424 21.4219 82.5221 21.5156 82.668C21.6094 82.8138 21.7318 82.9245 21.8828 83C22.0365 83.0729 22.2148 83.1094 22.418 83.1094C22.5898 83.1094 22.7422 83.0794 22.875 83.0195C23.0078 82.9596 23.1198 82.8737 23.2109 82.7617C23.3021 82.6497 23.3711 82.5143 23.418 82.3555C23.4674 82.1966 23.4922 82.0182 23.4922 81.8203C23.4922 81.6406 23.4674 81.474 23.418 81.3203C23.3685 81.1667 23.2943 81.0326 23.1953 80.918C23.099 80.8034 22.9805 80.7148 22.8398 80.6523C22.6992 80.5872 22.5378 80.5547 22.3555 80.5547C22.1133 80.5547 21.9297 80.5872 21.8047 80.6523C21.6823 80.7174 21.556 80.806 21.4258 80.918Z" fill="white"/>
<line x1="33.5" y1="81" x2="223.5" y2="81" stroke="white" stroke-opacity="0.4" stroke-miterlimit="16" stroke-linecap="round" stroke-linejoin="round" stroke-dasharray="0.1 3"/>
<rect width="191" height="1" transform="matrix(1 0 0 -1 33 109)" fill="white" fill-opacity="0.15"/>
</g>
<defs>
<linearGradient id="paint0_linear_37265_57561" x1="34" y1="96" x2="34" y2="107" gradientUnits="userSpaceOnUse">
<stop stop-color="white"/>
<stop offset="0.0001" stop-color="#878787"/>
<stop offset="1" stop-color="#575757" stop-opacity="0"/>
</linearGradient>
<linearGradient id="paint1_linear_37265_57561" x1="37" y1="96" x2="37" y2="107" gradientUnits="userSpaceOnUse">
<stop stop-color="white"/>
<stop offset="0.0001" stop-color="#878787"/>
<stop offset="1" stop-color="#575757" stop-opacity="0"/>
</linearGradient>
<linearGradient id="paint2_linear_37265_57561" x1="40" y1="93" x2="40" y2="107" gradientUnits="userSpaceOnUse">
<stop stop-color="white"/>
<stop offset="0.0001" stop-color="#878787"/>
<stop offset="1" stop-color="#575757" stop-opacity="0"/>
</linearGradient>
<linearGradient id="paint3_linear_37265_57561" x1="43" y1="93" x2="43" y2="107" gradientUnits="userSpaceOnUse">
<stop stop-color="white"/>
<stop offset="0.0001" stop-color="#878787"/>
<stop offset="1" stop-color="#575757" stop-opacity="0"/>
</linearGradient>
<linearGradient id="paint4_linear_37265_57561" x1="46" y1="91" x2="46" y2="107" gradientUnits="userSpaceOnUse">
<stop stop-color="white"/>
<stop offset="0.0001" stop-color="#878787"/>
<stop offset="1" stop-color="#575757" stop-opacity="0"/>
</linearGradient>
<linearGradient id="paint5_linear_37265_57561" x1="49" y1="91" x2="49" y2="107" gradientUnits="userSpaceOnUse">
<stop stop-color="white"/>
<stop offset="0.0001" stop-color="#878787"/>
<stop offset="1" stop-color="#575757" stop-opacity="0"/>
</linearGradient>
<linearGradient id="paint6_linear_37265_57561" x1="52" y1="91" x2="52" y2="107" gradientUnits="userSpaceOnUse">
<stop stop-color="white"/>
<stop offset="0.0001" stop-color="#878787"/>
<stop offset="1" stop-color="#575757" stop-opacity="0"/>
</linearGradient>
<linearGradient id="paint7_linear_37265_57561" x1="55" y1="91" x2="55" y2="107" gradientUnits="userSpaceOnUse">
<stop stop-color="white"/>
<stop offset="0.0001" stop-color="#878787"/>
<stop offset="1" stop-color="#575757" stop-opacity="0"/>
</linearGradient>
<linearGradient id="paint8_linear_37265_57561" x1="58" y1="93" x2="58" y2="107" gradientUnits="userSpaceOnUse">
<stop stop-color="white"/>
<stop offset="0.0001" stop-color="#878787"/>
<stop offset="1" stop-color="#575757" stop-opacity="0"/>
</linearGradient>
<linearGradient id="paint9_linear_37265_57561" x1="61" y1="93" x2="61" y2="107" gradientUnits="userSpaceOnUse">
<stop stop-color="white"/>
<stop offset="0.0001" stop-color="#878787"/>
<stop offset="1" stop-color="#575757" stop-opacity="0"/>
</linearGradient>
<linearGradient id="paint10_linear_37265_57561" x1="64" y1="96" x2="64" y2="107" gradientUnits="userSpaceOnUse">
<stop stop-color="white"/>
<stop offset="0.0001" stop-color="#878787"/>
<stop offset="1" stop-color="#575757" stop-opacity="0"/>
</linearGradient>
<linearGradient id="paint11_linear_37265_57561" x1="67" y1="96" x2="67" y2="107" gradientUnits="userSpaceOnUse">
<stop stop-color="white"/>
<stop offset="0.0001" stop-color="#878787"/>
<stop offset="1" stop-color="#575757" stop-opacity="0"/>
</linearGradient>
<linearGradient id="paint12_linear_37265_57561" x1="70" y1="98" x2="70" y2="107" gradientUnits="userSpaceOnUse">
<stop stop-color="white"/>
<stop offset="0.0001" stop-color="#878787"/>
<stop offset="1" stop-color="#575757" stop-opacity="0"/>
</linearGradient>
<linearGradient id="paint13_linear_37265_57561" x1="73" y1="98" x2="73" y2="107" gradientUnits="userSpaceOnUse">
<stop stop-color="white"/>
<stop offset="0.0001" stop-color="#878787"/>
<stop offset="1" stop-color="#575757" stop-opacity="0"/>
</linearGradient>
<linearGradient id="paint14_linear_37265_57561" x1="76" y1="99" x2="76" y2="107" gradientUnits="userSpaceOnUse">
<stop stop-color="white"/>
<stop offset="0.0001" stop-color="#878787"/>
<stop offset="1" stop-color="#575757" stop-opacity="0"/>
</linearGradient>
<linearGradient id="paint15_linear_37265_57561" x1="79" y1="99" x2="79" y2="107" gradientUnits="userSpaceOnUse">
<stop stop-color="white"/>
<stop offset="0.0001" stop-color="#878787"/>
<stop offset="1" stop-color="#575757" stop-opacity="0"/>
</linearGradient>
<linearGradient id="paint16_linear_37265_57561" x1="82" y1="99" x2="82" y2="107" gradientUnits="userSpaceOnUse">
<stop stop-color="white"/>
<stop offset="0.0001" stop-color="#878787"/>
<stop offset="1" stop-color="#575757" stop-opacity="0"/>
</linearGradient>
<linearGradient id="paint17_linear_37265_57561" x1="85" y1="99" x2="85" y2="107" gradientUnits="userSpaceOnUse">
<stop stop-color="white"/>
<stop offset="0.0001" stop-color="#878787"/>
<stop offset="1" stop-color="#575757" stop-opacity="0"/>
</linearGradient>
<linearGradient id="paint18_linear_37265_57561" x1="88" y1="99" x2="88" y2="107" gradientUnits="userSpaceOnUse">
<stop stop-color="white"/>
<stop offset="0.0001" stop-color="#878787"/>
<stop offset="1" stop-color="#575757" stop-opacity="0"/>
</linearGradient>
<linearGradient id="paint19_linear_37265_57561" x1="91" y1="99" x2="91" y2="107" gradientUnits="userSpaceOnUse">
<stop stop-color="white"/>
<stop offset="0.0001" stop-color="#878787"/>
<stop offset="1" stop-color="#575757" stop-opacity="0"/>
</linearGradient>
<linearGradient id="paint20_linear_37265_57561" x1="94" y1="98" x2="94" y2="107" gradientUnits="userSpaceOnUse">
<stop stop-color="white"/>
<stop offset="0.0001" stop-color="#878787"/>
<stop offset="1" stop-color="#575757" stop-opacity="0"/>
</linearGradient>
<linearGradient id="paint21_linear_37265_57561" x1="97" y1="98" x2="97" y2="107" gradientUnits="userSpaceOnUse">
<stop stop-color="white"/>
<stop offset="0.0001" stop-color="#878787"/>
<stop offset="1" stop-color="#575757" stop-opacity="0"/>
</linearGradient>
<linearGradient id="paint22_linear_37265_57561" x1="100" y1="97" x2="100" y2="107" gradientUnits="userSpaceOnUse">
<stop stop-color="white"/>
<stop offset="0.0001" stop-color="#878787"/>
<stop offset="1" stop-color="#575757" stop-opacity="0"/>
</linearGradient>
<linearGradient id="paint23_linear_37265_57561" x1="103" y1="97" x2="103" y2="107" gradientUnits="userSpaceOnUse">
<stop stop-color="white"/>
<stop offset="0.0001" stop-color="#878787"/>
<stop offset="1" stop-color="#575757" stop-opacity="0"/>
</linearGradient>
<linearGradient id="paint24_linear_37265_57561" x1="106" y1="96" x2="106" y2="107" gradientUnits="userSpaceOnUse">
<stop stop-color="white"/>
<stop offset="0.0001" stop-color="#878787"/>
<stop offset="1" stop-color="#575757" stop-opacity="0"/>
</linearGradient>
<linearGradient id="paint25_linear_37265_57561" x1="109" y1="96" x2="109" y2="107" gradientUnits="userSpaceOnUse">
<stop stop-color="white"/>
<stop offset="0.0001" stop-color="#878787"/>
<stop offset="1" stop-color="#575757" stop-opacity="0"/>
</linearGradient>
<linearGradient id="paint26_linear_37265_57561" x1="112" y1="95" x2="112" y2="107" gradientUnits="userSpaceOnUse">
<stop stop-color="white"/>
<stop offset="0.0001" stop-color="#878787"/>
<stop offset="1" stop-color="#575757" stop-opacity="0"/>
</linearGradient>
<linearGradient id="paint27_linear_37265_57561" x1="115" y1="95" x2="115" y2="107" gradientUnits="userSpaceOnUse">
<stop stop-color="white"/>
<stop offset="0.0001" stop-color="#878787"/>
<stop offset="1" stop-color="#575757" stop-opacity="0"/>
</linearGradient>
<linearGradient id="paint28_linear_37265_57561" x1="118" y1="93" x2="118" y2="107" gradientUnits="userSpaceOnUse">
<stop stop-color="white"/>
<stop offset="0.0001" stop-color="#878787"/>
<stop offset="1" stop-color="#575757" stop-opacity="0"/>
</linearGradient>
<linearGradient id="paint29_linear_37265_57561" x1="121" y1="93" x2="121" y2="107" gradientUnits="userSpaceOnUse">
<stop stop-color="white"/>
<stop offset="0.0001" stop-color="#878787"/>
<stop offset="1" stop-color="#575757" stop-opacity="0"/>
</linearGradient>
<linearGradient id="paint30_linear_37265_57561" x1="124" y1="90" x2="124" y2="107" gradientUnits="userSpaceOnUse">
<stop stop-color="white"/>
<stop offset="0.0001" stop-color="#878787"/>
<stop offset="1" stop-color="#575757" stop-opacity="0"/>
</linearGradient>
<linearGradient id="paint31_linear_37265_57561" x1="127" y1="90" x2="127" y2="107" gradientUnits="userSpaceOnUse">
<stop stop-color="white"/>
<stop offset="0.0001" stop-color="#878787"/>
<stop offset="1" stop-color="#575757" stop-opacity="0"/>
</linearGradient>
<linearGradient id="paint32_linear_37265_57561" x1="130" y1="87" x2="130" y2="107" gradientUnits="userSpaceOnUse">
<stop stop-color="white"/>
<stop offset="0.0001" stop-color="#878787"/>
<stop offset="1" stop-color="#575757" stop-opacity="0"/>
</linearGradient>
<linearGradient id="paint33_linear_37265_57561" x1="133" y1="87" x2="133" y2="107" gradientUnits="userSpaceOnUse">
<stop stop-color="white"/>
<stop offset="0.0001" stop-color="#878787"/>
<stop offset="1" stop-color="#575757" stop-opacity="0"/>
</linearGradient>
<linearGradient id="paint34_linear_37265_57561" x1="136" y1="86" x2="136" y2="107" gradientUnits="userSpaceOnUse">
<stop stop-color="white"/>
<stop offset="0.0001" stop-color="#878787"/>
<stop offset="1" stop-color="#575757" stop-opacity="0"/>
</linearGradient>
<linearGradient id="paint35_linear_37265_57561" x1="139" y1="86" x2="139" y2="107" gradientUnits="userSpaceOnUse">
<stop stop-color="white"/>
<stop offset="0.0001" stop-color="#878787"/>
<stop offset="1" stop-color="#575757" stop-opacity="0"/>
</linearGradient>
<linearGradient id="paint36_linear_37265_57561" x1="142" y1="86" x2="142" y2="107" gradientUnits="userSpaceOnUse">
<stop stop-color="white"/>
<stop offset="0.0001" stop-color="#878787"/>
<stop offset="1" stop-color="#575757" stop-opacity="0"/>
</linearGradient>
<linearGradient id="paint37_linear_37265_57561" x1="145" y1="86" x2="145" y2="107" gradientUnits="userSpaceOnUse">
<stop stop-color="white"/>
<stop offset="0.0001" stop-color="#878787"/>
<stop offset="1" stop-color="#575757" stop-opacity="0"/>
</linearGradient>
<linearGradient id="paint38_linear_37265_57561" x1="148" y1="87" x2="148" y2="107" gradientUnits="userSpaceOnUse">
<stop stop-color="white"/>
<stop offset="0.0001" stop-color="#878787"/>
<stop offset="1" stop-color="#575757" stop-opacity="0"/>
</linearGradient>
<linearGradient id="paint39_linear_37265_57561" x1="151" y1="87" x2="151" y2="107" gradientUnits="userSpaceOnUse">
<stop stop-color="white"/>
<stop offset="0.0001" stop-color="#878787"/>
<stop offset="1" stop-color="#575757" stop-opacity="0"/>
</linearGradient>
<linearGradient id="paint40_linear_37265_57561" x1="154" y1="90" x2="154" y2="107" gradientUnits="userSpaceOnUse">
<stop stop-color="white"/>
<stop offset="0.0001" stop-color="#878787"/>
<stop offset="1" stop-color="#575757" stop-opacity="0"/>
</linearGradient>
<linearGradient id="paint41_linear_37265_57561" x1="157" y1="90" x2="157" y2="107" gradientUnits="userSpaceOnUse">
<stop stop-color="white"/>
<stop offset="0.0001" stop-color="#878787"/>
<stop offset="1" stop-color="#575757" stop-opacity="0"/>
</linearGradient>
<linearGradient id="paint42_linear_37265_57561" x1="160" y1="91" x2="160" y2="107" gradientUnits="userSpaceOnUse">
<stop stop-color="white"/>
<stop offset="0.0001" stop-color="#878787"/>
<stop offset="1" stop-color="#575757" stop-opacity="0"/>
</linearGradient>
<linearGradient id="paint43_linear_37265_57561" x1="163" y1="91" x2="163" y2="107" gradientUnits="userSpaceOnUse">
<stop stop-color="white"/>
<stop offset="0.0001" stop-color="#878787"/>
<stop offset="1" stop-color="#575757" stop-opacity="0"/>
</linearGradient>
<linearGradient id="paint44_linear_37265_57561" x1="166" y1="92" x2="166" y2="107" gradientUnits="userSpaceOnUse">
<stop stop-color="white"/>
<stop offset="0.0001" stop-color="#878787"/>
<stop offset="1" stop-color="#575757" stop-opacity="0"/>
</linearGradient>
<linearGradient id="paint45_linear_37265_57561" x1="169" y1="92" x2="169" y2="107" gradientUnits="userSpaceOnUse">
<stop stop-color="white"/>
<stop offset="0.0001" stop-color="#878787"/>
<stop offset="1" stop-color="#575757" stop-opacity="0"/>
</linearGradient>
<linearGradient id="paint46_linear_37265_57561" x1="172" y1="91" x2="172" y2="107" gradientUnits="userSpaceOnUse">
<stop stop-color="white"/>
<stop offset="0.0001" stop-color="#878787"/>
<stop offset="1" stop-color="#575757" stop-opacity="0"/>
</linearGradient>
<linearGradient id="paint47_linear_37265_57561" x1="175" y1="91" x2="175" y2="107" gradientUnits="userSpaceOnUse">
<stop stop-color="white"/>
<stop offset="0.0001" stop-color="#878787"/>
<stop offset="1" stop-color="#575757" stop-opacity="0"/>
</linearGradient>
<linearGradient id="paint48_linear_37265_57561" x1="178" y1="90" x2="178" y2="107" gradientUnits="userSpaceOnUse">
<stop stop-color="white"/>
<stop offset="0.0001" stop-color="#878787"/>
<stop offset="1" stop-color="#575757" stop-opacity="0"/>
</linearGradient>
<linearGradient id="paint49_linear_37265_57561" x1="181" y1="90" x2="181" y2="107" gradientUnits="userSpaceOnUse">
<stop stop-color="white"/>
<stop offset="0.0001" stop-color="#878787"/>
<stop offset="1" stop-color="#575757" stop-opacity="0"/>
</linearGradient>
<linearGradient id="paint50_linear_37265_57561" x1="184" y1="90" x2="184" y2="107" gradientUnits="userSpaceOnUse">
<stop stop-color="white"/>
<stop offset="0.0001" stop-color="#878787"/>
<stop offset="1" stop-color="#575757" stop-opacity="0"/>
</linearGradient>
<linearGradient id="paint51_linear_37265_57561" x1="187" y1="90" x2="187" y2="107" gradientUnits="userSpaceOnUse">
<stop stop-color="white"/>
<stop offset="0.0001" stop-color="#878787"/>
<stop offset="1" stop-color="#575757" stop-opacity="0"/>
</linearGradient>
<linearGradient id="paint52_linear_37265_57561" x1="190" y1="89" x2="190" y2="107" gradientUnits="userSpaceOnUse">
<stop stop-color="white"/>
<stop offset="0.0001" stop-color="#878787"/>
<stop offset="1" stop-color="#575757" stop-opacity="0"/>
</linearGradient>
<linearGradient id="paint53_linear_37265_57561" x1="193" y1="89" x2="193" y2="107" gradientUnits="userSpaceOnUse">
<stop stop-color="white"/>
<stop offset="0.0001" stop-color="#878787"/>
<stop offset="1" stop-color="#575757" stop-opacity="0"/>
</linearGradient>
<linearGradient id="paint54_linear_37265_57561" x1="196" y1="90" x2="196" y2="107" gradientUnits="userSpaceOnUse">
<stop stop-color="white"/>
<stop offset="0.0001" stop-color="#878787"/>
<stop offset="1" stop-color="#575757" stop-opacity="0"/>
</linearGradient>
<linearGradient id="paint55_linear_37265_57561" x1="199" y1="90" x2="199" y2="107" gradientUnits="userSpaceOnUse">
<stop stop-color="white"/>
<stop offset="0.0001" stop-color="#878787"/>
<stop offset="1" stop-color="#575757" stop-opacity="0"/>
</linearGradient>
<linearGradient id="paint56_linear_37265_57561" x1="202" y1="90" x2="202" y2="107" gradientUnits="userSpaceOnUse">
<stop stop-color="white"/>
<stop offset="0.0001" stop-color="#878787"/>
<stop offset="1" stop-color="#575757" stop-opacity="0"/>
</linearGradient>
<linearGradient id="paint57_linear_37265_57561" x1="205" y1="90" x2="205" y2="107" gradientUnits="userSpaceOnUse">
<stop stop-color="white"/>
<stop offset="0.0001" stop-color="#878787"/>
<stop offset="1" stop-color="#575757" stop-opacity="0"/>
</linearGradient>
<linearGradient id="paint58_linear_37265_57561" x1="208" y1="92" x2="208" y2="107" gradientUnits="userSpaceOnUse">
<stop stop-color="white"/>
<stop offset="0.0001" stop-color="#878787"/>
<stop offset="1" stop-color="#575757" stop-opacity="0"/>
</linearGradient>
<linearGradient id="paint59_linear_37265_57561" x1="211" y1="92" x2="211" y2="107" gradientUnits="userSpaceOnUse">
<stop stop-color="white"/>
<stop offset="0.0001" stop-color="#878787"/>
<stop offset="1" stop-color="#575757" stop-opacity="0"/>
</linearGradient>
<linearGradient id="paint60_linear_37265_57561" x1="214" y1="94" x2="214" y2="107" gradientUnits="userSpaceOnUse">
<stop stop-color="white"/>
<stop offset="0.0001" stop-color="#878787"/>
<stop offset="1" stop-color="#575757" stop-opacity="0"/>
</linearGradient>
<linearGradient id="paint61_linear_37265_57561" x1="217" y1="94" x2="217" y2="107" gradientUnits="userSpaceOnUse">
<stop stop-color="white"/>
<stop offset="0.0001" stop-color="#878787"/>
<stop offset="1" stop-color="#575757" stop-opacity="0"/>
</linearGradient>
<linearGradient id="paint62_linear_37265_57561" x1="220" y1="94" x2="220" y2="107" gradientUnits="userSpaceOnUse">
<stop stop-color="white"/>
<stop offset="0.0001" stop-color="#878787"/>
<stop offset="1" stop-color="#575757" stop-opacity="0"/>
</linearGradient>
<linearGradient id="paint63_linear_37265_57561" x1="223" y1="94" x2="223" y2="107" gradientUnits="userSpaceOnUse">
<stop stop-color="white"/>
<stop offset="0.0001" stop-color="#878787"/>
<stop offset="1" stop-color="#575757" stop-opacity="0"/>
</linearGradient>
<linearGradient id="paint64_linear_37265_57561" x1="128.5" y1="16.1377" x2="128.5" y2="77.3995" gradientUnits="userSpaceOnUse">
<stop stop-color="#5CFFC4"/>
<stop offset="1" stop-color="#5CFFC4" stop-opacity="0"/>
</linearGradient>
<clipPath id="clip0_37265_57561">
<rect width="224" height="109" fill="white"/>
</clipPath>
</defs>
</svg>
