<svg width="178" height="47" viewBox="0 0 178 47" fill="none" xmlns="http://www.w3.org/2000/svg">
<g opacity="0.6">
<path fill-rule="evenodd" clip-rule="evenodd" d="M10.9602 21.3484C11.257 21.59 11.6154 22.0972 12.0048 23.0235C12.7865 24.9648 13.587 26.2599 14.4093 27.2128C15.2328 28.167 16.0609 28.757 16.8521 29.296C16.9163 29.3397 16.9801 29.383 17.0436 29.4261C17.7656 29.9162 18.444 30.3767 19.1219 31.0702C19.8542 31.8193 20.5983 32.8553 21.3448 34.5041L21.3482 34.5114C22.1608 36.2311 22.9863 37.462 23.8436 38.2396C24.7137 39.0288 25.6388 39.3677 26.6006 39.2378C27.5357 39.1114 28.4135 38.5532 29.2367 37.7512C30.0645 36.9448 30.8803 35.8496 31.69 34.5643L31.695 34.5563C32.0527 33.9638 32.3861 33.6317 32.6802 33.455C32.9629 33.2852 33.2363 33.2423 33.5227 33.2799C33.8232 33.3194 34.1506 33.4498 34.5174 33.6525C34.8444 33.8332 35.173 34.0538 35.5236 34.2891C35.5672 34.3184 35.6111 34.3479 35.6555 34.3776C36.0455 34.6388 36.4637 34.9129 36.89 35.1196C37.317 35.3267 37.7862 35.4835 38.2817 35.4814C39.3359 35.4767 40.2419 34.7703 41.0424 33.2252C41.8151 31.7955 42.5416 31.102 43.1986 30.7816C43.8468 30.4656 44.5042 30.475 45.2347 30.6226C45.5871 30.6938 45.942 30.7938 46.3192 30.9002L46.3735 30.9156C46.7637 31.0255 47.1775 31.1407 47.5972 31.2181C48.4464 31.3746 49.3649 31.3851 50.3008 30.8899L50.3087 30.8857C51.0889 30.455 51.8715 29.8916 52.6301 29.3456L52.682 29.3082C53.468 28.7425 54.2302 28.197 54.9899 27.7823C55.7493 27.3677 56.4671 27.1063 57.1565 27.0777C57.8277 27.0498 58.5098 27.2405 59.2188 27.802C60.0105 28.4571 60.8069 28.9776 61.591 29.4639C61.7926 29.589 61.9922 29.7111 62.1906 29.8324C62.7722 30.1882 63.3426 30.5371 63.9171 30.932C65.4344 31.9751 66.9478 33.3198 68.439 35.7896L68.4439 35.7978C68.5528 35.9707 68.6618 36.1437 68.7707 36.3169C70.2521 38.6719 71.7344 41.0282 73.2233 42.7379C74.0239 43.6572 74.8518 44.4202 75.7121 44.8971C76.5822 45.3794 77.5069 45.5793 78.4615 45.3268L78.4667 45.3254C79.3632 45.0779 80.2144 44.4181 81.0113 43.6064C81.8165 42.7862 82.6172 41.7568 83.4022 40.6964C83.6785 40.3232 83.952 39.9473 84.2238 39.5738C84.7327 38.8743 85.2359 38.1828 85.7414 37.5306C86.514 36.5337 87.2604 35.6715 87.982 35.073C89.4534 33.9069 90.8652 33.7197 92.301 34.0107C93.7448 34.3032 95.204 35.0756 96.7782 35.9088L96.892 35.9689C96.8933 35.9697 96.8946 35.9704 96.8959 35.9711C98.4153 36.8099 100.048 37.6968 101.701 38.0318C103.393 38.3747 105.118 38.1426 106.782 36.7662C107.626 36.0957 108.453 35.1617 109.252 34.1805C109.628 33.72 109.987 33.2626 110.342 32.81C110.771 32.2633 111.195 31.7238 111.635 31.1948C112.422 30.2476 113.175 29.4438 113.901 28.9281C114.626 28.4124 115.243 28.2401 115.801 28.3941L115.806 28.3955C116.443 28.5642 117.149 29.1421 117.923 30.1039C118.684 31.0501 119.452 32.291 120.232 33.6622C120.651 34.3964 121.073 35.1698 121.499 35.95C122.644 38.0442 123.815 40.1876 124.998 41.7546C125.823 42.8908 126.708 43.4373 127.655 43.5642C128.572 43.6872 129.46 43.4012 130.256 43.0769C130.52 42.969 130.772 42.8587 131.016 42.7519C131.545 42.5198 132.037 42.3041 132.545 42.1652C133.25 41.9724 133.879 41.965 134.492 42.3036L134.5 42.3079C135.209 42.683 135.913 43.1452 136.638 43.6205C136.705 43.6644 136.772 43.7083 136.839 43.7523C137.624 44.2666 138.434 44.7878 139.253 45.175C140.074 45.563 140.936 45.8331 141.83 45.8181C142.735 45.8029 143.632 45.4953 144.511 44.7972L144.519 44.7907C145.163 44.258 145.807 43.7111 146.452 43.1643C148.918 41.0743 151.385 38.9826 153.772 37.6641C154.679 37.1825 155.526 36.2202 156.291 35.1738C156.911 34.3274 157.512 33.374 158.073 32.4847C158.214 32.2608 158.353 32.0409 158.489 31.8279C159.181 30.7408 159.779 29.8626 160.283 29.4028C160.541 29.1677 160.69 29.1218 160.747 29.1203C160.747 29.1203 160.747 29.1203 160.747 29.1203C160.754 29.1196 160.822 29.1118 160.941 29.2805L161.798 32.2744C160.929 32.714 160.334 33.6151 160.334 34.6555C160.334 36.1282 161.528 37.3221 163 37.3221C164.473 37.3221 165.667 36.1282 165.667 34.6555C165.667 33.1827 164.473 31.9888 163 31.9888C162.919 31.9888 162.839 31.9924 162.76 31.9995L161.861 28.8625L161.823 28.8021C161.569 28.3991 161.205 28.1079 160.721 28.1207C160.292 28.132 159.914 28.386 159.609 28.6641C158.988 29.2308 158.319 30.2328 157.645 31.2905C157.504 31.5123 157.361 31.7382 157.218 31.966C156.658 32.8526 156.081 33.7677 155.484 34.5834C154.726 35.6202 153.991 36.4167 153.3 36.7824L153.292 36.7866C150.807 38.1583 148.235 40.34 145.761 42.4388C145.128 42.9752 144.502 43.5063 143.886 44.017C143.167 44.5864 142.481 44.8071 141.813 44.8183C141.131 44.8297 140.427 44.6237 139.681 44.271C138.933 43.9174 138.177 43.4334 137.387 42.9158C137.318 42.8711 137.25 42.826 137.181 42.7808C136.466 42.3114 135.723 41.824 134.971 41.4259C134.052 40.9202 133.133 40.9677 132.281 41.2006C131.7 41.3595 131.097 41.6235 130.536 41.8693C130.308 41.9689 130.088 42.0654 129.878 42.1509C129.107 42.4651 128.429 42.659 127.788 42.5731C127.177 42.4912 126.513 42.1413 125.805 41.1638L125.799 41.1556C124.662 39.6515 123.547 37.611 122.416 35.5399C121.981 34.744 121.543 33.9436 121.101 33.1674C120.316 31.7873 119.516 30.4885 118.702 29.4771C117.902 28.4821 117.026 27.6849 116.064 27.4295C115.09 27.1616 114.157 27.5183 113.321 28.1132C112.484 28.7086 111.662 29.5979 110.866 30.5555C110.434 31.0754 109.982 31.6496 109.535 32.2184C109.176 32.6756 108.819 33.1293 108.477 33.5486C107.683 34.5235 106.911 35.387 106.156 35.9861L106.148 35.9926C104.747 37.153 103.34 37.3435 101.9 37.0518C100.421 36.7522 98.9215 35.9471 97.3753 35.0935L97.3675 35.0892C97.3067 35.057 97.2458 35.0248 97.1848 34.9926C95.6622 34.1861 94.0884 33.3525 92.4996 33.0306C90.8035 32.6869 89.0832 32.9223 87.3562 34.293L87.348 34.2995C86.5374 34.9708 85.7352 35.9062 84.951 36.918C84.437 37.5812 83.9171 38.2956 83.4019 39.0036C83.1323 39.3741 82.864 39.7428 82.5985 40.1015C81.8167 41.1575 81.0508 42.1387 80.2977 42.9058C79.5373 43.6804 78.8393 44.1843 78.203 44.3608C77.5585 44.5304 76.9008 44.4127 76.1969 44.0225C75.4822 43.6263 74.7434 42.9608 73.9774 42.0812C72.5421 40.4331 71.1001 38.1412 69.6028 35.7615C69.4996 35.5976 69.3962 35.4332 69.2925 35.2686C67.7178 32.6617 66.0988 31.2184 64.4836 30.1079C63.8851 29.6965 63.2825 29.3279 62.695 28.9686C62.5008 28.8498 62.3082 28.7321 62.118 28.6141C61.3451 28.1347 60.5929 27.6415 59.8526 27.0284L59.8446 27.0217C58.955 26.3158 58.0384 26.0401 57.115 26.0785C56.2086 26.1162 55.3346 26.4547 54.5107 26.9046C53.6871 27.3542 52.8743 27.9377 52.0978 28.4966L52.0716 28.5154C51.2949 29.0745 50.5553 29.6068 49.8294 30.008C49.1666 30.3574 48.5028 30.3681 47.7785 30.2346C47.4106 30.1668 47.039 30.0642 46.6448 29.9531L46.5798 29.9347C46.2121 29.831 45.8235 29.7213 45.4327 29.6424C44.5965 29.4734 43.6872 29.4309 42.7604 29.8828C41.843 30.3301 40.9869 31.2234 40.1604 32.754L40.1562 32.7617C39.4239 34.1768 38.7805 34.4792 38.2773 34.4814C37.9936 34.4826 37.6816 34.3921 37.3263 34.2198C36.9703 34.0472 36.6051 33.81 36.2119 33.5467C36.1686 33.5177 36.1249 33.4884 36.0809 33.4588C35.7356 33.2268 35.3687 32.9804 35.001 32.7772C34.5855 32.5477 34.1316 32.3514 33.653 32.2885C33.1602 32.2237 32.6565 32.3027 32.1652 32.5978C31.6864 32.8855 31.2498 33.36 30.8415 34.0351C30.0521 35.2879 29.2854 36.3076 28.5389 37.0349C27.7871 37.7673 27.0983 38.1614 26.4667 38.2468C25.8618 38.3285 25.2203 38.1383 24.5154 37.4989C23.7982 36.8484 23.0409 35.7523 22.254 34.0877C21.4678 32.3524 20.6625 31.2156 19.837 30.3712C19.0857 29.6026 18.3279 29.0887 17.6125 28.6036C17.5463 28.5587 17.4805 28.5141 17.4152 28.4696C16.6397 27.9413 15.9012 27.411 15.1664 26.5595C14.4309 25.7072 13.6819 24.5121 12.9308 22.6461L12.928 22.6392C12.5178 21.6627 12.0809 20.9713 11.5915 20.5729C11.3398 20.3679 11.0636 20.232 10.7651 20.1865C10.465 20.1409 10.1776 20.1921 9.91379 20.3066C9.40663 20.5266 8.96761 20.9883 8.58812 21.5141C8.20016 22.0516 7.83165 22.7175 7.48473 23.425C7.02345 24.3657 6.57903 25.4266 6.17088 26.401C5.97649 26.865 5.79031 27.3095 5.61449 27.7119C5.36902 26.4926 4.2919 25.5744 3.00032 25.5744C1.52756 25.5744 0.333649 26.7683 0.333649 28.2411C0.333649 29.7138 1.52756 30.9077 3.00032 30.9077C3.46692 30.9077 3.90555 30.7879 4.28706 30.5773L4.36531 30.6717H4.60033C4.89507 30.6717 5.12097 30.5044 5.26514 30.3647C5.41934 30.2152 5.56117 30.0184 5.69197 29.8065C5.95512 29.3801 6.23053 28.7975 6.51242 28.1543C6.70714 27.7101 6.90637 27.2343 7.11101 26.7455C7.51193 25.788 7.93358 24.781 8.38258 23.8653C8.71899 23.1792 9.05882 22.5706 9.39899 22.0993C9.74763 21.6162 10.0565 21.3347 10.3119 21.2239C10.4293 21.1729 10.5268 21.1618 10.6146 21.1752C10.704 21.1888 10.8187 21.2332 10.9602 21.3484Z" fill="url(#paint0_linear_37268_57881)"/>
<path opacity="0.7" d="M3 31L163 31" stroke="url(#paint1_linear_37268_57881)" stroke-dasharray="2 2"/>
</g>
<defs>
<linearGradient id="paint0_linear_37268_57881" x1="3.00033" y1="32.8647" x2="163" y2="32.8647" gradientUnits="userSpaceOnUse">
<stop stop-color="#F53D26" stop-opacity="0"/>
<stop offset="1" stop-color="#F53D26"/>
</linearGradient>
<linearGradient id="paint1_linear_37268_57881" x1="3" y1="31.5" x2="163" y2="31.5003" gradientUnits="userSpaceOnUse">
<stop stop-color="white" stop-opacity="0"/>
<stop offset="1" stop-color="white"/>
</linearGradient>
</defs>
</svg>
