<svg width="178" height="47" viewBox="0 0 178 47" fill="none" xmlns="http://www.w3.org/2000/svg">
<g opacity="0.6">
<path fill-rule="evenodd" clip-rule="evenodd" d="M10.9074 21.1303C11.2452 21.4975 11.6158 22.0988 12.0043 23.0232C12.786 24.9645 13.5865 26.2596 14.4088 27.2125C15.2323 28.1667 16.0604 28.7566 16.8517 29.2957C16.9158 29.3394 16.9796 29.3827 17.0431 29.4258C17.7651 29.9159 18.4435 30.3764 19.1214 31.0699C19.8537 31.819 20.5978 32.855 21.3443 34.5038L21.3477 34.5111C22.1603 36.2308 22.9858 37.4617 23.8431 38.2393C24.7132 39.0285 25.6383 39.3674 26.6001 39.2375C27.5352 39.1111 28.413 38.5529 29.2362 37.7509C30.064 36.9445 30.8799 35.8493 31.6895 34.564L31.6945 34.5559C32.0522 33.9635 32.3856 33.6314 32.6797 33.4547C32.9624 33.2849 33.2358 33.242 33.5222 33.2796C33.8228 33.3191 34.1501 33.4495 34.5169 33.6522C34.8439 33.8329 35.1726 34.0535 35.5231 34.2888C35.5667 34.3181 35.6106 34.3476 35.655 34.3773C36.0451 34.6385 36.4632 34.9126 36.8895 35.1193C37.3165 35.3264 37.7857 35.4832 38.2812 35.481C39.3354 35.4764 40.2414 34.77 41.0419 33.225C41.8199 31.785 42.5742 30.8635 43.3002 30.255C44.0219 29.6501 44.736 29.3375 45.4625 29.1429C45.993 29.0008 46.5093 28.9249 47.0587 28.8441C47.2886 28.8103 47.5243 28.7756 47.7693 28.7349C48.5779 28.6005 49.4308 28.4052 50.3003 27.9451L50.3082 27.941L50.3082 27.9409C51.1323 27.4859 51.9458 26.7864 52.7272 26.0707C52.9369 25.8786 53.1441 25.6855 53.3498 25.4938C53.927 24.956 54.4918 24.4297 55.0632 23.9702C55.8388 23.3463 56.5631 22.9 57.2491 22.7396C57.8983 22.5878 58.5404 22.6846 59.2183 23.221C60.6987 24.448 62.2336 26.3081 63.7912 28.5174C65.3467 30.7239 66.9055 33.2502 68.4385 35.7893L68.4434 35.7975L68.4435 35.7974C68.8698 36.4741 69.3355 36.9449 69.8629 37.1721C70.4147 37.4098 70.9613 37.3505 71.4604 37.1132C71.9414 36.8845 72.3865 36.4886 72.7972 36.0287C73.212 35.5643 73.6186 35.0038 74.0153 34.4116C74.3561 33.9027 74.6969 33.3593 75.0333 32.823C75.0886 32.7348 75.1437 32.6469 75.1987 32.5593C75.591 31.9349 75.9773 31.3278 76.3624 30.7824C76.7486 30.2355 77.1229 29.7662 77.4872 29.4126C77.8559 29.0546 78.1801 28.849 78.4611 28.7747L78.4662 28.7733C78.9465 28.6408 79.5341 28.8983 80.3053 29.6486C80.9396 30.2657 81.579 31.0969 82.2466 31.9647C82.365 32.1187 82.4843 32.2738 82.6046 32.4291C83.3795 33.4289 84.2071 34.45 85.0586 35.0472C85.4907 35.3502 85.9683 35.5731 86.4815 35.6032C87.0093 35.6342 87.5147 35.4578 87.9811 35.073C89.4527 33.9067 90.8646 33.7194 92.3005 34.0104C93.7443 34.3029 95.2036 35.0753 96.7777 35.9085L96.8915 35.9686C96.8928 35.9694 96.8941 35.9701 96.8954 35.9708C98.4148 36.8096 100.047 37.6965 101.701 38.0315C103.393 38.3744 105.117 38.1423 106.781 36.7659C107.625 36.0954 108.452 35.1614 109.252 34.1802C109.627 33.7197 109.986 33.2622 110.342 32.8097C110.771 32.263 111.195 31.7235 111.634 31.1944C112.422 30.2473 113.175 29.4435 113.9 28.9278C114.625 28.4121 115.242 28.2398 115.8 28.3938L115.805 28.3953L115.805 28.3952C116.443 28.5639 117.149 29.1418 117.923 30.1036C118.684 31.0498 119.451 32.2907 120.232 33.6619C120.65 34.3961 121.073 35.1695 121.499 35.9497C122.643 38.0439 123.814 40.1873 124.998 41.7544C125.432 42.3517 125.971 42.7161 126.612 42.6429C127.199 42.5758 127.696 42.1526 128.104 41.6653C128.935 40.6736 129.746 38.9861 130.521 37.3057C130.625 37.079 130.729 36.8519 130.833 36.6258C131.515 35.1381 132.179 33.6901 132.836 32.6371C133.218 32.027 133.565 31.6031 133.872 31.3791C134.021 31.2706 134.138 31.2254 134.227 31.213C134.307 31.2017 134.39 31.2127 134.492 31.2688L134.499 31.2731L134.499 31.273C135.208 31.6482 135.913 32.1104 136.637 32.5857C136.704 32.6296 136.771 32.6735 136.838 32.7175C137.623 33.2318 138.434 33.753 139.253 34.1402C140.073 34.5282 140.936 34.7984 141.829 34.7834C142.735 34.7681 143.631 34.4605 144.511 33.7624L144.519 33.7559L144.519 33.7558C144.831 33.4971 145.119 33.3931 145.388 33.3755C145.665 33.3575 145.966 33.4278 146.304 33.5901C146.999 33.9243 147.726 34.5844 148.522 35.3419C148.589 35.4061 148.657 35.4709 148.725 35.5362C149.432 36.2124 150.188 36.9353 150.95 37.4047C151.799 37.9279 152.778 38.21 153.771 37.6639C154.66 37.1921 155.503 36.3353 156.271 35.4165C156.82 34.7596 157.359 34.0357 157.866 33.3558C158.071 33.08 158.271 32.8115 158.464 32.5576C159.158 31.6464 159.744 30.95 160.227 30.621C160.465 30.4592 160.602 30.4395 160.669 30.4481C160.715 30.4541 160.825 30.4853 160.977 30.7268L161.181 31.0503C160.659 31.537 160.333 32.2304 160.333 33C160.333 34.4727 161.527 35.6667 163 35.6667C164.473 35.6667 165.667 34.4727 165.667 33C165.667 31.5272 164.473 30.3333 163 30.3333C162.656 30.3333 162.328 30.3983 162.026 30.5166L161.823 30.1938C161.575 29.8004 161.239 29.5139 160.798 29.4565C160.379 29.4019 159.989 29.5733 159.664 29.7942C159.023 30.2308 158.342 31.0666 157.669 31.9522C157.462 32.2231 157.255 32.5018 157.045 32.7834C156.546 33.4542 156.034 34.1408 155.504 34.775C154.748 35.6787 154.008 36.407 153.299 36.7821L153.291 36.7863L153.292 36.7863C152.753 37.0839 152.183 36.9902 151.475 36.5535C150.809 36.1428 150.13 35.4948 149.4 34.7982C149.338 34.7384 149.275 34.6783 149.211 34.6179C148.44 33.8831 147.6 33.1035 146.737 32.6888C146.296 32.4767 145.82 32.3452 145.323 32.3776C144.82 32.4105 144.338 32.6082 143.885 32.9821C143.166 33.5516 142.481 33.7723 141.812 33.7835C141.131 33.7949 140.426 33.5889 139.68 33.2362C138.933 32.8826 138.176 32.3986 137.386 31.881C137.318 31.8363 137.249 31.7912 137.18 31.746C136.465 31.2765 135.722 30.7891 134.971 30.391C134.69 30.2372 134.391 30.1799 134.087 30.2228C133.79 30.2646 133.521 30.3974 133.283 30.5712C132.816 30.9117 132.386 31.4701 131.988 32.1074C131.293 33.2199 130.598 34.7364 129.921 36.2152C129.818 36.4405 129.715 36.6649 129.612 36.8869C128.821 38.6037 128.065 40.1547 127.337 41.0231C126.967 41.4658 126.686 41.628 126.499 41.6493C126.368 41.6643 126.137 41.6218 125.805 41.1635L125.799 41.1553L125.799 41.1553C124.662 39.6513 123.547 37.6107 122.415 35.5396C121.98 34.7437 121.543 33.9433 121.101 33.1671C120.315 31.787 119.516 30.4882 118.702 29.4768C117.901 28.4818 117.025 27.6846 116.064 27.4292C115.089 27.1613 114.157 27.518 113.32 28.1129C112.483 28.7082 111.661 29.5976 110.865 30.5552C110.433 31.0751 109.982 31.6493 109.535 32.2181C109.175 32.6753 108.819 33.129 108.477 33.5483C107.682 34.5232 106.911 35.3867 106.156 35.9858L106.148 35.9923L106.148 35.9924C104.746 37.1527 103.339 37.3432 101.899 37.0515C100.421 36.7519 98.921 35.9468 97.3748 35.0932L97.3671 35.0889L97.367 35.089C97.3062 35.0568 97.2453 35.0245 97.1843 34.9922C95.6617 34.1858 94.0879 33.3522 92.4991 33.0303C90.803 32.6866 89.0827 32.922 87.3557 34.2927L87.3475 34.2992L87.3476 34.2993C87.0485 34.5469 86.7846 34.6193 86.5401 34.605C86.2794 34.5897 85.9798 34.4718 85.6328 34.2285C84.9259 33.7328 84.1869 32.8382 83.3951 31.8165C83.2806 31.6689 83.1653 31.5187 83.049 31.3675C82.3849 30.5036 81.6934 29.6039 81.0027 28.9319C80.2162 28.1667 79.2547 27.5197 78.2025 27.8087C77.6845 27.9465 77.2138 28.2842 76.7906 28.6951C76.3622 29.111 75.9469 29.6372 75.5456 30.2056C75.1432 30.7754 74.7441 31.4032 74.352 32.0273C74.2962 32.1162 74.2405 32.2049 74.185 32.2934C73.8481 32.8306 73.5162 33.3597 73.1844 33.8551C72.7978 34.4324 72.421 34.9488 72.0514 35.3625C71.6778 35.7808 71.3375 36.0643 71.031 36.2101C70.7426 36.3472 70.4996 36.3575 70.2586 36.2537C69.9939 36.1397 69.6647 35.8588 69.292 35.2683C67.7592 32.7295 66.1854 30.178 64.6085 27.9412C63.0341 25.7081 61.4371 23.76 59.8521 22.4474L59.8441 22.4408L59.844 22.4409C58.9234 21.7102 57.9667 21.5449 57.0214 21.7659C56.1116 21.9786 55.2442 22.5413 54.4365 23.1909C53.8342 23.6753 53.2299 24.2385 52.6447 24.7837C52.4445 24.9703 52.2466 25.1548 52.0517 25.3333C51.272 26.0475 50.5368 26.6716 49.8288 27.0633C49.0997 27.4483 48.3705 27.6212 47.6054 27.7484C47.4002 27.7825 47.1877 27.8138 46.9704 27.8458C46.3986 27.9299 45.7937 28.0189 45.2038 28.1769C44.3636 28.402 43.5111 28.7735 42.6578 29.4886C41.8095 30.1996 40.9811 31.2329 40.1599 32.7537L40.1557 32.7614L40.1558 32.7614C39.4234 34.1766 38.78 34.4789 38.2768 34.4811C37.9931 34.4823 37.6811 34.3918 37.3258 34.2195C36.9698 34.0469 36.6046 33.8097 36.2114 33.5464C36.1681 33.5174 36.1244 33.488 36.0804 33.4585C35.7351 33.2265 35.3682 32.9801 35.0005 32.7769C34.585 32.5473 34.1311 32.351 33.6525 32.2881C33.1597 32.2234 32.656 32.3024 32.1647 32.5975C31.6859 32.8852 31.2493 33.3597 30.841 34.0348C30.0516 35.2876 29.2849 36.3073 28.5384 37.0346C27.7866 37.767 27.0978 38.1611 26.4662 38.2465C25.8613 38.3282 25.2198 38.138 24.5149 37.4986C23.7977 36.848 23.0404 35.752 22.2535 34.0874C21.4673 32.3521 20.662 31.2153 19.8365 30.3709C19.0852 29.6023 18.3274 29.0884 17.612 28.6033C17.5459 28.5584 17.4801 28.5138 17.4147 28.4692C16.6393 27.941 15.9007 27.4107 15.1659 26.5591C14.4304 25.7069 13.6814 24.5118 12.9303 22.6458L12.9275 22.6389C12.5165 21.6602 12.0916 20.9405 11.6433 20.4532C11.19 19.9604 10.6862 19.6791 10.1365 19.6525C9.59613 19.6263 9.10881 19.8515 8.69203 20.1657C8.27515 20.4801 7.88869 20.9132 7.53444 21.3814C7.00357 22.083 6.4977 22.9305 6.0472 23.6852C5.90131 23.9296 5.76123 24.1642 5.62799 24.3811C5.513 24.5682 5.40375 24.7412 5.29996 24.8978C4.83653 24.11 3.97993 23.5813 2.99983 23.5813C1.52707 23.5813 0.33316 24.7752 0.33316 26.2479C0.33316 27.7207 1.52707 28.9146 2.99983 28.9146C4.4726 28.9146 5.6665 27.7207 5.6665 26.2479C5.6665 26.1964 5.66504 26.1453 5.66216 26.0945C5.9277 25.7778 6.20326 25.355 6.48001 24.9046C6.62798 24.6638 6.77773 24.413 6.92972 24.1585C7.37387 23.4146 7.8373 22.6384 8.33189 21.9848C8.661 21.5498 8.98286 21.1989 9.2941 20.9642C9.60545 20.7294 9.86604 20.6405 10.0881 20.6513C10.3009 20.6616 10.5743 20.7682 10.9074 21.1303Z" fill="url(#paint0_linear_37268_57893)"/>
<path opacity="0.7" d="M3 31L163 31" stroke="url(#paint1_linear_37268_57893)" stroke-dasharray="2 2"/>
</g>
<defs>
<linearGradient id="paint0_linear_37268_57893" x1="2.99984" y1="31.0354" x2="163" y2="31.0354" gradientUnits="userSpaceOnUse">
<stop stop-color="#F53D26" stop-opacity="0"/>
<stop offset="1" stop-color="#F53D26"/>
</linearGradient>
<linearGradient id="paint1_linear_37268_57893" x1="3" y1="31.5" x2="163" y2="31.5003" gradientUnits="userSpaceOnUse">
<stop stop-color="white" stop-opacity="0"/>
<stop offset="1" stop-color="white"/>
</linearGradient>
</defs>
</svg>
