<svg width="178" height="47" viewBox="0 0 178 47" fill="none" xmlns="http://www.w3.org/2000/svg">
<g opacity="0.6">
<path fill-rule="evenodd" clip-rule="evenodd" d="M160.372 20.2755C159.642 20.3583 158.754 20.5951 157.78 21.2733C156.305 22.3016 154.69 24.3031 153.072 28.1566L153.069 28.1635C152.697 29.0885 152.345 29.625 152.036 29.9126C151.75 30.1796 151.514 30.2233 151.295 30.1863C151.038 30.1428 150.73 29.9734 150.361 29.6653C149.999 29.3619 149.628 28.9689 149.233 28.5431C149.201 28.5084 149.169 28.4735 149.136 28.4385C148.78 28.0529 148.404 27.6471 148.027 27.3062C147.62 26.9384 147.163 26.6008 146.666 26.4494C146.135 26.2875 145.582 26.3473 145.061 26.7258C144.573 27.0812 144.143 27.6944 143.746 28.5705C142.959 30.2352 142.202 31.3312 141.485 31.9818C140.78 32.6211 140.138 32.8114 139.533 32.7296C138.902 32.6443 138.213 32.2502 137.461 31.5178C136.715 30.7905 135.948 29.7707 135.158 28.518C134.75 27.8429 134.314 27.3684 133.835 27.0807C133.344 26.7856 132.84 26.7066 132.347 26.7713C131.868 26.8342 131.414 27.0305 130.999 27.2601C130.631 27.4633 130.264 27.7097 129.919 27.9417C129.875 27.9712 129.831 28.0006 129.788 28.0296C129.395 28.2929 129.03 28.5301 128.674 28.7027C128.318 28.875 128.006 28.9655 127.723 28.9642C127.219 28.962 126.576 28.6598 125.844 27.2446L125.844 27.2446L125.84 27.2368C125.018 25.716 124.19 24.6828 123.342 23.9718C122.488 23.2567 121.636 22.8852 120.796 22.6601C120.206 22.5021 119.601 22.4131 119.029 22.329C118.812 22.297 118.599 22.2657 118.394 22.2316C117.629 22.1044 116.9 21.9315 116.17 21.5463C115.247 21.038 114.311 21.0833 113.421 21.4463C112.553 21.8006 111.711 22.4623 110.908 23.2163C110.25 23.8333 109.588 24.5409 108.939 25.2357C108.792 25.3927 108.646 25.5491 108.5 25.7036C107.702 26.552 106.924 27.3486 106.156 27.9585L106.155 27.9584L106.147 27.9651C105.512 28.491 104.89 28.5776 104.223 28.4733C103.7 28.3916 103.191 28.2039 102.63 27.9968C102.416 27.918 102.194 27.8364 101.962 27.7567C101.164 27.4838 100.261 27.2501 99.332 27.4835C98.3831 27.7218 97.5148 28.4158 96.7075 29.7515C96.6038 29.9161 96.5004 30.0804 96.3973 30.2443C94.9 32.6241 93.4579 34.9159 92.0226 36.564C91.2566 37.4437 90.5178 38.1092 89.8031 38.5054C89.0992 38.8955 88.4415 39.0133 87.797 38.8436C87.1607 38.6672 86.4627 38.1633 85.7023 37.3887C84.9492 36.6216 84.1833 35.6403 83.4015 34.5843C83.136 34.2256 82.8677 33.8569 82.5981 33.4865C82.0829 32.7785 81.563 32.064 81.049 31.4009C80.2648 30.3891 79.4625 29.4537 78.6519 28.7824L78.652 28.7824L78.6438 28.7759C76.9168 27.4052 75.1965 27.1698 73.5004 27.5135C71.9116 27.8354 70.3378 28.669 68.8152 29.4754C68.7542 29.5077 68.6933 29.54 68.6325 29.5721L68.6325 29.5721L68.6247 29.5764C67.0785 30.43 65.5789 31.235 64.1004 31.5346C62.6604 31.8264 61.2531 31.6359 59.8519 30.4756L59.852 30.4755L59.8438 30.469C59.0889 29.8698 58.3173 29.0063 57.5226 28.0315C57.1808 27.6122 56.8242 27.1585 56.4648 26.7013C56.0177 26.1325 55.5664 25.5583 55.1342 25.0384C54.3381 24.0808 53.5163 23.1914 52.679 22.596C51.8425 22.0012 50.9103 21.6444 49.9358 21.9124C48.9743 22.1678 48.0981 22.965 47.2976 23.9599C46.4838 24.9714 45.6844 26.2702 44.8985 27.6503C44.4565 28.4265 44.0192 29.2269 43.5843 30.0228C42.4528 32.0939 41.3379 34.1345 40.2008 35.6385L40.2007 35.6384L40.1948 35.6467C39.4866 36.6241 38.8228 36.9741 38.2124 37.0559C37.5714 37.1419 36.8928 36.948 36.1217 36.6337C35.9122 36.5483 35.6916 36.4517 35.4643 36.3522C34.903 36.1064 34.3003 35.8424 33.719 35.6835C32.8671 35.4506 31.9475 35.4031 31.0287 35.9088C30.2769 36.3069 29.5343 36.7942 28.819 37.2637C28.7502 37.3089 28.6815 37.3539 28.6132 37.3987C27.8232 37.9162 27.067 38.4003 26.3193 38.7538C25.5732 39.1066 24.869 39.3126 24.1872 39.3012C23.519 39.2899 22.8334 39.0693 22.1145 38.4999C21.4978 37.9892 20.8717 37.4581 20.2392 36.9216C17.7647 34.8228 15.1926 32.6412 12.708 31.2695L12.708 31.2694L12.7002 31.2653C11.7611 30.7684 10.8206 30.7715 9.94103 31.0919C9.08077 31.4053 8.28645 32.0177 7.5783 32.7305C6.24905 34.0685 5.11115 35.8795 4.32287 37.1341C4.27269 37.2139 4.22393 37.2915 4.17663 37.3666L3.97324 37.6895C3.67164 37.5711 3.34324 37.5062 2.99967 37.5062C1.52692 37.5062 0.333008 38.7001 0.333008 40.1728C0.333008 41.6456 1.52692 42.8395 2.99967 42.8395C4.47243 42.8395 5.66634 41.6456 5.66634 40.1728C5.66634 39.4033 5.34036 38.7098 4.81895 38.2231L5.02272 37.8997C5.06692 37.8295 5.11209 37.7577 5.15821 37.6843C5.95687 36.4141 7.04029 34.6909 8.28772 33.4353C8.94623 32.7724 9.61858 32.2737 10.2833 32.0315C10.9275 31.7968 11.5691 31.7995 12.2287 32.1472C14.6153 33.4656 17.0825 35.5573 19.5475 37.6471C20.1926 38.194 20.8375 38.7407 21.4808 39.2735L21.4807 39.2736L21.4888 39.28C22.3685 39.9781 23.2649 40.2858 24.1704 40.301C25.0637 40.316 25.9262 40.0459 26.7467 39.6579C27.5657 39.2707 28.3762 38.7494 29.1612 38.2352C29.2284 38.1912 29.2954 38.1472 29.3622 38.1034C30.0867 37.628 30.7911 37.1658 31.5002 36.7907L31.5002 36.7907L31.508 36.7864C32.1212 36.4479 32.7501 36.4553 33.4553 36.6481C33.9632 36.7869 34.4551 37.0026 34.9844 37.2347C35.228 37.3416 35.4796 37.4519 35.7443 37.5598C36.5399 37.8841 37.4279 38.17 38.3453 38.0471C39.292 37.9201 40.1773 37.3736 41.0016 36.2375C42.1855 34.6705 43.3565 32.5271 44.5007 30.4329C44.9269 29.6527 45.3494 28.8793 45.7675 28.1451C46.5483 26.7739 47.3155 25.533 48.0767 24.5868C48.8505 23.625 49.5568 23.047 50.1942 22.8784L50.1994 22.877C50.7574 22.723 51.3742 22.8952 52.0995 23.411C52.8247 23.9267 53.5779 24.7305 54.3652 25.6776C54.8049 26.2066 55.2285 26.7462 55.6577 27.2929C56.013 27.7454 56.3722 28.2029 56.7475 28.6634C57.5474 29.6446 58.3745 30.5786 59.2181 31.249C60.8824 32.6254 62.6069 32.8576 64.299 32.5147C65.9523 32.1797 67.5847 31.2928 69.1041 30.454C69.1054 30.4533 69.1067 30.4525 69.108 30.4518L69.2218 30.3917C70.796 29.5585 72.2552 28.7861 73.699 28.4936C75.1348 28.2026 76.5466 28.3898 78.018 29.5559C78.7396 30.1543 79.486 31.0166 80.2586 32.0135C80.7641 32.6657 81.2673 33.3572 81.7762 34.0567C82.048 34.4302 82.3215 34.806 82.5978 35.1793C83.3828 36.2397 84.1835 37.269 84.9887 38.0892C85.7856 38.901 86.6368 39.5608 87.5333 39.8082L87.5385 39.8096C88.4931 40.0622 89.4178 39.8622 90.2879 39.38C91.1482 38.9031 91.9761 38.1401 92.7767 37.2208C94.2656 35.5111 95.7479 33.1548 97.2293 30.7997C97.3382 30.6266 97.4471 30.4535 97.556 30.2806L97.5561 30.2807L97.561 30.2725C98.2863 29.0712 98.9672 28.6061 99.5756 28.4533C100.205 28.2954 100.868 28.4393 101.638 28.7028C101.817 28.7642 102.005 28.8337 102.2 28.9056C102.79 29.1235 103.439 29.3629 104.068 29.4613C104.958 29.6004 105.884 29.4795 106.781 28.7386C107.611 28.0791 108.432 27.2351 109.228 26.389C109.379 26.2286 109.529 26.0683 109.678 25.9088C110.327 25.2154 110.96 24.538 111.592 23.9456C112.371 23.2145 113.105 22.6556 113.799 22.3722C114.471 22.0981 115.083 22.0883 115.691 22.4241L115.691 22.4242L115.699 22.4283C116.569 22.8884 117.422 23.0837 118.23 23.2181C118.475 23.2588 118.711 23.2934 118.941 23.3273C119.49 23.408 120.006 23.484 120.537 23.6261C121.263 23.8207 121.978 24.1333 122.699 24.7382C123.425 25.3467 124.18 26.2682 124.958 27.7081C125.758 29.2532 126.664 29.9596 127.718 29.9642C128.214 29.9664 128.683 29.8096 129.11 29.6025C129.536 29.3958 129.954 29.1217 130.345 28.8605C130.389 28.8308 130.433 28.8013 130.476 28.772C130.827 28.5367 131.156 28.3161 131.483 28.1354C131.849 27.9327 132.177 27.8023 132.477 27.7628C132.764 27.7252 133.037 27.7681 133.32 27.9379C133.614 28.1146 133.947 28.4466 134.305 29.0391L134.31 29.0472C135.12 30.3324 135.936 31.4277 136.763 32.2341C137.586 33.0361 138.464 33.5943 139.399 33.7206C140.361 33.8506 141.286 33.5117 142.156 32.7225C143.014 31.9449 143.839 30.714 144.652 28.9943L144.655 28.9869C145.024 28.1721 145.365 27.7414 145.649 27.5347C145.903 27.3506 146.127 27.3305 146.375 27.406C146.657 27.4921 146.981 27.7092 147.357 28.0482C147.699 28.3574 148.044 28.7303 148.408 29.1239L148.5 29.2227C148.888 29.6425 149.301 30.082 149.72 30.4325C150.134 30.7783 150.608 31.0843 151.129 31.1724C151.689 31.267 152.231 31.0985 152.718 30.6442C153.183 30.2111 153.601 29.5186 153.995 28.5409C155.576 24.7773 157.095 22.97 158.352 22.0937C159.112 21.5645 159.796 21.36 160.39 21.2809C160.643 22.4899 161.715 23.3978 163 23.3978C164.472 23.3978 165.666 22.2039 165.666 20.7311C165.666 19.2584 164.472 18.0645 163 18.0645C161.682 18.0645 160.588 19.0198 160.372 20.2755Z" fill="url(#paint0_linear_37268_57755)"/>
<path opacity="0.7" d="M3 32.0215L163 32.0215" stroke="url(#paint1_linear_37268_57755)" stroke-dasharray="2 2"/>
</g>
<defs>
<linearGradient id="paint0_linear_37268_57755" x1="163" y1="30.3497" x2="2.99967" y2="30.3497" gradientUnits="userSpaceOnUse">
<stop stop-color="#5CFFC4"/>
<stop offset="1" stop-color="#5CFFC4" stop-opacity="0"/>
</linearGradient>
<linearGradient id="paint1_linear_37268_57755" x1="3" y1="32.5215" x2="163" y2="32.5218" gradientUnits="userSpaceOnUse">
<stop stop-color="white" stop-opacity="0"/>
<stop offset="1" stop-color="white"/>
</linearGradient>
</defs>
</svg>
