<svg width="221" height="109" viewBox="0 0 221 109" fill="none" xmlns="http://www.w3.org/2000/svg">
<g clip-path="url(#clip0_37265_57565)">
<g opacity="0.25">
<rect x="30" y="96" width="2" height="11" fill="url(#paint0_linear_37265_57565)"/>
<rect x="33" y="96" width="2" height="11" fill="url(#paint1_linear_37265_57565)"/>
<rect x="36" y="93" width="2" height="14" fill="url(#paint2_linear_37265_57565)"/>
<rect x="39" y="93" width="2" height="14" fill="url(#paint3_linear_37265_57565)"/>
<rect x="42" y="91" width="2" height="16" fill="url(#paint4_linear_37265_57565)"/>
<rect x="45" y="91" width="2" height="16" fill="url(#paint5_linear_37265_57565)"/>
<rect x="48" y="91" width="2" height="16" fill="url(#paint6_linear_37265_57565)"/>
<rect x="51" y="91" width="2" height="16" fill="url(#paint7_linear_37265_57565)"/>
<rect x="54" y="93" width="2" height="14" fill="url(#paint8_linear_37265_57565)"/>
<rect x="57" y="93" width="2" height="14" fill="url(#paint9_linear_37265_57565)"/>
<rect x="60" y="96" width="2" height="11" fill="url(#paint10_linear_37265_57565)"/>
<rect x="63" y="96" width="2" height="11" fill="url(#paint11_linear_37265_57565)"/>
<rect x="66" y="98" width="2" height="9" fill="url(#paint12_linear_37265_57565)"/>
<rect x="69" y="98" width="2" height="9" fill="url(#paint13_linear_37265_57565)"/>
<rect x="72" y="99" width="2" height="8" fill="url(#paint14_linear_37265_57565)"/>
<rect x="75" y="99" width="2" height="8" fill="url(#paint15_linear_37265_57565)"/>
<rect x="78" y="99" width="2" height="8" fill="url(#paint16_linear_37265_57565)"/>
<rect x="81" y="99" width="2" height="8" fill="url(#paint17_linear_37265_57565)"/>
<rect x="84" y="99" width="2" height="8" fill="url(#paint18_linear_37265_57565)"/>
<rect x="87" y="99" width="2" height="8" fill="url(#paint19_linear_37265_57565)"/>
<rect x="90" y="98" width="2" height="9" fill="url(#paint20_linear_37265_57565)"/>
<rect x="93" y="98" width="2" height="9" fill="url(#paint21_linear_37265_57565)"/>
<rect x="96" y="97" width="2" height="10" fill="url(#paint22_linear_37265_57565)"/>
<rect x="99" y="97" width="2" height="10" fill="url(#paint23_linear_37265_57565)"/>
<rect x="102" y="96" width="2" height="11" fill="url(#paint24_linear_37265_57565)"/>
<rect x="105" y="96" width="2" height="11" fill="url(#paint25_linear_37265_57565)"/>
<rect x="108" y="95" width="2" height="12" fill="url(#paint26_linear_37265_57565)"/>
<rect x="111" y="95" width="2" height="12" fill="url(#paint27_linear_37265_57565)"/>
<rect x="114" y="93" width="2" height="14" fill="url(#paint28_linear_37265_57565)"/>
<rect x="117" y="93" width="2" height="14" fill="url(#paint29_linear_37265_57565)"/>
<rect x="120" y="90" width="2" height="17" fill="url(#paint30_linear_37265_57565)"/>
<rect x="123" y="90" width="2" height="17" fill="url(#paint31_linear_37265_57565)"/>
<rect x="126" y="87" width="2" height="20" fill="url(#paint32_linear_37265_57565)"/>
<rect x="129" y="87" width="2" height="20" fill="url(#paint33_linear_37265_57565)"/>
<rect x="132" y="86" width="2" height="21" fill="url(#paint34_linear_37265_57565)"/>
<rect x="135" y="86" width="2" height="21" fill="url(#paint35_linear_37265_57565)"/>
<rect x="138" y="86" width="2" height="21" fill="url(#paint36_linear_37265_57565)"/>
<rect x="141" y="86" width="2" height="21" fill="url(#paint37_linear_37265_57565)"/>
<rect x="144" y="87" width="2" height="20" fill="url(#paint38_linear_37265_57565)"/>
<rect x="147" y="87" width="2" height="20" fill="url(#paint39_linear_37265_57565)"/>
<rect x="150" y="90" width="2" height="17" fill="url(#paint40_linear_37265_57565)"/>
<rect x="153" y="90" width="2" height="17" fill="url(#paint41_linear_37265_57565)"/>
<rect x="156" y="91" width="2" height="16" fill="url(#paint42_linear_37265_57565)"/>
<rect x="159" y="91" width="2" height="16" fill="url(#paint43_linear_37265_57565)"/>
<rect x="162" y="92" width="2" height="15" fill="url(#paint44_linear_37265_57565)"/>
<rect x="165" y="92" width="2" height="15" fill="url(#paint45_linear_37265_57565)"/>
<rect x="168" y="91" width="2" height="16" fill="url(#paint46_linear_37265_57565)"/>
<rect x="171" y="91" width="2" height="16" fill="url(#paint47_linear_37265_57565)"/>
<rect x="174" y="90" width="2" height="17" fill="url(#paint48_linear_37265_57565)"/>
<rect x="177" y="90" width="2" height="17" fill="url(#paint49_linear_37265_57565)"/>
<rect x="180" y="90" width="2" height="17" fill="url(#paint50_linear_37265_57565)"/>
<rect x="183" y="90" width="2" height="17" fill="url(#paint51_linear_37265_57565)"/>
<rect x="186" y="89" width="2" height="18" fill="url(#paint52_linear_37265_57565)"/>
<rect x="189" y="89" width="2" height="18" fill="url(#paint53_linear_37265_57565)"/>
<rect x="192" y="90" width="2" height="17" fill="url(#paint54_linear_37265_57565)"/>
<rect x="195" y="90" width="2" height="17" fill="url(#paint55_linear_37265_57565)"/>
<rect x="198" y="90" width="2" height="17" fill="url(#paint56_linear_37265_57565)"/>
<rect x="201" y="90" width="2" height="17" fill="url(#paint57_linear_37265_57565)"/>
<rect x="204" y="92" width="2" height="15" fill="url(#paint58_linear_37265_57565)"/>
<rect x="207" y="92" width="2" height="15" fill="url(#paint59_linear_37265_57565)"/>
<rect x="210" y="94" width="2" height="13" fill="url(#paint60_linear_37265_57565)"/>
<rect x="213" y="94" width="2" height="13" fill="url(#paint61_linear_37265_57565)"/>
<rect x="216" y="94" width="2" height="13" fill="url(#paint62_linear_37265_57565)"/>
<rect x="219" y="94" width="2" height="13" fill="url(#paint63_linear_37265_57565)"/>
</g>
<path d="M219.09 61.9126L221 65.6394V88.0001H219.09H209.699H198.558H187.257H176.115H164.814H153.513H142.372H131.071H119.929H108.628H97.4867H86.1859H74.885H63.7433H52.4425H41.3008H31.91H30V20.918H31.91L41.3008 32.0983L52.4425 48.9223H63.7433L74.885 47.0054L86.1859 30.8561L97.4867 32.0983L108.628 50.7322L119.929 64.3971L131.071 49.49L142.372 50.7322L153.513 51.9745L164.814 39.5519L176.115 59.4281L187.257 68.1239L198.558 71.8507L209.699 53.2168L219.09 61.9126Z" fill="url(#paint64_linear_37265_57565)" fill-opacity="0.15"/>
<path d="M221 65.4521L220.045 67.8016L219.09 61.6909L217.916 56.3638L216.742 59.4969L215.568 62.63L214.395 57.3029L213.221 51.9758L212.047 55.1089L210.873 58.242L209.699 52.9149L209.003 49.8602L208.306 55.2656L207.61 60.6711L206.914 57.6164L206.217 54.5616L205.521 59.9671L204.825 65.3726L204.128 62.3178L203.432 61.8011L202.736 64.6685L202.039 67.5359L201.343 67.0192L200.647 67.3486L199.95 70.216L199.254 69.6993L198.558 72.5667L197.145 70.4045L195.732 71.6264L194.32 69.4642L192.907 69.8401L191.494 68.524L190.082 69.7459L188.669 67.5837L187.257 68.8056L186.56 66.565L185.864 67.7086L185.168 65.891L184.471 66.6116L183.775 64.371L183.079 65.5145L182.382 63.274L181.686 63.9945L180.989 62.177L180.293 63.3205L179.597 61.503L178.9 65.6076L178.204 60.406L177.508 60.7035L176.811 55.5019L176.115 59.1835L175.409 58.3528L174.702 56.2531L173.996 55.8454L173.29 53.7456L172.583 54.1839L171.877 50.8152L171.171 54.6376L170.465 48.7307L169.758 48.7461L169.052 41.9932L168.346 49.6227L167.639 39.9088L166.933 42.8851L166.227 42.4775L165.52 39.5317L164.814 39.97L164.108 35.6774L163.402 44.9213L162.695 41.4747L161.989 40.1432L161.283 44.7339L160.576 42.5564L159.87 45.455L159.164 45.3926L158.457 47.4452L157.751 46.9597L157.045 49.0123L156.339 48.5269L155.632 49.3105L154.926 51.3631L154.22 50.8776L153.513 51.6612L152.121 51.9275L150.728 47.1176L149.335 51.6141L147.942 55.2644L146.55 51.3006L145.157 49.0288L143.764 53.1022L142.372 50.4075L140.959 52.3658L139.546 50.094L138.134 49.9373L136.721 51.8957L135.309 49.6239L133.896 49.4672L132.483 45.0803L131.071 44.9236L130.374 50.094L129.678 51.0343L128.982 54.0897L128.285 52.9149L127.589 53.8552L126.893 56.9105L126.196 55.7358L125.5 52.4459L124.804 59.7314L124.107 58.5566L123.411 59.4969L122.715 64.6673L122.018 57.1474L121.322 66.5479L120.626 63.2581L119.929 64.1984L119.223 63.3365L118.517 60.7825L117.81 61.6126L117.104 58.6356L116.398 59.8887L115.691 56.9117L114.985 58.1649L114.279 55.1879L112.866 55.5791L112.16 57.2552L111.454 53.8552L110.747 55.5313L110.041 52.1313L109.335 53.8075L108.628 50.4075L107.932 45.002L107.236 48.0567L106.539 42.6513L105.843 45.706L105.147 44.5307L104.45 39.1252L103.754 42.1799L103.058 41.0046L102.361 44.0593L101.665 38.6538L100.968 41.7086L100.272 36.3031L99.5757 39.3579L98.8794 33.9524L98.183 32.777L97.4867 35.8318L96.0741 27.2148L94.6614 31.2882L93.2488 35.3616L91.8362 30.9748L90.4236 39.2783L89.011 34.8915L87.5984 30.5047L86.1858 26.1178L85.4795 31.3666L84.7732 36.6154L84.0669 33.4039L83.3606 34.4225L82.6543 39.6713L81.948 36.4598L81.2417 33.2484L80.5354 38.4971L79.8291 39.5158L79.1228 36.3043L78.4165 41.5531L77.7102 42.5717L77.0039 47.8205L76.2976 44.609L75.5913 45.6277L74.885 50.8764L73.4923 46.8881L72.0996 42.8998L70.7069 47.3718L69.3142 43.3835L67.9215 47.8554L66.5287 46.4052L65.136 49.1851L63.7433 46.8888L62.3307 49.4269L60.9181 46.8888L59.5055 48.5809L58.0929 44.3507L56.6803 48.5809L55.2677 52.811L53.8551 44.3507L52.4425 48.5809L51.7461 47.5196L51.0498 50.6886L50.3534 45.3973L49.6571 48.5662L48.9607 43.2749L48.2644 37.9835L47.568 41.1525L46.8717 44.3214L46.1753 39.0301L45.479 33.7388L44.7826 36.9077L44.0863 40.0766L43.3899 34.7853L42.6935 29.494L41.9972 32.6629L41.3008 31.6017L40.7139 35.1266L40.127 30.1912L39.5401 29.486L38.9531 28.7808L38.3662 28.0756L37.7793 31.6005L37.1923 26.6651L36.6054 25.9599L36.0185 21.0246L35.4315 24.5495L34.8446 23.8443L34.2577 18.9089L33.6708 22.4338L33.0839 21.7286L32.4969 21.0234L31.91 16L30.955 20.3182H30" stroke="#F53D26" stroke-width="0.8"/>
<path opacity="0.8" d="M2.69092 0.941406V7.375H1.87793V1.95654L0.23877 2.5542V1.82031L2.56348 0.941406H2.69092ZM9.40576 5.22168V5.88965H4.78271V5.41064L7.64795 0.976562H8.31152L7.59961 2.25977L5.70557 5.22168H9.40576ZM8.51367 0.976562V7.375H7.70068V0.976562H8.51367ZM10.9702 6.4082V7.06299C10.9702 7.32959 10.9028 7.61084 10.7681 7.90674C10.6333 8.20557 10.4443 8.45459 10.2012 8.65381L9.73975 8.33301C9.8335 8.2041 9.9126 8.07227 9.97705 7.9375C10.0415 7.80566 10.0898 7.66797 10.1221 7.52441C10.1572 7.38379 10.1748 7.23438 10.1748 7.07617V6.4082H10.9702ZM15.936 3.66602V4.6416C15.936 5.16602 15.8892 5.6084 15.7954 5.96875C15.7017 6.3291 15.5669 6.61914 15.3911 6.83887C15.2153 7.05859 15.0029 7.21826 14.7539 7.31787C14.5078 7.41455 14.2295 7.46289 13.9189 7.46289C13.6729 7.46289 13.4458 7.43213 13.2378 7.37061C13.0298 7.30908 12.8423 7.21094 12.6753 7.07617C12.5112 6.93848 12.3706 6.75977 12.2534 6.54004C12.1362 6.32031 12.0469 6.05371 11.9854 5.74023C11.9238 5.42676 11.8931 5.06055 11.8931 4.6416V3.66602C11.8931 3.1416 11.9399 2.70215 12.0337 2.34766C12.1304 1.99316 12.2666 1.70898 12.4424 1.49512C12.6182 1.27832 12.8291 1.12305 13.0752 1.0293C13.3242 0.935547 13.6025 0.888672 13.9102 0.888672C14.1592 0.888672 14.3877 0.919434 14.5957 0.980957C14.8066 1.03955 14.9941 1.13477 15.1582 1.2666C15.3223 1.39551 15.4614 1.56836 15.5757 1.78516C15.6929 1.99902 15.7822 2.26123 15.8438 2.57178C15.9053 2.88232 15.936 3.24707 15.936 3.66602ZM15.1187 4.77344V3.52979C15.1187 3.24268 15.1011 2.99072 15.0659 2.77393C15.0337 2.5542 14.9854 2.3667 14.9209 2.21143C14.8564 2.05615 14.7744 1.93018 14.6748 1.8335C14.5781 1.73682 14.4653 1.6665 14.3364 1.62256C14.2104 1.57568 14.0684 1.55225 13.9102 1.55225C13.7168 1.55225 13.5454 1.58887 13.396 1.66211C13.2466 1.73242 13.1206 1.84521 13.0181 2.00049C12.9185 2.15576 12.8423 2.35938 12.7896 2.61133C12.7368 2.86328 12.7104 3.16943 12.7104 3.52979V4.77344C12.7104 5.06055 12.7266 5.31396 12.7588 5.53369C12.7939 5.75342 12.8452 5.94385 12.9126 6.10498C12.98 6.26318 13.062 6.39355 13.1587 6.49609C13.2554 6.59863 13.3667 6.6748 13.4927 6.72461C13.6216 6.77148 13.7637 6.79492 13.9189 6.79492C14.1182 6.79492 14.2925 6.75684 14.4419 6.68066C14.5913 6.60449 14.7158 6.48584 14.8154 6.32471C14.918 6.16064 14.9941 5.95117 15.0439 5.69629C15.0938 5.43848 15.1187 5.13086 15.1187 4.77344ZM20.9985 3.66602V4.6416C20.9985 5.16602 20.9517 5.6084 20.8579 5.96875C20.7642 6.3291 20.6294 6.61914 20.4536 6.83887C20.2778 7.05859 20.0654 7.21826 19.8164 7.31787C19.5703 7.41455 19.292 7.46289 18.9814 7.46289C18.7354 7.46289 18.5083 7.43213 18.3003 7.37061C18.0923 7.30908 17.9048 7.21094 17.7378 7.07617C17.5737 6.93848 17.4331 6.75977 17.3159 6.54004C17.1987 6.32031 17.1094 6.05371 17.0479 5.74023C16.9863 5.42676 16.9556 5.06055 16.9556 4.6416V3.66602C16.9556 3.1416 17.0024 2.70215 17.0962 2.34766C17.1929 1.99316 17.3291 1.70898 17.5049 1.49512C17.6807 1.27832 17.8916 1.12305 18.1377 1.0293C18.3867 0.935547 18.665 0.888672 18.9727 0.888672C19.2217 0.888672 19.4502 0.919434 19.6582 0.980957C19.8691 1.03955 20.0566 1.13477 20.2207 1.2666C20.3848 1.39551 20.5239 1.56836 20.6382 1.78516C20.7554 1.99902 20.8447 2.26123 20.9062 2.57178C20.9678 2.88232 20.9985 3.24707 20.9985 3.66602ZM20.1812 4.77344V3.52979C20.1812 3.24268 20.1636 2.99072 20.1284 2.77393C20.0962 2.5542 20.0479 2.3667 19.9834 2.21143C19.9189 2.05615 19.8369 1.93018 19.7373 1.8335C19.6406 1.73682 19.5278 1.6665 19.3989 1.62256C19.2729 1.57568 19.1309 1.55225 18.9727 1.55225C18.7793 1.55225 18.6079 1.58887 18.4585 1.66211C18.3091 1.73242 18.1831 1.84521 18.0806 2.00049C17.981 2.15576 17.9048 2.35938 17.8521 2.61133C17.7993 2.86328 17.7729 3.16943 17.7729 3.52979V4.77344C17.7729 5.06055 17.7891 5.31396 17.8213 5.53369C17.8564 5.75342 17.9077 5.94385 17.9751 6.10498C18.0425 6.26318 18.1245 6.39355 18.2212 6.49609C18.3179 6.59863 18.4292 6.6748 18.5552 6.72461C18.6841 6.77148 18.8262 6.79492 18.9814 6.79492C19.1807 6.79492 19.355 6.75684 19.5044 6.68066C19.6538 6.60449 19.7783 6.48584 19.8779 6.32471C19.9805 6.16064 20.0566 5.95117 20.1064 5.69629C20.1562 5.43848 20.1812 5.13086 20.1812 4.77344Z" fill="white"/>
<line x1="30.5" y1="3.375" x2="220.5" y2="3.375" stroke="white" stroke-opacity="0.4" stroke-miterlimit="16" stroke-linecap="round" stroke-linejoin="round" stroke-dasharray="0.1 3"/>
<path opacity="0.8" d="M2.69092 26.6914V33.125H1.87793V27.7065L0.23877 28.3042V27.5703L2.56348 26.6914H2.69092ZM6.26807 29.5259H6.84814C7.13232 29.5259 7.3667 29.479 7.55127 29.3853C7.73877 29.2886 7.87793 29.1582 7.96875 28.9941C8.0625 28.8271 8.10938 28.6396 8.10938 28.4316C8.10938 28.1855 8.06836 27.979 7.98633 27.812C7.9043 27.645 7.78125 27.519 7.61719 27.4341C7.45312 27.3491 7.24512 27.3066 6.99316 27.3066C6.76465 27.3066 6.5625 27.3521 6.38672 27.4429C6.21387 27.5308 6.07764 27.6567 5.97803 27.8208C5.88135 27.9849 5.83301 28.1782 5.83301 28.4009H5.02002C5.02002 28.0757 5.10205 27.7798 5.26611 27.5132C5.43018 27.2466 5.66016 27.0342 5.95605 26.876C6.25488 26.7178 6.60059 26.6387 6.99316 26.6387C7.37988 26.6387 7.71826 26.7075 8.0083 26.8452C8.29834 26.98 8.52393 27.1821 8.68506 27.4517C8.84619 27.7183 8.92676 28.0508 8.92676 28.4492C8.92676 28.6104 8.88867 28.7832 8.8125 28.9678C8.73926 29.1494 8.62354 29.3193 8.46533 29.4775C8.31006 29.6357 8.10791 29.7661 7.85889 29.8687C7.60986 29.9683 7.31104 30.0181 6.9624 30.0181H6.26807V29.5259ZM6.26807 30.1938V29.7061H6.9624C7.36963 29.7061 7.70654 29.7544 7.97314 29.8511C8.23975 29.9478 8.44922 30.0767 8.60156 30.2378C8.75684 30.3989 8.86523 30.5762 8.92676 30.7695C8.99121 30.96 9.02344 31.1504 9.02344 31.3408C9.02344 31.6396 8.97217 31.9048 8.86963 32.1362C8.77002 32.3677 8.62793 32.564 8.44336 32.7251C8.26172 32.8862 8.04785 33.0078 7.80176 33.0898C7.55566 33.1719 7.2876 33.2129 6.99756 33.2129C6.71924 33.2129 6.45703 33.1733 6.21094 33.0942C5.96777 33.0151 5.75244 32.9009 5.56494 32.7515C5.37744 32.5991 5.23096 32.4131 5.12549 32.1934C5.02002 31.9707 4.96729 31.7173 4.96729 31.4331H5.78027C5.78027 31.6558 5.82861 31.8506 5.92529 32.0176C6.0249 32.1846 6.16553 32.3149 6.34717 32.4087C6.53174 32.4995 6.74854 32.5449 6.99756 32.5449C7.24658 32.5449 7.46045 32.5024 7.63916 32.4175C7.8208 32.3296 7.95996 32.1978 8.05664 32.022C8.15625 31.8462 8.20605 31.625 8.20605 31.3584C8.20605 31.0918 8.15039 30.8735 8.03906 30.7036C7.92773 30.5308 7.76953 30.4033 7.56445 30.3213C7.3623 30.2363 7.12354 30.1938 6.84814 30.1938H6.26807ZM10.9702 32.1582V32.813C10.9702 33.0796 10.9028 33.3608 10.7681 33.6567C10.6333 33.9556 10.4443 34.2046 10.2012 34.4038L9.73975 34.083C9.8335 33.9541 9.9126 33.8223 9.97705 33.6875C10.0415 33.5557 10.0898 33.418 10.1221 33.2744C10.1572 33.1338 10.1748 32.9844 10.1748 32.8262V32.1582H10.9702ZM12.9478 30.0796L12.2974 29.9126L12.6182 26.7266H15.9009V27.478H13.3081L13.1147 29.2183C13.2319 29.1509 13.3799 29.0879 13.5586 29.0293C13.7402 28.9707 13.9482 28.9414 14.1826 28.9414C14.4785 28.9414 14.7437 28.9927 14.978 29.0952C15.2124 29.1948 15.4116 29.3384 15.5757 29.5259C15.7427 29.7134 15.8701 29.939 15.958 30.2026C16.0459 30.4663 16.0898 30.7607 16.0898 31.0859C16.0898 31.3936 16.0474 31.6763 15.9624 31.9341C15.8804 32.1919 15.7559 32.4175 15.5889 32.6108C15.4219 32.8013 15.2109 32.9492 14.9561 33.0547C14.7041 33.1602 14.4067 33.2129 14.064 33.2129C13.8062 33.2129 13.5615 33.1777 13.3301 33.1074C13.1016 33.0342 12.8965 32.9243 12.7148 32.7778C12.5361 32.6284 12.3896 32.4438 12.2754 32.2241C12.1641 32.0015 12.0938 31.7407 12.0645 31.4419H12.8379C12.873 31.6821 12.9434 31.8843 13.0488 32.0483C13.1543 32.2124 13.292 32.3369 13.4619 32.4219C13.6348 32.5039 13.8354 32.5449 14.064 32.5449C14.2573 32.5449 14.4287 32.5112 14.5781 32.4438C14.7275 32.3765 14.8535 32.2798 14.9561 32.1538C15.0586 32.0278 15.1362 31.8755 15.189 31.6968C15.2446 31.5181 15.2725 31.3174 15.2725 31.0947C15.2725 30.8926 15.2446 30.7051 15.189 30.5322C15.1333 30.3594 15.0498 30.2085 14.9385 30.0796C14.8301 29.9507 14.6968 29.8511 14.5386 29.7808C14.3804 29.7075 14.1987 29.6709 13.9937 29.6709C13.7212 29.6709 13.5146 29.7075 13.374 29.7808C13.2363 29.854 13.0942 29.9536 12.9478 30.0796ZM20.9985 29.416V30.3916C20.9985 30.916 20.9517 31.3584 20.8579 31.7188C20.7642 32.0791 20.6294 32.3691 20.4536 32.5889C20.2778 32.8086 20.0654 32.9683 19.8164 33.0679C19.5703 33.1646 19.292 33.2129 18.9814 33.2129C18.7354 33.2129 18.5083 33.1821 18.3003 33.1206C18.0923 33.0591 17.9048 32.9609 17.7378 32.8262C17.5737 32.6885 17.4331 32.5098 17.3159 32.29C17.1987 32.0703 17.1094 31.8037 17.0479 31.4902C16.9863 31.1768 16.9556 30.8105 16.9556 30.3916V29.416C16.9556 28.8916 17.0024 28.4521 17.0962 28.0977C17.1929 27.7432 17.3291 27.459 17.5049 27.2451C17.6807 27.0283 17.8916 26.873 18.1377 26.7793C18.3867 26.6855 18.665 26.6387 18.9727 26.6387C19.2217 26.6387 19.4502 26.6694 19.6582 26.731C19.8691 26.7896 20.0566 26.8848 20.2207 27.0166C20.3848 27.1455 20.5239 27.3184 20.6382 27.5352C20.7554 27.749 20.8447 28.0112 20.9062 28.3218C20.9678 28.6323 20.9985 28.9971 20.9985 29.416ZM20.1812 30.5234V29.2798C20.1812 28.9927 20.1636 28.7407 20.1284 28.5239C20.0962 28.3042 20.0479 28.1167 19.9834 27.9614C19.9189 27.8062 19.8369 27.6802 19.7373 27.5835C19.6406 27.4868 19.5278 27.4165 19.3989 27.3726C19.2729 27.3257 19.1309 27.3022 18.9727 27.3022C18.7793 27.3022 18.6079 27.3389 18.4585 27.4121C18.3091 27.4824 18.1831 27.5952 18.0806 27.7505C17.981 27.9058 17.9048 28.1094 17.8521 28.3613C17.7993 28.6133 17.7729 28.9194 17.7729 29.2798V30.5234C17.7729 30.8105 17.7891 31.064 17.8213 31.2837C17.8564 31.5034 17.9077 31.6938 17.9751 31.855C18.0425 32.0132 18.1245 32.1436 18.2212 32.2461C18.3179 32.3486 18.4292 32.4248 18.5552 32.4746C18.6841 32.5215 18.8262 32.5449 18.9814 32.5449C19.1807 32.5449 19.355 32.5068 19.5044 32.4307C19.6538 32.3545 19.7783 32.2358 19.8779 32.0747C19.9805 31.9106 20.0566 31.7012 20.1064 31.4463C20.1562 31.1885 20.1812 30.8809 20.1812 30.5234Z" fill="white"/>
<line x1="30.5" y1="29.125" x2="220.5" y2="29.125" stroke="white" stroke-opacity="0.4" stroke-miterlimit="16" stroke-linecap="round" stroke-linejoin="round" stroke-dasharray="0.1 3"/>
<path opacity="0.8" d="M2.69092 52.4414V58.875H1.87793V53.4565L0.23877 54.0542V53.3203L2.56348 52.4414H2.69092ZM6.26807 55.2759H6.84814C7.13232 55.2759 7.3667 55.229 7.55127 55.1353C7.73877 55.0386 7.87793 54.9082 7.96875 54.7441C8.0625 54.5771 8.10938 54.3896 8.10938 54.1816C8.10938 53.9355 8.06836 53.729 7.98633 53.562C7.9043 53.395 7.78125 53.269 7.61719 53.1841C7.45312 53.0991 7.24512 53.0566 6.99316 53.0566C6.76465 53.0566 6.5625 53.1021 6.38672 53.1929C6.21387 53.2808 6.07764 53.4067 5.97803 53.5708C5.88135 53.7349 5.83301 53.9282 5.83301 54.1509H5.02002C5.02002 53.8257 5.10205 53.5298 5.26611 53.2632C5.43018 52.9966 5.66016 52.7842 5.95605 52.626C6.25488 52.4678 6.60059 52.3887 6.99316 52.3887C7.37988 52.3887 7.71826 52.4575 8.0083 52.5952C8.29834 52.73 8.52393 52.9321 8.68506 53.2017C8.84619 53.4683 8.92676 53.8008 8.92676 54.1992C8.92676 54.3604 8.88867 54.5332 8.8125 54.7178C8.73926 54.8994 8.62354 55.0693 8.46533 55.2275C8.31006 55.3857 8.10791 55.5161 7.85889 55.6187C7.60986 55.7183 7.31104 55.7681 6.9624 55.7681H6.26807V55.2759ZM6.26807 55.9438V55.4561H6.9624C7.36963 55.4561 7.70654 55.5044 7.97314 55.6011C8.23975 55.6978 8.44922 55.8267 8.60156 55.9878C8.75684 56.1489 8.86523 56.3262 8.92676 56.5195C8.99121 56.71 9.02344 56.9004 9.02344 57.0908C9.02344 57.3896 8.97217 57.6548 8.86963 57.8862C8.77002 58.1177 8.62793 58.314 8.44336 58.4751C8.26172 58.6362 8.04785 58.7578 7.80176 58.8398C7.55566 58.9219 7.2876 58.9629 6.99756 58.9629C6.71924 58.9629 6.45703 58.9233 6.21094 58.8442C5.96777 58.7651 5.75244 58.6509 5.56494 58.5015C5.37744 58.3491 5.23096 58.1631 5.12549 57.9434C5.02002 57.7207 4.96729 57.4673 4.96729 57.1831H5.78027C5.78027 57.4058 5.82861 57.6006 5.92529 57.7676C6.0249 57.9346 6.16553 58.0649 6.34717 58.1587C6.53174 58.2495 6.74854 58.2949 6.99756 58.2949C7.24658 58.2949 7.46045 58.2524 7.63916 58.1675C7.8208 58.0796 7.95996 57.9478 8.05664 57.772C8.15625 57.5962 8.20605 57.375 8.20605 57.1084C8.20605 56.8418 8.15039 56.6235 8.03906 56.4536C7.92773 56.2808 7.76953 56.1533 7.56445 56.0713C7.3623 55.9863 7.12354 55.9438 6.84814 55.9438H6.26807ZM10.9702 57.9082V58.563C10.9702 58.8296 10.9028 59.1108 10.7681 59.4067C10.6333 59.7056 10.4443 59.9546 10.2012 60.1538L9.73975 59.833C9.8335 59.7041 9.9126 59.5723 9.97705 59.4375C10.0415 59.3057 10.0898 59.168 10.1221 59.0244C10.1572 58.8838 10.1748 58.7344 10.1748 58.5762V57.9082H10.9702ZM15.936 55.166V56.1416C15.936 56.666 15.8892 57.1084 15.7954 57.4688C15.7017 57.8291 15.5669 58.1191 15.3911 58.3389C15.2153 58.5586 15.0029 58.7183 14.7539 58.8179C14.5078 58.9146 14.2295 58.9629 13.9189 58.9629C13.6729 58.9629 13.4458 58.9321 13.2378 58.8706C13.0298 58.8091 12.8423 58.7109 12.6753 58.5762C12.5112 58.4385 12.3706 58.2598 12.2534 58.04C12.1362 57.8203 12.0469 57.5537 11.9854 57.2402C11.9238 56.9268 11.8931 56.5605 11.8931 56.1416V55.166C11.8931 54.6416 11.9399 54.2021 12.0337 53.8477C12.1304 53.4932 12.2666 53.209 12.4424 52.9951C12.6182 52.7783 12.8291 52.623 13.0752 52.5293C13.3242 52.4355 13.6025 52.3887 13.9102 52.3887C14.1592 52.3887 14.3877 52.4194 14.5957 52.481C14.8066 52.5396 14.9941 52.6348 15.1582 52.7666C15.3223 52.8955 15.4614 53.0684 15.5757 53.2852C15.6929 53.499 15.7822 53.7612 15.8438 54.0718C15.9053 54.3823 15.936 54.7471 15.936 55.166ZM15.1187 56.2734V55.0298C15.1187 54.7427 15.1011 54.4907 15.0659 54.2739C15.0337 54.0542 14.9854 53.8667 14.9209 53.7114C14.8564 53.5562 14.7744 53.4302 14.6748 53.3335C14.5781 53.2368 14.4653 53.1665 14.3364 53.1226C14.2104 53.0757 14.0684 53.0522 13.9102 53.0522C13.7168 53.0522 13.5454 53.0889 13.396 53.1621C13.2466 53.2324 13.1206 53.3452 13.0181 53.5005C12.9185 53.6558 12.8423 53.8594 12.7896 54.1113C12.7368 54.3633 12.7104 54.6694 12.7104 55.0298V56.2734C12.7104 56.5605 12.7266 56.814 12.7588 57.0337C12.7939 57.2534 12.8452 57.4438 12.9126 57.605C12.98 57.7632 13.062 57.8936 13.1587 57.9961C13.2554 58.0986 13.3667 58.1748 13.4927 58.2246C13.6216 58.2715 13.7637 58.2949 13.9189 58.2949C14.1182 58.2949 14.2925 58.2568 14.4419 58.1807C14.5913 58.1045 14.7158 57.9858 14.8154 57.8247C14.918 57.6606 14.9941 57.4512 15.0439 57.1963C15.0938 56.9385 15.1187 56.6309 15.1187 56.2734ZM20.9985 55.166V56.1416C20.9985 56.666 20.9517 57.1084 20.8579 57.4688C20.7642 57.8291 20.6294 58.1191 20.4536 58.3389C20.2778 58.5586 20.0654 58.7183 19.8164 58.8179C19.5703 58.9146 19.292 58.9629 18.9814 58.9629C18.7354 58.9629 18.5083 58.9321 18.3003 58.8706C18.0923 58.8091 17.9048 58.7109 17.7378 58.5762C17.5737 58.4385 17.4331 58.2598 17.3159 58.04C17.1987 57.8203 17.1094 57.5537 17.0479 57.2402C16.9863 56.9268 16.9556 56.5605 16.9556 56.1416V55.166C16.9556 54.6416 17.0024 54.2021 17.0962 53.8477C17.1929 53.4932 17.3291 53.209 17.5049 52.9951C17.6807 52.7783 17.8916 52.623 18.1377 52.5293C18.3867 52.4355 18.665 52.3887 18.9727 52.3887C19.2217 52.3887 19.4502 52.4194 19.6582 52.481C19.8691 52.5396 20.0566 52.6348 20.2207 52.7666C20.3848 52.8955 20.5239 53.0684 20.6382 53.2852C20.7554 53.499 20.8447 53.7612 20.9062 54.0718C20.9678 54.3823 20.9985 54.7471 20.9985 55.166ZM20.1812 56.2734V55.0298C20.1812 54.7427 20.1636 54.4907 20.1284 54.2739C20.0962 54.0542 20.0479 53.8667 19.9834 53.7114C19.9189 53.5562 19.8369 53.4302 19.7373 53.3335C19.6406 53.2368 19.5278 53.1665 19.3989 53.1226C19.2729 53.0757 19.1309 53.0522 18.9727 53.0522C18.7793 53.0522 18.6079 53.0889 18.4585 53.1621C18.3091 53.2324 18.1831 53.3452 18.0806 53.5005C17.981 53.6558 17.9048 53.8594 17.8521 54.1113C17.7993 54.3633 17.7729 54.6694 17.7729 55.0298V56.2734C17.7729 56.5605 17.7891 56.814 17.8213 57.0337C17.8564 57.2534 17.9077 57.4438 17.9751 57.605C18.0425 57.7632 18.1245 57.8936 18.2212 57.9961C18.3179 58.0986 18.4292 58.1748 18.5552 58.2246C18.6841 58.2715 18.8262 58.2949 18.9814 58.2949C19.1807 58.2949 19.355 58.2568 19.5044 58.1807C19.6538 58.1045 19.7783 57.9858 19.8779 57.8247C19.9805 57.6606 20.0566 57.4512 20.1064 57.1963C20.1562 56.9385 20.1812 56.6309 20.1812 56.2734Z" fill="white"/>
<line x1="30.5" y1="54.875" x2="220.5" y2="54.875" stroke="white" stroke-opacity="0.4" stroke-miterlimit="16" stroke-linecap="round" stroke-linejoin="round" stroke-dasharray="0.1 3"/>
<path opacity="0.8" d="M2.69092 78.6914V85.125H1.87793V79.7065L0.23877 80.3042V79.5703L2.56348 78.6914H2.69092ZM9.27393 84.457V85.125H5.08594V84.5405L7.18213 82.207C7.43994 81.9199 7.63916 81.6768 7.77979 81.4775C7.92334 81.2754 8.02295 81.0952 8.07861 80.937C8.13721 80.7759 8.1665 80.6118 8.1665 80.4448C8.1665 80.2339 8.12256 80.0435 8.03467 79.8735C7.94971 79.7007 7.82373 79.563 7.65674 79.4604C7.48975 79.3579 7.2876 79.3066 7.05029 79.3066C6.76611 79.3066 6.52881 79.3623 6.33838 79.4736C6.15088 79.582 6.01025 79.7344 5.9165 79.9307C5.82275 80.127 5.77588 80.3525 5.77588 80.6074H4.96289C4.96289 80.2471 5.04199 79.9175 5.2002 79.6187C5.3584 79.3198 5.59277 79.0825 5.90332 78.9067C6.21387 78.728 6.59619 78.6387 7.05029 78.6387C7.45459 78.6387 7.80029 78.7104 8.0874 78.854C8.37451 78.9946 8.59424 79.1938 8.74658 79.4517C8.90186 79.7065 8.97949 80.0054 8.97949 80.3481C8.97949 80.5356 8.94727 80.7261 8.88281 80.9194C8.82129 81.1099 8.73486 81.3003 8.62354 81.4907C8.51514 81.6812 8.3877 81.8687 8.24121 82.0532C8.09766 82.2378 7.94385 82.4194 7.77979 82.5981L6.06592 84.457H9.27393ZM10.9702 84.1582V84.813C10.9702 85.0796 10.9028 85.3608 10.7681 85.6567C10.6333 85.9556 10.4443 86.2046 10.2012 86.4038L9.73975 86.083C9.8335 85.9541 9.9126 85.8223 9.97705 85.6875C10.0415 85.5557 10.0898 85.418 10.1221 85.2744C10.1572 85.1338 10.1748 84.9844 10.1748 84.8262V84.1582H10.9702ZM12.9478 82.0796L12.2974 81.9126L12.6182 78.7266H15.9009V79.478H13.3081L13.1147 81.2183C13.2319 81.1509 13.3799 81.0879 13.5586 81.0293C13.7402 80.9707 13.9482 80.9414 14.1826 80.9414C14.4785 80.9414 14.7437 80.9927 14.978 81.0952C15.2124 81.1948 15.4116 81.3384 15.5757 81.5259C15.7427 81.7134 15.8701 81.939 15.958 82.2026C16.0459 82.4663 16.0898 82.7607 16.0898 83.0859C16.0898 83.3936 16.0474 83.6763 15.9624 83.9341C15.8804 84.1919 15.7559 84.4175 15.5889 84.6108C15.4219 84.8013 15.2109 84.9492 14.9561 85.0547C14.7041 85.1602 14.4067 85.2129 14.064 85.2129C13.8062 85.2129 13.5615 85.1777 13.3301 85.1074C13.1016 85.0342 12.8965 84.9243 12.7148 84.7778C12.5361 84.6284 12.3896 84.4438 12.2754 84.2241C12.1641 84.0015 12.0938 83.7407 12.0645 83.4419H12.8379C12.873 83.6821 12.9434 83.8843 13.0488 84.0483C13.1543 84.2124 13.292 84.3369 13.4619 84.4219C13.6348 84.5039 13.8354 84.5449 14.064 84.5449C14.2573 84.5449 14.4287 84.5112 14.5781 84.4438C14.7275 84.3765 14.8535 84.2798 14.9561 84.1538C15.0586 84.0278 15.1362 83.8755 15.189 83.6968C15.2446 83.5181 15.2725 83.3174 15.2725 83.0947C15.2725 82.8926 15.2446 82.7051 15.189 82.5322C15.1333 82.3594 15.0498 82.2085 14.9385 82.0796C14.8301 81.9507 14.6968 81.8511 14.5386 81.7808C14.3804 81.7075 14.1987 81.6709 13.9937 81.6709C13.7212 81.6709 13.5146 81.7075 13.374 81.7808C13.2363 81.854 13.0942 81.9536 12.9478 82.0796ZM20.9985 81.416V82.3916C20.9985 82.916 20.9517 83.3584 20.8579 83.7188C20.7642 84.0791 20.6294 84.3691 20.4536 84.5889C20.2778 84.8086 20.0654 84.9683 19.8164 85.0679C19.5703 85.1646 19.292 85.2129 18.9814 85.2129C18.7354 85.2129 18.5083 85.1821 18.3003 85.1206C18.0923 85.0591 17.9048 84.9609 17.7378 84.8262C17.5737 84.6885 17.4331 84.5098 17.3159 84.29C17.1987 84.0703 17.1094 83.8037 17.0479 83.4902C16.9863 83.1768 16.9556 82.8105 16.9556 82.3916V81.416C16.9556 80.8916 17.0024 80.4521 17.0962 80.0977C17.1929 79.7432 17.3291 79.459 17.5049 79.2451C17.6807 79.0283 17.8916 78.873 18.1377 78.7793C18.3867 78.6855 18.665 78.6387 18.9727 78.6387C19.2217 78.6387 19.4502 78.6694 19.6582 78.731C19.8691 78.7896 20.0566 78.8848 20.2207 79.0166C20.3848 79.1455 20.5239 79.3184 20.6382 79.5352C20.7554 79.749 20.8447 80.0112 20.9062 80.3218C20.9678 80.6323 20.9985 80.9971 20.9985 81.416ZM20.1812 82.5234V81.2798C20.1812 80.9927 20.1636 80.7407 20.1284 80.5239C20.0962 80.3042 20.0479 80.1167 19.9834 79.9614C19.9189 79.8062 19.8369 79.6802 19.7373 79.5835C19.6406 79.4868 19.5278 79.4165 19.3989 79.3726C19.2729 79.3257 19.1309 79.3022 18.9727 79.3022C18.7793 79.3022 18.6079 79.3389 18.4585 79.4121C18.3091 79.4824 18.1831 79.5952 18.0806 79.7505C17.981 79.9058 17.9048 80.1094 17.8521 80.3613C17.7993 80.6133 17.7729 80.9194 17.7729 81.2798V82.5234C17.7729 82.8105 17.7891 83.064 17.8213 83.2837C17.8564 83.5034 17.9077 83.6938 17.9751 83.855C18.0425 84.0132 18.1245 84.1436 18.2212 84.2461C18.3179 84.3486 18.4292 84.4248 18.5552 84.4746C18.6841 84.5215 18.8262 84.5449 18.9814 84.5449C19.1807 84.5449 19.355 84.5068 19.5044 84.4307C19.6538 84.3545 19.7783 84.2358 19.8779 84.0747C19.9805 83.9106 20.0566 83.7012 20.1064 83.4463C20.1562 83.1885 20.1812 82.8809 20.1812 82.5234Z" fill="white"/>
<line x1="30.5" y1="81.125" x2="220.5" y2="81.125" stroke="white" stroke-opacity="0.4" stroke-miterlimit="16" stroke-linecap="round" stroke-linejoin="round" stroke-dasharray="0.1 3"/>
<rect width="191" height="1" transform="matrix(1 0 0 -1 30 109)" fill="white" fill-opacity="0.15"/>
</g>
<defs>
<linearGradient id="paint0_linear_37265_57565" x1="31" y1="96" x2="31" y2="107" gradientUnits="userSpaceOnUse">
<stop stop-color="white"/>
<stop offset="0.0001" stop-color="#878787"/>
<stop offset="1" stop-color="#575757" stop-opacity="0"/>
</linearGradient>
<linearGradient id="paint1_linear_37265_57565" x1="34" y1="96" x2="34" y2="107" gradientUnits="userSpaceOnUse">
<stop stop-color="white"/>
<stop offset="0.0001" stop-color="#878787"/>
<stop offset="1" stop-color="#575757" stop-opacity="0"/>
</linearGradient>
<linearGradient id="paint2_linear_37265_57565" x1="37" y1="93" x2="37" y2="107" gradientUnits="userSpaceOnUse">
<stop stop-color="white"/>
<stop offset="0.0001" stop-color="#878787"/>
<stop offset="1" stop-color="#575757" stop-opacity="0"/>
</linearGradient>
<linearGradient id="paint3_linear_37265_57565" x1="40" y1="93" x2="40" y2="107" gradientUnits="userSpaceOnUse">
<stop stop-color="white"/>
<stop offset="0.0001" stop-color="#878787"/>
<stop offset="1" stop-color="#575757" stop-opacity="0"/>
</linearGradient>
<linearGradient id="paint4_linear_37265_57565" x1="43" y1="91" x2="43" y2="107" gradientUnits="userSpaceOnUse">
<stop stop-color="white"/>
<stop offset="0.0001" stop-color="#878787"/>
<stop offset="1" stop-color="#575757" stop-opacity="0"/>
</linearGradient>
<linearGradient id="paint5_linear_37265_57565" x1="46" y1="91" x2="46" y2="107" gradientUnits="userSpaceOnUse">
<stop stop-color="white"/>
<stop offset="0.0001" stop-color="#878787"/>
<stop offset="1" stop-color="#575757" stop-opacity="0"/>
</linearGradient>
<linearGradient id="paint6_linear_37265_57565" x1="49" y1="91" x2="49" y2="107" gradientUnits="userSpaceOnUse">
<stop stop-color="white"/>
<stop offset="0.0001" stop-color="#878787"/>
<stop offset="1" stop-color="#575757" stop-opacity="0"/>
</linearGradient>
<linearGradient id="paint7_linear_37265_57565" x1="52" y1="91" x2="52" y2="107" gradientUnits="userSpaceOnUse">
<stop stop-color="white"/>
<stop offset="0.0001" stop-color="#878787"/>
<stop offset="1" stop-color="#575757" stop-opacity="0"/>
</linearGradient>
<linearGradient id="paint8_linear_37265_57565" x1="55" y1="93" x2="55" y2="107" gradientUnits="userSpaceOnUse">
<stop stop-color="white"/>
<stop offset="0.0001" stop-color="#878787"/>
<stop offset="1" stop-color="#575757" stop-opacity="0"/>
</linearGradient>
<linearGradient id="paint9_linear_37265_57565" x1="58" y1="93" x2="58" y2="107" gradientUnits="userSpaceOnUse">
<stop stop-color="white"/>
<stop offset="0.0001" stop-color="#878787"/>
<stop offset="1" stop-color="#575757" stop-opacity="0"/>
</linearGradient>
<linearGradient id="paint10_linear_37265_57565" x1="61" y1="96" x2="61" y2="107" gradientUnits="userSpaceOnUse">
<stop stop-color="white"/>
<stop offset="0.0001" stop-color="#878787"/>
<stop offset="1" stop-color="#575757" stop-opacity="0"/>
</linearGradient>
<linearGradient id="paint11_linear_37265_57565" x1="64" y1="96" x2="64" y2="107" gradientUnits="userSpaceOnUse">
<stop stop-color="white"/>
<stop offset="0.0001" stop-color="#878787"/>
<stop offset="1" stop-color="#575757" stop-opacity="0"/>
</linearGradient>
<linearGradient id="paint12_linear_37265_57565" x1="67" y1="98" x2="67" y2="107" gradientUnits="userSpaceOnUse">
<stop stop-color="white"/>
<stop offset="0.0001" stop-color="#878787"/>
<stop offset="1" stop-color="#575757" stop-opacity="0"/>
</linearGradient>
<linearGradient id="paint13_linear_37265_57565" x1="70" y1="98" x2="70" y2="107" gradientUnits="userSpaceOnUse">
<stop stop-color="white"/>
<stop offset="0.0001" stop-color="#878787"/>
<stop offset="1" stop-color="#575757" stop-opacity="0"/>
</linearGradient>
<linearGradient id="paint14_linear_37265_57565" x1="73" y1="99" x2="73" y2="107" gradientUnits="userSpaceOnUse">
<stop stop-color="white"/>
<stop offset="0.0001" stop-color="#878787"/>
<stop offset="1" stop-color="#575757" stop-opacity="0"/>
</linearGradient>
<linearGradient id="paint15_linear_37265_57565" x1="76" y1="99" x2="76" y2="107" gradientUnits="userSpaceOnUse">
<stop stop-color="white"/>
<stop offset="0.0001" stop-color="#878787"/>
<stop offset="1" stop-color="#575757" stop-opacity="0"/>
</linearGradient>
<linearGradient id="paint16_linear_37265_57565" x1="79" y1="99" x2="79" y2="107" gradientUnits="userSpaceOnUse">
<stop stop-color="white"/>
<stop offset="0.0001" stop-color="#878787"/>
<stop offset="1" stop-color="#575757" stop-opacity="0"/>
</linearGradient>
<linearGradient id="paint17_linear_37265_57565" x1="82" y1="99" x2="82" y2="107" gradientUnits="userSpaceOnUse">
<stop stop-color="white"/>
<stop offset="0.0001" stop-color="#878787"/>
<stop offset="1" stop-color="#575757" stop-opacity="0"/>
</linearGradient>
<linearGradient id="paint18_linear_37265_57565" x1="85" y1="99" x2="85" y2="107" gradientUnits="userSpaceOnUse">
<stop stop-color="white"/>
<stop offset="0.0001" stop-color="#878787"/>
<stop offset="1" stop-color="#575757" stop-opacity="0"/>
</linearGradient>
<linearGradient id="paint19_linear_37265_57565" x1="88" y1="99" x2="88" y2="107" gradientUnits="userSpaceOnUse">
<stop stop-color="white"/>
<stop offset="0.0001" stop-color="#878787"/>
<stop offset="1" stop-color="#575757" stop-opacity="0"/>
</linearGradient>
<linearGradient id="paint20_linear_37265_57565" x1="91" y1="98" x2="91" y2="107" gradientUnits="userSpaceOnUse">
<stop stop-color="white"/>
<stop offset="0.0001" stop-color="#878787"/>
<stop offset="1" stop-color="#575757" stop-opacity="0"/>
</linearGradient>
<linearGradient id="paint21_linear_37265_57565" x1="94" y1="98" x2="94" y2="107" gradientUnits="userSpaceOnUse">
<stop stop-color="white"/>
<stop offset="0.0001" stop-color="#878787"/>
<stop offset="1" stop-color="#575757" stop-opacity="0"/>
</linearGradient>
<linearGradient id="paint22_linear_37265_57565" x1="97" y1="97" x2="97" y2="107" gradientUnits="userSpaceOnUse">
<stop stop-color="white"/>
<stop offset="0.0001" stop-color="#878787"/>
<stop offset="1" stop-color="#575757" stop-opacity="0"/>
</linearGradient>
<linearGradient id="paint23_linear_37265_57565" x1="100" y1="97" x2="100" y2="107" gradientUnits="userSpaceOnUse">
<stop stop-color="white"/>
<stop offset="0.0001" stop-color="#878787"/>
<stop offset="1" stop-color="#575757" stop-opacity="0"/>
</linearGradient>
<linearGradient id="paint24_linear_37265_57565" x1="103" y1="96" x2="103" y2="107" gradientUnits="userSpaceOnUse">
<stop stop-color="white"/>
<stop offset="0.0001" stop-color="#878787"/>
<stop offset="1" stop-color="#575757" stop-opacity="0"/>
</linearGradient>
<linearGradient id="paint25_linear_37265_57565" x1="106" y1="96" x2="106" y2="107" gradientUnits="userSpaceOnUse">
<stop stop-color="white"/>
<stop offset="0.0001" stop-color="#878787"/>
<stop offset="1" stop-color="#575757" stop-opacity="0"/>
</linearGradient>
<linearGradient id="paint26_linear_37265_57565" x1="109" y1="95" x2="109" y2="107" gradientUnits="userSpaceOnUse">
<stop stop-color="white"/>
<stop offset="0.0001" stop-color="#878787"/>
<stop offset="1" stop-color="#575757" stop-opacity="0"/>
</linearGradient>
<linearGradient id="paint27_linear_37265_57565" x1="112" y1="95" x2="112" y2="107" gradientUnits="userSpaceOnUse">
<stop stop-color="white"/>
<stop offset="0.0001" stop-color="#878787"/>
<stop offset="1" stop-color="#575757" stop-opacity="0"/>
</linearGradient>
<linearGradient id="paint28_linear_37265_57565" x1="115" y1="93" x2="115" y2="107" gradientUnits="userSpaceOnUse">
<stop stop-color="white"/>
<stop offset="0.0001" stop-color="#878787"/>
<stop offset="1" stop-color="#575757" stop-opacity="0"/>
</linearGradient>
<linearGradient id="paint29_linear_37265_57565" x1="118" y1="93" x2="118" y2="107" gradientUnits="userSpaceOnUse">
<stop stop-color="white"/>
<stop offset="0.0001" stop-color="#878787"/>
<stop offset="1" stop-color="#575757" stop-opacity="0"/>
</linearGradient>
<linearGradient id="paint30_linear_37265_57565" x1="121" y1="90" x2="121" y2="107" gradientUnits="userSpaceOnUse">
<stop stop-color="white"/>
<stop offset="0.0001" stop-color="#878787"/>
<stop offset="1" stop-color="#575757" stop-opacity="0"/>
</linearGradient>
<linearGradient id="paint31_linear_37265_57565" x1="124" y1="90" x2="124" y2="107" gradientUnits="userSpaceOnUse">
<stop stop-color="white"/>
<stop offset="0.0001" stop-color="#878787"/>
<stop offset="1" stop-color="#575757" stop-opacity="0"/>
</linearGradient>
<linearGradient id="paint32_linear_37265_57565" x1="127" y1="87" x2="127" y2="107" gradientUnits="userSpaceOnUse">
<stop stop-color="white"/>
<stop offset="0.0001" stop-color="#878787"/>
<stop offset="1" stop-color="#575757" stop-opacity="0"/>
</linearGradient>
<linearGradient id="paint33_linear_37265_57565" x1="130" y1="87" x2="130" y2="107" gradientUnits="userSpaceOnUse">
<stop stop-color="white"/>
<stop offset="0.0001" stop-color="#878787"/>
<stop offset="1" stop-color="#575757" stop-opacity="0"/>
</linearGradient>
<linearGradient id="paint34_linear_37265_57565" x1="133" y1="86" x2="133" y2="107" gradientUnits="userSpaceOnUse">
<stop stop-color="white"/>
<stop offset="0.0001" stop-color="#878787"/>
<stop offset="1" stop-color="#575757" stop-opacity="0"/>
</linearGradient>
<linearGradient id="paint35_linear_37265_57565" x1="136" y1="86" x2="136" y2="107" gradientUnits="userSpaceOnUse">
<stop stop-color="white"/>
<stop offset="0.0001" stop-color="#878787"/>
<stop offset="1" stop-color="#575757" stop-opacity="0"/>
</linearGradient>
<linearGradient id="paint36_linear_37265_57565" x1="139" y1="86" x2="139" y2="107" gradientUnits="userSpaceOnUse">
<stop stop-color="white"/>
<stop offset="0.0001" stop-color="#878787"/>
<stop offset="1" stop-color="#575757" stop-opacity="0"/>
</linearGradient>
<linearGradient id="paint37_linear_37265_57565" x1="142" y1="86" x2="142" y2="107" gradientUnits="userSpaceOnUse">
<stop stop-color="white"/>
<stop offset="0.0001" stop-color="#878787"/>
<stop offset="1" stop-color="#575757" stop-opacity="0"/>
</linearGradient>
<linearGradient id="paint38_linear_37265_57565" x1="145" y1="87" x2="145" y2="107" gradientUnits="userSpaceOnUse">
<stop stop-color="white"/>
<stop offset="0.0001" stop-color="#878787"/>
<stop offset="1" stop-color="#575757" stop-opacity="0"/>
</linearGradient>
<linearGradient id="paint39_linear_37265_57565" x1="148" y1="87" x2="148" y2="107" gradientUnits="userSpaceOnUse">
<stop stop-color="white"/>
<stop offset="0.0001" stop-color="#878787"/>
<stop offset="1" stop-color="#575757" stop-opacity="0"/>
</linearGradient>
<linearGradient id="paint40_linear_37265_57565" x1="151" y1="90" x2="151" y2="107" gradientUnits="userSpaceOnUse">
<stop stop-color="white"/>
<stop offset="0.0001" stop-color="#878787"/>
<stop offset="1" stop-color="#575757" stop-opacity="0"/>
</linearGradient>
<linearGradient id="paint41_linear_37265_57565" x1="154" y1="90" x2="154" y2="107" gradientUnits="userSpaceOnUse">
<stop stop-color="white"/>
<stop offset="0.0001" stop-color="#878787"/>
<stop offset="1" stop-color="#575757" stop-opacity="0"/>
</linearGradient>
<linearGradient id="paint42_linear_37265_57565" x1="157" y1="91" x2="157" y2="107" gradientUnits="userSpaceOnUse">
<stop stop-color="white"/>
<stop offset="0.0001" stop-color="#878787"/>
<stop offset="1" stop-color="#575757" stop-opacity="0"/>
</linearGradient>
<linearGradient id="paint43_linear_37265_57565" x1="160" y1="91" x2="160" y2="107" gradientUnits="userSpaceOnUse">
<stop stop-color="white"/>
<stop offset="0.0001" stop-color="#878787"/>
<stop offset="1" stop-color="#575757" stop-opacity="0"/>
</linearGradient>
<linearGradient id="paint44_linear_37265_57565" x1="163" y1="92" x2="163" y2="107" gradientUnits="userSpaceOnUse">
<stop stop-color="white"/>
<stop offset="0.0001" stop-color="#878787"/>
<stop offset="1" stop-color="#575757" stop-opacity="0"/>
</linearGradient>
<linearGradient id="paint45_linear_37265_57565" x1="166" y1="92" x2="166" y2="107" gradientUnits="userSpaceOnUse">
<stop stop-color="white"/>
<stop offset="0.0001" stop-color="#878787"/>
<stop offset="1" stop-color="#575757" stop-opacity="0"/>
</linearGradient>
<linearGradient id="paint46_linear_37265_57565" x1="169" y1="91" x2="169" y2="107" gradientUnits="userSpaceOnUse">
<stop stop-color="white"/>
<stop offset="0.0001" stop-color="#878787"/>
<stop offset="1" stop-color="#575757" stop-opacity="0"/>
</linearGradient>
<linearGradient id="paint47_linear_37265_57565" x1="172" y1="91" x2="172" y2="107" gradientUnits="userSpaceOnUse">
<stop stop-color="white"/>
<stop offset="0.0001" stop-color="#878787"/>
<stop offset="1" stop-color="#575757" stop-opacity="0"/>
</linearGradient>
<linearGradient id="paint48_linear_37265_57565" x1="175" y1="90" x2="175" y2="107" gradientUnits="userSpaceOnUse">
<stop stop-color="white"/>
<stop offset="0.0001" stop-color="#878787"/>
<stop offset="1" stop-color="#575757" stop-opacity="0"/>
</linearGradient>
<linearGradient id="paint49_linear_37265_57565" x1="178" y1="90" x2="178" y2="107" gradientUnits="userSpaceOnUse">
<stop stop-color="white"/>
<stop offset="0.0001" stop-color="#878787"/>
<stop offset="1" stop-color="#575757" stop-opacity="0"/>
</linearGradient>
<linearGradient id="paint50_linear_37265_57565" x1="181" y1="90" x2="181" y2="107" gradientUnits="userSpaceOnUse">
<stop stop-color="white"/>
<stop offset="0.0001" stop-color="#878787"/>
<stop offset="1" stop-color="#575757" stop-opacity="0"/>
</linearGradient>
<linearGradient id="paint51_linear_37265_57565" x1="184" y1="90" x2="184" y2="107" gradientUnits="userSpaceOnUse">
<stop stop-color="white"/>
<stop offset="0.0001" stop-color="#878787"/>
<stop offset="1" stop-color="#575757" stop-opacity="0"/>
</linearGradient>
<linearGradient id="paint52_linear_37265_57565" x1="187" y1="89" x2="187" y2="107" gradientUnits="userSpaceOnUse">
<stop stop-color="white"/>
<stop offset="0.0001" stop-color="#878787"/>
<stop offset="1" stop-color="#575757" stop-opacity="0"/>
</linearGradient>
<linearGradient id="paint53_linear_37265_57565" x1="190" y1="89" x2="190" y2="107" gradientUnits="userSpaceOnUse">
<stop stop-color="white"/>
<stop offset="0.0001" stop-color="#878787"/>
<stop offset="1" stop-color="#575757" stop-opacity="0"/>
</linearGradient>
<linearGradient id="paint54_linear_37265_57565" x1="193" y1="90" x2="193" y2="107" gradientUnits="userSpaceOnUse">
<stop stop-color="white"/>
<stop offset="0.0001" stop-color="#878787"/>
<stop offset="1" stop-color="#575757" stop-opacity="0"/>
</linearGradient>
<linearGradient id="paint55_linear_37265_57565" x1="196" y1="90" x2="196" y2="107" gradientUnits="userSpaceOnUse">
<stop stop-color="white"/>
<stop offset="0.0001" stop-color="#878787"/>
<stop offset="1" stop-color="#575757" stop-opacity="0"/>
</linearGradient>
<linearGradient id="paint56_linear_37265_57565" x1="199" y1="90" x2="199" y2="107" gradientUnits="userSpaceOnUse">
<stop stop-color="white"/>
<stop offset="0.0001" stop-color="#878787"/>
<stop offset="1" stop-color="#575757" stop-opacity="0"/>
</linearGradient>
<linearGradient id="paint57_linear_37265_57565" x1="202" y1="90" x2="202" y2="107" gradientUnits="userSpaceOnUse">
<stop stop-color="white"/>
<stop offset="0.0001" stop-color="#878787"/>
<stop offset="1" stop-color="#575757" stop-opacity="0"/>
</linearGradient>
<linearGradient id="paint58_linear_37265_57565" x1="205" y1="92" x2="205" y2="107" gradientUnits="userSpaceOnUse">
<stop stop-color="white"/>
<stop offset="0.0001" stop-color="#878787"/>
<stop offset="1" stop-color="#575757" stop-opacity="0"/>
</linearGradient>
<linearGradient id="paint59_linear_37265_57565" x1="208" y1="92" x2="208" y2="107" gradientUnits="userSpaceOnUse">
<stop stop-color="white"/>
<stop offset="0.0001" stop-color="#878787"/>
<stop offset="1" stop-color="#575757" stop-opacity="0"/>
</linearGradient>
<linearGradient id="paint60_linear_37265_57565" x1="211" y1="94" x2="211" y2="107" gradientUnits="userSpaceOnUse">
<stop stop-color="white"/>
<stop offset="0.0001" stop-color="#878787"/>
<stop offset="1" stop-color="#575757" stop-opacity="0"/>
</linearGradient>
<linearGradient id="paint61_linear_37265_57565" x1="214" y1="94" x2="214" y2="107" gradientUnits="userSpaceOnUse">
<stop stop-color="white"/>
<stop offset="0.0001" stop-color="#878787"/>
<stop offset="1" stop-color="#575757" stop-opacity="0"/>
</linearGradient>
<linearGradient id="paint62_linear_37265_57565" x1="217" y1="94" x2="217" y2="107" gradientUnits="userSpaceOnUse">
<stop stop-color="white"/>
<stop offset="0.0001" stop-color="#878787"/>
<stop offset="1" stop-color="#575757" stop-opacity="0"/>
</linearGradient>
<linearGradient id="paint63_linear_37265_57565" x1="220" y1="94" x2="220" y2="107" gradientUnits="userSpaceOnUse">
<stop stop-color="white"/>
<stop offset="0.0001" stop-color="#878787"/>
<stop offset="1" stop-color="#575757" stop-opacity="0"/>
</linearGradient>
<linearGradient id="paint64_linear_37265_57565" x1="125.5" y1="20.918" x2="125.5" y2="88.0001" gradientUnits="userSpaceOnUse">
<stop stop-color="#F53D26"/>
<stop offset="1" stop-color="#F53D26" stop-opacity="0"/>
</linearGradient>
<clipPath id="clip0_37265_57565">
<rect width="221" height="109" fill="white"/>
</clipPath>
</defs>
</svg>
