<svg width="222" height="109" viewBox="0 0 222 109" fill="none" xmlns="http://www.w3.org/2000/svg">
<g clip-path="url(#clip0_37265_57566)">
<g opacity="0.25">
<rect x="31" y="96" width="2" height="11" fill="url(#paint0_linear_37265_57566)"/>
<rect x="34" y="96" width="2" height="11" fill="url(#paint1_linear_37265_57566)"/>
<rect x="37" y="93" width="2" height="14" fill="url(#paint2_linear_37265_57566)"/>
<rect x="40" y="93" width="2" height="14" fill="url(#paint3_linear_37265_57566)"/>
<rect x="43" y="91" width="2" height="16" fill="url(#paint4_linear_37265_57566)"/>
<rect x="46" y="91" width="2" height="16" fill="url(#paint5_linear_37265_57566)"/>
<rect x="49" y="91" width="2" height="16" fill="url(#paint6_linear_37265_57566)"/>
<rect x="52" y="91" width="2" height="16" fill="url(#paint7_linear_37265_57566)"/>
<rect x="55" y="93" width="2" height="14" fill="url(#paint8_linear_37265_57566)"/>
<rect x="58" y="93" width="2" height="14" fill="url(#paint9_linear_37265_57566)"/>
<rect x="61" y="96" width="2" height="11" fill="url(#paint10_linear_37265_57566)"/>
<rect x="64" y="96" width="2" height="11" fill="url(#paint11_linear_37265_57566)"/>
<rect x="67" y="98" width="2" height="9" fill="url(#paint12_linear_37265_57566)"/>
<rect x="70" y="98" width="2" height="9" fill="url(#paint13_linear_37265_57566)"/>
<rect x="73" y="99" width="2" height="8" fill="url(#paint14_linear_37265_57566)"/>
<rect x="76" y="99" width="2" height="8" fill="url(#paint15_linear_37265_57566)"/>
<rect x="79" y="99" width="2" height="8" fill="url(#paint16_linear_37265_57566)"/>
<rect x="82" y="99" width="2" height="8" fill="url(#paint17_linear_37265_57566)"/>
<rect x="85" y="99" width="2" height="8" fill="url(#paint18_linear_37265_57566)"/>
<rect x="88" y="99" width="2" height="8" fill="url(#paint19_linear_37265_57566)"/>
<rect x="91" y="98" width="2" height="9" fill="url(#paint20_linear_37265_57566)"/>
<rect x="94" y="98" width="2" height="9" fill="url(#paint21_linear_37265_57566)"/>
<rect x="97" y="97" width="2" height="10" fill="url(#paint22_linear_37265_57566)"/>
<rect x="100" y="97" width="2" height="10" fill="url(#paint23_linear_37265_57566)"/>
<rect x="103" y="96" width="2" height="11" fill="url(#paint24_linear_37265_57566)"/>
<rect x="106" y="96" width="2" height="11" fill="url(#paint25_linear_37265_57566)"/>
<rect x="109" y="95" width="2" height="12" fill="url(#paint26_linear_37265_57566)"/>
<rect x="112" y="95" width="2" height="12" fill="url(#paint27_linear_37265_57566)"/>
<rect x="115" y="93" width="2" height="14" fill="url(#paint28_linear_37265_57566)"/>
<rect x="118" y="93" width="2" height="14" fill="url(#paint29_linear_37265_57566)"/>
<rect x="121" y="90" width="2" height="17" fill="url(#paint30_linear_37265_57566)"/>
<rect x="124" y="90" width="2" height="17" fill="url(#paint31_linear_37265_57566)"/>
<rect x="127" y="87" width="2" height="20" fill="url(#paint32_linear_37265_57566)"/>
<rect x="130" y="87" width="2" height="20" fill="url(#paint33_linear_37265_57566)"/>
<rect x="133" y="86" width="2" height="21" fill="url(#paint34_linear_37265_57566)"/>
<rect x="136" y="86" width="2" height="21" fill="url(#paint35_linear_37265_57566)"/>
<rect x="139" y="86" width="2" height="21" fill="url(#paint36_linear_37265_57566)"/>
<rect x="142" y="86" width="2" height="21" fill="url(#paint37_linear_37265_57566)"/>
<rect x="145" y="87" width="2" height="20" fill="url(#paint38_linear_37265_57566)"/>
<rect x="148" y="87" width="2" height="20" fill="url(#paint39_linear_37265_57566)"/>
<rect x="151" y="90" width="2" height="17" fill="url(#paint40_linear_37265_57566)"/>
<rect x="154" y="90" width="2" height="17" fill="url(#paint41_linear_37265_57566)"/>
<rect x="157" y="91" width="2" height="16" fill="url(#paint42_linear_37265_57566)"/>
<rect x="160" y="91" width="2" height="16" fill="url(#paint43_linear_37265_57566)"/>
<rect x="163" y="92" width="2" height="15" fill="url(#paint44_linear_37265_57566)"/>
<rect x="166" y="92" width="2" height="15" fill="url(#paint45_linear_37265_57566)"/>
<rect x="169" y="91" width="2" height="16" fill="url(#paint46_linear_37265_57566)"/>
<rect x="172" y="91" width="2" height="16" fill="url(#paint47_linear_37265_57566)"/>
<rect x="175" y="90" width="2" height="17" fill="url(#paint48_linear_37265_57566)"/>
<rect x="178" y="90" width="2" height="17" fill="url(#paint49_linear_37265_57566)"/>
<rect x="181" y="90" width="2" height="17" fill="url(#paint50_linear_37265_57566)"/>
<rect x="184" y="90" width="2" height="17" fill="url(#paint51_linear_37265_57566)"/>
<rect x="187" y="89" width="2" height="18" fill="url(#paint52_linear_37265_57566)"/>
<rect x="190" y="89" width="2" height="18" fill="url(#paint53_linear_37265_57566)"/>
<rect x="193" y="90" width="2" height="17" fill="url(#paint54_linear_37265_57566)"/>
<rect x="196" y="90" width="2" height="17" fill="url(#paint55_linear_37265_57566)"/>
<rect x="199" y="90" width="2" height="17" fill="url(#paint56_linear_37265_57566)"/>
<rect x="202" y="90" width="2" height="17" fill="url(#paint57_linear_37265_57566)"/>
<rect x="205" y="92" width="2" height="15" fill="url(#paint58_linear_37265_57566)"/>
<rect x="208" y="92" width="2" height="15" fill="url(#paint59_linear_37265_57566)"/>
<rect x="211" y="94" width="2" height="13" fill="url(#paint60_linear_37265_57566)"/>
<rect x="214" y="94" width="2" height="13" fill="url(#paint61_linear_37265_57566)"/>
<rect x="217" y="94" width="2" height="13" fill="url(#paint62_linear_37265_57566)"/>
<rect x="220" y="94" width="2" height="13" fill="url(#paint63_linear_37265_57566)"/>
</g>
<path d="M32.91 61.9126L31 65.6394V88.0001H32.91H42.3008H53.4425H64.7433H75.885H87.1858H98.4867H109.628H120.929H132.071H143.372H154.513H165.814H177.115H188.257H199.557H210.699H220.09H222V20.918H220.09L210.699 32.0983L199.557 48.9223H188.257L177.115 47.0054L165.814 30.8561L154.513 32.0983L143.372 50.7322L132.071 64.3971L120.929 49.49L109.628 50.7322L98.4867 51.9745L87.1858 39.5519L75.885 59.4281L64.7433 68.1239L53.4425 71.8507L42.3008 53.2168L32.91 61.9126Z" fill="url(#paint64_linear_37265_57566)" fill-opacity="0.15"/>
<path d="M31 65.4521L31.955 67.8016L32.91 61.6909L34.0839 56.3638L35.2577 59.4969L36.4316 62.63L37.6054 57.3029L38.7793 51.9758L39.9531 55.1089L41.127 58.242L42.3008 52.9149L42.9972 49.8602L43.6935 55.2656L44.3899 60.6711L45.0863 57.6164L45.7826 54.5616L46.479 59.9671L47.1753 65.3726L47.8717 62.3178L48.568 61.8011L49.2644 64.6685L49.9607 67.5359L50.6571 67.0192L51.3534 67.3486L52.0498 70.216L52.7461 69.6993L53.4425 72.5667L54.8551 70.4045L56.2677 71.6264L57.6803 69.4642L59.0929 69.8401L60.5055 68.524L61.9181 69.7459L63.3307 67.5837L64.7433 68.8056L65.4397 66.565L66.136 67.7086L66.8324 65.891L67.5287 66.6116L68.2251 64.371L68.9215 65.5145L69.6178 63.274L70.3142 63.9945L71.0105 62.177L71.7069 63.3205L72.4032 61.503L73.0996 65.6076L73.7959 60.406L74.4923 60.7035L75.1886 55.5019L75.885 59.1835L76.5913 58.3528L77.2976 56.2531L78.0039 55.8454L78.7102 53.7456L79.4165 54.1839L80.1228 50.8152L80.8291 54.6376L81.5354 48.7307L82.2417 48.7461L82.948 41.9932L83.6543 49.6227L84.3606 39.9088L85.0669 42.8851L85.7732 42.4775L86.4795 39.5317L87.1858 39.97L87.8921 35.6774L88.5984 44.9213L89.3047 41.4747L90.011 40.1432L90.7173 44.7339L91.4236 42.5564L92.1299 45.455L92.8363 45.3926L93.5426 47.4452L94.2489 46.9597L94.9552 49.0123L95.6615 48.5269L96.3678 49.3105L97.0741 51.3631L97.7804 50.8776L98.4867 51.6612L99.8794 51.9275L101.272 47.1176L102.665 51.6141L104.058 55.2644L105.45 51.3006L106.843 49.0288L108.236 53.1022L109.628 50.4075L111.041 52.3658L112.454 50.094L113.866 49.9373L115.279 51.8957L116.691 49.6239L118.104 49.4672L119.517 45.0803L120.929 44.9236L121.626 50.094L122.322 51.0343L123.018 54.0897L123.715 52.9149L124.411 53.8552L125.107 56.9105L125.804 55.7358L126.5 52.4459L127.196 59.7314L127.893 58.5566L128.589 59.4969L129.285 64.6673L129.982 57.1474L130.678 66.5479L131.374 63.2581L132.071 64.1984L132.777 63.3365L133.483 60.7825L134.19 61.6126L134.896 58.6356L135.602 59.8887L136.309 56.9117L137.015 58.1649L137.721 55.1879L139.134 55.5791L139.84 57.2552L140.546 53.8552L141.253 55.5313L141.959 52.1313L142.665 53.8075L143.372 50.4075L144.068 45.002L144.764 48.0567L145.461 42.6513L146.157 45.706L146.853 44.5307L147.55 39.1252L148.246 42.1799L148.942 41.0046L149.639 44.0593L150.335 38.6538L151.032 41.7086L151.728 36.3031L152.424 39.3579L153.121 33.9524L153.817 32.777L154.513 35.8318L155.926 27.2148L157.339 31.2882L158.751 35.3616L160.164 30.9748L161.576 39.2783L162.989 34.8915L164.402 30.5047L165.814 26.1178L166.52 31.3666L167.227 36.6154L167.933 33.4039L168.639 34.4225L169.346 39.6713L170.052 36.4598L170.758 33.2484L171.465 38.4971L172.171 39.5158L172.877 36.3043L173.583 41.5531L174.29 42.5717L174.996 47.8205L175.702 44.609L176.409 45.6277L177.115 50.8764L178.508 46.8881L179.9 42.8998L181.293 47.3718L182.686 43.3835L184.079 47.8554L185.471 46.4052L186.864 49.1851L188.257 46.8888L189.669 49.4269L191.082 46.8888L192.494 48.5809L193.907 44.3507L195.32 48.5809L196.732 52.811L198.145 44.3507L199.558 48.5809L200.254 47.5196L200.95 50.6886L201.647 45.3973L202.343 48.5662L203.039 43.2749L203.736 37.9835L204.432 41.1525L205.128 44.3214L205.825 39.0301L206.521 33.7388L207.217 36.9077L207.914 40.0766L208.61 34.7853L209.306 29.494L210.003 32.6629L210.699 31.6017L211.286 35.1266L211.873 30.1912L212.46 29.486L213.047 28.7808L213.634 28.0756L214.221 31.6005L214.808 26.6651L215.395 25.9599L215.982 21.0246L216.568 24.5495L217.155 23.8443L217.742 18.9089L218.329 22.4338L218.916 21.7286L219.503 21.0234L220.09 16L221.045 20.3182H222" stroke="#5CFFC4" stroke-width="0.8"/>
<path opacity="0.8" d="M5.1543 0.976562V1.43359L2.50439 7.375H1.64746L4.29297 1.64453H0.830078V0.976562H5.1543ZM6.90771 6.4082V7.06299C6.90771 7.32959 6.84033 7.61084 6.70557 7.90674C6.5708 8.20557 6.38184 8.45459 6.13867 8.65381L5.67725 8.33301C5.771 8.2041 5.8501 8.07227 5.91455 7.9375C5.979 7.80566 6.02734 7.66797 6.05957 7.52441C6.09473 7.38379 6.1123 7.23438 6.1123 7.07617V6.4082H6.90771ZM8.88525 4.32959L8.23486 4.1626L8.55566 0.976562H11.8384V1.72803H9.24561L9.05225 3.46826C9.16943 3.40088 9.31738 3.33789 9.49609 3.2793C9.67773 3.2207 9.88574 3.19141 10.1201 3.19141C10.416 3.19141 10.6812 3.24268 10.9155 3.34521C11.1499 3.44482 11.3491 3.58838 11.5132 3.77588C11.6802 3.96338 11.8076 4.18896 11.8955 4.45264C11.9834 4.71631 12.0273 5.01074 12.0273 5.33594C12.0273 5.64355 11.9849 5.92627 11.8999 6.18408C11.8179 6.44189 11.6934 6.66748 11.5264 6.86084C11.3594 7.05127 11.1484 7.19922 10.8936 7.30469C10.6416 7.41016 10.3442 7.46289 10.0015 7.46289C9.74365 7.46289 9.49902 7.42773 9.26758 7.35742C9.03906 7.28418 8.83398 7.17432 8.65234 7.02783C8.47363 6.87842 8.32715 6.69385 8.21289 6.47412C8.10156 6.25146 8.03125 5.99072 8.00195 5.69189H8.77539C8.81055 5.93213 8.88086 6.13428 8.98633 6.29834C9.0918 6.4624 9.22949 6.58691 9.39941 6.67188C9.57227 6.75391 9.77295 6.79492 10.0015 6.79492C10.1948 6.79492 10.3662 6.76123 10.5156 6.69385C10.665 6.62646 10.791 6.52979 10.8936 6.40381C10.9961 6.27783 11.0737 6.12549 11.1265 5.94678C11.1821 5.76807 11.21 5.56738 11.21 5.34473C11.21 5.14258 11.1821 4.95508 11.1265 4.78223C11.0708 4.60938 10.9873 4.4585 10.876 4.32959C10.7676 4.20068 10.6343 4.10107 10.4761 4.03076C10.3179 3.95752 10.1362 3.9209 9.93115 3.9209C9.65869 3.9209 9.45215 3.95752 9.31152 4.03076C9.17383 4.104 9.03174 4.20361 8.88525 4.32959ZM16.936 3.66602V4.6416C16.936 5.16602 16.8892 5.6084 16.7954 5.96875C16.7017 6.3291 16.5669 6.61914 16.3911 6.83887C16.2153 7.05859 16.0029 7.21826 15.7539 7.31787C15.5078 7.41455 15.2295 7.46289 14.9189 7.46289C14.6729 7.46289 14.4458 7.43213 14.2378 7.37061C14.0298 7.30908 13.8423 7.21094 13.6753 7.07617C13.5112 6.93848 13.3706 6.75977 13.2534 6.54004C13.1362 6.32031 13.0469 6.05371 12.9854 5.74023C12.9238 5.42676 12.8931 5.06055 12.8931 4.6416V3.66602C12.8931 3.1416 12.9399 2.70215 13.0337 2.34766C13.1304 1.99316 13.2666 1.70898 13.4424 1.49512C13.6182 1.27832 13.8291 1.12305 14.0752 1.0293C14.3242 0.935547 14.6025 0.888672 14.9102 0.888672C15.1592 0.888672 15.3877 0.919434 15.5957 0.980957C15.8066 1.03955 15.9941 1.13477 16.1582 1.2666C16.3223 1.39551 16.4614 1.56836 16.5757 1.78516C16.6929 1.99902 16.7822 2.26123 16.8438 2.57178C16.9053 2.88232 16.936 3.24707 16.936 3.66602ZM16.1187 4.77344V3.52979C16.1187 3.24268 16.1011 2.99072 16.0659 2.77393C16.0337 2.5542 15.9854 2.3667 15.9209 2.21143C15.8564 2.05615 15.7744 1.93018 15.6748 1.8335C15.5781 1.73682 15.4653 1.6665 15.3364 1.62256C15.2104 1.57568 15.0684 1.55225 14.9102 1.55225C14.7168 1.55225 14.5454 1.58887 14.396 1.66211C14.2466 1.73242 14.1206 1.84521 14.0181 2.00049C13.9185 2.15576 13.8423 2.35938 13.7896 2.61133C13.7368 2.86328 13.7104 3.16943 13.7104 3.52979V4.77344C13.7104 5.06055 13.7266 5.31396 13.7588 5.53369C13.7939 5.75342 13.8452 5.94385 13.9126 6.10498C13.98 6.26318 14.062 6.39355 14.1587 6.49609C14.2554 6.59863 14.3667 6.6748 14.4927 6.72461C14.6216 6.77148 14.7637 6.79492 14.9189 6.79492C15.1182 6.79492 15.2925 6.75684 15.4419 6.68066C15.5913 6.60449 15.7158 6.48584 15.8154 6.32471C15.918 6.16064 15.9941 5.95117 16.0439 5.69629C16.0938 5.43848 16.1187 5.13086 16.1187 4.77344ZM21.9985 3.66602V4.6416C21.9985 5.16602 21.9517 5.6084 21.8579 5.96875C21.7642 6.3291 21.6294 6.61914 21.4536 6.83887C21.2778 7.05859 21.0654 7.21826 20.8164 7.31787C20.5703 7.41455 20.292 7.46289 19.9814 7.46289C19.7354 7.46289 19.5083 7.43213 19.3003 7.37061C19.0923 7.30908 18.9048 7.21094 18.7378 7.07617C18.5737 6.93848 18.4331 6.75977 18.3159 6.54004C18.1987 6.32031 18.1094 6.05371 18.0479 5.74023C17.9863 5.42676 17.9556 5.06055 17.9556 4.6416V3.66602C17.9556 3.1416 18.0024 2.70215 18.0962 2.34766C18.1929 1.99316 18.3291 1.70898 18.5049 1.49512C18.6807 1.27832 18.8916 1.12305 19.1377 1.0293C19.3867 0.935547 19.665 0.888672 19.9727 0.888672C20.2217 0.888672 20.4502 0.919434 20.6582 0.980957C20.8691 1.03955 21.0566 1.13477 21.2207 1.2666C21.3848 1.39551 21.5239 1.56836 21.6382 1.78516C21.7554 1.99902 21.8447 2.26123 21.9062 2.57178C21.9678 2.88232 21.9985 3.24707 21.9985 3.66602ZM21.1812 4.77344V3.52979C21.1812 3.24268 21.1636 2.99072 21.1284 2.77393C21.0962 2.5542 21.0479 2.3667 20.9834 2.21143C20.9189 2.05615 20.8369 1.93018 20.7373 1.8335C20.6406 1.73682 20.5278 1.6665 20.3989 1.62256C20.2729 1.57568 20.1309 1.55225 19.9727 1.55225C19.7793 1.55225 19.6079 1.58887 19.4585 1.66211C19.3091 1.73242 19.1831 1.84521 19.0806 2.00049C18.981 2.15576 18.9048 2.35938 18.8521 2.61133C18.7993 2.86328 18.7729 3.16943 18.7729 3.52979V4.77344C18.7729 5.06055 18.7891 5.31396 18.8213 5.53369C18.8564 5.75342 18.9077 5.94385 18.9751 6.10498C19.0425 6.26318 19.1245 6.39355 19.2212 6.49609C19.3179 6.59863 19.4292 6.6748 19.5552 6.72461C19.6841 6.77148 19.8262 6.79492 19.9814 6.79492C20.1807 6.79492 20.355 6.75684 20.5044 6.68066C20.6538 6.60449 20.7783 6.48584 20.8779 6.32471C20.9805 6.16064 21.0566 5.95117 21.1064 5.69629C21.1562 5.43848 21.1812 5.13086 21.1812 4.77344Z" fill="white"/>
<line x1="31.5" y1="3.375" x2="221.5" y2="3.375" stroke="white" stroke-opacity="0.4" stroke-miterlimit="16" stroke-linecap="round" stroke-linejoin="round" stroke-dasharray="0.1 3"/>
<path opacity="0.8" d="M5.1543 26.7266V27.1836L2.50439 33.125H1.64746L4.29297 27.3945H0.830078V26.7266H5.1543ZM6.90771 32.1582V32.813C6.90771 33.0796 6.84033 33.3608 6.70557 33.6567C6.5708 33.9556 6.38184 34.2046 6.13867 34.4038L5.67725 34.083C5.771 33.9541 5.8501 33.8223 5.91455 33.6875C5.979 33.5557 6.02734 33.418 6.05957 33.2744C6.09473 33.1338 6.1123 32.9844 6.1123 32.8262V32.1582H6.90771ZM11.8735 29.416V30.3916C11.8735 30.916 11.8267 31.3584 11.7329 31.7188C11.6392 32.0791 11.5044 32.3691 11.3286 32.5889C11.1528 32.8086 10.9404 32.9683 10.6914 33.0679C10.4453 33.1646 10.167 33.2129 9.85645 33.2129C9.61035 33.2129 9.3833 33.1821 9.17529 33.1206C8.96729 33.0591 8.77979 32.9609 8.61279 32.8262C8.44873 32.6885 8.30811 32.5098 8.19092 32.29C8.07373 32.0703 7.98438 31.8037 7.92285 31.4902C7.86133 31.1768 7.83057 30.8105 7.83057 30.3916V29.416C7.83057 28.8916 7.87744 28.4521 7.97119 28.0977C8.06787 27.7432 8.2041 27.459 8.37988 27.2451C8.55566 27.0283 8.7666 26.873 9.0127 26.7793C9.26172 26.6855 9.54004 26.6387 9.84766 26.6387C10.0967 26.6387 10.3252 26.6694 10.5332 26.731C10.7441 26.7896 10.9316 26.8848 11.0957 27.0166C11.2598 27.1455 11.3989 27.3184 11.5132 27.5352C11.6304 27.749 11.7197 28.0112 11.7812 28.3218C11.8428 28.6323 11.8735 28.9971 11.8735 29.416ZM11.0562 30.5234V29.2798C11.0562 28.9927 11.0386 28.7407 11.0034 28.5239C10.9712 28.3042 10.9229 28.1167 10.8584 27.9614C10.7939 27.8062 10.7119 27.6802 10.6123 27.5835C10.5156 27.4868 10.4028 27.4165 10.2739 27.3726C10.1479 27.3257 10.0059 27.3022 9.84766 27.3022C9.6543 27.3022 9.48291 27.3389 9.3335 27.4121C9.18408 27.4824 9.05811 27.5952 8.95557 27.7505C8.85596 27.9058 8.77979 28.1094 8.72705 28.3613C8.67432 28.6133 8.64795 28.9194 8.64795 29.2798V30.5234C8.64795 30.8105 8.66406 31.064 8.69629 31.2837C8.73145 31.5034 8.78271 31.6938 8.8501 31.855C8.91748 32.0132 8.99951 32.1436 9.09619 32.2461C9.19287 32.3486 9.3042 32.4248 9.43018 32.4746C9.55908 32.5215 9.70117 32.5449 9.85645 32.5449C10.0557 32.5449 10.23 32.5068 10.3794 32.4307C10.5288 32.3545 10.6533 32.2358 10.7529 32.0747C10.8555 31.9106 10.9316 31.7012 10.9814 31.4463C11.0312 31.1885 11.0562 30.8809 11.0562 30.5234ZM16.936 29.416V30.3916C16.936 30.916 16.8892 31.3584 16.7954 31.7188C16.7017 32.0791 16.5669 32.3691 16.3911 32.5889C16.2153 32.8086 16.0029 32.9683 15.7539 33.0679C15.5078 33.1646 15.2295 33.2129 14.9189 33.2129C14.6729 33.2129 14.4458 33.1821 14.2378 33.1206C14.0298 33.0591 13.8423 32.9609 13.6753 32.8262C13.5112 32.6885 13.3706 32.5098 13.2534 32.29C13.1362 32.0703 13.0469 31.8037 12.9854 31.4902C12.9238 31.1768 12.8931 30.8105 12.8931 30.3916V29.416C12.8931 28.8916 12.9399 28.4521 13.0337 28.0977C13.1304 27.7432 13.2666 27.459 13.4424 27.2451C13.6182 27.0283 13.8291 26.873 14.0752 26.7793C14.3242 26.6855 14.6025 26.6387 14.9102 26.6387C15.1592 26.6387 15.3877 26.6694 15.5957 26.731C15.8066 26.7896 15.9941 26.8848 16.1582 27.0166C16.3223 27.1455 16.4614 27.3184 16.5757 27.5352C16.6929 27.749 16.7822 28.0112 16.8438 28.3218C16.9053 28.6323 16.936 28.9971 16.936 29.416ZM16.1187 30.5234V29.2798C16.1187 28.9927 16.1011 28.7407 16.0659 28.5239C16.0337 28.3042 15.9854 28.1167 15.9209 27.9614C15.8564 27.8062 15.7744 27.6802 15.6748 27.5835C15.5781 27.4868 15.4653 27.4165 15.3364 27.3726C15.2104 27.3257 15.0684 27.3022 14.9102 27.3022C14.7168 27.3022 14.5454 27.3389 14.396 27.4121C14.2466 27.4824 14.1206 27.5952 14.0181 27.7505C13.9185 27.9058 13.8423 28.1094 13.7896 28.3613C13.7368 28.6133 13.7104 28.9194 13.7104 29.2798V30.5234C13.7104 30.8105 13.7266 31.064 13.7588 31.2837C13.7939 31.5034 13.8452 31.6938 13.9126 31.855C13.98 32.0132 14.062 32.1436 14.1587 32.2461C14.2554 32.3486 14.3667 32.4248 14.4927 32.4746C14.6216 32.5215 14.7637 32.5449 14.9189 32.5449C15.1182 32.5449 15.2925 32.5068 15.4419 32.4307C15.5913 32.3545 15.7158 32.2358 15.8154 32.0747C15.918 31.9106 15.9941 31.7012 16.0439 31.4463C16.0938 31.1885 16.1187 30.8809 16.1187 30.5234ZM21.9985 29.416V30.3916C21.9985 30.916 21.9517 31.3584 21.8579 31.7188C21.7642 32.0791 21.6294 32.3691 21.4536 32.5889C21.2778 32.8086 21.0654 32.9683 20.8164 33.0679C20.5703 33.1646 20.292 33.2129 19.9814 33.2129C19.7354 33.2129 19.5083 33.1821 19.3003 33.1206C19.0923 33.0591 18.9048 32.9609 18.7378 32.8262C18.5737 32.6885 18.4331 32.5098 18.3159 32.29C18.1987 32.0703 18.1094 31.8037 18.0479 31.4902C17.9863 31.1768 17.9556 30.8105 17.9556 30.3916V29.416C17.9556 28.8916 18.0024 28.4521 18.0962 28.0977C18.1929 27.7432 18.3291 27.459 18.5049 27.2451C18.6807 27.0283 18.8916 26.873 19.1377 26.7793C19.3867 26.6855 19.665 26.6387 19.9727 26.6387C20.2217 26.6387 20.4502 26.6694 20.6582 26.731C20.8691 26.7896 21.0566 26.8848 21.2207 27.0166C21.3848 27.1455 21.5239 27.3184 21.6382 27.5352C21.7554 27.749 21.8447 28.0112 21.9062 28.3218C21.9678 28.6323 21.9985 28.9971 21.9985 29.416ZM21.1812 30.5234V29.2798C21.1812 28.9927 21.1636 28.7407 21.1284 28.5239C21.0962 28.3042 21.0479 28.1167 20.9834 27.9614C20.9189 27.8062 20.8369 27.6802 20.7373 27.5835C20.6406 27.4868 20.5278 27.4165 20.3989 27.3726C20.2729 27.3257 20.1309 27.3022 19.9727 27.3022C19.7793 27.3022 19.6079 27.3389 19.4585 27.4121C19.3091 27.4824 19.1831 27.5952 19.0806 27.7505C18.981 27.9058 18.9048 28.1094 18.8521 28.3613C18.7993 28.6133 18.7729 28.9194 18.7729 29.2798V30.5234C18.7729 30.8105 18.7891 31.064 18.8213 31.2837C18.8564 31.5034 18.9077 31.6938 18.9751 31.855C19.0425 32.0132 19.1245 32.1436 19.2212 32.2461C19.3179 32.3486 19.4292 32.4248 19.5552 32.4746C19.6841 32.5215 19.8262 32.5449 19.9814 32.5449C20.1807 32.5449 20.355 32.5068 20.5044 32.4307C20.6538 32.3545 20.7783 32.2358 20.8779 32.0747C20.9805 31.9106 21.0566 31.7012 21.1064 31.4463C21.1562 31.1885 21.1812 30.8809 21.1812 30.5234Z" fill="white"/>
<line x1="31.5" y1="29.125" x2="221.5" y2="29.125" stroke="white" stroke-opacity="0.4" stroke-miterlimit="16" stroke-linecap="round" stroke-linejoin="round" stroke-dasharray="0.1 3"/>
<path opacity="0.8" d="M4.13916 52.4678H4.20947V53.1577H4.13916C3.7085 53.1577 3.34814 53.228 3.05811 53.3687C2.76807 53.5063 2.53809 53.6924 2.36816 53.9268C2.19824 54.1582 2.0752 54.4189 1.99902 54.709C1.92578 54.999 1.88916 55.2935 1.88916 55.5923V56.5327C1.88916 56.8169 1.92285 57.0688 1.99023 57.2886C2.05762 57.5054 2.1499 57.6885 2.26709 57.8379C2.38428 57.9873 2.51611 58.1001 2.6626 58.1763C2.81201 58.2524 2.96729 58.2905 3.12842 58.2905C3.31592 58.2905 3.48291 58.2554 3.62939 58.1851C3.77588 58.1118 3.89893 58.0107 3.99854 57.8818C4.10107 57.75 4.17871 57.5947 4.23145 57.416C4.28418 57.2373 4.31055 57.041 4.31055 56.8271C4.31055 56.6367 4.28711 56.4536 4.24023 56.2778C4.19336 56.0991 4.12158 55.9409 4.0249 55.8032C3.92822 55.6626 3.80664 55.5527 3.66016 55.4736C3.5166 55.3916 3.34521 55.3506 3.146 55.3506C2.92041 55.3506 2.70947 55.4062 2.51318 55.5176C2.31982 55.626 2.16016 55.7695 2.03418 55.9482C1.91113 56.124 1.84082 56.3159 1.82324 56.5239L1.39258 56.5195C1.43359 56.1914 1.50977 55.9116 1.62109 55.6802C1.73535 55.4458 1.87598 55.2554 2.04297 55.1089C2.21289 54.9595 2.40186 54.8511 2.60986 54.7837C2.8208 54.7134 3.04346 54.6782 3.27783 54.6782C3.59717 54.6782 3.87256 54.7383 4.104 54.8584C4.33545 54.9785 4.52588 55.1396 4.67529 55.3418C4.82471 55.541 4.93457 55.7666 5.00488 56.0186C5.07812 56.2676 5.11475 56.5239 5.11475 56.7876C5.11475 57.0894 5.07227 57.3721 4.9873 57.6357C4.90234 57.8994 4.7749 58.1309 4.60498 58.3301C4.43799 58.5293 4.23145 58.6846 3.98535 58.7959C3.73926 58.9072 3.45361 58.9629 3.12842 58.9629C2.78271 58.9629 2.48096 58.8926 2.22314 58.752C1.96533 58.6084 1.75146 58.418 1.58154 58.1807C1.41162 57.9434 1.28418 57.6797 1.19922 57.3896C1.11426 57.0996 1.07178 56.8052 1.07178 56.5063V56.124C1.07178 55.6729 1.11719 55.2305 1.20801 54.7969C1.29883 54.3633 1.45557 53.9707 1.67822 53.6191C1.90381 53.2676 2.21582 52.9878 2.61426 52.7798C3.0127 52.5718 3.521 52.4678 4.13916 52.4678ZM6.90771 57.9082V58.563C6.90771 58.8296 6.84033 59.1108 6.70557 59.4067C6.5708 59.7056 6.38184 59.9546 6.13867 60.1538L5.67725 59.833C5.771 59.7041 5.8501 59.5723 5.91455 59.4375C5.979 59.3057 6.02734 59.168 6.05957 59.0244C6.09473 58.8838 6.1123 58.7344 6.1123 58.5762V57.9082H6.90771ZM8.88525 55.8296L8.23486 55.6626L8.55566 52.4766H11.8384V53.228H9.24561L9.05225 54.9683C9.16943 54.9009 9.31738 54.8379 9.49609 54.7793C9.67773 54.7207 9.88574 54.6914 10.1201 54.6914C10.416 54.6914 10.6812 54.7427 10.9155 54.8452C11.1499 54.9448 11.3491 55.0884 11.5132 55.2759C11.6802 55.4634 11.8076 55.689 11.8955 55.9526C11.9834 56.2163 12.0273 56.5107 12.0273 56.8359C12.0273 57.1436 11.9849 57.4263 11.8999 57.6841C11.8179 57.9419 11.6934 58.1675 11.5264 58.3608C11.3594 58.5513 11.1484 58.6992 10.8936 58.8047C10.6416 58.9102 10.3442 58.9629 10.0015 58.9629C9.74365 58.9629 9.49902 58.9277 9.26758 58.8574C9.03906 58.7842 8.83398 58.6743 8.65234 58.5278C8.47363 58.3784 8.32715 58.1938 8.21289 57.9741C8.10156 57.7515 8.03125 57.4907 8.00195 57.1919H8.77539C8.81055 57.4321 8.88086 57.6343 8.98633 57.7983C9.0918 57.9624 9.22949 58.0869 9.39941 58.1719C9.57227 58.2539 9.77295 58.2949 10.0015 58.2949C10.1948 58.2949 10.3662 58.2612 10.5156 58.1938C10.665 58.1265 10.791 58.0298 10.8936 57.9038C10.9961 57.7778 11.0737 57.6255 11.1265 57.4468C11.1821 57.2681 11.21 57.0674 11.21 56.8447C11.21 56.6426 11.1821 56.4551 11.1265 56.2822C11.0708 56.1094 10.9873 55.9585 10.876 55.8296C10.7676 55.7007 10.6343 55.6011 10.4761 55.5308C10.3179 55.4575 10.1362 55.4209 9.93115 55.4209C9.65869 55.4209 9.45215 55.4575 9.31152 55.5308C9.17383 55.604 9.03174 55.7036 8.88525 55.8296ZM16.936 55.166V56.1416C16.936 56.666 16.8892 57.1084 16.7954 57.4688C16.7017 57.8291 16.5669 58.1191 16.3911 58.3389C16.2153 58.5586 16.0029 58.7183 15.7539 58.8179C15.5078 58.9146 15.2295 58.9629 14.9189 58.9629C14.6729 58.9629 14.4458 58.9321 14.2378 58.8706C14.0298 58.8091 13.8423 58.7109 13.6753 58.5762C13.5112 58.4385 13.3706 58.2598 13.2534 58.04C13.1362 57.8203 13.0469 57.5537 12.9854 57.2402C12.9238 56.9268 12.8931 56.5605 12.8931 56.1416V55.166C12.8931 54.6416 12.9399 54.2021 13.0337 53.8477C13.1304 53.4932 13.2666 53.209 13.4424 52.9951C13.6182 52.7783 13.8291 52.623 14.0752 52.5293C14.3242 52.4355 14.6025 52.3887 14.9102 52.3887C15.1592 52.3887 15.3877 52.4194 15.5957 52.481C15.8066 52.5396 15.9941 52.6348 16.1582 52.7666C16.3223 52.8955 16.4614 53.0684 16.5757 53.2852C16.6929 53.499 16.7822 53.7612 16.8438 54.0718C16.9053 54.3823 16.936 54.7471 16.936 55.166ZM16.1187 56.2734V55.0298C16.1187 54.7427 16.1011 54.4907 16.0659 54.2739C16.0337 54.0542 15.9854 53.8667 15.9209 53.7114C15.8564 53.5562 15.7744 53.4302 15.6748 53.3335C15.5781 53.2368 15.4653 53.1665 15.3364 53.1226C15.2104 53.0757 15.0684 53.0522 14.9102 53.0522C14.7168 53.0522 14.5454 53.0889 14.396 53.1621C14.2466 53.2324 14.1206 53.3452 14.0181 53.5005C13.9185 53.6558 13.8423 53.8594 13.7896 54.1113C13.7368 54.3633 13.7104 54.6694 13.7104 55.0298V56.2734C13.7104 56.5605 13.7266 56.814 13.7588 57.0337C13.7939 57.2534 13.8452 57.4438 13.9126 57.605C13.98 57.7632 14.062 57.8936 14.1587 57.9961C14.2554 58.0986 14.3667 58.1748 14.4927 58.2246C14.6216 58.2715 14.7637 58.2949 14.9189 58.2949C15.1182 58.2949 15.2925 58.2568 15.4419 58.1807C15.5913 58.1045 15.7158 57.9858 15.8154 57.8247C15.918 57.6606 15.9941 57.4512 16.0439 57.1963C16.0938 56.9385 16.1187 56.6309 16.1187 56.2734ZM21.9985 55.166V56.1416C21.9985 56.666 21.9517 57.1084 21.8579 57.4688C21.7642 57.8291 21.6294 58.1191 21.4536 58.3389C21.2778 58.5586 21.0654 58.7183 20.8164 58.8179C20.5703 58.9146 20.292 58.9629 19.9814 58.9629C19.7354 58.9629 19.5083 58.9321 19.3003 58.8706C19.0923 58.8091 18.9048 58.7109 18.7378 58.5762C18.5737 58.4385 18.4331 58.2598 18.3159 58.04C18.1987 57.8203 18.1094 57.5537 18.0479 57.2402C17.9863 56.9268 17.9556 56.5605 17.9556 56.1416V55.166C17.9556 54.6416 18.0024 54.2021 18.0962 53.8477C18.1929 53.4932 18.3291 53.209 18.5049 52.9951C18.6807 52.7783 18.8916 52.623 19.1377 52.5293C19.3867 52.4355 19.665 52.3887 19.9727 52.3887C20.2217 52.3887 20.4502 52.4194 20.6582 52.481C20.8691 52.5396 21.0566 52.6348 21.2207 52.7666C21.3848 52.8955 21.5239 53.0684 21.6382 53.2852C21.7554 53.499 21.8447 53.7612 21.9062 54.0718C21.9678 54.3823 21.9985 54.7471 21.9985 55.166ZM21.1812 56.2734V55.0298C21.1812 54.7427 21.1636 54.4907 21.1284 54.2739C21.0962 54.0542 21.0479 53.8667 20.9834 53.7114C20.9189 53.5562 20.8369 53.4302 20.7373 53.3335C20.6406 53.2368 20.5278 53.1665 20.3989 53.1226C20.2729 53.0757 20.1309 53.0522 19.9727 53.0522C19.7793 53.0522 19.6079 53.0889 19.4585 53.1621C19.3091 53.2324 19.1831 53.3452 19.0806 53.5005C18.981 53.6558 18.9048 53.8594 18.8521 54.1113C18.7993 54.3633 18.7729 54.6694 18.7729 55.0298V56.2734C18.7729 56.5605 18.7891 56.814 18.8213 57.0337C18.8564 57.2534 18.9077 57.4438 18.9751 57.605C19.0425 57.7632 19.1245 57.8936 19.2212 57.9961C19.3179 58.0986 19.4292 58.1748 19.5552 58.2246C19.6841 58.2715 19.8262 58.2949 19.9814 58.2949C20.1807 58.2949 20.355 58.2568 20.5044 58.1807C20.6538 58.1045 20.7783 57.9858 20.8779 57.8247C20.9805 57.6606 21.0566 57.4512 21.1064 57.1963C21.1562 56.9385 21.1812 56.6309 21.1812 56.2734Z" fill="white"/>
<line x1="31.5" y1="54.875" x2="221.5" y2="54.875" stroke="white" stroke-opacity="0.4" stroke-miterlimit="16" stroke-linecap="round" stroke-linejoin="round" stroke-dasharray="0.1 3"/>
<path opacity="0.8" d="M4.13916 78.7178H4.20947V79.4077H4.13916C3.7085 79.4077 3.34814 79.478 3.05811 79.6187C2.76807 79.7563 2.53809 79.9424 2.36816 80.1768C2.19824 80.4082 2.0752 80.6689 1.99902 80.959C1.92578 81.249 1.88916 81.5435 1.88916 81.8423V82.7827C1.88916 83.0669 1.92285 83.3188 1.99023 83.5386C2.05762 83.7554 2.1499 83.9385 2.26709 84.0879C2.38428 84.2373 2.51611 84.3501 2.6626 84.4263C2.81201 84.5024 2.96729 84.5405 3.12842 84.5405C3.31592 84.5405 3.48291 84.5054 3.62939 84.4351C3.77588 84.3618 3.89893 84.2607 3.99854 84.1318C4.10107 84 4.17871 83.8447 4.23145 83.666C4.28418 83.4873 4.31055 83.291 4.31055 83.0771C4.31055 82.8867 4.28711 82.7036 4.24023 82.5278C4.19336 82.3491 4.12158 82.1909 4.0249 82.0532C3.92822 81.9126 3.80664 81.8027 3.66016 81.7236C3.5166 81.6416 3.34521 81.6006 3.146 81.6006C2.92041 81.6006 2.70947 81.6562 2.51318 81.7676C2.31982 81.876 2.16016 82.0195 2.03418 82.1982C1.91113 82.374 1.84082 82.5659 1.82324 82.7739L1.39258 82.7695C1.43359 82.4414 1.50977 82.1616 1.62109 81.9302C1.73535 81.6958 1.87598 81.5054 2.04297 81.3589C2.21289 81.2095 2.40186 81.1011 2.60986 81.0337C2.8208 80.9634 3.04346 80.9282 3.27783 80.9282C3.59717 80.9282 3.87256 80.9883 4.104 81.1084C4.33545 81.2285 4.52588 81.3896 4.67529 81.5918C4.82471 81.791 4.93457 82.0166 5.00488 82.2686C5.07812 82.5176 5.11475 82.7739 5.11475 83.0376C5.11475 83.3394 5.07227 83.6221 4.9873 83.8857C4.90234 84.1494 4.7749 84.3809 4.60498 84.5801C4.43799 84.7793 4.23145 84.9346 3.98535 85.0459C3.73926 85.1572 3.45361 85.2129 3.12842 85.2129C2.78271 85.2129 2.48096 85.1426 2.22314 85.002C1.96533 84.8584 1.75146 84.668 1.58154 84.4307C1.41162 84.1934 1.28418 83.9297 1.19922 83.6396C1.11426 83.3496 1.07178 83.0552 1.07178 82.7563V82.374C1.07178 81.9229 1.11719 81.4805 1.20801 81.0469C1.29883 80.6133 1.45557 80.2207 1.67822 79.8691C1.90381 79.5176 2.21582 79.2378 2.61426 79.0298C3.0127 78.8218 3.521 78.7178 4.13916 78.7178ZM6.90771 84.1582V84.813C6.90771 85.0796 6.84033 85.3608 6.70557 85.6567C6.5708 85.9556 6.38184 86.2046 6.13867 86.4038L5.67725 86.083C5.771 85.9541 5.8501 85.8223 5.91455 85.6875C5.979 85.5557 6.02734 85.418 6.05957 85.2744C6.09473 85.1338 6.1123 84.9844 6.1123 84.8262V84.1582H6.90771ZM11.8735 81.416V82.3916C11.8735 82.916 11.8267 83.3584 11.7329 83.7188C11.6392 84.0791 11.5044 84.3691 11.3286 84.5889C11.1528 84.8086 10.9404 84.9683 10.6914 85.0679C10.4453 85.1646 10.167 85.2129 9.85645 85.2129C9.61035 85.2129 9.3833 85.1821 9.17529 85.1206C8.96729 85.0591 8.77979 84.9609 8.61279 84.8262C8.44873 84.6885 8.30811 84.5098 8.19092 84.29C8.07373 84.0703 7.98438 83.8037 7.92285 83.4902C7.86133 83.1768 7.83057 82.8105 7.83057 82.3916V81.416C7.83057 80.8916 7.87744 80.4521 7.97119 80.0977C8.06787 79.7432 8.2041 79.459 8.37988 79.2451C8.55566 79.0283 8.7666 78.873 9.0127 78.7793C9.26172 78.6855 9.54004 78.6387 9.84766 78.6387C10.0967 78.6387 10.3252 78.6694 10.5332 78.731C10.7441 78.7896 10.9316 78.8848 11.0957 79.0166C11.2598 79.1455 11.3989 79.3184 11.5132 79.5352C11.6304 79.749 11.7197 80.0112 11.7812 80.3218C11.8428 80.6323 11.8735 80.9971 11.8735 81.416ZM11.0562 82.5234V81.2798C11.0562 80.9927 11.0386 80.7407 11.0034 80.5239C10.9712 80.3042 10.9229 80.1167 10.8584 79.9614C10.7939 79.8062 10.7119 79.6802 10.6123 79.5835C10.5156 79.4868 10.4028 79.4165 10.2739 79.3726C10.1479 79.3257 10.0059 79.3022 9.84766 79.3022C9.6543 79.3022 9.48291 79.3389 9.3335 79.4121C9.18408 79.4824 9.05811 79.5952 8.95557 79.7505C8.85596 79.9058 8.77979 80.1094 8.72705 80.3613C8.67432 80.6133 8.64795 80.9194 8.64795 81.2798V82.5234C8.64795 82.8105 8.66406 83.064 8.69629 83.2837C8.73145 83.5034 8.78271 83.6938 8.8501 83.855C8.91748 84.0132 8.99951 84.1436 9.09619 84.2461C9.19287 84.3486 9.3042 84.4248 9.43018 84.4746C9.55908 84.5215 9.70117 84.5449 9.85645 84.5449C10.0557 84.5449 10.23 84.5068 10.3794 84.4307C10.5288 84.3545 10.6533 84.2358 10.7529 84.0747C10.8555 83.9106 10.9316 83.7012 10.9814 83.4463C11.0312 83.1885 11.0562 82.8809 11.0562 82.5234ZM16.936 81.416V82.3916C16.936 82.916 16.8892 83.3584 16.7954 83.7188C16.7017 84.0791 16.5669 84.3691 16.3911 84.5889C16.2153 84.8086 16.0029 84.9683 15.7539 85.0679C15.5078 85.1646 15.2295 85.2129 14.9189 85.2129C14.6729 85.2129 14.4458 85.1821 14.2378 85.1206C14.0298 85.0591 13.8423 84.9609 13.6753 84.8262C13.5112 84.6885 13.3706 84.5098 13.2534 84.29C13.1362 84.0703 13.0469 83.8037 12.9854 83.4902C12.9238 83.1768 12.8931 82.8105 12.8931 82.3916V81.416C12.8931 80.8916 12.9399 80.4521 13.0337 80.0977C13.1304 79.7432 13.2666 79.459 13.4424 79.2451C13.6182 79.0283 13.8291 78.873 14.0752 78.7793C14.3242 78.6855 14.6025 78.6387 14.9102 78.6387C15.1592 78.6387 15.3877 78.6694 15.5957 78.731C15.8066 78.7896 15.9941 78.8848 16.1582 79.0166C16.3223 79.1455 16.4614 79.3184 16.5757 79.5352C16.6929 79.749 16.7822 80.0112 16.8438 80.3218C16.9053 80.6323 16.936 80.9971 16.936 81.416ZM16.1187 82.5234V81.2798C16.1187 80.9927 16.1011 80.7407 16.0659 80.5239C16.0337 80.3042 15.9854 80.1167 15.9209 79.9614C15.8564 79.8062 15.7744 79.6802 15.6748 79.5835C15.5781 79.4868 15.4653 79.4165 15.3364 79.3726C15.2104 79.3257 15.0684 79.3022 14.9102 79.3022C14.7168 79.3022 14.5454 79.3389 14.396 79.4121C14.2466 79.4824 14.1206 79.5952 14.0181 79.7505C13.9185 79.9058 13.8423 80.1094 13.7896 80.3613C13.7368 80.6133 13.7104 80.9194 13.7104 81.2798V82.5234C13.7104 82.8105 13.7266 83.064 13.7588 83.2837C13.7939 83.5034 13.8452 83.6938 13.9126 83.855C13.98 84.0132 14.062 84.1436 14.1587 84.2461C14.2554 84.3486 14.3667 84.4248 14.4927 84.4746C14.6216 84.5215 14.7637 84.5449 14.9189 84.5449C15.1182 84.5449 15.2925 84.5068 15.4419 84.4307C15.5913 84.3545 15.7158 84.2358 15.8154 84.0747C15.918 83.9106 15.9941 83.7012 16.0439 83.4463C16.0938 83.1885 16.1187 82.8809 16.1187 82.5234ZM21.9985 81.416V82.3916C21.9985 82.916 21.9517 83.3584 21.8579 83.7188C21.7642 84.0791 21.6294 84.3691 21.4536 84.5889C21.2778 84.8086 21.0654 84.9683 20.8164 85.0679C20.5703 85.1646 20.292 85.2129 19.9814 85.2129C19.7354 85.2129 19.5083 85.1821 19.3003 85.1206C19.0923 85.0591 18.9048 84.9609 18.7378 84.8262C18.5737 84.6885 18.4331 84.5098 18.3159 84.29C18.1987 84.0703 18.1094 83.8037 18.0479 83.4902C17.9863 83.1768 17.9556 82.8105 17.9556 82.3916V81.416C17.9556 80.8916 18.0024 80.4521 18.0962 80.0977C18.1929 79.7432 18.3291 79.459 18.5049 79.2451C18.6807 79.0283 18.8916 78.873 19.1377 78.7793C19.3867 78.6855 19.665 78.6387 19.9727 78.6387C20.2217 78.6387 20.4502 78.6694 20.6582 78.731C20.8691 78.7896 21.0566 78.8848 21.2207 79.0166C21.3848 79.1455 21.5239 79.3184 21.6382 79.5352C21.7554 79.749 21.8447 80.0112 21.9062 80.3218C21.9678 80.6323 21.9985 80.9971 21.9985 81.416ZM21.1812 82.5234V81.2798C21.1812 80.9927 21.1636 80.7407 21.1284 80.5239C21.0962 80.3042 21.0479 80.1167 20.9834 79.9614C20.9189 79.8062 20.8369 79.6802 20.7373 79.5835C20.6406 79.4868 20.5278 79.4165 20.3989 79.3726C20.2729 79.3257 20.1309 79.3022 19.9727 79.3022C19.7793 79.3022 19.6079 79.3389 19.4585 79.4121C19.3091 79.4824 19.1831 79.5952 19.0806 79.7505C18.981 79.9058 18.9048 80.1094 18.8521 80.3613C18.7993 80.6133 18.7729 80.9194 18.7729 81.2798V82.5234C18.7729 82.8105 18.7891 83.064 18.8213 83.2837C18.8564 83.5034 18.9077 83.6938 18.9751 83.855C19.0425 84.0132 19.1245 84.1436 19.2212 84.2461C19.3179 84.3486 19.4292 84.4248 19.5552 84.4746C19.6841 84.5215 19.8262 84.5449 19.9814 84.5449C20.1807 84.5449 20.355 84.5068 20.5044 84.4307C20.6538 84.3545 20.7783 84.2358 20.8779 84.0747C20.9805 83.9106 21.0566 83.7012 21.1064 83.4463C21.1562 83.1885 21.1812 82.8809 21.1812 82.5234Z" fill="white"/>
<line x1="31.5" y1="81.125" x2="221.5" y2="81.125" stroke="white" stroke-opacity="0.4" stroke-miterlimit="16" stroke-linecap="round" stroke-linejoin="round" stroke-dasharray="0.1 3"/>
<rect width="191" height="1" transform="matrix(1 0 0 -1 31 109)" fill="white" fill-opacity="0.15"/>
</g>
<defs>
<linearGradient id="paint0_linear_37265_57566" x1="32" y1="96" x2="32" y2="107" gradientUnits="userSpaceOnUse">
<stop stop-color="white"/>
<stop offset="0.0001" stop-color="#878787"/>
<stop offset="1" stop-color="#575757" stop-opacity="0"/>
</linearGradient>
<linearGradient id="paint1_linear_37265_57566" x1="35" y1="96" x2="35" y2="107" gradientUnits="userSpaceOnUse">
<stop stop-color="white"/>
<stop offset="0.0001" stop-color="#878787"/>
<stop offset="1" stop-color="#575757" stop-opacity="0"/>
</linearGradient>
<linearGradient id="paint2_linear_37265_57566" x1="38" y1="93" x2="38" y2="107" gradientUnits="userSpaceOnUse">
<stop stop-color="white"/>
<stop offset="0.0001" stop-color="#878787"/>
<stop offset="1" stop-color="#575757" stop-opacity="0"/>
</linearGradient>
<linearGradient id="paint3_linear_37265_57566" x1="41" y1="93" x2="41" y2="107" gradientUnits="userSpaceOnUse">
<stop stop-color="white"/>
<stop offset="0.0001" stop-color="#878787"/>
<stop offset="1" stop-color="#575757" stop-opacity="0"/>
</linearGradient>
<linearGradient id="paint4_linear_37265_57566" x1="44" y1="91" x2="44" y2="107" gradientUnits="userSpaceOnUse">
<stop stop-color="white"/>
<stop offset="0.0001" stop-color="#878787"/>
<stop offset="1" stop-color="#575757" stop-opacity="0"/>
</linearGradient>
<linearGradient id="paint5_linear_37265_57566" x1="47" y1="91" x2="47" y2="107" gradientUnits="userSpaceOnUse">
<stop stop-color="white"/>
<stop offset="0.0001" stop-color="#878787"/>
<stop offset="1" stop-color="#575757" stop-opacity="0"/>
</linearGradient>
<linearGradient id="paint6_linear_37265_57566" x1="50" y1="91" x2="50" y2="107" gradientUnits="userSpaceOnUse">
<stop stop-color="white"/>
<stop offset="0.0001" stop-color="#878787"/>
<stop offset="1" stop-color="#575757" stop-opacity="0"/>
</linearGradient>
<linearGradient id="paint7_linear_37265_57566" x1="53" y1="91" x2="53" y2="107" gradientUnits="userSpaceOnUse">
<stop stop-color="white"/>
<stop offset="0.0001" stop-color="#878787"/>
<stop offset="1" stop-color="#575757" stop-opacity="0"/>
</linearGradient>
<linearGradient id="paint8_linear_37265_57566" x1="56" y1="93" x2="56" y2="107" gradientUnits="userSpaceOnUse">
<stop stop-color="white"/>
<stop offset="0.0001" stop-color="#878787"/>
<stop offset="1" stop-color="#575757" stop-opacity="0"/>
</linearGradient>
<linearGradient id="paint9_linear_37265_57566" x1="59" y1="93" x2="59" y2="107" gradientUnits="userSpaceOnUse">
<stop stop-color="white"/>
<stop offset="0.0001" stop-color="#878787"/>
<stop offset="1" stop-color="#575757" stop-opacity="0"/>
</linearGradient>
<linearGradient id="paint10_linear_37265_57566" x1="62" y1="96" x2="62" y2="107" gradientUnits="userSpaceOnUse">
<stop stop-color="white"/>
<stop offset="0.0001" stop-color="#878787"/>
<stop offset="1" stop-color="#575757" stop-opacity="0"/>
</linearGradient>
<linearGradient id="paint11_linear_37265_57566" x1="65" y1="96" x2="65" y2="107" gradientUnits="userSpaceOnUse">
<stop stop-color="white"/>
<stop offset="0.0001" stop-color="#878787"/>
<stop offset="1" stop-color="#575757" stop-opacity="0"/>
</linearGradient>
<linearGradient id="paint12_linear_37265_57566" x1="68" y1="98" x2="68" y2="107" gradientUnits="userSpaceOnUse">
<stop stop-color="white"/>
<stop offset="0.0001" stop-color="#878787"/>
<stop offset="1" stop-color="#575757" stop-opacity="0"/>
</linearGradient>
<linearGradient id="paint13_linear_37265_57566" x1="71" y1="98" x2="71" y2="107" gradientUnits="userSpaceOnUse">
<stop stop-color="white"/>
<stop offset="0.0001" stop-color="#878787"/>
<stop offset="1" stop-color="#575757" stop-opacity="0"/>
</linearGradient>
<linearGradient id="paint14_linear_37265_57566" x1="74" y1="99" x2="74" y2="107" gradientUnits="userSpaceOnUse">
<stop stop-color="white"/>
<stop offset="0.0001" stop-color="#878787"/>
<stop offset="1" stop-color="#575757" stop-opacity="0"/>
</linearGradient>
<linearGradient id="paint15_linear_37265_57566" x1="77" y1="99" x2="77" y2="107" gradientUnits="userSpaceOnUse">
<stop stop-color="white"/>
<stop offset="0.0001" stop-color="#878787"/>
<stop offset="1" stop-color="#575757" stop-opacity="0"/>
</linearGradient>
<linearGradient id="paint16_linear_37265_57566" x1="80" y1="99" x2="80" y2="107" gradientUnits="userSpaceOnUse">
<stop stop-color="white"/>
<stop offset="0.0001" stop-color="#878787"/>
<stop offset="1" stop-color="#575757" stop-opacity="0"/>
</linearGradient>
<linearGradient id="paint17_linear_37265_57566" x1="83" y1="99" x2="83" y2="107" gradientUnits="userSpaceOnUse">
<stop stop-color="white"/>
<stop offset="0.0001" stop-color="#878787"/>
<stop offset="1" stop-color="#575757" stop-opacity="0"/>
</linearGradient>
<linearGradient id="paint18_linear_37265_57566" x1="86" y1="99" x2="86" y2="107" gradientUnits="userSpaceOnUse">
<stop stop-color="white"/>
<stop offset="0.0001" stop-color="#878787"/>
<stop offset="1" stop-color="#575757" stop-opacity="0"/>
</linearGradient>
<linearGradient id="paint19_linear_37265_57566" x1="89" y1="99" x2="89" y2="107" gradientUnits="userSpaceOnUse">
<stop stop-color="white"/>
<stop offset="0.0001" stop-color="#878787"/>
<stop offset="1" stop-color="#575757" stop-opacity="0"/>
</linearGradient>
<linearGradient id="paint20_linear_37265_57566" x1="92" y1="98" x2="92" y2="107" gradientUnits="userSpaceOnUse">
<stop stop-color="white"/>
<stop offset="0.0001" stop-color="#878787"/>
<stop offset="1" stop-color="#575757" stop-opacity="0"/>
</linearGradient>
<linearGradient id="paint21_linear_37265_57566" x1="95" y1="98" x2="95" y2="107" gradientUnits="userSpaceOnUse">
<stop stop-color="white"/>
<stop offset="0.0001" stop-color="#878787"/>
<stop offset="1" stop-color="#575757" stop-opacity="0"/>
</linearGradient>
<linearGradient id="paint22_linear_37265_57566" x1="98" y1="97" x2="98" y2="107" gradientUnits="userSpaceOnUse">
<stop stop-color="white"/>
<stop offset="0.0001" stop-color="#878787"/>
<stop offset="1" stop-color="#575757" stop-opacity="0"/>
</linearGradient>
<linearGradient id="paint23_linear_37265_57566" x1="101" y1="97" x2="101" y2="107" gradientUnits="userSpaceOnUse">
<stop stop-color="white"/>
<stop offset="0.0001" stop-color="#878787"/>
<stop offset="1" stop-color="#575757" stop-opacity="0"/>
</linearGradient>
<linearGradient id="paint24_linear_37265_57566" x1="104" y1="96" x2="104" y2="107" gradientUnits="userSpaceOnUse">
<stop stop-color="white"/>
<stop offset="0.0001" stop-color="#878787"/>
<stop offset="1" stop-color="#575757" stop-opacity="0"/>
</linearGradient>
<linearGradient id="paint25_linear_37265_57566" x1="107" y1="96" x2="107" y2="107" gradientUnits="userSpaceOnUse">
<stop stop-color="white"/>
<stop offset="0.0001" stop-color="#878787"/>
<stop offset="1" stop-color="#575757" stop-opacity="0"/>
</linearGradient>
<linearGradient id="paint26_linear_37265_57566" x1="110" y1="95" x2="110" y2="107" gradientUnits="userSpaceOnUse">
<stop stop-color="white"/>
<stop offset="0.0001" stop-color="#878787"/>
<stop offset="1" stop-color="#575757" stop-opacity="0"/>
</linearGradient>
<linearGradient id="paint27_linear_37265_57566" x1="113" y1="95" x2="113" y2="107" gradientUnits="userSpaceOnUse">
<stop stop-color="white"/>
<stop offset="0.0001" stop-color="#878787"/>
<stop offset="1" stop-color="#575757" stop-opacity="0"/>
</linearGradient>
<linearGradient id="paint28_linear_37265_57566" x1="116" y1="93" x2="116" y2="107" gradientUnits="userSpaceOnUse">
<stop stop-color="white"/>
<stop offset="0.0001" stop-color="#878787"/>
<stop offset="1" stop-color="#575757" stop-opacity="0"/>
</linearGradient>
<linearGradient id="paint29_linear_37265_57566" x1="119" y1="93" x2="119" y2="107" gradientUnits="userSpaceOnUse">
<stop stop-color="white"/>
<stop offset="0.0001" stop-color="#878787"/>
<stop offset="1" stop-color="#575757" stop-opacity="0"/>
</linearGradient>
<linearGradient id="paint30_linear_37265_57566" x1="122" y1="90" x2="122" y2="107" gradientUnits="userSpaceOnUse">
<stop stop-color="white"/>
<stop offset="0.0001" stop-color="#878787"/>
<stop offset="1" stop-color="#575757" stop-opacity="0"/>
</linearGradient>
<linearGradient id="paint31_linear_37265_57566" x1="125" y1="90" x2="125" y2="107" gradientUnits="userSpaceOnUse">
<stop stop-color="white"/>
<stop offset="0.0001" stop-color="#878787"/>
<stop offset="1" stop-color="#575757" stop-opacity="0"/>
</linearGradient>
<linearGradient id="paint32_linear_37265_57566" x1="128" y1="87" x2="128" y2="107" gradientUnits="userSpaceOnUse">
<stop stop-color="white"/>
<stop offset="0.0001" stop-color="#878787"/>
<stop offset="1" stop-color="#575757" stop-opacity="0"/>
</linearGradient>
<linearGradient id="paint33_linear_37265_57566" x1="131" y1="87" x2="131" y2="107" gradientUnits="userSpaceOnUse">
<stop stop-color="white"/>
<stop offset="0.0001" stop-color="#878787"/>
<stop offset="1" stop-color="#575757" stop-opacity="0"/>
</linearGradient>
<linearGradient id="paint34_linear_37265_57566" x1="134" y1="86" x2="134" y2="107" gradientUnits="userSpaceOnUse">
<stop stop-color="white"/>
<stop offset="0.0001" stop-color="#878787"/>
<stop offset="1" stop-color="#575757" stop-opacity="0"/>
</linearGradient>
<linearGradient id="paint35_linear_37265_57566" x1="137" y1="86" x2="137" y2="107" gradientUnits="userSpaceOnUse">
<stop stop-color="white"/>
<stop offset="0.0001" stop-color="#878787"/>
<stop offset="1" stop-color="#575757" stop-opacity="0"/>
</linearGradient>
<linearGradient id="paint36_linear_37265_57566" x1="140" y1="86" x2="140" y2="107" gradientUnits="userSpaceOnUse">
<stop stop-color="white"/>
<stop offset="0.0001" stop-color="#878787"/>
<stop offset="1" stop-color="#575757" stop-opacity="0"/>
</linearGradient>
<linearGradient id="paint37_linear_37265_57566" x1="143" y1="86" x2="143" y2="107" gradientUnits="userSpaceOnUse">
<stop stop-color="white"/>
<stop offset="0.0001" stop-color="#878787"/>
<stop offset="1" stop-color="#575757" stop-opacity="0"/>
</linearGradient>
<linearGradient id="paint38_linear_37265_57566" x1="146" y1="87" x2="146" y2="107" gradientUnits="userSpaceOnUse">
<stop stop-color="white"/>
<stop offset="0.0001" stop-color="#878787"/>
<stop offset="1" stop-color="#575757" stop-opacity="0"/>
</linearGradient>
<linearGradient id="paint39_linear_37265_57566" x1="149" y1="87" x2="149" y2="107" gradientUnits="userSpaceOnUse">
<stop stop-color="white"/>
<stop offset="0.0001" stop-color="#878787"/>
<stop offset="1" stop-color="#575757" stop-opacity="0"/>
</linearGradient>
<linearGradient id="paint40_linear_37265_57566" x1="152" y1="90" x2="152" y2="107" gradientUnits="userSpaceOnUse">
<stop stop-color="white"/>
<stop offset="0.0001" stop-color="#878787"/>
<stop offset="1" stop-color="#575757" stop-opacity="0"/>
</linearGradient>
<linearGradient id="paint41_linear_37265_57566" x1="155" y1="90" x2="155" y2="107" gradientUnits="userSpaceOnUse">
<stop stop-color="white"/>
<stop offset="0.0001" stop-color="#878787"/>
<stop offset="1" stop-color="#575757" stop-opacity="0"/>
</linearGradient>
<linearGradient id="paint42_linear_37265_57566" x1="158" y1="91" x2="158" y2="107" gradientUnits="userSpaceOnUse">
<stop stop-color="white"/>
<stop offset="0.0001" stop-color="#878787"/>
<stop offset="1" stop-color="#575757" stop-opacity="0"/>
</linearGradient>
<linearGradient id="paint43_linear_37265_57566" x1="161" y1="91" x2="161" y2="107" gradientUnits="userSpaceOnUse">
<stop stop-color="white"/>
<stop offset="0.0001" stop-color="#878787"/>
<stop offset="1" stop-color="#575757" stop-opacity="0"/>
</linearGradient>
<linearGradient id="paint44_linear_37265_57566" x1="164" y1="92" x2="164" y2="107" gradientUnits="userSpaceOnUse">
<stop stop-color="white"/>
<stop offset="0.0001" stop-color="#878787"/>
<stop offset="1" stop-color="#575757" stop-opacity="0"/>
</linearGradient>
<linearGradient id="paint45_linear_37265_57566" x1="167" y1="92" x2="167" y2="107" gradientUnits="userSpaceOnUse">
<stop stop-color="white"/>
<stop offset="0.0001" stop-color="#878787"/>
<stop offset="1" stop-color="#575757" stop-opacity="0"/>
</linearGradient>
<linearGradient id="paint46_linear_37265_57566" x1="170" y1="91" x2="170" y2="107" gradientUnits="userSpaceOnUse">
<stop stop-color="white"/>
<stop offset="0.0001" stop-color="#878787"/>
<stop offset="1" stop-color="#575757" stop-opacity="0"/>
</linearGradient>
<linearGradient id="paint47_linear_37265_57566" x1="173" y1="91" x2="173" y2="107" gradientUnits="userSpaceOnUse">
<stop stop-color="white"/>
<stop offset="0.0001" stop-color="#878787"/>
<stop offset="1" stop-color="#575757" stop-opacity="0"/>
</linearGradient>
<linearGradient id="paint48_linear_37265_57566" x1="176" y1="90" x2="176" y2="107" gradientUnits="userSpaceOnUse">
<stop stop-color="white"/>
<stop offset="0.0001" stop-color="#878787"/>
<stop offset="1" stop-color="#575757" stop-opacity="0"/>
</linearGradient>
<linearGradient id="paint49_linear_37265_57566" x1="179" y1="90" x2="179" y2="107" gradientUnits="userSpaceOnUse">
<stop stop-color="white"/>
<stop offset="0.0001" stop-color="#878787"/>
<stop offset="1" stop-color="#575757" stop-opacity="0"/>
</linearGradient>
<linearGradient id="paint50_linear_37265_57566" x1="182" y1="90" x2="182" y2="107" gradientUnits="userSpaceOnUse">
<stop stop-color="white"/>
<stop offset="0.0001" stop-color="#878787"/>
<stop offset="1" stop-color="#575757" stop-opacity="0"/>
</linearGradient>
<linearGradient id="paint51_linear_37265_57566" x1="185" y1="90" x2="185" y2="107" gradientUnits="userSpaceOnUse">
<stop stop-color="white"/>
<stop offset="0.0001" stop-color="#878787"/>
<stop offset="1" stop-color="#575757" stop-opacity="0"/>
</linearGradient>
<linearGradient id="paint52_linear_37265_57566" x1="188" y1="89" x2="188" y2="107" gradientUnits="userSpaceOnUse">
<stop stop-color="white"/>
<stop offset="0.0001" stop-color="#878787"/>
<stop offset="1" stop-color="#575757" stop-opacity="0"/>
</linearGradient>
<linearGradient id="paint53_linear_37265_57566" x1="191" y1="89" x2="191" y2="107" gradientUnits="userSpaceOnUse">
<stop stop-color="white"/>
<stop offset="0.0001" stop-color="#878787"/>
<stop offset="1" stop-color="#575757" stop-opacity="0"/>
</linearGradient>
<linearGradient id="paint54_linear_37265_57566" x1="194" y1="90" x2="194" y2="107" gradientUnits="userSpaceOnUse">
<stop stop-color="white"/>
<stop offset="0.0001" stop-color="#878787"/>
<stop offset="1" stop-color="#575757" stop-opacity="0"/>
</linearGradient>
<linearGradient id="paint55_linear_37265_57566" x1="197" y1="90" x2="197" y2="107" gradientUnits="userSpaceOnUse">
<stop stop-color="white"/>
<stop offset="0.0001" stop-color="#878787"/>
<stop offset="1" stop-color="#575757" stop-opacity="0"/>
</linearGradient>
<linearGradient id="paint56_linear_37265_57566" x1="200" y1="90" x2="200" y2="107" gradientUnits="userSpaceOnUse">
<stop stop-color="white"/>
<stop offset="0.0001" stop-color="#878787"/>
<stop offset="1" stop-color="#575757" stop-opacity="0"/>
</linearGradient>
<linearGradient id="paint57_linear_37265_57566" x1="203" y1="90" x2="203" y2="107" gradientUnits="userSpaceOnUse">
<stop stop-color="white"/>
<stop offset="0.0001" stop-color="#878787"/>
<stop offset="1" stop-color="#575757" stop-opacity="0"/>
</linearGradient>
<linearGradient id="paint58_linear_37265_57566" x1="206" y1="92" x2="206" y2="107" gradientUnits="userSpaceOnUse">
<stop stop-color="white"/>
<stop offset="0.0001" stop-color="#878787"/>
<stop offset="1" stop-color="#575757" stop-opacity="0"/>
</linearGradient>
<linearGradient id="paint59_linear_37265_57566" x1="209" y1="92" x2="209" y2="107" gradientUnits="userSpaceOnUse">
<stop stop-color="white"/>
<stop offset="0.0001" stop-color="#878787"/>
<stop offset="1" stop-color="#575757" stop-opacity="0"/>
</linearGradient>
<linearGradient id="paint60_linear_37265_57566" x1="212" y1="94" x2="212" y2="107" gradientUnits="userSpaceOnUse">
<stop stop-color="white"/>
<stop offset="0.0001" stop-color="#878787"/>
<stop offset="1" stop-color="#575757" stop-opacity="0"/>
</linearGradient>
<linearGradient id="paint61_linear_37265_57566" x1="215" y1="94" x2="215" y2="107" gradientUnits="userSpaceOnUse">
<stop stop-color="white"/>
<stop offset="0.0001" stop-color="#878787"/>
<stop offset="1" stop-color="#575757" stop-opacity="0"/>
</linearGradient>
<linearGradient id="paint62_linear_37265_57566" x1="218" y1="94" x2="218" y2="107" gradientUnits="userSpaceOnUse">
<stop stop-color="white"/>
<stop offset="0.0001" stop-color="#878787"/>
<stop offset="1" stop-color="#575757" stop-opacity="0"/>
</linearGradient>
<linearGradient id="paint63_linear_37265_57566" x1="221" y1="94" x2="221" y2="107" gradientUnits="userSpaceOnUse">
<stop stop-color="white"/>
<stop offset="0.0001" stop-color="#878787"/>
<stop offset="1" stop-color="#575757" stop-opacity="0"/>
</linearGradient>
<linearGradient id="paint64_linear_37265_57566" x1="126.5" y1="20.918" x2="126.5" y2="88.0001" gradientUnits="userSpaceOnUse">
<stop stop-color="#5CFFC4"/>
<stop offset="1" stop-color="#5CFFC4" stop-opacity="0"/>
</linearGradient>
<clipPath id="clip0_37265_57566">
<rect width="222" height="109" fill="white"/>
</clipPath>
</defs>
</svg>
