<svg width="178" height="47" viewBox="0 0 178 47" fill="none" xmlns="http://www.w3.org/2000/svg">
<g opacity="0.6">
<path fill-rule="evenodd" clip-rule="evenodd" d="M59.2187 23.2216C60.6992 24.4487 62.2341 26.3088 63.7917 28.5181C65.3472 30.7246 66.906 33.2509 68.439 35.7901L68.4439 35.7982L68.444 35.7981C68.5529 35.971 68.6618 36.1441 68.7707 36.3173C70.2521 38.6723 71.7344 41.0286 73.2233 42.7383C74.0239 43.6576 74.8518 44.4206 75.7121 44.8975C76.5822 45.3798 77.5069 45.5797 78.4615 45.3272L78.4667 45.3258C79.3632 45.0783 80.2144 44.4185 81.0113 43.6068C81.8165 42.7866 82.6172 41.7572 83.4022 40.6968C83.6785 40.3236 83.952 39.9477 84.2238 39.5742C84.7327 38.8748 85.2359 38.1832 85.7414 37.531C86.514 36.5341 87.2604 35.6719 87.982 35.0734C89.4534 33.9073 90.8652 33.7201 92.301 34.0111C93.7448 34.3036 95.204 35.076 96.7782 35.9092L96.892 35.9693C96.8933 35.9701 96.8946 35.9708 96.8959 35.9715C98.4153 36.8103 100.048 37.6972 101.701 38.0322C103.393 38.3751 105.118 38.143 106.782 36.7666C107.626 36.0961 108.453 35.1621 109.252 34.1809C109.628 33.7204 109.987 33.263 110.342 32.8104C110.771 32.2637 111.195 31.7242 111.635 31.1952C112.422 30.248 113.175 29.4442 113.901 28.9285C114.626 28.4128 115.243 28.2405 115.801 28.3946L115.806 28.396C116.443 28.5646 117.149 29.1425 117.923 30.1043C118.684 31.0505 119.452 32.2914 120.232 33.6626C120.651 34.3968 121.073 35.1702 121.499 35.9504C122.644 38.0446 123.815 40.188 124.998 41.755C125.823 42.8912 126.708 43.4377 127.655 43.5646C128.572 43.6876 129.46 43.4016 130.256 43.0773C130.52 42.9694 130.772 42.8591 131.016 42.7522C131.545 42.5202 132.037 42.3045 132.545 42.1656C133.25 41.9728 133.879 41.9654 134.492 42.304L134.5 42.3083L134.5 42.3082C135.209 42.6834 135.913 43.1456 136.638 43.6209C136.705 43.6648 136.772 43.7087 136.839 43.7527C137.624 44.267 138.434 44.7882 139.253 45.1754C140.074 45.5634 140.936 45.8335 141.83 45.8185C142.735 45.8033 143.632 45.4957 144.511 44.7976L144.519 44.7911L144.519 44.791C145.346 44.1065 146.154 43.049 146.938 41.8644C147.617 40.8383 148.299 39.6836 148.974 38.5416C149.082 38.3585 149.19 38.1758 149.297 37.994C150.081 36.6698 150.854 35.3927 151.617 34.3428C152.388 33.283 153.108 32.5152 153.771 32.1474C154.431 31.7998 155.073 31.7971 155.717 32.0318C156.381 32.274 157.054 32.7727 157.712 33.4356C158.96 34.6912 160.043 36.4143 160.842 37.6846C160.888 37.758 160.933 37.8298 160.977 37.9L161.181 38.2234C160.66 38.7101 160.334 39.4036 160.334 40.1731C160.334 41.6459 161.528 42.8398 163 42.8398C164.473 42.8398 165.667 41.6459 165.667 40.1731C165.667 38.7004 164.473 37.5064 163 37.5064C162.657 37.5064 162.328 37.5714 162.027 37.6898L161.823 37.3669C161.776 37.2918 161.727 37.2142 161.677 37.1343C160.889 35.8798 159.751 34.0688 158.422 32.7308C157.714 32.018 156.919 31.4056 156.059 31.0922C155.179 30.7718 154.239 30.7687 153.3 31.2656L153.292 31.2697L153.292 31.2698C152.423 31.7494 151.595 32.6738 150.808 33.7547C150.014 34.8477 149.219 36.1632 148.437 37.4845C148.328 37.6684 148.219 37.8524 148.111 38.0361C147.435 39.18 146.768 40.3096 146.104 41.3125C145.331 42.4802 144.591 43.4319 143.885 44.0175C143.167 44.5868 142.481 44.8075 141.813 44.8187C141.131 44.8301 140.427 44.6241 139.681 44.2714C138.933 43.9178 138.177 43.4338 137.387 42.9162C137.318 42.8715 137.25 42.8264 137.181 42.7812C136.466 42.3117 135.723 41.8244 134.971 41.4263C134.052 40.9206 133.133 40.9681 132.281 41.201C131.7 41.3599 131.097 41.6239 130.536 41.8697C130.308 41.9693 130.088 42.0658 129.878 42.1513C129.107 42.4655 128.429 42.6594 127.788 42.5735C127.177 42.4916 126.513 42.1417 125.805 41.1642L125.799 41.156L125.799 41.156C124.662 39.652 123.547 37.6114 122.416 35.5403C121.981 34.7444 121.543 33.944 121.101 33.1678C120.316 31.7877 119.516 30.4889 118.702 29.4775C117.902 28.4825 117.026 27.6853 116.064 27.4299C115.09 27.162 114.157 27.5187 113.321 28.1136C112.484 28.709 111.662 29.5983 110.866 30.5559C110.434 31.0759 109.982 31.65 109.535 32.2188C109.176 32.676 108.819 33.1298 108.477 33.549C107.683 34.5239 106.911 35.3874 106.156 35.9865L106.148 35.993L106.148 35.9931C104.747 37.1535 103.34 37.3439 101.9 37.0522C100.421 36.7526 98.9215 35.9475 97.3753 35.0939L97.3675 35.0896L97.3675 35.0897C97.3067 35.0575 97.2458 35.0252 97.1848 34.9929C95.6622 34.1865 94.0884 33.3529 92.4996 33.031C90.8035 32.6873 89.0832 32.9227 87.3562 34.2934L87.348 34.2999L87.3481 34.3C86.5375 34.9713 85.7352 35.9066 84.951 36.9184C84.437 37.5816 83.9171 38.296 83.4019 39.004C83.1323 39.3745 82.864 39.7432 82.5985 40.1019C81.8167 41.1579 81.0508 42.1391 80.2977 42.9062C79.5373 43.6808 78.8393 44.1847 78.203 44.3611C77.5585 44.5308 76.9008 44.4131 76.1969 44.0229C75.4822 43.6267 74.7434 42.9612 73.9774 42.0816C72.5421 40.4335 71.1 38.1416 69.6027 35.7619C69.4996 35.598 69.3962 35.4336 69.2925 35.2691C67.7597 32.7302 66.1859 30.1787 64.609 27.9419C63.0346 25.7088 61.4376 23.7608 59.8526 22.4481L59.8446 22.4415L59.8445 22.4416C58.1787 21.1195 56.4844 20.4374 54.7837 20.3237C53.0865 20.2103 51.4262 20.6658 49.8293 21.5468C46.5038 23.3077 43.379 26.7939 40.1604 32.7544L40.1562 32.7621L40.1563 32.7621C39.4239 34.1773 38.7805 34.4796 38.2773 34.4818C37.9936 34.483 37.6816 34.3925 37.3263 34.2202C36.9703 34.0476 36.6051 33.8104 36.2119 33.5471C36.1686 33.5181 36.1249 33.4888 36.0809 33.4592C35.7356 33.2272 35.3687 32.9808 35.001 32.7776C34.5855 32.5481 34.1316 32.3518 33.653 32.2889C33.1602 32.2241 32.6565 32.3031 32.1652 32.5982C31.6864 32.8859 31.2498 33.3604 30.8415 34.0355C30.0521 35.2883 29.2854 36.308 28.5389 37.0353C27.7871 37.7677 27.0983 38.1619 26.4667 38.2472C25.8618 38.3289 25.2203 38.1387 24.5154 37.4993C23.7982 36.8488 23.0409 35.7527 22.254 34.0881C21.4637 32.3441 20.6118 31.4585 19.6485 31.1126C18.7751 30.799 17.9033 30.9757 17.1873 31.1209C17.136 31.1313 17.0856 31.1416 17.036 31.1514C16.2438 31.3092 15.6196 31.3955 15.0096 31.0936C14.3956 30.7897 13.6815 30.0287 12.9308 28.1638L12.928 28.1568C12.517 27.1782 12.0921 26.4584 11.6438 25.9712C11.1904 25.4784 10.6867 25.1971 10.137 25.1704C9.59662 25.1442 9.1093 25.3694 8.69252 25.6837C8.27563 25.998 7.88918 26.4312 7.53493 26.8993C7.00406 27.601 6.49818 28.4484 6.0477 29.2031C5.90181 29.4475 5.76172 29.6822 5.62848 29.899C5.51349 30.0862 5.40424 30.2592 5.30045 30.4158C4.83702 29.628 3.98042 29.0992 3.00032 29.0992C1.52756 29.0992 0.333649 30.2931 0.333649 31.7659C0.333649 33.2386 1.52756 34.4326 3.00032 34.4326C4.47308 34.4326 5.66699 33.2386 5.66699 31.7659C5.66699 31.7144 5.66553 31.6632 5.66264 31.6124C5.92819 31.2957 6.20375 30.8729 6.4805 30.4226C6.62846 30.1818 6.77821 29.931 6.93021 29.6764C7.37436 28.9325 7.83778 28.1564 8.33238 27.5027C8.66148 27.0678 8.98335 26.7168 9.29459 26.4821C9.60594 26.2473 9.86653 26.1585 10.0886 26.1692C10.3014 26.1796 10.5748 26.2862 10.9079 26.6482C11.2457 27.0155 11.6163 27.6167 12.0048 28.5412C12.787 30.4831 13.6224 31.5228 14.566 31.9898C15.5144 32.4592 16.4569 32.2864 17.2313 32.1322L17.3104 32.1164C18.0963 31.9595 18.7081 31.8374 19.3105 32.0537C19.9048 32.2672 20.6024 32.8648 21.3448 34.5045L21.3482 34.5118C22.1608 36.2315 22.9863 37.4624 23.8436 38.24C24.7137 39.0292 25.6388 39.3681 26.6006 39.2382C27.5357 39.1118 28.4135 38.5536 29.2367 37.7516C30.0645 36.9452 30.8803 35.85 31.69 34.5647L31.695 34.5567C32.0527 33.9642 32.3861 33.6321 32.6802 33.4554C32.9629 33.2856 33.2363 33.2427 33.5227 33.2803C33.8232 33.3198 34.1506 33.4502 34.5174 33.6529C34.8444 33.8336 35.1731 34.0542 35.5236 34.2896C35.5672 34.3188 35.6111 34.3483 35.6555 34.378C36.0455 34.6392 36.4637 34.9133 36.89 35.12C37.317 35.3271 37.7862 35.4839 38.2817 35.4818C39.3359 35.4771 40.2419 34.7708 41.0424 33.2256C44.2217 27.339 47.2285 24.0542 50.3008 22.4286L50.3087 22.4244L50.3087 22.4244C51.7772 21.6136 53.2489 21.2234 54.717 21.3215C56.1816 21.4194 57.6859 22.0062 59.2187 23.2216Z" fill="url(#paint0_linear_37268_57768)"/>
<path opacity="0.7" d="M3 31L163 31" stroke="url(#paint1_linear_37268_57768)" stroke-dasharray="2 2"/>
</g>
<defs>
<linearGradient id="paint0_linear_37268_57768" x1="3.00033" y1="32.9339" x2="163" y2="32.9339" gradientUnits="userSpaceOnUse">
<stop stop-color="#F53D26" stop-opacity="0"/>
<stop offset="1" stop-color="#F53D26"/>
</linearGradient>
<linearGradient id="paint1_linear_37268_57768" x1="3" y1="31.5" x2="163" y2="31.5003" gradientUnits="userSpaceOnUse">
<stop stop-color="white" stop-opacity="0"/>
<stop offset="1" stop-color="white"/>
</linearGradient>
</defs>
</svg>
