<svg width="223" height="109" viewBox="0 0 223 109" fill="none" xmlns="http://www.w3.org/2000/svg">
<g clip-path="url(#clip0_37265_57564)">
<g opacity="0.25">
<rect width="2" height="11" transform="matrix(-1 0 0 1 223 96)" fill="url(#paint0_linear_37265_57564)"/>
<rect width="2" height="11" transform="matrix(-1 0 0 1 220 96)" fill="url(#paint1_linear_37265_57564)"/>
<rect width="2" height="14" transform="matrix(-1 0 0 1 217 93)" fill="url(#paint2_linear_37265_57564)"/>
<rect width="2" height="14" transform="matrix(-1 0 0 1 214 93)" fill="url(#paint3_linear_37265_57564)"/>
<rect width="2" height="16" transform="matrix(-1 0 0 1 211 91)" fill="url(#paint4_linear_37265_57564)"/>
<rect width="2" height="16" transform="matrix(-1 0 0 1 208 91)" fill="url(#paint5_linear_37265_57564)"/>
<rect width="2" height="16" transform="matrix(-1 0 0 1 205 91)" fill="url(#paint6_linear_37265_57564)"/>
<rect width="2" height="16" transform="matrix(-1 0 0 1 202 91)" fill="url(#paint7_linear_37265_57564)"/>
<rect width="2" height="14" transform="matrix(-1 0 0 1 199 93)" fill="url(#paint8_linear_37265_57564)"/>
<rect width="2" height="14" transform="matrix(-1 0 0 1 196 93)" fill="url(#paint9_linear_37265_57564)"/>
<rect width="2" height="11" transform="matrix(-1 0 0 1 193 96)" fill="url(#paint10_linear_37265_57564)"/>
<rect width="2" height="11" transform="matrix(-1 0 0 1 190 96)" fill="url(#paint11_linear_37265_57564)"/>
<rect width="2" height="9" transform="matrix(-1 0 0 1 187 98)" fill="url(#paint12_linear_37265_57564)"/>
<rect width="2" height="9" transform="matrix(-1 0 0 1 184 98)" fill="url(#paint13_linear_37265_57564)"/>
<rect width="2" height="8" transform="matrix(-1 0 0 1 181 99)" fill="url(#paint14_linear_37265_57564)"/>
<rect width="2" height="8" transform="matrix(-1 0 0 1 178 99)" fill="url(#paint15_linear_37265_57564)"/>
<rect width="2" height="8" transform="matrix(-1 0 0 1 175 99)" fill="url(#paint16_linear_37265_57564)"/>
<rect width="2" height="8" transform="matrix(-1 0 0 1 172 99)" fill="url(#paint17_linear_37265_57564)"/>
<rect width="2" height="8" transform="matrix(-1 0 0 1 169 99)" fill="url(#paint18_linear_37265_57564)"/>
<rect width="2" height="8" transform="matrix(-1 0 0 1 166 99)" fill="url(#paint19_linear_37265_57564)"/>
<rect width="2" height="9" transform="matrix(-1 0 0 1 163 98)" fill="url(#paint20_linear_37265_57564)"/>
<rect width="2" height="9" transform="matrix(-1 0 0 1 160 98)" fill="url(#paint21_linear_37265_57564)"/>
<rect width="2" height="10" transform="matrix(-1 0 0 1 157 97)" fill="url(#paint22_linear_37265_57564)"/>
<rect width="2" height="10" transform="matrix(-1 0 0 1 154 97)" fill="url(#paint23_linear_37265_57564)"/>
<rect width="2" height="11" transform="matrix(-1 0 0 1 151 96)" fill="url(#paint24_linear_37265_57564)"/>
<rect width="2" height="11" transform="matrix(-1 0 0 1 148 96)" fill="url(#paint25_linear_37265_57564)"/>
<rect width="2" height="12" transform="matrix(-1 0 0 1 145 95)" fill="url(#paint26_linear_37265_57564)"/>
<rect width="2" height="12" transform="matrix(-1 0 0 1 142 95)" fill="url(#paint27_linear_37265_57564)"/>
<rect width="2" height="14" transform="matrix(-1 0 0 1 139 93)" fill="url(#paint28_linear_37265_57564)"/>
<rect width="2" height="14" transform="matrix(-1 0 0 1 136 93)" fill="url(#paint29_linear_37265_57564)"/>
<rect width="2" height="17" transform="matrix(-1 0 0 1 133 90)" fill="url(#paint30_linear_37265_57564)"/>
<rect width="2" height="17" transform="matrix(-1 0 0 1 130 90)" fill="url(#paint31_linear_37265_57564)"/>
<rect width="2" height="20" transform="matrix(-1 0 0 1 127 87)" fill="url(#paint32_linear_37265_57564)"/>
<rect width="2" height="20" transform="matrix(-1 0 0 1 124 87)" fill="url(#paint33_linear_37265_57564)"/>
<rect width="2" height="21" transform="matrix(-1 0 0 1 121 86)" fill="url(#paint34_linear_37265_57564)"/>
<rect width="2" height="21" transform="matrix(-1 0 0 1 118 86)" fill="url(#paint35_linear_37265_57564)"/>
<rect width="2" height="21" transform="matrix(-1 0 0 1 115 86)" fill="url(#paint36_linear_37265_57564)"/>
<rect width="2" height="21" transform="matrix(-1 0 0 1 112 86)" fill="url(#paint37_linear_37265_57564)"/>
<rect width="2" height="20" transform="matrix(-1 0 0 1 109 87)" fill="url(#paint38_linear_37265_57564)"/>
<rect width="2" height="20" transform="matrix(-1 0 0 1 106 87)" fill="url(#paint39_linear_37265_57564)"/>
<rect width="2" height="17" transform="matrix(-1 0 0 1 103 90)" fill="url(#paint40_linear_37265_57564)"/>
<rect width="2" height="17" transform="matrix(-1 0 0 1 100 90)" fill="url(#paint41_linear_37265_57564)"/>
<rect width="2" height="16" transform="matrix(-1 0 0 1 97 91)" fill="url(#paint42_linear_37265_57564)"/>
<rect width="2" height="16" transform="matrix(-1 0 0 1 94 91)" fill="url(#paint43_linear_37265_57564)"/>
<rect width="2" height="15" transform="matrix(-1 0 0 1 91 92)" fill="url(#paint44_linear_37265_57564)"/>
<rect width="2" height="15" transform="matrix(-1 0 0 1 88 92)" fill="url(#paint45_linear_37265_57564)"/>
<rect width="2" height="16" transform="matrix(-1 0 0 1 85 91)" fill="url(#paint46_linear_37265_57564)"/>
<rect width="2" height="16" transform="matrix(-1 0 0 1 82 91)" fill="url(#paint47_linear_37265_57564)"/>
<rect width="2" height="17" transform="matrix(-1 0 0 1 79 90)" fill="url(#paint48_linear_37265_57564)"/>
<rect width="2" height="17" transform="matrix(-1 0 0 1 76 90)" fill="url(#paint49_linear_37265_57564)"/>
<rect width="2" height="17" transform="matrix(-1 0 0 1 73 90)" fill="url(#paint50_linear_37265_57564)"/>
<rect width="2" height="17" transform="matrix(-1 0 0 1 70 90)" fill="url(#paint51_linear_37265_57564)"/>
<rect width="2" height="18" transform="matrix(-1 0 0 1 67 89)" fill="url(#paint52_linear_37265_57564)"/>
<rect width="2" height="18" transform="matrix(-1 0 0 1 64 89)" fill="url(#paint53_linear_37265_57564)"/>
<rect width="2" height="17" transform="matrix(-1 0 0 1 61 90)" fill="url(#paint54_linear_37265_57564)"/>
<rect width="2" height="17" transform="matrix(-1 0 0 1 58 90)" fill="url(#paint55_linear_37265_57564)"/>
<rect width="2" height="17" transform="matrix(-1 0 0 1 55 90)" fill="url(#paint56_linear_37265_57564)"/>
<rect width="2" height="17" transform="matrix(-1 0 0 1 52 90)" fill="url(#paint57_linear_37265_57564)"/>
<rect width="2" height="15" transform="matrix(-1 0 0 1 49 92)" fill="url(#paint58_linear_37265_57564)"/>
<rect width="2" height="15" transform="matrix(-1 0 0 1 46 92)" fill="url(#paint59_linear_37265_57564)"/>
<rect width="2" height="13" transform="matrix(-1 0 0 1 43 94)" fill="url(#paint60_linear_37265_57564)"/>
<rect width="2" height="13" transform="matrix(-1 0 0 1 40 94)" fill="url(#paint61_linear_37265_57564)"/>
<rect width="2" height="13" transform="matrix(-1 0 0 1 37 94)" fill="url(#paint62_linear_37265_57564)"/>
<rect width="2" height="13" transform="matrix(-1 0 0 1 34 94)" fill="url(#paint63_linear_37265_57564)"/>
</g>
<path d="M221.09 48.5L223 51.5V87.9996H221.09H211.699H200.557H189.257H178.115H166.814H155.513H144.372H133.071H121.929H110.628H99.4867H88.1858H76.885H65.7434H54.4425H43.3008H33.91H32L32 41.1203L38 38L42 43.2915L45.5 40.5L52.5 50L56 38.8207L65.7434 41.1203L76.885 38.8207L88.1858 19.4473L93 25.5L99.4867 20.9375L110.628 43.2915L121.929 59.6845L126.5 43.2915L129 50L134 38L144.372 43.2915L155.513 44.7818L166.814 29.8791L178.115 53.7234L184.5 59.6845L189.257 53.7234L195 55L204 55.5L207 60.5L211.699 46.2721L218 57L221.09 48.5Z" fill="url(#paint64_linear_37265_57564)" fill-opacity="0.15"/>
<path d="M223 49.7746L222.045 52.5932L221.09 45.2626L219.916 50.0489L218.742 53.8075L217.568 57.5662L216.395 51.1755L215.221 44.7849L214.047 48.5435L212.873 52.3021L211.699 45.9115L211.003 42.2469L210.306 48.7315L209.61 55.2161L208.914 51.5515L208.217 47.8869L207.521 54.3715L206.825 60.8562L206.128 57.1916L205.432 56.5717L204.736 60.0116L204.039 52.2745L203.343 51.6546L202.647 52.0497L201.95 55.4896L201.254 54.8697L200.558 58.3096L199.145 55.7157L197.732 57.1816L196.32 54.5877L194.907 55.0387L193.494 53.4597L192.082 54.9256L190.669 52.3317L189.257 53.7976L188.56 51.1097L187.864 52.4815L187.168 61.4782L186.471 51.1655L185.775 59.6547L185.079 61.0265L184.382 58.3387L183.686 59.203L182.989 57.0227L182.293 58.3945L181.597 56.2141L180.9 61.1382L180.204 54.8981L179.508 55.255L178.811 49.0149L178.115 53.4315L177.409 52.435L176.702 49.9161L175.996 49.427L175.29 46.908L174.583 47.4339L173.877 43.3925L173.171 47.9781L172.465 40.892L171.758 40.9103L171.052 32.8093L170.346 41.962L169.639 30.3088L168.933 33.8794L168.227 33.3903L167.52 29.8564L166.814 30.3822L166.108 25.2327L165.402 36.322L164.695 32.1873L163.989 30.59L163.283 36.0972L162.576 33.485L161.87 36.9623L161.164 36.8874L160.457 39.3498L159.751 38.7674L159.045 41.2298L158.339 40.6474L157.632 41.5874L156.926 44.0498L156.22 43.4675L155.513 44.4075L154.121 44.7269L152.728 38.9568L151.335 44.3509L149.942 48.7301L148.55 43.9749L147.157 41.2496L145.764 46.1362L144.372 42.9034L142.959 45.2527L141.546 42.5274L140.134 42.3394L138.721 44.6887L137.309 41.9634L135.896 41.7754L134.483 36.5128L133.071 36.3248L132.374 42.5274L131.678 43.6554L130.982 47.3208L130.285 45.9115L129.589 47.0395L128.893 50.7048L128.196 49.2955L127.5 45.3489L126.804 42.9118L126.107 41.5025L125.411 42.6305L124.715 48.8332L124.018 50.9889L123.322 51.0892L122.626 58.3196L121.929 59.4476L121.223 58.4136L120.517 55.3497L119.81 56.3456L119.104 52.7742L118.398 54.2776L117.691 50.7062L116.985 52.2095L116.279 48.6382L114.866 49.1075L114.16 51.1183L113.454 47.0395L112.747 49.0502L112.041 44.9715L111.335 46.9822L110.628 42.9034L109.932 36.4188L109.236 40.0834L108.539 33.5988L107.843 37.2634L107.147 35.8534L106.45 29.3687L105.754 33.0334L105.058 31.6233L104.361 35.2879L103.665 28.8033L102.968 32.4679L102.272 25.9833L101.576 29.6479L100.879 23.1633L100.183 21.7532L99.4867 25.4179L98.0741 17.316L96.6614 22.2026L95.2488 24.8539L93.8362 21.8266L92.4236 29.5525L91.011 24.2898L89.5984 21.2626L88.1858 16L87.4795 22.2966L86.7732 26.3579L86.0669 22.5053L85.3606 23.7273L84.6543 30.0239L83.948 26.1713L83.2417 22.3187L82.5354 28.6153L81.8291 29.8373L81.1228 25.9847L80.4165 32.2813L79.7102 33.5034L79.0039 39.8L78.2976 35.9474L77.5913 37.1694L76.885 43.466L75.4923 38.6815L74.0996 33.897L72.7069 39.2617L71.3142 34.4772L69.9214 39.8419L68.5287 38.1021L67.136 41.437L65.7433 38.6823L64.3307 41.7271L62.9181 38.6823L61.5055 40.7122L60.0929 35.6375L58.6803 40.7122L57.2677 45.7868L55.8551 35.6375L54.4425 40.7122L53.7461 39.4391L53.0498 55.2371L52.3534 48.8894L51.6571 52.691L50.9607 46.3433L50.2644 39.9956L49.568 43.7972L48.8717 47.5987L48.1753 41.251L47.479 34.9034L46.7826 38.7049L46.0863 42.5065L45.3899 36.1588L44.6935 29.8111L43.9972 44.7897L43.3008 43.5167L42.7139 47.7453L42.127 41.8246L41.5401 40.9786L40.9531 40.1326L40.3662 39.2866L39.7793 43.5152L39.1923 37.5946L38.6054 36.7486L38.0185 30.828L37.4315 35.0566L36.8446 45.3876L36.2577 39.4669L35.6708 43.6956L35.0838 42.8495L34.4969 42.0035L33.91 35.9772L32.955 41.1575H32" stroke="#F53D26" stroke-width="0.8"/>
<path opacity="0.8" d="M4.12109 5.28125V5.875H0.398438V5.35547L2.26172 3.28125C2.49089 3.02604 2.66797 2.8099 2.79297 2.63281C2.92057 2.45312 3.00911 2.29297 3.05859 2.15234C3.11068 2.00911 3.13672 1.86328 3.13672 1.71484C3.13672 1.52734 3.09766 1.35807 3.01953 1.20703C2.94401 1.05339 2.83203 0.93099 2.68359 0.839844C2.53516 0.748698 2.35547 0.703125 2.14453 0.703125C1.89193 0.703125 1.68099 0.752604 1.51172 0.851562C1.34505 0.947917 1.22005 1.08333 1.13672 1.25781C1.05339 1.43229 1.01172 1.63281 1.01172 1.85938H0.289062C0.289062 1.53906 0.359375 1.24609 0.5 0.980469C0.640625 0.714844 0.848958 0.503906 1.125 0.347656C1.40104 0.188802 1.74089 0.109375 2.14453 0.109375C2.50391 0.109375 2.8112 0.173177 3.06641 0.300781C3.32161 0.425781 3.51693 0.602865 3.65234 0.832031C3.79036 1.05859 3.85938 1.32422 3.85938 1.62891C3.85938 1.79557 3.83073 1.96484 3.77344 2.13672C3.71875 2.30599 3.64193 2.47526 3.54297 2.64453C3.44661 2.8138 3.33333 2.98047 3.20312 3.14453C3.07552 3.30859 2.9388 3.47005 2.79297 3.62891L1.26953 5.28125H4.12109ZM7.66797 0.179688H7.73047V0.792969H7.66797C7.28516 0.792969 6.96484 0.855469 6.70703 0.980469C6.44922 1.10286 6.24479 1.26823 6.09375 1.47656C5.94271 1.68229 5.83333 1.91406 5.76562 2.17188C5.70052 2.42969 5.66797 2.69141 5.66797 2.95703V3.79297C5.66797 4.04557 5.69792 4.26953 5.75781 4.46484C5.81771 4.65755 5.89974 4.82031 6.00391 4.95312C6.10807 5.08594 6.22526 5.1862 6.35547 5.25391C6.48828 5.32161 6.6263 5.35547 6.76953 5.35547C6.9362 5.35547 7.08464 5.32422 7.21484 5.26172C7.34505 5.19661 7.45443 5.10677 7.54297 4.99219C7.63411 4.875 7.70312 4.73698 7.75 4.57812C7.79688 4.41927 7.82031 4.24479 7.82031 4.05469C7.82031 3.88542 7.79948 3.72266 7.75781 3.56641C7.71615 3.40755 7.65234 3.26693 7.56641 3.14453C7.48047 3.01953 7.3724 2.92188 7.24219 2.85156C7.11458 2.77865 6.96224 2.74219 6.78516 2.74219C6.58464 2.74219 6.39714 2.79167 6.22266 2.89062C6.05078 2.98698 5.90885 3.11458 5.79688 3.27344C5.6875 3.42969 5.625 3.60026 5.60938 3.78516L5.22656 3.78125C5.26302 3.48958 5.33073 3.24089 5.42969 3.03516C5.53125 2.82682 5.65625 2.65755 5.80469 2.52734C5.95573 2.39453 6.1237 2.29818 6.30859 2.23828C6.49609 2.17578 6.69401 2.14453 6.90234 2.14453C7.1862 2.14453 7.43099 2.19792 7.63672 2.30469C7.84245 2.41146 8.01172 2.55469 8.14453 2.73438C8.27734 2.91146 8.375 3.11198 8.4375 3.33594C8.5026 3.55729 8.53516 3.78516 8.53516 4.01953C8.53516 4.28776 8.4974 4.53906 8.42188 4.77344C8.34635 5.00781 8.23307 5.21354 8.08203 5.39062C7.93359 5.56771 7.75 5.70573 7.53125 5.80469C7.3125 5.90365 7.05859 5.95312 6.76953 5.95312C6.46224 5.95312 6.19401 5.89062 5.96484 5.76562C5.73568 5.63802 5.54557 5.46875 5.39453 5.25781C5.24349 5.04688 5.13021 4.8125 5.05469 4.55469C4.97917 4.29688 4.94141 4.03516 4.94141 3.76953V3.42969C4.94141 3.02865 4.98177 2.63542 5.0625 2.25C5.14323 1.86458 5.28255 1.51562 5.48047 1.20312C5.68099 0.890625 5.95833 0.641927 6.3125 0.457031C6.66667 0.272135 7.11849 0.179688 7.66797 0.179688ZM10.1289 5.01562V5.59766C10.1289 5.83464 10.069 6.08464 9.94922 6.34766C9.82943 6.61328 9.66146 6.83464 9.44531 7.01172L9.03516 6.72656C9.11849 6.61198 9.1888 6.49479 9.24609 6.375C9.30339 6.25781 9.34635 6.13542 9.375 6.00781C9.40625 5.88281 9.42188 5.75 9.42188 5.60938V5.01562H10.1289ZM11.8867 3.16797L11.3086 3.01953L11.5938 0.1875H14.5117V0.855469H12.207L12.0352 2.40234C12.1393 2.34245 12.2708 2.28646 12.4297 2.23438C12.5911 2.18229 12.776 2.15625 12.9844 2.15625C13.2474 2.15625 13.4831 2.20182 13.6914 2.29297C13.8997 2.38151 14.0768 2.50911 14.2227 2.67578C14.3711 2.84245 14.4844 3.04297 14.5625 3.27734C14.6406 3.51172 14.6797 3.77344 14.6797 4.0625C14.6797 4.33594 14.6419 4.58724 14.5664 4.81641C14.4935 5.04557 14.3828 5.24609 14.2344 5.41797C14.0859 5.58724 13.8984 5.71875 13.6719 5.8125C13.4479 5.90625 13.1836 5.95312 12.8789 5.95312C12.6497 5.95312 12.4323 5.92188 12.2266 5.85938C12.0234 5.79427 11.8411 5.69661 11.6797 5.56641C11.5208 5.43359 11.3906 5.26953 11.2891 5.07422C11.1901 4.8763 11.1276 4.64453 11.1016 4.37891H11.7891C11.8203 4.59245 11.8828 4.77214 11.9766 4.91797C12.0703 5.0638 12.1927 5.17448 12.3438 5.25C12.4974 5.32292 12.6758 5.35938 12.8789 5.35938C13.0508 5.35938 13.2031 5.32943 13.3359 5.26953C13.4688 5.20964 13.5807 5.1237 13.6719 5.01172C13.763 4.89974 13.832 4.76432 13.8789 4.60547C13.9284 4.44661 13.9531 4.26823 13.9531 4.07031C13.9531 3.89062 13.9284 3.72396 13.8789 3.57031C13.8294 3.41667 13.7552 3.28255 13.6562 3.16797C13.5599 3.05339 13.4414 2.96484 13.3008 2.90234C13.1602 2.83724 12.9987 2.80469 12.8164 2.80469C12.5742 2.80469 12.3906 2.83724 12.2656 2.90234C12.1432 2.96745 12.0169 3.05599 11.8867 3.16797ZM19.043 2.57812V3.44531C19.043 3.91146 19.0013 4.30469 18.918 4.625C18.8346 4.94531 18.7148 5.20312 18.5586 5.39844C18.4023 5.59375 18.2135 5.73568 17.9922 5.82422C17.7734 5.91016 17.526 5.95312 17.25 5.95312C17.0312 5.95312 16.8294 5.92578 16.6445 5.87109C16.4596 5.81641 16.293 5.72917 16.1445 5.60938C15.9987 5.48698 15.8737 5.32812 15.7695 5.13281C15.6654 4.9375 15.5859 4.70052 15.5312 4.42188C15.4766 4.14323 15.4492 3.81771 15.4492 3.44531V2.57812C15.4492 2.11198 15.4909 1.72135 15.5742 1.40625C15.6602 1.09115 15.7812 0.838542 15.9375 0.648438C16.0938 0.455729 16.2812 0.317708 16.5 0.234375C16.7214 0.151042 16.9688 0.109375 17.2422 0.109375C17.4635 0.109375 17.6667 0.136719 17.8516 0.191406C18.0391 0.24349 18.2057 0.328125 18.3516 0.445312C18.4974 0.559896 18.6211 0.713542 18.7227 0.90625C18.8268 1.09635 18.9062 1.32943 18.9609 1.60547C19.0156 1.88151 19.043 2.20573 19.043 2.57812ZM18.3164 3.5625V2.45703C18.3164 2.20182 18.3008 1.97786 18.2695 1.78516C18.2409 1.58984 18.1979 1.42318 18.1406 1.28516C18.0833 1.14714 18.0104 1.03516 17.9219 0.949219C17.8359 0.863281 17.7357 0.800781 17.6211 0.761719C17.5091 0.720052 17.3828 0.699219 17.2422 0.699219C17.0703 0.699219 16.918 0.731771 16.7852 0.796875C16.6523 0.859375 16.5404 0.959635 16.4492 1.09766C16.3607 1.23568 16.293 1.41667 16.2461 1.64062C16.1992 1.86458 16.1758 2.13672 16.1758 2.45703V3.5625C16.1758 3.81771 16.1901 4.04297 16.2188 4.23828C16.25 4.43359 16.2956 4.60286 16.3555 4.74609C16.4154 4.88672 16.4883 5.0026 16.5742 5.09375C16.6602 5.1849 16.7591 5.2526 16.8711 5.29688C16.9857 5.33854 17.112 5.35938 17.25 5.35938C17.4271 5.35938 17.582 5.32552 17.7148 5.25781C17.8477 5.1901 17.9583 5.08464 18.0469 4.94141C18.138 4.79557 18.2057 4.60938 18.25 4.38281C18.2943 4.15365 18.3164 3.88021 18.3164 3.5625ZM23.543 2.57812V3.44531C23.543 3.91146 23.5013 4.30469 23.418 4.625C23.3346 4.94531 23.2148 5.20312 23.0586 5.39844C22.9023 5.59375 22.7135 5.73568 22.4922 5.82422C22.2734 5.91016 22.026 5.95312 21.75 5.95312C21.5312 5.95312 21.3294 5.92578 21.1445 5.87109C20.9596 5.81641 20.793 5.72917 20.6445 5.60938C20.4987 5.48698 20.3737 5.32812 20.2695 5.13281C20.1654 4.9375 20.0859 4.70052 20.0312 4.42188C19.9766 4.14323 19.9492 3.81771 19.9492 3.44531V2.57812C19.9492 2.11198 19.9909 1.72135 20.0742 1.40625C20.1602 1.09115 20.2812 0.838542 20.4375 0.648438C20.5938 0.455729 20.7812 0.317708 21 0.234375C21.2214 0.151042 21.4688 0.109375 21.7422 0.109375C21.9635 0.109375 22.1667 0.136719 22.3516 0.191406C22.5391 0.24349 22.7057 0.328125 22.8516 0.445312C22.9974 0.559896 23.1211 0.713542 23.2227 0.90625C23.3268 1.09635 23.4062 1.32943 23.4609 1.60547C23.5156 1.88151 23.543 2.20573 23.543 2.57812ZM22.8164 3.5625V2.45703C22.8164 2.20182 22.8008 1.97786 22.7695 1.78516C22.7409 1.58984 22.6979 1.42318 22.6406 1.28516C22.5833 1.14714 22.5104 1.03516 22.4219 0.949219C22.3359 0.863281 22.2357 0.800781 22.1211 0.761719C22.0091 0.720052 21.8828 0.699219 21.7422 0.699219C21.5703 0.699219 21.418 0.731771 21.2852 0.796875C21.1523 0.859375 21.0404 0.959635 20.9492 1.09766C20.8607 1.23568 20.793 1.41667 20.7461 1.64062C20.6992 1.86458 20.6758 2.13672 20.6758 2.45703V3.5625C20.6758 3.81771 20.6901 4.04297 20.7188 4.23828C20.75 4.43359 20.7956 4.60286 20.8555 4.74609C20.9154 4.88672 20.9883 5.0026 21.0742 5.09375C21.1602 5.1849 21.2591 5.2526 21.3711 5.29688C21.4857 5.33854 21.612 5.35938 21.75 5.35938C21.9271 5.35938 22.082 5.32552 22.2148 5.25781C22.3477 5.1901 22.4583 5.08464 22.5469 4.94141C22.638 4.79557 22.7057 4.60938 22.75 4.38281C22.7943 4.15365 22.8164 3.88021 22.8164 3.5625Z" fill="white"/>
<line x1="32.5" y1="3.5" x2="222.5" y2="3.5" stroke="white" stroke-opacity="0.4" stroke-miterlimit="16" stroke-linecap="round" stroke-linejoin="round" stroke-dasharray="0.1 3"/>
<path opacity="0.8" d="M4.12109 31.0312V31.625H0.398438V31.1055L2.26172 29.0312C2.49089 28.776 2.66797 28.5599 2.79297 28.3828C2.92057 28.2031 3.00911 28.043 3.05859 27.9023C3.11068 27.7591 3.13672 27.6133 3.13672 27.4648C3.13672 27.2773 3.09766 27.1081 3.01953 26.957C2.94401 26.8034 2.83203 26.681 2.68359 26.5898C2.53516 26.4987 2.35547 26.4531 2.14453 26.4531C1.89193 26.4531 1.68099 26.5026 1.51172 26.6016C1.34505 26.6979 1.22005 26.8333 1.13672 27.0078C1.05339 27.1823 1.01172 27.3828 1.01172 27.6094H0.289062C0.289062 27.2891 0.359375 26.9961 0.5 26.7305C0.640625 26.4648 0.848958 26.2539 1.125 26.0977C1.40104 25.9388 1.74089 25.8594 2.14453 25.8594C2.50391 25.8594 2.8112 25.9232 3.06641 26.0508C3.32161 26.1758 3.51693 26.3529 3.65234 26.582C3.79036 26.8086 3.85938 27.0742 3.85938 27.3789C3.85938 27.5456 3.83073 27.7148 3.77344 27.8867C3.71875 28.056 3.64193 28.2253 3.54297 28.3945C3.44661 28.5638 3.33333 28.7305 3.20312 28.8945C3.07552 29.0586 2.9388 29.2201 2.79297 29.3789L1.26953 31.0312H4.12109ZM7.66797 25.9297H7.73047V26.543H7.66797C7.28516 26.543 6.96484 26.6055 6.70703 26.7305C6.44922 26.8529 6.24479 27.0182 6.09375 27.2266C5.94271 27.4323 5.83333 27.6641 5.76562 27.9219C5.70052 28.1797 5.66797 28.4414 5.66797 28.707V29.543C5.66797 29.7956 5.69792 30.0195 5.75781 30.2148C5.81771 30.4076 5.89974 30.5703 6.00391 30.7031C6.10807 30.8359 6.22526 30.9362 6.35547 31.0039C6.48828 31.0716 6.6263 31.1055 6.76953 31.1055C6.9362 31.1055 7.08464 31.0742 7.21484 31.0117C7.34505 30.9466 7.45443 30.8568 7.54297 30.7422C7.63411 30.625 7.70312 30.487 7.75 30.3281C7.79688 30.1693 7.82031 29.9948 7.82031 29.8047C7.82031 29.6354 7.79948 29.4727 7.75781 29.3164C7.71615 29.1576 7.65234 29.0169 7.56641 28.8945C7.48047 28.7695 7.3724 28.6719 7.24219 28.6016C7.11458 28.5286 6.96224 28.4922 6.78516 28.4922C6.58464 28.4922 6.39714 28.5417 6.22266 28.6406C6.05078 28.737 5.90885 28.8646 5.79688 29.0234C5.6875 29.1797 5.625 29.3503 5.60938 29.5352L5.22656 29.5312C5.26302 29.2396 5.33073 28.9909 5.42969 28.7852C5.53125 28.5768 5.65625 28.4076 5.80469 28.2773C5.95573 28.1445 6.1237 28.0482 6.30859 27.9883C6.49609 27.9258 6.69401 27.8945 6.90234 27.8945C7.1862 27.8945 7.43099 27.9479 7.63672 28.0547C7.84245 28.1615 8.01172 28.3047 8.14453 28.4844C8.27734 28.6615 8.375 28.862 8.4375 29.0859C8.5026 29.3073 8.53516 29.5352 8.53516 29.7695C8.53516 30.0378 8.4974 30.2891 8.42188 30.5234C8.34635 30.7578 8.23307 30.9635 8.08203 31.1406C7.93359 31.3177 7.75 31.4557 7.53125 31.5547C7.3125 31.6536 7.05859 31.7031 6.76953 31.7031C6.46224 31.7031 6.19401 31.6406 5.96484 31.5156C5.73568 31.388 5.54557 31.2188 5.39453 31.0078C5.24349 30.7969 5.13021 30.5625 5.05469 30.3047C4.97917 30.0469 4.94141 29.7852 4.94141 29.5195V29.1797C4.94141 28.7786 4.98177 28.3854 5.0625 28C5.14323 27.6146 5.28255 27.2656 5.48047 26.9531C5.68099 26.6406 5.95833 26.3919 6.3125 26.207C6.66667 26.0221 7.11849 25.9297 7.66797 25.9297ZM10.1289 30.7656V31.3477C10.1289 31.5846 10.069 31.8346 9.94922 32.0977C9.82943 32.3633 9.66146 32.5846 9.44531 32.7617L9.03516 32.4766C9.11849 32.362 9.1888 32.2448 9.24609 32.125C9.30339 32.0078 9.34635 31.8854 9.375 31.7578C9.40625 31.6328 9.42188 31.5 9.42188 31.3594V30.7656H10.1289ZM14.543 28.3281V29.1953C14.543 29.6615 14.5013 30.0547 14.418 30.375C14.3346 30.6953 14.2148 30.9531 14.0586 31.1484C13.9023 31.3438 13.7135 31.4857 13.4922 31.5742C13.2734 31.6602 13.026 31.7031 12.75 31.7031C12.5312 31.7031 12.3294 31.6758 12.1445 31.6211C11.9596 31.5664 11.793 31.4792 11.6445 31.3594C11.4987 31.237 11.3737 31.0781 11.2695 30.8828C11.1654 30.6875 11.0859 30.4505 11.0312 30.1719C10.9766 29.8932 10.9492 29.5677 10.9492 29.1953V28.3281C10.9492 27.862 10.9909 27.4714 11.0742 27.1562C11.1602 26.8411 11.2812 26.5885 11.4375 26.3984C11.5938 26.2057 11.7812 26.0677 12 25.9844C12.2214 25.901 12.4688 25.8594 12.7422 25.8594C12.9635 25.8594 13.1667 25.8867 13.3516 25.9414C13.5391 25.9935 13.7057 26.0781 13.8516 26.1953C13.9974 26.3099 14.1211 26.4635 14.2227 26.6562C14.3268 26.8464 14.4062 27.0794 14.4609 27.3555C14.5156 27.6315 14.543 27.9557 14.543 28.3281ZM13.8164 29.3125V28.207C13.8164 27.9518 13.8008 27.7279 13.7695 27.5352C13.7409 27.3398 13.6979 27.1732 13.6406 27.0352C13.5833 26.8971 13.5104 26.7852 13.4219 26.6992C13.3359 26.6133 13.2357 26.5508 13.1211 26.5117C13.0091 26.4701 12.8828 26.4492 12.7422 26.4492C12.5703 26.4492 12.418 26.4818 12.2852 26.5469C12.1523 26.6094 12.0404 26.7096 11.9492 26.8477C11.8607 26.9857 11.793 27.1667 11.7461 27.3906C11.6992 27.6146 11.6758 27.8867 11.6758 28.207V29.3125C11.6758 29.5677 11.6901 29.793 11.7188 29.9883C11.75 30.1836 11.7956 30.3529 11.8555 30.4961C11.9154 30.6367 11.9883 30.7526 12.0742 30.8438C12.1602 30.9349 12.2591 31.0026 12.3711 31.0469C12.4857 31.0885 12.612 31.1094 12.75 31.1094C12.9271 31.1094 13.082 31.0755 13.2148 31.0078C13.3477 30.9401 13.4583 30.8346 13.5469 30.6914C13.638 30.5456 13.7057 30.3594 13.75 30.1328C13.7943 29.9036 13.8164 29.6302 13.8164 29.3125ZM19.043 28.3281V29.1953C19.043 29.6615 19.0013 30.0547 18.918 30.375C18.8346 30.6953 18.7148 30.9531 18.5586 31.1484C18.4023 31.3438 18.2135 31.4857 17.9922 31.5742C17.7734 31.6602 17.526 31.7031 17.25 31.7031C17.0312 31.7031 16.8294 31.6758 16.6445 31.6211C16.4596 31.5664 16.293 31.4792 16.1445 31.3594C15.9987 31.237 15.8737 31.0781 15.7695 30.8828C15.6654 30.6875 15.5859 30.4505 15.5312 30.1719C15.4766 29.8932 15.4492 29.5677 15.4492 29.1953V28.3281C15.4492 27.862 15.4909 27.4714 15.5742 27.1562C15.6602 26.8411 15.7812 26.5885 15.9375 26.3984C16.0938 26.2057 16.2812 26.0677 16.5 25.9844C16.7214 25.901 16.9688 25.8594 17.2422 25.8594C17.4635 25.8594 17.6667 25.8867 17.8516 25.9414C18.0391 25.9935 18.2057 26.0781 18.3516 26.1953C18.4974 26.3099 18.6211 26.4635 18.7227 26.6562C18.8268 26.8464 18.9062 27.0794 18.9609 27.3555C19.0156 27.6315 19.043 27.9557 19.043 28.3281ZM18.3164 29.3125V28.207C18.3164 27.9518 18.3008 27.7279 18.2695 27.5352C18.2409 27.3398 18.1979 27.1732 18.1406 27.0352C18.0833 26.8971 18.0104 26.7852 17.9219 26.6992C17.8359 26.6133 17.7357 26.5508 17.6211 26.5117C17.5091 26.4701 17.3828 26.4492 17.2422 26.4492C17.0703 26.4492 16.918 26.4818 16.7852 26.5469C16.6523 26.6094 16.5404 26.7096 16.4492 26.8477C16.3607 26.9857 16.293 27.1667 16.2461 27.3906C16.1992 27.6146 16.1758 27.8867 16.1758 28.207V29.3125C16.1758 29.5677 16.1901 29.793 16.2188 29.9883C16.25 30.1836 16.2956 30.3529 16.3555 30.4961C16.4154 30.6367 16.4883 30.7526 16.5742 30.8438C16.6602 30.9349 16.7591 31.0026 16.8711 31.0469C16.9857 31.0885 17.112 31.1094 17.25 31.1094C17.4271 31.1094 17.582 31.0755 17.7148 31.0078C17.8477 30.9401 17.9583 30.8346 18.0469 30.6914C18.138 30.5456 18.2057 30.3594 18.25 30.1328C18.2943 29.9036 18.3164 29.6302 18.3164 29.3125ZM23.543 28.3281V29.1953C23.543 29.6615 23.5013 30.0547 23.418 30.375C23.3346 30.6953 23.2148 30.9531 23.0586 31.1484C22.9023 31.3438 22.7135 31.4857 22.4922 31.5742C22.2734 31.6602 22.026 31.7031 21.75 31.7031C21.5312 31.7031 21.3294 31.6758 21.1445 31.6211C20.9596 31.5664 20.793 31.4792 20.6445 31.3594C20.4987 31.237 20.3737 31.0781 20.2695 30.8828C20.1654 30.6875 20.0859 30.4505 20.0312 30.1719C19.9766 29.8932 19.9492 29.5677 19.9492 29.1953V28.3281C19.9492 27.862 19.9909 27.4714 20.0742 27.1562C20.1602 26.8411 20.2812 26.5885 20.4375 26.3984C20.5938 26.2057 20.7812 26.0677 21 25.9844C21.2214 25.901 21.4688 25.8594 21.7422 25.8594C21.9635 25.8594 22.1667 25.8867 22.3516 25.9414C22.5391 25.9935 22.7057 26.0781 22.8516 26.1953C22.9974 26.3099 23.1211 26.4635 23.2227 26.6562C23.3268 26.8464 23.4062 27.0794 23.4609 27.3555C23.5156 27.6315 23.543 27.9557 23.543 28.3281ZM22.8164 29.3125V28.207C22.8164 27.9518 22.8008 27.7279 22.7695 27.5352C22.7409 27.3398 22.6979 27.1732 22.6406 27.0352C22.5833 26.8971 22.5104 26.7852 22.4219 26.6992C22.3359 26.6133 22.2357 26.5508 22.1211 26.5117C22.0091 26.4701 21.8828 26.4492 21.7422 26.4492C21.5703 26.4492 21.418 26.4818 21.2852 26.5469C21.1523 26.6094 21.0404 26.7096 20.9492 26.8477C20.8607 26.9857 20.793 27.1667 20.7461 27.3906C20.6992 27.6146 20.6758 27.8867 20.6758 28.207V29.3125C20.6758 29.5677 20.6901 29.793 20.7188 29.9883C20.75 30.1836 20.7956 30.3529 20.8555 30.4961C20.9154 30.6367 20.9883 30.7526 21.0742 30.8438C21.1602 30.9349 21.2591 31.0026 21.3711 31.0469C21.4857 31.0885 21.612 31.1094 21.75 31.1094C21.9271 31.1094 22.082 31.0755 22.2148 31.0078C22.3477 30.9401 22.4583 30.8346 22.5469 30.6914C22.638 30.5456 22.7057 30.3594 22.75 30.1328C22.7943 29.9036 22.8164 29.6302 22.8164 29.3125Z" fill="white"/>
<line x1="32.5" y1="29" x2="222.5" y2="29" stroke="white" stroke-opacity="0.4" stroke-miterlimit="16" stroke-linecap="round" stroke-linejoin="round" stroke-dasharray="0.1 3"/>
<path opacity="0.8" d="M4.12109 56.7812V57.375H0.398438V56.8555L2.26172 54.7812C2.49089 54.526 2.66797 54.3099 2.79297 54.1328C2.92057 53.9531 3.00911 53.793 3.05859 53.6523C3.11068 53.5091 3.13672 53.3633 3.13672 53.2148C3.13672 53.0273 3.09766 52.8581 3.01953 52.707C2.94401 52.5534 2.83203 52.431 2.68359 52.3398C2.53516 52.2487 2.35547 52.2031 2.14453 52.2031C1.89193 52.2031 1.68099 52.2526 1.51172 52.3516C1.34505 52.4479 1.22005 52.5833 1.13672 52.7578C1.05339 52.9323 1.01172 53.1328 1.01172 53.3594H0.289062C0.289062 53.0391 0.359375 52.7461 0.5 52.4805C0.640625 52.2148 0.848958 52.0039 1.125 51.8477C1.40104 51.6888 1.74089 51.6094 2.14453 51.6094C2.50391 51.6094 2.8112 51.6732 3.06641 51.8008C3.32161 51.9258 3.51693 52.1029 3.65234 52.332C3.79036 52.5586 3.85938 52.8242 3.85938 53.1289C3.85938 53.2956 3.83073 53.4648 3.77344 53.6367C3.71875 53.806 3.64193 53.9753 3.54297 54.1445C3.44661 54.3138 3.33333 54.4805 3.20312 54.6445C3.07552 54.8086 2.9388 54.9701 2.79297 55.1289L1.26953 56.7812H4.12109ZM5.80859 54.668L5.23047 54.5195L5.51562 51.6875H8.43359V52.3555H6.12891L5.95703 53.9023C6.0612 53.8424 6.19271 53.7865 6.35156 53.7344C6.51302 53.6823 6.69792 53.6562 6.90625 53.6562C7.16927 53.6562 7.40495 53.7018 7.61328 53.793C7.82161 53.8815 7.9987 54.0091 8.14453 54.1758C8.29297 54.3424 8.40625 54.543 8.48438 54.7773C8.5625 55.0117 8.60156 55.2734 8.60156 55.5625C8.60156 55.8359 8.5638 56.0872 8.48828 56.3164C8.41536 56.5456 8.30469 56.7461 8.15625 56.918C8.00781 57.0872 7.82031 57.2188 7.59375 57.3125C7.36979 57.4062 7.10547 57.4531 6.80078 57.4531C6.57161 57.4531 6.35417 57.4219 6.14844 57.3594C5.94531 57.2943 5.76302 57.1966 5.60156 57.0664C5.44271 56.9336 5.3125 56.7695 5.21094 56.5742C5.11198 56.3763 5.04948 56.1445 5.02344 55.8789H5.71094C5.74219 56.0924 5.80469 56.2721 5.89844 56.418C5.99219 56.5638 6.11458 56.6745 6.26562 56.75C6.41927 56.8229 6.59766 56.8594 6.80078 56.8594C6.97266 56.8594 7.125 56.8294 7.25781 56.7695C7.39062 56.7096 7.5026 56.6237 7.59375 56.5117C7.6849 56.3997 7.75391 56.2643 7.80078 56.1055C7.85026 55.9466 7.875 55.7682 7.875 55.5703C7.875 55.3906 7.85026 55.224 7.80078 55.0703C7.7513 54.9167 7.67708 54.7826 7.57812 54.668C7.48177 54.5534 7.36328 54.4648 7.22266 54.4023C7.08203 54.3372 6.92057 54.3047 6.73828 54.3047C6.49609 54.3047 6.3125 54.3372 6.1875 54.4023C6.0651 54.4674 5.9388 54.556 5.80859 54.668ZM10.1289 56.5156V57.0977C10.1289 57.3346 10.069 57.5846 9.94922 57.8477C9.82943 58.1133 9.66146 58.3346 9.44531 58.5117L9.03516 58.2266C9.11849 58.112 9.1888 57.9948 9.24609 57.875C9.30339 57.7578 9.34635 57.6354 9.375 57.5078C9.40625 57.3828 9.42188 57.25 9.42188 57.1094V56.5156H10.1289ZM11.8867 54.668L11.3086 54.5195L11.5938 51.6875H14.5117V52.3555H12.207L12.0352 53.9023C12.1393 53.8424 12.2708 53.7865 12.4297 53.7344C12.5911 53.6823 12.776 53.6562 12.9844 53.6562C13.2474 53.6562 13.4831 53.7018 13.6914 53.793C13.8997 53.8815 14.0768 54.0091 14.2227 54.1758C14.3711 54.3424 14.4844 54.543 14.5625 54.7773C14.6406 55.0117 14.6797 55.2734 14.6797 55.5625C14.6797 55.8359 14.6419 56.0872 14.5664 56.3164C14.4935 56.5456 14.3828 56.7461 14.2344 56.918C14.0859 57.0872 13.8984 57.2188 13.6719 57.3125C13.4479 57.4062 13.1836 57.4531 12.8789 57.4531C12.6497 57.4531 12.4323 57.4219 12.2266 57.3594C12.0234 57.2943 11.8411 57.1966 11.6797 57.0664C11.5208 56.9336 11.3906 56.7695 11.2891 56.5742C11.1901 56.3763 11.1276 56.1445 11.1016 55.8789H11.7891C11.8203 56.0924 11.8828 56.2721 11.9766 56.418C12.0703 56.5638 12.1927 56.6745 12.3438 56.75C12.4974 56.8229 12.6758 56.8594 12.8789 56.8594C13.0508 56.8594 13.2031 56.8294 13.3359 56.7695C13.4688 56.7096 13.5807 56.6237 13.6719 56.5117C13.763 56.3997 13.832 56.2643 13.8789 56.1055C13.9284 55.9466 13.9531 55.7682 13.9531 55.5703C13.9531 55.3906 13.9284 55.224 13.8789 55.0703C13.8294 54.9167 13.7552 54.7826 13.6562 54.668C13.5599 54.5534 13.4414 54.4648 13.3008 54.4023C13.1602 54.3372 12.9987 54.3047 12.8164 54.3047C12.5742 54.3047 12.3906 54.3372 12.2656 54.4023C12.1432 54.4674 12.0169 54.556 11.8867 54.668ZM19.043 54.0781V54.9453C19.043 55.4115 19.0013 55.8047 18.918 56.125C18.8346 56.4453 18.7148 56.7031 18.5586 56.8984C18.4023 57.0938 18.2135 57.2357 17.9922 57.3242C17.7734 57.4102 17.526 57.4531 17.25 57.4531C17.0312 57.4531 16.8294 57.4258 16.6445 57.3711C16.4596 57.3164 16.293 57.2292 16.1445 57.1094C15.9987 56.987 15.8737 56.8281 15.7695 56.6328C15.6654 56.4375 15.5859 56.2005 15.5312 55.9219C15.4766 55.6432 15.4492 55.3177 15.4492 54.9453V54.0781C15.4492 53.612 15.4909 53.2214 15.5742 52.9062C15.6602 52.5911 15.7812 52.3385 15.9375 52.1484C16.0938 51.9557 16.2812 51.8177 16.5 51.7344C16.7214 51.651 16.9688 51.6094 17.2422 51.6094C17.4635 51.6094 17.6667 51.6367 17.8516 51.6914C18.0391 51.7435 18.2057 51.8281 18.3516 51.9453C18.4974 52.0599 18.6211 52.2135 18.7227 52.4062C18.8268 52.5964 18.9062 52.8294 18.9609 53.1055C19.0156 53.3815 19.043 53.7057 19.043 54.0781ZM18.3164 55.0625V53.957C18.3164 53.7018 18.3008 53.4779 18.2695 53.2852C18.2409 53.0898 18.1979 52.9232 18.1406 52.7852C18.0833 52.6471 18.0104 52.5352 17.9219 52.4492C17.8359 52.3633 17.7357 52.3008 17.6211 52.2617C17.5091 52.2201 17.3828 52.1992 17.2422 52.1992C17.0703 52.1992 16.918 52.2318 16.7852 52.2969C16.6523 52.3594 16.5404 52.4596 16.4492 52.5977C16.3607 52.7357 16.293 52.9167 16.2461 53.1406C16.1992 53.3646 16.1758 53.6367 16.1758 53.957V55.0625C16.1758 55.3177 16.1901 55.543 16.2188 55.7383C16.25 55.9336 16.2956 56.1029 16.3555 56.2461C16.4154 56.3867 16.4883 56.5026 16.5742 56.5938C16.6602 56.6849 16.7591 56.7526 16.8711 56.7969C16.9857 56.8385 17.112 56.8594 17.25 56.8594C17.4271 56.8594 17.582 56.8255 17.7148 56.7578C17.8477 56.6901 17.9583 56.5846 18.0469 56.4414C18.138 56.2956 18.2057 56.1094 18.25 55.8828C18.2943 55.6536 18.3164 55.3802 18.3164 55.0625ZM23.543 54.0781V54.9453C23.543 55.4115 23.5013 55.8047 23.418 56.125C23.3346 56.4453 23.2148 56.7031 23.0586 56.8984C22.9023 57.0938 22.7135 57.2357 22.4922 57.3242C22.2734 57.4102 22.026 57.4531 21.75 57.4531C21.5312 57.4531 21.3294 57.4258 21.1445 57.3711C20.9596 57.3164 20.793 57.2292 20.6445 57.1094C20.4987 56.987 20.3737 56.8281 20.2695 56.6328C20.1654 56.4375 20.0859 56.2005 20.0312 55.9219C19.9766 55.6432 19.9492 55.3177 19.9492 54.9453V54.0781C19.9492 53.612 19.9909 53.2214 20.0742 52.9062C20.1602 52.5911 20.2812 52.3385 20.4375 52.1484C20.5938 51.9557 20.7812 51.8177 21 51.7344C21.2214 51.651 21.4688 51.6094 21.7422 51.6094C21.9635 51.6094 22.1667 51.6367 22.3516 51.6914C22.5391 51.7435 22.7057 51.8281 22.8516 51.9453C22.9974 52.0599 23.1211 52.2135 23.2227 52.4062C23.3268 52.5964 23.4062 52.8294 23.4609 53.1055C23.5156 53.3815 23.543 53.7057 23.543 54.0781ZM22.8164 55.0625V53.957C22.8164 53.7018 22.8008 53.4779 22.7695 53.2852C22.7409 53.0898 22.6979 52.9232 22.6406 52.7852C22.5833 52.6471 22.5104 52.5352 22.4219 52.4492C22.3359 52.3633 22.2357 52.3008 22.1211 52.2617C22.0091 52.2201 21.8828 52.1992 21.7422 52.1992C21.5703 52.1992 21.418 52.2318 21.2852 52.2969C21.1523 52.3594 21.0404 52.4596 20.9492 52.5977C20.8607 52.7357 20.793 52.9167 20.7461 53.1406C20.6992 53.3646 20.6758 53.6367 20.6758 53.957V55.0625C20.6758 55.3177 20.6901 55.543 20.7188 55.7383C20.75 55.9336 20.7956 56.1029 20.8555 56.2461C20.9154 56.3867 20.9883 56.5026 21.0742 56.5938C21.1602 56.6849 21.2591 56.7526 21.3711 56.7969C21.4857 56.8385 21.612 56.8594 21.75 56.8594C21.9271 56.8594 22.082 56.8255 22.2148 56.7578C22.3477 56.6901 22.4583 56.5846 22.5469 56.4414C22.638 56.2956 22.7057 56.1094 22.75 55.8828C22.7943 55.6536 22.8164 55.3802 22.8164 55.0625Z" fill="white"/>
<line x1="32.5" y1="54.5" x2="222.5" y2="54.5" stroke="white" stroke-opacity="0.4" stroke-miterlimit="16" stroke-linecap="round" stroke-linejoin="round" stroke-dasharray="0.1 3"/>
<path opacity="0.8" d="M4.12109 83.0312V83.625H0.398438V83.1055L2.26172 81.0312C2.49089 80.776 2.66797 80.5599 2.79297 80.3828C2.92057 80.2031 3.00911 80.043 3.05859 79.9023C3.11068 79.7591 3.13672 79.6133 3.13672 79.4648C3.13672 79.2773 3.09766 79.1081 3.01953 78.957C2.94401 78.8034 2.83203 78.681 2.68359 78.5898C2.53516 78.4987 2.35547 78.4531 2.14453 78.4531C1.89193 78.4531 1.68099 78.5026 1.51172 78.6016C1.34505 78.6979 1.22005 78.8333 1.13672 79.0078C1.05339 79.1823 1.01172 79.3828 1.01172 79.6094H0.289062C0.289062 79.2891 0.359375 78.9961 0.5 78.7305C0.640625 78.4648 0.848958 78.2539 1.125 78.0977C1.40104 77.9388 1.74089 77.8594 2.14453 77.8594C2.50391 77.8594 2.8112 77.9232 3.06641 78.0508C3.32161 78.1758 3.51693 78.3529 3.65234 78.582C3.79036 78.8086 3.85938 79.0742 3.85938 79.3789C3.85938 79.5456 3.83073 79.7148 3.77344 79.8867C3.71875 80.056 3.64193 80.2253 3.54297 80.3945C3.44661 80.5638 3.33333 80.7305 3.20312 80.8945C3.07552 81.0586 2.9388 81.2201 2.79297 81.3789L1.26953 83.0312H4.12109ZM5.80859 80.918L5.23047 80.7695L5.51562 77.9375H8.43359V78.6055H6.12891L5.95703 80.1523C6.0612 80.0924 6.19271 80.0365 6.35156 79.9844C6.51302 79.9323 6.69792 79.9062 6.90625 79.9062C7.16927 79.9062 7.40495 79.9518 7.61328 80.043C7.82161 80.1315 7.9987 80.2591 8.14453 80.4258C8.29297 80.5924 8.40625 80.793 8.48438 81.0273C8.5625 81.2617 8.60156 81.5234 8.60156 81.8125C8.60156 82.0859 8.5638 82.3372 8.48828 82.5664C8.41536 82.7956 8.30469 82.9961 8.15625 83.168C8.00781 83.3372 7.82031 83.4688 7.59375 83.5625C7.36979 83.6562 7.10547 83.7031 6.80078 83.7031C6.57161 83.7031 6.35417 83.6719 6.14844 83.6094C5.94531 83.5443 5.76302 83.4466 5.60156 83.3164C5.44271 83.1836 5.3125 83.0195 5.21094 82.8242C5.11198 82.6263 5.04948 82.3945 5.02344 82.1289H5.71094C5.74219 82.3424 5.80469 82.5221 5.89844 82.668C5.99219 82.8138 6.11458 82.9245 6.26562 83C6.41927 83.0729 6.59766 83.1094 6.80078 83.1094C6.97266 83.1094 7.125 83.0794 7.25781 83.0195C7.39062 82.9596 7.5026 82.8737 7.59375 82.7617C7.6849 82.6497 7.75391 82.5143 7.80078 82.3555C7.85026 82.1966 7.875 82.0182 7.875 81.8203C7.875 81.6406 7.85026 81.474 7.80078 81.3203C7.7513 81.1667 7.67708 81.0326 7.57812 80.918C7.48177 80.8034 7.36328 80.7148 7.22266 80.6523C7.08203 80.5872 6.92057 80.5547 6.73828 80.5547C6.49609 80.5547 6.3125 80.5872 6.1875 80.6523C6.0651 80.7174 5.9388 80.806 5.80859 80.918ZM10.1289 82.7656V83.3477C10.1289 83.5846 10.069 83.8346 9.94922 84.0977C9.82943 84.3633 9.66146 84.5846 9.44531 84.7617L9.03516 84.4766C9.11849 84.362 9.1888 84.2448 9.24609 84.125C9.30339 84.0078 9.34635 83.8854 9.375 83.7578C9.40625 83.6328 9.42188 83.5 9.42188 83.3594V82.7656H10.1289ZM14.543 80.3281V81.1953C14.543 81.6615 14.5013 82.0547 14.418 82.375C14.3346 82.6953 14.2148 82.9531 14.0586 83.1484C13.9023 83.3438 13.7135 83.4857 13.4922 83.5742C13.2734 83.6602 13.026 83.7031 12.75 83.7031C12.5312 83.7031 12.3294 83.6758 12.1445 83.6211C11.9596 83.5664 11.793 83.4792 11.6445 83.3594C11.4987 83.237 11.3737 83.0781 11.2695 82.8828C11.1654 82.6875 11.0859 82.4505 11.0312 82.1719C10.9766 81.8932 10.9492 81.5677 10.9492 81.1953V80.3281C10.9492 79.862 10.9909 79.4714 11.0742 79.1562C11.1602 78.8411 11.2812 78.5885 11.4375 78.3984C11.5938 78.2057 11.7812 78.0677 12 77.9844C12.2214 77.901 12.4688 77.8594 12.7422 77.8594C12.9635 77.8594 13.1667 77.8867 13.3516 77.9414C13.5391 77.9935 13.7057 78.0781 13.8516 78.1953C13.9974 78.3099 14.1211 78.4635 14.2227 78.6562C14.3268 78.8464 14.4062 79.0794 14.4609 79.3555C14.5156 79.6315 14.543 79.9557 14.543 80.3281ZM13.8164 81.3125V80.207C13.8164 79.9518 13.8008 79.7279 13.7695 79.5352C13.7409 79.3398 13.6979 79.1732 13.6406 79.0352C13.5833 78.8971 13.5104 78.7852 13.4219 78.6992C13.3359 78.6133 13.2357 78.5508 13.1211 78.5117C13.0091 78.4701 12.8828 78.4492 12.7422 78.4492C12.5703 78.4492 12.418 78.4818 12.2852 78.5469C12.1523 78.6094 12.0404 78.7096 11.9492 78.8477C11.8607 78.9857 11.793 79.1667 11.7461 79.3906C11.6992 79.6146 11.6758 79.8867 11.6758 80.207V81.3125C11.6758 81.5677 11.6901 81.793 11.7188 81.9883C11.75 82.1836 11.7956 82.3529 11.8555 82.4961C11.9154 82.6367 11.9883 82.7526 12.0742 82.8438C12.1602 82.9349 12.2591 83.0026 12.3711 83.0469C12.4857 83.0885 12.612 83.1094 12.75 83.1094C12.9271 83.1094 13.082 83.0755 13.2148 83.0078C13.3477 82.9401 13.4583 82.8346 13.5469 82.6914C13.638 82.5456 13.7057 82.3594 13.75 82.1328C13.7943 81.9036 13.8164 81.6302 13.8164 81.3125ZM19.043 80.3281V81.1953C19.043 81.6615 19.0013 82.0547 18.918 82.375C18.8346 82.6953 18.7148 82.9531 18.5586 83.1484C18.4023 83.3438 18.2135 83.4857 17.9922 83.5742C17.7734 83.6602 17.526 83.7031 17.25 83.7031C17.0312 83.7031 16.8294 83.6758 16.6445 83.6211C16.4596 83.5664 16.293 83.4792 16.1445 83.3594C15.9987 83.237 15.8737 83.0781 15.7695 82.8828C15.6654 82.6875 15.5859 82.4505 15.5312 82.1719C15.4766 81.8932 15.4492 81.5677 15.4492 81.1953V80.3281C15.4492 79.862 15.4909 79.4714 15.5742 79.1562C15.6602 78.8411 15.7812 78.5885 15.9375 78.3984C16.0938 78.2057 16.2812 78.0677 16.5 77.9844C16.7214 77.901 16.9688 77.8594 17.2422 77.8594C17.4635 77.8594 17.6667 77.8867 17.8516 77.9414C18.0391 77.9935 18.2057 78.0781 18.3516 78.1953C18.4974 78.3099 18.6211 78.4635 18.7227 78.6562C18.8268 78.8464 18.9062 79.0794 18.9609 79.3555C19.0156 79.6315 19.043 79.9557 19.043 80.3281ZM18.3164 81.3125V80.207C18.3164 79.9518 18.3008 79.7279 18.2695 79.5352C18.2409 79.3398 18.1979 79.1732 18.1406 79.0352C18.0833 78.8971 18.0104 78.7852 17.9219 78.6992C17.8359 78.6133 17.7357 78.5508 17.6211 78.5117C17.5091 78.4701 17.3828 78.4492 17.2422 78.4492C17.0703 78.4492 16.918 78.4818 16.7852 78.5469C16.6523 78.6094 16.5404 78.7096 16.4492 78.8477C16.3607 78.9857 16.293 79.1667 16.2461 79.3906C16.1992 79.6146 16.1758 79.8867 16.1758 80.207V81.3125C16.1758 81.5677 16.1901 81.793 16.2188 81.9883C16.25 82.1836 16.2956 82.3529 16.3555 82.4961C16.4154 82.6367 16.4883 82.7526 16.5742 82.8438C16.6602 82.9349 16.7591 83.0026 16.8711 83.0469C16.9857 83.0885 17.112 83.1094 17.25 83.1094C17.4271 83.1094 17.582 83.0755 17.7148 83.0078C17.8477 82.9401 17.9583 82.8346 18.0469 82.6914C18.138 82.5456 18.2057 82.3594 18.25 82.1328C18.2943 81.9036 18.3164 81.6302 18.3164 81.3125ZM23.543 80.3281V81.1953C23.543 81.6615 23.5013 82.0547 23.418 82.375C23.3346 82.6953 23.2148 82.9531 23.0586 83.1484C22.9023 83.3438 22.7135 83.4857 22.4922 83.5742C22.2734 83.6602 22.026 83.7031 21.75 83.7031C21.5312 83.7031 21.3294 83.6758 21.1445 83.6211C20.9596 83.5664 20.793 83.4792 20.6445 83.3594C20.4987 83.237 20.3737 83.0781 20.2695 82.8828C20.1654 82.6875 20.0859 82.4505 20.0312 82.1719C19.9766 81.8932 19.9492 81.5677 19.9492 81.1953V80.3281C19.9492 79.862 19.9909 79.4714 20.0742 79.1562C20.1602 78.8411 20.2812 78.5885 20.4375 78.3984C20.5938 78.2057 20.7812 78.0677 21 77.9844C21.2214 77.901 21.4688 77.8594 21.7422 77.8594C21.9635 77.8594 22.1667 77.8867 22.3516 77.9414C22.5391 77.9935 22.7057 78.0781 22.8516 78.1953C22.9974 78.3099 23.1211 78.4635 23.2227 78.6562C23.3268 78.8464 23.4062 79.0794 23.4609 79.3555C23.5156 79.6315 23.543 79.9557 23.543 80.3281ZM22.8164 81.3125V80.207C22.8164 79.9518 22.8008 79.7279 22.7695 79.5352C22.7409 79.3398 22.6979 79.1732 22.6406 79.0352C22.5833 78.8971 22.5104 78.7852 22.4219 78.6992C22.3359 78.6133 22.2357 78.5508 22.1211 78.5117C22.0091 78.4701 21.8828 78.4492 21.7422 78.4492C21.5703 78.4492 21.418 78.4818 21.2852 78.5469C21.1523 78.6094 21.0404 78.7096 20.9492 78.8477C20.8607 78.9857 20.793 79.1667 20.7461 79.3906C20.6992 79.6146 20.6758 79.8867 20.6758 80.207V81.3125C20.6758 81.5677 20.6901 81.793 20.7188 81.9883C20.75 82.1836 20.7956 82.3529 20.8555 82.4961C20.9154 82.6367 20.9883 82.7526 21.0742 82.8438C21.1602 82.9349 21.2591 83.0026 21.3711 83.0469C21.4857 83.0885 21.612 83.1094 21.75 83.1094C21.9271 83.1094 22.082 83.0755 22.2148 83.0078C22.3477 82.9401 22.4583 82.8346 22.5469 82.6914C22.638 82.5456 22.7057 82.3594 22.75 82.1328C22.7943 81.9036 22.8164 81.6302 22.8164 81.3125Z" fill="white"/>
<line x1="32.5" y1="81" x2="222.5" y2="81" stroke="white" stroke-opacity="0.4" stroke-miterlimit="16" stroke-linecap="round" stroke-linejoin="round" stroke-dasharray="0.1 3"/>
<rect width="191" height="1" transform="matrix(1 0 0 -1 32 109)" fill="white" fill-opacity="0.15"/>
</g>
<defs>
<linearGradient id="paint0_linear_37265_57564" x1="1" y1="0" x2="1" y2="11" gradientUnits="userSpaceOnUse">
<stop stop-color="white"/>
<stop offset="0.0001" stop-color="#878787"/>
<stop offset="1" stop-color="#575757" stop-opacity="0"/>
</linearGradient>
<linearGradient id="paint1_linear_37265_57564" x1="1" y1="0" x2="1" y2="11" gradientUnits="userSpaceOnUse">
<stop stop-color="white"/>
<stop offset="0.0001" stop-color="#878787"/>
<stop offset="1" stop-color="#575757" stop-opacity="0"/>
</linearGradient>
<linearGradient id="paint2_linear_37265_57564" x1="1" y1="0" x2="1" y2="14" gradientUnits="userSpaceOnUse">
<stop stop-color="white"/>
<stop offset="0.0001" stop-color="#878787"/>
<stop offset="1" stop-color="#575757" stop-opacity="0"/>
</linearGradient>
<linearGradient id="paint3_linear_37265_57564" x1="1" y1="0" x2="1" y2="14" gradientUnits="userSpaceOnUse">
<stop stop-color="white"/>
<stop offset="0.0001" stop-color="#878787"/>
<stop offset="1" stop-color="#575757" stop-opacity="0"/>
</linearGradient>
<linearGradient id="paint4_linear_37265_57564" x1="1" y1="0" x2="1" y2="16" gradientUnits="userSpaceOnUse">
<stop stop-color="white"/>
<stop offset="0.0001" stop-color="#878787"/>
<stop offset="1" stop-color="#575757" stop-opacity="0"/>
</linearGradient>
<linearGradient id="paint5_linear_37265_57564" x1="1" y1="0" x2="1" y2="16" gradientUnits="userSpaceOnUse">
<stop stop-color="white"/>
<stop offset="0.0001" stop-color="#878787"/>
<stop offset="1" stop-color="#575757" stop-opacity="0"/>
</linearGradient>
<linearGradient id="paint6_linear_37265_57564" x1="1" y1="0" x2="1" y2="16" gradientUnits="userSpaceOnUse">
<stop stop-color="white"/>
<stop offset="0.0001" stop-color="#878787"/>
<stop offset="1" stop-color="#575757" stop-opacity="0"/>
</linearGradient>
<linearGradient id="paint7_linear_37265_57564" x1="1" y1="0" x2="1" y2="16" gradientUnits="userSpaceOnUse">
<stop stop-color="white"/>
<stop offset="0.0001" stop-color="#878787"/>
<stop offset="1" stop-color="#575757" stop-opacity="0"/>
</linearGradient>
<linearGradient id="paint8_linear_37265_57564" x1="1" y1="0" x2="1" y2="14" gradientUnits="userSpaceOnUse">
<stop stop-color="white"/>
<stop offset="0.0001" stop-color="#878787"/>
<stop offset="1" stop-color="#575757" stop-opacity="0"/>
</linearGradient>
<linearGradient id="paint9_linear_37265_57564" x1="1" y1="0" x2="1" y2="14" gradientUnits="userSpaceOnUse">
<stop stop-color="white"/>
<stop offset="0.0001" stop-color="#878787"/>
<stop offset="1" stop-color="#575757" stop-opacity="0"/>
</linearGradient>
<linearGradient id="paint10_linear_37265_57564" x1="1" y1="0" x2="1" y2="11" gradientUnits="userSpaceOnUse">
<stop stop-color="white"/>
<stop offset="0.0001" stop-color="#878787"/>
<stop offset="1" stop-color="#575757" stop-opacity="0"/>
</linearGradient>
<linearGradient id="paint11_linear_37265_57564" x1="1" y1="0" x2="1" y2="11" gradientUnits="userSpaceOnUse">
<stop stop-color="white"/>
<stop offset="0.0001" stop-color="#878787"/>
<stop offset="1" stop-color="#575757" stop-opacity="0"/>
</linearGradient>
<linearGradient id="paint12_linear_37265_57564" x1="1" y1="0" x2="1" y2="9" gradientUnits="userSpaceOnUse">
<stop stop-color="white"/>
<stop offset="0.0001" stop-color="#878787"/>
<stop offset="1" stop-color="#575757" stop-opacity="0"/>
</linearGradient>
<linearGradient id="paint13_linear_37265_57564" x1="1" y1="0" x2="1" y2="9" gradientUnits="userSpaceOnUse">
<stop stop-color="white"/>
<stop offset="0.0001" stop-color="#878787"/>
<stop offset="1" stop-color="#575757" stop-opacity="0"/>
</linearGradient>
<linearGradient id="paint14_linear_37265_57564" x1="1" y1="0" x2="1" y2="8" gradientUnits="userSpaceOnUse">
<stop stop-color="white"/>
<stop offset="0.0001" stop-color="#878787"/>
<stop offset="1" stop-color="#575757" stop-opacity="0"/>
</linearGradient>
<linearGradient id="paint15_linear_37265_57564" x1="1" y1="0" x2="1" y2="8" gradientUnits="userSpaceOnUse">
<stop stop-color="white"/>
<stop offset="0.0001" stop-color="#878787"/>
<stop offset="1" stop-color="#575757" stop-opacity="0"/>
</linearGradient>
<linearGradient id="paint16_linear_37265_57564" x1="1" y1="0" x2="1" y2="8" gradientUnits="userSpaceOnUse">
<stop stop-color="white"/>
<stop offset="0.0001" stop-color="#878787"/>
<stop offset="1" stop-color="#575757" stop-opacity="0"/>
</linearGradient>
<linearGradient id="paint17_linear_37265_57564" x1="1" y1="0" x2="1" y2="8" gradientUnits="userSpaceOnUse">
<stop stop-color="white"/>
<stop offset="0.0001" stop-color="#878787"/>
<stop offset="1" stop-color="#575757" stop-opacity="0"/>
</linearGradient>
<linearGradient id="paint18_linear_37265_57564" x1="1" y1="0" x2="1" y2="8" gradientUnits="userSpaceOnUse">
<stop stop-color="white"/>
<stop offset="0.0001" stop-color="#878787"/>
<stop offset="1" stop-color="#575757" stop-opacity="0"/>
</linearGradient>
<linearGradient id="paint19_linear_37265_57564" x1="1" y1="0" x2="1" y2="8" gradientUnits="userSpaceOnUse">
<stop stop-color="white"/>
<stop offset="0.0001" stop-color="#878787"/>
<stop offset="1" stop-color="#575757" stop-opacity="0"/>
</linearGradient>
<linearGradient id="paint20_linear_37265_57564" x1="1" y1="0" x2="1" y2="9" gradientUnits="userSpaceOnUse">
<stop stop-color="white"/>
<stop offset="0.0001" stop-color="#878787"/>
<stop offset="1" stop-color="#575757" stop-opacity="0"/>
</linearGradient>
<linearGradient id="paint21_linear_37265_57564" x1="1" y1="0" x2="1" y2="9" gradientUnits="userSpaceOnUse">
<stop stop-color="white"/>
<stop offset="0.0001" stop-color="#878787"/>
<stop offset="1" stop-color="#575757" stop-opacity="0"/>
</linearGradient>
<linearGradient id="paint22_linear_37265_57564" x1="1" y1="0" x2="1" y2="10" gradientUnits="userSpaceOnUse">
<stop stop-color="white"/>
<stop offset="0.0001" stop-color="#878787"/>
<stop offset="1" stop-color="#575757" stop-opacity="0"/>
</linearGradient>
<linearGradient id="paint23_linear_37265_57564" x1="1" y1="0" x2="1" y2="10" gradientUnits="userSpaceOnUse">
<stop stop-color="white"/>
<stop offset="0.0001" stop-color="#878787"/>
<stop offset="1" stop-color="#575757" stop-opacity="0"/>
</linearGradient>
<linearGradient id="paint24_linear_37265_57564" x1="1" y1="0" x2="1" y2="11" gradientUnits="userSpaceOnUse">
<stop stop-color="white"/>
<stop offset="0.0001" stop-color="#878787"/>
<stop offset="1" stop-color="#575757" stop-opacity="0"/>
</linearGradient>
<linearGradient id="paint25_linear_37265_57564" x1="1" y1="0" x2="1" y2="11" gradientUnits="userSpaceOnUse">
<stop stop-color="white"/>
<stop offset="0.0001" stop-color="#878787"/>
<stop offset="1" stop-color="#575757" stop-opacity="0"/>
</linearGradient>
<linearGradient id="paint26_linear_37265_57564" x1="1" y1="0" x2="1" y2="12" gradientUnits="userSpaceOnUse">
<stop stop-color="white"/>
<stop offset="0.0001" stop-color="#878787"/>
<stop offset="1" stop-color="#575757" stop-opacity="0"/>
</linearGradient>
<linearGradient id="paint27_linear_37265_57564" x1="1" y1="0" x2="1" y2="12" gradientUnits="userSpaceOnUse">
<stop stop-color="white"/>
<stop offset="0.0001" stop-color="#878787"/>
<stop offset="1" stop-color="#575757" stop-opacity="0"/>
</linearGradient>
<linearGradient id="paint28_linear_37265_57564" x1="1" y1="0" x2="1" y2="14" gradientUnits="userSpaceOnUse">
<stop stop-color="white"/>
<stop offset="0.0001" stop-color="#878787"/>
<stop offset="1" stop-color="#575757" stop-opacity="0"/>
</linearGradient>
<linearGradient id="paint29_linear_37265_57564" x1="1" y1="0" x2="1" y2="14" gradientUnits="userSpaceOnUse">
<stop stop-color="white"/>
<stop offset="0.0001" stop-color="#878787"/>
<stop offset="1" stop-color="#575757" stop-opacity="0"/>
</linearGradient>
<linearGradient id="paint30_linear_37265_57564" x1="1" y1="0" x2="1" y2="17" gradientUnits="userSpaceOnUse">
<stop stop-color="white"/>
<stop offset="0.0001" stop-color="#878787"/>
<stop offset="1" stop-color="#575757" stop-opacity="0"/>
</linearGradient>
<linearGradient id="paint31_linear_37265_57564" x1="1" y1="0" x2="1" y2="17" gradientUnits="userSpaceOnUse">
<stop stop-color="white"/>
<stop offset="0.0001" stop-color="#878787"/>
<stop offset="1" stop-color="#575757" stop-opacity="0"/>
</linearGradient>
<linearGradient id="paint32_linear_37265_57564" x1="1" y1="0" x2="1" y2="20" gradientUnits="userSpaceOnUse">
<stop stop-color="white"/>
<stop offset="0.0001" stop-color="#878787"/>
<stop offset="1" stop-color="#575757" stop-opacity="0"/>
</linearGradient>
<linearGradient id="paint33_linear_37265_57564" x1="1" y1="0" x2="1" y2="20" gradientUnits="userSpaceOnUse">
<stop stop-color="white"/>
<stop offset="0.0001" stop-color="#878787"/>
<stop offset="1" stop-color="#575757" stop-opacity="0"/>
</linearGradient>
<linearGradient id="paint34_linear_37265_57564" x1="1" y1="0" x2="1" y2="21" gradientUnits="userSpaceOnUse">
<stop stop-color="white"/>
<stop offset="0.0001" stop-color="#878787"/>
<stop offset="1" stop-color="#575757" stop-opacity="0"/>
</linearGradient>
<linearGradient id="paint35_linear_37265_57564" x1="1" y1="0" x2="1" y2="21" gradientUnits="userSpaceOnUse">
<stop stop-color="white"/>
<stop offset="0.0001" stop-color="#878787"/>
<stop offset="1" stop-color="#575757" stop-opacity="0"/>
</linearGradient>
<linearGradient id="paint36_linear_37265_57564" x1="1" y1="0" x2="1" y2="21" gradientUnits="userSpaceOnUse">
<stop stop-color="white"/>
<stop offset="0.0001" stop-color="#878787"/>
<stop offset="1" stop-color="#575757" stop-opacity="0"/>
</linearGradient>
<linearGradient id="paint37_linear_37265_57564" x1="1" y1="0" x2="1" y2="21" gradientUnits="userSpaceOnUse">
<stop stop-color="white"/>
<stop offset="0.0001" stop-color="#878787"/>
<stop offset="1" stop-color="#575757" stop-opacity="0"/>
</linearGradient>
<linearGradient id="paint38_linear_37265_57564" x1="1" y1="0" x2="1" y2="20" gradientUnits="userSpaceOnUse">
<stop stop-color="white"/>
<stop offset="0.0001" stop-color="#878787"/>
<stop offset="1" stop-color="#575757" stop-opacity="0"/>
</linearGradient>
<linearGradient id="paint39_linear_37265_57564" x1="1" y1="0" x2="1" y2="20" gradientUnits="userSpaceOnUse">
<stop stop-color="white"/>
<stop offset="0.0001" stop-color="#878787"/>
<stop offset="1" stop-color="#575757" stop-opacity="0"/>
</linearGradient>
<linearGradient id="paint40_linear_37265_57564" x1="1" y1="0" x2="1" y2="17" gradientUnits="userSpaceOnUse">
<stop stop-color="white"/>
<stop offset="0.0001" stop-color="#878787"/>
<stop offset="1" stop-color="#575757" stop-opacity="0"/>
</linearGradient>
<linearGradient id="paint41_linear_37265_57564" x1="1" y1="0" x2="1" y2="17" gradientUnits="userSpaceOnUse">
<stop stop-color="white"/>
<stop offset="0.0001" stop-color="#878787"/>
<stop offset="1" stop-color="#575757" stop-opacity="0"/>
</linearGradient>
<linearGradient id="paint42_linear_37265_57564" x1="1" y1="0" x2="1" y2="16" gradientUnits="userSpaceOnUse">
<stop stop-color="white"/>
<stop offset="0.0001" stop-color="#878787"/>
<stop offset="1" stop-color="#575757" stop-opacity="0"/>
</linearGradient>
<linearGradient id="paint43_linear_37265_57564" x1="1" y1="0" x2="1" y2="16" gradientUnits="userSpaceOnUse">
<stop stop-color="white"/>
<stop offset="0.0001" stop-color="#878787"/>
<stop offset="1" stop-color="#575757" stop-opacity="0"/>
</linearGradient>
<linearGradient id="paint44_linear_37265_57564" x1="1" y1="0" x2="1" y2="15" gradientUnits="userSpaceOnUse">
<stop stop-color="white"/>
<stop offset="0.0001" stop-color="#878787"/>
<stop offset="1" stop-color="#575757" stop-opacity="0"/>
</linearGradient>
<linearGradient id="paint45_linear_37265_57564" x1="1" y1="0" x2="1" y2="15" gradientUnits="userSpaceOnUse">
<stop stop-color="white"/>
<stop offset="0.0001" stop-color="#878787"/>
<stop offset="1" stop-color="#575757" stop-opacity="0"/>
</linearGradient>
<linearGradient id="paint46_linear_37265_57564" x1="1" y1="0" x2="1" y2="16" gradientUnits="userSpaceOnUse">
<stop stop-color="white"/>
<stop offset="0.0001" stop-color="#878787"/>
<stop offset="1" stop-color="#575757" stop-opacity="0"/>
</linearGradient>
<linearGradient id="paint47_linear_37265_57564" x1="1" y1="0" x2="1" y2="16" gradientUnits="userSpaceOnUse">
<stop stop-color="white"/>
<stop offset="0.0001" stop-color="#878787"/>
<stop offset="1" stop-color="#575757" stop-opacity="0"/>
</linearGradient>
<linearGradient id="paint48_linear_37265_57564" x1="1" y1="0" x2="1" y2="17" gradientUnits="userSpaceOnUse">
<stop stop-color="white"/>
<stop offset="0.0001" stop-color="#878787"/>
<stop offset="1" stop-color="#575757" stop-opacity="0"/>
</linearGradient>
<linearGradient id="paint49_linear_37265_57564" x1="1" y1="0" x2="1" y2="17" gradientUnits="userSpaceOnUse">
<stop stop-color="white"/>
<stop offset="0.0001" stop-color="#878787"/>
<stop offset="1" stop-color="#575757" stop-opacity="0"/>
</linearGradient>
<linearGradient id="paint50_linear_37265_57564" x1="1" y1="0" x2="1" y2="17" gradientUnits="userSpaceOnUse">
<stop stop-color="white"/>
<stop offset="0.0001" stop-color="#878787"/>
<stop offset="1" stop-color="#575757" stop-opacity="0"/>
</linearGradient>
<linearGradient id="paint51_linear_37265_57564" x1="1" y1="0" x2="1" y2="17" gradientUnits="userSpaceOnUse">
<stop stop-color="white"/>
<stop offset="0.0001" stop-color="#878787"/>
<stop offset="1" stop-color="#575757" stop-opacity="0"/>
</linearGradient>
<linearGradient id="paint52_linear_37265_57564" x1="1" y1="0" x2="1" y2="18" gradientUnits="userSpaceOnUse">
<stop stop-color="white"/>
<stop offset="0.0001" stop-color="#878787"/>
<stop offset="1" stop-color="#575757" stop-opacity="0"/>
</linearGradient>
<linearGradient id="paint53_linear_37265_57564" x1="1" y1="0" x2="1" y2="18" gradientUnits="userSpaceOnUse">
<stop stop-color="white"/>
<stop offset="0.0001" stop-color="#878787"/>
<stop offset="1" stop-color="#575757" stop-opacity="0"/>
</linearGradient>
<linearGradient id="paint54_linear_37265_57564" x1="1" y1="0" x2="1" y2="17" gradientUnits="userSpaceOnUse">
<stop stop-color="white"/>
<stop offset="0.0001" stop-color="#878787"/>
<stop offset="1" stop-color="#575757" stop-opacity="0"/>
</linearGradient>
<linearGradient id="paint55_linear_37265_57564" x1="1" y1="0" x2="1" y2="17" gradientUnits="userSpaceOnUse">
<stop stop-color="white"/>
<stop offset="0.0001" stop-color="#878787"/>
<stop offset="1" stop-color="#575757" stop-opacity="0"/>
</linearGradient>
<linearGradient id="paint56_linear_37265_57564" x1="1" y1="0" x2="1" y2="17" gradientUnits="userSpaceOnUse">
<stop stop-color="white"/>
<stop offset="0.0001" stop-color="#878787"/>
<stop offset="1" stop-color="#575757" stop-opacity="0"/>
</linearGradient>
<linearGradient id="paint57_linear_37265_57564" x1="1" y1="0" x2="1" y2="17" gradientUnits="userSpaceOnUse">
<stop stop-color="white"/>
<stop offset="0.0001" stop-color="#878787"/>
<stop offset="1" stop-color="#575757" stop-opacity="0"/>
</linearGradient>
<linearGradient id="paint58_linear_37265_57564" x1="1" y1="0" x2="1" y2="15" gradientUnits="userSpaceOnUse">
<stop stop-color="white"/>
<stop offset="0.0001" stop-color="#878787"/>
<stop offset="1" stop-color="#575757" stop-opacity="0"/>
</linearGradient>
<linearGradient id="paint59_linear_37265_57564" x1="1" y1="0" x2="1" y2="15" gradientUnits="userSpaceOnUse">
<stop stop-color="white"/>
<stop offset="0.0001" stop-color="#878787"/>
<stop offset="1" stop-color="#575757" stop-opacity="0"/>
</linearGradient>
<linearGradient id="paint60_linear_37265_57564" x1="1" y1="0" x2="1" y2="13" gradientUnits="userSpaceOnUse">
<stop stop-color="white"/>
<stop offset="0.0001" stop-color="#878787"/>
<stop offset="1" stop-color="#575757" stop-opacity="0"/>
</linearGradient>
<linearGradient id="paint61_linear_37265_57564" x1="1" y1="0" x2="1" y2="13" gradientUnits="userSpaceOnUse">
<stop stop-color="white"/>
<stop offset="0.0001" stop-color="#878787"/>
<stop offset="1" stop-color="#575757" stop-opacity="0"/>
</linearGradient>
<linearGradient id="paint62_linear_37265_57564" x1="1" y1="0" x2="1" y2="13" gradientUnits="userSpaceOnUse">
<stop stop-color="white"/>
<stop offset="0.0001" stop-color="#878787"/>
<stop offset="1" stop-color="#575757" stop-opacity="0"/>
</linearGradient>
<linearGradient id="paint63_linear_37265_57564" x1="1" y1="0" x2="1" y2="13" gradientUnits="userSpaceOnUse">
<stop stop-color="white"/>
<stop offset="0.0001" stop-color="#878787"/>
<stop offset="1" stop-color="#575757" stop-opacity="0"/>
</linearGradient>
<linearGradient id="paint64_linear_37265_57564" x1="127.5" y1="7.52455" x2="127.5" y2="87.999" gradientUnits="userSpaceOnUse">
<stop stop-color="#F53D26"/>
<stop offset="1" stop-color="#F53D26" stop-opacity="0"/>
</linearGradient>
<clipPath id="clip0_37265_57564">
<rect width="223" height="109" fill="white"/>
</clipPath>
</defs>
</svg>
