<svg width="178" height="47" viewBox="0 0 178 47" fill="none" xmlns="http://www.w3.org/2000/svg">
<g opacity="0.6">
<path fill-rule="evenodd" clip-rule="evenodd" d="M52.075 28.2669C51.3439 27.6745 50.7454 27.4958 50.2168 27.6621L50.2111 27.6639L50.2111 27.6638C49.5849 27.8526 48.8767 28.5081 48.0961 29.6136C47.3316 30.6963 46.5622 32.1147 45.7808 33.6783C45.361 34.5183 44.9374 35.4017 44.5105 36.2919C43.3671 38.6764 42.2002 41.11 41.0194 42.8906C40.6038 43.5427 40.0937 43.9814 39.4609 44.0023C38.8489 44.0224 38.3284 43.6402 37.9121 43.1895C37.0706 42.2787 36.2552 40.6438 35.482 39.0181C35.3647 38.7716 35.2481 38.5245 35.1321 38.2787C34.4627 36.8602 33.8123 35.4822 33.1678 34.4853C32.7871 33.8965 32.4438 33.4988 32.1448 33.2991C32.0015 33.2033 31.8905 33.1682 31.8069 33.1621C31.7303 33.1565 31.6431 33.1723 31.5331 33.2415L31.525 33.2466L31.525 33.2465C30.8164 33.6736 30.1123 34.2 29.3876 34.7418C29.3208 34.7917 29.2539 34.8418 29.1867 34.8919C28.4022 35.4775 27.591 36.0719 26.7706 36.5139C25.9494 36.9563 25.0779 37.2692 24.1698 37.2518C23.2458 37.2341 22.3417 36.8758 21.4648 36.0828L21.4569 36.0757L21.457 36.0756C21.1273 35.7645 20.8179 35.6049 20.529 35.5363C20.239 35.4675 19.9365 35.4825 19.6097 35.5707C18.9317 35.7538 18.2193 36.2284 17.4249 36.7982C17.3436 36.8565 17.2614 36.9159 17.1784 36.9758C16.4858 37.4759 15.7363 38.017 14.9831 38.3369C14.1111 38.7073 13.1535 38.8159 12.2047 38.2211C11.3359 37.6963 10.5033 36.8542 9.73605 35.9756C9.34847 35.5318 8.96964 35.0692 8.60544 34.6212C8.55761 34.5624 8.51006 34.5039 8.46278 34.4457C8.1482 34.0584 7.84577 33.6861 7.55281 33.342C6.85966 32.528 6.29021 31.9614 5.83776 31.7439C5.62896 31.6436 5.50724 31.6484 5.43028 31.6751C5.34687 31.7041 5.20478 31.7974 5.03773 32.0995L4.70524 32.7008C5.29282 33.19 5.66683 33.9269 5.66683 34.7512C5.66683 36.224 4.47292 37.4179 3.00016 37.4179C1.5274 37.4179 0.333496 36.224 0.333496 34.7512C0.333496 33.2785 1.5274 32.0846 3.00016 32.0846C3.29005 32.0846 3.56913 32.1308 3.83043 32.2163L4.1626 31.6156C4.39554 31.1943 4.69929 30.8703 5.10234 30.7304C5.51183 30.5883 5.9172 30.6726 6.2709 30.8426C6.94345 31.1658 7.64067 31.9027 8.31418 32.6937C8.61527 33.0473 8.92579 33.4296 9.23962 33.816C9.2868 33.874 9.33404 33.9322 9.38134 33.9904C9.74527 34.438 10.1144 34.8885 10.4893 35.3179C11.2458 36.1842 11.9952 36.9271 12.725 37.3671L12.7331 37.372L12.7331 37.3721C13.3162 37.7389 13.9071 37.7075 14.5922 37.4165C15.2347 37.1436 15.8876 36.6731 16.5992 36.1603C16.6794 36.1026 16.7603 36.0442 16.8421 35.9856C17.6143 35.4317 18.4686 34.843 19.349 34.6053C19.8013 34.4831 20.2759 34.4484 20.7599 34.5633C21.2434 34.6781 21.7035 34.9344 22.1393 35.3445C22.8609 35.9958 23.539 36.2395 24.1889 36.252C24.8557 36.2647 25.5509 36.0351 26.2964 35.6335C27.0426 35.2314 27.7981 34.6805 28.5886 34.0905C28.657 34.0395 28.7256 33.9881 28.7946 33.9366C29.5097 33.4018 30.2525 32.8463 31.0049 32.3924C31.277 32.2223 31.5727 32.1423 31.8798 32.1647C32.1814 32.1868 32.4566 32.3047 32.7003 32.4676C33.1753 32.7849 33.6091 33.3261 34.0075 33.9424C34.6918 35.0007 35.3764 36.4521 36.0427 37.8647C36.1574 38.1079 36.2715 38.3499 36.385 38.5886C37.1784 40.2567 37.9297 41.735 38.6466 42.5109C39.0094 42.9036 39.266 43.0081 39.428 43.0028C39.5678 42.9982 39.8277 42.901 40.1782 42.3498L40.1835 42.3416L40.1835 42.3416C41.3238 40.6231 42.4429 38.2893 43.5755 35.9274C44.0098 35.0218 44.446 34.112 44.8862 33.2312C45.6715 31.66 46.4687 30.1847 47.2792 29.0368C48.0728 27.9129 48.9471 27.0016 49.9197 26.7072C50.9235 26.3929 51.8739 26.8169 52.7045 27.4899C53.5399 28.1667 54.3594 29.1771 55.1541 30.2664C55.5867 30.8594 56.0364 31.5113 56.4825 32.1579C56.8417 32.6786 57.1985 33.1959 57.5422 33.6762C58.3378 34.7883 59.1116 35.7751 59.8689 36.4599L59.8767 36.467L59.8766 36.4671C61.2784 37.7897 62.6702 37.9971 64.0877 37.6698C65.5574 37.3305 67.052 36.4171 68.6006 35.4429L68.6086 35.4379L68.6087 35.4379C68.6706 35.4006 68.7326 35.3632 68.7946 35.3258C70.314 34.4088 71.8918 33.4566 73.4877 33.0881C75.206 32.6914 76.9419 32.9691 78.6688 34.5307L78.6767 34.5378L78.6766 34.5379C79.37 35.1921 80.0503 35.4801 80.7248 35.5761C81.4137 35.6742 82.1264 35.5767 82.892 35.407C83.1531 35.3491 83.4303 35.2799 83.7149 35.2089C84.2243 35.0819 84.7571 34.9489 85.2636 34.8643C86.0815 34.7276 86.9435 34.6908 87.8141 34.964C88.6967 35.2307 89.5464 35.783 90.3277 36.3158C90.4316 36.3867 90.5343 36.4572 90.636 36.527C91.3258 37.0007 91.9676 37.4414 92.6063 37.7304C93.3244 38.0554 93.9591 38.1503 94.5728 37.9112C95.2029 37.6656 95.92 37.0264 96.6939 35.6279C97.0946 34.873 97.5629 34.343 98.1476 34.1703C98.77 33.9864 99.3324 34.2564 99.7796 34.6394C100.227 35.023 100.65 35.5919 101.049 36.2241C101.451 36.8627 101.851 37.6015 102.243 38.3489C102.356 38.5653 102.469 38.7818 102.581 38.9969C103.256 40.2929 103.904 41.5382 104.545 42.3842C104.922 42.8829 105.243 43.1663 105.499 43.2702C105.614 43.317 105.705 43.3228 105.786 43.3056C105.869 43.2878 105.982 43.2363 106.124 43.103L106.131 43.0958L106.131 43.0958C107.794 41.5923 109.495 40.8081 111.212 40.6773C112.926 40.5468 114.597 41.0717 116.195 42.076C116.305 42.1414 116.391 42.153 116.468 42.143C116.555 42.1317 116.674 42.0864 116.826 41.971C117.141 41.7322 117.496 41.2761 117.882 40.6228C118.487 39.601 119.089 38.2439 119.706 36.8546C119.873 36.4777 120.041 36.0985 120.211 35.7229C120.604 34.8536 121.003 34.0085 121.406 33.2857C121.804 32.5713 122.228 31.9364 122.682 31.5171C123.137 31.0962 123.73 30.8044 124.385 31.0557C124.973 31.2811 125.442 31.8935 125.852 32.7583L125.855 32.7657L125.855 32.7657C126.603 34.4123 127.255 34.7373 127.724 34.7397C127.992 34.741 128.296 34.643 128.651 34.4469C129.005 34.251 129.37 33.9812 129.764 33.6808C129.807 33.6478 129.851 33.6144 129.895 33.5807C130.24 33.3165 130.607 33.0355 130.975 32.8038C131.39 32.5427 131.849 32.315 132.339 32.2417C132.848 32.1654 133.365 32.2606 133.86 32.5996C134.338 32.927 134.77 33.4631 135.173 34.2227C135.965 35.6536 136.734 36.8203 137.484 37.6528C138.243 38.4948 138.929 38.936 139.543 39.0306C140.119 39.1193 140.75 38.9182 141.462 38.1824C142.185 37.4352 142.947 36.1771 143.737 34.2727C144.125 33.2982 144.566 32.6155 145.13 32.3301C145.436 32.1755 145.757 32.1484 146.068 32.2321C146.364 32.3119 146.626 32.4852 146.855 32.6897C147.306 33.0942 147.729 33.718 148.124 34.3944C148.496 35.0315 148.867 35.7588 149.231 36.4704L149.312 36.6301C149.705 37.3995 150.088 38.1417 150.468 38.7625C150.855 39.3954 151.204 39.8431 151.51 40.0703C151.658 40.1794 151.763 40.2136 151.834 40.2189C151.893 40.2234 151.97 40.2115 152.08 40.1298C152.338 39.9394 152.683 39.4376 153.062 38.3642L153.064 38.3578C154.678 33.9809 156.285 31.7112 157.756 30.5433C158.736 29.7649 159.634 29.4941 160.372 29.4C160.587 28.1427 161.682 27.1857 163 27.1857C164.473 27.1857 165.667 28.3797 165.667 29.8524C165.667 31.3252 164.473 32.5191 163 32.5191C161.718 32.5191 160.646 31.6136 160.391 30.407C159.805 30.4971 159.13 30.7291 158.378 31.3264C157.116 32.3286 155.59 34.3987 154.004 38.7008C153.617 39.7958 153.191 40.5522 152.675 40.9338C152.399 41.1383 152.088 41.2409 151.759 41.2161C151.441 41.1922 151.157 41.0534 150.915 40.8737C150.442 40.5235 150.01 39.9307 149.615 39.2841C149.212 38.6254 148.812 37.8491 148.422 37.085L148.344 36.9323C147.977 36.2133 147.618 35.5103 147.261 34.8986C146.873 34.2352 146.515 33.7281 146.187 33.4345C146.026 33.2901 145.899 33.2225 145.807 33.1977C145.73 33.1768 145.663 33.1813 145.582 33.2224C145.372 33.3284 145.043 33.6927 144.665 34.6455L144.662 34.6524C143.853 36.6043 143.032 37.9977 142.18 38.8778C141.317 39.7696 140.381 40.1714 139.391 40.019C138.438 39.8724 137.558 39.2285 136.741 38.3222C135.917 37.4072 135.104 36.1638 134.296 34.7028L134.292 34.6949C133.929 34.0098 133.59 33.6266 133.295 33.4248C133.017 33.2341 132.756 33.1903 132.487 33.2307C132.197 33.2741 131.875 33.4187 131.508 33.6501C131.181 33.8557 130.853 34.1069 130.502 34.3751C130.458 34.4085 130.414 34.4421 130.37 34.4759C129.98 34.7732 129.562 35.086 129.134 35.3222C128.707 35.5583 128.229 35.7422 127.719 35.7396C126.63 35.7342 125.732 34.9098 124.947 33.1832C124.557 32.3626 124.231 32.0678 124.027 31.9894C123.889 31.9367 123.692 31.9448 123.36 32.2515C123.027 32.5598 122.665 33.0803 122.279 33.7727C121.898 34.4568 121.513 35.2701 121.122 36.1346C120.961 36.4911 120.799 36.8572 120.636 37.2257C120.016 38.6225 119.381 40.0546 118.743 41.1322C118.342 41.8093 117.907 42.4068 117.43 42.7682C117.186 42.953 116.907 43.0945 116.596 43.1347C116.276 43.1762 115.964 43.1043 115.675 42.9303L115.667 42.9254L115.667 42.9254C114.2 42.0025 112.739 41.5639 111.288 41.6744C109.84 41.7847 108.342 42.4463 106.806 43.8343C106.565 44.0606 106.295 44.2196 105.995 44.2836C105.69 44.3487 105.395 44.307 105.123 44.1969C104.605 43.9869 104.149 43.5183 103.747 42.9879C103.051 42.0681 102.356 40.7321 101.687 39.4453C101.576 39.2327 101.466 39.0214 101.357 38.8136C100.966 38.0684 100.582 37.3598 100.203 36.7573C99.8189 36.1484 99.4604 35.6826 99.1291 35.3989C98.7971 35.1145 98.5824 35.0846 98.4309 35.1293C98.2427 35.1849 97.9408 35.4106 97.5753 36.1003L97.5711 36.1081L97.5711 36.1081C96.7457 37.6007 95.8801 38.475 94.9359 38.8429C93.9745 39.2175 93.0426 39.0255 92.194 38.6415C91.4677 38.3128 90.7443 37.8154 90.0635 37.3472C89.9628 37.278 89.863 37.2093 89.7643 37.142C88.9714 36.6012 88.2388 36.1365 87.5225 35.9206L87.5168 35.9188C86.855 35.7106 86.1679 35.727 85.4284 35.8506C84.9527 35.9301 84.4984 36.044 84.0226 36.1633C83.7293 36.2369 83.4279 36.3125 83.1083 36.3833C82.3072 36.5608 81.4533 36.6899 80.5838 36.5661C79.7014 36.4405 78.8331 36.0591 77.9944 35.269C76.5227 33.9401 75.1264 33.7361 73.7126 34.0625C72.2758 34.3942 70.8204 35.2719 69.2421 36.2237L69.1331 36.2894C69.1317 36.2902 69.1304 36.2911 69.129 36.2919C67.6121 37.2461 65.9748 38.2604 64.3126 38.6442C62.5981 39.04 60.858 38.7658 59.1942 37.198C58.3528 36.4362 57.5279 35.3749 56.7289 34.2581C56.3555 33.7361 55.9964 33.2151 55.6409 32.6991C55.2107 32.0748 54.7855 31.4579 54.3462 30.8558C53.5576 29.7748 52.8021 28.856 52.075 28.2669Z" fill="url(#paint0_linear_37268_57815)"/>
<path opacity="0.7" d="M3 31L163 31" stroke="url(#paint1_linear_37268_57815)" stroke-dasharray="2 2"/>
</g>
<defs>
<linearGradient id="paint0_linear_37268_57815" x1="163" y1="35.3705" x2="3.00016" y2="35.3704" gradientUnits="userSpaceOnUse">
<stop stop-color="white" stop-opacity="0.8"/>
<stop offset="1" stop-color="white" stop-opacity="0"/>
</linearGradient>
<linearGradient id="paint1_linear_37268_57815" x1="3" y1="31.5" x2="163" y2="31.5003" gradientUnits="userSpaceOnUse">
<stop stop-color="white" stop-opacity="0"/>
<stop offset="1" stop-color="white"/>
</linearGradient>
</defs>
</svg>
