<svg width="178" height="48" viewBox="0 0 178 48" fill="none" xmlns="http://www.w3.org/2000/svg">
<g opacity="0.6">
<path fill-rule="evenodd" clip-rule="evenodd" d="M106.806 21.7662C105.323 23.1673 103.785 25.291 102.225 27.8111C100.668 30.3275 99.1084 33.2082 97.5753 36.1014L97.5711 36.1093L97.5711 36.1093C97.4623 36.3059 97.3536 36.5028 97.2449 36.6996C95.7627 39.3843 94.2832 42.0641 92.7974 44.008C91.9997 45.0516 91.1738 45.9195 90.313 46.4632C89.4406 47.0141 88.4988 47.2505 87.5225 46.9562L87.5168 46.9544C86.6106 46.6694 85.7591 45.9143 84.9672 44.9953C84.1643 44.0635 83.3654 42.8935 82.5809 41.6859C82.3052 41.2616 82.0321 40.8339 81.7604 40.4085C81.251 39.6109 80.7469 38.8215 80.2409 38.0777C79.467 36.9401 78.7183 35.9543 77.9942 35.2701C76.5226 33.9412 75.1264 33.7373 73.7126 34.0637C72.2758 34.3954 70.8204 35.2731 69.2421 36.2249L69.1331 36.2905C69.1317 36.2914 69.1304 36.2922 69.129 36.2931C67.6121 37.2473 65.9748 38.2616 64.3126 38.6453C62.5981 39.0412 60.858 38.767 59.1942 37.1992C58.3528 36.4374 57.5279 35.376 56.7289 34.2593C56.3555 33.7373 55.9964 33.2163 55.6409 32.7003C55.2107 32.076 54.7855 31.4591 54.3462 30.8569C53.5576 29.7759 52.8021 28.8572 52.075 28.268C51.3439 27.6757 50.7454 27.497 50.2168 27.6632L50.2111 27.665L50.2111 27.665C49.3612 27.9212 48.5274 28.0187 47.7387 28.0996C47.6632 28.1074 47.5882 28.115 47.5136 28.1225C46.7975 28.195 46.1234 28.2632 45.4502 28.4249C44.0144 28.7696 42.5527 29.5479 41.0194 31.8573C39.4369 34.3446 37.8046 35.6058 36.1706 36.486C35.4919 36.8517 34.8115 37.152 34.1542 37.4421C34.0323 37.4959 33.9111 37.5494 33.7909 37.6029C33.0154 37.9479 32.2678 38.2977 31.5331 38.7599L31.525 38.765L31.525 38.7649C30.8165 39.192 30.1123 39.7184 29.3877 40.2602C29.3209 40.3101 29.2539 40.3602 29.1867 40.4103C28.4022 40.9959 27.591 41.5903 26.7706 42.0323C25.9494 42.4747 25.0779 42.7876 24.1698 42.7702C23.2458 42.7525 22.3417 42.3942 21.4648 41.6012L21.4569 41.5941L21.457 41.594C20.033 40.2503 18.5867 39.8954 17.053 39.6452C16.8618 39.614 16.668 39.5844 16.4718 39.5545C15.1089 39.3466 13.6371 39.122 12.2045 38.2221C11.2979 37.6738 10.4547 36.5847 9.69234 35.4015C9.07636 34.4454 8.47811 33.3695 7.91848 32.3631C7.77554 32.1061 7.63513 31.8536 7.49758 31.6088C6.80522 30.3764 6.20357 29.374 5.69521 28.8492C5.42993 28.5754 5.28765 28.5365 5.2538 28.5357C5.2499 28.5356 5.24843 28.536 5.24657 28.5366C5.24425 28.5374 5.23469 28.5409 5.21779 28.5536C5.18096 28.5813 5.11674 28.6474 5.03773 28.7903L4.70524 29.3916C5.29282 29.8808 5.66683 30.6177 5.66683 31.442C5.66683 32.9148 4.47292 34.1087 3.00016 34.1087C1.5274 34.1087 0.333496 32.9148 0.333496 31.442C0.333496 29.9693 1.5274 28.7754 3.00016 28.7754C3.29005 28.7754 3.56913 28.8216 3.83043 28.9072L4.1626 28.3064C4.40088 27.8755 4.762 27.523 5.27881 27.536C5.73143 27.5473 6.11623 27.8466 6.41345 28.1534C7.03009 28.79 7.69511 29.9187 8.36941 31.1189C8.51192 31.3726 8.65575 31.6312 8.80087 31.8922C9.35899 32.8957 9.93642 33.9339 10.533 34.8599C11.2945 36.0418 12.0332 36.9512 12.725 37.3682L12.7331 37.3731L12.7331 37.3732C13.9792 38.1571 15.237 38.3513 16.6097 38.5632C16.8086 38.5939 17.01 38.6249 17.214 38.6582C18.8124 38.919 20.4979 39.3161 22.1393 40.8629C22.8609 41.5142 23.539 41.7579 24.1889 41.7704C24.8557 41.7831 25.5509 41.5535 26.2964 41.1519C27.0426 40.7499 27.7981 40.1989 28.5886 39.6089C28.657 39.5579 28.7256 39.5065 28.7946 39.455C29.5096 38.9203 30.2523 38.3648 31.0046 37.911C31.8019 37.4098 32.6029 37.0369 33.3844 36.6892C33.5098 36.6335 33.6344 36.5785 33.7583 36.5237C34.4157 36.2334 35.0552 35.9511 35.6964 35.6057C37.1948 34.7984 38.6949 33.6492 40.1782 31.3165L40.1835 31.3083L40.1835 31.3083C41.8492 28.7979 43.5201 27.8599 45.2168 27.4525C45.9596 27.2741 46.7015 27.1993 47.408 27.128C47.4846 27.1203 47.5609 27.1126 47.6366 27.1049C48.422 27.0243 49.1708 26.9338 49.92 26.7083C50.9236 26.3941 51.8739 26.8181 52.7045 27.4911C53.5399 28.1679 54.3594 29.1783 55.1541 30.2675C55.5867 30.8605 56.0364 31.5124 56.4825 32.1591C56.8417 32.6798 57.1985 33.197 57.5422 33.6774C58.3378 34.7895 59.1116 35.7763 59.8689 36.461L59.8767 36.4681L59.8766 36.4682C61.2784 37.7909 62.6702 37.9982 64.0877 37.671C65.5574 37.3316 67.052 36.4183 68.6006 35.4441L68.6086 35.439L68.6087 35.4391C68.6706 35.4018 68.7326 35.3644 68.7946 35.3269C70.314 34.41 71.8918 33.4577 73.4877 33.0893C75.206 32.6926 76.9419 32.9702 78.6688 34.5319L78.6767 34.539L78.6766 34.5391C79.4847 35.3016 80.2846 36.364 81.0677 37.5152C81.5812 38.2701 82.1001 39.0825 82.615 39.8887C82.8847 40.3109 83.1533 40.7315 83.4194 41.1411C84.2016 42.345 84.9694 43.4658 85.7248 44.3426C86.4901 45.2307 87.1876 45.8015 87.814 45.9996C88.4368 46.1864 89.0775 46.0607 89.779 45.6177C90.4931 45.1666 91.2339 44.4068 92.0029 43.4007C93.4413 41.5188 94.886 38.9026 96.3825 36.1927C96.486 36.0053 96.5897 35.8174 96.6937 35.6293C98.2266 32.7365 99.7994 29.8313 101.375 27.2849C102.948 24.7433 104.542 22.5279 106.124 21.0352L106.131 21.028L106.131 21.028C107.794 19.5245 109.495 18.7403 111.212 18.6095C112.927 18.479 114.597 19.004 116.196 20.0086C119.521 22.0149 122.639 25.9806 125.852 32.7595L125.855 32.7668L125.855 32.7669C126.603 34.4135 127.255 34.7385 127.724 34.7408C127.992 34.7422 128.296 34.6442 128.651 34.4481C129.005 34.2521 129.37 33.9824 129.764 33.682C129.807 33.649 129.851 33.6155 129.895 33.5818C130.24 33.3176 130.607 33.0367 130.975 32.805C131.39 32.5438 131.849 32.3162 132.339 32.2429C132.848 32.1666 133.365 32.2617 133.86 32.6008C134.338 32.9281 134.77 33.4643 135.173 34.2239C135.965 35.6548 136.734 36.8215 137.484 37.654C138.243 38.4959 138.929 38.9372 139.543 39.0318C140.119 39.1205 140.75 38.9194 141.462 38.1835C142.185 37.4364 142.947 36.1783 143.737 34.2739C144.125 33.2994 144.566 32.6166 145.13 32.3313C145.436 32.1767 145.757 32.1496 146.068 32.2333C146.364 32.3131 146.626 32.4863 146.855 32.6909C147.306 33.0954 147.729 33.7192 148.124 34.3955C148.496 35.0327 148.867 35.7599 149.231 36.4715L149.312 36.6312C149.705 37.4007 150.088 38.1429 150.468 38.7637C150.855 39.3966 151.204 39.8443 151.51 40.0715C151.658 40.1806 151.763 40.2148 151.834 40.2201C151.893 40.2245 151.97 40.2127 152.08 40.131C152.338 39.9406 152.683 39.4388 153.062 38.3654L153.064 38.359C154.678 33.9821 156.285 31.7123 157.756 30.5444C158.736 29.7661 159.634 29.4953 160.372 29.4011C160.587 28.1439 161.682 27.1869 163 27.1869C164.473 27.1869 165.667 28.3808 165.667 29.8536C165.667 31.3263 164.473 32.5202 163 32.5202C161.718 32.5202 160.646 31.6147 160.391 30.4081C159.805 30.4983 159.13 30.7303 158.378 31.3276C157.116 32.3298 155.59 34.3998 154.004 38.702C153.617 39.797 153.191 40.5533 152.675 40.935C152.399 41.1395 152.088 41.2421 151.759 41.2173C151.441 41.1933 151.157 41.0546 150.915 40.8749C150.442 40.5247 150.01 39.9318 149.615 39.2853C149.212 38.6266 148.812 37.8503 148.422 37.0861L148.344 36.9334C147.977 36.2145 147.618 35.5115 147.261 34.8998C146.873 34.2364 146.515 33.7293 146.187 33.4357C146.026 33.2913 145.899 33.2237 145.807 33.1989C145.73 33.178 145.663 33.1825 145.582 33.2236C145.372 33.3295 145.043 33.6939 144.665 34.6467L144.662 34.6535C143.853 36.6055 143.032 37.9989 142.18 38.8789C141.317 39.7708 140.381 40.1725 139.391 40.0201C138.438 39.8735 137.558 39.2297 136.741 38.3233C135.917 37.4083 135.104 36.165 134.296 34.7039L134.292 34.6961C133.929 34.011 133.59 33.6278 133.295 33.426C133.017 33.2352 132.756 33.1915 132.487 33.2319C132.197 33.2753 131.875 33.4199 131.508 33.6512C131.181 33.8568 130.853 34.1081 130.502 34.3763C130.458 34.4096 130.414 34.4432 130.37 34.477C129.98 34.7744 129.562 35.0872 129.134 35.3234C128.707 35.5595 128.229 35.7434 127.719 35.7408C126.63 35.7354 125.732 34.911 124.947 33.1843C121.761 26.4642 118.748 22.7149 115.675 20.8626L115.667 20.8576L115.667 20.8576C114.2 19.9347 112.739 19.4961 111.288 19.6066C109.84 19.7169 108.342 20.3785 106.806 21.7662Z" fill="url(#paint0_linear_37268_57797)"/>
<path opacity="0.7" d="M3 31L163 31" stroke="url(#paint1_linear_37268_57797)" stroke-dasharray="2 2"/>
</g>
<defs>
<linearGradient id="paint0_linear_37268_57797" x1="163" y1="32.692" x2="3.00016" y2="32.692" gradientUnits="userSpaceOnUse">
<stop stop-color="white" stop-opacity="0.8"/>
<stop offset="1" stop-color="white" stop-opacity="0"/>
</linearGradient>
<linearGradient id="paint1_linear_37268_57797" x1="3" y1="31.5" x2="163" y2="31.5003" gradientUnits="userSpaceOnUse">
<stop stop-color="white" stop-opacity="0"/>
<stop offset="1" stop-color="white"/>
</linearGradient>
</defs>
</svg>
