<svg width="178" height="47" viewBox="0 0 178 47" fill="none" xmlns="http://www.w3.org/2000/svg">
<g opacity="0.6">
<path fill-rule="evenodd" clip-rule="evenodd" d="M106.806 21.7662C105.322 23.1673 103.785 25.2909 102.225 27.8109C100.668 30.3274 99.1084 33.208 97.5753 36.1013L97.5711 36.1091L97.5711 36.1091C95.9448 39.0503 94.3081 40.673 92.5969 41.4053C90.8754 42.1419 89.1738 41.9366 87.5225 41.4388L87.5168 41.4371C84.3493 40.4408 81.086 38.1866 77.9943 35.27C76.5227 33.9411 75.1264 33.7371 73.7126 34.0635C72.2758 34.3953 70.8204 35.273 69.2421 36.2248L69.1331 36.2904C69.1317 36.2912 69.1304 36.2921 69.129 36.2929C67.6121 37.2471 65.9748 38.2614 64.3126 38.6452C62.5981 39.041 60.858 38.7668 59.1942 37.1991C58.3528 36.4372 57.5279 35.3759 56.7289 34.2591C56.3555 33.7371 55.9964 33.2161 55.6409 32.7002C55.2107 32.0758 54.7855 31.4589 54.3462 30.8568C53.5576 29.7758 52.8021 28.857 52.075 28.2679C51.3439 27.6755 50.7454 27.4968 50.2168 27.6631L50.2111 27.6649L50.2111 27.6648C49.5849 27.8536 48.8767 28.5091 48.0961 29.6146C47.3316 30.6973 46.5622 32.1157 45.7808 33.6793C45.361 34.5193 44.9374 35.4027 44.5105 36.2929C43.3671 38.6774 42.2002 41.111 41.0194 42.8916C40.6038 43.5437 40.0937 43.9825 39.4609 44.0033C38.8489 44.0234 38.3284 43.6412 37.9121 43.1905C37.0706 42.2797 36.2552 40.6449 35.482 39.0191C35.3647 38.7726 35.2481 38.5256 35.1321 38.2797C34.4627 36.8613 33.8123 35.4833 33.1678 34.4864C32.7871 33.8975 32.4438 33.4998 32.1448 33.3001C32.0015 33.2043 31.8905 33.1692 31.8069 33.1631C31.7303 33.1575 31.6431 33.1733 31.5331 33.2425L31.525 33.2476L31.525 33.2475C30.8164 33.6746 30.1123 34.201 29.3876 34.7428C29.3208 34.7927 29.2539 34.8428 29.1867 34.8929C28.4022 35.4785 27.591 36.0729 26.7706 36.5149C25.9494 36.9573 25.0779 37.2702 24.1698 37.2528C23.2458 37.2351 22.3417 36.8768 21.4648 36.0838L21.4569 36.0767L21.457 36.0766C21.1273 35.7655 20.8179 35.6059 20.529 35.5373C20.239 35.4685 19.9365 35.4835 19.6097 35.5717C18.9317 35.7548 18.2193 36.2294 17.4249 36.7992C17.3436 36.8575 17.2614 36.9169 17.1784 36.9768C16.4858 37.4769 15.7363 38.018 14.9831 38.3379C14.1111 38.7083 13.1535 38.8169 12.2047 38.2221C11.2924 37.6703 10.4483 36.5399 9.6872 35.3069C9.05161 34.2773 8.43564 33.1096 7.86052 32.0193C7.73569 31.7827 7.61278 31.5497 7.49201 31.3226C6.80018 30.0213 6.19523 28.9464 5.68074 28.368C5.41028 28.0639 5.26006 28.0092 5.22316 28.0058C5.22063 28.007 5.2157 28.0096 5.20828 28.0149C5.17794 28.0366 5.11632 28.0963 5.03773 28.2384L4.70524 28.8398C5.29282 29.3289 5.66683 30.0659 5.66683 30.8902C5.66683 32.3629 4.47292 33.5568 3.00016 33.5568C1.5274 33.5568 0.333496 32.3629 0.333496 30.8902C0.333496 29.4174 1.5274 28.2235 3.00016 28.2235C3.29005 28.2235 3.56913 28.2698 3.83043 28.3553L4.1626 27.7546C4.40225 27.3211 4.77572 26.9631 5.30967 27.0095C5.75957 27.0487 6.13638 27.3756 6.42792 27.7033C7.03843 28.3897 7.70014 29.5838 8.37498 30.8531C8.49927 31.0869 8.62463 31.3245 8.75103 31.5641C9.32581 32.6535 9.92213 33.7838 10.5381 34.7817C11.3009 36.0174 12.0388 36.9544 12.725 37.3681L12.7331 37.373L12.7331 37.3731C13.3162 37.7399 13.9071 37.7085 14.5922 37.4175C15.2347 37.1446 15.8876 36.6741 16.5992 36.1614C16.6794 36.1036 16.7603 36.0453 16.8421 35.9866C17.6143 35.4328 18.4686 34.844 19.349 34.6063C19.8013 34.4842 20.2759 34.4494 20.7599 34.5643C21.2434 34.6791 21.7035 34.9354 22.1393 35.3455C22.8609 35.9968 23.539 36.2406 24.1889 36.253C24.8557 36.2658 25.5509 36.0361 26.2964 35.6345C27.0426 35.2325 27.7981 34.6815 28.5886 34.0915C28.657 34.0405 28.7257 33.9891 28.7946 33.9376C29.5097 33.4028 30.2526 32.8473 31.0049 32.3934C31.277 32.2233 31.5727 32.1433 31.8798 32.1658C32.1814 32.1878 32.4566 32.3058 32.7003 32.4686C33.1753 32.7859 33.6091 33.3271 34.0075 33.9434C34.6918 35.0017 35.3764 36.4531 36.0427 37.8657C36.1574 38.1089 36.2715 38.3509 36.385 38.5896C37.1784 40.2577 37.9297 41.736 38.6466 42.5119C39.0094 42.9046 39.266 43.0092 39.428 43.0038C39.5678 42.9992 39.8277 42.902 40.1782 42.3508L40.1835 42.3426L40.1835 42.3427C41.3238 40.6241 42.4429 38.2903 43.5755 35.9284C44.0098 35.0228 44.446 34.113 44.8862 33.2322C45.6715 31.661 46.4687 30.1857 47.2792 29.0378C48.0728 27.9139 48.9471 27.0027 49.9197 26.7082C50.9234 26.3939 51.8739 26.8179 52.7045 27.4909C53.5399 28.1678 54.3594 29.1781 55.1541 30.2674C55.5867 30.8604 56.0364 31.5123 56.4825 32.1589C56.8417 32.6796 57.1985 33.1969 57.5422 33.6773C58.3378 34.7893 59.1116 35.7761 59.8689 36.4609L59.8767 36.468L59.8766 36.4681C61.2784 37.7907 62.6702 37.9981 64.0877 37.6708C65.5574 37.3315 67.052 36.4181 68.6006 35.4439L68.6086 35.4389L68.6087 35.439C68.6706 35.4017 68.7326 35.3642 68.7946 35.3268C70.314 34.4098 71.8918 33.4576 73.4877 33.0891C75.206 32.6924 76.9419 32.9701 78.6688 34.5317L78.6767 34.5389L78.6766 34.5389C81.7161 37.407 84.8503 39.5493 87.814 40.4822C89.3616 40.9484 90.7925 41.0897 92.2035 40.4859C93.6249 39.8777 95.1208 38.4727 96.6937 35.6292C98.2267 32.7363 99.7994 29.8311 101.375 27.2847C102.948 24.7431 104.542 22.5278 106.124 21.0351L106.131 21.0278L106.131 21.0279C106.611 20.5944 107.14 20.3826 107.702 20.4228C108.245 20.4616 108.741 20.7305 109.183 21.0943C110.055 21.8136 110.89 23.0534 111.679 24.3679C112.033 24.9582 112.387 25.5783 112.736 26.1907C112.78 26.2686 112.824 26.3464 112.869 26.424C113.262 27.1142 113.65 27.7895 114.036 28.4111C114.821 29.6783 115.541 30.629 116.196 31.0429C116.813 31.4132 117.428 31.3666 118.137 31.1001C118.498 30.9644 118.866 30.7775 119.257 30.5704C119.321 30.5369 119.385 30.5028 119.449 30.4683C119.776 30.2945 120.119 30.1118 120.461 29.957C121.279 29.5869 122.222 29.3131 123.203 29.6953C124.169 30.0718 125.033 31.0312 125.852 32.7593L125.855 32.7667L125.855 32.7667C126.603 34.4134 127.255 34.7383 127.724 34.7407C127.992 34.742 128.296 34.644 128.651 34.448C129.005 34.252 129.37 33.9822 129.764 33.6819C129.807 33.6488 129.851 33.6154 129.895 33.5817C130.24 33.3175 130.607 33.0365 130.975 32.8048C131.39 32.5437 131.849 32.316 132.339 32.2427C132.848 32.1665 133.365 32.2616 133.86 32.6006C134.338 32.928 134.77 33.4641 135.173 34.2237C135.965 35.6546 136.734 36.8213 137.484 37.6539C138.243 38.4958 138.929 38.937 139.543 39.0316C140.119 39.1203 140.75 38.9193 141.462 38.1834C142.185 37.4362 142.947 36.1781 143.737 34.2737C144.125 33.2992 144.566 32.6165 145.13 32.3312C145.436 32.1765 145.757 32.1494 146.068 32.2331C146.364 32.313 146.626 32.4862 146.855 32.6907C147.306 33.0952 147.729 33.719 148.124 34.3954C148.496 35.0325 148.867 35.7598 149.231 36.4714L149.312 36.6311C149.705 37.4005 150.088 38.1428 150.468 38.7635C150.855 39.3965 151.204 39.8441 151.51 40.0714C151.658 40.1804 151.763 40.2147 151.834 40.22C151.893 40.2244 151.97 40.2126 152.08 40.1308C152.338 39.9405 152.683 39.4386 153.062 38.3652L153.064 38.3589C154.678 33.9819 156.285 31.7122 157.756 30.5443C158.736 29.7659 159.634 29.4952 160.372 29.401C160.587 28.1437 161.682 27.1868 163 27.1868C164.473 27.1868 165.667 28.3807 165.667 29.8534C165.667 31.3262 164.473 32.5201 163 32.5201C161.718 32.5201 160.646 31.6146 160.391 30.408C159.805 30.4981 159.13 30.7301 158.378 31.3275C157.116 32.3296 155.59 34.3997 154.004 38.7019C153.617 39.7969 153.191 40.5532 152.675 40.9348C152.399 41.1393 152.088 41.242 151.759 41.2171C151.441 41.1932 151.157 41.0544 150.915 40.8747C150.442 40.5245 150.01 39.9317 149.615 39.2851C149.212 38.6264 148.812 37.8501 148.422 37.086L148.344 36.9333C147.977 36.2143 147.618 35.5113 147.261 34.8996C146.873 34.2362 146.515 33.7291 146.187 33.4356C146.026 33.2911 145.899 33.2235 145.807 33.1987C145.73 33.1778 145.663 33.1823 145.582 33.2235C145.372 33.3294 145.043 33.6937 144.665 34.6465L144.662 34.6534C143.853 36.6053 143.032 37.9987 142.18 38.8788C141.317 39.7706 140.381 40.1724 139.391 40.02C138.438 39.8734 137.558 39.2295 136.741 38.3232C135.917 37.4082 135.104 36.1649 134.296 34.7038L134.292 34.696C133.929 34.0109 133.59 33.6277 133.295 33.4258C133.017 33.2351 132.756 33.1913 132.487 33.2317C132.197 33.2751 131.875 33.4197 131.508 33.6511C131.181 33.8567 130.853 34.1079 130.502 34.3762C130.458 34.4095 130.414 34.4431 130.37 34.4769C129.98 34.7742 129.562 35.087 129.134 35.3232C128.707 35.5594 128.229 35.7432 127.719 35.7407C126.63 35.7352 125.732 34.9108 124.947 33.1841C124.166 31.5388 123.448 30.8641 122.839 30.6271C122.245 30.3955 121.622 30.5293 120.873 30.8681C120.563 31.0083 120.254 31.1729 119.928 31.3466C119.861 31.3821 119.794 31.418 119.725 31.4542C119.332 31.6622 118.915 31.876 118.489 32.0362C117.624 32.3612 116.657 32.4885 115.675 31.8969L115.667 31.892L115.667 31.8919C114.79 31.3398 113.961 30.1892 113.186 28.9379C112.79 28.2989 112.393 27.609 112 26.9195C111.955 26.8415 111.911 26.7635 111.867 26.6856C111.517 26.072 111.17 25.4624 110.821 24.8825C110.027 23.5589 109.27 22.4621 108.547 21.8659C108.19 21.572 107.887 21.4386 107.631 21.4202C107.395 21.4034 107.125 21.4791 106.806 21.7662Z" fill="url(#paint0_linear_37268_57867)"/>
<path opacity="0.7" d="M3 31L163 31" stroke="url(#paint1_linear_37268_57867)" stroke-dasharray="2 2"/>
</g>
<defs>
<linearGradient id="paint0_linear_37268_57867" x1="163" y1="32.0922" x2="3.00016" y2="32.0922" gradientUnits="userSpaceOnUse">
<stop stop-color="white" stop-opacity="0.8"/>
<stop offset="1" stop-color="white" stop-opacity="0"/>
</linearGradient>
<linearGradient id="paint1_linear_37268_57867" x1="3" y1="31.5" x2="163" y2="31.5003" gradientUnits="userSpaceOnUse">
<stop stop-color="white" stop-opacity="0"/>
<stop offset="1" stop-color="white"/>
</linearGradient>
</defs>
</svg>
