<svg width="178" height="47" viewBox="0 0 178 47" fill="none" xmlns="http://www.w3.org/2000/svg">
<g opacity="0.6">
<path fill-rule="evenodd" clip-rule="evenodd" d="M10.9597 21.3484C11.2565 21.59 11.6149 22.0972 12.0043 23.0235C12.786 24.9648 13.5865 26.2599 14.4088 27.2128C15.2323 28.167 16.0604 28.757 16.8517 29.296C16.9158 29.3397 16.9796 29.383 17.0431 29.4261C17.7651 29.9162 18.4435 30.3767 19.1214 31.0702C19.8537 31.8193 20.5978 32.8553 21.3443 34.5041L21.3477 34.5114C22.1603 36.2311 22.9858 37.462 23.8431 38.2396C24.7132 39.0288 25.6383 39.3677 26.6001 39.2378C27.5352 39.1114 28.413 38.5532 29.2362 37.7512C30.064 36.9448 30.8799 35.8496 31.6895 34.5643L31.6945 34.5563C32.0522 33.9638 32.3856 33.6317 32.6797 33.455C32.9624 33.2852 33.2358 33.2423 33.5222 33.2799C33.8228 33.3194 34.1501 33.4498 34.5169 33.6525C34.8439 33.8332 35.1726 34.0538 35.5231 34.2891C35.5667 34.3184 35.6106 34.3479 35.655 34.3776C36.0451 34.6388 36.4632 34.9129 36.8895 35.1196C37.3165 35.3267 37.7857 35.4835 38.2812 35.4814C39.3354 35.4767 40.2414 34.7703 41.0419 33.2252C41.8146 31.7955 42.5411 31.102 43.1981 30.7816C43.8464 30.4656 44.5037 30.475 45.2342 30.6226C45.5866 30.6938 45.9415 30.7938 46.3187 30.9002L46.373 30.9156C46.7632 31.0255 47.177 31.1407 47.5967 31.2181C48.446 31.3746 49.3644 31.3851 50.3003 30.8899L50.3082 30.8857C51.0884 30.455 51.871 29.8916 52.6296 29.3456L52.6815 29.3082C53.4675 28.7425 54.2298 28.197 54.9894 27.7823C55.7488 27.3677 56.4666 27.1063 57.156 27.0777C57.8272 27.0498 58.5093 27.2405 59.2184 27.802C60.01 28.4571 60.8064 28.9776 61.5905 29.4639C61.7921 29.589 61.9918 29.7111 62.1901 29.8324C62.7718 30.1882 63.3421 30.5371 63.9166 30.932C65.4339 31.9751 66.9473 33.3198 68.4385 35.7896L68.4434 35.7978C68.5523 35.9707 68.6613 36.1437 68.7702 36.3169C70.2516 38.6719 71.7339 41.0282 73.2228 42.7379C74.0234 43.6572 74.8513 44.4202 75.7116 44.8971C76.5817 45.3794 77.5064 45.5793 78.4611 45.3268L78.4662 45.3254C79.3627 45.0779 80.2139 44.4181 81.0108 43.6064C81.816 42.7862 82.6168 41.7568 83.4017 40.6964C83.678 40.3232 83.9515 39.9473 84.2233 39.5738C84.7322 38.8743 85.2354 38.1828 85.7409 37.5306C86.5135 36.5337 87.2599 35.6715 87.9815 35.073C89.4529 33.9069 90.8647 33.7197 92.3005 34.0107C93.7443 34.3032 95.2036 35.0756 96.7777 35.9088L96.8915 35.9689C96.8928 35.9697 96.8941 35.9704 96.8954 35.9711C98.4148 36.8099 100.047 37.6968 101.701 38.0318C103.393 38.3747 105.117 38.1426 106.781 36.7662C107.625 36.0957 108.452 35.1617 109.252 34.1805C109.627 33.72 109.986 33.2626 110.342 32.81C110.771 32.2633 111.195 31.7238 111.634 31.1948C112.422 30.2476 113.175 29.4438 113.9 28.9281C114.625 28.4124 115.242 28.2401 115.8 28.3941L115.805 28.3955C116.443 28.5642 117.149 29.1421 117.923 30.1039C118.684 31.0501 119.451 32.291 120.232 33.6622C120.65 34.3964 121.073 35.1698 121.499 35.95C122.643 38.0442 123.814 40.1876 124.998 41.7546C125.822 42.8908 126.707 43.4373 127.654 43.5642C128.572 43.6872 129.46 43.4012 130.255 43.0769C130.52 42.969 130.772 42.8587 131.015 42.7519C131.544 42.5198 132.036 42.3041 132.544 42.1652C133.249 41.9724 133.878 41.965 134.492 42.3036L134.499 42.3079C135.208 42.683 135.913 43.1452 136.637 43.6205C136.704 43.6644 136.771 43.7083 136.838 43.7523C137.623 44.2666 138.434 44.7878 139.253 45.175C140.073 45.563 140.936 45.8331 141.829 45.8181C142.735 45.8029 143.631 45.4953 144.511 44.7972L144.519 44.7907C145.162 44.258 145.807 43.7111 146.452 43.1643C148.917 41.0743 151.384 38.9826 153.771 37.6641C154.678 37.1825 155.525 36.2202 156.291 35.1738C156.91 34.3274 157.511 33.374 158.073 32.4847C158.214 32.2608 158.352 32.0409 158.488 31.8279C159.181 30.7408 159.779 29.8626 160.283 29.4028C160.54 29.1677 160.69 29.1218 160.747 29.1203C160.747 29.1203 160.747 29.1203 160.747 29.1203C160.753 29.1196 160.821 29.1118 160.94 29.2805L161.798 32.2744C160.929 32.714 160.333 33.6151 160.333 34.6555C160.333 36.1282 161.527 37.3221 163 37.3221C164.473 37.3221 165.667 36.1282 165.667 34.6555C165.667 33.1827 164.473 31.9888 163 31.9888C162.919 31.9888 162.839 31.9924 162.759 31.9995L161.861 28.8625L161.823 28.8021C161.569 28.3991 161.204 28.1079 160.721 28.1207C160.291 28.132 159.913 28.386 159.609 28.6641C158.988 29.2308 158.319 30.2328 157.645 31.2905C157.503 31.5123 157.361 31.7382 157.217 31.966C156.658 32.8526 156.08 33.7677 155.484 34.5834C154.725 35.6202 153.991 36.4167 153.299 36.7824L153.291 36.7866C150.807 38.1583 148.235 40.34 145.76 42.4388C145.128 42.9752 144.502 43.5063 143.885 44.017C143.166 44.5864 142.48 44.8071 141.812 44.8183C141.131 44.8297 140.426 44.6237 139.68 44.271C138.933 43.9174 138.176 43.4334 137.386 42.9158C137.318 42.8711 137.249 42.826 137.18 42.7808C136.465 42.3114 135.723 41.824 134.971 41.4259C134.052 40.9202 133.132 40.9677 132.28 41.2006C131.699 41.3595 131.096 41.6235 130.535 41.8693C130.308 41.9689 130.087 42.0654 129.878 42.1509C129.107 42.4651 128.428 42.659 127.787 42.5731C127.177 42.4912 126.513 42.1413 125.805 41.1638L125.799 41.1556C124.662 39.6515 123.547 37.611 122.415 35.5399C121.98 34.744 121.543 33.9436 121.101 33.1674C120.315 31.7873 119.516 30.4885 118.702 29.4771C117.901 28.4821 117.025 27.6849 116.064 27.4295C115.089 27.1616 114.157 27.5183 113.32 28.1132C112.483 28.7086 111.661 29.5979 110.865 30.5555C110.433 31.0754 109.982 31.6496 109.535 32.2184C109.175 32.6756 108.819 33.1293 108.477 33.5486C107.682 34.5235 106.911 35.387 106.156 35.9861L106.148 35.9926C104.746 37.153 103.339 37.3435 101.899 37.0518C100.421 36.7522 98.921 35.9471 97.3748 35.0935L97.3671 35.0892C97.3062 35.057 97.2453 35.0248 97.1843 34.9926C95.6617 34.1861 94.0879 33.3525 92.4991 33.0306C90.803 32.6869 89.0827 32.9223 87.3557 34.293L87.3475 34.2995C86.5369 34.9708 85.7347 35.9062 84.9505 36.918C84.4365 37.5812 83.9166 38.2956 83.4014 39.0036C83.1318 39.3741 82.8635 39.7428 82.598 40.1015C81.8163 41.1575 81.0503 42.1387 80.2972 42.9058C79.5368 43.6804 78.8388 44.1843 78.2025 44.3608C77.5581 44.5304 76.9004 44.4127 76.1964 44.0225C75.4817 43.6263 74.743 42.9608 73.9769 42.0812C72.5416 40.4331 71.0996 38.1412 69.6023 35.7615C69.4991 35.5976 69.3957 35.4332 69.292 35.2686C67.7173 32.6617 66.0983 31.2184 64.4831 30.1079C63.8846 29.6965 63.282 29.3279 62.6945 28.9686C62.5003 28.8498 62.3077 28.7321 62.1175 28.6141C61.3446 28.1347 60.5924 27.6415 59.8521 27.0284L59.8441 27.0217C58.9545 26.3158 58.0379 26.0401 57.1145 26.0785C56.2081 26.1162 55.3342 26.4547 54.5102 26.9046C53.6866 27.3542 52.8738 27.9377 52.0974 28.4966L52.0712 28.5154C51.2944 29.0745 50.5548 29.6068 49.8289 30.008C49.1661 30.3574 48.5024 30.3681 47.778 30.2346C47.4101 30.1668 47.0386 30.0642 46.6444 29.9531L46.5793 29.9347C46.2116 29.831 45.823 29.7213 45.4322 29.6424C44.596 29.4734 43.6867 29.4309 42.7599 29.8828C41.8425 30.3301 40.9864 31.2234 40.1599 32.754L40.1557 32.7617C39.4234 34.1768 38.78 34.4792 38.2768 34.4814C37.9931 34.4826 37.6811 34.3921 37.3258 34.2198C36.9698 34.0472 36.6046 33.81 36.2114 33.5467C36.1681 33.5177 36.1244 33.4884 36.0804 33.4588C35.7351 33.2268 35.3682 32.9804 35.0005 32.7772C34.585 32.5477 34.1311 32.3514 33.6525 32.2885C33.1597 32.2237 32.656 32.3027 32.1647 32.5978C31.6859 32.8855 31.2493 33.36 30.841 34.0351C30.0516 35.2879 29.2849 36.3076 28.5384 37.0349C27.7866 37.7673 27.0978 38.1614 26.4662 38.2468C25.8613 38.3285 25.2198 38.1383 24.5149 37.4989C23.7977 36.8484 23.0404 35.7523 22.2535 34.0877C21.4673 32.3524 20.662 31.2156 19.8365 30.3712C19.0852 29.6026 18.3274 29.0887 17.612 28.6036C17.5459 28.5587 17.4801 28.5141 17.4147 28.4696C16.6393 27.9413 15.9007 27.411 15.1659 26.5595C14.4304 25.7072 13.6814 24.5121 12.9303 22.6461L12.9275 22.6392C12.5173 21.6627 12.0804 20.9713 11.591 20.5729C11.3393 20.3679 11.0631 20.232 10.7646 20.1865C10.4645 20.1409 10.1771 20.1921 9.9133 20.3066C9.40614 20.5266 8.96712 20.9883 8.58763 21.5141C8.19968 22.0516 7.83116 22.7175 7.48424 23.425C7.02296 24.3657 6.57854 25.4266 6.17039 26.401C5.976 26.865 5.78983 27.3095 5.614 27.7119C5.36853 26.4926 4.29141 25.5744 2.99983 25.5744C1.52707 25.5744 0.33316 26.7683 0.33316 28.2411C0.33316 29.7138 1.52707 30.9077 2.99983 30.9077C3.46643 30.9077 3.90506 30.7879 4.28658 30.5773L4.36482 30.6717H4.59984C4.89458 30.6717 5.12048 30.5044 5.26465 30.3647C5.41885 30.2152 5.56068 30.0184 5.69148 29.8065C5.95464 29.3801 6.23004 28.7975 6.51193 28.1543C6.70665 27.7101 6.90588 27.2343 7.11052 26.7455C7.51144 25.788 7.93309 24.781 8.3821 23.8653C8.71851 23.1792 9.05833 22.5706 9.3985 22.0993C9.74715 21.6162 10.056 21.3347 10.3114 21.2239C10.4288 21.1729 10.5263 21.1618 10.6141 21.1752C10.7035 21.1888 10.8182 21.2332 10.9597 21.3484Z" fill="url(#paint0_linear_37268_57781)"/>
<path opacity="0.7" d="M3 31L163 31" stroke="url(#paint1_linear_37268_57781)" stroke-dasharray="2 2"/>
</g>
<defs>
<linearGradient id="paint0_linear_37268_57781" x1="2.99984" y1="32.8647" x2="163" y2="32.8647" gradientUnits="userSpaceOnUse">
<stop stop-color="#F53D26" stop-opacity="0"/>
<stop offset="1" stop-color="#F53D26"/>
</linearGradient>
<linearGradient id="paint1_linear_37268_57781" x1="3" y1="31.5" x2="163" y2="31.5003" gradientUnits="userSpaceOnUse">
<stop stop-color="white" stop-opacity="0"/>
<stop offset="1" stop-color="white"/>
</linearGradient>
</defs>
</svg>
