<svg width="222" height="109" viewBox="0 0 222 109" fill="none" xmlns="http://www.w3.org/2000/svg">
<g clip-path="url(#clip0_37264_58480)">
<g opacity="0.25">
<rect x="31" y="96" width="2" height="11" fill="url(#paint0_linear_37264_58480)"/>
<rect x="34" y="96" width="2" height="11" fill="url(#paint1_linear_37264_58480)"/>
<rect x="37" y="93" width="2" height="14" fill="url(#paint2_linear_37264_58480)"/>
<rect x="40" y="93" width="2" height="14" fill="url(#paint3_linear_37264_58480)"/>
<rect x="43" y="91" width="2" height="16" fill="url(#paint4_linear_37264_58480)"/>
<rect x="46" y="91" width="2" height="16" fill="url(#paint5_linear_37264_58480)"/>
<rect x="49" y="91" width="2" height="16" fill="url(#paint6_linear_37264_58480)"/>
<rect x="52" y="91" width="2" height="16" fill="url(#paint7_linear_37264_58480)"/>
<rect x="55" y="93" width="2" height="14" fill="url(#paint8_linear_37264_58480)"/>
<rect x="58" y="93" width="2" height="14" fill="url(#paint9_linear_37264_58480)"/>
<rect x="61" y="96" width="2" height="11" fill="url(#paint10_linear_37264_58480)"/>
<rect x="64" y="96" width="2" height="11" fill="url(#paint11_linear_37264_58480)"/>
<rect x="67" y="98" width="2" height="9" fill="url(#paint12_linear_37264_58480)"/>
<rect x="70" y="98" width="2" height="9" fill="url(#paint13_linear_37264_58480)"/>
<rect x="73" y="99" width="2" height="8" fill="url(#paint14_linear_37264_58480)"/>
<rect x="76" y="99" width="2" height="8" fill="url(#paint15_linear_37264_58480)"/>
<rect x="79" y="99" width="2" height="8" fill="url(#paint16_linear_37264_58480)"/>
<rect x="82" y="99" width="2" height="8" fill="url(#paint17_linear_37264_58480)"/>
<rect x="85" y="99" width="2" height="8" fill="url(#paint18_linear_37264_58480)"/>
<rect x="88" y="99" width="2" height="8" fill="url(#paint19_linear_37264_58480)"/>
<rect x="91" y="98" width="2" height="9" fill="url(#paint20_linear_37264_58480)"/>
<rect x="94" y="98" width="2" height="9" fill="url(#paint21_linear_37264_58480)"/>
<rect x="97" y="97" width="2" height="10" fill="url(#paint22_linear_37264_58480)"/>
<rect x="100" y="97" width="2" height="10" fill="url(#paint23_linear_37264_58480)"/>
<rect x="103" y="96" width="2" height="11" fill="url(#paint24_linear_37264_58480)"/>
<rect x="106" y="96" width="2" height="11" fill="url(#paint25_linear_37264_58480)"/>
<rect x="109" y="95" width="2" height="12" fill="url(#paint26_linear_37264_58480)"/>
<rect x="112" y="95" width="2" height="12" fill="url(#paint27_linear_37264_58480)"/>
<rect x="115" y="93" width="2" height="14" fill="url(#paint28_linear_37264_58480)"/>
<rect x="118" y="93" width="2" height="14" fill="url(#paint29_linear_37264_58480)"/>
<rect x="121" y="90" width="2" height="17" fill="url(#paint30_linear_37264_58480)"/>
<rect x="124" y="90" width="2" height="17" fill="url(#paint31_linear_37264_58480)"/>
<rect x="127" y="87" width="2" height="20" fill="url(#paint32_linear_37264_58480)"/>
<rect x="130" y="87" width="2" height="20" fill="url(#paint33_linear_37264_58480)"/>
<rect x="133" y="86" width="2" height="21" fill="url(#paint34_linear_37264_58480)"/>
<rect x="136" y="86" width="2" height="21" fill="url(#paint35_linear_37264_58480)"/>
<rect x="139" y="86" width="2" height="21" fill="url(#paint36_linear_37264_58480)"/>
<rect x="142" y="86" width="2" height="21" fill="url(#paint37_linear_37264_58480)"/>
<rect x="145" y="87" width="2" height="20" fill="url(#paint38_linear_37264_58480)"/>
<rect x="148" y="87" width="2" height="20" fill="url(#paint39_linear_37264_58480)"/>
<rect x="151" y="90" width="2" height="17" fill="url(#paint40_linear_37264_58480)"/>
<rect x="154" y="90" width="2" height="17" fill="url(#paint41_linear_37264_58480)"/>
<rect x="157" y="91" width="2" height="16" fill="url(#paint42_linear_37264_58480)"/>
<rect x="160" y="91" width="2" height="16" fill="url(#paint43_linear_37264_58480)"/>
<rect x="163" y="92" width="2" height="15" fill="url(#paint44_linear_37264_58480)"/>
<rect x="166" y="92" width="2" height="15" fill="url(#paint45_linear_37264_58480)"/>
<rect x="169" y="91" width="2" height="16" fill="url(#paint46_linear_37264_58480)"/>
<rect x="172" y="91" width="2" height="16" fill="url(#paint47_linear_37264_58480)"/>
<rect x="175" y="90" width="2" height="17" fill="url(#paint48_linear_37264_58480)"/>
<rect x="178" y="90" width="2" height="17" fill="url(#paint49_linear_37264_58480)"/>
<rect x="181" y="90" width="2" height="17" fill="url(#paint50_linear_37264_58480)"/>
<rect x="184" y="90" width="2" height="17" fill="url(#paint51_linear_37264_58480)"/>
<rect x="187" y="89" width="2" height="18" fill="url(#paint52_linear_37264_58480)"/>
<rect x="190" y="89" width="2" height="18" fill="url(#paint53_linear_37264_58480)"/>
<rect x="193" y="90" width="2" height="17" fill="url(#paint54_linear_37264_58480)"/>
<rect x="196" y="90" width="2" height="17" fill="url(#paint55_linear_37264_58480)"/>
<rect x="199" y="90" width="2" height="17" fill="url(#paint56_linear_37264_58480)"/>
<rect x="202" y="90" width="2" height="17" fill="url(#paint57_linear_37264_58480)"/>
<rect x="205" y="92" width="2" height="15" fill="url(#paint58_linear_37264_58480)"/>
<rect x="208" y="92" width="2" height="15" fill="url(#paint59_linear_37264_58480)"/>
<rect x="211" y="94" width="2" height="13" fill="url(#paint60_linear_37264_58480)"/>
<rect x="214" y="94" width="2" height="13" fill="url(#paint61_linear_37264_58480)"/>
<rect x="217" y="94" width="2" height="13" fill="url(#paint62_linear_37264_58480)"/>
<rect x="220" y="94" width="2" height="13" fill="url(#paint63_linear_37264_58480)"/>
</g>
<path d="M220.09 53.9205L222 57.2746V77.3992H220.09H210.699H199.558H188.257H177.115H165.814H154.513H143.372H132.071H120.929H109.628H98.4867H87.1859H75.885H64.7433H53.4425H42.3008H32.91H31V17.0254H32.91L42.3008 27.0877L53.4425 42.2293H64.7433L75.885 40.5041L87.1859 25.9697L98.4867 27.0877L109.628 43.8582L120.929 56.1566L132.071 42.7402L143.372 43.8582L154.513 44.9762L165.814 33.7959L177.115 51.6845L188.257 59.5107L199.558 62.8648L210.699 46.0943L220.09 53.9205Z" fill="url(#paint64_linear_37264_58480)" fill-opacity="0.15"/>
<path d="M222 57.1065L221.045 59.2211L220.09 53.7214L218.916 48.927L217.742 51.7468L216.568 54.5666L215.395 49.7722L214.221 44.9778L213.047 47.7976L211.873 50.6174L210.699 45.823L210.003 43.0737L209.306 47.9387L208.61 52.8036L207.914 50.0543L207.217 47.305L206.521 52.17L205.825 57.0349L205.128 54.2856L204.432 53.8206L203.736 56.4013L203.039 58.9819L202.343 58.5169L201.647 58.8133L200.95 61.394L200.254 60.929L199.558 63.5096L198.145 61.5637L196.732 62.6634L195.32 60.7174L193.907 61.0557L192.494 59.8712L191.082 60.9709L189.669 59.0249L188.257 60.1246L187.56 58.1081L186.864 59.1373L186.168 57.5015L185.471 58.15L184.775 56.1335L184.079 57.1627L183.382 55.1462L182.686 55.7947L181.989 54.1589L181.293 55.1881L180.597 53.5523L179.9 57.2465L179.204 52.565L178.508 52.8328L177.811 48.1513L177.115 51.4648L176.409 50.7171L175.702 48.8274L174.996 48.4604L174.29 46.5707L173.583 46.9651L172.877 43.9332L172.171 47.3734L171.465 42.0573L170.758 42.071L170.052 35.9935L169.346 42.86L168.639 34.1175L167.933 36.7962L167.227 36.4293L166.52 33.7781L165.814 34.1726L165.108 30.3093L164.402 38.6287L163.695 35.5268L162.989 34.3285L162.283 38.4601L161.576 36.5004L160.87 39.1091L160.164 39.0529L159.457 40.9003L158.751 40.4634L158.045 42.3107L157.339 41.8738L156.632 42.579L155.926 44.4264L155.22 43.9895L154.513 44.6947L153.121 44.9343L151.728 40.6055L150.335 44.6523L148.942 47.9376L147.55 44.3702L146.157 42.3256L144.764 45.9916L143.372 43.5663L141.959 45.3288L140.546 43.2842L139.134 43.1432L137.721 44.9057L136.309 42.8611L134.896 42.7201L133.483 38.7719L132.071 38.6309L131.374 43.2842L130.678 44.1305L129.982 46.8803L129.285 45.823L128.589 46.6693L127.893 49.4191L127.196 48.3618L126.5 45.401L125.804 51.9579L125.107 50.9006L124.411 51.7468L123.715 56.4002L123.018 49.6323L122.322 58.0927L121.626 55.1319L120.929 55.9781L120.223 55.2024L119.517 52.9038L118.81 53.6509L118.104 50.9716L117.398 52.0995L116.691 49.4202L115.985 50.548L115.279 47.8687L113.866 48.2207L113.16 49.7293L112.454 46.6693L111.747 48.1778L111.041 45.1178L110.335 46.6263L109.628 43.5663L108.932 38.7014L108.236 41.4507L107.539 36.5857L106.843 39.335L106.147 38.2772L105.45 33.4123L104.754 36.1615L104.058 35.1037L103.361 37.853L102.665 32.9881L101.968 35.7373L101.272 30.8724L100.576 33.6217L99.8794 28.7568L99.183 27.6989L98.4867 30.4482L97.0741 22.693L95.6614 26.359L94.2488 30.0251L92.8362 26.0769L91.4236 33.5501L90.011 29.6019L88.5984 25.6538L87.1858 21.7057L86.4795 26.4295L85.7732 31.1534L85.0669 28.2631L84.3606 29.1799L83.6543 33.9038L82.948 31.0135L82.2417 28.1231L81.5354 32.847L80.8291 33.7638L80.1228 30.8735L79.4165 35.5974L78.7102 36.5141L78.0039 41.238L77.2976 38.3477L76.5913 39.2645L75.885 43.9884L74.4923 40.3989L73.0996 36.8094L71.7069 40.8342L70.3142 37.2447L68.9215 41.2695L67.5287 39.9643L66.136 42.4662L64.7433 40.3995L63.3307 42.6838L61.9181 40.3995L60.5055 41.9224L59.0929 38.1153L57.6803 41.9224L56.2677 45.7295L54.8551 38.1153L53.4425 41.9224L52.7461 40.9673L52.0498 43.8193L51.3534 39.0571L50.6571 41.9092L49.9607 37.147L49.2644 32.3848L48.568 35.2368L47.8717 38.0888L47.1753 33.3267L46.479 28.5645L45.7826 31.4165L45.0863 34.2685L44.3899 29.5063L43.6935 24.7442L42.9972 27.5962L42.3008 26.6411L41.7139 29.8135L41.127 25.3717L40.5401 24.737L39.9531 24.1023L39.3662 23.4676L38.7793 26.64L38.1923 22.1982L37.6054 21.5635L37.0185 17.1217L36.4315 20.2942L35.8446 19.6595L35.2577 15.2177L34.6708 18.3901L34.0839 17.7554L33.4969 17.1207L32.91 12.5996L31.955 16.486H31" stroke="#F53D26" stroke-width="0.8"/>
<path opacity="0.8" d="M5.21143 6.70703V7.375H1.02344V6.79053L3.11963 4.45703C3.37744 4.16992 3.57666 3.92676 3.71729 3.72754C3.86084 3.52539 3.96045 3.34521 4.01611 3.18701C4.07471 3.02588 4.104 2.86182 4.104 2.69482C4.104 2.48389 4.06006 2.29346 3.97217 2.12354C3.88721 1.95068 3.76123 1.81299 3.59424 1.71045C3.42725 1.60791 3.2251 1.55664 2.98779 1.55664C2.70361 1.55664 2.46631 1.6123 2.27588 1.72363C2.08838 1.83203 1.94775 1.98438 1.854 2.18066C1.76025 2.37695 1.71338 2.60254 1.71338 2.85742H0.900391C0.900391 2.49707 0.979492 2.16748 1.1377 1.86865C1.2959 1.56982 1.53027 1.33252 1.84082 1.15674C2.15137 0.978027 2.53369 0.888672 2.98779 0.888672C3.39209 0.888672 3.73779 0.960449 4.0249 1.104C4.31201 1.24463 4.53174 1.44385 4.68408 1.70166C4.83936 1.95654 4.91699 2.25537 4.91699 2.59814C4.91699 2.78564 4.88477 2.97607 4.82031 3.16943C4.75879 3.35986 4.67236 3.55029 4.56104 3.74072C4.45264 3.93115 4.3252 4.11865 4.17871 4.30322C4.03516 4.48779 3.88135 4.66943 3.71729 4.84814L2.00342 6.70703H5.21143ZM6.90771 6.4082V7.06299C6.90771 7.32959 6.84033 7.61084 6.70557 7.90674C6.5708 8.20557 6.38184 8.45459 6.13867 8.65381L5.67725 8.33301C5.771 8.2041 5.8501 8.07227 5.91455 7.9375C5.979 7.80566 6.02734 7.66797 6.05957 7.52441C6.09473 7.38379 6.1123 7.23438 6.1123 7.07617V6.4082H6.90771ZM10.9771 0.967773H11.0474V1.65771H10.9771C10.5464 1.65771 10.186 1.72803 9.896 1.86865C9.60596 2.00635 9.37598 2.19238 9.20605 2.42676C9.03613 2.6582 8.91309 2.91895 8.83691 3.20898C8.76367 3.49902 8.72705 3.79346 8.72705 4.09229V5.03271C8.72705 5.31689 8.76074 5.56885 8.82812 5.78857C8.89551 6.00537 8.98779 6.18848 9.10498 6.33789C9.22217 6.4873 9.354 6.6001 9.50049 6.67627C9.6499 6.75244 9.80518 6.79053 9.96631 6.79053C10.1538 6.79053 10.3208 6.75537 10.4673 6.68506C10.6138 6.61182 10.7368 6.51074 10.8364 6.38184C10.939 6.25 11.0166 6.09473 11.0693 5.91602C11.1221 5.7373 11.1484 5.54102 11.1484 5.32715C11.1484 5.13672 11.125 4.95361 11.0781 4.77783C11.0312 4.59912 10.9595 4.44092 10.8628 4.30322C10.7661 4.1626 10.6445 4.05273 10.498 3.97363C10.3545 3.8916 10.1831 3.85059 9.98389 3.85059C9.7583 3.85059 9.54736 3.90625 9.35107 4.01758C9.15771 4.12598 8.99805 4.26953 8.87207 4.44824C8.74902 4.62402 8.67871 4.81592 8.66113 5.02393L8.23047 5.01953C8.27148 4.69141 8.34766 4.41162 8.45898 4.18018C8.57324 3.9458 8.71387 3.75537 8.88086 3.60889C9.05078 3.45947 9.23975 3.35107 9.44775 3.28369C9.65869 3.21338 9.88135 3.17822 10.1157 3.17822C10.4351 3.17822 10.7104 3.23828 10.9419 3.3584C11.1733 3.47852 11.3638 3.63965 11.5132 3.8418C11.6626 4.04102 11.7725 4.2666 11.8428 4.51855C11.916 4.76758 11.9526 5.02393 11.9526 5.2876C11.9526 5.58936 11.9102 5.87207 11.8252 6.13574C11.7402 6.39941 11.6128 6.63086 11.4429 6.83008C11.2759 7.0293 11.0693 7.18457 10.8232 7.2959C10.5771 7.40723 10.2915 7.46289 9.96631 7.46289C9.62061 7.46289 9.31885 7.39258 9.06104 7.25195C8.80322 7.1084 8.58936 6.91797 8.41943 6.68066C8.24951 6.44336 8.12207 6.17969 8.03711 5.88965C7.95215 5.59961 7.90967 5.30518 7.90967 5.00635V4.62402C7.90967 4.17285 7.95508 3.73047 8.0459 3.29688C8.13672 2.86328 8.29346 2.4707 8.51611 2.11914C8.7417 1.76758 9.05371 1.48779 9.45215 1.27979C9.85059 1.07178 10.3589 0.967773 10.9771 0.967773ZM17.1118 6.70703V7.375H12.9238V6.79053L15.02 4.45703C15.2778 4.16992 15.4771 3.92676 15.6177 3.72754C15.7612 3.52539 15.8608 3.34521 15.9165 3.18701C15.9751 3.02588 16.0044 2.86182 16.0044 2.69482C16.0044 2.48389 15.9604 2.29346 15.8726 2.12354C15.7876 1.95068 15.6616 1.81299 15.4946 1.71045C15.3276 1.60791 15.1255 1.55664 14.8882 1.55664C14.604 1.55664 14.3667 1.6123 14.1763 1.72363C13.9888 1.83203 13.8481 1.98438 13.7544 2.18066C13.6606 2.37695 13.6138 2.60254 13.6138 2.85742H12.8008C12.8008 2.49707 12.8799 2.16748 13.0381 1.86865C13.1963 1.56982 13.4307 1.33252 13.7412 1.15674C14.0518 0.978027 14.4341 0.888672 14.8882 0.888672C15.2925 0.888672 15.6382 0.960449 15.9253 1.104C16.2124 1.24463 16.4321 1.44385 16.5845 1.70166C16.7397 1.95654 16.8174 2.25537 16.8174 2.59814C16.8174 2.78564 16.7852 2.97607 16.7207 3.16943C16.6592 3.35986 16.5728 3.55029 16.4614 3.74072C16.353 3.93115 16.2256 4.11865 16.0791 4.30322C15.9355 4.48779 15.7817 4.66943 15.6177 4.84814L13.9038 6.70703H17.1118ZM21.9985 3.66602V4.6416C21.9985 5.16602 21.9517 5.6084 21.8579 5.96875C21.7642 6.3291 21.6294 6.61914 21.4536 6.83887C21.2778 7.05859 21.0654 7.21826 20.8164 7.31787C20.5703 7.41455 20.292 7.46289 19.9814 7.46289C19.7354 7.46289 19.5083 7.43213 19.3003 7.37061C19.0923 7.30908 18.9048 7.21094 18.7378 7.07617C18.5737 6.93848 18.4331 6.75977 18.3159 6.54004C18.1987 6.32031 18.1094 6.05371 18.0479 5.74023C17.9863 5.42676 17.9556 5.06055 17.9556 4.6416V3.66602C17.9556 3.1416 18.0024 2.70215 18.0962 2.34766C18.1929 1.99316 18.3291 1.70898 18.5049 1.49512C18.6807 1.27832 18.8916 1.12305 19.1377 1.0293C19.3867 0.935547 19.665 0.888672 19.9727 0.888672C20.2217 0.888672 20.4502 0.919434 20.6582 0.980957C20.8691 1.03955 21.0566 1.13477 21.2207 1.2666C21.3848 1.39551 21.5239 1.56836 21.6382 1.78516C21.7554 1.99902 21.8447 2.26123 21.9062 2.57178C21.9678 2.88232 21.9985 3.24707 21.9985 3.66602ZM21.1812 4.77344V3.52979C21.1812 3.24268 21.1636 2.99072 21.1284 2.77393C21.0962 2.5542 21.0479 2.3667 20.9834 2.21143C20.9189 2.05615 20.8369 1.93018 20.7373 1.8335C20.6406 1.73682 20.5278 1.6665 20.3989 1.62256C20.2729 1.57568 20.1309 1.55225 19.9727 1.55225C19.7793 1.55225 19.6079 1.58887 19.4585 1.66211C19.3091 1.73242 19.1831 1.84521 19.0806 2.00049C18.981 2.15576 18.9048 2.35938 18.8521 2.61133C18.7993 2.86328 18.7729 3.16943 18.7729 3.52979V4.77344C18.7729 5.06055 18.7891 5.31396 18.8213 5.53369C18.8564 5.75342 18.9077 5.94385 18.9751 6.10498C19.0425 6.26318 19.1245 6.39355 19.2212 6.49609C19.3179 6.59863 19.4292 6.6748 19.5552 6.72461C19.6841 6.77148 19.8262 6.79492 19.9814 6.79492C20.1807 6.79492 20.355 6.75684 20.5044 6.68066C20.6538 6.60449 20.7783 6.48584 20.8779 6.32471C20.9805 6.16064 21.0566 5.95117 21.1064 5.69629C21.1562 5.43848 21.1812 5.13086 21.1812 4.77344Z" fill="white"/>
<line x1="31.5" y1="3.375" x2="221.5" y2="3.375" stroke="white" stroke-opacity="0.4" stroke-miterlimit="16" stroke-linecap="round" stroke-linejoin="round" stroke-dasharray="0.1 3"/>
<path opacity="0.8" d="M5.21143 32.457V33.125H1.02344V32.5405L3.11963 30.207C3.37744 29.9199 3.57666 29.6768 3.71729 29.4775C3.86084 29.2754 3.96045 29.0952 4.01611 28.937C4.07471 28.7759 4.104 28.6118 4.104 28.4448C4.104 28.2339 4.06006 28.0435 3.97217 27.8735C3.88721 27.7007 3.76123 27.563 3.59424 27.4604C3.42725 27.3579 3.2251 27.3066 2.98779 27.3066C2.70361 27.3066 2.46631 27.3623 2.27588 27.4736C2.08838 27.582 1.94775 27.7344 1.854 27.9307C1.76025 28.127 1.71338 28.3525 1.71338 28.6074H0.900391C0.900391 28.2471 0.979492 27.9175 1.1377 27.6187C1.2959 27.3198 1.53027 27.0825 1.84082 26.9067C2.15137 26.728 2.53369 26.6387 2.98779 26.6387C3.39209 26.6387 3.73779 26.7104 4.0249 26.854C4.31201 26.9946 4.53174 27.1938 4.68408 27.4517C4.83936 27.7065 4.91699 28.0054 4.91699 28.3481C4.91699 28.5356 4.88477 28.7261 4.82031 28.9194C4.75879 29.1099 4.67236 29.3003 4.56104 29.4907C4.45264 29.6812 4.3252 29.8687 4.17871 30.0532C4.03516 30.2378 3.88135 30.4194 3.71729 30.5981L2.00342 32.457H5.21143ZM6.90771 32.1582V32.813C6.90771 33.0796 6.84033 33.3608 6.70557 33.6567C6.5708 33.9556 6.38184 34.2046 6.13867 34.4038L5.67725 34.083C5.771 33.9541 5.8501 33.8223 5.91455 33.6875C5.979 33.5557 6.02734 33.418 6.05957 33.2744C6.09473 33.1338 6.1123 32.9844 6.1123 32.8262V32.1582H6.90771ZM10.9771 26.7178H11.0474V27.4077H10.9771C10.5464 27.4077 10.186 27.478 9.896 27.6187C9.60596 27.7563 9.37598 27.9424 9.20605 28.1768C9.03613 28.4082 8.91309 28.6689 8.83691 28.959C8.76367 29.249 8.72705 29.5435 8.72705 29.8423V30.7827C8.72705 31.0669 8.76074 31.3188 8.82812 31.5386C8.89551 31.7554 8.98779 31.9385 9.10498 32.0879C9.22217 32.2373 9.354 32.3501 9.50049 32.4263C9.6499 32.5024 9.80518 32.5405 9.96631 32.5405C10.1538 32.5405 10.3208 32.5054 10.4673 32.4351C10.6138 32.3618 10.7368 32.2607 10.8364 32.1318C10.939 32 11.0166 31.8447 11.0693 31.666C11.1221 31.4873 11.1484 31.291 11.1484 31.0771C11.1484 30.8867 11.125 30.7036 11.0781 30.5278C11.0312 30.3491 10.9595 30.1909 10.8628 30.0532C10.7661 29.9126 10.6445 29.8027 10.498 29.7236C10.3545 29.6416 10.1831 29.6006 9.98389 29.6006C9.7583 29.6006 9.54736 29.6562 9.35107 29.7676C9.15771 29.876 8.99805 30.0195 8.87207 30.1982C8.74902 30.374 8.67871 30.5659 8.66113 30.7739L8.23047 30.7695C8.27148 30.4414 8.34766 30.1616 8.45898 29.9302C8.57324 29.6958 8.71387 29.5054 8.88086 29.3589C9.05078 29.2095 9.23975 29.1011 9.44775 29.0337C9.65869 28.9634 9.88135 28.9282 10.1157 28.9282C10.4351 28.9282 10.7104 28.9883 10.9419 29.1084C11.1733 29.2285 11.3638 29.3896 11.5132 29.5918C11.6626 29.791 11.7725 30.0166 11.8428 30.2686C11.916 30.5176 11.9526 30.7739 11.9526 31.0376C11.9526 31.3394 11.9102 31.6221 11.8252 31.8857C11.7402 32.1494 11.6128 32.3809 11.4429 32.5801C11.2759 32.7793 11.0693 32.9346 10.8232 33.0459C10.5771 33.1572 10.2915 33.2129 9.96631 33.2129C9.62061 33.2129 9.31885 33.1426 9.06104 33.002C8.80322 32.8584 8.58936 32.668 8.41943 32.4307C8.24951 32.1934 8.12207 31.9297 8.03711 31.6396C7.95215 31.3496 7.90967 31.0552 7.90967 30.7563V30.374C7.90967 29.9229 7.95508 29.4805 8.0459 29.0469C8.13672 28.6133 8.29346 28.2207 8.51611 27.8691C8.7417 27.5176 9.05371 27.2378 9.45215 27.0298C9.85059 26.8218 10.3589 26.7178 10.9771 26.7178ZM15.5913 26.6914V33.125H14.7783V27.7065L13.1392 28.3042V27.5703L15.4639 26.6914H15.5913ZM19.0103 30.0796L18.3599 29.9126L18.6807 26.7266H21.9634V27.478H19.3706L19.1772 29.2183C19.2944 29.1509 19.4424 29.0879 19.6211 29.0293C19.8027 28.9707 20.0107 28.9414 20.2451 28.9414C20.541 28.9414 20.8062 28.9927 21.0405 29.0952C21.2749 29.1948 21.4741 29.3384 21.6382 29.5259C21.8052 29.7134 21.9326 29.939 22.0205 30.2026C22.1084 30.4663 22.1523 30.7607 22.1523 31.0859C22.1523 31.3936 22.1099 31.6763 22.0249 31.9341C21.9429 32.1919 21.8184 32.4175 21.6514 32.6108C21.4844 32.8013 21.2734 32.9492 21.0186 33.0547C20.7666 33.1602 20.4692 33.2129 20.1265 33.2129C19.8687 33.2129 19.624 33.1777 19.3926 33.1074C19.1641 33.0342 18.959 32.9243 18.7773 32.7778C18.5986 32.6284 18.4521 32.4438 18.3379 32.2241C18.2266 32.0015 18.1562 31.7407 18.127 31.4419H18.9004C18.9355 31.6821 19.0059 31.8843 19.1113 32.0483C19.2168 32.2124 19.3545 32.3369 19.5244 32.4219C19.6973 32.5039 19.8979 32.5449 20.1265 32.5449C20.3198 32.5449 20.4912 32.5112 20.6406 32.4438C20.79 32.3765 20.916 32.2798 21.0186 32.1538C21.1211 32.0278 21.1987 31.8755 21.2515 31.6968C21.3071 31.5181 21.335 31.3174 21.335 31.0947C21.335 30.8926 21.3071 30.7051 21.2515 30.5322C21.1958 30.3594 21.1123 30.2085 21.001 30.0796C20.8926 29.9507 20.7593 29.8511 20.6011 29.7808C20.4429 29.7075 20.2612 29.6709 20.0562 29.6709C19.7837 29.6709 19.5771 29.7075 19.4365 29.7808C19.2988 29.854 19.1567 29.9536 19.0103 30.0796Z" fill="white"/>
<line x1="31.5" y1="29.125" x2="221.5" y2="29.125" stroke="white" stroke-opacity="0.4" stroke-miterlimit="16" stroke-linecap="round" stroke-linejoin="round" stroke-dasharray="0.1 3"/>
<path opacity="0.8" d="M5.21143 58.207V58.875H1.02344V58.2905L3.11963 55.957C3.37744 55.6699 3.57666 55.4268 3.71729 55.2275C3.86084 55.0254 3.96045 54.8452 4.01611 54.687C4.07471 54.5259 4.104 54.3618 4.104 54.1948C4.104 53.9839 4.06006 53.7935 3.97217 53.6235C3.88721 53.4507 3.76123 53.313 3.59424 53.2104C3.42725 53.1079 3.2251 53.0566 2.98779 53.0566C2.70361 53.0566 2.46631 53.1123 2.27588 53.2236C2.08838 53.332 1.94775 53.4844 1.854 53.6807C1.76025 53.877 1.71338 54.1025 1.71338 54.3574H0.900391C0.900391 53.9971 0.979492 53.6675 1.1377 53.3687C1.2959 53.0698 1.53027 52.8325 1.84082 52.6567C2.15137 52.478 2.53369 52.3887 2.98779 52.3887C3.39209 52.3887 3.73779 52.4604 4.0249 52.604C4.31201 52.7446 4.53174 52.9438 4.68408 53.2017C4.83936 53.4565 4.91699 53.7554 4.91699 54.0981C4.91699 54.2856 4.88477 54.4761 4.82031 54.6694C4.75879 54.8599 4.67236 55.0503 4.56104 55.2407C4.45264 55.4312 4.3252 55.6187 4.17871 55.8032C4.03516 55.9878 3.88135 56.1694 3.71729 56.3481L2.00342 58.207H5.21143ZM6.90771 57.9082V58.563C6.90771 58.8296 6.84033 59.1108 6.70557 59.4067C6.5708 59.7056 6.38184 59.9546 6.13867 60.1538L5.67725 59.833C5.771 59.7041 5.8501 59.5723 5.91455 59.4375C5.979 59.3057 6.02734 59.168 6.05957 59.0244C6.09473 58.8838 6.1123 58.7344 6.1123 58.5762V57.9082H6.90771ZM10.9771 52.4678H11.0474V53.1577H10.9771C10.5464 53.1577 10.186 53.228 9.896 53.3687C9.60596 53.5063 9.37598 53.6924 9.20605 53.9268C9.03613 54.1582 8.91309 54.4189 8.83691 54.709C8.76367 54.999 8.72705 55.2935 8.72705 55.5923V56.5327C8.72705 56.8169 8.76074 57.0688 8.82812 57.2886C8.89551 57.5054 8.98779 57.6885 9.10498 57.8379C9.22217 57.9873 9.354 58.1001 9.50049 58.1763C9.6499 58.2524 9.80518 58.2905 9.96631 58.2905C10.1538 58.2905 10.3208 58.2554 10.4673 58.1851C10.6138 58.1118 10.7368 58.0107 10.8364 57.8818C10.939 57.75 11.0166 57.5947 11.0693 57.416C11.1221 57.2373 11.1484 57.041 11.1484 56.8271C11.1484 56.6367 11.125 56.4536 11.0781 56.2778C11.0312 56.0991 10.9595 55.9409 10.8628 55.8032C10.7661 55.6626 10.6445 55.5527 10.498 55.4736C10.3545 55.3916 10.1831 55.3506 9.98389 55.3506C9.7583 55.3506 9.54736 55.4062 9.35107 55.5176C9.15771 55.626 8.99805 55.7695 8.87207 55.9482C8.74902 56.124 8.67871 56.3159 8.66113 56.5239L8.23047 56.5195C8.27148 56.1914 8.34766 55.9116 8.45898 55.6802C8.57324 55.4458 8.71387 55.2554 8.88086 55.1089C9.05078 54.9595 9.23975 54.8511 9.44775 54.7837C9.65869 54.7134 9.88135 54.6782 10.1157 54.6782C10.4351 54.6782 10.7104 54.7383 10.9419 54.8584C11.1733 54.9785 11.3638 55.1396 11.5132 55.3418C11.6626 55.541 11.7725 55.7666 11.8428 56.0186C11.916 56.2676 11.9526 56.5239 11.9526 56.7876C11.9526 57.0894 11.9102 57.3721 11.8252 57.6357C11.7402 57.8994 11.6128 58.1309 11.4429 58.3301C11.2759 58.5293 11.0693 58.6846 10.8232 58.7959C10.5771 58.9072 10.2915 58.9629 9.96631 58.9629C9.62061 58.9629 9.31885 58.8926 9.06104 58.752C8.80322 58.6084 8.58936 58.418 8.41943 58.1807C8.24951 57.9434 8.12207 57.6797 8.03711 57.3896C7.95215 57.0996 7.90967 56.8052 7.90967 56.5063V56.124C7.90967 55.6729 7.95508 55.2305 8.0459 54.7969C8.13672 54.3633 8.29346 53.9707 8.51611 53.6191C8.7417 53.2676 9.05371 52.9878 9.45215 52.7798C9.85059 52.5718 10.3589 52.4678 10.9771 52.4678ZM15.5913 52.4414V58.875H14.7783V53.4565L13.1392 54.0542V53.3203L15.4639 52.4414H15.5913ZM21.9985 55.166V56.1416C21.9985 56.666 21.9517 57.1084 21.8579 57.4688C21.7642 57.8291 21.6294 58.1191 21.4536 58.3389C21.2778 58.5586 21.0654 58.7183 20.8164 58.8179C20.5703 58.9146 20.292 58.9629 19.9814 58.9629C19.7354 58.9629 19.5083 58.9321 19.3003 58.8706C19.0923 58.8091 18.9048 58.7109 18.7378 58.5762C18.5737 58.4385 18.4331 58.2598 18.3159 58.04C18.1987 57.8203 18.1094 57.5537 18.0479 57.2402C17.9863 56.9268 17.9556 56.5605 17.9556 56.1416V55.166C17.9556 54.6416 18.0024 54.2021 18.0962 53.8477C18.1929 53.4932 18.3291 53.209 18.5049 52.9951C18.6807 52.7783 18.8916 52.623 19.1377 52.5293C19.3867 52.4355 19.665 52.3887 19.9727 52.3887C20.2217 52.3887 20.4502 52.4194 20.6582 52.481C20.8691 52.5396 21.0566 52.6348 21.2207 52.7666C21.3848 52.8955 21.5239 53.0684 21.6382 53.2852C21.7554 53.499 21.8447 53.7612 21.9062 54.0718C21.9678 54.3823 21.9985 54.7471 21.9985 55.166ZM21.1812 56.2734V55.0298C21.1812 54.7427 21.1636 54.4907 21.1284 54.2739C21.0962 54.0542 21.0479 53.8667 20.9834 53.7114C20.9189 53.5562 20.8369 53.4302 20.7373 53.3335C20.6406 53.2368 20.5278 53.1665 20.3989 53.1226C20.2729 53.0757 20.1309 53.0522 19.9727 53.0522C19.7793 53.0522 19.6079 53.0889 19.4585 53.1621C19.3091 53.2324 19.1831 53.3452 19.0806 53.5005C18.981 53.6558 18.9048 53.8594 18.8521 54.1113C18.7993 54.3633 18.7729 54.6694 18.7729 55.0298V56.2734C18.7729 56.5605 18.7891 56.814 18.8213 57.0337C18.8564 57.2534 18.9077 57.4438 18.9751 57.605C19.0425 57.7632 19.1245 57.8936 19.2212 57.9961C19.3179 58.0986 19.4292 58.1748 19.5552 58.2246C19.6841 58.2715 19.8262 58.2949 19.9814 58.2949C20.1807 58.2949 20.355 58.2568 20.5044 58.1807C20.6538 58.1045 20.7783 57.9858 20.8779 57.8247C20.9805 57.6606 21.0566 57.4512 21.1064 57.1963C21.1562 56.9385 21.1812 56.6309 21.1812 56.2734Z" fill="white"/>
<line x1="31.5" y1="54.875" x2="221.5" y2="54.875" stroke="white" stroke-opacity="0.4" stroke-miterlimit="16" stroke-linecap="round" stroke-linejoin="round" stroke-dasharray="0.1 3"/>
<path opacity="0.8" d="M5.21143 84.457V85.125H1.02344V84.5405L3.11963 82.207C3.37744 81.9199 3.57666 81.6768 3.71729 81.4775C3.86084 81.2754 3.96045 81.0952 4.01611 80.937C4.07471 80.7759 4.104 80.6118 4.104 80.4448C4.104 80.2339 4.06006 80.0435 3.97217 79.8735C3.88721 79.7007 3.76123 79.563 3.59424 79.4604C3.42725 79.3579 3.2251 79.3066 2.98779 79.3066C2.70361 79.3066 2.46631 79.3623 2.27588 79.4736C2.08838 79.582 1.94775 79.7344 1.854 79.9307C1.76025 80.127 1.71338 80.3525 1.71338 80.6074H0.900391C0.900391 80.2471 0.979492 79.9175 1.1377 79.6187C1.2959 79.3198 1.53027 79.0825 1.84082 78.9067C2.15137 78.728 2.53369 78.6387 2.98779 78.6387C3.39209 78.6387 3.73779 78.7104 4.0249 78.854C4.31201 78.9946 4.53174 79.1938 4.68408 79.4517C4.83936 79.7065 4.91699 80.0054 4.91699 80.3481C4.91699 80.5356 4.88477 80.7261 4.82031 80.9194C4.75879 81.1099 4.67236 81.3003 4.56104 81.4907C4.45264 81.6812 4.3252 81.8687 4.17871 82.0532C4.03516 82.2378 3.88135 82.4194 3.71729 82.5981L2.00342 84.457H5.21143ZM6.90771 84.1582V84.813C6.90771 85.0796 6.84033 85.3608 6.70557 85.6567C6.5708 85.9556 6.38184 86.2046 6.13867 86.4038L5.67725 86.083C5.771 85.9541 5.8501 85.8223 5.91455 85.6875C5.979 85.5557 6.02734 85.418 6.05957 85.2744C6.09473 85.1338 6.1123 84.9844 6.1123 84.8262V84.1582H6.90771ZM10.9771 78.7178H11.0474V79.4077H10.9771C10.5464 79.4077 10.186 79.478 9.896 79.6187C9.60596 79.7563 9.37598 79.9424 9.20605 80.1768C9.03613 80.4082 8.91309 80.6689 8.83691 80.959C8.76367 81.249 8.72705 81.5435 8.72705 81.8423V82.7827C8.72705 83.0669 8.76074 83.3188 8.82812 83.5386C8.89551 83.7554 8.98779 83.9385 9.10498 84.0879C9.22217 84.2373 9.354 84.3501 9.50049 84.4263C9.6499 84.5024 9.80518 84.5405 9.96631 84.5405C10.1538 84.5405 10.3208 84.5054 10.4673 84.4351C10.6138 84.3618 10.7368 84.2607 10.8364 84.1318C10.939 84 11.0166 83.8447 11.0693 83.666C11.1221 83.4873 11.1484 83.291 11.1484 83.0771C11.1484 82.8867 11.125 82.7036 11.0781 82.5278C11.0312 82.3491 10.9595 82.1909 10.8628 82.0532C10.7661 81.9126 10.6445 81.8027 10.498 81.7236C10.3545 81.6416 10.1831 81.6006 9.98389 81.6006C9.7583 81.6006 9.54736 81.6562 9.35107 81.7676C9.15771 81.876 8.99805 82.0195 8.87207 82.1982C8.74902 82.374 8.67871 82.5659 8.66113 82.7739L8.23047 82.7695C8.27148 82.4414 8.34766 82.1616 8.45898 81.9302C8.57324 81.6958 8.71387 81.5054 8.88086 81.3589C9.05078 81.2095 9.23975 81.1011 9.44775 81.0337C9.65869 80.9634 9.88135 80.9282 10.1157 80.9282C10.4351 80.9282 10.7104 80.9883 10.9419 81.1084C11.1733 81.2285 11.3638 81.3896 11.5132 81.5918C11.6626 81.791 11.7725 82.0166 11.8428 82.2686C11.916 82.5176 11.9526 82.7739 11.9526 83.0376C11.9526 83.3394 11.9102 83.6221 11.8252 83.8857C11.7402 84.1494 11.6128 84.3809 11.4429 84.5801C11.2759 84.7793 11.0693 84.9346 10.8232 85.0459C10.5771 85.1572 10.2915 85.2129 9.96631 85.2129C9.62061 85.2129 9.31885 85.1426 9.06104 85.002C8.80322 84.8584 8.58936 84.668 8.41943 84.4307C8.24951 84.1934 8.12207 83.9297 8.03711 83.6396C7.95215 83.3496 7.90967 83.0552 7.90967 82.7563V82.374C7.90967 81.9229 7.95508 81.4805 8.0459 81.0469C8.13672 80.6133 8.29346 80.2207 8.51611 79.8691C8.7417 79.5176 9.05371 79.2378 9.45215 79.0298C9.85059 78.8218 10.3589 78.7178 10.9771 78.7178ZM16.936 81.416V82.3916C16.936 82.916 16.8892 83.3584 16.7954 83.7188C16.7017 84.0791 16.5669 84.3691 16.3911 84.5889C16.2153 84.8086 16.0029 84.9683 15.7539 85.0679C15.5078 85.1646 15.2295 85.2129 14.9189 85.2129C14.6729 85.2129 14.4458 85.1821 14.2378 85.1206C14.0298 85.0591 13.8423 84.9609 13.6753 84.8262C13.5112 84.6885 13.3706 84.5098 13.2534 84.29C13.1362 84.0703 13.0469 83.8037 12.9854 83.4902C12.9238 83.1768 12.8931 82.8105 12.8931 82.3916V81.416C12.8931 80.8916 12.9399 80.4521 13.0337 80.0977C13.1304 79.7432 13.2666 79.459 13.4424 79.2451C13.6182 79.0283 13.8291 78.873 14.0752 78.7793C14.3242 78.6855 14.6025 78.6387 14.9102 78.6387C15.1592 78.6387 15.3877 78.6694 15.5957 78.731C15.8066 78.7896 15.9941 78.8848 16.1582 79.0166C16.3223 79.1455 16.4614 79.3184 16.5757 79.5352C16.6929 79.749 16.7822 80.0112 16.8438 80.3218C16.9053 80.6323 16.936 80.9971 16.936 81.416ZM16.1187 82.5234V81.2798C16.1187 80.9927 16.1011 80.7407 16.0659 80.5239C16.0337 80.3042 15.9854 80.1167 15.9209 79.9614C15.8564 79.8062 15.7744 79.6802 15.6748 79.5835C15.5781 79.4868 15.4653 79.4165 15.3364 79.3726C15.2104 79.3257 15.0684 79.3022 14.9102 79.3022C14.7168 79.3022 14.5454 79.3389 14.396 79.4121C14.2466 79.4824 14.1206 79.5952 14.0181 79.7505C13.9185 79.9058 13.8423 80.1094 13.7896 80.3613C13.7368 80.6133 13.7104 80.9194 13.7104 81.2798V82.5234C13.7104 82.8105 13.7266 83.064 13.7588 83.2837C13.7939 83.5034 13.8452 83.6938 13.9126 83.855C13.98 84.0132 14.062 84.1436 14.1587 84.2461C14.2554 84.3486 14.3667 84.4248 14.4927 84.4746C14.6216 84.5215 14.7637 84.5449 14.9189 84.5449C15.1182 84.5449 15.2925 84.5068 15.4419 84.4307C15.5913 84.3545 15.7158 84.2358 15.8154 84.0747C15.918 83.9106 15.9941 83.7012 16.0439 83.4463C16.0938 83.1885 16.1187 82.8809 16.1187 82.5234ZM19.0103 82.0796L18.3599 81.9126L18.6807 78.7266H21.9634V79.478H19.3706L19.1772 81.2183C19.2944 81.1509 19.4424 81.0879 19.6211 81.0293C19.8027 80.9707 20.0107 80.9414 20.2451 80.9414C20.541 80.9414 20.8062 80.9927 21.0405 81.0952C21.2749 81.1948 21.4741 81.3384 21.6382 81.5259C21.8052 81.7134 21.9326 81.939 22.0205 82.2026C22.1084 82.4663 22.1523 82.7607 22.1523 83.0859C22.1523 83.3936 22.1099 83.6763 22.0249 83.9341C21.9429 84.1919 21.8184 84.4175 21.6514 84.6108C21.4844 84.8013 21.2734 84.9492 21.0186 85.0547C20.7666 85.1602 20.4692 85.2129 20.1265 85.2129C19.8687 85.2129 19.624 85.1777 19.3926 85.1074C19.1641 85.0342 18.959 84.9243 18.7773 84.7778C18.5986 84.6284 18.4521 84.4438 18.3379 84.2241C18.2266 84.0015 18.1562 83.7407 18.127 83.4419H18.9004C18.9355 83.6821 19.0059 83.8843 19.1113 84.0483C19.2168 84.2124 19.3545 84.3369 19.5244 84.4219C19.6973 84.5039 19.8979 84.5449 20.1265 84.5449C20.3198 84.5449 20.4912 84.5112 20.6406 84.4438C20.79 84.3765 20.916 84.2798 21.0186 84.1538C21.1211 84.0278 21.1987 83.8755 21.2515 83.6968C21.3071 83.5181 21.335 83.3174 21.335 83.0947C21.335 82.8926 21.3071 82.7051 21.2515 82.5322C21.1958 82.3594 21.1123 82.2085 21.001 82.0796C20.8926 81.9507 20.7593 81.8511 20.6011 81.7808C20.4429 81.7075 20.2612 81.6709 20.0562 81.6709C19.7837 81.6709 19.5771 81.7075 19.4365 81.7808C19.2988 81.854 19.1567 81.9536 19.0103 82.0796Z" fill="white"/>
<line x1="31.5" y1="81.125" x2="221.5" y2="81.125" stroke="white" stroke-opacity="0.4" stroke-miterlimit="16" stroke-linecap="round" stroke-linejoin="round" stroke-dasharray="0.1 3"/>
<rect width="191" height="1" transform="matrix(1 0 0 -1 31 109)" fill="white" fill-opacity="0.15"/>
</g>
<defs>
<linearGradient id="paint0_linear_37264_58480" x1="32" y1="96" x2="32" y2="107" gradientUnits="userSpaceOnUse">
<stop stop-color="white"/>
<stop offset="0.0001" stop-color="#878787"/>
<stop offset="1" stop-color="#575757" stop-opacity="0"/>
</linearGradient>
<linearGradient id="paint1_linear_37264_58480" x1="35" y1="96" x2="35" y2="107" gradientUnits="userSpaceOnUse">
<stop stop-color="white"/>
<stop offset="0.0001" stop-color="#878787"/>
<stop offset="1" stop-color="#575757" stop-opacity="0"/>
</linearGradient>
<linearGradient id="paint2_linear_37264_58480" x1="38" y1="93" x2="38" y2="107" gradientUnits="userSpaceOnUse">
<stop stop-color="white"/>
<stop offset="0.0001" stop-color="#878787"/>
<stop offset="1" stop-color="#575757" stop-opacity="0"/>
</linearGradient>
<linearGradient id="paint3_linear_37264_58480" x1="41" y1="93" x2="41" y2="107" gradientUnits="userSpaceOnUse">
<stop stop-color="white"/>
<stop offset="0.0001" stop-color="#878787"/>
<stop offset="1" stop-color="#575757" stop-opacity="0"/>
</linearGradient>
<linearGradient id="paint4_linear_37264_58480" x1="44" y1="91" x2="44" y2="107" gradientUnits="userSpaceOnUse">
<stop stop-color="white"/>
<stop offset="0.0001" stop-color="#878787"/>
<stop offset="1" stop-color="#575757" stop-opacity="0"/>
</linearGradient>
<linearGradient id="paint5_linear_37264_58480" x1="47" y1="91" x2="47" y2="107" gradientUnits="userSpaceOnUse">
<stop stop-color="white"/>
<stop offset="0.0001" stop-color="#878787"/>
<stop offset="1" stop-color="#575757" stop-opacity="0"/>
</linearGradient>
<linearGradient id="paint6_linear_37264_58480" x1="50" y1="91" x2="50" y2="107" gradientUnits="userSpaceOnUse">
<stop stop-color="white"/>
<stop offset="0.0001" stop-color="#878787"/>
<stop offset="1" stop-color="#575757" stop-opacity="0"/>
</linearGradient>
<linearGradient id="paint7_linear_37264_58480" x1="53" y1="91" x2="53" y2="107" gradientUnits="userSpaceOnUse">
<stop stop-color="white"/>
<stop offset="0.0001" stop-color="#878787"/>
<stop offset="1" stop-color="#575757" stop-opacity="0"/>
</linearGradient>
<linearGradient id="paint8_linear_37264_58480" x1="56" y1="93" x2="56" y2="107" gradientUnits="userSpaceOnUse">
<stop stop-color="white"/>
<stop offset="0.0001" stop-color="#878787"/>
<stop offset="1" stop-color="#575757" stop-opacity="0"/>
</linearGradient>
<linearGradient id="paint9_linear_37264_58480" x1="59" y1="93" x2="59" y2="107" gradientUnits="userSpaceOnUse">
<stop stop-color="white"/>
<stop offset="0.0001" stop-color="#878787"/>
<stop offset="1" stop-color="#575757" stop-opacity="0"/>
</linearGradient>
<linearGradient id="paint10_linear_37264_58480" x1="62" y1="96" x2="62" y2="107" gradientUnits="userSpaceOnUse">
<stop stop-color="white"/>
<stop offset="0.0001" stop-color="#878787"/>
<stop offset="1" stop-color="#575757" stop-opacity="0"/>
</linearGradient>
<linearGradient id="paint11_linear_37264_58480" x1="65" y1="96" x2="65" y2="107" gradientUnits="userSpaceOnUse">
<stop stop-color="white"/>
<stop offset="0.0001" stop-color="#878787"/>
<stop offset="1" stop-color="#575757" stop-opacity="0"/>
</linearGradient>
<linearGradient id="paint12_linear_37264_58480" x1="68" y1="98" x2="68" y2="107" gradientUnits="userSpaceOnUse">
<stop stop-color="white"/>
<stop offset="0.0001" stop-color="#878787"/>
<stop offset="1" stop-color="#575757" stop-opacity="0"/>
</linearGradient>
<linearGradient id="paint13_linear_37264_58480" x1="71" y1="98" x2="71" y2="107" gradientUnits="userSpaceOnUse">
<stop stop-color="white"/>
<stop offset="0.0001" stop-color="#878787"/>
<stop offset="1" stop-color="#575757" stop-opacity="0"/>
</linearGradient>
<linearGradient id="paint14_linear_37264_58480" x1="74" y1="99" x2="74" y2="107" gradientUnits="userSpaceOnUse">
<stop stop-color="white"/>
<stop offset="0.0001" stop-color="#878787"/>
<stop offset="1" stop-color="#575757" stop-opacity="0"/>
</linearGradient>
<linearGradient id="paint15_linear_37264_58480" x1="77" y1="99" x2="77" y2="107" gradientUnits="userSpaceOnUse">
<stop stop-color="white"/>
<stop offset="0.0001" stop-color="#878787"/>
<stop offset="1" stop-color="#575757" stop-opacity="0"/>
</linearGradient>
<linearGradient id="paint16_linear_37264_58480" x1="80" y1="99" x2="80" y2="107" gradientUnits="userSpaceOnUse">
<stop stop-color="white"/>
<stop offset="0.0001" stop-color="#878787"/>
<stop offset="1" stop-color="#575757" stop-opacity="0"/>
</linearGradient>
<linearGradient id="paint17_linear_37264_58480" x1="83" y1="99" x2="83" y2="107" gradientUnits="userSpaceOnUse">
<stop stop-color="white"/>
<stop offset="0.0001" stop-color="#878787"/>
<stop offset="1" stop-color="#575757" stop-opacity="0"/>
</linearGradient>
<linearGradient id="paint18_linear_37264_58480" x1="86" y1="99" x2="86" y2="107" gradientUnits="userSpaceOnUse">
<stop stop-color="white"/>
<stop offset="0.0001" stop-color="#878787"/>
<stop offset="1" stop-color="#575757" stop-opacity="0"/>
</linearGradient>
<linearGradient id="paint19_linear_37264_58480" x1="89" y1="99" x2="89" y2="107" gradientUnits="userSpaceOnUse">
<stop stop-color="white"/>
<stop offset="0.0001" stop-color="#878787"/>
<stop offset="1" stop-color="#575757" stop-opacity="0"/>
</linearGradient>
<linearGradient id="paint20_linear_37264_58480" x1="92" y1="98" x2="92" y2="107" gradientUnits="userSpaceOnUse">
<stop stop-color="white"/>
<stop offset="0.0001" stop-color="#878787"/>
<stop offset="1" stop-color="#575757" stop-opacity="0"/>
</linearGradient>
<linearGradient id="paint21_linear_37264_58480" x1="95" y1="98" x2="95" y2="107" gradientUnits="userSpaceOnUse">
<stop stop-color="white"/>
<stop offset="0.0001" stop-color="#878787"/>
<stop offset="1" stop-color="#575757" stop-opacity="0"/>
</linearGradient>
<linearGradient id="paint22_linear_37264_58480" x1="98" y1="97" x2="98" y2="107" gradientUnits="userSpaceOnUse">
<stop stop-color="white"/>
<stop offset="0.0001" stop-color="#878787"/>
<stop offset="1" stop-color="#575757" stop-opacity="0"/>
</linearGradient>
<linearGradient id="paint23_linear_37264_58480" x1="101" y1="97" x2="101" y2="107" gradientUnits="userSpaceOnUse">
<stop stop-color="white"/>
<stop offset="0.0001" stop-color="#878787"/>
<stop offset="1" stop-color="#575757" stop-opacity="0"/>
</linearGradient>
<linearGradient id="paint24_linear_37264_58480" x1="104" y1="96" x2="104" y2="107" gradientUnits="userSpaceOnUse">
<stop stop-color="white"/>
<stop offset="0.0001" stop-color="#878787"/>
<stop offset="1" stop-color="#575757" stop-opacity="0"/>
</linearGradient>
<linearGradient id="paint25_linear_37264_58480" x1="107" y1="96" x2="107" y2="107" gradientUnits="userSpaceOnUse">
<stop stop-color="white"/>
<stop offset="0.0001" stop-color="#878787"/>
<stop offset="1" stop-color="#575757" stop-opacity="0"/>
</linearGradient>
<linearGradient id="paint26_linear_37264_58480" x1="110" y1="95" x2="110" y2="107" gradientUnits="userSpaceOnUse">
<stop stop-color="white"/>
<stop offset="0.0001" stop-color="#878787"/>
<stop offset="1" stop-color="#575757" stop-opacity="0"/>
</linearGradient>
<linearGradient id="paint27_linear_37264_58480" x1="113" y1="95" x2="113" y2="107" gradientUnits="userSpaceOnUse">
<stop stop-color="white"/>
<stop offset="0.0001" stop-color="#878787"/>
<stop offset="1" stop-color="#575757" stop-opacity="0"/>
</linearGradient>
<linearGradient id="paint28_linear_37264_58480" x1="116" y1="93" x2="116" y2="107" gradientUnits="userSpaceOnUse">
<stop stop-color="white"/>
<stop offset="0.0001" stop-color="#878787"/>
<stop offset="1" stop-color="#575757" stop-opacity="0"/>
</linearGradient>
<linearGradient id="paint29_linear_37264_58480" x1="119" y1="93" x2="119" y2="107" gradientUnits="userSpaceOnUse">
<stop stop-color="white"/>
<stop offset="0.0001" stop-color="#878787"/>
<stop offset="1" stop-color="#575757" stop-opacity="0"/>
</linearGradient>
<linearGradient id="paint30_linear_37264_58480" x1="122" y1="90" x2="122" y2="107" gradientUnits="userSpaceOnUse">
<stop stop-color="white"/>
<stop offset="0.0001" stop-color="#878787"/>
<stop offset="1" stop-color="#575757" stop-opacity="0"/>
</linearGradient>
<linearGradient id="paint31_linear_37264_58480" x1="125" y1="90" x2="125" y2="107" gradientUnits="userSpaceOnUse">
<stop stop-color="white"/>
<stop offset="0.0001" stop-color="#878787"/>
<stop offset="1" stop-color="#575757" stop-opacity="0"/>
</linearGradient>
<linearGradient id="paint32_linear_37264_58480" x1="128" y1="87" x2="128" y2="107" gradientUnits="userSpaceOnUse">
<stop stop-color="white"/>
<stop offset="0.0001" stop-color="#878787"/>
<stop offset="1" stop-color="#575757" stop-opacity="0"/>
</linearGradient>
<linearGradient id="paint33_linear_37264_58480" x1="131" y1="87" x2="131" y2="107" gradientUnits="userSpaceOnUse">
<stop stop-color="white"/>
<stop offset="0.0001" stop-color="#878787"/>
<stop offset="1" stop-color="#575757" stop-opacity="0"/>
</linearGradient>
<linearGradient id="paint34_linear_37264_58480" x1="134" y1="86" x2="134" y2="107" gradientUnits="userSpaceOnUse">
<stop stop-color="white"/>
<stop offset="0.0001" stop-color="#878787"/>
<stop offset="1" stop-color="#575757" stop-opacity="0"/>
</linearGradient>
<linearGradient id="paint35_linear_37264_58480" x1="137" y1="86" x2="137" y2="107" gradientUnits="userSpaceOnUse">
<stop stop-color="white"/>
<stop offset="0.0001" stop-color="#878787"/>
<stop offset="1" stop-color="#575757" stop-opacity="0"/>
</linearGradient>
<linearGradient id="paint36_linear_37264_58480" x1="140" y1="86" x2="140" y2="107" gradientUnits="userSpaceOnUse">
<stop stop-color="white"/>
<stop offset="0.0001" stop-color="#878787"/>
<stop offset="1" stop-color="#575757" stop-opacity="0"/>
</linearGradient>
<linearGradient id="paint37_linear_37264_58480" x1="143" y1="86" x2="143" y2="107" gradientUnits="userSpaceOnUse">
<stop stop-color="white"/>
<stop offset="0.0001" stop-color="#878787"/>
<stop offset="1" stop-color="#575757" stop-opacity="0"/>
</linearGradient>
<linearGradient id="paint38_linear_37264_58480" x1="146" y1="87" x2="146" y2="107" gradientUnits="userSpaceOnUse">
<stop stop-color="white"/>
<stop offset="0.0001" stop-color="#878787"/>
<stop offset="1" stop-color="#575757" stop-opacity="0"/>
</linearGradient>
<linearGradient id="paint39_linear_37264_58480" x1="149" y1="87" x2="149" y2="107" gradientUnits="userSpaceOnUse">
<stop stop-color="white"/>
<stop offset="0.0001" stop-color="#878787"/>
<stop offset="1" stop-color="#575757" stop-opacity="0"/>
</linearGradient>
<linearGradient id="paint40_linear_37264_58480" x1="152" y1="90" x2="152" y2="107" gradientUnits="userSpaceOnUse">
<stop stop-color="white"/>
<stop offset="0.0001" stop-color="#878787"/>
<stop offset="1" stop-color="#575757" stop-opacity="0"/>
</linearGradient>
<linearGradient id="paint41_linear_37264_58480" x1="155" y1="90" x2="155" y2="107" gradientUnits="userSpaceOnUse">
<stop stop-color="white"/>
<stop offset="0.0001" stop-color="#878787"/>
<stop offset="1" stop-color="#575757" stop-opacity="0"/>
</linearGradient>
<linearGradient id="paint42_linear_37264_58480" x1="158" y1="91" x2="158" y2="107" gradientUnits="userSpaceOnUse">
<stop stop-color="white"/>
<stop offset="0.0001" stop-color="#878787"/>
<stop offset="1" stop-color="#575757" stop-opacity="0"/>
</linearGradient>
<linearGradient id="paint43_linear_37264_58480" x1="161" y1="91" x2="161" y2="107" gradientUnits="userSpaceOnUse">
<stop stop-color="white"/>
<stop offset="0.0001" stop-color="#878787"/>
<stop offset="1" stop-color="#575757" stop-opacity="0"/>
</linearGradient>
<linearGradient id="paint44_linear_37264_58480" x1="164" y1="92" x2="164" y2="107" gradientUnits="userSpaceOnUse">
<stop stop-color="white"/>
<stop offset="0.0001" stop-color="#878787"/>
<stop offset="1" stop-color="#575757" stop-opacity="0"/>
</linearGradient>
<linearGradient id="paint45_linear_37264_58480" x1="167" y1="92" x2="167" y2="107" gradientUnits="userSpaceOnUse">
<stop stop-color="white"/>
<stop offset="0.0001" stop-color="#878787"/>
<stop offset="1" stop-color="#575757" stop-opacity="0"/>
</linearGradient>
<linearGradient id="paint46_linear_37264_58480" x1="170" y1="91" x2="170" y2="107" gradientUnits="userSpaceOnUse">
<stop stop-color="white"/>
<stop offset="0.0001" stop-color="#878787"/>
<stop offset="1" stop-color="#575757" stop-opacity="0"/>
</linearGradient>
<linearGradient id="paint47_linear_37264_58480" x1="173" y1="91" x2="173" y2="107" gradientUnits="userSpaceOnUse">
<stop stop-color="white"/>
<stop offset="0.0001" stop-color="#878787"/>
<stop offset="1" stop-color="#575757" stop-opacity="0"/>
</linearGradient>
<linearGradient id="paint48_linear_37264_58480" x1="176" y1="90" x2="176" y2="107" gradientUnits="userSpaceOnUse">
<stop stop-color="white"/>
<stop offset="0.0001" stop-color="#878787"/>
<stop offset="1" stop-color="#575757" stop-opacity="0"/>
</linearGradient>
<linearGradient id="paint49_linear_37264_58480" x1="179" y1="90" x2="179" y2="107" gradientUnits="userSpaceOnUse">
<stop stop-color="white"/>
<stop offset="0.0001" stop-color="#878787"/>
<stop offset="1" stop-color="#575757" stop-opacity="0"/>
</linearGradient>
<linearGradient id="paint50_linear_37264_58480" x1="182" y1="90" x2="182" y2="107" gradientUnits="userSpaceOnUse">
<stop stop-color="white"/>
<stop offset="0.0001" stop-color="#878787"/>
<stop offset="1" stop-color="#575757" stop-opacity="0"/>
</linearGradient>
<linearGradient id="paint51_linear_37264_58480" x1="185" y1="90" x2="185" y2="107" gradientUnits="userSpaceOnUse">
<stop stop-color="white"/>
<stop offset="0.0001" stop-color="#878787"/>
<stop offset="1" stop-color="#575757" stop-opacity="0"/>
</linearGradient>
<linearGradient id="paint52_linear_37264_58480" x1="188" y1="89" x2="188" y2="107" gradientUnits="userSpaceOnUse">
<stop stop-color="white"/>
<stop offset="0.0001" stop-color="#878787"/>
<stop offset="1" stop-color="#575757" stop-opacity="0"/>
</linearGradient>
<linearGradient id="paint53_linear_37264_58480" x1="191" y1="89" x2="191" y2="107" gradientUnits="userSpaceOnUse">
<stop stop-color="white"/>
<stop offset="0.0001" stop-color="#878787"/>
<stop offset="1" stop-color="#575757" stop-opacity="0"/>
</linearGradient>
<linearGradient id="paint54_linear_37264_58480" x1="194" y1="90" x2="194" y2="107" gradientUnits="userSpaceOnUse">
<stop stop-color="white"/>
<stop offset="0.0001" stop-color="#878787"/>
<stop offset="1" stop-color="#575757" stop-opacity="0"/>
</linearGradient>
<linearGradient id="paint55_linear_37264_58480" x1="197" y1="90" x2="197" y2="107" gradientUnits="userSpaceOnUse">
<stop stop-color="white"/>
<stop offset="0.0001" stop-color="#878787"/>
<stop offset="1" stop-color="#575757" stop-opacity="0"/>
</linearGradient>
<linearGradient id="paint56_linear_37264_58480" x1="200" y1="90" x2="200" y2="107" gradientUnits="userSpaceOnUse">
<stop stop-color="white"/>
<stop offset="0.0001" stop-color="#878787"/>
<stop offset="1" stop-color="#575757" stop-opacity="0"/>
</linearGradient>
<linearGradient id="paint57_linear_37264_58480" x1="203" y1="90" x2="203" y2="107" gradientUnits="userSpaceOnUse">
<stop stop-color="white"/>
<stop offset="0.0001" stop-color="#878787"/>
<stop offset="1" stop-color="#575757" stop-opacity="0"/>
</linearGradient>
<linearGradient id="paint58_linear_37264_58480" x1="206" y1="92" x2="206" y2="107" gradientUnits="userSpaceOnUse">
<stop stop-color="white"/>
<stop offset="0.0001" stop-color="#878787"/>
<stop offset="1" stop-color="#575757" stop-opacity="0"/>
</linearGradient>
<linearGradient id="paint59_linear_37264_58480" x1="209" y1="92" x2="209" y2="107" gradientUnits="userSpaceOnUse">
<stop stop-color="white"/>
<stop offset="0.0001" stop-color="#878787"/>
<stop offset="1" stop-color="#575757" stop-opacity="0"/>
</linearGradient>
<linearGradient id="paint60_linear_37264_58480" x1="212" y1="94" x2="212" y2="107" gradientUnits="userSpaceOnUse">
<stop stop-color="white"/>
<stop offset="0.0001" stop-color="#878787"/>
<stop offset="1" stop-color="#575757" stop-opacity="0"/>
</linearGradient>
<linearGradient id="paint61_linear_37264_58480" x1="215" y1="94" x2="215" y2="107" gradientUnits="userSpaceOnUse">
<stop stop-color="white"/>
<stop offset="0.0001" stop-color="#878787"/>
<stop offset="1" stop-color="#575757" stop-opacity="0"/>
</linearGradient>
<linearGradient id="paint62_linear_37264_58480" x1="218" y1="94" x2="218" y2="107" gradientUnits="userSpaceOnUse">
<stop stop-color="white"/>
<stop offset="0.0001" stop-color="#878787"/>
<stop offset="1" stop-color="#575757" stop-opacity="0"/>
</linearGradient>
<linearGradient id="paint63_linear_37264_58480" x1="221" y1="94" x2="221" y2="107" gradientUnits="userSpaceOnUse">
<stop stop-color="white"/>
<stop offset="0.0001" stop-color="#878787"/>
<stop offset="1" stop-color="#575757" stop-opacity="0"/>
</linearGradient>
<linearGradient id="paint64_linear_37264_58480" x1="126.5" y1="17.0254" x2="126.5" y2="77.3993" gradientUnits="userSpaceOnUse">
<stop stop-color="#F53D26"/>
<stop offset="1" stop-color="#F53D26" stop-opacity="0"/>
</linearGradient>
<clipPath id="clip0_37264_58480">
<rect width="222" height="109" fill="white"/>
</clipPath>
</defs>
</svg>
