<svg width="178" height="47" viewBox="0 0 178 47" fill="none" xmlns="http://www.w3.org/2000/svg">
<g opacity="0.6">
<path fill-rule="evenodd" clip-rule="evenodd" d="M160.372 20.2755C159.643 20.3583 158.754 20.5951 157.781 21.2733C156.305 22.3016 154.691 24.3031 153.073 28.1566L153.07 28.1635C152.697 29.0885 152.345 29.625 152.037 29.9126C151.75 30.1796 151.515 30.2233 151.296 30.1863C151.038 30.1428 150.731 29.9734 150.362 29.6653C149.999 29.3619 149.628 28.9689 149.234 28.5431C149.202 28.5084 149.169 28.4735 149.137 28.4385C148.78 28.0529 148.405 27.6471 148.028 27.3062C147.62 26.9384 147.163 26.6008 146.667 26.4494C146.135 26.2875 145.583 26.3473 145.062 26.7258C144.573 27.0812 144.144 27.6944 143.746 28.5705C142.96 30.2352 142.202 31.3312 141.485 31.9818C140.78 32.6211 140.139 32.8114 139.534 32.7296C138.902 32.6443 138.213 32.2502 137.462 31.5178C136.715 30.7905 135.948 29.7707 135.159 28.518C134.751 27.8429 134.314 27.3684 133.835 27.0807C133.344 26.7856 132.84 26.7066 132.348 26.7713C131.869 26.8342 131.415 27.0305 130.999 27.2601C130.632 27.4633 130.265 27.7097 129.92 27.9416C129.876 27.9712 129.832 28.0006 129.789 28.0296C129.395 28.2929 129.03 28.5301 128.674 28.7027C128.319 28.875 128.007 28.9655 127.723 28.9642C127.22 28.962 126.577 28.6598 125.844 27.2446L125.844 27.2446L125.84 27.2368C125.019 25.716 124.191 24.6828 123.342 23.9718C122.489 23.2567 121.636 22.8852 120.796 22.6601C120.206 22.5021 119.601 22.4131 119.03 22.329C118.812 22.297 118.6 22.2657 118.395 22.2316C117.629 22.1044 116.9 21.9315 116.171 21.5463C115.247 21.038 114.311 21.0833 113.422 21.4463C112.554 21.8006 111.712 22.4623 110.908 23.2163C110.25 23.8333 109.589 24.5409 108.939 25.2357C108.792 25.3927 108.646 25.5491 108.501 25.7036C107.702 26.552 106.924 27.3486 106.156 27.9585L106.156 27.9584L106.148 27.9651C105.513 28.491 104.891 28.5776 104.223 28.4733C103.701 28.3916 103.192 28.2039 102.63 27.9968C102.416 27.918 102.195 27.8364 101.962 27.7567C101.165 27.4838 100.262 27.2501 99.3325 27.4835C98.3836 27.7218 97.5153 28.4158 96.708 29.7515C96.6043 29.9161 96.5009 30.0804 96.3978 30.2443C94.9004 32.6241 93.4584 34.9159 92.0231 36.564C91.257 37.4437 90.5183 38.1092 89.8036 38.5054C89.0996 38.8956 88.4419 39.0133 87.7975 38.8436C87.1612 38.6672 86.4632 38.1633 85.7028 37.3887C84.9497 36.6216 84.1837 35.6403 83.402 34.5843C83.1365 34.2257 82.8682 33.8569 82.5986 33.4865C82.0834 32.7785 81.5635 32.064 81.0495 31.4009C80.2653 30.3891 79.463 29.4537 78.6524 28.7824L78.6525 28.7824L78.6443 28.7759C76.9173 27.4052 75.197 27.1698 73.5009 27.5135C71.9121 27.8354 70.3383 28.669 68.8157 29.4754C68.7547 29.5077 68.6938 29.54 68.633 29.5721L68.6329 29.5721L68.6252 29.5764C67.079 30.43 65.5794 31.235 64.1009 31.5346C62.6609 31.8264 61.2535 31.6359 59.8524 30.4756L59.8525 30.4755L59.8443 30.469C59.0894 29.8698 58.3178 29.0063 57.5231 28.0315C57.1813 27.6122 56.8247 27.1585 56.4653 26.7013C56.0182 26.1325 55.5669 25.5583 55.1347 25.0384C54.3386 24.0808 53.5168 23.1914 52.6795 22.596C51.843 22.0012 50.9107 21.6444 49.9363 21.9124C48.9747 22.1678 48.0986 22.965 47.2981 23.9599C46.4843 24.9714 45.6849 26.2702 44.899 27.6503C44.457 28.4265 44.0197 29.2269 43.5848 30.0228C42.4533 32.0939 41.3383 34.1345 40.2013 35.6385L40.2012 35.6384L40.1953 35.6467C39.4871 36.6241 38.8233 36.9741 38.2129 37.0559C37.5719 37.1419 36.8933 36.948 36.1222 36.6337C35.9127 36.5483 35.6921 36.4517 35.4648 36.3522C34.9035 36.1064 34.3007 35.8424 33.7195 35.6835C32.8676 35.4506 31.948 35.4031 31.0292 35.9088C30.2774 36.3069 29.5348 36.7942 28.8195 37.2637C28.7507 37.3089 28.682 37.3539 28.6137 37.3987C27.8237 37.9162 27.0675 38.4003 26.3198 38.7538C25.5737 39.1066 24.8695 39.3126 24.1877 39.3012C23.5195 39.2899 22.8339 39.0693 22.115 38.4999C21.4983 37.9892 20.8722 37.4581 20.2397 36.9216C17.7652 34.8228 15.193 32.6412 12.7085 31.2695L12.7085 31.2694L12.7007 31.2653C11.7616 30.7684 10.8211 30.7715 9.94152 31.0919C9.08125 31.4053 8.28694 32.0177 7.57878 32.7305C6.24954 34.0685 5.11164 35.8795 4.32336 37.1341C4.27319 37.2139 4.22442 37.2915 4.17712 37.3666L3.97373 37.6895C3.67213 37.5711 3.34373 37.5062 3.00016 37.5062C1.5274 37.5062 0.333496 38.7001 0.333496 40.1728C0.333496 41.6456 1.5274 42.8395 3.00016 42.8395C4.47292 42.8395 5.66683 41.6456 5.66683 40.1728C5.66683 39.4033 5.34085 38.7098 4.81944 38.2231L5.02321 37.8997C5.06741 37.8295 5.11258 37.7577 5.1587 37.6843C5.95736 36.4141 7.04078 34.6909 8.28821 33.4353C8.94672 32.7724 9.61907 32.2737 10.2838 32.0315C10.928 31.7968 11.5696 31.7995 12.2292 32.1472C14.6158 33.4656 17.0829 35.5573 19.548 37.6471C20.1931 38.194 20.838 38.7407 21.4812 39.2735L21.4812 39.2736L21.4893 39.28C22.3689 39.9781 23.2654 40.2858 24.1709 40.301C25.0642 40.316 25.9266 40.0459 26.7472 39.6579C27.5662 39.2707 28.3767 38.7494 29.1616 38.2352C29.2288 38.1912 29.2959 38.1472 29.3627 38.1034C30.0871 37.628 30.7916 37.1658 31.5007 36.7907L31.5007 36.7907L31.5085 36.7864C32.1217 36.4479 32.7506 36.4553 33.4558 36.6481C33.9637 36.7869 34.4556 37.0026 34.9849 37.2347C35.2285 37.3416 35.4801 37.4519 35.7448 37.5598C36.5404 37.8841 37.4284 38.17 38.3458 38.0471C39.2925 37.9201 40.1778 37.3736 41.0021 36.2375C42.186 34.6705 43.357 32.5271 44.5011 30.4329C44.9274 29.6527 45.3499 28.8793 45.768 28.1451C46.5488 26.7739 47.316 25.533 48.0772 24.5868C48.851 23.625 49.5573 23.047 50.1947 22.8784L50.1999 22.877C50.7579 22.723 51.3747 22.8952 52.1 23.411C52.8252 23.9267 53.5784 24.7305 54.3657 25.6776C54.8054 26.2066 55.229 26.7462 55.6582 27.2929C56.0135 27.7454 56.3727 28.2029 56.748 28.6634C57.5479 29.6446 58.3749 30.5786 59.2185 31.249C60.8828 32.6254 62.6074 32.8576 64.2995 32.5147C65.9528 32.1797 67.5852 31.2928 69.1046 30.454C69.1059 30.4533 69.1072 30.4525 69.1085 30.4518L69.2223 30.3917C70.7964 29.5585 72.2557 28.7861 73.6995 28.4936C75.1353 28.2026 76.5471 28.3898 78.0185 29.5559C78.7401 30.1543 79.4865 31.0166 80.2591 32.0135C80.7646 32.6657 81.2678 33.3572 81.7767 34.0567C82.0485 34.4302 82.322 34.806 82.5983 35.1793C83.3832 36.2397 84.184 37.269 84.9892 38.0892C85.7861 38.901 86.6373 39.5608 87.5338 39.8082L87.5389 39.8096C88.4936 40.0622 89.4183 39.8623 90.2884 39.38C91.1487 38.9031 91.9766 38.1401 92.7772 37.2208C94.2661 35.5111 95.7484 33.1548 97.2298 30.7997C97.3387 30.6266 97.4476 30.4535 97.5565 30.2806L97.5566 30.2807L97.5615 30.2725C98.2868 29.0712 98.9677 28.6061 99.5761 28.4533C100.205 28.2954 100.869 28.4393 101.638 28.7028C101.817 28.7642 102.006 28.8337 102.2 28.9056C102.791 29.1235 103.439 29.3629 104.069 29.4613C104.958 29.6004 105.885 29.4795 106.782 28.7386C107.612 28.0791 108.433 27.2351 109.229 26.389C109.38 26.2286 109.53 26.0683 109.679 25.9088C110.327 25.2154 110.961 24.538 111.592 23.9456C112.372 23.2145 113.105 22.6556 113.799 22.3722C114.471 22.0981 115.084 22.0884 115.692 22.4241L115.692 22.4242L115.7 22.4283C116.569 22.8884 117.422 23.0837 118.231 23.2181C118.476 23.2588 118.711 23.2934 118.941 23.3273C119.491 23.408 120.007 23.484 120.537 23.6261C121.264 23.8207 121.978 24.1333 122.7 24.7382C123.426 25.3467 124.18 26.2682 124.958 27.7081C125.759 29.2532 126.665 29.9596 127.719 29.9642C128.214 29.9664 128.683 29.8096 129.111 29.6025C129.537 29.3958 129.955 29.1217 130.345 28.8605C130.389 28.8308 130.433 28.8013 130.477 28.772C130.827 28.5367 131.156 28.3161 131.483 28.1354C131.85 27.9327 132.177 27.8023 132.478 27.7628C132.764 27.7252 133.038 27.7681 133.32 27.9379C133.614 28.1146 133.948 28.4466 134.305 29.0391L134.31 29.0472C135.12 30.3324 135.936 31.4277 136.764 32.2341C137.587 33.0361 138.465 33.5943 139.4 33.7206C140.362 33.8506 141.287 33.5117 142.157 32.7225C143.014 31.9449 143.84 30.714 144.652 28.9943L144.656 28.9869C145.025 28.1721 145.366 27.7414 145.65 27.5347C145.903 27.3506 146.127 27.3305 146.375 27.406C146.658 27.4921 146.982 27.7092 147.357 28.0482C147.699 28.3574 148.044 28.7303 148.409 29.1239L148.5 29.2227C148.889 29.6425 149.301 30.082 149.721 30.4325C150.134 30.7783 150.608 31.0843 151.129 31.1724C151.69 31.267 152.231 31.0985 152.719 30.6442C153.183 30.2111 153.602 29.5186 153.996 28.5409C155.577 24.7773 157.095 22.97 158.353 22.0937C159.112 21.5645 159.796 21.36 160.39 21.2809C160.644 22.4899 161.716 23.3978 163 23.3978C164.473 23.3978 165.667 22.2039 165.667 20.7311C165.667 19.2584 164.473 18.0645 163 18.0645C161.683 18.0645 160.588 19.0198 160.372 20.2755Z" fill="url(#paint0_linear_37268_57854)"/>
<path opacity="0.7" d="M3 31.7266L163 31.7266" stroke="url(#paint1_linear_37268_57854)" stroke-dasharray="2 2"/>
</g>
<defs>
<linearGradient id="paint0_linear_37268_57854" x1="163" y1="30.3497" x2="3.00016" y2="30.3497" gradientUnits="userSpaceOnUse">
<stop stop-color="#5CFFC4"/>
<stop offset="1" stop-color="#5CFFC4" stop-opacity="0"/>
</linearGradient>
<linearGradient id="paint1_linear_37268_57854" x1="3" y1="32.2265" x2="163" y2="32.2268" gradientUnits="userSpaceOnUse">
<stop stop-color="white" stop-opacity="0"/>
<stop offset="1" stop-color="white"/>
</linearGradient>
</defs>
</svg>
