<svg width="223" height="109" viewBox="0 0 223 109" fill="none" xmlns="http://www.w3.org/2000/svg">
<g clip-path="url(#clip0_37265_57562)">
<g opacity="0.25">
<rect width="2" height="11" transform="matrix(-1 0 0 1 223 96)" fill="url(#paint0_linear_37265_57562)"/>
<rect width="2" height="11" transform="matrix(-1 0 0 1 220 96)" fill="url(#paint1_linear_37265_57562)"/>
<rect width="2" height="14" transform="matrix(-1 0 0 1 217 93)" fill="url(#paint2_linear_37265_57562)"/>
<rect width="2" height="14" transform="matrix(-1 0 0 1 214 93)" fill="url(#paint3_linear_37265_57562)"/>
<rect width="2" height="16" transform="matrix(-1 0 0 1 211 91)" fill="url(#paint4_linear_37265_57562)"/>
<rect width="2" height="16" transform="matrix(-1 0 0 1 208 91)" fill="url(#paint5_linear_37265_57562)"/>
<rect width="2" height="16" transform="matrix(-1 0 0 1 205 91)" fill="url(#paint6_linear_37265_57562)"/>
<rect width="2" height="16" transform="matrix(-1 0 0 1 202 91)" fill="url(#paint7_linear_37265_57562)"/>
<rect width="2" height="14" transform="matrix(-1 0 0 1 199 93)" fill="url(#paint8_linear_37265_57562)"/>
<rect width="2" height="14" transform="matrix(-1 0 0 1 196 93)" fill="url(#paint9_linear_37265_57562)"/>
<rect width="2" height="11" transform="matrix(-1 0 0 1 193 96)" fill="url(#paint10_linear_37265_57562)"/>
<rect width="2" height="11" transform="matrix(-1 0 0 1 190 96)" fill="url(#paint11_linear_37265_57562)"/>
<rect width="2" height="9" transform="matrix(-1 0 0 1 187 98)" fill="url(#paint12_linear_37265_57562)"/>
<rect width="2" height="9" transform="matrix(-1 0 0 1 184 98)" fill="url(#paint13_linear_37265_57562)"/>
<rect width="2" height="8" transform="matrix(-1 0 0 1 181 99)" fill="url(#paint14_linear_37265_57562)"/>
<rect width="2" height="8" transform="matrix(-1 0 0 1 178 99)" fill="url(#paint15_linear_37265_57562)"/>
<rect width="2" height="8" transform="matrix(-1 0 0 1 175 99)" fill="url(#paint16_linear_37265_57562)"/>
<rect width="2" height="8" transform="matrix(-1 0 0 1 172 99)" fill="url(#paint17_linear_37265_57562)"/>
<rect width="2" height="8" transform="matrix(-1 0 0 1 169 99)" fill="url(#paint18_linear_37265_57562)"/>
<rect width="2" height="8" transform="matrix(-1 0 0 1 166 99)" fill="url(#paint19_linear_37265_57562)"/>
<rect width="2" height="9" transform="matrix(-1 0 0 1 163 98)" fill="url(#paint20_linear_37265_57562)"/>
<rect width="2" height="9" transform="matrix(-1 0 0 1 160 98)" fill="url(#paint21_linear_37265_57562)"/>
<rect width="2" height="10" transform="matrix(-1 0 0 1 157 97)" fill="url(#paint22_linear_37265_57562)"/>
<rect width="2" height="10" transform="matrix(-1 0 0 1 154 97)" fill="url(#paint23_linear_37265_57562)"/>
<rect width="2" height="11" transform="matrix(-1 0 0 1 151 96)" fill="url(#paint24_linear_37265_57562)"/>
<rect width="2" height="11" transform="matrix(-1 0 0 1 148 96)" fill="url(#paint25_linear_37265_57562)"/>
<rect width="2" height="12" transform="matrix(-1 0 0 1 145 95)" fill="url(#paint26_linear_37265_57562)"/>
<rect width="2" height="12" transform="matrix(-1 0 0 1 142 95)" fill="url(#paint27_linear_37265_57562)"/>
<rect width="2" height="14" transform="matrix(-1 0 0 1 139 93)" fill="url(#paint28_linear_37265_57562)"/>
<rect width="2" height="14" transform="matrix(-1 0 0 1 136 93)" fill="url(#paint29_linear_37265_57562)"/>
<rect width="2" height="17" transform="matrix(-1 0 0 1 133 90)" fill="url(#paint30_linear_37265_57562)"/>
<rect width="2" height="17" transform="matrix(-1 0 0 1 130 90)" fill="url(#paint31_linear_37265_57562)"/>
<rect width="2" height="20" transform="matrix(-1 0 0 1 127 87)" fill="url(#paint32_linear_37265_57562)"/>
<rect width="2" height="20" transform="matrix(-1 0 0 1 124 87)" fill="url(#paint33_linear_37265_57562)"/>
<rect width="2" height="21" transform="matrix(-1 0 0 1 121 86)" fill="url(#paint34_linear_37265_57562)"/>
<rect width="2" height="21" transform="matrix(-1 0 0 1 118 86)" fill="url(#paint35_linear_37265_57562)"/>
<rect width="2" height="21" transform="matrix(-1 0 0 1 115 86)" fill="url(#paint36_linear_37265_57562)"/>
<rect width="2" height="21" transform="matrix(-1 0 0 1 112 86)" fill="url(#paint37_linear_37265_57562)"/>
<rect width="2" height="20" transform="matrix(-1 0 0 1 109 87)" fill="url(#paint38_linear_37265_57562)"/>
<rect width="2" height="20" transform="matrix(-1 0 0 1 106 87)" fill="url(#paint39_linear_37265_57562)"/>
<rect width="2" height="17" transform="matrix(-1 0 0 1 103 90)" fill="url(#paint40_linear_37265_57562)"/>
<rect width="2" height="17" transform="matrix(-1 0 0 1 100 90)" fill="url(#paint41_linear_37265_57562)"/>
<rect width="2" height="16" transform="matrix(-1 0 0 1 97 91)" fill="url(#paint42_linear_37265_57562)"/>
<rect width="2" height="16" transform="matrix(-1 0 0 1 94 91)" fill="url(#paint43_linear_37265_57562)"/>
<rect width="2" height="15" transform="matrix(-1 0 0 1 91 92)" fill="url(#paint44_linear_37265_57562)"/>
<rect width="2" height="15" transform="matrix(-1 0 0 1 88 92)" fill="url(#paint45_linear_37265_57562)"/>
<rect width="2" height="16" transform="matrix(-1 0 0 1 85 91)" fill="url(#paint46_linear_37265_57562)"/>
<rect width="2" height="16" transform="matrix(-1 0 0 1 82 91)" fill="url(#paint47_linear_37265_57562)"/>
<rect width="2" height="17" transform="matrix(-1 0 0 1 79 90)" fill="url(#paint48_linear_37265_57562)"/>
<rect width="2" height="17" transform="matrix(-1 0 0 1 76 90)" fill="url(#paint49_linear_37265_57562)"/>
<rect width="2" height="17" transform="matrix(-1 0 0 1 73 90)" fill="url(#paint50_linear_37265_57562)"/>
<rect width="2" height="17" transform="matrix(-1 0 0 1 70 90)" fill="url(#paint51_linear_37265_57562)"/>
<rect width="2" height="18" transform="matrix(-1 0 0 1 67 89)" fill="url(#paint52_linear_37265_57562)"/>
<rect width="2" height="18" transform="matrix(-1 0 0 1 64 89)" fill="url(#paint53_linear_37265_57562)"/>
<rect width="2" height="17" transform="matrix(-1 0 0 1 61 90)" fill="url(#paint54_linear_37265_57562)"/>
<rect width="2" height="17" transform="matrix(-1 0 0 1 58 90)" fill="url(#paint55_linear_37265_57562)"/>
<rect width="2" height="17" transform="matrix(-1 0 0 1 55 90)" fill="url(#paint56_linear_37265_57562)"/>
<rect width="2" height="17" transform="matrix(-1 0 0 1 52 90)" fill="url(#paint57_linear_37265_57562)"/>
<rect width="2" height="15" transform="matrix(-1 0 0 1 49 92)" fill="url(#paint58_linear_37265_57562)"/>
<rect width="2" height="15" transform="matrix(-1 0 0 1 46 92)" fill="url(#paint59_linear_37265_57562)"/>
<rect width="2" height="13" transform="matrix(-1 0 0 1 43 94)" fill="url(#paint60_linear_37265_57562)"/>
<rect width="2" height="13" transform="matrix(-1 0 0 1 40 94)" fill="url(#paint61_linear_37265_57562)"/>
<rect width="2" height="13" transform="matrix(-1 0 0 1 37 94)" fill="url(#paint62_linear_37265_57562)"/>
<rect width="2" height="13" transform="matrix(-1 0 0 1 34 94)" fill="url(#paint63_linear_37265_57562)"/>
</g>
<path d="M221.09 41.8507L223 44.5508V77.4006H221.09H211.699H200.557H189.257H178.115H166.814H155.513H144.372H133.071H121.929H110.628H99.4867H88.1858H76.885H65.7434H54.4425H43.3008H33.91H32L32 35.209L38 32.4007L42 37.1631L45.5 34.6507L52.5 43.2008L56 33.1394L65.7434 35.209L76.885 33.1394L88.1858 15.7031L93 21.1506L99.4867 17.0444L110.628 37.1631L121.929 51.9168L126.5 37.1631L129 43.2008L134 32.4007L144.372 37.1631L155.513 38.5044L166.814 25.0919L178.115 46.5518L184.5 51.9168L189.257 46.5518L195 47.7008L204 48.1508L207 52.6508L211.699 39.8456L218 49.5008L221.09 41.8507Z" fill="url(#paint64_linear_37265_57562)" fill-opacity="0.15"/>
<path d="M223 42.9969L222.045 45.5337L221.09 38.9361L219.916 43.2438L218.742 46.6266L217.568 50.0094L216.395 44.2578L215.221 38.5062L214.047 41.8889L212.873 45.2717L211.699 39.5201L211.003 36.2219L210.306 42.0581L209.61 47.8943L208.914 44.5962L208.217 41.298L207.521 47.1342L206.825 52.9704L206.128 49.6723L205.432 49.1144L204.736 52.2103L204.039 45.2468L203.343 44.689L202.647 45.0445L201.95 48.1404L201.254 47.5826L200.558 50.6785L199.145 48.344L197.732 49.6633L196.32 47.3288L194.907 47.7346L193.494 46.3136L192.082 47.6328L190.669 45.2984L189.257 46.6176L188.56 44.1985L187.864 45.4332L187.168 53.5302L186.471 44.2488L185.775 51.8891L185.079 53.1237L184.382 50.7046L183.686 51.4826L182.989 49.5202L182.293 50.7549L181.597 48.7925L180.9 53.2242L180.204 47.6081L179.508 47.9293L178.811 42.3132L178.115 46.2882L177.409 45.3913L176.702 43.1242L175.996 42.6841L175.29 40.417L174.583 40.8903L173.877 37.253L173.171 41.38L172.465 35.0025L171.758 35.0191L171.052 27.7281L170.346 35.9656L169.639 25.4776L168.933 28.6911L168.227 28.2509L167.52 25.0705L166.814 25.5437L166.108 20.9091L165.402 30.8895L164.695 27.1683L163.989 25.7307L163.283 30.6872L162.576 28.3362L161.87 31.4658L161.164 31.3984L160.457 33.6145L159.751 33.0904L159.045 35.3066L158.339 34.7824L157.632 35.6284L156.926 37.8446L156.22 37.3205L155.513 38.1665L154.121 38.454L152.728 33.2609L151.335 38.1156L149.942 42.0569L148.55 37.7772L147.157 35.3244L145.764 39.7224L144.372 36.8129L142.959 38.9272L141.546 36.4745L140.134 36.3052L138.721 38.4196L137.309 35.9668L135.896 35.7976L134.483 31.0613L133.071 30.892L132.374 36.4745L131.678 37.4897L130.982 40.7885L130.285 39.5201L129.589 40.5353L128.893 43.8341L128.196 42.5658L127.5 39.0138L126.804 36.8204L126.107 35.552L125.411 36.5672L124.715 42.1496L124.018 44.0898L123.322 44.1801L122.626 50.6875L121.929 51.7027L121.223 50.7721L120.517 48.0146L119.81 48.9108L119.104 45.6966L118.398 47.0496L117.691 43.8354L116.985 45.1884L116.279 41.9742L114.866 42.3965L114.16 44.2062L113.454 40.5353L112.747 42.345L112.041 38.6741L111.335 40.4838L110.628 36.8129L109.932 30.9767L109.236 34.2748L108.539 28.4386L107.843 31.7368L107.147 30.4678L106.45 24.6316L105.754 27.9297L105.058 26.6607L104.361 29.9589L103.665 24.1227L102.968 27.4208L102.272 21.5846L101.576 24.8828L100.879 19.0466L100.183 17.7776L99.4867 21.0757L98.0741 13.784L96.6614 18.182L95.2488 20.5681L93.8362 17.8436L92.4236 24.7969L91.011 20.0605L89.5984 17.336L88.1858 12.5996L87.4795 18.2666L86.7732 21.9217L86.0669 18.4544L85.3606 19.5542L84.6543 25.2212L83.948 21.7538L83.2417 18.2865L82.5354 23.9535L81.8291 25.0533L81.1228 21.5859L80.4165 27.2529L79.7102 28.3527L79.0039 34.0197L78.2976 30.5524L77.5913 31.6522L76.885 37.3192L75.4923 33.0131L74.0996 28.707L72.7069 33.5353L71.3142 29.2292L69.9214 34.0574L68.5287 32.4916L67.136 35.493L65.7433 33.0138L64.3307 35.7541L62.9181 33.0138L61.5055 34.8407L60.0929 30.2735L58.6803 34.8407L57.2677 39.4079L55.8551 30.2735L54.4425 34.8407L53.7461 33.6949L53.0498 47.9132L52.3534 42.2002L51.6571 45.6217L50.9607 39.9087L50.2644 34.1958L49.568 37.6172L48.8717 41.0386L48.1753 35.3257L47.479 29.6128L46.7826 33.0342L46.0863 36.4556L45.3899 30.7427L44.6935 25.0297L43.9972 38.5105L43.3008 37.3648L42.7139 41.1705L42.127 35.8419L41.5401 35.0805L40.9531 34.3191L40.3662 33.5577L39.7793 37.3635L39.1923 32.0349L38.6054 31.2735L38.0185 25.9449L37.4315 29.7506L36.8446 39.0486L36.2577 33.72L35.6708 37.5258L35.0838 36.7644L34.4969 36.0029L33.91 30.5792L32.955 35.2415H32" stroke="#F53D26" stroke-width="0.8"/>
<path opacity="0.8" d="M2.76953 0.15625V5.875H2.04688V1.05859L0.589844 1.58984V0.9375L2.65625 0.15625H2.76953ZM8.46484 2.57812V3.44531C8.46484 3.91146 8.42318 4.30469 8.33984 4.625C8.25651 4.94531 8.13672 5.20312 7.98047 5.39844C7.82422 5.59375 7.63542 5.73568 7.41406 5.82422C7.19531 5.91016 6.94792 5.95312 6.67188 5.95312C6.45312 5.95312 6.2513 5.92578 6.06641 5.87109C5.88151 5.81641 5.71484 5.72917 5.56641 5.60938C5.42057 5.48698 5.29557 5.32812 5.19141 5.13281C5.08724 4.9375 5.00781 4.70052 4.95312 4.42188C4.89844 4.14323 4.87109 3.81771 4.87109 3.44531V2.57812C4.87109 2.11198 4.91276 1.72135 4.99609 1.40625C5.08203 1.09115 5.20312 0.838542 5.35938 0.648438C5.51562 0.455729 5.70312 0.317708 5.92188 0.234375C6.14323 0.151042 6.39062 0.109375 6.66406 0.109375C6.88542 0.109375 7.08854 0.136719 7.27344 0.191406C7.46094 0.24349 7.6276 0.328125 7.77344 0.445312C7.91927 0.559896 8.04297 0.713542 8.14453 0.90625C8.2487 1.09635 8.32812 1.32943 8.38281 1.60547C8.4375 1.88151 8.46484 2.20573 8.46484 2.57812ZM7.73828 3.5625V2.45703C7.73828 2.20182 7.72266 1.97786 7.69141 1.78516C7.66276 1.58984 7.61979 1.42318 7.5625 1.28516C7.50521 1.14714 7.43229 1.03516 7.34375 0.949219C7.25781 0.863281 7.15755 0.800781 7.04297 0.761719C6.93099 0.720052 6.80469 0.699219 6.66406 0.699219C6.49219 0.699219 6.33984 0.731771 6.20703 0.796875C6.07422 0.859375 5.96224 0.959635 5.87109 1.09766C5.78255 1.23568 5.71484 1.41667 5.66797 1.64062C5.62109 1.86458 5.59766 2.13672 5.59766 2.45703V3.5625C5.59766 3.81771 5.61198 4.04297 5.64062 4.23828C5.67188 4.43359 5.71745 4.60286 5.77734 4.74609C5.83724 4.88672 5.91016 5.0026 5.99609 5.09375C6.08203 5.1849 6.18099 5.2526 6.29297 5.29688C6.40755 5.33854 6.53385 5.35938 6.67188 5.35938C6.84896 5.35938 7.00391 5.32552 7.13672 5.25781C7.26953 5.1901 7.38021 5.08464 7.46875 4.94141C7.5599 4.79557 7.6276 4.60938 7.67188 4.38281C7.71615 4.15365 7.73828 3.88021 7.73828 3.5625ZM10.1289 5.01562V5.59766C10.1289 5.83464 10.069 6.08464 9.94922 6.34766C9.82943 6.61328 9.66146 6.83464 9.44531 7.01172L9.03516 6.72656C9.11849 6.61198 9.1888 6.49479 9.24609 6.375C9.30339 6.25781 9.34635 6.13542 9.375 6.00781C9.40625 5.88281 9.42188 5.75 9.42188 5.60938V5.01562H10.1289ZM14.5586 4.33594C14.5586 4.68229 14.4779 4.97656 14.3164 5.21875C14.1576 5.45833 13.9414 5.64062 13.668 5.76562C13.3971 5.89062 13.0911 5.95312 12.75 5.95312C12.4089 5.95312 12.1016 5.89062 11.8281 5.76562C11.5547 5.64062 11.3385 5.45833 11.1797 5.21875C11.0208 4.97656 10.9414 4.68229 10.9414 4.33594C10.9414 4.10938 10.9844 3.90234 11.0703 3.71484C11.1589 3.52474 11.2826 3.35938 11.4414 3.21875C11.6029 3.07812 11.793 2.97005 12.0117 2.89453C12.2331 2.81641 12.4766 2.77734 12.7422 2.77734C13.0911 2.77734 13.4023 2.84505 13.6758 2.98047C13.9492 3.11328 14.1641 3.29688 14.3203 3.53125C14.4792 3.76562 14.5586 4.03385 14.5586 4.33594ZM13.832 4.32031C13.832 4.10938 13.7865 3.92318 13.6953 3.76172C13.6042 3.59766 13.4766 3.47005 13.3125 3.37891C13.1484 3.28776 12.9583 3.24219 12.7422 3.24219C12.5208 3.24219 12.3294 3.28776 12.168 3.37891C12.0091 3.47005 11.8854 3.59766 11.7969 3.76172C11.7083 3.92318 11.6641 4.10938 11.6641 4.32031C11.6641 4.53906 11.707 4.72656 11.793 4.88281C11.8815 5.03646 12.0065 5.15495 12.168 5.23828C12.332 5.31901 12.526 5.35938 12.75 5.35938C12.974 5.35938 13.1667 5.31901 13.3281 5.23828C13.4896 5.15495 13.6133 5.03646 13.6992 4.88281C13.7878 4.72656 13.832 4.53906 13.832 4.32031ZM14.4258 1.66797C14.4258 1.94401 14.3529 2.19271 14.207 2.41406C14.0612 2.63542 13.862 2.8099 13.6094 2.9375C13.3568 3.0651 13.0703 3.12891 12.75 3.12891C12.4245 3.12891 12.1341 3.0651 11.8789 2.9375C11.6263 2.8099 11.4284 2.63542 11.2852 2.41406C11.1419 2.19271 11.0703 1.94401 11.0703 1.66797C11.0703 1.33724 11.1419 1.05599 11.2852 0.824219C11.431 0.592448 11.6302 0.415365 11.8828 0.292969C12.1354 0.170573 12.4232 0.109375 12.7461 0.109375C13.0716 0.109375 13.3607 0.170573 13.6133 0.292969C13.8659 0.415365 14.0638 0.592448 14.207 0.824219C14.3529 1.05599 14.4258 1.33724 14.4258 1.66797ZM13.7031 1.67969C13.7031 1.48958 13.6628 1.32161 13.582 1.17578C13.5013 1.02995 13.3893 0.915365 13.2461 0.832031C13.1029 0.746094 12.9362 0.703125 12.7461 0.703125C12.556 0.703125 12.3893 0.74349 12.2461 0.824219C12.1055 0.902344 11.9948 1.01432 11.9141 1.16016C11.8359 1.30599 11.7969 1.47917 11.7969 1.67969C11.7969 1.875 11.8359 2.04557 11.9141 2.19141C11.9948 2.33724 12.1068 2.45052 12.25 2.53125C12.3932 2.61198 12.5599 2.65234 12.75 2.65234C12.9401 2.65234 13.1055 2.61198 13.2461 2.53125C13.3893 2.45052 13.5013 2.33724 13.582 2.19141C13.6628 2.04557 13.7031 1.875 13.7031 1.67969ZM19.3164 3.96094V4.55469H15.207V4.12891L17.7539 0.1875H18.3438L17.7109 1.32812L16.0273 3.96094H19.3164ZM18.5234 0.1875V5.875H17.8008V0.1875H18.5234ZM23.543 2.57812V3.44531C23.543 3.91146 23.5013 4.30469 23.418 4.625C23.3346 4.94531 23.2148 5.20312 23.0586 5.39844C22.9023 5.59375 22.7135 5.73568 22.4922 5.82422C22.2734 5.91016 22.026 5.95312 21.75 5.95312C21.5312 5.95312 21.3294 5.92578 21.1445 5.87109C20.9596 5.81641 20.793 5.72917 20.6445 5.60938C20.4987 5.48698 20.3737 5.32812 20.2695 5.13281C20.1654 4.9375 20.0859 4.70052 20.0312 4.42188C19.9766 4.14323 19.9492 3.81771 19.9492 3.44531V2.57812C19.9492 2.11198 19.9909 1.72135 20.0742 1.40625C20.1602 1.09115 20.2812 0.838542 20.4375 0.648438C20.5938 0.455729 20.7812 0.317708 21 0.234375C21.2214 0.151042 21.4688 0.109375 21.7422 0.109375C21.9635 0.109375 22.1667 0.136719 22.3516 0.191406C22.5391 0.24349 22.7057 0.328125 22.8516 0.445312C22.9974 0.559896 23.1211 0.713542 23.2227 0.90625C23.3268 1.09635 23.4062 1.32943 23.4609 1.60547C23.5156 1.88151 23.543 2.20573 23.543 2.57812ZM22.8164 3.5625V2.45703C22.8164 2.20182 22.8008 1.97786 22.7695 1.78516C22.7409 1.58984 22.6979 1.42318 22.6406 1.28516C22.5833 1.14714 22.5104 1.03516 22.4219 0.949219C22.3359 0.863281 22.2357 0.800781 22.1211 0.761719C22.0091 0.720052 21.8828 0.699219 21.7422 0.699219C21.5703 0.699219 21.418 0.731771 21.2852 0.796875C21.1523 0.859375 21.0404 0.959635 20.9492 1.09766C20.8607 1.23568 20.793 1.41667 20.7461 1.64062C20.6992 1.86458 20.6758 2.13672 20.6758 2.45703V3.5625C20.6758 3.81771 20.6901 4.04297 20.7188 4.23828C20.75 4.43359 20.7956 4.60286 20.8555 4.74609C20.9154 4.88672 20.9883 5.0026 21.0742 5.09375C21.1602 5.1849 21.2591 5.2526 21.3711 5.29688C21.4857 5.33854 21.612 5.35938 21.75 5.35938C21.9271 5.35938 22.082 5.32552 22.2148 5.25781C22.3477 5.1901 22.4583 5.08464 22.5469 4.94141C22.638 4.79557 22.7057 4.60938 22.75 4.38281C22.7943 4.15365 22.8164 3.88021 22.8164 3.5625Z" fill="white"/>
<line x1="32.5" y1="3.5" x2="222.5" y2="3.5" stroke="white" stroke-opacity="0.4" stroke-miterlimit="16" stroke-linecap="round" stroke-linejoin="round" stroke-dasharray="0.1 3"/>
<path opacity="0.8" d="M2.76953 25.9062V31.625H2.04688V26.8086L0.589844 27.3398V26.6875L2.65625 25.9062H2.76953ZM8.46484 28.3281V29.1953C8.46484 29.6615 8.42318 30.0547 8.33984 30.375C8.25651 30.6953 8.13672 30.9531 7.98047 31.1484C7.82422 31.3438 7.63542 31.4857 7.41406 31.5742C7.19531 31.6602 6.94792 31.7031 6.67188 31.7031C6.45312 31.7031 6.2513 31.6758 6.06641 31.6211C5.88151 31.5664 5.71484 31.4792 5.56641 31.3594C5.42057 31.237 5.29557 31.0781 5.19141 30.8828C5.08724 30.6875 5.00781 30.4505 4.95312 30.1719C4.89844 29.8932 4.87109 29.5677 4.87109 29.1953V28.3281C4.87109 27.862 4.91276 27.4714 4.99609 27.1562C5.08203 26.8411 5.20312 26.5885 5.35938 26.3984C5.51562 26.2057 5.70312 26.0677 5.92188 25.9844C6.14323 25.901 6.39062 25.8594 6.66406 25.8594C6.88542 25.8594 7.08854 25.8867 7.27344 25.9414C7.46094 25.9935 7.6276 26.0781 7.77344 26.1953C7.91927 26.3099 8.04297 26.4635 8.14453 26.6562C8.2487 26.8464 8.32812 27.0794 8.38281 27.3555C8.4375 27.6315 8.46484 27.9557 8.46484 28.3281ZM7.73828 29.3125V28.207C7.73828 27.9518 7.72266 27.7279 7.69141 27.5352C7.66276 27.3398 7.61979 27.1732 7.5625 27.0352C7.50521 26.8971 7.43229 26.7852 7.34375 26.6992C7.25781 26.6133 7.15755 26.5508 7.04297 26.5117C6.93099 26.4701 6.80469 26.4492 6.66406 26.4492C6.49219 26.4492 6.33984 26.4818 6.20703 26.5469C6.07422 26.6094 5.96224 26.7096 5.87109 26.8477C5.78255 26.9857 5.71484 27.1667 5.66797 27.3906C5.62109 27.6146 5.59766 27.8867 5.59766 28.207V29.3125C5.59766 29.5677 5.61198 29.793 5.64062 29.9883C5.67188 30.1836 5.71745 30.3529 5.77734 30.4961C5.83724 30.6367 5.91016 30.7526 5.99609 30.8438C6.08203 30.9349 6.18099 31.0026 6.29297 31.0469C6.40755 31.0885 6.53385 31.1094 6.67188 31.1094C6.84896 31.1094 7.00391 31.0755 7.13672 31.0078C7.26953 30.9401 7.38021 30.8346 7.46875 30.6914C7.5599 30.5456 7.6276 30.3594 7.67188 30.1328C7.71615 29.9036 7.73828 29.6302 7.73828 29.3125ZM10.1289 30.7656V31.3477C10.1289 31.5846 10.069 31.8346 9.94922 32.0977C9.82943 32.3633 9.66146 32.5846 9.44531 32.7617L9.03516 32.4766C9.11849 32.362 9.1888 32.2448 9.24609 32.125C9.30339 32.0078 9.34635 31.8854 9.375 31.7578C9.40625 31.6328 9.42188 31.5 9.42188 31.3594V30.7656H10.1289ZM14.5586 30.0859C14.5586 30.4323 14.4779 30.7266 14.3164 30.9688C14.1576 31.2083 13.9414 31.3906 13.668 31.5156C13.3971 31.6406 13.0911 31.7031 12.75 31.7031C12.4089 31.7031 12.1016 31.6406 11.8281 31.5156C11.5547 31.3906 11.3385 31.2083 11.1797 30.9688C11.0208 30.7266 10.9414 30.4323 10.9414 30.0859C10.9414 29.8594 10.9844 29.6523 11.0703 29.4648C11.1589 29.2747 11.2826 29.1094 11.4414 28.9688C11.6029 28.8281 11.793 28.7201 12.0117 28.6445C12.2331 28.5664 12.4766 28.5273 12.7422 28.5273C13.0911 28.5273 13.4023 28.5951 13.6758 28.7305C13.9492 28.8633 14.1641 29.0469 14.3203 29.2812C14.4792 29.5156 14.5586 29.7839 14.5586 30.0859ZM13.832 30.0703C13.832 29.8594 13.7865 29.6732 13.6953 29.5117C13.6042 29.3477 13.4766 29.2201 13.3125 29.1289C13.1484 29.0378 12.9583 28.9922 12.7422 28.9922C12.5208 28.9922 12.3294 29.0378 12.168 29.1289C12.0091 29.2201 11.8854 29.3477 11.7969 29.5117C11.7083 29.6732 11.6641 29.8594 11.6641 30.0703C11.6641 30.2891 11.707 30.4766 11.793 30.6328C11.8815 30.7865 12.0065 30.9049 12.168 30.9883C12.332 31.069 12.526 31.1094 12.75 31.1094C12.974 31.1094 13.1667 31.069 13.3281 30.9883C13.4896 30.9049 13.6133 30.7865 13.6992 30.6328C13.7878 30.4766 13.832 30.2891 13.832 30.0703ZM14.4258 27.418C14.4258 27.694 14.3529 27.9427 14.207 28.1641C14.0612 28.3854 13.862 28.5599 13.6094 28.6875C13.3568 28.8151 13.0703 28.8789 12.75 28.8789C12.4245 28.8789 12.1341 28.8151 11.8789 28.6875C11.6263 28.5599 11.4284 28.3854 11.2852 28.1641C11.1419 27.9427 11.0703 27.694 11.0703 27.418C11.0703 27.0872 11.1419 26.806 11.2852 26.5742C11.431 26.3424 11.6302 26.1654 11.8828 26.043C12.1354 25.9206 12.4232 25.8594 12.7461 25.8594C13.0716 25.8594 13.3607 25.9206 13.6133 26.043C13.8659 26.1654 14.0638 26.3424 14.207 26.5742C14.3529 26.806 14.4258 27.0872 14.4258 27.418ZM13.7031 27.4297C13.7031 27.2396 13.6628 27.0716 13.582 26.9258C13.5013 26.7799 13.3893 26.6654 13.2461 26.582C13.1029 26.4961 12.9362 26.4531 12.7461 26.4531C12.556 26.4531 12.3893 26.4935 12.2461 26.5742C12.1055 26.6523 11.9948 26.7643 11.9141 26.9102C11.8359 27.056 11.7969 27.2292 11.7969 27.4297C11.7969 27.625 11.8359 27.7956 11.9141 27.9414C11.9948 28.0872 12.1068 28.2005 12.25 28.2812C12.3932 28.362 12.5599 28.4023 12.75 28.4023C12.9401 28.4023 13.1055 28.362 13.2461 28.2812C13.3893 28.2005 13.5013 28.0872 13.582 27.9414C13.6628 27.7956 13.7031 27.625 13.7031 27.4297ZM16.5273 28.4258H17.043C17.2956 28.4258 17.5039 28.3841 17.668 28.3008C17.8346 28.2148 17.9583 28.099 18.0391 27.9531C18.1224 27.8047 18.1641 27.638 18.1641 27.4531C18.1641 27.2344 18.1276 27.0508 18.0547 26.9023C17.9818 26.7539 17.8724 26.6419 17.7266 26.5664C17.5807 26.4909 17.3958 26.4531 17.1719 26.4531C16.9688 26.4531 16.7891 26.4935 16.6328 26.5742C16.4792 26.6523 16.3581 26.7643 16.2695 26.9102C16.1836 27.056 16.1406 27.2279 16.1406 27.4258H15.418C15.418 27.1367 15.4909 26.8737 15.6367 26.6367C15.7826 26.3997 15.987 26.2109 16.25 26.0703C16.5156 25.9297 16.8229 25.8594 17.1719 25.8594C17.5156 25.8594 17.8164 25.9206 18.0742 26.043C18.332 26.1628 18.5326 26.3424 18.6758 26.582C18.819 26.819 18.8906 27.1146 18.8906 27.4688C18.8906 27.612 18.8568 27.7656 18.7891 27.9297C18.724 28.0911 18.6211 28.2422 18.4805 28.3828C18.3424 28.5234 18.1628 28.6393 17.9414 28.7305C17.7201 28.819 17.4544 28.8633 17.1445 28.8633H16.5273V28.4258ZM16.5273 29.0195V28.5859H17.1445C17.5065 28.5859 17.806 28.6289 18.043 28.7148C18.2799 28.8008 18.4661 28.9154 18.6016 29.0586C18.7396 29.2018 18.8359 29.3594 18.8906 29.5312C18.9479 29.7005 18.9766 29.8698 18.9766 30.0391C18.9766 30.3047 18.931 30.5404 18.8398 30.7461C18.7513 30.9518 18.625 31.1263 18.4609 31.2695C18.2995 31.4128 18.1094 31.5208 17.8906 31.5938C17.6719 31.6667 17.4336 31.7031 17.1758 31.7031C16.9284 31.7031 16.6953 31.668 16.4766 31.5977C16.2604 31.5273 16.069 31.4258 15.9023 31.293C15.7357 31.1576 15.6055 30.9922 15.5117 30.7969C15.418 30.599 15.3711 30.3737 15.3711 30.1211H16.0938C16.0938 30.319 16.1367 30.4922 16.2227 30.6406C16.3112 30.7891 16.4362 30.9049 16.5977 30.9883C16.7617 31.069 16.9544 31.1094 17.1758 31.1094C17.3971 31.1094 17.5872 31.0716 17.7461 30.9961C17.9076 30.918 18.0312 30.8008 18.1172 30.6445C18.2057 30.4883 18.25 30.2917 18.25 30.0547C18.25 29.8177 18.2005 29.6237 18.1016 29.4727C18.0026 29.319 17.862 29.2057 17.6797 29.1328C17.5 29.0573 17.2878 29.0195 17.043 29.0195H16.5273ZM20.8867 28.918L20.3086 28.7695L20.5938 25.9375H23.5117V26.6055H21.207L21.0352 28.1523C21.1393 28.0924 21.2708 28.0365 21.4297 27.9844C21.5911 27.9323 21.776 27.9062 21.9844 27.9062C22.2474 27.9062 22.4831 27.9518 22.6914 28.043C22.8997 28.1315 23.0768 28.2591 23.2227 28.4258C23.3711 28.5924 23.4844 28.793 23.5625 29.0273C23.6406 29.2617 23.6797 29.5234 23.6797 29.8125C23.6797 30.0859 23.6419 30.3372 23.5664 30.5664C23.4935 30.7956 23.3828 30.9961 23.2344 31.168C23.0859 31.3372 22.8984 31.4688 22.6719 31.5625C22.4479 31.6562 22.1836 31.7031 21.8789 31.7031C21.6497 31.7031 21.4323 31.6719 21.2266 31.6094C21.0234 31.5443 20.8411 31.4466 20.6797 31.3164C20.5208 31.1836 20.3906 31.0195 20.2891 30.8242C20.1901 30.6263 20.1276 30.3945 20.1016 30.1289H20.7891C20.8203 30.3424 20.8828 30.5221 20.9766 30.668C21.0703 30.8138 21.1927 30.9245 21.3438 31C21.4974 31.0729 21.6758 31.1094 21.8789 31.1094C22.0508 31.1094 22.2031 31.0794 22.3359 31.0195C22.4688 30.9596 22.5807 30.8737 22.6719 30.7617C22.763 30.6497 22.832 30.5143 22.8789 30.3555C22.9284 30.1966 22.9531 30.0182 22.9531 29.8203C22.9531 29.6406 22.9284 29.474 22.8789 29.3203C22.8294 29.1667 22.7552 29.0326 22.6562 28.918C22.5599 28.8034 22.4414 28.7148 22.3008 28.6523C22.1602 28.5872 21.9987 28.5547 21.8164 28.5547C21.5742 28.5547 21.3906 28.5872 21.2656 28.6523C21.1432 28.7174 21.0169 28.806 20.8867 28.918Z" fill="white"/>
<line x1="32.5" y1="29" x2="222.5" y2="29" stroke="white" stroke-opacity="0.4" stroke-miterlimit="16" stroke-linecap="round" stroke-linejoin="round" stroke-dasharray="0.1 3"/>
<path opacity="0.8" d="M2.76953 51.6562V57.375H2.04688V52.5586L0.589844 53.0898V52.4375L2.65625 51.6562H2.76953ZM8.46484 54.0781V54.9453C8.46484 55.4115 8.42318 55.8047 8.33984 56.125C8.25651 56.4453 8.13672 56.7031 7.98047 56.8984C7.82422 57.0938 7.63542 57.2357 7.41406 57.3242C7.19531 57.4102 6.94792 57.4531 6.67188 57.4531C6.45312 57.4531 6.2513 57.4258 6.06641 57.3711C5.88151 57.3164 5.71484 57.2292 5.56641 57.1094C5.42057 56.987 5.29557 56.8281 5.19141 56.6328C5.08724 56.4375 5.00781 56.2005 4.95312 55.9219C4.89844 55.6432 4.87109 55.3177 4.87109 54.9453V54.0781C4.87109 53.612 4.91276 53.2214 4.99609 52.9062C5.08203 52.5911 5.20312 52.3385 5.35938 52.1484C5.51562 51.9557 5.70312 51.8177 5.92188 51.7344C6.14323 51.651 6.39062 51.6094 6.66406 51.6094C6.88542 51.6094 7.08854 51.6367 7.27344 51.6914C7.46094 51.7435 7.6276 51.8281 7.77344 51.9453C7.91927 52.0599 8.04297 52.2135 8.14453 52.4062C8.2487 52.5964 8.32812 52.8294 8.38281 53.1055C8.4375 53.3815 8.46484 53.7057 8.46484 54.0781ZM7.73828 55.0625V53.957C7.73828 53.7018 7.72266 53.4779 7.69141 53.2852C7.66276 53.0898 7.61979 52.9232 7.5625 52.7852C7.50521 52.6471 7.43229 52.5352 7.34375 52.4492C7.25781 52.3633 7.15755 52.3008 7.04297 52.2617C6.93099 52.2201 6.80469 52.1992 6.66406 52.1992C6.49219 52.1992 6.33984 52.2318 6.20703 52.2969C6.07422 52.3594 5.96224 52.4596 5.87109 52.5977C5.78255 52.7357 5.71484 52.9167 5.66797 53.1406C5.62109 53.3646 5.59766 53.6367 5.59766 53.957V55.0625C5.59766 55.3177 5.61198 55.543 5.64062 55.7383C5.67188 55.9336 5.71745 56.1029 5.77734 56.2461C5.83724 56.3867 5.91016 56.5026 5.99609 56.5938C6.08203 56.6849 6.18099 56.7526 6.29297 56.7969C6.40755 56.8385 6.53385 56.8594 6.67188 56.8594C6.84896 56.8594 7.00391 56.8255 7.13672 56.7578C7.26953 56.6901 7.38021 56.5846 7.46875 56.4414C7.5599 56.2956 7.6276 56.1094 7.67188 55.8828C7.71615 55.6536 7.73828 55.3802 7.73828 55.0625ZM10.1289 56.5156V57.0977C10.1289 57.3346 10.069 57.5846 9.94922 57.8477C9.82943 58.1133 9.66146 58.3346 9.44531 58.5117L9.03516 58.2266C9.11849 58.112 9.1888 57.9948 9.24609 57.875C9.30339 57.7578 9.34635 57.6354 9.375 57.5078C9.40625 57.3828 9.42188 57.25 9.42188 57.1094V56.5156H10.1289ZM14.5586 55.8359C14.5586 56.1823 14.4779 56.4766 14.3164 56.7188C14.1576 56.9583 13.9414 57.1406 13.668 57.2656C13.3971 57.3906 13.0911 57.4531 12.75 57.4531C12.4089 57.4531 12.1016 57.3906 11.8281 57.2656C11.5547 57.1406 11.3385 56.9583 11.1797 56.7188C11.0208 56.4766 10.9414 56.1823 10.9414 55.8359C10.9414 55.6094 10.9844 55.4023 11.0703 55.2148C11.1589 55.0247 11.2826 54.8594 11.4414 54.7188C11.6029 54.5781 11.793 54.4701 12.0117 54.3945C12.2331 54.3164 12.4766 54.2773 12.7422 54.2773C13.0911 54.2773 13.4023 54.3451 13.6758 54.4805C13.9492 54.6133 14.1641 54.7969 14.3203 55.0312C14.4792 55.2656 14.5586 55.5339 14.5586 55.8359ZM13.832 55.8203C13.832 55.6094 13.7865 55.4232 13.6953 55.2617C13.6042 55.0977 13.4766 54.9701 13.3125 54.8789C13.1484 54.7878 12.9583 54.7422 12.7422 54.7422C12.5208 54.7422 12.3294 54.7878 12.168 54.8789C12.0091 54.9701 11.8854 55.0977 11.7969 55.2617C11.7083 55.4232 11.6641 55.6094 11.6641 55.8203C11.6641 56.0391 11.707 56.2266 11.793 56.3828C11.8815 56.5365 12.0065 56.6549 12.168 56.7383C12.332 56.819 12.526 56.8594 12.75 56.8594C12.974 56.8594 13.1667 56.819 13.3281 56.7383C13.4896 56.6549 13.6133 56.5365 13.6992 56.3828C13.7878 56.2266 13.832 56.0391 13.832 55.8203ZM14.4258 53.168C14.4258 53.444 14.3529 53.6927 14.207 53.9141C14.0612 54.1354 13.862 54.3099 13.6094 54.4375C13.3568 54.5651 13.0703 54.6289 12.75 54.6289C12.4245 54.6289 12.1341 54.5651 11.8789 54.4375C11.6263 54.3099 11.4284 54.1354 11.2852 53.9141C11.1419 53.6927 11.0703 53.444 11.0703 53.168C11.0703 52.8372 11.1419 52.556 11.2852 52.3242C11.431 52.0924 11.6302 51.9154 11.8828 51.793C12.1354 51.6706 12.4232 51.6094 12.7461 51.6094C13.0716 51.6094 13.3607 51.6706 13.6133 51.793C13.8659 51.9154 14.0638 52.0924 14.207 52.3242C14.3529 52.556 14.4258 52.8372 14.4258 53.168ZM13.7031 53.1797C13.7031 52.9896 13.6628 52.8216 13.582 52.6758C13.5013 52.5299 13.3893 52.4154 13.2461 52.332C13.1029 52.2461 12.9362 52.2031 12.7461 52.2031C12.556 52.2031 12.3893 52.2435 12.2461 52.3242C12.1055 52.4023 11.9948 52.5143 11.9141 52.6602C11.8359 52.806 11.7969 52.9792 11.7969 53.1797C11.7969 53.375 11.8359 53.5456 11.9141 53.6914C11.9948 53.8372 12.1068 53.9505 12.25 54.0312C12.3932 54.112 12.5599 54.1523 12.75 54.1523C12.9401 54.1523 13.1055 54.112 13.2461 54.0312C13.3893 53.9505 13.5013 53.8372 13.582 53.6914C13.6628 53.5456 13.7031 53.375 13.7031 53.1797ZM16.5273 54.1758H17.043C17.2956 54.1758 17.5039 54.1341 17.668 54.0508C17.8346 53.9648 17.9583 53.849 18.0391 53.7031C18.1224 53.5547 18.1641 53.388 18.1641 53.2031C18.1641 52.9844 18.1276 52.8008 18.0547 52.6523C17.9818 52.5039 17.8724 52.3919 17.7266 52.3164C17.5807 52.2409 17.3958 52.2031 17.1719 52.2031C16.9688 52.2031 16.7891 52.2435 16.6328 52.3242C16.4792 52.4023 16.3581 52.5143 16.2695 52.6602C16.1836 52.806 16.1406 52.9779 16.1406 53.1758H15.418C15.418 52.8867 15.4909 52.6237 15.6367 52.3867C15.7826 52.1497 15.987 51.9609 16.25 51.8203C16.5156 51.6797 16.8229 51.6094 17.1719 51.6094C17.5156 51.6094 17.8164 51.6706 18.0742 51.793C18.332 51.9128 18.5326 52.0924 18.6758 52.332C18.819 52.569 18.8906 52.8646 18.8906 53.2188C18.8906 53.362 18.8568 53.5156 18.7891 53.6797C18.724 53.8411 18.6211 53.9922 18.4805 54.1328C18.3424 54.2734 18.1628 54.3893 17.9414 54.4805C17.7201 54.569 17.4544 54.6133 17.1445 54.6133H16.5273V54.1758ZM16.5273 54.7695V54.3359H17.1445C17.5065 54.3359 17.806 54.3789 18.043 54.4648C18.2799 54.5508 18.4661 54.6654 18.6016 54.8086C18.7396 54.9518 18.8359 55.1094 18.8906 55.2812C18.9479 55.4505 18.9766 55.6198 18.9766 55.7891C18.9766 56.0547 18.931 56.2904 18.8398 56.4961C18.7513 56.7018 18.625 56.8763 18.4609 57.0195C18.2995 57.1628 18.1094 57.2708 17.8906 57.3438C17.6719 57.4167 17.4336 57.4531 17.1758 57.4531C16.9284 57.4531 16.6953 57.418 16.4766 57.3477C16.2604 57.2773 16.069 57.1758 15.9023 57.043C15.7357 56.9076 15.6055 56.7422 15.5117 56.5469C15.418 56.349 15.3711 56.1237 15.3711 55.8711H16.0938C16.0938 56.069 16.1367 56.2422 16.2227 56.3906C16.3112 56.5391 16.4362 56.6549 16.5977 56.7383C16.7617 56.819 16.9544 56.8594 17.1758 56.8594C17.3971 56.8594 17.5872 56.8216 17.7461 56.7461C17.9076 56.668 18.0312 56.5508 18.1172 56.3945C18.2057 56.2383 18.25 56.0417 18.25 55.8047C18.25 55.5677 18.2005 55.3737 18.1016 55.2227C18.0026 55.069 17.862 54.9557 17.6797 54.8828C17.5 54.8073 17.2878 54.7695 17.043 54.7695H16.5273ZM23.543 54.0781V54.9453C23.543 55.4115 23.5013 55.8047 23.418 56.125C23.3346 56.4453 23.2148 56.7031 23.0586 56.8984C22.9023 57.0938 22.7135 57.2357 22.4922 57.3242C22.2734 57.4102 22.026 57.4531 21.75 57.4531C21.5312 57.4531 21.3294 57.4258 21.1445 57.3711C20.9596 57.3164 20.793 57.2292 20.6445 57.1094C20.4987 56.987 20.3737 56.8281 20.2695 56.6328C20.1654 56.4375 20.0859 56.2005 20.0312 55.9219C19.9766 55.6432 19.9492 55.3177 19.9492 54.9453V54.0781C19.9492 53.612 19.9909 53.2214 20.0742 52.9062C20.1602 52.5911 20.2812 52.3385 20.4375 52.1484C20.5938 51.9557 20.7812 51.8177 21 51.7344C21.2214 51.651 21.4688 51.6094 21.7422 51.6094C21.9635 51.6094 22.1667 51.6367 22.3516 51.6914C22.5391 51.7435 22.7057 51.8281 22.8516 51.9453C22.9974 52.0599 23.1211 52.2135 23.2227 52.4062C23.3268 52.5964 23.4062 52.8294 23.4609 53.1055C23.5156 53.3815 23.543 53.7057 23.543 54.0781ZM22.8164 55.0625V53.957C22.8164 53.7018 22.8008 53.4779 22.7695 53.2852C22.7409 53.0898 22.6979 52.9232 22.6406 52.7852C22.5833 52.6471 22.5104 52.5352 22.4219 52.4492C22.3359 52.3633 22.2357 52.3008 22.1211 52.2617C22.0091 52.2201 21.8828 52.1992 21.7422 52.1992C21.5703 52.1992 21.418 52.2318 21.2852 52.2969C21.1523 52.3594 21.0404 52.4596 20.9492 52.5977C20.8607 52.7357 20.793 52.9167 20.7461 53.1406C20.6992 53.3646 20.6758 53.6367 20.6758 53.957V55.0625C20.6758 55.3177 20.6901 55.543 20.7188 55.7383C20.75 55.9336 20.7956 56.1029 20.8555 56.2461C20.9154 56.3867 20.9883 56.5026 21.0742 56.5938C21.1602 56.6849 21.2591 56.7526 21.3711 56.7969C21.4857 56.8385 21.612 56.8594 21.75 56.8594C21.9271 56.8594 22.082 56.8255 22.2148 56.7578C22.3477 56.6901 22.4583 56.5846 22.5469 56.4414C22.638 56.2956 22.7057 56.1094 22.75 55.8828C22.7943 55.6536 22.8164 55.3802 22.8164 55.0625Z" fill="white"/>
<line x1="32.5" y1="54.5" x2="222.5" y2="54.5" stroke="white" stroke-opacity="0.4" stroke-miterlimit="16" stroke-linecap="round" stroke-linejoin="round" stroke-dasharray="0.1 3"/>
<path opacity="0.8" d="M2.76953 77.9062V83.625H2.04688V78.8086L0.589844 79.3398V78.6875L2.65625 77.9062H2.76953ZM8.46484 80.3281V81.1953C8.46484 81.6615 8.42318 82.0547 8.33984 82.375C8.25651 82.6953 8.13672 82.9531 7.98047 83.1484C7.82422 83.3438 7.63542 83.4857 7.41406 83.5742C7.19531 83.6602 6.94792 83.7031 6.67188 83.7031C6.45312 83.7031 6.2513 83.6758 6.06641 83.6211C5.88151 83.5664 5.71484 83.4792 5.56641 83.3594C5.42057 83.237 5.29557 83.0781 5.19141 82.8828C5.08724 82.6875 5.00781 82.4505 4.95312 82.1719C4.89844 81.8932 4.87109 81.5677 4.87109 81.1953V80.3281C4.87109 79.862 4.91276 79.4714 4.99609 79.1562C5.08203 78.8411 5.20312 78.5885 5.35938 78.3984C5.51562 78.2057 5.70312 78.0677 5.92188 77.9844C6.14323 77.901 6.39062 77.8594 6.66406 77.8594C6.88542 77.8594 7.08854 77.8867 7.27344 77.9414C7.46094 77.9935 7.6276 78.0781 7.77344 78.1953C7.91927 78.3099 8.04297 78.4635 8.14453 78.6562C8.2487 78.8464 8.32812 79.0794 8.38281 79.3555C8.4375 79.6315 8.46484 79.9557 8.46484 80.3281ZM7.73828 81.3125V80.207C7.73828 79.9518 7.72266 79.7279 7.69141 79.5352C7.66276 79.3398 7.61979 79.1732 7.5625 79.0352C7.50521 78.8971 7.43229 78.7852 7.34375 78.6992C7.25781 78.6133 7.15755 78.5508 7.04297 78.5117C6.93099 78.4701 6.80469 78.4492 6.66406 78.4492C6.49219 78.4492 6.33984 78.4818 6.20703 78.5469C6.07422 78.6094 5.96224 78.7096 5.87109 78.8477C5.78255 78.9857 5.71484 79.1667 5.66797 79.3906C5.62109 79.6146 5.59766 79.8867 5.59766 80.207V81.3125C5.59766 81.5677 5.61198 81.793 5.64062 81.9883C5.67188 82.1836 5.71745 82.3529 5.77734 82.4961C5.83724 82.6367 5.91016 82.7526 5.99609 82.8438C6.08203 82.9349 6.18099 83.0026 6.29297 83.0469C6.40755 83.0885 6.53385 83.1094 6.67188 83.1094C6.84896 83.1094 7.00391 83.0755 7.13672 83.0078C7.26953 82.9401 7.38021 82.8346 7.46875 82.6914C7.5599 82.5456 7.6276 82.3594 7.67188 82.1328C7.71615 81.9036 7.73828 81.6302 7.73828 81.3125ZM10.1289 82.7656V83.3477C10.1289 83.5846 10.069 83.8346 9.94922 84.0977C9.82943 84.3633 9.66146 84.5846 9.44531 84.7617L9.03516 84.4766C9.11849 84.362 9.1888 84.2448 9.24609 84.125C9.30339 84.0078 9.34635 83.8854 9.375 83.7578C9.40625 83.6328 9.42188 83.5 9.42188 83.3594V82.7656H10.1289ZM14.5586 82.0859C14.5586 82.4323 14.4779 82.7266 14.3164 82.9688C14.1576 83.2083 13.9414 83.3906 13.668 83.5156C13.3971 83.6406 13.0911 83.7031 12.75 83.7031C12.4089 83.7031 12.1016 83.6406 11.8281 83.5156C11.5547 83.3906 11.3385 83.2083 11.1797 82.9688C11.0208 82.7266 10.9414 82.4323 10.9414 82.0859C10.9414 81.8594 10.9844 81.6523 11.0703 81.4648C11.1589 81.2747 11.2826 81.1094 11.4414 80.9688C11.6029 80.8281 11.793 80.7201 12.0117 80.6445C12.2331 80.5664 12.4766 80.5273 12.7422 80.5273C13.0911 80.5273 13.4023 80.5951 13.6758 80.7305C13.9492 80.8633 14.1641 81.0469 14.3203 81.2812C14.4792 81.5156 14.5586 81.7839 14.5586 82.0859ZM13.832 82.0703C13.832 81.8594 13.7865 81.6732 13.6953 81.5117C13.6042 81.3477 13.4766 81.2201 13.3125 81.1289C13.1484 81.0378 12.9583 80.9922 12.7422 80.9922C12.5208 80.9922 12.3294 81.0378 12.168 81.1289C12.0091 81.2201 11.8854 81.3477 11.7969 81.5117C11.7083 81.6732 11.6641 81.8594 11.6641 82.0703C11.6641 82.2891 11.707 82.4766 11.793 82.6328C11.8815 82.7865 12.0065 82.9049 12.168 82.9883C12.332 83.069 12.526 83.1094 12.75 83.1094C12.974 83.1094 13.1667 83.069 13.3281 82.9883C13.4896 82.9049 13.6133 82.7865 13.6992 82.6328C13.7878 82.4766 13.832 82.2891 13.832 82.0703ZM14.4258 79.418C14.4258 79.694 14.3529 79.9427 14.207 80.1641C14.0612 80.3854 13.862 80.5599 13.6094 80.6875C13.3568 80.8151 13.0703 80.8789 12.75 80.8789C12.4245 80.8789 12.1341 80.8151 11.8789 80.6875C11.6263 80.5599 11.4284 80.3854 11.2852 80.1641C11.1419 79.9427 11.0703 79.694 11.0703 79.418C11.0703 79.0872 11.1419 78.806 11.2852 78.5742C11.431 78.3424 11.6302 78.1654 11.8828 78.043C12.1354 77.9206 12.4232 77.8594 12.7461 77.8594C13.0716 77.8594 13.3607 77.9206 13.6133 78.043C13.8659 78.1654 14.0638 78.3424 14.207 78.5742C14.3529 78.806 14.4258 79.0872 14.4258 79.418ZM13.7031 79.4297C13.7031 79.2396 13.6628 79.0716 13.582 78.9258C13.5013 78.7799 13.3893 78.6654 13.2461 78.582C13.1029 78.4961 12.9362 78.4531 12.7461 78.4531C12.556 78.4531 12.3893 78.4935 12.2461 78.5742C12.1055 78.6523 11.9948 78.7643 11.9141 78.9102C11.8359 79.056 11.7969 79.2292 11.7969 79.4297C11.7969 79.625 11.8359 79.7956 11.9141 79.9414C11.9948 80.0872 12.1068 80.2005 12.25 80.2812C12.3932 80.362 12.5599 80.4023 12.75 80.4023C12.9401 80.4023 13.1055 80.362 13.2461 80.2812C13.3893 80.2005 13.5013 80.0872 13.582 79.9414C13.6628 79.7956 13.7031 79.625 13.7031 79.4297ZM19.1992 83.0312V83.625H15.4766V83.1055L17.3398 81.0312C17.569 80.776 17.7461 80.5599 17.8711 80.3828C17.9987 80.2031 18.0872 80.043 18.1367 79.9023C18.1888 79.7591 18.2148 79.6133 18.2148 79.4648C18.2148 79.2773 18.1758 79.1081 18.0977 78.957C18.0221 78.8034 17.9102 78.681 17.7617 78.5898C17.6133 78.4987 17.4336 78.4531 17.2227 78.4531C16.9701 78.4531 16.7591 78.5026 16.5898 78.6016C16.4232 78.6979 16.2982 78.8333 16.2148 79.0078C16.1315 79.1823 16.0898 79.3828 16.0898 79.6094H15.3672C15.3672 79.2891 15.4375 78.9961 15.5781 78.7305C15.7188 78.4648 15.9271 78.2539 16.2031 78.0977C16.4792 77.9388 16.819 77.8594 17.2227 77.8594C17.582 77.8594 17.8893 77.9232 18.1445 78.0508C18.3997 78.1758 18.5951 78.3529 18.7305 78.582C18.8685 78.8086 18.9375 79.0742 18.9375 79.3789C18.9375 79.5456 18.9089 79.7148 18.8516 79.8867C18.7969 80.056 18.7201 80.2253 18.6211 80.3945C18.5247 80.5638 18.4115 80.7305 18.2812 80.8945C18.1536 81.0586 18.0169 81.2201 17.8711 81.3789L16.3477 83.0312H19.1992ZM20.8867 80.918L20.3086 80.7695L20.5938 77.9375H23.5117V78.6055H21.207L21.0352 80.1523C21.1393 80.0924 21.2708 80.0365 21.4297 79.9844C21.5911 79.9323 21.776 79.9062 21.9844 79.9062C22.2474 79.9062 22.4831 79.9518 22.6914 80.043C22.8997 80.1315 23.0768 80.2591 23.2227 80.4258C23.3711 80.5924 23.4844 80.793 23.5625 81.0273C23.6406 81.2617 23.6797 81.5234 23.6797 81.8125C23.6797 82.0859 23.6419 82.3372 23.5664 82.5664C23.4935 82.7956 23.3828 82.9961 23.2344 83.168C23.0859 83.3372 22.8984 83.4688 22.6719 83.5625C22.4479 83.6562 22.1836 83.7031 21.8789 83.7031C21.6497 83.7031 21.4323 83.6719 21.2266 83.6094C21.0234 83.5443 20.8411 83.4466 20.6797 83.3164C20.5208 83.1836 20.3906 83.0195 20.2891 82.8242C20.1901 82.6263 20.1276 82.3945 20.1016 82.1289H20.7891C20.8203 82.3424 20.8828 82.5221 20.9766 82.668C21.0703 82.8138 21.1927 82.9245 21.3438 83C21.4974 83.0729 21.6758 83.1094 21.8789 83.1094C22.0508 83.1094 22.2031 83.0794 22.3359 83.0195C22.4688 82.9596 22.5807 82.8737 22.6719 82.7617C22.763 82.6497 22.832 82.5143 22.8789 82.3555C22.9284 82.1966 22.9531 82.0182 22.9531 81.8203C22.9531 81.6406 22.9284 81.474 22.8789 81.3203C22.8294 81.1667 22.7552 81.0326 22.6562 80.918C22.5599 80.8034 22.4414 80.7148 22.3008 80.6523C22.1602 80.5872 21.9987 80.5547 21.8164 80.5547C21.5742 80.5547 21.3906 80.5872 21.2656 80.6523C21.1432 80.7174 21.0169 80.806 20.8867 80.918Z" fill="white"/>
<line x1="32.5" y1="81" x2="222.5" y2="81" stroke="white" stroke-opacity="0.4" stroke-miterlimit="16" stroke-linecap="round" stroke-linejoin="round" stroke-dasharray="0.1 3"/>
<rect width="191" height="1" transform="matrix(1 0 0 -1 32 109)" fill="white" fill-opacity="0.15"/>
</g>
<defs>
<linearGradient id="paint0_linear_37265_57562" x1="1" y1="0" x2="1" y2="11" gradientUnits="userSpaceOnUse">
<stop stop-color="white"/>
<stop offset="0.0001" stop-color="#878787"/>
<stop offset="1" stop-color="#575757" stop-opacity="0"/>
</linearGradient>
<linearGradient id="paint1_linear_37265_57562" x1="1" y1="0" x2="1" y2="11" gradientUnits="userSpaceOnUse">
<stop stop-color="white"/>
<stop offset="0.0001" stop-color="#878787"/>
<stop offset="1" stop-color="#575757" stop-opacity="0"/>
</linearGradient>
<linearGradient id="paint2_linear_37265_57562" x1="1" y1="0" x2="1" y2="14" gradientUnits="userSpaceOnUse">
<stop stop-color="white"/>
<stop offset="0.0001" stop-color="#878787"/>
<stop offset="1" stop-color="#575757" stop-opacity="0"/>
</linearGradient>
<linearGradient id="paint3_linear_37265_57562" x1="1" y1="0" x2="1" y2="14" gradientUnits="userSpaceOnUse">
<stop stop-color="white"/>
<stop offset="0.0001" stop-color="#878787"/>
<stop offset="1" stop-color="#575757" stop-opacity="0"/>
</linearGradient>
<linearGradient id="paint4_linear_37265_57562" x1="1" y1="0" x2="1" y2="16" gradientUnits="userSpaceOnUse">
<stop stop-color="white"/>
<stop offset="0.0001" stop-color="#878787"/>
<stop offset="1" stop-color="#575757" stop-opacity="0"/>
</linearGradient>
<linearGradient id="paint5_linear_37265_57562" x1="1" y1="0" x2="1" y2="16" gradientUnits="userSpaceOnUse">
<stop stop-color="white"/>
<stop offset="0.0001" stop-color="#878787"/>
<stop offset="1" stop-color="#575757" stop-opacity="0"/>
</linearGradient>
<linearGradient id="paint6_linear_37265_57562" x1="1" y1="0" x2="1" y2="16" gradientUnits="userSpaceOnUse">
<stop stop-color="white"/>
<stop offset="0.0001" stop-color="#878787"/>
<stop offset="1" stop-color="#575757" stop-opacity="0"/>
</linearGradient>
<linearGradient id="paint7_linear_37265_57562" x1="1" y1="0" x2="1" y2="16" gradientUnits="userSpaceOnUse">
<stop stop-color="white"/>
<stop offset="0.0001" stop-color="#878787"/>
<stop offset="1" stop-color="#575757" stop-opacity="0"/>
</linearGradient>
<linearGradient id="paint8_linear_37265_57562" x1="1" y1="0" x2="1" y2="14" gradientUnits="userSpaceOnUse">
<stop stop-color="white"/>
<stop offset="0.0001" stop-color="#878787"/>
<stop offset="1" stop-color="#575757" stop-opacity="0"/>
</linearGradient>
<linearGradient id="paint9_linear_37265_57562" x1="1" y1="0" x2="1" y2="14" gradientUnits="userSpaceOnUse">
<stop stop-color="white"/>
<stop offset="0.0001" stop-color="#878787"/>
<stop offset="1" stop-color="#575757" stop-opacity="0"/>
</linearGradient>
<linearGradient id="paint10_linear_37265_57562" x1="1" y1="0" x2="1" y2="11" gradientUnits="userSpaceOnUse">
<stop stop-color="white"/>
<stop offset="0.0001" stop-color="#878787"/>
<stop offset="1" stop-color="#575757" stop-opacity="0"/>
</linearGradient>
<linearGradient id="paint11_linear_37265_57562" x1="1" y1="0" x2="1" y2="11" gradientUnits="userSpaceOnUse">
<stop stop-color="white"/>
<stop offset="0.0001" stop-color="#878787"/>
<stop offset="1" stop-color="#575757" stop-opacity="0"/>
</linearGradient>
<linearGradient id="paint12_linear_37265_57562" x1="1" y1="0" x2="1" y2="9" gradientUnits="userSpaceOnUse">
<stop stop-color="white"/>
<stop offset="0.0001" stop-color="#878787"/>
<stop offset="1" stop-color="#575757" stop-opacity="0"/>
</linearGradient>
<linearGradient id="paint13_linear_37265_57562" x1="1" y1="0" x2="1" y2="9" gradientUnits="userSpaceOnUse">
<stop stop-color="white"/>
<stop offset="0.0001" stop-color="#878787"/>
<stop offset="1" stop-color="#575757" stop-opacity="0"/>
</linearGradient>
<linearGradient id="paint14_linear_37265_57562" x1="1" y1="0" x2="1" y2="8" gradientUnits="userSpaceOnUse">
<stop stop-color="white"/>
<stop offset="0.0001" stop-color="#878787"/>
<stop offset="1" stop-color="#575757" stop-opacity="0"/>
</linearGradient>
<linearGradient id="paint15_linear_37265_57562" x1="1" y1="0" x2="1" y2="8" gradientUnits="userSpaceOnUse">
<stop stop-color="white"/>
<stop offset="0.0001" stop-color="#878787"/>
<stop offset="1" stop-color="#575757" stop-opacity="0"/>
</linearGradient>
<linearGradient id="paint16_linear_37265_57562" x1="1" y1="0" x2="1" y2="8" gradientUnits="userSpaceOnUse">
<stop stop-color="white"/>
<stop offset="0.0001" stop-color="#878787"/>
<stop offset="1" stop-color="#575757" stop-opacity="0"/>
</linearGradient>
<linearGradient id="paint17_linear_37265_57562" x1="1" y1="0" x2="1" y2="8" gradientUnits="userSpaceOnUse">
<stop stop-color="white"/>
<stop offset="0.0001" stop-color="#878787"/>
<stop offset="1" stop-color="#575757" stop-opacity="0"/>
</linearGradient>
<linearGradient id="paint18_linear_37265_57562" x1="1" y1="0" x2="1" y2="8" gradientUnits="userSpaceOnUse">
<stop stop-color="white"/>
<stop offset="0.0001" stop-color="#878787"/>
<stop offset="1" stop-color="#575757" stop-opacity="0"/>
</linearGradient>
<linearGradient id="paint19_linear_37265_57562" x1="1" y1="0" x2="1" y2="8" gradientUnits="userSpaceOnUse">
<stop stop-color="white"/>
<stop offset="0.0001" stop-color="#878787"/>
<stop offset="1" stop-color="#575757" stop-opacity="0"/>
</linearGradient>
<linearGradient id="paint20_linear_37265_57562" x1="1" y1="0" x2="1" y2="9" gradientUnits="userSpaceOnUse">
<stop stop-color="white"/>
<stop offset="0.0001" stop-color="#878787"/>
<stop offset="1" stop-color="#575757" stop-opacity="0"/>
</linearGradient>
<linearGradient id="paint21_linear_37265_57562" x1="1" y1="0" x2="1" y2="9" gradientUnits="userSpaceOnUse">
<stop stop-color="white"/>
<stop offset="0.0001" stop-color="#878787"/>
<stop offset="1" stop-color="#575757" stop-opacity="0"/>
</linearGradient>
<linearGradient id="paint22_linear_37265_57562" x1="1" y1="0" x2="1" y2="10" gradientUnits="userSpaceOnUse">
<stop stop-color="white"/>
<stop offset="0.0001" stop-color="#878787"/>
<stop offset="1" stop-color="#575757" stop-opacity="0"/>
</linearGradient>
<linearGradient id="paint23_linear_37265_57562" x1="1" y1="0" x2="1" y2="10" gradientUnits="userSpaceOnUse">
<stop stop-color="white"/>
<stop offset="0.0001" stop-color="#878787"/>
<stop offset="1" stop-color="#575757" stop-opacity="0"/>
</linearGradient>
<linearGradient id="paint24_linear_37265_57562" x1="1" y1="0" x2="1" y2="11" gradientUnits="userSpaceOnUse">
<stop stop-color="white"/>
<stop offset="0.0001" stop-color="#878787"/>
<stop offset="1" stop-color="#575757" stop-opacity="0"/>
</linearGradient>
<linearGradient id="paint25_linear_37265_57562" x1="1" y1="0" x2="1" y2="11" gradientUnits="userSpaceOnUse">
<stop stop-color="white"/>
<stop offset="0.0001" stop-color="#878787"/>
<stop offset="1" stop-color="#575757" stop-opacity="0"/>
</linearGradient>
<linearGradient id="paint26_linear_37265_57562" x1="1" y1="0" x2="1" y2="12" gradientUnits="userSpaceOnUse">
<stop stop-color="white"/>
<stop offset="0.0001" stop-color="#878787"/>
<stop offset="1" stop-color="#575757" stop-opacity="0"/>
</linearGradient>
<linearGradient id="paint27_linear_37265_57562" x1="1" y1="0" x2="1" y2="12" gradientUnits="userSpaceOnUse">
<stop stop-color="white"/>
<stop offset="0.0001" stop-color="#878787"/>
<stop offset="1" stop-color="#575757" stop-opacity="0"/>
</linearGradient>
<linearGradient id="paint28_linear_37265_57562" x1="1" y1="0" x2="1" y2="14" gradientUnits="userSpaceOnUse">
<stop stop-color="white"/>
<stop offset="0.0001" stop-color="#878787"/>
<stop offset="1" stop-color="#575757" stop-opacity="0"/>
</linearGradient>
<linearGradient id="paint29_linear_37265_57562" x1="1" y1="0" x2="1" y2="14" gradientUnits="userSpaceOnUse">
<stop stop-color="white"/>
<stop offset="0.0001" stop-color="#878787"/>
<stop offset="1" stop-color="#575757" stop-opacity="0"/>
</linearGradient>
<linearGradient id="paint30_linear_37265_57562" x1="1" y1="0" x2="1" y2="17" gradientUnits="userSpaceOnUse">
<stop stop-color="white"/>
<stop offset="0.0001" stop-color="#878787"/>
<stop offset="1" stop-color="#575757" stop-opacity="0"/>
</linearGradient>
<linearGradient id="paint31_linear_37265_57562" x1="1" y1="0" x2="1" y2="17" gradientUnits="userSpaceOnUse">
<stop stop-color="white"/>
<stop offset="0.0001" stop-color="#878787"/>
<stop offset="1" stop-color="#575757" stop-opacity="0"/>
</linearGradient>
<linearGradient id="paint32_linear_37265_57562" x1="1" y1="0" x2="1" y2="20" gradientUnits="userSpaceOnUse">
<stop stop-color="white"/>
<stop offset="0.0001" stop-color="#878787"/>
<stop offset="1" stop-color="#575757" stop-opacity="0"/>
</linearGradient>
<linearGradient id="paint33_linear_37265_57562" x1="1" y1="0" x2="1" y2="20" gradientUnits="userSpaceOnUse">
<stop stop-color="white"/>
<stop offset="0.0001" stop-color="#878787"/>
<stop offset="1" stop-color="#575757" stop-opacity="0"/>
</linearGradient>
<linearGradient id="paint34_linear_37265_57562" x1="1" y1="0" x2="1" y2="21" gradientUnits="userSpaceOnUse">
<stop stop-color="white"/>
<stop offset="0.0001" stop-color="#878787"/>
<stop offset="1" stop-color="#575757" stop-opacity="0"/>
</linearGradient>
<linearGradient id="paint35_linear_37265_57562" x1="1" y1="0" x2="1" y2="21" gradientUnits="userSpaceOnUse">
<stop stop-color="white"/>
<stop offset="0.0001" stop-color="#878787"/>
<stop offset="1" stop-color="#575757" stop-opacity="0"/>
</linearGradient>
<linearGradient id="paint36_linear_37265_57562" x1="1" y1="0" x2="1" y2="21" gradientUnits="userSpaceOnUse">
<stop stop-color="white"/>
<stop offset="0.0001" stop-color="#878787"/>
<stop offset="1" stop-color="#575757" stop-opacity="0"/>
</linearGradient>
<linearGradient id="paint37_linear_37265_57562" x1="1" y1="0" x2="1" y2="21" gradientUnits="userSpaceOnUse">
<stop stop-color="white"/>
<stop offset="0.0001" stop-color="#878787"/>
<stop offset="1" stop-color="#575757" stop-opacity="0"/>
</linearGradient>
<linearGradient id="paint38_linear_37265_57562" x1="1" y1="0" x2="1" y2="20" gradientUnits="userSpaceOnUse">
<stop stop-color="white"/>
<stop offset="0.0001" stop-color="#878787"/>
<stop offset="1" stop-color="#575757" stop-opacity="0"/>
</linearGradient>
<linearGradient id="paint39_linear_37265_57562" x1="1" y1="0" x2="1" y2="20" gradientUnits="userSpaceOnUse">
<stop stop-color="white"/>
<stop offset="0.0001" stop-color="#878787"/>
<stop offset="1" stop-color="#575757" stop-opacity="0"/>
</linearGradient>
<linearGradient id="paint40_linear_37265_57562" x1="1" y1="0" x2="1" y2="17" gradientUnits="userSpaceOnUse">
<stop stop-color="white"/>
<stop offset="0.0001" stop-color="#878787"/>
<stop offset="1" stop-color="#575757" stop-opacity="0"/>
</linearGradient>
<linearGradient id="paint41_linear_37265_57562" x1="1" y1="0" x2="1" y2="17" gradientUnits="userSpaceOnUse">
<stop stop-color="white"/>
<stop offset="0.0001" stop-color="#878787"/>
<stop offset="1" stop-color="#575757" stop-opacity="0"/>
</linearGradient>
<linearGradient id="paint42_linear_37265_57562" x1="1" y1="0" x2="1" y2="16" gradientUnits="userSpaceOnUse">
<stop stop-color="white"/>
<stop offset="0.0001" stop-color="#878787"/>
<stop offset="1" stop-color="#575757" stop-opacity="0"/>
</linearGradient>
<linearGradient id="paint43_linear_37265_57562" x1="1" y1="0" x2="1" y2="16" gradientUnits="userSpaceOnUse">
<stop stop-color="white"/>
<stop offset="0.0001" stop-color="#878787"/>
<stop offset="1" stop-color="#575757" stop-opacity="0"/>
</linearGradient>
<linearGradient id="paint44_linear_37265_57562" x1="1" y1="0" x2="1" y2="15" gradientUnits="userSpaceOnUse">
<stop stop-color="white"/>
<stop offset="0.0001" stop-color="#878787"/>
<stop offset="1" stop-color="#575757" stop-opacity="0"/>
</linearGradient>
<linearGradient id="paint45_linear_37265_57562" x1="1" y1="0" x2="1" y2="15" gradientUnits="userSpaceOnUse">
<stop stop-color="white"/>
<stop offset="0.0001" stop-color="#878787"/>
<stop offset="1" stop-color="#575757" stop-opacity="0"/>
</linearGradient>
<linearGradient id="paint46_linear_37265_57562" x1="1" y1="0" x2="1" y2="16" gradientUnits="userSpaceOnUse">
<stop stop-color="white"/>
<stop offset="0.0001" stop-color="#878787"/>
<stop offset="1" stop-color="#575757" stop-opacity="0"/>
</linearGradient>
<linearGradient id="paint47_linear_37265_57562" x1="1" y1="0" x2="1" y2="16" gradientUnits="userSpaceOnUse">
<stop stop-color="white"/>
<stop offset="0.0001" stop-color="#878787"/>
<stop offset="1" stop-color="#575757" stop-opacity="0"/>
</linearGradient>
<linearGradient id="paint48_linear_37265_57562" x1="1" y1="0" x2="1" y2="17" gradientUnits="userSpaceOnUse">
<stop stop-color="white"/>
<stop offset="0.0001" stop-color="#878787"/>
<stop offset="1" stop-color="#575757" stop-opacity="0"/>
</linearGradient>
<linearGradient id="paint49_linear_37265_57562" x1="1" y1="0" x2="1" y2="17" gradientUnits="userSpaceOnUse">
<stop stop-color="white"/>
<stop offset="0.0001" stop-color="#878787"/>
<stop offset="1" stop-color="#575757" stop-opacity="0"/>
</linearGradient>
<linearGradient id="paint50_linear_37265_57562" x1="1" y1="0" x2="1" y2="17" gradientUnits="userSpaceOnUse">
<stop stop-color="white"/>
<stop offset="0.0001" stop-color="#878787"/>
<stop offset="1" stop-color="#575757" stop-opacity="0"/>
</linearGradient>
<linearGradient id="paint51_linear_37265_57562" x1="1" y1="0" x2="1" y2="17" gradientUnits="userSpaceOnUse">
<stop stop-color="white"/>
<stop offset="0.0001" stop-color="#878787"/>
<stop offset="1" stop-color="#575757" stop-opacity="0"/>
</linearGradient>
<linearGradient id="paint52_linear_37265_57562" x1="1" y1="0" x2="1" y2="18" gradientUnits="userSpaceOnUse">
<stop stop-color="white"/>
<stop offset="0.0001" stop-color="#878787"/>
<stop offset="1" stop-color="#575757" stop-opacity="0"/>
</linearGradient>
<linearGradient id="paint53_linear_37265_57562" x1="1" y1="0" x2="1" y2="18" gradientUnits="userSpaceOnUse">
<stop stop-color="white"/>
<stop offset="0.0001" stop-color="#878787"/>
<stop offset="1" stop-color="#575757" stop-opacity="0"/>
</linearGradient>
<linearGradient id="paint54_linear_37265_57562" x1="1" y1="0" x2="1" y2="17" gradientUnits="userSpaceOnUse">
<stop stop-color="white"/>
<stop offset="0.0001" stop-color="#878787"/>
<stop offset="1" stop-color="#575757" stop-opacity="0"/>
</linearGradient>
<linearGradient id="paint55_linear_37265_57562" x1="1" y1="0" x2="1" y2="17" gradientUnits="userSpaceOnUse">
<stop stop-color="white"/>
<stop offset="0.0001" stop-color="#878787"/>
<stop offset="1" stop-color="#575757" stop-opacity="0"/>
</linearGradient>
<linearGradient id="paint56_linear_37265_57562" x1="1" y1="0" x2="1" y2="17" gradientUnits="userSpaceOnUse">
<stop stop-color="white"/>
<stop offset="0.0001" stop-color="#878787"/>
<stop offset="1" stop-color="#575757" stop-opacity="0"/>
</linearGradient>
<linearGradient id="paint57_linear_37265_57562" x1="1" y1="0" x2="1" y2="17" gradientUnits="userSpaceOnUse">
<stop stop-color="white"/>
<stop offset="0.0001" stop-color="#878787"/>
<stop offset="1" stop-color="#575757" stop-opacity="0"/>
</linearGradient>
<linearGradient id="paint58_linear_37265_57562" x1="1" y1="0" x2="1" y2="15" gradientUnits="userSpaceOnUse">
<stop stop-color="white"/>
<stop offset="0.0001" stop-color="#878787"/>
<stop offset="1" stop-color="#575757" stop-opacity="0"/>
</linearGradient>
<linearGradient id="paint59_linear_37265_57562" x1="1" y1="0" x2="1" y2="15" gradientUnits="userSpaceOnUse">
<stop stop-color="white"/>
<stop offset="0.0001" stop-color="#878787"/>
<stop offset="1" stop-color="#575757" stop-opacity="0"/>
</linearGradient>
<linearGradient id="paint60_linear_37265_57562" x1="1" y1="0" x2="1" y2="13" gradientUnits="userSpaceOnUse">
<stop stop-color="white"/>
<stop offset="0.0001" stop-color="#878787"/>
<stop offset="1" stop-color="#575757" stop-opacity="0"/>
</linearGradient>
<linearGradient id="paint61_linear_37265_57562" x1="1" y1="0" x2="1" y2="13" gradientUnits="userSpaceOnUse">
<stop stop-color="white"/>
<stop offset="0.0001" stop-color="#878787"/>
<stop offset="1" stop-color="#575757" stop-opacity="0"/>
</linearGradient>
<linearGradient id="paint62_linear_37265_57562" x1="1" y1="0" x2="1" y2="13" gradientUnits="userSpaceOnUse">
<stop stop-color="white"/>
<stop offset="0.0001" stop-color="#878787"/>
<stop offset="1" stop-color="#575757" stop-opacity="0"/>
</linearGradient>
<linearGradient id="paint63_linear_37265_57562" x1="1" y1="0" x2="1" y2="13" gradientUnits="userSpaceOnUse">
<stop stop-color="white"/>
<stop offset="0.0001" stop-color="#878787"/>
<stop offset="1" stop-color="#575757" stop-opacity="0"/>
</linearGradient>
<linearGradient id="paint64_linear_37265_57562" x1="127.5" y1="4.97262" x2="127.5" y2="77.4" gradientUnits="userSpaceOnUse">
<stop stop-color="#F53D26"/>
<stop offset="1" stop-color="#F53D26" stop-opacity="0"/>
</linearGradient>
<clipPath id="clip0_37265_57562">
<rect width="223" height="109" fill="white"/>
</clipPath>
</defs>
</svg>
