<svg width="216" height="110" viewBox="0 0 216 110" fill="none" xmlns="http://www.w3.org/2000/svg">
<g clip-path="url(#clip0_37265_57560)">
<g opacity="0.25">
<rect width="2" height="11" transform="matrix(-1 0 0 1 216 97)" fill="url(#paint0_linear_37265_57560)"/>
<rect width="2" height="11" transform="matrix(-1 0 0 1 213 97)" fill="url(#paint1_linear_37265_57560)"/>
<rect width="2" height="14" transform="matrix(-1 0 0 1 210 94)" fill="url(#paint2_linear_37265_57560)"/>
<rect width="2" height="14" transform="matrix(-1 0 0 1 207 94)" fill="url(#paint3_linear_37265_57560)"/>
<rect width="2" height="16" transform="matrix(-1 0 0 1 204 92)" fill="url(#paint4_linear_37265_57560)"/>
<rect width="2" height="16" transform="matrix(-1 0 0 1 201 92)" fill="url(#paint5_linear_37265_57560)"/>
<rect width="2" height="16" transform="matrix(-1 0 0 1 198 92)" fill="url(#paint6_linear_37265_57560)"/>
<rect width="2" height="16" transform="matrix(-1 0 0 1 195 92)" fill="url(#paint7_linear_37265_57560)"/>
<rect width="2" height="14" transform="matrix(-1 0 0 1 192 94)" fill="url(#paint8_linear_37265_57560)"/>
<rect width="2" height="14" transform="matrix(-1 0 0 1 189 94)" fill="url(#paint9_linear_37265_57560)"/>
<rect width="2" height="11" transform="matrix(-1 0 0 1 186 97)" fill="url(#paint10_linear_37265_57560)"/>
<rect width="2" height="11" transform="matrix(-1 0 0 1 183 97)" fill="url(#paint11_linear_37265_57560)"/>
<rect width="2" height="9" transform="matrix(-1 0 0 1 180 99)" fill="url(#paint12_linear_37265_57560)"/>
<rect width="2" height="9" transform="matrix(-1 0 0 1 177 99)" fill="url(#paint13_linear_37265_57560)"/>
<rect width="2" height="8" transform="matrix(-1 0 0 1 174 100)" fill="url(#paint14_linear_37265_57560)"/>
<rect width="2" height="8" transform="matrix(-1 0 0 1 171 100)" fill="url(#paint15_linear_37265_57560)"/>
<rect width="2" height="8" transform="matrix(-1 0 0 1 168 100)" fill="url(#paint16_linear_37265_57560)"/>
<rect width="2" height="8" transform="matrix(-1 0 0 1 165 100)" fill="url(#paint17_linear_37265_57560)"/>
<rect width="2" height="8" transform="matrix(-1 0 0 1 162 100)" fill="url(#paint18_linear_37265_57560)"/>
<rect width="2" height="8" transform="matrix(-1 0 0 1 159 100)" fill="url(#paint19_linear_37265_57560)"/>
<rect width="2" height="9" transform="matrix(-1 0 0 1 156 99)" fill="url(#paint20_linear_37265_57560)"/>
<rect width="2" height="9" transform="matrix(-1 0 0 1 153 99)" fill="url(#paint21_linear_37265_57560)"/>
<rect width="2" height="10" transform="matrix(-1 0 0 1 150 98)" fill="url(#paint22_linear_37265_57560)"/>
<rect width="2" height="10" transform="matrix(-1 0 0 1 147 98)" fill="url(#paint23_linear_37265_57560)"/>
<rect width="2" height="11" transform="matrix(-1 0 0 1 144 97)" fill="url(#paint24_linear_37265_57560)"/>
<rect width="2" height="11" transform="matrix(-1 0 0 1 141 97)" fill="url(#paint25_linear_37265_57560)"/>
<rect width="2" height="12" transform="matrix(-1 0 0 1 138 96)" fill="url(#paint26_linear_37265_57560)"/>
<rect width="2" height="12" transform="matrix(-1 0 0 1 135 96)" fill="url(#paint27_linear_37265_57560)"/>
<rect width="2" height="14" transform="matrix(-1 0 0 1 132 94)" fill="url(#paint28_linear_37265_57560)"/>
<rect width="2" height="14" transform="matrix(-1 0 0 1 129 94)" fill="url(#paint29_linear_37265_57560)"/>
<rect width="2" height="17" transform="matrix(-1 0 0 1 126 91)" fill="url(#paint30_linear_37265_57560)"/>
<rect width="2" height="17" transform="matrix(-1 0 0 1 123 91)" fill="url(#paint31_linear_37265_57560)"/>
<rect width="2" height="20" transform="matrix(-1 0 0 1 120 88)" fill="url(#paint32_linear_37265_57560)"/>
<rect width="2" height="20" transform="matrix(-1 0 0 1 117 88)" fill="url(#paint33_linear_37265_57560)"/>
<rect width="2" height="21" transform="matrix(-1 0 0 1 114 87)" fill="url(#paint34_linear_37265_57560)"/>
<rect width="2" height="21" transform="matrix(-1 0 0 1 111 87)" fill="url(#paint35_linear_37265_57560)"/>
<rect width="2" height="21" transform="matrix(-1 0 0 1 108 87)" fill="url(#paint36_linear_37265_57560)"/>
<rect width="2" height="21" transform="matrix(-1 0 0 1 105 87)" fill="url(#paint37_linear_37265_57560)"/>
<rect width="2" height="20" transform="matrix(-1 0 0 1 102 88)" fill="url(#paint38_linear_37265_57560)"/>
<rect width="2" height="20" transform="matrix(-1 0 0 1 99 88)" fill="url(#paint39_linear_37265_57560)"/>
<rect width="2" height="17" transform="matrix(-1 0 0 1 96 91)" fill="url(#paint40_linear_37265_57560)"/>
<rect width="2" height="17" transform="matrix(-1 0 0 1 93 91)" fill="url(#paint41_linear_37265_57560)"/>
<rect width="2" height="16" transform="matrix(-1 0 0 1 90 92)" fill="url(#paint42_linear_37265_57560)"/>
<rect width="2" height="16" transform="matrix(-1 0 0 1 87 92)" fill="url(#paint43_linear_37265_57560)"/>
<rect width="2" height="15" transform="matrix(-1 0 0 1 84 93)" fill="url(#paint44_linear_37265_57560)"/>
<rect width="2" height="15" transform="matrix(-1 0 0 1 81 93)" fill="url(#paint45_linear_37265_57560)"/>
<rect width="2" height="16" transform="matrix(-1 0 0 1 78 92)" fill="url(#paint46_linear_37265_57560)"/>
<rect width="2" height="16" transform="matrix(-1 0 0 1 75 92)" fill="url(#paint47_linear_37265_57560)"/>
<rect width="2" height="17" transform="matrix(-1 0 0 1 72 91)" fill="url(#paint48_linear_37265_57560)"/>
<rect width="2" height="17" transform="matrix(-1 0 0 1 69 91)" fill="url(#paint49_linear_37265_57560)"/>
<rect width="2" height="17" transform="matrix(-1 0 0 1 66 91)" fill="url(#paint50_linear_37265_57560)"/>
<rect width="2" height="17" transform="matrix(-1 0 0 1 63 91)" fill="url(#paint51_linear_37265_57560)"/>
<rect width="2" height="18" transform="matrix(-1 0 0 1 60 90)" fill="url(#paint52_linear_37265_57560)"/>
<rect width="2" height="18" transform="matrix(-1 0 0 1 57 90)" fill="url(#paint53_linear_37265_57560)"/>
<rect width="2" height="17" transform="matrix(-1 0 0 1 54 91)" fill="url(#paint54_linear_37265_57560)"/>
<rect width="2" height="17" transform="matrix(-1 0 0 1 51 91)" fill="url(#paint55_linear_37265_57560)"/>
<rect width="2" height="17" transform="matrix(-1 0 0 1 48 91)" fill="url(#paint56_linear_37265_57560)"/>
<rect width="2" height="17" transform="matrix(-1 0 0 1 45 91)" fill="url(#paint57_linear_37265_57560)"/>
<rect width="2" height="15" transform="matrix(-1 0 0 1 42 93)" fill="url(#paint58_linear_37265_57560)"/>
<rect width="2" height="15" transform="matrix(-1 0 0 1 39 93)" fill="url(#paint59_linear_37265_57560)"/>
<rect width="2" height="13" transform="matrix(-1 0 0 1 36 95)" fill="url(#paint60_linear_37265_57560)"/>
<rect width="2" height="13" transform="matrix(-1 0 0 1 33 95)" fill="url(#paint61_linear_37265_57560)"/>
<rect width="2" height="13" transform="matrix(-1 0 0 1 30 95)" fill="url(#paint62_linear_37265_57560)"/>
<rect width="2" height="13" transform="matrix(-1 0 0 1 27 95)" fill="url(#paint63_linear_37265_57560)"/>
</g>
<path d="M214.092 46.0437L216 39.2506V78.399H214.092H204.713H193.585H182.298H171.17H159.883H148.596H137.468H126.181H115.053H103.766H92.6375H81.3504H70.0634H58.9353H47.6483H36.5202H27.1409H25.2332L25 53.7474L33 49.1252L40 33.7178L47.6483 19.901L50.5 18.3105L58.9353 19.901L65.6837 36.7993H71.177L81.3504 64.8997L86.5 58.3695L92.6375 63.5497L101.5 44.2004H109L117 46.0437L122 43.3005L126.181 55.9L132 40.6006L137.468 57.6999L143 54.5501L145.5 60.8498L148.596 57.6999L159.883 74.7993L171.17 49.6002V57.6999L179.5 40.6006L184 36.7993L187 45.1004L192 42.4005L196 38.3506L204.713 55.9L211 44.2004L214.092 46.0437Z" fill="url(#paint64_linear_37265_57560)" fill-opacity="0.15"/>
<path d="M216 39.9551L215.046 37.0411L214.092 44.6201L212.92 51.2272L211.747 47.3413L210.575 43.4553L209.403 50.0625L208.23 56.6696L207.058 52.7837L205.885 48.8977L204.713 55.5049L204.017 59.2936L203.322 52.5893L202.626 45.885L201.931 49.6737L201.235 53.4625L200.54 46.7581L199.844 40.0538L199.149 43.8426L198.453 44.4834L197.758 40.927L197.062 37.3706L196.367 38.0114L195.671 37.603L194.976 43.0462L194.28 43.6871L193.585 40.1306L192.174 42.8124L190.763 41.2969L189.352 43.9786L187.941 43.5124L186.531 45.1448L185.12 34.6297L183.709 37.3114L182.298 35.7959L181.602 38.5748L180.907 37.1565L180.211 39.4108L179.516 38.5171L178.82 41.296L178.125 39.8777L177.429 47.1565L176.734 46.2628L176.038 53.0169L175.343 51.5985L174.647 53.8528L173.952 48.7619L173.256 55.2134L172.561 54.8444L171.865 61.2959L171.17 56.7297L170.464 48.6847L169.759 51.289L169.053 51.7946L168.348 54.3989L167.643 53.8553L166.937 58.0335L166.232 53.2926L165.526 60.6188L164.821 60.5998L164.115 68.9753L163.41 59.5125L162.705 71.5606L161.999 67.869L161.294 68.3746L160.588 72.0282L159.883 71.4846L159.177 76.8086L158.472 65.3436L157.766 69.6183L157.061 71.2697L156.356 65.576L155.65 68.2767L154.945 64.6816L154.239 64.759L153.534 62.2132L152.828 62.8153L152.123 60.2695L151.417 60.8716L150.712 59.8998L150.007 57.3539L149.301 57.956L148.596 56.9842L147.205 56.6539L145.814 62.6195L144.423 57.0426L143.032 52.5151L141.641 57.4314L140.25 60.2491L138.859 55.1969L137.468 58.5392L136.057 56.1103L134.646 49.9283L133.235 41.123L131.824 38.6941L130.413 41.5117L129.002 50.7057L127.591 56.1467L126.181 56.341L125.485 49.9283L124.79 48.762L124.094 44.9725L123.399 46.4296L122.703 45.2633L122.008 41.4738L121.312 42.9309L120.617 47.0112L119.921 46.9748L119.226 48.4319L118.53 47.2656L117.835 40.8529L117.139 50.1797L116.444 38.5204L115.748 42.6007L115.053 41.4345L114.347 42.5035L113.642 45.6712L112.936 44.6416L112.231 48.3339L111.525 46.7797L110.82 50.472L110.114 39.9181L109.409 43.6104L107.998 43.1253L107.293 41.0464L106.587 45.2633L105.882 43.1844L105.176 47.4014L104.471 45.3225L103.766 49.5395L103.07 44.6882L102.375 40.8994L101.679 47.6037L100.984 43.815L100.288 45.2727L99.5925 51.9771L98.897 48.1883L98.2015 49.6461L97.506 45.8573L96.8105 52.5617L96.115 48.7729L95.4195 55.4772L94.724 51.6885L94.0285 58.3928L93.333 59.8506L92.6375 56.0618L91.2266 66.7493L89.8157 61.6971L88.4048 56.6449L86.9939 62.0859L85.5831 51.7871L84.1722 57.2281L82.7613 62.669L81.3504 68.1099L80.645 61.5999L79.9395 55.09L79.2341 59.0731L78.5287 57.8097L77.8232 51.2997L77.1178 55.2829L76.4123 59.266L75.7069 52.756L75.0015 51.4926L74.296 55.4758L73.5906 48.9658L72.8852 47.7024L72.1797 41.1924L71.4743 45.1756L70.7688 34.9125L70.0634 39.9582L68.6724 33.3492L67.2814 38.2958L65.8904 32.7493L64.4994 37.6959L63.1083 32.1495L61.7173 21.5453L60.3263 18.0974L58.9353 20.9455L57.5244 17.7975L56.1136 20.9455L54.7027 18.8468L53.2918 24.0934L51.8809 18.8468L50.47 13.6003L49.0592 24.0934L47.6483 18.8468L46.9528 20.163L46.2573 16.2327L45.5618 22.7954L44.8663 18.8651L44.1708 25.4278L43.4753 31.9905L42.7798 28.0602L42.0842 24.1298L41.3887 30.6925L40.6932 37.2553L39.9977 33.3249L39.3022 29.3946L38.6067 35.9573L37.9112 42.52L37.2157 38.5897L36.5202 39.9059L35.934 35.534L35.3478 41.6552L34.7616 42.5299L34.1754 43.4046L33.5892 44.2792L33.003 39.9073L32.4167 46.0286L31.8305 46.9032L31.2443 53.0245L30.6581 48.6526L30.0719 49.5272L29.4857 55.6485L28.8995 51.2766L28.3133 52.1513L27.7271 53.0259L27.1408 59.2564L26.187 53.9006H25.2332" stroke="#F53D26" stroke-width="0.8"/>
<path opacity="0.8" d="M5.19824 5.95117C5.19824 6.38411 5.09733 6.75195 4.89551 7.05469C4.69694 7.35417 4.42676 7.58203 4.08496 7.73828C3.74642 7.89453 3.36393 7.97266 2.9375 7.97266C2.51107 7.97266 2.12695 7.89453 1.78516 7.73828C1.44336 7.58203 1.17318 7.35417 0.974609 7.05469C0.776042 6.75195 0.676758 6.38411 0.676758 5.95117C0.676758 5.66797 0.730469 5.40918 0.837891 5.1748C0.948568 4.93717 1.10319 4.73047 1.30176 4.55469C1.50358 4.37891 1.74121 4.24382 2.01465 4.14941C2.29134 4.05176 2.5957 4.00293 2.92773 4.00293C3.36393 4.00293 3.75293 4.08757 4.09473 4.25684C4.43652 4.42285 4.70508 4.65234 4.90039 4.94531C5.09896 5.23828 5.19824 5.57357 5.19824 5.95117ZM4.29004 5.93164C4.29004 5.66797 4.23307 5.43522 4.11914 5.2334C4.00521 5.02832 3.8457 4.86882 3.64062 4.75488C3.43555 4.64095 3.19792 4.58398 2.92773 4.58398C2.65104 4.58398 2.41178 4.64095 2.20996 4.75488C2.01139 4.86882 1.85677 5.02832 1.74609 5.2334C1.63542 5.43522 1.58008 5.66797 1.58008 5.93164C1.58008 6.20508 1.63379 6.43945 1.74121 6.63477C1.85189 6.82682 2.00814 6.97493 2.20996 7.0791C2.41504 7.18001 2.65755 7.23047 2.9375 7.23047C3.21745 7.23047 3.45833 7.18001 3.66016 7.0791C3.86198 6.97493 4.0166 6.82682 4.12402 6.63477C4.2347 6.43945 4.29004 6.20508 4.29004 5.93164ZM5.03223 2.61621C5.03223 2.96126 4.94108 3.27214 4.75879 3.54883C4.5765 3.82552 4.32747 4.04362 4.01172 4.20312C3.69596 4.36263 3.33789 4.44238 2.9375 4.44238C2.5306 4.44238 2.16764 4.36263 1.84863 4.20312C1.53288 4.04362 1.28548 3.82552 1.10645 3.54883C0.927409 3.27214 0.837891 2.96126 0.837891 2.61621C0.837891 2.2028 0.927409 1.85124 1.10645 1.56152C1.28874 1.27181 1.53776 1.05046 1.85352 0.897461C2.16927 0.744466 2.52897 0.667969 2.93262 0.667969C3.33952 0.667969 3.70085 0.744466 4.0166 0.897461C4.33236 1.05046 4.57975 1.27181 4.75879 1.56152C4.94108 1.85124 5.03223 2.2028 5.03223 2.61621ZM4.12891 2.63086C4.12891 2.39323 4.07845 2.18327 3.97754 2.00098C3.87663 1.81868 3.73665 1.67546 3.55762 1.57129C3.37858 1.46387 3.17025 1.41016 2.93262 1.41016C2.69499 1.41016 2.48665 1.46061 2.30762 1.56152C2.13184 1.65918 1.99349 1.79915 1.89258 1.98145C1.79492 2.16374 1.74609 2.38021 1.74609 2.63086C1.74609 2.875 1.79492 3.08822 1.89258 3.27051C1.99349 3.4528 2.13346 3.5944 2.3125 3.69531C2.49154 3.79622 2.69987 3.84668 2.9375 3.84668C3.17513 3.84668 3.38184 3.79622 3.55762 3.69531C3.73665 3.5944 3.87663 3.4528 3.97754 3.27051C4.07845 3.08822 4.12891 2.875 4.12891 2.63086ZM10.999 7.13281V7.875H6.3457V7.22559L8.6748 4.63281C8.96126 4.3138 9.18262 4.04362 9.33887 3.82227C9.49837 3.59766 9.60905 3.39746 9.6709 3.22168C9.736 3.04264 9.76855 2.86035 9.76855 2.6748C9.76855 2.44043 9.71973 2.22884 9.62207 2.04004C9.52767 1.84798 9.3877 1.69499 9.20215 1.58105C9.0166 1.46712 8.79199 1.41016 8.52832 1.41016C8.21257 1.41016 7.94889 1.47201 7.7373 1.5957C7.52897 1.71615 7.37272 1.88542 7.26855 2.10352C7.16439 2.32161 7.1123 2.57227 7.1123 2.85547H6.20898C6.20898 2.45508 6.29688 2.08887 6.47266 1.75684C6.64844 1.4248 6.90885 1.16113 7.25391 0.96582C7.59896 0.767253 8.02376 0.667969 8.52832 0.667969C8.97754 0.667969 9.36165 0.747721 9.68066 0.907227C9.99967 1.06348 10.2438 1.28483 10.4131 1.57129C10.5856 1.85449 10.6719 2.18652 10.6719 2.56738C10.6719 2.77572 10.6361 2.9873 10.5645 3.20215C10.4961 3.41374 10.4001 3.62533 10.2764 3.83691C10.1559 4.0485 10.0143 4.25684 9.85156 4.46191C9.69206 4.66699 9.52116 4.86882 9.33887 5.06738L7.43457 7.13281H10.999ZM16.4287 3.75391V4.83789C16.4287 5.42057 16.3766 5.91211 16.2725 6.3125C16.1683 6.71289 16.0186 7.03516 15.8232 7.2793C15.6279 7.52344 15.3919 7.70085 15.1152 7.81152C14.8418 7.91895 14.5326 7.97266 14.1875 7.97266C13.9141 7.97266 13.6618 7.93848 13.4307 7.87012C13.1995 7.80176 12.9912 7.69271 12.8057 7.54297C12.6234 7.38997 12.4671 7.19141 12.3369 6.94727C12.2067 6.70312 12.1074 6.4069 12.0391 6.05859C11.9707 5.71029 11.9365 5.30339 11.9365 4.83789V3.75391C11.9365 3.17122 11.9886 2.68294 12.0928 2.28906C12.2002 1.89518 12.3516 1.57943 12.5469 1.3418C12.7422 1.10091 12.9766 0.928385 13.25 0.824219C13.5267 0.720052 13.8359 0.667969 14.1777 0.667969C14.4544 0.667969 14.7083 0.702148 14.9395 0.770508C15.1738 0.835612 15.3822 0.941406 15.5645 1.08789C15.7467 1.23112 15.9014 1.42318 16.0283 1.66406C16.1585 1.90169 16.2578 2.19303 16.3262 2.53809C16.3945 2.88314 16.4287 3.28841 16.4287 3.75391ZM15.5205 4.98438V3.60254C15.5205 3.28353 15.501 3.00358 15.4619 2.7627C15.4261 2.51855 15.3724 2.31022 15.3008 2.1377C15.2292 1.96517 15.138 1.8252 15.0273 1.71777C14.9199 1.61035 14.7946 1.53223 14.6514 1.4834C14.5114 1.43132 14.3535 1.40527 14.1777 1.40527C13.9629 1.40527 13.7725 1.44596 13.6064 1.52734C13.4404 1.60547 13.3005 1.73079 13.1865 1.90332C13.0758 2.07585 12.9912 2.30208 12.9326 2.58203C12.874 2.86198 12.8447 3.20215 12.8447 3.60254V4.98438C12.8447 5.30339 12.8626 5.58496 12.8984 5.8291C12.9375 6.07324 12.9945 6.28483 13.0693 6.46387C13.1442 6.63965 13.2354 6.78451 13.3428 6.89844C13.4502 7.01237 13.5739 7.09701 13.7139 7.15234C13.8571 7.20443 14.015 7.23047 14.1875 7.23047C14.4089 7.23047 14.6025 7.18815 14.7686 7.10352C14.9346 7.01888 15.0729 6.88704 15.1836 6.70801C15.2975 6.52572 15.3822 6.29297 15.4375 6.00977C15.4928 5.72331 15.5205 5.38151 15.5205 4.98438Z" fill="white"/>
<line x1="25.5" y1="4.5" x2="215.5" y2="4.5" stroke="white" stroke-opacity="0.4" stroke-miterlimit="16" stroke-linecap="round" stroke-linejoin="round" stroke-dasharray="0.1 3"/>
<path opacity="0.8" d="M5.19824 31.7012C5.19824 32.1341 5.09733 32.502 4.89551 32.8047C4.69694 33.1042 4.42676 33.332 4.08496 33.4883C3.74642 33.6445 3.36393 33.7227 2.9375 33.7227C2.51107 33.7227 2.12695 33.6445 1.78516 33.4883C1.44336 33.332 1.17318 33.1042 0.974609 32.8047C0.776042 32.502 0.676758 32.1341 0.676758 31.7012C0.676758 31.418 0.730469 31.1592 0.837891 30.9248C0.948568 30.6872 1.10319 30.4805 1.30176 30.3047C1.50358 30.1289 1.74121 29.9938 2.01465 29.8994C2.29134 29.8018 2.5957 29.7529 2.92773 29.7529C3.36393 29.7529 3.75293 29.8376 4.09473 30.0068C4.43652 30.1729 4.70508 30.4023 4.90039 30.6953C5.09896 30.9883 5.19824 31.3236 5.19824 31.7012ZM4.29004 31.6816C4.29004 31.418 4.23307 31.1852 4.11914 30.9834C4.00521 30.7783 3.8457 30.6188 3.64062 30.5049C3.43555 30.391 3.19792 30.334 2.92773 30.334C2.65104 30.334 2.41178 30.391 2.20996 30.5049C2.01139 30.6188 1.85677 30.7783 1.74609 30.9834C1.63542 31.1852 1.58008 31.418 1.58008 31.6816C1.58008 31.9551 1.63379 32.1895 1.74121 32.3848C1.85189 32.5768 2.00814 32.7249 2.20996 32.8291C2.41504 32.93 2.65755 32.9805 2.9375 32.9805C3.21745 32.9805 3.45833 32.93 3.66016 32.8291C3.86198 32.7249 4.0166 32.5768 4.12402 32.3848C4.2347 32.1895 4.29004 31.9551 4.29004 31.6816ZM5.03223 28.3662C5.03223 28.7113 4.94108 29.0221 4.75879 29.2988C4.5765 29.5755 4.32747 29.7936 4.01172 29.9531C3.69596 30.1126 3.33789 30.1924 2.9375 30.1924C2.5306 30.1924 2.16764 30.1126 1.84863 29.9531C1.53288 29.7936 1.28548 29.5755 1.10645 29.2988C0.927409 29.0221 0.837891 28.7113 0.837891 28.3662C0.837891 27.9528 0.927409 27.6012 1.10645 27.3115C1.28874 27.0218 1.53776 26.8005 1.85352 26.6475C2.16927 26.4945 2.52897 26.418 2.93262 26.418C3.33952 26.418 3.70085 26.4945 4.0166 26.6475C4.33236 26.8005 4.57975 27.0218 4.75879 27.3115C4.94108 27.6012 5.03223 27.9528 5.03223 28.3662ZM4.12891 28.3809C4.12891 28.1432 4.07845 27.9333 3.97754 27.751C3.87663 27.5687 3.73665 27.4255 3.55762 27.3213C3.37858 27.2139 3.17025 27.1602 2.93262 27.1602C2.69499 27.1602 2.48665 27.2106 2.30762 27.3115C2.13184 27.4092 1.99349 27.5492 1.89258 27.7314C1.79492 27.9137 1.74609 28.1302 1.74609 28.3809C1.74609 28.625 1.79492 28.8382 1.89258 29.0205C1.99349 29.2028 2.13346 29.3444 2.3125 29.4453C2.49154 29.5462 2.69987 29.5967 2.9375 29.5967C3.17513 29.5967 3.38184 29.5462 3.55762 29.4453C3.73665 29.3444 3.87663 29.2028 3.97754 29.0205C4.07845 28.8382 4.12891 28.625 4.12891 28.3809ZM9.30957 26.4766V33.625H8.40625V27.6045L6.58496 28.2686V27.4531L9.16797 26.4766H9.30957ZM13.1084 30.2412L12.3857 30.0557L12.7422 26.5156H16.3896V27.3506H13.5088L13.2939 29.2842C13.4242 29.2093 13.5885 29.1393 13.7871 29.0742C13.9889 29.0091 14.2201 28.9766 14.4805 28.9766C14.8092 28.9766 15.1038 29.0335 15.3643 29.1475C15.6247 29.2581 15.846 29.4176 16.0283 29.626C16.2139 29.8343 16.3555 30.085 16.4531 30.3779C16.5508 30.6709 16.5996 30.998 16.5996 31.3594C16.5996 31.7012 16.5524 32.0153 16.458 32.3018C16.3669 32.5882 16.2285 32.8389 16.043 33.0537C15.8574 33.2653 15.623 33.4297 15.3398 33.5469C15.0599 33.6641 14.7295 33.7227 14.3486 33.7227C14.0622 33.7227 13.7904 33.6836 13.5332 33.6055C13.2793 33.5241 13.0514 33.402 12.8496 33.2393C12.651 33.0732 12.4883 32.8682 12.3613 32.624C12.2376 32.3766 12.1595 32.0869 12.127 31.7549H12.9863C13.0254 32.0218 13.1035 32.2464 13.2207 32.4287C13.3379 32.611 13.4909 32.7493 13.6797 32.8438C13.8717 32.9349 14.0947 32.9805 14.3486 32.9805C14.5635 32.9805 14.7539 32.943 14.9199 32.8682C15.0859 32.7933 15.2259 32.6859 15.3398 32.5459C15.4538 32.4059 15.54 32.2367 15.5986 32.0381C15.6605 31.8395 15.6914 31.6165 15.6914 31.3691C15.6914 31.1445 15.6605 30.9362 15.5986 30.7441C15.5368 30.5521 15.444 30.3844 15.3203 30.2412C15.1999 30.098 15.0518 29.9873 14.876 29.9092C14.7002 29.8278 14.4984 29.7871 14.2705 29.7871C13.9678 29.7871 13.7383 29.8278 13.582 29.9092C13.429 29.9906 13.2712 30.1012 13.1084 30.2412Z" fill="white"/>
<line x1="25.5" y1="30" x2="215.5" y2="30" stroke="white" stroke-opacity="0.4" stroke-miterlimit="16" stroke-linecap="round" stroke-linejoin="round" stroke-dasharray="0.1 3"/>
<path opacity="0.8" d="M5.19824 57.4512C5.19824 57.8841 5.09733 58.252 4.89551 58.5547C4.69694 58.8542 4.42676 59.082 4.08496 59.2383C3.74642 59.3945 3.36393 59.4727 2.9375 59.4727C2.51107 59.4727 2.12695 59.3945 1.78516 59.2383C1.44336 59.082 1.17318 58.8542 0.974609 58.5547C0.776042 58.252 0.676758 57.8841 0.676758 57.4512C0.676758 57.168 0.730469 56.9092 0.837891 56.6748C0.948568 56.4372 1.10319 56.2305 1.30176 56.0547C1.50358 55.8789 1.74121 55.7438 2.01465 55.6494C2.29134 55.5518 2.5957 55.5029 2.92773 55.5029C3.36393 55.5029 3.75293 55.5876 4.09473 55.7568C4.43652 55.9229 4.70508 56.1523 4.90039 56.4453C5.09896 56.7383 5.19824 57.0736 5.19824 57.4512ZM4.29004 57.4316C4.29004 57.168 4.23307 56.9352 4.11914 56.7334C4.00521 56.5283 3.8457 56.3688 3.64062 56.2549C3.43555 56.141 3.19792 56.084 2.92773 56.084C2.65104 56.084 2.41178 56.141 2.20996 56.2549C2.01139 56.3688 1.85677 56.5283 1.74609 56.7334C1.63542 56.9352 1.58008 57.168 1.58008 57.4316C1.58008 57.7051 1.63379 57.9395 1.74121 58.1348C1.85189 58.3268 2.00814 58.4749 2.20996 58.5791C2.41504 58.68 2.65755 58.7305 2.9375 58.7305C3.21745 58.7305 3.45833 58.68 3.66016 58.5791C3.86198 58.4749 4.0166 58.3268 4.12402 58.1348C4.2347 57.9395 4.29004 57.7051 4.29004 57.4316ZM5.03223 54.1162C5.03223 54.4613 4.94108 54.7721 4.75879 55.0488C4.5765 55.3255 4.32747 55.5436 4.01172 55.7031C3.69596 55.8626 3.33789 55.9424 2.9375 55.9424C2.5306 55.9424 2.16764 55.8626 1.84863 55.7031C1.53288 55.5436 1.28548 55.3255 1.10645 55.0488C0.927409 54.7721 0.837891 54.4613 0.837891 54.1162C0.837891 53.7028 0.927409 53.3512 1.10645 53.0615C1.28874 52.7718 1.53776 52.5505 1.85352 52.3975C2.16927 52.2445 2.52897 52.168 2.93262 52.168C3.33952 52.168 3.70085 52.2445 4.0166 52.3975C4.33236 52.5505 4.57975 52.7718 4.75879 53.0615C4.94108 53.3512 5.03223 53.7028 5.03223 54.1162ZM4.12891 54.1309C4.12891 53.8932 4.07845 53.6833 3.97754 53.501C3.87663 53.3187 3.73665 53.1755 3.55762 53.0713C3.37858 52.9639 3.17025 52.9102 2.93262 52.9102C2.69499 52.9102 2.48665 52.9606 2.30762 53.0615C2.13184 53.1592 1.99349 53.2992 1.89258 53.4814C1.79492 53.6637 1.74609 53.8802 1.74609 54.1309C1.74609 54.375 1.79492 54.5882 1.89258 54.7705C1.99349 54.9528 2.13346 55.0944 2.3125 55.1953C2.49154 55.2962 2.69987 55.3467 2.9375 55.3467C3.17513 55.3467 3.38184 55.2962 3.55762 55.1953C3.73665 55.0944 3.87663 54.9528 3.97754 54.7705C4.07845 54.5882 4.12891 54.375 4.12891 54.1309ZM9.30957 52.2266V59.375H8.40625V53.3545L6.58496 54.0186V53.2031L9.16797 52.2266H9.30957ZM16.4287 55.2539V56.3379C16.4287 56.9206 16.3766 57.4121 16.2725 57.8125C16.1683 58.2129 16.0186 58.5352 15.8232 58.7793C15.6279 59.0234 15.3919 59.2008 15.1152 59.3115C14.8418 59.4189 14.5326 59.4727 14.1875 59.4727C13.9141 59.4727 13.6618 59.4385 13.4307 59.3701C13.1995 59.3018 12.9912 59.1927 12.8057 59.043C12.6234 58.89 12.4671 58.6914 12.3369 58.4473C12.2067 58.2031 12.1074 57.9069 12.0391 57.5586C11.9707 57.2103 11.9365 56.8034 11.9365 56.3379V55.2539C11.9365 54.6712 11.9886 54.1829 12.0928 53.7891C12.2002 53.3952 12.3516 53.0794 12.5469 52.8418C12.7422 52.6009 12.9766 52.4284 13.25 52.3242C13.5267 52.2201 13.8359 52.168 14.1777 52.168C14.4544 52.168 14.7083 52.2021 14.9395 52.2705C15.1738 52.3356 15.3822 52.4414 15.5645 52.5879C15.7467 52.7311 15.9014 52.9232 16.0283 53.1641C16.1585 53.4017 16.2578 53.693 16.3262 54.0381C16.3945 54.3831 16.4287 54.7884 16.4287 55.2539ZM15.5205 56.4844V55.1025C15.5205 54.7835 15.501 54.5036 15.4619 54.2627C15.4261 54.0186 15.3724 53.8102 15.3008 53.6377C15.2292 53.4652 15.138 53.3252 15.0273 53.2178C14.9199 53.1104 14.7946 53.0322 14.6514 52.9834C14.5114 52.9313 14.3535 52.9053 14.1777 52.9053C13.9629 52.9053 13.7725 52.946 13.6064 53.0273C13.4404 53.1055 13.3005 53.2308 13.1865 53.4033C13.0758 53.5758 12.9912 53.8021 12.9326 54.082C12.874 54.362 12.8447 54.7021 12.8447 55.1025V56.4844C12.8447 56.8034 12.8626 57.085 12.8984 57.3291C12.9375 57.5732 12.9945 57.7848 13.0693 57.9639C13.1442 58.1396 13.2354 58.2845 13.3428 58.3984C13.4502 58.5124 13.5739 58.597 13.7139 58.6523C13.8571 58.7044 14.015 58.7305 14.1875 58.7305C14.4089 58.7305 14.6025 58.6882 14.7686 58.6035C14.9346 58.5189 15.0729 58.387 15.1836 58.208C15.2975 58.0257 15.3822 57.793 15.4375 57.5098C15.4928 57.2233 15.5205 56.8815 15.5205 56.4844Z" fill="white"/>
<line x1="25.5" y1="55.5" x2="215.5" y2="55.5" stroke="white" stroke-opacity="0.4" stroke-miterlimit="16" stroke-linecap="round" stroke-linejoin="round" stroke-dasharray="0.1 3"/>
<path opacity="0.8" d="M5.19824 83.7012C5.19824 84.1341 5.09733 84.502 4.89551 84.8047C4.69694 85.1042 4.42676 85.332 4.08496 85.4883C3.74642 85.6445 3.36393 85.7227 2.9375 85.7227C2.51107 85.7227 2.12695 85.6445 1.78516 85.4883C1.44336 85.332 1.17318 85.1042 0.974609 84.8047C0.776042 84.502 0.676758 84.1341 0.676758 83.7012C0.676758 83.418 0.730469 83.1592 0.837891 82.9248C0.948568 82.6872 1.10319 82.4805 1.30176 82.3047C1.50358 82.1289 1.74121 81.9938 2.01465 81.8994C2.29134 81.8018 2.5957 81.7529 2.92773 81.7529C3.36393 81.7529 3.75293 81.8376 4.09473 82.0068C4.43652 82.1729 4.70508 82.4023 4.90039 82.6953C5.09896 82.9883 5.19824 83.3236 5.19824 83.7012ZM4.29004 83.6816C4.29004 83.418 4.23307 83.1852 4.11914 82.9834C4.00521 82.7783 3.8457 82.6188 3.64062 82.5049C3.43555 82.391 3.19792 82.334 2.92773 82.334C2.65104 82.334 2.41178 82.391 2.20996 82.5049C2.01139 82.6188 1.85677 82.7783 1.74609 82.9834C1.63542 83.1852 1.58008 83.418 1.58008 83.6816C1.58008 83.9551 1.63379 84.1895 1.74121 84.3848C1.85189 84.5768 2.00814 84.7249 2.20996 84.8291C2.41504 84.93 2.65755 84.9805 2.9375 84.9805C3.21745 84.9805 3.45833 84.93 3.66016 84.8291C3.86198 84.7249 4.0166 84.5768 4.12402 84.3848C4.2347 84.1895 4.29004 83.9551 4.29004 83.6816ZM5.03223 80.3662C5.03223 80.7113 4.94108 81.0221 4.75879 81.2988C4.5765 81.5755 4.32747 81.7936 4.01172 81.9531C3.69596 82.1126 3.33789 82.1924 2.9375 82.1924C2.5306 82.1924 2.16764 82.1126 1.84863 81.9531C1.53288 81.7936 1.28548 81.5755 1.10645 81.2988C0.927409 81.0221 0.837891 80.7113 0.837891 80.3662C0.837891 79.9528 0.927409 79.6012 1.10645 79.3115C1.28874 79.0218 1.53776 78.8005 1.85352 78.6475C2.16927 78.4945 2.52897 78.418 2.93262 78.418C3.33952 78.418 3.70085 78.4945 4.0166 78.6475C4.33236 78.8005 4.57975 79.0218 4.75879 79.3115C4.94108 79.6012 5.03223 79.9528 5.03223 80.3662ZM4.12891 80.3809C4.12891 80.1432 4.07845 79.9333 3.97754 79.751C3.87663 79.5687 3.73665 79.4255 3.55762 79.3213C3.37858 79.2139 3.17025 79.1602 2.93262 79.1602C2.69499 79.1602 2.48665 79.2106 2.30762 79.3115C2.13184 79.4092 1.99349 79.5492 1.89258 79.7314C1.79492 79.9137 1.74609 80.1302 1.74609 80.3809C1.74609 80.625 1.79492 80.8382 1.89258 81.0205C1.99349 81.2028 2.13346 81.3444 2.3125 81.4453C2.49154 81.5462 2.69987 81.5967 2.9375 81.5967C3.17513 81.5967 3.38184 81.5462 3.55762 81.4453C3.73665 81.3444 3.87663 81.2028 3.97754 81.0205C4.07845 80.8382 4.12891 80.625 4.12891 80.3809ZM10.8037 81.5039V82.5879C10.8037 83.1706 10.7516 83.6621 10.6475 84.0625C10.5433 84.4629 10.3936 84.7852 10.1982 85.0293C10.0029 85.2734 9.76693 85.4508 9.49023 85.5615C9.2168 85.6689 8.90755 85.7227 8.5625 85.7227C8.28906 85.7227 8.03678 85.6885 7.80566 85.6201C7.57454 85.5518 7.36621 85.4427 7.18066 85.293C6.99837 85.14 6.84212 84.9414 6.71191 84.6973C6.58171 84.4531 6.48242 84.1569 6.41406 83.8086C6.3457 83.4603 6.31152 83.0534 6.31152 82.5879V81.5039C6.31152 80.9212 6.36361 80.4329 6.46777 80.0391C6.5752 79.6452 6.72656 79.3294 6.92188 79.0918C7.11719 78.8509 7.35156 78.6784 7.625 78.5742C7.90169 78.4701 8.21094 78.418 8.55273 78.418C8.82943 78.418 9.08333 78.4521 9.31445 78.5205C9.54883 78.5856 9.75716 78.6914 9.93945 78.8379C10.1217 78.9811 10.2764 79.1732 10.4033 79.4141C10.5335 79.6517 10.6328 79.943 10.7012 80.2881C10.7695 80.6331 10.8037 81.0384 10.8037 81.5039ZM9.89551 82.7344V81.3525C9.89551 81.0335 9.87598 80.7536 9.83691 80.5127C9.80111 80.2686 9.7474 80.0602 9.67578 79.8877C9.60417 79.7152 9.51302 79.5752 9.40234 79.4678C9.29492 79.3604 9.1696 79.2822 9.02637 79.2334C8.88639 79.1813 8.72852 79.1553 8.55273 79.1553C8.33789 79.1553 8.14746 79.196 7.98145 79.2773C7.81543 79.3555 7.67546 79.4808 7.56152 79.6533C7.45085 79.8258 7.36621 80.0521 7.30762 80.332C7.24902 80.612 7.21973 80.9521 7.21973 81.3525V82.7344C7.21973 83.0534 7.23763 83.335 7.27344 83.5791C7.3125 83.8232 7.36947 84.0348 7.44434 84.2139C7.51921 84.3896 7.61035 84.5345 7.71777 84.6484C7.8252 84.7624 7.94889 84.847 8.08887 84.9023C8.2321 84.9544 8.38997 84.9805 8.5625 84.9805C8.78385 84.9805 8.97754 84.9382 9.14355 84.8535C9.30957 84.7689 9.44792 84.637 9.55859 84.458C9.67253 84.2757 9.75716 84.043 9.8125 83.7598C9.86784 83.4733 9.89551 83.1315 9.89551 82.7344ZM13.1084 82.2412L12.3857 82.0557L12.7422 78.5156H16.3896V79.3506H13.5088L13.2939 81.2842C13.4242 81.2093 13.5885 81.1393 13.7871 81.0742C13.9889 81.0091 14.2201 80.9766 14.4805 80.9766C14.8092 80.9766 15.1038 81.0335 15.3643 81.1475C15.6247 81.2581 15.846 81.4176 16.0283 81.626C16.2139 81.8343 16.3555 82.085 16.4531 82.3779C16.5508 82.6709 16.5996 82.998 16.5996 83.3594C16.5996 83.7012 16.5524 84.0153 16.458 84.3018C16.3669 84.5882 16.2285 84.8389 16.043 85.0537C15.8574 85.2653 15.623 85.4297 15.3398 85.5469C15.0599 85.6641 14.7295 85.7227 14.3486 85.7227C14.0622 85.7227 13.7904 85.6836 13.5332 85.6055C13.2793 85.5241 13.0514 85.402 12.8496 85.2393C12.651 85.0732 12.4883 84.8682 12.3613 84.624C12.2376 84.3766 12.1595 84.0869 12.127 83.7549H12.9863C13.0254 84.0218 13.1035 84.2464 13.2207 84.4287C13.3379 84.611 13.4909 84.7493 13.6797 84.8438C13.8717 84.9349 14.0947 84.9805 14.3486 84.9805C14.5635 84.9805 14.7539 84.943 14.9199 84.8682C15.0859 84.7933 15.2259 84.6859 15.3398 84.5459C15.4538 84.4059 15.54 84.2367 15.5986 84.0381C15.6605 83.8395 15.6914 83.6165 15.6914 83.3691C15.6914 83.1445 15.6605 82.9362 15.5986 82.7441C15.5368 82.5521 15.444 82.3844 15.3203 82.2412C15.1999 82.098 15.0518 81.9873 14.876 81.9092C14.7002 81.8278 14.4984 81.7871 14.2705 81.7871C13.9678 81.7871 13.7383 81.8278 13.582 81.9092C13.429 81.9906 13.2712 82.1012 13.1084 82.2412Z" fill="white"/>
<line x1="25.5" y1="82" x2="215.5" y2="82" stroke="white" stroke-opacity="0.4" stroke-miterlimit="16" stroke-linecap="round" stroke-linejoin="round" stroke-dasharray="0.1 3"/>
<rect width="191" height="1" transform="matrix(1 0 0 -1 25 110)" fill="white" fill-opacity="0.15"/>
</g>
<defs>
<linearGradient id="paint0_linear_37265_57560" x1="1" y1="0" x2="1" y2="11" gradientUnits="userSpaceOnUse">
<stop stop-color="white"/>
<stop offset="0.0001" stop-color="#878787"/>
<stop offset="1" stop-color="#575757" stop-opacity="0"/>
</linearGradient>
<linearGradient id="paint1_linear_37265_57560" x1="1" y1="0" x2="1" y2="11" gradientUnits="userSpaceOnUse">
<stop stop-color="white"/>
<stop offset="0.0001" stop-color="#878787"/>
<stop offset="1" stop-color="#575757" stop-opacity="0"/>
</linearGradient>
<linearGradient id="paint2_linear_37265_57560" x1="1" y1="0" x2="1" y2="14" gradientUnits="userSpaceOnUse">
<stop stop-color="white"/>
<stop offset="0.0001" stop-color="#878787"/>
<stop offset="1" stop-color="#575757" stop-opacity="0"/>
</linearGradient>
<linearGradient id="paint3_linear_37265_57560" x1="1" y1="0" x2="1" y2="14" gradientUnits="userSpaceOnUse">
<stop stop-color="white"/>
<stop offset="0.0001" stop-color="#878787"/>
<stop offset="1" stop-color="#575757" stop-opacity="0"/>
</linearGradient>
<linearGradient id="paint4_linear_37265_57560" x1="1" y1="0" x2="1" y2="16" gradientUnits="userSpaceOnUse">
<stop stop-color="white"/>
<stop offset="0.0001" stop-color="#878787"/>
<stop offset="1" stop-color="#575757" stop-opacity="0"/>
</linearGradient>
<linearGradient id="paint5_linear_37265_57560" x1="1" y1="0" x2="1" y2="16" gradientUnits="userSpaceOnUse">
<stop stop-color="white"/>
<stop offset="0.0001" stop-color="#878787"/>
<stop offset="1" stop-color="#575757" stop-opacity="0"/>
</linearGradient>
<linearGradient id="paint6_linear_37265_57560" x1="1" y1="0" x2="1" y2="16" gradientUnits="userSpaceOnUse">
<stop stop-color="white"/>
<stop offset="0.0001" stop-color="#878787"/>
<stop offset="1" stop-color="#575757" stop-opacity="0"/>
</linearGradient>
<linearGradient id="paint7_linear_37265_57560" x1="1" y1="0" x2="1" y2="16" gradientUnits="userSpaceOnUse">
<stop stop-color="white"/>
<stop offset="0.0001" stop-color="#878787"/>
<stop offset="1" stop-color="#575757" stop-opacity="0"/>
</linearGradient>
<linearGradient id="paint8_linear_37265_57560" x1="1" y1="0" x2="1" y2="14" gradientUnits="userSpaceOnUse">
<stop stop-color="white"/>
<stop offset="0.0001" stop-color="#878787"/>
<stop offset="1" stop-color="#575757" stop-opacity="0"/>
</linearGradient>
<linearGradient id="paint9_linear_37265_57560" x1="1" y1="0" x2="1" y2="14" gradientUnits="userSpaceOnUse">
<stop stop-color="white"/>
<stop offset="0.0001" stop-color="#878787"/>
<stop offset="1" stop-color="#575757" stop-opacity="0"/>
</linearGradient>
<linearGradient id="paint10_linear_37265_57560" x1="1" y1="0" x2="1" y2="11" gradientUnits="userSpaceOnUse">
<stop stop-color="white"/>
<stop offset="0.0001" stop-color="#878787"/>
<stop offset="1" stop-color="#575757" stop-opacity="0"/>
</linearGradient>
<linearGradient id="paint11_linear_37265_57560" x1="1" y1="0" x2="1" y2="11" gradientUnits="userSpaceOnUse">
<stop stop-color="white"/>
<stop offset="0.0001" stop-color="#878787"/>
<stop offset="1" stop-color="#575757" stop-opacity="0"/>
</linearGradient>
<linearGradient id="paint12_linear_37265_57560" x1="1" y1="0" x2="1" y2="9" gradientUnits="userSpaceOnUse">
<stop stop-color="white"/>
<stop offset="0.0001" stop-color="#878787"/>
<stop offset="1" stop-color="#575757" stop-opacity="0"/>
</linearGradient>
<linearGradient id="paint13_linear_37265_57560" x1="1" y1="0" x2="1" y2="9" gradientUnits="userSpaceOnUse">
<stop stop-color="white"/>
<stop offset="0.0001" stop-color="#878787"/>
<stop offset="1" stop-color="#575757" stop-opacity="0"/>
</linearGradient>
<linearGradient id="paint14_linear_37265_57560" x1="1" y1="0" x2="1" y2="8" gradientUnits="userSpaceOnUse">
<stop stop-color="white"/>
<stop offset="0.0001" stop-color="#878787"/>
<stop offset="1" stop-color="#575757" stop-opacity="0"/>
</linearGradient>
<linearGradient id="paint15_linear_37265_57560" x1="1" y1="0" x2="1" y2="8" gradientUnits="userSpaceOnUse">
<stop stop-color="white"/>
<stop offset="0.0001" stop-color="#878787"/>
<stop offset="1" stop-color="#575757" stop-opacity="0"/>
</linearGradient>
<linearGradient id="paint16_linear_37265_57560" x1="1" y1="0" x2="1" y2="8" gradientUnits="userSpaceOnUse">
<stop stop-color="white"/>
<stop offset="0.0001" stop-color="#878787"/>
<stop offset="1" stop-color="#575757" stop-opacity="0"/>
</linearGradient>
<linearGradient id="paint17_linear_37265_57560" x1="1" y1="0" x2="1" y2="8" gradientUnits="userSpaceOnUse">
<stop stop-color="white"/>
<stop offset="0.0001" stop-color="#878787"/>
<stop offset="1" stop-color="#575757" stop-opacity="0"/>
</linearGradient>
<linearGradient id="paint18_linear_37265_57560" x1="1" y1="0" x2="1" y2="8" gradientUnits="userSpaceOnUse">
<stop stop-color="white"/>
<stop offset="0.0001" stop-color="#878787"/>
<stop offset="1" stop-color="#575757" stop-opacity="0"/>
</linearGradient>
<linearGradient id="paint19_linear_37265_57560" x1="1" y1="0" x2="1" y2="8" gradientUnits="userSpaceOnUse">
<stop stop-color="white"/>
<stop offset="0.0001" stop-color="#878787"/>
<stop offset="1" stop-color="#575757" stop-opacity="0"/>
</linearGradient>
<linearGradient id="paint20_linear_37265_57560" x1="1" y1="0" x2="1" y2="9" gradientUnits="userSpaceOnUse">
<stop stop-color="white"/>
<stop offset="0.0001" stop-color="#878787"/>
<stop offset="1" stop-color="#575757" stop-opacity="0"/>
</linearGradient>
<linearGradient id="paint21_linear_37265_57560" x1="1" y1="0" x2="1" y2="9" gradientUnits="userSpaceOnUse">
<stop stop-color="white"/>
<stop offset="0.0001" stop-color="#878787"/>
<stop offset="1" stop-color="#575757" stop-opacity="0"/>
</linearGradient>
<linearGradient id="paint22_linear_37265_57560" x1="1" y1="0" x2="1" y2="10" gradientUnits="userSpaceOnUse">
<stop stop-color="white"/>
<stop offset="0.0001" stop-color="#878787"/>
<stop offset="1" stop-color="#575757" stop-opacity="0"/>
</linearGradient>
<linearGradient id="paint23_linear_37265_57560" x1="1" y1="0" x2="1" y2="10" gradientUnits="userSpaceOnUse">
<stop stop-color="white"/>
<stop offset="0.0001" stop-color="#878787"/>
<stop offset="1" stop-color="#575757" stop-opacity="0"/>
</linearGradient>
<linearGradient id="paint24_linear_37265_57560" x1="1" y1="0" x2="1" y2="11" gradientUnits="userSpaceOnUse">
<stop stop-color="white"/>
<stop offset="0.0001" stop-color="#878787"/>
<stop offset="1" stop-color="#575757" stop-opacity="0"/>
</linearGradient>
<linearGradient id="paint25_linear_37265_57560" x1="1" y1="0" x2="1" y2="11" gradientUnits="userSpaceOnUse">
<stop stop-color="white"/>
<stop offset="0.0001" stop-color="#878787"/>
<stop offset="1" stop-color="#575757" stop-opacity="0"/>
</linearGradient>
<linearGradient id="paint26_linear_37265_57560" x1="1" y1="0" x2="1" y2="12" gradientUnits="userSpaceOnUse">
<stop stop-color="white"/>
<stop offset="0.0001" stop-color="#878787"/>
<stop offset="1" stop-color="#575757" stop-opacity="0"/>
</linearGradient>
<linearGradient id="paint27_linear_37265_57560" x1="1" y1="0" x2="1" y2="12" gradientUnits="userSpaceOnUse">
<stop stop-color="white"/>
<stop offset="0.0001" stop-color="#878787"/>
<stop offset="1" stop-color="#575757" stop-opacity="0"/>
</linearGradient>
<linearGradient id="paint28_linear_37265_57560" x1="1" y1="0" x2="1" y2="14" gradientUnits="userSpaceOnUse">
<stop stop-color="white"/>
<stop offset="0.0001" stop-color="#878787"/>
<stop offset="1" stop-color="#575757" stop-opacity="0"/>
</linearGradient>
<linearGradient id="paint29_linear_37265_57560" x1="1" y1="0" x2="1" y2="14" gradientUnits="userSpaceOnUse">
<stop stop-color="white"/>
<stop offset="0.0001" stop-color="#878787"/>
<stop offset="1" stop-color="#575757" stop-opacity="0"/>
</linearGradient>
<linearGradient id="paint30_linear_37265_57560" x1="1" y1="0" x2="1" y2="17" gradientUnits="userSpaceOnUse">
<stop stop-color="white"/>
<stop offset="0.0001" stop-color="#878787"/>
<stop offset="1" stop-color="#575757" stop-opacity="0"/>
</linearGradient>
<linearGradient id="paint31_linear_37265_57560" x1="1" y1="0" x2="1" y2="17" gradientUnits="userSpaceOnUse">
<stop stop-color="white"/>
<stop offset="0.0001" stop-color="#878787"/>
<stop offset="1" stop-color="#575757" stop-opacity="0"/>
</linearGradient>
<linearGradient id="paint32_linear_37265_57560" x1="1" y1="0" x2="1" y2="20" gradientUnits="userSpaceOnUse">
<stop stop-color="white"/>
<stop offset="0.0001" stop-color="#878787"/>
<stop offset="1" stop-color="#575757" stop-opacity="0"/>
</linearGradient>
<linearGradient id="paint33_linear_37265_57560" x1="1" y1="0" x2="1" y2="20" gradientUnits="userSpaceOnUse">
<stop stop-color="white"/>
<stop offset="0.0001" stop-color="#878787"/>
<stop offset="1" stop-color="#575757" stop-opacity="0"/>
</linearGradient>
<linearGradient id="paint34_linear_37265_57560" x1="1" y1="0" x2="1" y2="21" gradientUnits="userSpaceOnUse">
<stop stop-color="white"/>
<stop offset="0.0001" stop-color="#878787"/>
<stop offset="1" stop-color="#575757" stop-opacity="0"/>
</linearGradient>
<linearGradient id="paint35_linear_37265_57560" x1="1" y1="0" x2="1" y2="21" gradientUnits="userSpaceOnUse">
<stop stop-color="white"/>
<stop offset="0.0001" stop-color="#878787"/>
<stop offset="1" stop-color="#575757" stop-opacity="0"/>
</linearGradient>
<linearGradient id="paint36_linear_37265_57560" x1="1" y1="0" x2="1" y2="21" gradientUnits="userSpaceOnUse">
<stop stop-color="white"/>
<stop offset="0.0001" stop-color="#878787"/>
<stop offset="1" stop-color="#575757" stop-opacity="0"/>
</linearGradient>
<linearGradient id="paint37_linear_37265_57560" x1="1" y1="0" x2="1" y2="21" gradientUnits="userSpaceOnUse">
<stop stop-color="white"/>
<stop offset="0.0001" stop-color="#878787"/>
<stop offset="1" stop-color="#575757" stop-opacity="0"/>
</linearGradient>
<linearGradient id="paint38_linear_37265_57560" x1="1" y1="0" x2="1" y2="20" gradientUnits="userSpaceOnUse">
<stop stop-color="white"/>
<stop offset="0.0001" stop-color="#878787"/>
<stop offset="1" stop-color="#575757" stop-opacity="0"/>
</linearGradient>
<linearGradient id="paint39_linear_37265_57560" x1="1" y1="0" x2="1" y2="20" gradientUnits="userSpaceOnUse">
<stop stop-color="white"/>
<stop offset="0.0001" stop-color="#878787"/>
<stop offset="1" stop-color="#575757" stop-opacity="0"/>
</linearGradient>
<linearGradient id="paint40_linear_37265_57560" x1="1" y1="0" x2="1" y2="17" gradientUnits="userSpaceOnUse">
<stop stop-color="white"/>
<stop offset="0.0001" stop-color="#878787"/>
<stop offset="1" stop-color="#575757" stop-opacity="0"/>
</linearGradient>
<linearGradient id="paint41_linear_37265_57560" x1="1" y1="0" x2="1" y2="17" gradientUnits="userSpaceOnUse">
<stop stop-color="white"/>
<stop offset="0.0001" stop-color="#878787"/>
<stop offset="1" stop-color="#575757" stop-opacity="0"/>
</linearGradient>
<linearGradient id="paint42_linear_37265_57560" x1="1" y1="0" x2="1" y2="16" gradientUnits="userSpaceOnUse">
<stop stop-color="white"/>
<stop offset="0.0001" stop-color="#878787"/>
<stop offset="1" stop-color="#575757" stop-opacity="0"/>
</linearGradient>
<linearGradient id="paint43_linear_37265_57560" x1="1" y1="0" x2="1" y2="16" gradientUnits="userSpaceOnUse">
<stop stop-color="white"/>
<stop offset="0.0001" stop-color="#878787"/>
<stop offset="1" stop-color="#575757" stop-opacity="0"/>
</linearGradient>
<linearGradient id="paint44_linear_37265_57560" x1="1" y1="0" x2="1" y2="15" gradientUnits="userSpaceOnUse">
<stop stop-color="white"/>
<stop offset="0.0001" stop-color="#878787"/>
<stop offset="1" stop-color="#575757" stop-opacity="0"/>
</linearGradient>
<linearGradient id="paint45_linear_37265_57560" x1="1" y1="0" x2="1" y2="15" gradientUnits="userSpaceOnUse">
<stop stop-color="white"/>
<stop offset="0.0001" stop-color="#878787"/>
<stop offset="1" stop-color="#575757" stop-opacity="0"/>
</linearGradient>
<linearGradient id="paint46_linear_37265_57560" x1="1" y1="0" x2="1" y2="16" gradientUnits="userSpaceOnUse">
<stop stop-color="white"/>
<stop offset="0.0001" stop-color="#878787"/>
<stop offset="1" stop-color="#575757" stop-opacity="0"/>
</linearGradient>
<linearGradient id="paint47_linear_37265_57560" x1="1" y1="0" x2="1" y2="16" gradientUnits="userSpaceOnUse">
<stop stop-color="white"/>
<stop offset="0.0001" stop-color="#878787"/>
<stop offset="1" stop-color="#575757" stop-opacity="0"/>
</linearGradient>
<linearGradient id="paint48_linear_37265_57560" x1="1" y1="0" x2="1" y2="17" gradientUnits="userSpaceOnUse">
<stop stop-color="white"/>
<stop offset="0.0001" stop-color="#878787"/>
<stop offset="1" stop-color="#575757" stop-opacity="0"/>
</linearGradient>
<linearGradient id="paint49_linear_37265_57560" x1="1" y1="0" x2="1" y2="17" gradientUnits="userSpaceOnUse">
<stop stop-color="white"/>
<stop offset="0.0001" stop-color="#878787"/>
<stop offset="1" stop-color="#575757" stop-opacity="0"/>
</linearGradient>
<linearGradient id="paint50_linear_37265_57560" x1="1" y1="0" x2="1" y2="17" gradientUnits="userSpaceOnUse">
<stop stop-color="white"/>
<stop offset="0.0001" stop-color="#878787"/>
<stop offset="1" stop-color="#575757" stop-opacity="0"/>
</linearGradient>
<linearGradient id="paint51_linear_37265_57560" x1="1" y1="0" x2="1" y2="17" gradientUnits="userSpaceOnUse">
<stop stop-color="white"/>
<stop offset="0.0001" stop-color="#878787"/>
<stop offset="1" stop-color="#575757" stop-opacity="0"/>
</linearGradient>
<linearGradient id="paint52_linear_37265_57560" x1="1" y1="0" x2="1" y2="18" gradientUnits="userSpaceOnUse">
<stop stop-color="white"/>
<stop offset="0.0001" stop-color="#878787"/>
<stop offset="1" stop-color="#575757" stop-opacity="0"/>
</linearGradient>
<linearGradient id="paint53_linear_37265_57560" x1="1" y1="0" x2="1" y2="18" gradientUnits="userSpaceOnUse">
<stop stop-color="white"/>
<stop offset="0.0001" stop-color="#878787"/>
<stop offset="1" stop-color="#575757" stop-opacity="0"/>
</linearGradient>
<linearGradient id="paint54_linear_37265_57560" x1="1" y1="0" x2="1" y2="17" gradientUnits="userSpaceOnUse">
<stop stop-color="white"/>
<stop offset="0.0001" stop-color="#878787"/>
<stop offset="1" stop-color="#575757" stop-opacity="0"/>
</linearGradient>
<linearGradient id="paint55_linear_37265_57560" x1="1" y1="0" x2="1" y2="17" gradientUnits="userSpaceOnUse">
<stop stop-color="white"/>
<stop offset="0.0001" stop-color="#878787"/>
<stop offset="1" stop-color="#575757" stop-opacity="0"/>
</linearGradient>
<linearGradient id="paint56_linear_37265_57560" x1="1" y1="0" x2="1" y2="17" gradientUnits="userSpaceOnUse">
<stop stop-color="white"/>
<stop offset="0.0001" stop-color="#878787"/>
<stop offset="1" stop-color="#575757" stop-opacity="0"/>
</linearGradient>
<linearGradient id="paint57_linear_37265_57560" x1="1" y1="0" x2="1" y2="17" gradientUnits="userSpaceOnUse">
<stop stop-color="white"/>
<stop offset="0.0001" stop-color="#878787"/>
<stop offset="1" stop-color="#575757" stop-opacity="0"/>
</linearGradient>
<linearGradient id="paint58_linear_37265_57560" x1="1" y1="0" x2="1" y2="15" gradientUnits="userSpaceOnUse">
<stop stop-color="white"/>
<stop offset="0.0001" stop-color="#878787"/>
<stop offset="1" stop-color="#575757" stop-opacity="0"/>
</linearGradient>
<linearGradient id="paint59_linear_37265_57560" x1="1" y1="0" x2="1" y2="15" gradientUnits="userSpaceOnUse">
<stop stop-color="white"/>
<stop offset="0.0001" stop-color="#878787"/>
<stop offset="1" stop-color="#575757" stop-opacity="0"/>
</linearGradient>
<linearGradient id="paint60_linear_37265_57560" x1="1" y1="0" x2="1" y2="13" gradientUnits="userSpaceOnUse">
<stop stop-color="white"/>
<stop offset="0.0001" stop-color="#878787"/>
<stop offset="1" stop-color="#575757" stop-opacity="0"/>
</linearGradient>
<linearGradient id="paint61_linear_37265_57560" x1="1" y1="0" x2="1" y2="13" gradientUnits="userSpaceOnUse">
<stop stop-color="white"/>
<stop offset="0.0001" stop-color="#878787"/>
<stop offset="1" stop-color="#575757" stop-opacity="0"/>
</linearGradient>
<linearGradient id="paint62_linear_37265_57560" x1="1" y1="0" x2="1" y2="13" gradientUnits="userSpaceOnUse">
<stop stop-color="white"/>
<stop offset="0.0001" stop-color="#878787"/>
<stop offset="1" stop-color="#575757" stop-opacity="0"/>
</linearGradient>
<linearGradient id="paint63_linear_37265_57560" x1="1" y1="0" x2="1" y2="13" gradientUnits="userSpaceOnUse">
<stop stop-color="white"/>
<stop offset="0.0001" stop-color="#878787"/>
<stop offset="1" stop-color="#575757" stop-opacity="0"/>
</linearGradient>
<linearGradient id="paint64_linear_37265_57560" x1="120.617" y1="-4.80037" x2="120.617" y2="78.399" gradientUnits="userSpaceOnUse">
<stop stop-color="#F53D26"/>
<stop offset="1" stop-color="#F53D26" stop-opacity="0"/>
</linearGradient>
<clipPath id="clip0_37265_57560">
<rect width="216" height="110" fill="white"/>
</clipPath>
</defs>
</svg>
